<svg width="114" height="109" viewBox="0 0 114 109" fill="none" xmlns="http://www.w3.org/2000/svg">
<path d="M16.0565 17.3088C16.5962 17.2903 16.4415 17.4971 16.2042 17.7309C15.8526 18.0673 15.501 18.4037 15.1671 18.7535C13.36 20.6271 12.1295 22.8387 10.9658 25.1058C9.58416 27.817 8.23414 30.5432 6.58881 33.1232C5.5218 34.7966 4.36514 36.4011 2.75321 37.6507C2.23464 38.0527 2.02195 38.3655 2.29441 39.1341C2.83231 40.6478 2.76551 42.2741 2.67059 43.8719C2.4368 47.8461 1.53678 51.7261 0.895172 55.6448C0.192038 59.9537 0.446924 64.1213 3.04852 67.9038C3.7296 68.9181 4.58896 69.812 5.5886 70.546C5.92083 70.7848 5.9929 71.0169 5.8804 71.397C4.81339 75.0012 5.57805 78.3581 7.43433 81.5553C9.03747 84.3152 11.4246 86.4327 13.7625 88.5871C16.0477 90.7079 18.3435 92.8271 20.2876 95.259C21.2492 96.4615 22.1175 97.7179 22.7011 99.1357C22.8031 99.3846 22.8769 99.5864 23.2285 99.5965C26.4436 99.6941 29.2983 100.942 32.1108 102.25C34.9234 103.559 37.648 105.029 40.4553 106.341C43.971 107.984 47.6449 108.835 51.5807 108.098C53.1651 107.811 54.674 107.225 56.0192 106.374C56.2934 106.206 56.4921 106.056 56.8577 106.287C61.0993 108.978 65.6047 108.897 70.2172 107.362C73.2056 106.364 75.8951 104.74 78.7094 103.379C81.5553 102.003 84.4083 100.644 87.5407 99.9531C88.4196 99.7597 89.513 99.9228 90.1564 99.4687C90.7664 99.0381 90.8595 97.992 91.3271 97.2739C93.0427 94.6048 95.3121 92.3965 97.6043 90.1883C99.6241 88.2474 101.823 86.4764 103.644 84.3472C106.218 81.3333 107.817 77.9663 107.645 73.9803C107.622 73.4757 107.645 72.9375 107.445 72.4902C106.977 71.4155 107.376 70.7949 108.241 70.0431C111.272 67.4043 112.44 63.9531 112.595 60.1202C112.718 57.0727 111.975 54.1244 111.463 51.1509C110.918 47.9773 110.389 44.8036 110.51 41.5644C110.553 40.4426 110.846 39.3595 110.997 38.2545L111.236 38.0241C111.588 38.125 111.556 38.3369 111.472 38.6161C110.593 41.5677 110.883 44.5496 111.314 47.5164C111.771 50.6699 112.442 53.7964 112.847 56.9533C113.341 60.803 112.943 64.5468 110.753 67.9542C110.032 69.0763 109.128 70.0803 108.074 70.9277C107.786 71.1615 107.601 71.365 107.698 71.7687C108.883 76.7049 107.197 80.9045 104.022 84.7038C102.356 86.6984 100.32 88.3534 98.4288 90.1428C95.9344 92.4974 93.44 94.8655 91.6084 97.7717C91.483 97.9267 91.3856 98.1006 91.3201 98.2863C91.0054 99.8572 89.963 100.257 88.3757 100.421C85.6827 100.698 83.227 101.852 80.817 103.004C78.0466 104.326 75.3343 105.764 72.5411 107.04C68.6123 108.838 64.5148 109.6 60.1976 108.463C59.0423 108.155 57.9399 107.688 56.9245 107.077C56.6485 106.909 56.4393 106.763 56.0702 106.98C51.985 109.375 47.6677 109.397 43.238 108.068C40.2285 107.166 37.5672 105.564 34.8003 104.2C32.0335 102.836 29.2315 101.473 26.208 100.639C25.1357 100.343 24.0494 100.135 22.9261 100.194C22.6168 100.212 22.4674 100.148 22.3531 99.8454C21.2158 96.8467 19.029 94.5409 16.7755 92.304C14.4147 89.9932 11.9379 87.8101 9.64744 85.4606C7.04057 82.7864 5.29855 79.6599 4.90128 75.9481C4.7473 74.5547 4.85084 73.1462 5.20715 71.7872C5.32316 71.3516 5.26691 71.101 4.89601 70.7932C1.85671 68.2788 0.453955 64.9891 0.0795359 61.2319C-0.24039 58.0196 0.469776 54.8896 1.05514 51.7547C1.6405 48.6197 2.16609 45.5318 2.15906 42.3548C2.15906 41.122 2.03777 39.8943 1.58952 38.7254C1.46647 38.4059 1.40143 38.1284 1.72663 37.908C3.77978 36.5121 5.11926 34.5443 6.38314 32.5261C8.22535 29.5829 9.66854 26.4261 11.3121 23.3735C12.5444 21.1064 13.984 18.9788 16.0565 17.3088Z" fill="#18AB8E"/>
<path d="M68.7864 3.51438C68.6546 3.83225 68.3874 3.89448 68.0745 3.85075C64.4938 3.30751 60.899 2.76764 57.6681 1.0757C56.8542 0.650194 56.355 0.616557 55.5359 1.08579C53.0749 2.50191 50.2624 2.98628 47.4744 3.50765C43.892 4.18039 40.2286 4.37549 36.6725 5.1895C35.8797 5.37114 35.1028 5.60996 34.3188 5.82187L33.9918 5.56119C36.3157 4.56722 38.8188 4.33176 41.2939 3.98866C45.2824 3.43533 49.2938 2.98796 53.1206 1.68453C54.1964 1.31789 55.23 0.873879 56.13 0.170867C56.355 0.00268246 56.5167 -0.0814099 56.805 0.108639C59.6035 1.95867 62.859 2.53386 66.104 3.13596C66.9899 3.29406 67.8917 3.38824 68.7864 3.51438Z" fill="#18AB8E"/>
<path d="M98.87 19.7928C97.1597 17.8873 95.2612 16.2172 92.8037 15.2131C91.4186 14.648 89.9912 14.2646 88.4795 14.2326C87.9802 14.2225 87.7904 14.0527 87.6111 13.6272C85.7531 9.24595 82.1917 6.777 77.5668 5.4887C75.076 4.7941 72.5148 4.51323 69.9694 4.12136C69.7937 4.09277 69.3788 4.28955 69.414 3.82536C70.8554 3.65717 72.2423 4.04568 73.6433 4.24414C74.9524 4.44394 76.2474 4.72028 77.5211 5.07161C82.1882 6.29599 85.7829 8.75317 87.8132 13.0436C88.0804 13.6087 88.3775 13.8054 89.0033 13.871C93.2555 14.3117 96.5286 16.3703 99.088 19.5691L98.87 19.7928Z" fill="#18AB8E"/>
<path d="M98.8701 19.793L99.0951 19.5693C100.837 21.5186 101.929 23.8328 103.08 26.1117C104.838 29.5965 106.626 33.0678 109.108 36.1557L108.893 36.3777C107.076 34.3881 105.787 32.0756 104.529 29.7512C103.537 27.9248 102.625 26.0646 101.676 24.2146C100.876 22.6659 99.9372 21.1865 98.8701 19.793Z" fill="#18AB8E"/>
<path d="M33.9918 5.55664L34.3188 5.81733C31.9387 6.74571 29.7484 7.95327 28.0152 9.8134C26.9808 10.9207 26.1606 12.1952 25.5929 13.5774C25.4839 13.8381 25.4575 14.124 25.0444 14.1038C24.1022 14.0567 23.1952 14.3207 22.267 14.42L22.0139 14.1812C22.7751 13.865 23.596 13.8011 24.3975 13.759C24.8511 13.7355 25.0304 13.5908 25.2044 13.1956C26.9218 9.38116 29.991 6.97444 33.9918 5.55664Z" fill="#18AB8E"/>
<path d="M22.0138 14.1807L22.267 14.4195C20.2947 15.0636 18.4331 15.9029 16.8388 17.2198C16.619 17.3997 16.3219 17.5982 16.3114 17.0516C17.9813 15.6674 19.8165 14.5961 22.0138 14.1807Z" fill="#18AB8E"/>
<path d="M108.893 36.3773L109.108 36.1553L111.217 38.0305L110.978 38.2609C110.154 37.7783 109.444 37.1368 108.893 36.3773Z" fill="#18AB8E"/>
<path d="M64.7874 106.962C61.5442 106.945 59.1623 106.279 57.0968 104.689C56.8156 104.474 56.5554 104.17 56.0791 104.533C52.4245 107.322 48.3446 107.362 44.0906 106.168C41.3572 105.399 38.9524 103.963 36.4493 102.723C33.0637 101.042 29.7185 99.2117 25.9357 98.5188C24.3536 98.2312 23.5942 97.5315 22.8331 96.2769C20.9082 93.1032 18.0869 90.6292 15.3693 88.0812C13.223 86.063 10.9519 84.1558 9.29949 81.7087C7.71744 79.3541 6.7893 76.8229 6.93344 73.9823C6.98224 72.9813 7.19888 71.9944 7.57506 71.0592C7.78248 70.5429 7.73326 70.2284 7.22349 69.8954C3.91348 67.7746 2.57049 64.6295 2.18201 60.9614C1.87615 58.0838 2.47909 55.3087 2.99413 52.5169C3.72363 48.5645 4.54982 44.5971 4.06465 40.5758C3.88887 39.1327 4.36524 38.3204 5.28459 37.3382C7.65943 34.7969 9.20633 31.7376 10.7884 28.7137C12.3933 25.6477 13.7503 22.4454 16.1902 19.8419C18.1502 17.7531 20.453 16.2176 23.3973 15.6844C24.2429 15.5297 25.0884 15.6272 25.9339 15.5986C26.2661 15.5869 26.5122 15.5986 26.637 15.1731C28.0574 10.3782 31.7998 8.0236 36.4809 6.70335C38.7661 6.05584 41.162 5.86243 43.5123 5.52606C47.8752 4.88864 52.2927 4.44631 56.2584 2.35914C56.5871 2.19096 56.798 2.28178 57.0529 2.41296C59.9481 3.88794 63.1139 4.47995 66.2956 5.02319C70.1628 5.68415 74.1215 5.81366 77.8604 7.05318C81.3884 8.23047 84.4664 10.062 85.892 13.5333C86.5019 15.0184 87.0978 15.6188 88.8944 15.7332C93.3311 16.0124 96.3107 18.7 98.6609 22.0721C100.317 24.4452 101.433 27.1008 102.774 29.6404C104.159 32.259 105.564 34.8659 107.533 37.1448C107.57 37.1885 107.594 37.2474 107.64 37.276C109.384 38.3439 109.322 39.935 109.004 41.5966C108.726 43.0498 109.004 44.4978 109.143 45.9308C109.514 49.7502 110.54 53.4856 110.936 57.2984C111.287 60.6049 110.99 63.8794 109.109 66.8344C108.291 68.1331 107.172 69.2349 105.838 70.0552C105.446 70.2974 105.262 70.5513 105.43 71.0172C107.004 75.39 105.741 79.2313 102.996 82.7767C101.403 84.8319 99.3992 86.5188 97.4902 88.2914C94.9097 90.6864 92.1921 93.0006 90.3938 96.0162C89.4586 97.5837 88.3934 98.3708 86.5266 98.7458C82.6786 99.5211 79.2983 101.475 75.8424 103.201C73.2654 104.488 70.7447 105.892 67.8566 106.497C66.6472 106.756 65.4237 106.982 64.7874 106.962ZM64.1458 105.616C65.3516 105.65 66.5171 105.421 67.6825 105.16C70.416 104.547 72.8049 103.191 75.2553 101.965C78.8712 100.165 82.4343 98.2278 86.4422 97.3347C87.6727 97.0606 88.4039 96.5527 89.0403 95.5116C90.9159 92.4355 93.6458 90.0338 96.2632 87.5531C98.0896 85.8225 100.051 84.2096 101.633 82.2587C104.332 78.9303 105.654 75.2975 103.985 71.1248C103.634 70.2469 103.746 69.7205 104.643 69.1958C108.194 67.117 109.484 63.8677 109.614 60.06C109.758 55.8738 108.412 51.871 107.96 47.7572C107.712 45.4884 107.357 43.2297 107.629 40.9273C107.698 40.3521 108.05 39.6608 107.482 39.1058C105.516 37.1868 104.1 34.9012 102.769 32.5735C101.097 29.637 99.7806 26.5189 98.0123 23.6345C96.4618 21.1117 94.4808 18.9892 91.6172 17.748C89.9772 17.0333 88.2545 16.8752 86.4967 16.9677C85.8498 17.0013 85.5633 16.7995 85.4033 16.2024C85.2073 15.4193 84.9342 14.6557 84.5877 13.9218C83.0443 10.8272 80.2511 9.21267 76.985 8.20356C73.4781 7.12886 69.7867 6.97581 66.1919 6.37035C63.0963 5.84897 60.0166 5.27715 57.1566 3.96531C56.9953 3.87759 56.8124 3.83288 56.6269 3.83584C56.4413 3.8388 56.2601 3.88932 56.1019 3.98212C54.8499 4.56909 53.5373 5.0296 52.1854 5.35619C47.8858 6.48471 43.4332 6.77063 39.0685 7.54259C33.6455 8.49788 29.2246 10.6792 27.7287 16.3017C27.5933 16.8062 27.3191 16.9323 26.804 16.9273C25.7265 16.9172 24.6419 16.8348 23.5714 17.0383C20.3 17.6623 17.999 19.6284 16.1199 22.1057C14.123 24.7395 12.8943 27.7803 11.3456 30.6495C9.73895 33.6331 8.07252 36.5746 5.62561 39.0301C5.53666 39.1005 5.46823 39.1917 5.42696 39.2948C5.38569 39.398 5.37298 39.5096 5.39006 39.6188C5.61657 41.1346 5.67549 42.6691 5.56585 44.1968C5.41116 47.0677 4.89435 49.8848 4.39513 52.7069C3.93985 55.2785 3.36328 57.8265 3.55664 60.4737C3.82559 64.1401 5.22483 67.1725 8.58405 69.1756C9.31707 69.6145 9.49286 70.0669 9.14129 70.8692C7.65416 74.285 8.28522 77.5091 10.2347 80.5869C11.8941 83.2072 14.3005 85.1884 16.5453 87.3042C19.5459 90.1314 22.594 92.9165 24.6313 96.5106C24.7058 96.6442 24.8139 96.7579 24.9459 96.8413C25.0779 96.9247 25.2296 96.9752 25.3872 96.9883C28.1382 97.4508 30.6906 98.4633 33.1709 99.6338C36.3034 101.112 39.3796 102.703 42.5191 104.163C44.624 105.143 46.943 105.628 49.2833 105.577C51.7231 105.532 53.8835 104.632 55.7363 103.122C56.3058 102.656 56.7013 102.653 57.2744 103.122C59.2396 104.742 61.5073 105.665 64.1458 105.616Z" fill="#18AB8E"/>
<path d="M89.7309 36.9834C89.8047 38.9579 90.4832 40.6835 91.1371 42.4174C91.886 44.4087 92.895 46.3143 93.192 48.4536C93.4487 50.3389 93.2131 52.1318 92.227 53.8035C92.0512 54.0962 91.8754 54.3316 92.0969 54.7134C93.5278 57.1925 93.3713 59.759 92.466 62.3423C91.733 64.4311 90.7082 66.4191 90.0666 68.5416C89.715 69.7189 89.3635 70.9096 89.5164 72.1609C89.5317 72.2135 89.5358 72.2685 89.5284 72.3226C89.521 72.3767 89.5023 72.4288 89.4735 72.4759C89.4446 72.523 89.4061 72.564 89.3604 72.5966C89.3146 72.6292 89.2624 72.6526 89.207 72.6655C87.8869 73.17 86.9587 74.1438 86.0148 75.1008C84.3062 76.8331 82.9948 78.8816 81.2546 80.587C79.4282 82.3781 77.2854 83.5167 74.5924 83.4949C74.3181 83.4949 74.0879 83.5252 73.9367 83.801C72.1947 86.9662 69.1905 88.0678 65.7135 88.458C63.7354 88.6533 61.7741 88.9815 59.8441 89.4402C58.647 89.7413 57.5079 90.155 56.5042 90.8546C55.5067 90.2249 54.4073 89.7572 53.2505 89.4705C50.9213 88.9003 48.5236 88.7254 46.1664 88.3302C43.1007 87.8155 40.4833 86.6147 38.917 83.8716C38.867 83.773 38.7856 83.6922 38.6846 83.6405C38.5835 83.5889 38.468 83.5691 38.3545 83.584C35.2133 83.5722 32.856 82.0821 30.889 79.9024C29.2859 78.1247 27.8849 76.1839 26.1165 74.5374C25.2921 73.7688 23.9508 73.3601 23.4797 72.5763C23.0086 71.7926 23.3268 70.4875 23.0192 69.438C22.3969 67.3088 21.4371 65.299 20.5881 63.2505C19.6705 61.0456 19.2697 58.802 19.9306 56.4525C20.168 55.6115 20.973 54.8917 20.9467 54.0979C20.9203 53.3293 20.2963 52.5691 20.131 51.7433C19.7338 49.7604 20.0801 47.8532 20.7691 45.9779C21.5918 43.7427 22.6096 41.5715 23.144 39.2421C23.3655 38.2801 23.0842 37.1465 23.4727 36.383C23.833 35.6783 25.0547 35.3739 25.7702 34.6877C27.3716 33.1589 28.6829 31.4081 30.0347 29.6859C31.2248 28.1722 32.5572 26.8149 34.3432 25.9337C35.508 25.3364 36.8116 25.0304 38.1331 25.044C38.4846 25.044 38.8028 25.0742 39.0296 24.6975C40.7382 21.877 43.5296 20.7704 46.7131 20.2944C48.9982 19.9581 51.2975 19.7562 53.5282 19.1474C54.4598 18.8934 55.3669 18.589 56.165 18.0542C56.3407 17.9314 56.4954 17.7599 56.7661 17.9567C58.7226 19.3711 61.0939 19.546 63.3844 19.9396C65.1932 20.2507 67.0442 20.3449 68.8038 20.9184C70.8904 21.5911 72.6288 22.7096 73.7943 24.5394C73.9578 24.7967 74.1072 24.9447 74.4746 24.9229C77.4629 24.7328 79.7903 25.9992 81.7468 28.004C83.5046 29.8036 84.8581 31.9261 86.6335 33.7223C87.4597 34.5632 88.3035 35.3907 89.4162 35.865C90.151 36.1677 89.6096 36.6857 89.7309 36.9834ZM77.4418 54.9926V54.8244H64.5516C64.1192 54.8244 63.699 54.7319 63.634 55.3929C63.4582 57.216 62.5072 58.6641 61.0201 59.7808C60.6369 60.0684 60.5929 60.2652 60.8355 60.6588C65.2219 67.8189 69.5972 74.9836 73.9613 82.1528C74.0344 82.3013 74.1546 82.4241 74.3048 82.5035C74.4551 82.5829 74.6277 82.615 74.798 82.5951C76.415 82.5388 77.9806 82.0372 79.3069 81.1504C80.562 80.3347 81.4708 79.1994 82.3831 78.0709C83.6892 76.4547 85.0023 74.8451 86.5562 73.4341C87.1521 72.8925 88.0908 72.6133 88.4511 72.0095C88.8308 71.3721 88.6515 70.4387 88.8414 69.6432C89.4355 67.1507 90.5605 64.8432 91.5238 62.4802C92.4871 60.1172 92.4203 57.8568 91.3217 55.5728C91.1002 55.1137 90.8313 54.9808 90.3268 54.9825C86.0306 55.0077 81.7397 54.9926 77.4418 54.9926ZM56.4778 18.9876C56.3495 19.0499 56.2177 19.1087 56.0911 19.1777C54.8729 19.8235 53.5475 20.1868 52.1958 20.4138C50.2709 20.7502 48.3285 21.0042 46.3949 21.3069C43.73 21.7257 41.5731 22.9316 40.0175 25.0793C39.752 25.4476 39.7221 25.7419 39.9665 26.1439C44.3025 33.2985 48.6279 40.4609 52.9428 47.6312C53.2065 48.0684 53.4157 48.1105 53.8885 47.9188C54.6827 47.588 55.5382 47.4133 56.4043 47.4052C57.2704 47.3971 58.1293 47.5558 58.93 47.8717C59.5664 48.1155 59.7966 48.0029 60.1183 47.4697C64.1403 40.7849 68.178 34.1091 72.2316 27.4423C73.383 25.5435 73.3619 25.3484 71.7306 23.7422L71.6691 23.6833C69.9464 21.9595 67.7104 21.4347 65.3409 21.1168C62.3982 20.7233 59.3923 20.5366 56.7081 19.1104C56.6431 19.0667 56.5657 19.0314 56.4778 18.9876ZM35.4172 54.9506V54.8244C31.121 54.8244 26.8249 54.8396 22.5305 54.8093C21.8678 54.8093 21.5496 55.0178 21.3 55.5863C20.3191 57.8467 20.3543 60.0802 21.2807 62.349C22.2334 64.6851 23.3285 66.9707 24.0053 69.4128C24.262 70.3395 24.0053 71.4596 24.4958 72.1693C25.009 72.9194 26.1007 73.3298 26.8231 74.0278C28.6161 75.7617 30.0874 77.7547 31.6994 79.6334C32.9035 81.0377 34.3889 82.0233 36.2328 82.4925C38.3633 83.034 38.5954 82.9416 39.6923 81.147L39.8259 80.9317C43.8618 74.2907 47.9031 67.6502 51.9497 61.0103C52.259 60.5057 52.3381 60.2198 51.751 59.8044C50.3237 58.7953 49.5309 57.3623 49.29 55.699C49.1986 55.0902 49.0299 54.9304 48.3953 54.9354C44.0675 54.964 39.7432 54.9506 35.4172 54.9506ZM77.2291 53.9835V54.0239C81.4673 54.0239 85.7054 54.0239 89.9436 54.0356C90.4709 54.0356 90.7785 53.9011 91.058 53.452C92.4907 51.163 92.5223 48.8118 91.5379 46.3765C90.5535 43.9412 89.2123 41.5715 88.8326 38.9764C88.5935 37.3416 87.9537 36.2854 86.6001 35.2948C84.8107 33.9695 83.5714 32.1195 82.1669 30.4376C81.2018 29.2822 80.2596 28.0982 78.9799 27.2253C77.7793 26.4046 76.4557 25.9673 74.958 26.048C74.4711 26.0766 74.1845 26.2768 73.9349 26.6871C69.606 33.8103 65.2618 40.9251 60.9023 48.0314C60.6351 48.4687 60.6 48.7042 61.0781 49.0406C61.7972 49.5499 62.3964 50.1982 62.8367 50.9434C63.277 51.6887 63.5487 52.5141 63.634 53.3663C63.7026 53.9785 64.0401 53.9818 64.5129 53.9801C68.7528 53.9712 72.9916 53.9723 77.2291 53.9835ZM73.3021 83.2174C73.216 83.0492 73.1492 82.8945 73.063 82.7532C68.6907 75.5549 64.3201 68.3554 59.9513 61.1549C59.7386 60.8051 59.5752 60.7008 59.1427 60.8791C58.3117 61.2326 57.4132 61.4177 56.5038 61.4226C55.5944 61.4275 54.6938 61.2522 53.8587 60.9077C53.3647 60.7109 53.1661 60.8 52.9147 61.2255C48.6502 68.4496 44.3728 75.6659 40.0825 82.8743C39.8153 83.3233 39.8909 83.6193 40.1862 83.9961C41.5868 85.8251 43.6734 87.0638 46.0082 87.4523C48.6168 87.9316 51.2817 88.0729 53.8534 88.7877C54.7182 89.0282 58.248 89.0315 59.1058 88.7977C61.3646 88.1805 63.6938 87.9568 66.0036 87.6204C68.8161 87.2252 71.1751 86.0883 72.8837 83.8582C73.0367 83.6597 73.1615 83.4411 73.3021 83.2174ZM35.5895 53.7127V53.9213C39.8874 53.9213 44.187 53.9213 48.485 53.933C49.0123 53.933 49.2022 53.8422 49.2795 53.2788C49.3812 52.4423 49.6611 51.6346 50.102 50.9056C50.5428 50.1766 51.1351 49.5419 51.8424 49.0406C52.3047 48.7042 52.3012 48.4704 52.034 48.0314C47.698 40.9094 43.3679 33.78 39.0436 26.6434C38.8116 26.2599 38.576 26.1018 38.0786 26.1388C35.9859 26.2683 34.0098 27.1066 32.5045 28.5035C31.4498 29.4487 30.6447 30.5873 29.7534 31.6587C28.4983 33.1723 27.3013 34.76 25.6366 35.8734C24.719 36.4872 24.1653 37.0978 24.2567 38.201C24.2883 38.5744 24.1108 38.9646 24.0176 39.3447C23.4164 41.7767 22.2686 44.0186 21.3809 46.353C20.4932 48.6874 20.5019 50.9461 21.75 53.1644C21.9627 53.5462 22.1983 53.7295 22.6922 53.7279C26.9954 53.7043 31.2898 53.7127 35.5895 53.7127ZM50.2885 54.4292C50.2885 57.6836 53.1098 60.3846 56.4743 60.356C57.7019 60.359 58.9027 60.0134 59.9248 59.3629C60.9469 58.7125 61.7442 57.7864 62.2158 56.7021C62.6875 55.6178 62.8121 54.4239 62.574 53.2717C62.336 52.1195 61.7459 51.0609 60.8785 50.2298C60.0111 49.3987 58.9054 48.8326 57.7015 48.6032C56.4977 48.3738 55.2497 48.4914 54.1157 48.9411C52.9817 49.3908 52.0127 50.1523 51.3314 51.1293C50.6501 52.1063 50.2871 53.2547 50.2885 54.4292Z" fill="#18AB8E"/>
<path d="M33.8388 18.7232C33.8388 17.7141 33.5365 17.0229 33.3343 16.3182C33.1884 15.8136 33.4064 15.6354 33.7914 15.3999C34.2045 15.1476 34.4031 15.3192 34.6597 15.5933C35.2012 16.1685 35.7707 16.7218 36.5072 17.4652C36.4193 16.5301 36.1346 15.8809 35.8973 15.2351C35.66 14.5892 35.7215 14.157 36.567 14.0225C36.9801 15.4302 37.3914 16.8513 37.8168 18.2691C37.9399 18.6778 37.6516 18.7888 37.3809 18.9671C37.0557 19.1807 36.8535 19.063 36.6373 18.8359C36.0959 18.2859 35.5439 17.7494 34.992 17.2112C34.8373 17.0616 34.7265 16.8194 34.4154 16.922C34.6439 17.7629 34.8478 18.6156 35.1185 19.4447C35.2609 19.8921 35.1889 20.136 34.7424 20.3933C34.2959 20.6506 34.1254 20.3815 33.8916 20.1377C33.0232 19.2328 32.1478 18.3347 31.2882 17.4232C31.1441 17.2701 30.7609 17.0868 31.1599 16.8396C31.4218 16.6714 31.7031 16.3888 32.0529 16.7941C32.5714 17.4047 33.1392 17.9765 33.8388 18.7232ZM33.8757 18.7232C33.8951 18.703 33.9302 18.6829 33.932 18.6627C33.9338 18.6425 33.8986 18.6189 33.8793 18.5988L33.816 18.6879L33.8757 18.7232Z" fill="#18AB8E"/>
<path d="M13.6975 42.9504C14.3637 43.1488 15.0264 43.3641 15.6997 43.5424C16.0512 43.6349 16.1743 43.7795 16.067 44.1344C15.951 44.5178 15.7331 44.5111 15.4096 44.4085C14.2196 44.0301 13.0242 43.6685 11.8342 43.2934C11.5547 43.206 11.0906 43.1925 11.3262 42.7334C11.5142 42.3701 11.3068 41.6923 12.1119 41.7478C12.9697 41.8067 13.8293 41.8252 14.8629 41.8689C14.1317 41.1962 13.3934 40.8211 12.6832 40.4309C11.8975 39.9987 12.4441 39.5227 12.5531 39.0855C12.7025 38.4918 13.1244 38.9005 13.3881 38.9745C14.5342 39.2974 15.6733 39.6674 16.8053 40.0105C17.1341 40.1097 17.4048 40.1904 17.2536 40.6344C17.1024 41.0785 16.8475 41.0061 16.5223 40.885C15.8297 40.626 15.1038 40.5184 14.1369 40.3603C14.9368 40.8329 15.5291 41.171 16.1075 41.5376C16.4221 41.7327 16.8528 41.805 16.663 42.397C16.4731 42.989 16.046 42.7485 15.6891 42.7822C15.5728 42.7783 15.4578 42.7573 15.3481 42.7199C15.1565 42.54 14.942 42.5955 14.7276 42.6695L13.8364 42.6291C13.5551 42.5635 13.2703 42.4811 12.975 42.6712C13.0607 42.7726 13.172 42.8515 13.2984 42.9004C13.4248 42.9493 13.5622 42.9664 13.6975 42.9504Z" fill="#18AB8E"/>
<path d="M88.7044 90.3114C87.9309 89.9751 87.335 89.045 86.5792 89.1341C85.8848 89.2098 85.2766 89.9919 84.5401 90.5284C84.5401 89.8086 84.8125 89.2384 85.0041 88.6615C85.1588 88.1889 85.0762 87.8845 84.6033 87.6272C84.076 87.3413 83.6137 86.9763 82.8965 86.4936C83.8211 86.455 84.4785 86.3961 85.1254 86.4112C85.5631 86.423 85.7389 86.2615 85.8373 85.8747C86.0026 85.2339 86.2223 84.6049 86.4754 83.7842C86.7602 84.5629 87.0028 85.1414 87.1786 85.7402C87.3104 86.1976 87.5495 86.3557 88.0452 86.317C88.6481 86.2683 89.2563 86.3053 89.97 86.3053C89.5534 86.899 88.9593 87.1967 88.4565 87.5717C88.105 87.8374 88.0364 88.0594 88.1735 88.4833C88.3704 89.0921 88.8397 89.6421 88.6921 90.3333L88.7044 90.3114Z" fill="#18AB8E"/>
<path d="M30.3671 90.5343C29.5357 90.0079 28.9222 89.357 28.2138 89.241C27.4614 89.1216 26.9833 90.0432 26.3118 90.393C26.2078 90.4284 26.0987 90.4482 25.9884 90.4519C25.969 90.3762 25.9374 90.3274 25.9515 90.2955C26.797 88.2655 26.797 88.2655 25.0268 87.0428C24.8915 86.9486 24.7702 86.8376 24.4784 86.6038C25.2747 86.5635 25.8847 86.4962 26.5052 86.5147C27.0079 86.5298 27.2312 86.3717 27.3314 85.889C27.4614 85.2668 27.697 84.6647 27.9062 83.9902C28.3034 84.5806 28.4529 85.2129 28.6445 85.8117C28.8027 86.3061 29.0505 86.4844 29.5779 86.4356C30.1808 86.3902 30.789 86.4256 31.5502 86.4256C30.9771 86.8712 30.4955 87.29 29.9681 87.6466C29.5585 87.9224 29.4865 88.2049 29.6763 88.6405C29.9207 89.1989 30.0964 89.7842 30.3671 90.5343Z" fill="#18AB8E"/>
<path d="M98.1263 67.9062C98.9332 68.1484 99.6785 68.3939 100.436 68.5907C100.811 68.6883 100.893 68.8464 100.788 69.1911C100.682 69.5359 100.468 69.5662 100.141 69.467C98.9719 69.1121 97.7906 68.7942 96.6251 68.4225C96.3738 68.3435 95.8781 68.4394 95.9765 67.9398C96.0451 67.5883 96.1523 67.2503 96.6304 67.1544C97.3441 67.0115 98.0367 66.8181 98.7504 66.6263C98.9912 66.5641 99.2777 66.5725 99.4869 66.2765C98.7978 66.0679 98.1334 65.8762 97.4759 65.666C97.1595 65.5634 96.6744 65.6391 96.8906 65.0084C97.0857 64.4399 97.4179 64.7174 97.7045 64.7981C98.8564 65.1177 100.003 65.4541 101.143 65.8073C101.391 65.8813 101.798 65.8476 101.697 66.2849C101.621 66.6045 101.554 66.9173 101.099 67.0064C100.327 67.1561 99.5695 67.3731 98.8137 67.5732C98.5922 67.622 98.332 67.5967 98.1263 67.9062Z" fill="#18AB8E"/>
<path d="M100.29 46.2336C99.5872 46.3513 98.9034 46.4657 98.2266 46.5699C97.8751 46.6254 97.4954 46.8222 97.3759 46.2336C97.2563 45.6449 97.7274 45.7458 98.0122 45.692C99.1565 45.4784 100.308 45.29 101.461 45.1202C101.709 45.0832 102.062 44.8006 102.217 45.2026C102.356 45.5642 102.403 45.9392 101.987 46.2537C101.368 46.7179 100.797 47.241 100.211 47.7472C100.092 47.8515 99.9001 47.9154 99.9194 48.1929C100.696 48.2434 101.429 47.976 102.184 47.8868C102.488 47.8515 102.721 47.7708 102.802 48.2064C102.883 48.642 102.697 48.7345 102.321 48.795C101.113 48.9851 99.9089 49.2054 98.6995 49.3954C98.4534 49.4341 98.1177 49.6814 97.9682 49.2508C97.847 48.9027 97.7591 48.5781 98.144 48.2753C98.6907 47.8582 99.1987 47.4025 99.7155 46.9416C99.9212 46.7516 100.225 46.6423 100.29 46.2336Z" fill="#18AB8E"/>
<path d="M90.7434 80.9622C91.3568 81.418 91.958 81.8872 92.5856 82.3228C92.8967 82.5398 92.902 82.713 92.6858 82.9956C92.4344 83.3319 92.2393 83.2243 91.9826 83.0275C90.993 82.2875 89.9875 81.5693 89.0049 80.8209C88.8291 80.6881 88.4371 80.5989 88.6304 80.2676C88.8062 79.9665 88.982 79.6302 89.483 79.6924C90.4533 79.8118 91.4307 79.8791 92.5856 79.985C91.9703 79.2955 91.3235 78.9305 90.7381 78.4983C90.4393 78.278 90.318 78.1081 90.5992 77.7616C90.8805 77.4152 91.0527 77.5716 91.3024 77.7532C92.2709 78.4747 93.2518 79.1778 94.2133 79.906C94.412 80.0574 94.8356 80.1364 94.6423 80.5148C94.477 80.8428 94.2555 81.1119 93.7633 81.048C92.786 80.9185 91.8016 80.8462 90.8207 80.7503C90.7926 80.8243 90.768 80.8932 90.7434 80.9622Z" fill="#18AB8E"/>
<path d="M12.5496 57.7386C12.8943 57.2788 13.3304 56.8885 13.8328 56.5899C14.0508 56.4604 14.2934 56.0063 14.5131 56.2939C14.7328 56.5815 14.8489 57.0777 14.3918 57.4174C13.9998 57.7067 13.6219 58.0161 13.2404 58.3205C12.9346 58.5644 12.6727 58.8671 12.8168 59.254C12.9926 59.7215 13.4233 59.3498 13.7221 59.4306C14.1334 59.5399 14.8243 58.9395 14.9262 59.8662C14.9631 60.1857 14.8787 60.3186 14.5324 60.3472C13.1941 60.4537 11.8582 60.572 10.5246 60.702C10.1379 60.7407 9.99723 60.5894 9.97262 60.2479C9.93043 59.6357 9.87242 59.0236 9.83199 58.4114C9.78277 57.6966 9.88473 57.0491 10.7373 56.8052C11.5898 56.5613 12.1295 56.9246 12.5496 57.7386ZM10.6547 58.6922C10.8164 59.069 10.4437 59.8443 11.4949 59.6727C12.4459 59.5163 11.8992 58.9361 11.9027 58.5392C11.9027 58.1103 11.7797 57.6579 11.1715 57.7403C10.6353 57.8076 10.6371 58.2364 10.6547 58.6922Z" fill="#18AB8E"/>
<path d="M95.5248 34.1508C94.8463 34.467 94.1643 34.7765 93.4945 35.1061C93.2238 35.239 93.0393 35.2978 92.8723 34.9615C92.7246 34.6604 92.6842 34.4788 93.0481 34.3005C94.1432 33.7758 95.2137 33.2056 96.3106 32.6826C96.5532 32.5682 96.8133 32.178 97.1297 32.5261C97.4462 32.8743 97.4971 33.2174 97.1878 33.653C96.6604 34.388 96.2262 35.1801 95.676 36.0715C96.5743 35.9151 97.1878 35.4273 97.8803 35.1212C98.1722 34.9917 98.4077 34.7849 98.6415 35.2339C98.8507 35.6342 98.6731 35.7671 98.3444 35.9268C97.251 36.4566 96.1752 37.0184 95.0766 37.5364C94.8674 37.6339 94.616 38.0174 94.3401 37.6306C94.1362 37.3413 93.9147 37.0587 94.1907 36.65C94.718 35.8764 95.1662 35.0641 95.6479 34.2685C95.6602 34.2046 95.6725 34.1407 95.6866 34.0768L95.5248 34.1508Z" fill="#18AB8E"/>
<path d="M71.3423 95.9321C72.0811 96.3085 72.7446 96.8067 73.3023 97.4037C72.6572 97.8679 72.1158 97.7805 71.5779 97.2776C71.254 96.9953 70.9006 96.7456 70.5232 96.5325C70.3983 96.4555 70.2515 96.4176 70.103 96.4243C69.9546 96.4309 69.8121 96.4817 69.6953 96.5695C69.4527 96.7495 69.6742 96.9749 69.7322 97.175C69.7923 97.4474 69.8776 97.7142 69.9871 97.9722C70.1839 98.3607 70.0292 98.5053 69.6478 98.6264C69.2663 98.7475 69.1415 98.6517 69.0308 98.3018C68.6511 97.1032 68.2485 95.9108 67.8232 94.7246C67.6878 94.3461 67.7651 94.1729 68.1747 94.067C68.7654 93.9122 69.3402 93.7054 69.9326 93.5372C70.6357 93.332 71.3265 93.2714 71.8064 93.9677C72.2301 94.6018 72.1123 95.1282 71.3423 95.9321ZM71.0171 94.9634C70.9855 94.5429 70.8168 94.2318 70.4441 94.2991C69.9167 94.3949 69.2136 94.3209 68.9816 94.9096C68.9095 95.0929 68.9517 95.8413 69.4861 95.7505C70.0556 95.6647 70.7886 95.6193 71.0171 94.9634Z" fill="#18AB8E"/>
<path d="M101.965 54.3099C101.686 53.8608 101.563 53.469 102.103 53.0788C102.454 52.8215 102.426 52.3825 102.317 51.9873C102.26 51.7384 102.12 51.514 101.918 51.3478C101.716 51.1816 101.463 51.0826 101.197 51.0656C100.456 50.9815 99.7049 51.0135 99.225 51.6761C98.8734 52.1538 98.942 52.6852 99.2162 53.1898C99.3481 53.4353 99.5133 53.6035 99.828 53.5413C100.169 53.474 100.083 53.2184 100.072 53.0065C100.058 52.7323 99.9475 52.4531 100.424 52.4094C100.974 52.3606 100.839 52.7458 100.902 53.0048C100.905 53.0327 100.905 53.0609 100.902 53.0889C101.02 54.4444 100.55 54.8447 99.1442 54.547C99.0372 54.5201 98.9385 54.4694 98.8559 54.399C98.0455 53.7263 97.8908 51.8325 98.5693 50.9681C99.3129 50.0195 101.048 49.7369 102.148 50.3878C103.154 50.9832 103.555 52.4582 103.001 53.5093C102.904 53.7097 102.76 53.886 102.58 54.0248C102.401 54.1636 102.191 54.2611 101.965 54.3099Z" fill="#18AB8E"/>
<path d="M94.2872 72.1992C94.3241 71.1262 94.7056 70.2029 95.7498 69.7033C96.7429 69.2291 97.7045 69.5133 98.5482 70.107C99.9545 71.0925 99.7471 73.3664 98.2125 74.0492C97.8767 74.1972 97.3775 74.4108 97.1947 74.0627C97.0119 73.7145 97.1947 73.2756 97.7783 73.1612C98.2916 73.0603 98.499 72.6331 98.5799 72.1622C98.6765 71.5937 98.4146 71.1716 97.933 70.8907C97.3248 70.5342 96.6761 70.2466 95.9589 70.6267C95.4158 70.9143 95.2558 71.4087 95.2189 71.9722C95.1987 72.0976 95.2275 72.2258 95.2998 72.3322C95.3721 72.4386 95.4829 72.5158 95.6109 72.549C95.9783 72.6668 95.9449 72.3338 96.0697 72.1841C96.2209 72.0024 96.1593 71.5937 96.641 71.7871C97.0927 71.9671 97.0084 72.2127 96.8361 72.5137C96.8097 72.5625 96.7957 72.618 96.7728 72.6701C96.2068 73.918 95.7884 74.0156 94.5861 73.1949C94.18 72.9174 94.3628 72.5389 94.2872 72.1992Z" fill="#18AB8E"/>
<path d="M61.4773 13.2995C61.5705 12.3173 61.6426 11.5571 61.7182 10.7969C61.7498 10.4908 61.734 10.1763 62.2367 10.2133C62.7061 10.2486 62.7113 10.4824 62.6709 10.8355C62.5426 11.9725 62.4635 13.1144 62.3193 14.2497C62.2877 14.5037 62.4617 14.9376 61.952 14.9678C61.5248 14.9948 61.1908 14.8787 60.9869 14.4347C60.5921 13.5736 60.1149 12.7494 59.5613 11.9725C59.4781 12.7158 59.3961 13.4598 59.3152 14.2043C59.2853 14.4868 59.2906 14.7391 58.8318 14.7088C58.373 14.6786 58.3396 14.4532 58.3783 14.1034C58.5031 12.9379 58.605 11.7707 58.7298 10.6051C58.7562 10.3512 58.6543 9.9778 59.0814 9.96098C59.4541 9.94753 59.7969 9.99126 59.9955 10.4285C60.4191 11.3334 60.9113 12.2079 61.4773 13.2995Z" fill="#18AB8E"/>
<path d="M45.9397 99.2148C44.8569 99.1795 43.9111 98.8936 43.4471 97.9114C42.983 96.9292 43.1588 95.9268 43.8496 95.0657C44.8323 93.843 47.2598 94.0868 47.8469 95.4559C47.9401 95.6728 48.2372 96.0159 47.8012 96.1471C47.5235 96.2295 47.1174 96.3153 46.9223 95.8595C46.5848 95.0758 45.894 94.99 45.1645 95.2254C44.4701 95.4491 44.0254 96.7139 44.3225 97.4959C44.6002 98.2242 45.2155 98.4008 45.9502 98.3217C46.2438 98.2915 46.5497 98.2376 46.5813 97.866C46.6147 97.4657 46.2508 97.5582 46.0329 97.4774C45.8149 97.3967 45.5055 97.3984 45.618 96.9981C45.7217 96.6264 45.9221 96.5709 46.2508 96.6819C46.3086 96.6967 46.3673 96.7079 46.4266 96.7156C47.9436 97.0284 48.0807 97.2655 47.4444 98.643C47.1421 99.2905 46.4688 99.129 45.9397 99.2148Z" fill="#18AB8E"/>
<path d="M92.4098 26.3517C92.4238 27.566 91.5308 28.6609 90.4304 29.0814C89.4724 29.4463 88.7886 29.2496 87.9695 28.3666C86.753 27.0581 86.753 27.0581 88.1452 25.8808C88.8027 25.3292 89.4566 24.7758 90.1175 24.2292C90.2582 24.1132 90.4392 23.8542 90.6168 24.0611C91.3093 24.8616 92.2867 25.4873 92.4098 26.3517ZM91.4763 26.5485C91.4377 26.0608 91.0703 25.6252 90.6308 25.3376C90.2898 25.1156 90.0789 25.6 89.831 25.7866C89.3529 26.1482 88.9222 26.5687 88.4423 26.9269C88.1277 27.1607 88.1365 27.3508 88.3913 27.5997C88.7693 27.973 89.0663 28.4759 89.7519 28.3027C90.4375 28.1294 91.4254 27.1607 91.4763 26.5485Z" fill="#18AB8E"/>
<path d="M11.9873 52.2211C12.1367 51.947 11.6832 51.3937 12.3494 51.249C13.2652 51.0489 14.123 51.3365 14.3744 51.9083C14.8455 52.9813 14.9018 54.0409 14.0633 54.981C13.4076 55.716 12.0365 55.9111 10.9642 55.4856C9.47003 54.8936 9.013 52.6735 10.1995 51.6863C10.4333 51.4929 10.7761 51.1246 11.0749 51.4609C11.2613 51.6796 11.3351 52.0849 10.9202 52.4112C10.7829 52.5148 10.6687 52.6438 10.5842 52.7903C10.4997 52.9369 10.4468 53.0981 10.4284 53.2645C10.4101 53.431 10.4267 53.5992 10.4774 53.7594C10.528 53.9196 10.6117 54.0685 10.7234 54.1973C11.2226 54.7809 12.6429 54.8818 13.3179 54.3823C13.833 54.0005 13.9683 53.1041 13.6185 52.5491C13.5754 52.4615 13.5057 52.3884 13.4186 52.3392C13.3314 52.29 13.2308 52.2671 13.1299 52.2733C12.9066 52.2817 12.8591 52.4213 12.817 52.5995C12.7484 52.8956 12.9927 53.4152 12.3125 53.3177C11.6322 53.2202 12.1209 52.7341 11.9925 52.4515C11.979 52.3754 11.9772 52.2978 11.9873 52.2211Z" fill="#18AB8E"/>
<path d="M40.3181 92.6065C41.7156 92.62 42.8547 93.661 42.8213 94.8938C42.7809 96.3957 41.7068 97.5629 40.3744 97.5545C38.9945 97.5444 37.8642 96.569 37.8536 95.3782C37.8396 93.92 39.0244 92.5948 40.3181 92.6065ZM40.4675 93.4895C39.6625 93.4895 38.8855 94.4111 38.8855 95.3917C38.8834 95.7291 39.0185 96.054 39.2622 96.2979C39.5059 96.5417 39.8392 96.6854 40.1916 96.6985C41.0248 96.7186 41.8422 95.7364 41.8193 94.7425C41.8133 94.4049 41.6676 94.0835 41.4142 93.8486C41.1608 93.6137 40.8203 93.4845 40.4675 93.4895Z" fill="#18AB8E"/>
<path d="M101.224 56.5396C101.751 57.69 103.509 58.0819 102.915 59.7906C102.431 59.2861 101.992 58.8539 101.598 58.3914C101.308 58.055 101.06 58.0045 100.654 58.245C99.8421 58.7244 98.9913 59.1448 98.137 59.6023C97.9243 58.753 98.1862 58.2383 98.9948 57.9944C99.2468 57.9197 99.4843 57.8061 99.6979 57.6581C99.93 57.4899 100.473 57.5168 100.343 57.1401C100.288 56.9502 100.175 56.7804 100.018 56.6523C99.8615 56.5241 99.6687 56.4433 99.4641 56.4202C99.2022 56.4034 98.9368 56.3849 98.6766 56.3866C98.2741 56.3866 98.2881 56.1444 98.3251 55.882C98.362 55.6197 98.3356 55.3775 98.7452 55.4044C100.113 55.5053 101.48 55.5894 102.848 55.6735C103.18 55.6937 103.298 55.8417 103.282 56.1562C103.266 56.4707 103.168 56.686 102.769 56.6506C102.264 56.5951 101.779 56.5733 101.224 56.5396Z" fill="#18AB8E"/>
<path d="M21.2016 81.1401C20.052 80.5834 18.4471 81.4058 17.7545 79.7323C18.4577 79.8114 19.0711 79.8501 19.6776 79.9611C20.1417 80.0469 20.3579 79.9291 20.5055 79.4885C20.7956 78.6156 21.1542 77.7646 21.4987 76.8682C22.2177 77.3929 22.4075 77.9513 21.9329 78.6661C21.8051 78.8855 21.7048 79.1187 21.6341 79.3607C21.5462 79.6146 21.2192 79.9678 21.4372 80.104C21.6087 80.2126 21.8082 80.274 22.0137 80.2814C22.2193 80.2888 22.423 80.242 22.6026 80.1461C22.8284 80.0174 23.0393 79.8663 23.2319 79.6953C23.5273 79.4279 23.7101 79.512 23.9351 79.7963C24.1601 80.0805 24.204 80.2436 23.87 80.469C22.7849 81.2258 21.7132 82 20.6549 82.7916C20.3385 83.0288 20.1803 82.9682 19.9624 82.6874C19.7444 82.4065 19.7004 82.2248 20.0327 82.0045C20.4194 81.7506 20.7885 81.4495 21.2016 81.1401Z" fill="#18AB8E"/>
<path d="M50.4155 14.2163C50.9868 14.144 51.5088 14.0834 52.0292 14.0111C52.3579 13.9657 52.6655 13.885 52.7323 14.366C52.7991 14.847 52.4475 14.773 52.1838 14.8083C51.4034 14.9176 50.6018 14.9546 49.8424 15.1211C49.1867 15.2641 48.9635 15.0757 48.8985 14.4635C48.7813 13.3513 48.6295 12.2429 48.4432 11.1385C48.3658 10.6811 48.4537 10.4658 48.9705 10.4237C49.8494 10.3413 50.709 10.2185 51.5756 10.0975C51.8428 10.0605 52.0362 10.0537 52.0626 10.3817C52.0819 10.6491 52.1153 10.8728 51.711 10.9081C51.1309 10.9586 50.5561 11.0763 49.976 11.1284C49.4926 11.1671 49.5366 11.4278 49.5629 11.7658C49.591 12.1476 49.7492 12.2317 50.1166 12.1661C50.6036 12.077 51.101 12.04 51.5897 11.9593C51.8868 11.9105 52.0801 11.9189 52.1487 12.2738C52.2173 12.6286 52.0749 12.7262 51.7532 12.7598C51.261 12.812 50.7723 12.9129 50.2784 12.9415C49.7844 12.97 49.7299 13.2324 49.8073 13.6142C49.8846 13.996 49.867 14.3979 50.4155 14.2163Z" fill="#18AB8E"/>
<path d="M70.3914 11.8995C69.8078 12.2359 69.3367 12.5722 68.8339 12.8077C68.3312 13.0431 68.1958 13.3442 68.4068 13.8622C68.732 14.6644 68.9921 15.4919 69.298 16.3597C68.4648 16.4052 67.9251 16.1916 67.8232 15.3405C67.793 15.0629 67.712 14.7925 67.5841 14.5417C67.4523 14.2961 67.6017 13.7916 67.1745 13.842C66.9679 13.8583 66.7712 13.9337 66.61 14.0585C66.4488 14.1833 66.3307 14.3517 66.271 14.5417C66.1964 14.7527 66.1376 14.9685 66.0952 15.1875C66.0495 15.5794 65.8315 15.6265 65.4888 15.539C65.146 15.4515 64.979 15.3708 65.095 14.9722C65.4554 13.7394 65.7753 12.4949 66.0987 11.252C66.1849 10.9156 66.3431 10.7878 66.7175 10.8937C67.055 10.9879 67.2202 11.1208 67.1095 11.4824C66.9706 11.9298 66.8651 12.3855 66.7351 12.88C67.9902 12.6361 68.732 11.0283 70.3914 11.8995Z" fill="#18AB8E"/>
<path d="M30.2459 23.0889C29.9516 23.0963 29.6625 23.0145 29.4197 22.8551C29.2281 22.7273 28.8467 22.6264 29.0963 22.3136C29.258 22.1101 29.4338 21.735 29.8627 21.9856C30.4006 22.3001 30.8699 22.1387 31.2778 21.7434C31.5221 21.5046 31.6293 21.1985 31.4377 20.9025C31.2461 20.6065 30.9332 20.6738 30.6449 20.7713C30.2055 20.9193 29.7783 21.1077 29.3301 21.2254C28.7148 21.3936 28.1523 21.2658 27.7937 20.7209C27.4351 20.1759 27.5318 19.6058 27.9695 19.1012C28.5883 18.3848 29.5234 18.0148 30.1949 18.2603C30.441 18.3528 30.884 18.4453 30.7416 18.7649C30.6239 19.0306 30.3479 19.4174 29.8539 19.182C29.7252 19.1181 29.5796 19.0923 29.4356 19.108C29.248 19.1404 29.0712 19.2151 28.9199 19.326C28.7686 19.4368 28.6471 19.5806 28.5654 19.7454C28.5135 19.8154 28.4926 19.9021 28.5071 19.9868C28.5215 20.0715 28.5703 20.1473 28.6428 20.1978C28.9592 20.3895 29.258 20.2129 29.5568 20.1154C29.9611 19.9563 30.3763 19.8242 30.7996 19.7202C31.0502 19.6716 31.3098 19.6872 31.5521 19.7653C31.7945 19.8434 32.011 19.9812 32.1798 20.165C32.3487 20.3487 32.4639 20.5718 32.5138 20.8117C32.5638 21.0516 32.5467 21.2999 32.4643 21.5315C32.2129 22.2934 31.0686 23.0923 30.2459 23.0889Z" fill="#18AB8E"/>
<path d="M17.1657 78.8324C16.96 78.8492 16.9196 78.6894 16.851 78.5784C16.3694 77.8149 15.8965 77.0446 15.4166 76.2777C15.2655 76.0388 15.2022 75.8606 15.5256 75.6621C15.9071 75.4283 16.0301 75.6352 16.1848 75.8959C16.4291 76.3079 16.7122 76.7032 16.9319 77.127C17.1393 77.5239 17.3379 77.6467 17.7967 77.3894C18.2942 77.1085 18.0464 76.8747 17.8653 76.5888C17.6227 76.2087 17.3995 75.8152 17.1499 75.4384C16.9583 75.1492 17.0708 75.0011 17.345 74.8414C17.6192 74.6816 17.7546 74.796 17.8864 75.0196C18.085 75.356 18.3083 75.6924 18.5087 76.0288C18.7372 76.4156 18.8602 76.8041 19.5177 76.4223C20.1505 76.054 19.936 75.7698 19.6671 75.3712C19.3981 74.9726 19.1925 74.6025 18.9429 74.2258C18.7671 73.9634 18.6739 73.7616 19.0518 73.5531C19.3911 73.3664 19.5054 73.5228 19.653 73.765C20.1224 74.537 20.6058 75.3005 21.0874 76.0658C21.2316 76.2945 21.3458 76.4946 21.0083 76.683C19.7972 77.3557 18.5948 78.0436 17.3889 78.7264C17.3151 78.7702 17.2272 78.8004 17.1657 78.8324Z" fill="#18AB8E"/>
<path d="M74.1162 13.3429C75.0619 13.3429 76.0867 13.9517 76.2642 14.6547C76.3416 14.9625 76.4611 15.4132 76.0726 15.4956C75.9792 15.5162 75.8822 15.5168 75.7885 15.4975C75.6947 15.4782 75.6066 15.4394 75.5303 15.3839C75.454 15.3284 75.3913 15.2575 75.3468 15.1762C75.3024 15.095 75.2771 15.0053 75.2728 14.9137C75.2306 14.394 74.7859 14.2679 74.3412 14.1787C74.1285 14.135 73.9228 14.1569 73.8138 14.3637C73.7668 14.4524 73.7551 14.5544 73.781 14.6507C73.8068 14.7469 73.8685 14.8309 73.9544 14.8868C74.3271 15.1996 74.7191 15.4923 75.0865 15.8101C75.6824 16.3265 75.823 16.9437 75.4222 17.6215C75.0373 18.2707 74.4238 18.422 73.6925 18.274C72.5534 18.0419 71.7589 17.3406 71.7589 16.503C71.7589 16.2642 71.6622 15.8639 72.1105 15.8892C72.3882 15.906 72.7978 15.9279 72.7661 16.3937C72.747 16.5638 72.7825 16.7354 72.8679 16.8856C72.9534 17.0359 73.0847 17.1576 73.2443 17.2347C73.6662 17.455 74.1478 17.6652 74.4959 17.1825C74.8439 16.6998 74.3306 16.5098 74.0459 16.2491C73.7049 15.9866 73.3798 15.7059 73.072 15.4082C72.8881 15.224 72.7715 14.9878 72.7398 14.7349C72.7081 14.482 72.763 14.226 72.8962 14.0055C73.0026 13.7876 73.1771 13.6067 73.3957 13.488C73.6143 13.3693 73.8661 13.3185 74.1162 13.3429Z" fill="#18AB8E"/>
<path d="M57.5573 9.7706C57.4944 9.88939 57.4252 10.005 57.3499 10.1171C56.8999 10.6553 56.0069 11.0757 56.0421 11.698C56.0772 12.3203 56.7786 12.8602 57.1636 13.4505C57.3763 13.7717 57.6997 14.0374 57.763 14.4495C57.0071 14.6698 56.4428 14.5285 56.1264 13.7936C56.0356 13.5868 55.9123 13.3946 55.7608 13.2234C55.534 12.9678 55.4778 12.359 55.0858 12.5103C54.8546 12.6063 54.6616 12.7705 54.535 12.9791C54.4085 13.1876 54.3551 13.4294 54.3827 13.6691C54.4125 14.0358 54.6956 14.6278 53.8553 14.5975C53.567 14.5857 53.4387 14.537 53.4334 14.2342C53.4065 12.8887 53.3678 11.5472 53.3174 10.2096C53.3033 9.81938 53.5811 9.84629 53.8448 9.81938C54.1506 9.7891 54.3475 9.85301 54.3334 10.2112C54.3141 10.7023 54.3334 11.1934 54.3334 11.8258C55.2967 11.1665 55.6571 10.1709 56.5852 9.78574C56.8331 9.67978 57.1811 9.7706 57.5573 9.7706Z" fill="#18AB8E"/>
<path d="M24.4695 23.4069C24.338 23.3797 24.2013 23.3867 24.0736 23.4272C23.946 23.4677 23.832 23.5403 23.7435 23.6373C23.5045 23.8778 23.1968 24.1637 23.45 24.5068C23.7031 24.8499 24.0336 24.5842 24.306 24.4547C24.7244 24.2579 25.1076 23.9854 25.5365 23.829C26.5438 23.4624 27.5176 24.1469 27.5053 25.1745C27.4895 26.3518 25.9074 27.5156 24.807 27.1355C24.5697 27.0548 24.1285 27.0178 24.2937 26.631C24.4062 26.3652 24.5803 25.9952 25.0742 26.1954C25.7229 26.4594 26.1289 26.0978 26.4365 25.6118C26.5137 25.5077 26.5527 25.3821 26.5473 25.2545C26.5419 25.127 26.4924 25.0048 26.4067 24.9071C26.2045 24.6615 25.9408 24.7053 25.6947 24.8247C25.2535 25.0383 24.8351 25.2989 24.3851 25.4974C23.7681 25.7682 23.1757 25.7144 22.7222 25.1863C22.2687 24.6582 22.3337 24.088 22.7222 23.5616C23.1494 22.983 23.6556 22.46 24.4678 22.4364C24.8316 22.4247 25.3625 22.4566 25.3467 22.8889C25.3437 22.9866 25.3154 23.0821 25.2643 23.1668C25.2132 23.2515 25.141 23.3227 25.054 23.374C24.967 23.4254 24.8681 23.4553 24.7661 23.461C24.6641 23.4667 24.5622 23.4481 24.4695 23.4069Z" fill="#18AB8E"/>
<path d="M18.7795 31.2788C18.3823 31.04 18.0395 30.7961 17.6615 30.6162C17.201 30.3959 17.1764 30.1486 17.4611 29.7668C17.6369 29.528 17.7705 29.5196 18.0166 29.6676C19.175 30.3673 20.3387 31.0602 21.5147 31.7346C21.8786 31.9448 21.7819 32.1315 21.6132 32.4073C21.4163 32.7269 21.2282 32.7723 20.9241 32.5436C20.7202 32.3888 20.4547 32.3048 20.2614 32.1399C19.7006 31.664 19.4229 31.8372 19.0221 32.404C18.5211 33.112 18.6037 33.4568 19.3825 33.847C19.6901 34.0001 20.5444 34.0051 20.0715 34.7821C19.8958 35.0663 19.7551 35.1942 19.4 34.9738C18.275 34.2776 17.1307 33.6082 15.9828 32.9455C15.6312 32.7488 15.6576 32.5621 15.8457 32.2728C16.0338 31.9835 16.1973 31.8607 16.5119 32.1046C16.668 32.2336 16.8465 32.3355 17.0393 32.4057C17.3117 32.4998 17.5526 32.9624 17.832 32.6815C18.1994 32.3031 18.4315 31.8019 18.7795 31.2788Z" fill="#18AB8E"/>
<path d="M62.8942 99.9285C62.0153 100.265 61.451 100.051 61.0836 99.3281C60.9808 99.1269 60.8462 98.9419 60.6846 98.7798C60.4719 98.573 60.3787 98.06 60.0711 98.1878C59.8658 98.2671 59.6922 98.4068 59.5753 98.5866C59.4584 98.7665 59.4043 98.9773 59.4207 99.1885C59.426 99.2163 59.426 99.2448 59.4207 99.2726C59.3029 99.6409 59.9006 100.305 58.9602 100.334C58.1147 100.361 58.5084 99.683 58.4557 99.3634C58.2799 98.3442 58.2518 97.3065 58.1604 96.2772C58.1287 95.9291 58.0707 95.6398 58.6227 95.5944C59.1746 95.549 59.1096 95.8534 59.15 96.1528C59.1957 96.5682 59.2379 96.9836 59.2889 97.4613C60.3963 96.9063 60.4789 95.0596 62.2508 95.3674C62.0487 95.9594 61.5741 96.3479 61.1821 96.7717C60.8182 97.1653 60.8305 97.4444 61.1821 97.8296C61.7727 98.4805 62.2965 99.1868 62.8942 99.9285Z" fill="#18AB8E"/>
<path d="M15.211 66.0186C16.053 66.032 16.6173 66.5752 16.9091 67.5541C17.1745 68.4606 16.9688 69.1602 16.2411 69.5252C15.2286 70.0298 14.1018 70.2635 13.033 70.6335C12.6621 70.763 12.6059 70.5259 12.5057 70.2686C12.4055 70.0113 12.3826 69.8044 12.7359 69.6951C13.5973 69.4293 14.4481 69.135 15.3094 68.8676C15.951 68.6675 16.2182 68.2806 16.0126 67.6516C15.8069 67.0226 15.3094 66.9099 14.6942 67.1202C13.8416 67.4094 12.9785 67.6684 12.1225 67.9476C11.85 68.0368 11.683 67.9964 11.618 67.6954C11.5687 67.4683 11.3068 67.1908 11.7006 67.0663C12.8854 66.6778 14.042 66.1985 15.211 66.0186Z" fill="#18AB8E"/>
<path d="M15.1177 46.3992C15.2671 46.3522 15.42 46.3992 15.3849 46.633C15.3427 46.9189 15.4534 47.3882 15.0509 47.4033C13.9962 47.4437 14.0454 48.1467 13.9048 48.8379C13.801 49.3593 13.9417 49.6402 14.4321 49.7999C14.9999 49.9849 14.919 50.4289 14.738 50.7535C14.4884 51.1975 14.1983 50.7535 13.9821 50.6375C12.8571 50.0522 11.7549 49.4299 10.6422 48.8228C10.3381 48.6546 10.0287 48.5352 10.136 48.0777C10.2274 47.6892 10.3522 47.4521 10.8127 47.3596C12.2278 47.0737 13.6393 46.7322 15.1177 46.3992ZM13.0487 49.0784C13.0487 48.6008 13.351 48.0592 13.112 47.9516C12.6303 47.7363 12.0749 48.0205 11.5053 48.1854C11.936 48.6008 12.4563 48.769 13.0487 49.0784Z" fill="#18AB8E"/>
<path d="M14.9243 60.7109C15.2443 61.2962 15.3146 61.7301 14.6343 62.08C13.8714 62.4718 14.5025 63.0706 14.5007 63.5718C14.5007 63.935 14.6572 64.2445 15.1177 64.221C15.8665 64.184 15.9421 64.6566 15.9615 65.299C14.3056 65.0417 12.6743 64.7945 11.0395 64.5304C10.6546 64.4682 10.7143 64.1167 10.6317 63.8577C10.5192 63.5213 10.7477 63.3531 11.0079 63.195C12.3052 62.3928 13.5866 61.567 14.9243 60.7109ZM12.0643 63.713C12.3368 63.9401 12.6743 63.9132 12.9819 63.9266C13.2017 63.9367 13.555 64.1823 13.6323 63.8005C13.6849 63.5248 13.6272 63.2402 13.4706 63.0033C13.2368 62.7107 13.0171 63.0622 12.8202 63.1715C12.553 63.3212 12.2296 63.4187 12.0643 63.713Z" fill="#18AB8E"/>
<path d="M97.4778 62.2411C97.5182 60.6484 98.2917 60.0093 99.9388 60.2431C100.747 60.3557 101.547 60.529 102.354 60.6517C102.725 60.7089 102.825 60.8687 102.774 61.2202C102.723 61.5717 102.567 61.6878 102.192 61.6171C101.333 61.4489 100.464 61.3413 99.6048 61.1765C98.9245 61.0453 98.5272 61.2959 98.3901 61.9249C98.253 62.5539 98.5958 62.8583 99.2145 62.9626C100.078 63.1072 100.934 63.2872 101.8 63.41C102.243 63.4739 102.284 63.6875 102.24 64.0457C102.189 64.4712 101.92 64.4477 101.614 64.3922C100.668 64.224 99.7155 64.0709 98.7786 63.8607C97.8416 63.6505 97.4532 63.151 97.4778 62.2411Z" fill="#18AB8E"/>
<path d="M22.0807 31.677C21.2738 30.3551 20.4986 29.0516 19.683 27.7667C19.4597 27.4135 19.5283 27.1747 19.7709 26.8703C20.0134 26.5659 20.256 26.5541 20.6006 26.6567C21.9084 27.0452 23.2232 27.4068 24.5311 27.7953C24.7332 27.8558 25.1744 27.7953 25.011 28.1788C24.9002 28.4378 24.7719 28.8347 24.2779 28.7422C23.9527 28.6799 23.6012 28.3486 23.3006 28.6127C22.9191 28.949 22.6361 29.3863 22.3074 29.7765C22.1316 29.9817 22.2564 30.1617 22.3883 30.3012C22.884 30.8327 22.6766 31.2448 22.0807 31.677ZM20.9978 27.7852L20.8888 27.691L20.8677 27.8928C21.0681 28.2292 21.2668 28.5656 21.4724 28.8935C21.5568 29.0298 21.6605 29.2299 21.8469 29.0281C22.0332 28.8263 22.318 28.5504 22.3478 28.2864C22.3777 28.0223 21.9699 28.0408 21.7449 27.9652C21.5199 27.8895 21.2474 27.8441 20.9978 27.7852Z" fill="#18AB8E"/>
<path d="M81.9155 93.3232C81.4092 93.8278 80.9908 93.9792 80.4653 93.4645C79.8729 92.8843 79.4967 93.6176 79.0326 93.7656C78.6811 93.8766 78.2908 94.0464 78.4859 94.5476C78.7443 95.2086 78.2943 95.4424 77.6668 95.6661C77.4295 94.0868 77.1693 92.5328 76.9742 90.9703C76.9144 90.4927 77.6949 90.1042 78.0992 90.4019C79.3789 91.3538 80.634 92.341 81.9155 93.3232ZM78.2398 93.1298C78.6107 93.1551 78.8146 92.9179 79.0748 92.8103C79.2506 92.7363 79.3789 92.5832 79.1785 92.4302C78.8164 92.1527 78.5387 91.7574 77.9674 91.5893C78.0658 92.1611 78.1519 92.6505 78.2363 93.1298H78.2398Z" fill="#18AB8E"/>
<path d="M89.7609 30.1939C91.364 29.8407 92.925 29.5044 94.4877 29.1478C94.8146 29.0738 94.9711 29.2134 95.1205 29.4489C95.2699 29.6843 95.4932 29.8727 95.2647 30.1939C94.3435 31.4789 93.44 32.7772 92.5277 34.0739C91.9406 33.635 91.8246 33.2465 92.2886 32.6494C92.7738 32.0271 91.9371 31.7042 91.742 31.2249C91.6101 30.8986 91.3499 30.7203 90.979 30.8885C90.3286 31.1744 90.0017 30.87 89.7609 30.1939ZM94.0342 30.2999L93.89 30.1502C93.4066 30.2999 92.8125 30.3369 92.4838 30.6396C92.2904 30.8162 92.8037 31.2417 93.0709 31.6151C93.4207 31.1358 93.7265 30.717 94.0342 30.2999Z" fill="#18AB8E"/>
<path d="M63.5199 99.4706C63.7783 98.0747 64.0473 96.704 64.274 95.3249C64.3373 94.9397 64.5289 94.8405 64.8857 94.7682C65.2426 94.6959 65.4711 94.7531 65.6785 95.0676C66.4116 96.1776 67.1832 97.2641 67.9145 98.3724C68.0323 98.549 68.4137 98.8046 68.0903 98.9795C67.8319 99.1158 67.3168 99.3966 67.1059 98.8971C66.7631 98.0831 66.1619 98.3034 65.5238 98.3926C64.9332 98.4767 64.5289 98.6701 64.5518 99.3041C64.5676 99.7498 64.2178 99.7481 63.9119 99.8221C63.5445 99.9113 63.4039 99.8053 63.5199 99.4706ZM65.2303 96.0699C65.0633 96.6115 64.6572 97.1631 64.9367 97.5937C65.1125 97.8746 65.6399 97.5332 66.1039 97.4474L65.2303 96.0699Z" fill="#18AB8E"/>
<path d="M16.8318 35.4174C17.4998 35.4174 18.1713 35.3905 18.8358 35.4326C19.0362 35.446 19.4774 35.2946 19.4264 35.6781C19.386 35.9758 19.335 36.4181 18.776 36.4097C18.4736 36.4097 18.0729 36.1944 17.8742 36.4904C17.5842 36.9401 17.3484 37.4196 17.1711 37.92C17.0674 38.1975 17.3873 38.359 17.5754 38.507C17.927 38.7862 17.8356 39.0502 17.6809 39.3883C17.5051 39.7549 17.3785 39.7095 17.1377 39.4656C16.1164 38.433 15.0933 37.4003 14.0509 36.3879C13.7732 36.1171 13.9068 35.8917 14.0175 35.6361C14.1283 35.3804 14.2918 35.1719 14.6591 35.2021C15.3834 35.2593 16.1111 35.2829 16.8371 35.3199L16.8318 35.4174ZM15.0986 36.1322C15.626 36.6519 15.9107 37.2069 16.4521 37.2759C16.656 37.3011 16.8775 36.6973 16.9232 36.2668L15.0986 36.1322Z" fill="#18AB8E"/>
<path d="M93.7425 73.1104C94.7163 74.3078 95.6761 75.4986 96.6482 76.6708C96.8978 76.9702 96.8362 77.1939 96.6657 77.4966C96.4952 77.7993 96.2667 77.907 95.8958 77.8448C94.5476 77.6227 93.194 77.4344 91.8528 77.2107C91.6489 77.1754 91.2059 77.2998 91.3254 76.8979C91.401 76.6321 91.5012 76.1192 91.9741 76.2739C93.2362 76.6876 93.2731 75.5911 93.7407 75.031C93.9341 74.8023 93.7653 74.6005 93.593 74.4491C93.0235 73.9546 93.2221 73.5426 93.7425 73.1104ZM95.5583 76.7667C95.2507 76.4 94.9729 76.0569 94.6794 75.7273C94.602 75.6398 94.479 75.475 94.3472 75.655C94.1714 75.9022 93.9007 76.1696 93.8936 76.4337C93.8866 76.6977 94.2944 76.6607 94.5335 76.691C94.8394 76.7314 95.1364 76.8861 95.5583 76.7667Z" fill="#18AB8E"/>
<path d="M57.5063 100.291C56.8383 100.459 56.3531 100.459 56.2125 99.7127C56.1018 99.1257 55.5867 99.198 55.1666 99.2434C54.7096 99.2922 54.0679 98.9188 53.8658 99.6858C53.8312 99.8214 53.778 99.952 53.7076 100.074C53.4843 100.449 53.1134 100.258 52.8427 100.209C52.405 100.128 52.7496 99.8455 52.8111 99.7043C53.3507 98.4412 53.9238 97.1815 54.4722 95.9302C54.5847 95.6712 54.7043 95.4761 55.0383 95.5484C55.3248 95.6106 55.6816 95.4711 55.8346 95.8848C56.376 97.353 56.942 98.8112 57.5063 100.291ZM55.7396 98.384C55.5252 97.8021 55.3459 97.3093 55.1262 96.7022C54.8976 97.3312 54.4125 97.8055 54.5847 98.342C54.6691 98.5909 55.2685 98.4513 55.7396 98.384Z" fill="#18AB8E"/>
<path d="M43.057 16.6189C42.5402 17.0192 42.0762 17.221 41.6508 16.6004C41.3678 16.1884 41.0127 16.2792 40.6787 16.4827C40.2375 16.7518 39.3937 16.6206 39.4974 17.4565C39.5853 18.1545 39.1564 18.2974 38.4919 18.3933C38.4919 16.8325 38.4919 15.3054 38.4919 13.78C38.4919 13.4436 38.6677 13.2956 38.9683 13.1779C39.2689 13.0601 39.4957 13.0265 39.7418 13.2838C40.8264 14.4006 41.9373 15.4988 43.057 16.6189ZM39.4078 14.2643C39.4078 14.8345 39.4078 15.2129 39.4078 15.5913C39.4078 15.9697 39.5062 16.0606 39.9193 15.9277C40.5662 15.7259 40.7455 15.4988 40.1531 15.0262C39.8903 14.7837 39.6415 14.5277 39.4078 14.2593V14.2643Z" fill="#18AB8E"/>
<path d="M82.4871 18.2614C82.4955 18.5147 82.4347 18.7656 82.3109 18.9896C82.187 19.2135 82.0043 19.4027 81.7807 19.5385C81.5571 19.6743 81.3005 19.7521 81.0359 19.7641C80.7714 19.7761 80.5082 19.7219 80.2722 19.6069C80.1892 19.5785 80.1115 19.5376 80.0419 19.4858C79.2562 18.7778 78.764 19.0855 78.3913 19.9012C78.2384 20.2376 78.0626 20.4546 77.6056 20.1653C77.189 19.9012 77.3278 19.7045 77.5159 19.4219C78.1945 18.4128 78.873 17.4037 79.5234 16.3694C79.7449 16.0195 79.9312 15.9001 80.3179 16.1709C80.8119 16.5174 81.3463 16.8117 81.8578 17.1363C82.0583 17.2528 82.2224 17.4187 82.3331 17.6166C82.4438 17.8145 82.497 18.0372 82.4871 18.2614ZM80.7539 18.8484C80.9353 18.8486 81.1097 18.7816 81.2408 18.6616C81.3718 18.5415 81.4493 18.3777 81.457 18.2043C81.4939 17.8998 80.6273 17.0976 80.325 17.1867C79.8697 17.3213 79.5779 17.8393 79.6218 18.1303C79.715 18.5995 80.3197 18.7189 80.7539 18.8484Z" fill="#18AB8E"/>
<path d="M34.6651 90.1064C35.4825 90.1989 35.7743 90.579 35.7726 91.3342C35.7726 92.6797 35.8394 92.7032 37.0171 91.9464C37.6113 91.5646 38.0999 91.4687 38.6132 92.0422C38.2617 92.4408 37.7607 92.6225 37.3054 92.8479C36.3456 93.3205 35.5106 93.8771 35.1573 94.9182C35.0325 95.2849 34.8304 95.4547 34.3804 95.2159C33.9303 94.9771 34.0516 94.7433 34.2626 94.486C35.0483 93.5357 34.9147 92.4509 34.7899 91.3661C34.7495 90.9524 34.7091 90.537 34.6651 90.1064Z" fill="#18AB8E"/>
<path d="M48.9333 95.1162C50.503 94.8976 50.2077 96.4029 50.8528 97.0268C51.6913 96.6635 51.7317 95.0574 53.305 95.6645C52.7601 96.3053 52.303 96.9478 51.7353 97.4826C51.0743 98.1066 51.1271 98.897 51.0128 99.6522C50.9636 99.9885 50.8528 100.103 50.5224 100.031C50.2815 99.9801 49.8895 100.014 50.0161 99.637C50.5435 98.0393 49.6013 96.7914 48.9895 95.4627C48.9563 95.3876 48.9299 95.31 48.9104 95.2306C48.9034 95.2054 48.921 95.1768 48.9333 95.1162Z" fill="#18AB8E"/>
<path d="M46.9983 15.511C47.0598 15.723 46.7662 15.7431 46.5184 15.8289C46.1193 15.9685 45.9998 15.7515 45.9242 15.4454C45.7045 14.5507 45.4338 13.6661 45.2738 12.7545C45.1719 12.1726 44.9222 12.1053 44.3949 12.2499C44.1418 12.3138 43.7339 12.6805 43.5828 12.0599C43.4492 11.5049 43.8763 11.5553 44.1892 11.4797C45.0066 11.2795 45.8275 11.0895 46.6502 10.9045C46.9455 10.8372 47.2637 10.6707 47.4131 11.1416C47.5748 11.6462 47.1899 11.6579 46.8981 11.6865C46.1949 11.7555 46.0648 12.0582 46.26 12.6788C46.5377 13.5567 46.7293 14.4599 46.9983 15.511Z" fill="#18AB8E"/>
<path d="M75.9478 91.8816C75.9127 92.2348 75.5628 92.255 75.315 92.3374C74.814 92.5056 74.7261 92.731 74.9634 93.2002C75.3906 94.0193 75.7246 94.882 76.1359 95.7112C76.3117 96.0593 76.3029 96.2376 75.9039 96.4209C75.4732 96.6194 75.3466 96.4209 75.2007 96.1048C74.8369 95.2857 74.429 94.4851 74.0915 93.6577C73.8806 93.138 73.6468 92.9513 73.0896 93.2826C72.8558 93.4205 72.4937 93.7603 72.2546 93.2137C72.0155 92.6671 72.4866 92.6687 72.7714 92.5409C73.5888 92.1776 74.429 91.8682 75.2324 91.4763C75.7457 91.2408 75.8353 91.5284 75.9478 91.8816Z" fill="#18AB8E"/>
<path d="M99.9706 38.8118C100.391 38.8 100.301 39.1482 100.408 39.3466C100.568 39.6359 100.343 39.7234 100.099 39.8024C99.1883 40.0967 98.2936 40.4365 97.3725 40.6904C96.824 40.8418 96.643 41.0403 96.9049 41.5667C97.0912 41.9401 97.1809 42.3571 97.3285 42.744C97.4375 43.0333 97.3795 43.1897 97.0508 43.3108C96.6711 43.4487 96.6043 43.2418 96.5234 42.9946C96.2563 42.2293 95.9856 41.4658 95.7201 40.7005C95.6604 40.5323 95.4916 40.307 95.7869 40.2061C97.1791 39.7335 98.5836 39.2743 99.9706 38.8118Z" fill="#18AB8E"/>
<path d="M85.6352 25.0104C85.5444 25.1353 85.4452 25.2544 85.3382 25.3669C85.1624 25.5351 85.0253 25.3888 84.8934 25.2811C84.2307 24.7345 83.5751 24.1779 82.9 23.6447C82.6118 23.4177 82.5854 23.2495 82.8456 22.972C83.7385 22.0133 84.6034 21.0378 85.4823 20.054C85.7038 19.8017 85.8655 19.7849 86.1063 20.0187C86.3138 20.2205 86.581 20.355 86.2663 20.6914C85.6229 21.3759 85.0499 22.1277 84.3696 22.7752C83.8633 23.2562 83.9741 23.5354 84.4856 23.8718C84.7918 24.0864 85.0808 24.3225 85.3505 24.5781C85.4647 24.679 85.6528 24.7547 85.6352 25.0104Z" fill="#18AB8E"/>
<path d="M17.4135 69.8012C17.7035 69.7642 17.7651 69.9694 17.8389 70.1376C18.1905 70.8692 18.5227 71.6126 18.8936 72.3324C19.0817 72.6873 18.9463 72.8134 18.6247 72.9513C17.4293 73.4643 16.2393 73.9874 15.058 74.5289C14.7064 74.6853 14.557 74.6298 14.4058 74.2867C14.2547 73.9436 14.2635 73.7822 14.6291 73.6359C15.5361 73.2591 16.4238 72.837 17.3326 72.4586C17.7791 72.2752 17.8934 72.065 17.635 71.6412C17.4012 71.2594 17.2641 70.8238 17.0373 70.437C16.7824 69.9963 17.1551 69.9408 17.4135 69.8012Z" fill="#18AB8E"/>
<path d="M97.2493 44.9819C96.9716 45.0609 96.9716 44.8002 96.9136 44.5883C96.8555 44.3764 96.6921 44.0922 97.0893 43.9913C98.4657 43.6549 99.8439 43.3067 101.218 42.9586C101.524 42.8796 101.656 43.0192 101.698 43.2748C101.735 43.5002 101.929 43.7945 101.535 43.8971C100.141 44.2604 98.7347 44.6068 97.2493 44.9819Z" fill="#18AB8E"/>
<path d="M29.3564 24.0212C29.3388 24.2785 29.0945 24.3576 28.9398 24.5258C28.7271 24.7411 28.5882 24.6116 28.4441 24.4501C27.5212 23.441 26.5983 22.4319 25.6667 21.4228C25.403 21.1385 25.5823 20.9804 25.8038 20.8123C25.9796 20.6777 26.136 20.454 26.3786 20.7198C27.3407 21.7726 28.3023 22.826 29.2632 23.8799C29.2988 23.9241 29.33 23.9714 29.3564 24.0212Z" fill="#18AB8E"/>
<path d="M84.7124 19.0867C84.6508 19.1809 84.5823 19.3019 84.4979 19.4113C83.7157 20.4204 82.9264 21.4295 82.1494 22.4386C81.9578 22.6892 81.8119 22.8641 81.4674 22.5916C81.1738 22.3612 81.0367 22.2082 81.3215 21.8584C82.1283 20.8661 82.8912 19.8401 83.6823 18.831C83.8036 18.678 83.8967 18.3702 84.2096 18.5838C84.3924 18.7183 84.621 18.8092 84.7124 19.0867Z" fill="#18AB8E"/>
<path d="M63.3002 14.678C63.5234 13.4469 63.7607 12.1838 63.9752 10.9174C64.0473 10.4936 64.3039 10.5592 64.615 10.6012C64.9262 10.6433 65.051 10.7829 64.9895 11.1058C64.7469 12.3694 64.5154 13.6341 64.2951 14.9C64.2318 15.2667 64.0543 15.3322 63.6939 15.2801C63.3037 15.2196 63.1965 15.048 63.3002 14.678Z" fill="#18AB8E"/>
<path d="M78.7147 15.4553C78.655 15.568 78.6075 15.6689 78.553 15.7664C77.9571 16.8462 77.3506 17.9192 76.767 19.004C76.5913 19.3286 76.4489 19.4631 76.0498 19.2512C75.6508 19.0393 75.6983 18.8493 75.8741 18.528C76.4981 17.4331 77.0922 16.3214 77.7022 15.2181C77.8077 15.0298 77.8991 14.7691 78.2085 14.9676C78.4159 15.0954 78.7358 15.1324 78.7147 15.4553Z" fill="#18AB8E"/>
<path d="M13.6976 42.9504C13.5612 42.9652 13.4231 42.9461 13.2966 42.8952C13.1701 42.8443 13.0594 42.7631 12.9751 42.6595C13.2704 42.4694 13.5552 42.5518 13.8364 42.6174C13.7239 42.7032 13.5745 42.7738 13.6976 42.9504Z" fill="#18AB8E"/>
<path d="M14.7277 42.6579C14.9421 42.5839 15.1566 42.5284 15.3482 42.7084C15.2525 42.7641 15.1409 42.7892 15.0293 42.7801C14.9177 42.7711 14.8121 42.7283 14.7277 42.6579Z" fill="#18AB8E"/>
<path d="M88.692 90.3257L88.7992 90.2686L88.8256 90.3325C88.7852 90.3207 88.7448 90.3089 88.7043 90.3005L88.692 90.3257Z" fill="#18AB8E"/>
<path d="M33.8739 18.7185L33.8159 18.6848L33.8792 18.5957C33.8985 18.6159 33.9319 18.6378 33.9319 18.6596C33.9319 18.6815 33.895 18.7 33.8739 18.7185Z" fill="#18AB8E"/>
<path d="M95.5248 34.1512L95.7006 34.0771C95.6865 34.1411 95.6742 34.205 95.6619 34.2689L95.5248 34.1512Z" fill="#18AB8E"/>
<path d="M20.8677 27.8923L20.8888 27.6904L20.9978 27.7846C20.959 27.8253 20.9154 27.8615 20.8677 27.8923Z" fill="#18AB8E"/>
<path d="M85.6441 65.354C85.3523 65.7778 85.0957 66.3042 84.6896 66.681C84.4418 66.9097 84.1377 66.501 83.8898 66.3446C80.179 64.1162 76.4665 61.8877 72.7855 59.6071C72.1949 59.2405 72.0086 59.37 71.7449 59.9099C70.757 61.9281 69.7093 63.9295 68.7249 65.9544C68.4788 66.459 68.2626 66.5313 67.7458 66.2773C66.4046 65.6197 66.3923 65.645 67.0427 64.3567C68.0775 62.2914 69.1111 60.2266 70.1435 58.1624C70.8467 56.753 71.7256 56.5075 73.0809 57.3467C77.0782 59.8258 81.0732 62.3099 85.0658 64.799C85.2715 64.9302 85.558 64.9924 85.6441 65.354Z" fill="#18AB8E"/>
<path d="M55.3722 35.5398C55.3722 33.4443 55.3424 31.347 55.3916 29.2531C55.4074 28.5955 55.1859 28.4677 54.5549 28.4862C53.3244 28.5248 52.0939 28.4559 50.8757 28.471C50.4222 28.471 50.2851 28.3567 50.271 27.911C50.2165 26.1753 50.1972 26.1652 52.0411 26.1787C55.3125 26.2022 58.5838 26.256 61.8534 26.2611C62.6462 26.2611 63.0118 26.399 62.88 27.287C62.6901 28.5551 62.7587 28.5568 61.4333 28.5349C60.4401 28.5198 59.4434 28.5686 58.4449 28.5198C57.8315 28.4878 57.7418 28.7334 57.7313 29.2447C57.7102 33.4375 57.6451 37.6304 57.6399 41.8232C57.6399 42.5111 57.4641 42.728 56.7293 42.7028C55.2193 42.6507 55.2193 42.6927 55.2193 41.2396V35.5382L55.3722 35.5398Z" fill="#18AB8E"/>
<path d="M28.1909 62.127C31.4042 62.5895 34.6122 63.0318 37.8115 63.528C38.4092 63.6205 38.6904 63.4859 38.9734 62.9864C40.0738 61.0489 41.241 59.1451 42.345 57.2092C42.5963 56.7686 42.7774 56.6778 43.2626 56.9368C44.7866 57.7542 44.7971 57.7323 43.927 59.2006C42.9063 60.925 41.8873 62.6511 40.8701 64.379C40.7155 64.6413 40.5098 64.8835 40.6504 65.235C40.8543 65.7396 40.9756 66.1298 41.7051 65.6437C43.0657 64.7288 44.5177 63.9417 45.9239 63.0772C46.2896 62.8518 46.4724 62.8485 46.7378 63.2303C47.7521 64.6935 47.7679 64.6817 46.1911 65.6286C41.8844 68.2119 37.5777 70.7885 33.2833 73.3954C32.7349 73.7317 32.4554 73.7771 32.0897 73.17C31.3145 71.8817 31.2741 71.9002 32.5661 71.1181C34.4681 69.9694 36.3771 68.8325 38.2721 67.672C38.5322 67.5122 39.0631 67.4433 38.8504 66.9858C38.6377 66.5284 38.6219 65.9061 37.8185 65.8001C34.6949 65.3881 31.5852 64.8768 28.4581 64.49C27.5703 64.379 27.2838 64.1048 27.5352 63.2992C27.6026 63.0562 27.6426 62.807 27.6547 62.5558C27.6688 62.2094 27.8077 62.0261 28.1909 62.127Z" fill="#18AB8E"/>
<path d="M77.9272 37.6024C76.7389 38.5779 75.6016 39.5382 74.4273 40.4616C74.0213 40.7794 74.2076 41.0098 74.401 41.3025C75.7486 43.3644 77.0928 45.4286 78.4334 47.4951C79.2456 48.7447 79.0047 49.3333 77.5106 49.747C75.5172 50.3004 73.5168 50.8251 71.5339 51.4037C70.655 51.6627 70.0415 51.5046 69.5458 50.7107C68.4208 48.9112 67.2483 47.1385 66.0583 45.3793C65.7594 44.937 65.8333 44.7435 66.2797 44.4745C67.7194 43.6033 67.7071 43.5864 68.6001 44.9454C69.3788 46.1227 70.1821 47.3 70.9169 48.5042C71.214 48.9919 71.5058 49.0726 72.0419 48.9011C73.0354 48.5682 74.047 48.2875 75.0725 48.0602C75.8389 47.892 75.7562 47.6515 75.4047 47.1301C74.1408 45.2481 72.9191 43.3409 71.6886 41.4404C71.1208 40.5608 71.1736 40.1386 71.9716 39.4743C73.6943 38.0447 75.424 36.6236 77.1608 35.2108C78.0573 34.4826 78.676 34.565 79.3299 35.4968C81.5641 38.6872 83.7737 41.8743 86.0273 45.0463C86.3982 45.5677 86.2453 45.7745 85.7654 46.0705C84.4294 46.8997 84.4435 46.9114 83.561 45.6585L77.9272 37.6024Z" fill="#18AB8E"/>
<path d="M64.5815 81.3703C64.789 79.9357 64.963 78.6474 65.1669 77.3642C65.2776 76.6679 66.4255 76.0406 67.1005 76.276C67.3853 76.3752 67.4521 76.6124 67.5154 76.8697C67.9302 78.5818 68.3345 80.2973 68.7863 82.001C68.9304 82.5459 68.6017 82.6216 68.215 82.7209C67.7667 82.8335 67.54 82.7309 67.431 82.2382C67.1317 80.8352 66.7383 79.4521 66.2532 78.0975C66.0775 79.5338 65.8929 80.9684 65.7259 82.4063C65.6749 82.8588 65.6925 83.2742 65.0702 83.4323C64.4022 83.6005 64.1245 83.2809 63.8397 82.8134C63.2579 81.8766 62.6426 80.9633 62.0256 80.0434C61.8815 79.8298 61.82 79.4883 61.3682 79.5472C61.6829 80.8136 61.9729 82.07 62.3174 83.3263C62.4546 83.8309 62.3174 84.0411 61.7989 84.1588C61.2803 84.2766 61.0746 84.1117 60.9621 83.6173C60.6106 82.0363 60.1852 80.4689 59.8125 78.8896C59.7158 78.4725 59.5067 77.9293 60.1641 77.7678C60.8215 77.6064 61.5879 77.159 62.1557 77.9528C62.8325 78.8997 63.4706 79.8684 64.1315 80.8254C64.2405 80.9751 64.3688 81.1113 64.5815 81.3703Z" fill="#18AB8E"/>
<path d="M57.4307 80.8438C59.28 80.9127 59.28 80.9127 59.1393 82.6568C59.0198 84.1267 58.8634 84.3387 57.3253 84.7204C55.7116 85.1258 54.1383 85.045 52.9395 83.8055C51.7406 82.566 51.6844 81.0103 52.2275 79.4781C53.0203 77.2463 56.311 76.4172 58.213 77.9308C58.4233 78.0823 58.5966 78.2757 58.721 78.4976C58.8774 78.834 59.396 79.2982 58.8968 79.5319C58.4766 79.7254 57.7717 80.1324 57.3253 79.3318C56.9508 78.6591 56.2705 78.506 55.5182 78.5716C55.1496 78.5893 54.7945 78.7103 54.4972 78.9196C54.2 79.129 53.9737 79.4174 53.8465 79.7489C53.5247 80.508 53.4887 81.3504 53.7445 82.1321C54.1928 83.5398 56.0297 84.0696 57.2602 83.1815C57.5872 82.9444 57.5397 82.64 57.5028 82.3507C57.4518 81.9639 57.095 82.1607 56.8682 82.1035C56.4938 82.011 55.9436 82.3507 55.7731 81.752C55.5709 81.0406 55.7959 80.7883 56.5729 80.7967C56.8489 80.7967 57.1407 80.8253 57.4307 80.8438Z" fill="#18AB8E"/>
<path d="M48.5168 84.0884C47.9428 84.0582 47.3754 83.9558 46.8293 83.784C45.5883 83.3719 44.966 82.5209 45.1242 81.2797C45.3228 79.7291 45.6515 78.1935 45.8273 76.6412C45.9205 75.8305 46.4109 76.1904 46.8117 76.1938C47.3109 76.1938 47.5518 76.362 47.4481 76.9036C47.1826 78.3331 46.9313 79.7627 46.7449 81.204C46.6342 82.0618 47.042 82.5024 47.9209 82.6807C48.8403 82.8657 49.3993 82.5646 49.5856 81.6716C49.8704 80.3026 50.1323 78.9268 50.3063 77.5443C50.4047 76.7724 50.7862 76.8144 51.4067 76.8918C52.1415 76.9826 52.0132 77.3526 51.9218 77.8218C51.6423 79.2766 51.4331 80.7449 51.1237 82.1946C50.86 83.4678 49.9864 84.0884 48.5168 84.0884Z" fill="#18AB8E"/>
<path d="M50.9584 75.2287C51.1342 73.6444 51.3381 72.0618 51.4858 70.4758C51.528 70.0015 51.7178 69.9376 52.145 69.988C53.2454 70.1175 54.3511 70.2336 55.4568 70.3126C55.9155 70.3463 55.956 70.5498 55.9279 70.9131C55.8997 71.2763 55.8382 71.495 55.3689 71.4176C54.678 71.3167 53.9749 71.2847 53.2805 71.1872C52.8464 71.1266 52.6794 71.2864 52.7374 71.6732C52.7866 71.9945 52.3366 72.4957 53.0696 72.5831C53.597 72.6437 54.1155 72.7109 54.6394 72.7362C55.1122 72.758 55.2669 72.9145 55.2388 73.4005C55.2019 74.0362 54.7888 73.8428 54.446 73.8327C53.8378 73.8176 53.1259 73.451 52.6548 73.7537C52.1503 74.08 52.4684 74.8503 52.3155 75.4103C52.21 75.7955 52.3823 76.2916 51.579 76.2008C50.7756 76.11 50.8899 75.7114 50.9584 75.2287Z" fill="#18AB8E"/>
<path d="M61.7006 70.2099C61.8429 70.8373 61.3824 70.7599 61.066 70.807C59.9146 70.9836 59.9199 70.9752 60.0816 72.0448C60.2574 73.2053 60.3927 74.3725 60.6089 75.5279C60.7056 76.0577 60.3945 76.0645 60.0306 76.1015C59.6667 76.1385 59.2958 76.3268 59.2308 75.7029C59.1042 74.5087 58.8476 73.3264 58.7351 72.1323C58.663 71.3671 58.4433 71.0189 57.5679 71.2611C57.2937 71.3385 56.7892 71.6446 56.6345 71.0593C56.522 70.6354 56.4974 70.2621 57.1794 70.1982C58.4872 70.0754 59.788 69.882 61.0836 69.6785C61.6355 69.5893 61.7463 69.8349 61.7006 70.2099Z" fill="#18AB8E"/>
<path d="M25.9181 46.7778C25.897 46.4515 26.0622 46.1841 26.2046 45.9083C28.2367 41.984 30.2682 38.0546 32.299 34.1202C32.8862 32.9883 33.5506 32.8302 34.5842 33.5988C38.6607 36.648 42.7213 39.7174 46.81 42.7531C47.325 43.1366 47.2617 43.3704 46.8979 43.7975C45.8924 44.9748 45.9082 45.0001 44.6601 44.065C41.3003 41.5456 37.9452 39.0228 34.5948 36.4967C34.1061 36.1266 33.8828 36.1182 33.6209 36.6968C33.2254 37.568 32.7754 38.4173 32.2938 39.2465C32.0072 39.7376 32.0371 39.9798 32.6084 40.2556C34.6159 41.2243 36.5811 42.2738 38.5851 43.2459C39.1546 43.5217 39.1792 43.7505 38.8944 44.255C38.1192 45.6257 38.1456 45.6341 36.7516 44.9278C34.9938 44.0381 33.2254 43.1753 31.4869 42.2553C30.9912 41.9912 30.8119 42.077 30.5939 42.5412C30.1422 43.5083 29.6623 44.4703 29.1191 45.4003C28.7816 45.9739 28.9785 46.1235 29.548 46.2816C33.7879 47.4589 38.0138 48.6715 42.2607 49.8135C42.9972 50.012 43.0728 50.2575 42.8566 50.8899C42.3925 52.2354 42.4242 52.2539 40.974 51.8486C36.345 50.5535 31.716 49.2568 27.0871 47.9584C26.449 47.76 25.9673 47.4825 25.9181 46.7778Z" fill="#18AB8E"/>
</svg>
