<svg width="811" height="428" viewBox="0 0 811 428" fill="none" xmlns="http://www.w3.org/2000/svg">
<g filter="url(#filter0_d_609_128217)">
<path d="M580.098 411.62L678.602 362.73L674.816 192.733L651.834 120.472L588.768 100.394L500.471 129.58L382.934 147.959L283.632 123.54L187.666 142.519L114.556 177.126L101.579 316.675L136.968 412.6L284.96 381.745L425.7 407.318L523.937 388.402L580.098 411.62Z" fill="white"/>
</g>
<g filter="url(#filter1_d_609_128217)">
<path d="M181.833 247.088C178.772 247.088 176.27 247.163 174.329 247.312C172.388 247.461 170.82 247.797 169.625 248.32C168.43 248.768 167.497 249.477 166.825 250.448C166.153 251.344 165.481 252.539 164.809 254.032L162.905 258.4H158.425L166.713 227.04H171.417C171.268 227.712 171.118 228.309 170.969 228.832C170.894 229.355 170.857 229.84 170.857 230.288C170.857 231.632 171.492 232.565 172.761 233.088C174.03 233.536 176.382 233.76 179.817 233.76H215.433V238.24C212.596 244.064 210.132 249.141 208.041 253.472C206.025 257.728 204.233 261.573 202.665 265.008C201.097 268.443 199.678 271.691 198.409 274.752C197.14 277.739 195.87 280.912 194.601 284.272C193.406 287.557 192.1 291.179 190.681 295.136C189.262 299.093 187.657 303.76 185.865 309.136C184.372 313.467 182.729 316.565 180.937 318.432C179.145 320.224 176.942 321.12 174.329 321.12C172.089 321.12 170.334 320.523 169.065 319.328C167.796 318.059 167.161 316.304 167.161 314.064C167.161 313.093 167.273 312.085 167.497 311.04C167.796 309.92 168.356 308.501 169.177 306.784C170.073 304.992 171.342 302.715 172.985 299.952C174.628 297.115 176.793 293.456 179.481 288.976C182.841 283.451 185.604 278.859 187.769 275.2C190.009 271.467 191.95 268.144 193.593 265.232C195.236 262.245 196.766 259.408 198.185 256.72C199.604 253.957 201.246 250.747 203.113 247.088H181.833ZM235.14 266.576L235.364 266.912C236.633 265.568 238.388 264.485 240.628 263.664C242.942 262.768 245.294 262.32 247.684 262.32C251.492 262.32 255.001 263.029 258.212 264.448C261.422 265.792 264.222 267.659 266.612 270.048C269.001 272.437 270.868 275.312 272.212 278.672C273.556 281.957 274.228 285.504 274.228 289.312C274.228 293.792 273.294 297.973 271.428 301.856C269.561 305.664 266.948 309.024 263.588 311.936C260.302 314.773 256.42 317.013 251.94 318.656C247.534 320.299 242.756 321.12 237.604 321.12C234.094 321.12 230.884 320.747 227.972 320C225.06 319.179 222.521 318.096 220.356 316.752C218.265 315.408 216.622 313.803 215.428 311.936C214.233 309.995 213.636 307.904 213.636 305.664C213.636 303.275 214.196 301.445 215.316 300.176C216.51 298.832 218.19 298.16 220.356 298.16C221.998 298.16 223.23 298.571 224.052 299.392C224.873 300.213 225.508 301.259 225.956 302.528C226.404 303.797 226.814 305.179 227.188 306.672C227.636 308.091 228.233 309.435 228.98 310.704C229.726 311.973 230.772 313.019 232.116 313.84C233.534 314.661 235.476 315.072 237.94 315.072C240.852 315.072 243.428 314.4 245.668 313.056C247.982 311.712 249.924 309.808 251.492 307.344C253.06 304.88 254.254 301.893 255.076 298.384C255.897 294.875 256.308 290.992 256.308 286.736C256.308 280.539 255.486 276.021 253.844 273.184C252.201 270.272 249.401 268.816 245.444 268.816C242.158 268.816 239.433 269.637 237.268 271.28C235.177 272.848 233.497 275.387 232.228 278.896C231.63 280.613 230.958 281.771 230.212 282.368C229.54 282.891 228.681 283.152 227.636 283.152C225.545 283.152 224.5 282.181 224.5 280.24C224.5 279.941 224.574 279.493 224.724 278.896L237.268 232.64C239.358 233.312 241.673 233.835 244.212 234.208C246.75 234.507 249.774 234.656 253.284 234.656C257.465 234.656 261.049 234.469 264.036 234.096C267.097 233.723 269.486 233.2 271.204 232.528L271.876 232.64C270.83 237.269 268.516 240.853 264.932 243.392C261.348 245.856 256.793 247.088 251.268 247.088H240.404L235.14 266.576ZM323.435 251.008C323.435 248.395 323.286 246.304 322.987 244.736C322.763 243.093 322.278 241.824 321.531 240.928C320.784 239.957 319.702 239.323 318.283 239.024C316.939 238.651 315.11 238.389 312.795 238.24V233.76H350.539V238.24C348.224 238.315 346.358 238.539 344.939 238.912C343.52 239.285 342.438 239.957 341.691 240.928C340.944 241.899 340.459 243.243 340.235 244.96C340.011 246.677 339.899 248.955 339.899 251.792V320.224C339.899 329.632 337.51 336.8 332.731 341.728C327.952 346.656 320.822 349.12 311.339 349.12C304.544 349.12 299.318 347.963 295.659 345.648C291.926 343.333 290.059 340.384 290.059 336.8C290.059 334.635 290.768 332.955 292.187 331.76C293.531 330.64 295.211 330.08 297.227 330.08C298.944 330.08 300.326 330.528 301.371 331.424C302.342 332.32 303.574 334 305.067 336.464C306.56 338.928 307.904 340.571 309.099 341.392C310.294 342.213 311.75 342.624 313.467 342.624C316.678 342.624 319.142 340.869 320.859 337.36C322.576 333.851 323.435 328.923 323.435 322.576V251.008ZM439.268 285.28C439.268 291.627 438.559 297.077 437.14 301.632C435.796 306.112 433.668 309.808 430.756 312.72C427.844 315.632 424.074 317.76 419.444 319.104C414.89 320.448 409.402 321.12 402.98 321.12C390.959 321.12 382.148 318.619 376.548 313.616C371.023 308.539 368.26 300.475 368.26 289.424V258.736C368.26 255.824 368.223 253.397 368.148 251.456C368.074 249.44 367.962 247.76 367.812 246.416C367.663 245.072 367.439 243.989 367.14 243.168C366.916 242.272 366.618 241.525 366.244 240.928C365.572 239.883 364.602 239.173 363.332 238.8C362.063 238.427 360.122 238.24 357.508 238.24V233.76H397.716V238.24C394.58 238.24 392.266 238.427 390.772 238.8C389.279 239.099 388.122 239.733 387.3 240.704C386.778 241.301 386.33 242.048 385.956 242.944C385.658 243.765 385.396 244.885 385.172 246.304C385.023 247.648 384.911 249.328 384.836 251.344C384.762 253.36 384.724 255.824 384.724 258.736V288.08C384.724 296.592 386.516 302.901 390.1 307.008C393.759 311.04 399.359 313.056 406.9 313.056C422.282 313.056 429.972 304.507 429.972 287.408V261.536C429.972 258.4 429.898 255.712 429.748 253.472C429.674 251.232 429.487 249.328 429.188 247.76C428.964 246.192 428.628 244.885 428.18 243.84C427.807 242.795 427.322 241.936 426.724 241.264C425.679 240.219 424.335 239.472 422.692 239.024C421.05 238.501 418.772 238.24 415.86 238.24V233.76H452.148V238.24C449.386 238.24 447.258 238.464 445.764 238.912C444.271 239.285 443.114 239.995 442.292 241.04C441.695 241.712 441.21 242.608 440.836 243.728C440.463 244.773 440.164 246.117 439.94 247.76C439.716 249.328 439.53 251.232 439.38 253.472C439.306 255.712 439.268 258.4 439.268 261.536V285.28ZM544.311 258.4H539.495C539.271 254.741 538.711 251.717 537.815 249.328C536.994 246.864 535.799 244.923 534.231 243.504C532.663 242.011 530.759 241.003 528.519 240.48C526.279 239.883 523.666 239.584 520.679 239.584C517.767 239.584 515.415 239.659 513.623 239.808C511.906 239.883 510.562 240.069 509.591 240.368C508.695 240.592 508.098 240.928 507.799 241.376C507.501 241.824 507.351 242.384 507.351 243.056V301.744C507.351 304.133 507.501 306.187 507.799 307.904C508.173 309.621 508.882 311.04 509.927 312.16C510.973 313.205 512.503 314.027 514.519 314.624C516.535 315.147 519.186 315.445 522.471 315.52V320H475.543V315.52C478.903 315.445 481.591 315.147 483.607 314.624C485.623 314.027 487.154 313.205 488.199 312.16C489.319 311.04 490.029 309.621 490.327 307.904C490.701 306.187 490.887 304.133 490.887 301.744V243.056C490.887 242.384 490.738 241.824 490.439 241.376C490.215 240.928 489.693 240.592 488.871 240.368C488.05 240.069 486.855 239.883 485.287 239.808C483.794 239.659 481.815 239.584 479.351 239.584C476.663 239.584 474.087 239.733 471.623 240.032C469.159 240.256 466.994 241.003 465.127 242.272C463.261 243.467 461.73 245.333 460.535 247.872C459.415 250.336 458.818 253.845 458.743 258.4H454.375L455.495 233.76H543.191L544.311 258.4ZM593.253 293.904H561.557C558.047 301.819 556.293 307.307 556.293 310.368C556.293 312.608 557.114 314.027 558.757 314.624C560.474 315.221 563.013 315.52 566.373 315.52V320H535.685V315.52C537.477 315.296 539.007 314.997 540.277 314.624C541.621 314.251 542.778 313.728 543.749 313.056C544.794 312.384 545.69 311.525 546.437 310.48C547.183 309.36 547.893 308.016 548.565 306.448L578.021 232.64H586.309L613.077 298.048C614.645 301.856 615.951 304.843 616.997 307.008C618.117 309.173 619.274 310.853 620.469 312.048C621.738 313.168 623.157 313.952 624.725 314.4C626.367 314.848 628.458 315.184 630.997 315.408V320H588.661V315.408C592.245 315.259 594.821 314.885 596.389 314.288C597.957 313.691 598.741 312.496 598.741 310.704C598.741 309.659 598.479 308.315 597.957 306.672C597.434 305.029 596.725 303.013 595.829 300.624L593.253 293.904ZM564.133 287.184H590.789L577.909 253.248H577.461L564.133 287.184Z" fill="#18AB8E"/>
</g>
<path d="M550.856 336.152C550.856 337.48 550.472 338.592 549.704 339.488C548.936 340.384 547.712 340.984 546.032 341.288L551.6 347.672C551.984 348.12 552.44 348.464 552.968 348.704C553.496 348.928 554.032 349.04 554.576 349.04V350H548.888L542.936 342.704C542.536 342.224 542.184 341.904 541.88 341.744C541.592 341.568 541.32 341.48 541.064 341.48V346.184C541.064 346.776 541.104 347.264 541.184 347.648C541.264 348.016 541.424 348.304 541.664 348.512C541.904 348.72 542.248 348.864 542.696 348.944C543.16 349.008 543.776 349.04 544.544 349.04V350H535.016V349.04C535.544 349.04 535.968 349.008 536.288 348.944C536.624 348.864 536.88 348.728 537.056 348.536C537.248 348.328 537.376 348.048 537.44 347.696C537.504 347.328 537.536 346.864 537.536 346.304V335.216C537.536 334.656 537.512 334.208 537.464 333.872C537.416 333.52 537.312 333.248 537.152 333.056C536.992 332.848 536.76 332.712 536.456 332.648C536.168 332.568 535.776 332.512 535.28 332.48V331.52H543.584C545.904 331.52 547.696 331.928 548.96 332.744C550.224 333.56 550.856 334.696 550.856 336.152ZM541.064 340.04H542.624C544.128 340.04 545.248 339.752 545.984 339.176C546.736 338.584 547.112 337.616 547.112 336.272C547.112 335.248 546.8 334.424 546.176 333.8C545.552 333.176 544.688 332.864 543.584 332.864H541.496C541.208 332.864 541.064 333 541.064 333.272V340.04ZM564.648 341.216C564.648 340.576 564.632 340.072 564.6 339.704C564.568 339.32 564.48 339.032 564.336 338.84C564.192 338.632 563.976 338.496 563.688 338.432C563.416 338.352 563.04 338.288 562.56 338.24V337.28H567.984V344.552C567.984 345.528 567.992 346.296 568.008 346.856C568.04 347.4 568.088 347.808 568.152 348.08C568.2 348.288 568.256 348.456 568.32 348.584C568.384 348.696 568.488 348.792 568.632 348.872C568.776 348.936 568.968 348.984 569.208 349.016C569.464 349.032 569.792 349.04 570.192 349.04V349.976L565.416 350.264L565.152 348.128H565.056C564.64 348.8 564.056 349.32 563.304 349.688C562.552 350.056 561.712 350.24 560.784 350.24C559.072 350.24 557.768 349.632 556.872 348.416C556.184 347.488 555.84 346.168 555.84 344.456V341.216C555.84 340.56 555.824 340.048 555.792 339.68C555.76 339.296 555.672 339.008 555.528 338.816C555.4 338.624 555.2 338.496 554.928 338.432C554.656 338.352 554.28 338.288 553.8 338.24V337.28H559.176V344.072C559.176 345.688 559.376 346.864 559.776 347.6C560.176 348.32 560.816 348.68 561.696 348.68C562.64 348.68 563.368 348.248 563.88 347.384C564.392 346.552 564.648 345.328 564.648 343.712V341.216ZM575.736 338.84H575.832C576.888 337.64 578.264 337.04 579.96 337.04C580.888 337.04 581.736 337.208 582.504 337.544C583.288 337.864 583.96 338.32 584.52 338.912C585.096 339.488 585.536 340.184 585.84 341C586.16 341.8 586.32 342.68 586.32 343.64C586.32 344.6 586.16 345.48 585.84 346.28C585.536 347.08 585.104 347.776 584.544 348.368C583.984 348.96 583.312 349.424 582.528 349.76C581.76 350.08 580.92 350.24 580.008 350.24C578.456 350.24 577.272 349.712 576.456 348.656H576.36V351.992C576.36 352.632 576.392 353.144 576.456 353.528C576.52 353.912 576.656 354.208 576.864 354.416C577.072 354.624 577.36 354.768 577.728 354.848C578.112 354.928 578.616 354.976 579.24 354.992V356H570.96V354.992C571.392 354.976 571.744 354.928 572.016 354.848C572.288 354.768 572.496 354.624 572.64 354.416C572.8 354.208 572.904 353.92 572.952 353.552C573.016 353.2 573.048 352.736 573.048 352.16V343.232C573.048 342.496 573.032 341.8 573 341.144C572.968 340.472 572.928 340 572.88 339.728C572.8 339.36 572.616 339.104 572.328 338.96C572.056 338.816 571.584 338.744 570.912 338.744V337.808L575.736 337.136V338.84ZM579.816 338.408C579.304 338.408 578.816 338.52 578.352 338.744C577.888 338.968 577.52 339.264 577.248 339.632C576.976 340 576.768 340.464 576.624 341.024C576.48 341.568 576.408 342.16 576.408 342.8V344.432C576.408 345.568 576.688 346.536 577.248 347.336C577.856 348.216 578.712 348.656 579.816 348.656C580.792 348.656 581.512 348.256 581.976 347.456C582.456 346.64 582.696 345.384 582.696 343.688C582.696 340.168 581.736 338.408 579.816 338.408ZM593.406 346.064C593.406 346.704 593.43 347.216 593.478 347.6C593.526 347.984 593.622 348.28 593.766 348.488C593.91 348.696 594.118 348.84 594.39 348.92C594.662 348.984 595.03 349.024 595.494 349.04V350H587.934V349.04C588.382 349.024 588.742 348.976 589.014 348.896C589.302 348.8 589.518 348.656 589.662 348.464C589.822 348.256 589.926 347.976 589.974 347.624C590.038 347.256 590.07 346.792 590.07 346.232V343.28C590.07 342.352 590.054 341.592 590.022 341C589.99 340.392 589.95 339.976 589.902 339.752C589.822 339.352 589.638 339.088 589.35 338.96C589.078 338.832 588.574 338.768 587.838 338.768V337.952L593.406 337.04V346.064ZM589.878 331.952C589.878 331.424 590.054 330.984 590.406 330.632C590.774 330.264 591.214 330.08 591.726 330.08C592.254 330.08 592.694 330.264 593.046 330.632C593.414 330.984 593.598 331.424 593.598 331.952C593.598 332.464 593.414 332.904 593.046 333.272C592.694 333.624 592.254 333.8 591.726 333.8C591.214 333.8 590.774 333.624 590.406 333.272C590.054 332.904 589.878 332.464 589.878 331.952ZM604.166 343.16C602.822 343.768 601.806 344.336 601.118 344.864C600.446 345.376 600.11 345.912 600.11 346.472C600.11 346.936 600.238 347.304 600.494 347.576C600.75 347.848 601.07 347.984 601.454 347.984C601.838 347.984 602.198 347.92 602.534 347.792C602.87 347.648 603.158 347.464 603.398 347.24C603.638 347.016 603.822 346.752 603.95 346.448C604.094 346.128 604.166 345.792 604.166 345.44V343.16ZM604.166 341.888V340.88C604.166 339.952 603.998 339.28 603.662 338.864C603.342 338.432 602.838 338.216 602.15 338.216C601.686 338.216 601.334 338.344 601.094 338.6C600.854 338.84 600.63 339.248 600.422 339.824C600.278 340.224 600.07 340.536 599.798 340.76C599.542 340.984 599.182 341.096 598.718 341.096C598.27 341.096 597.926 340.96 597.686 340.688C597.446 340.416 597.326 340.032 597.326 339.536C597.326 338.768 597.742 338.16 598.574 337.712C599.422 337.264 600.694 337.04 602.39 337.04C604.182 337.04 605.462 337.368 606.23 338.024C606.998 338.664 607.382 339.744 607.382 341.264V346.52C607.382 347.88 607.654 348.56 608.198 348.56C608.502 348.56 608.782 348.456 609.038 348.248L609.398 348.944C609.174 349.344 608.822 349.664 608.342 349.904C607.878 350.128 607.35 350.24 606.758 350.24C606.022 350.24 605.462 350.016 605.078 349.568C604.694 349.12 604.502 348.488 604.502 347.672H604.382C603.918 348.504 603.318 349.136 602.582 349.568C601.846 350 601.006 350.216 600.062 350.216C599.054 350.216 598.246 349.936 597.638 349.376C597.03 348.8 596.726 348.056 596.726 347.144C596.726 346.44 597.038 345.784 597.662 345.176C598.286 344.552 599.326 343.944 600.782 343.352L604.166 341.888ZM615.547 346.064C615.547 346.72 615.563 347.24 615.595 347.624C615.643 347.992 615.731 348.28 615.859 348.488C616.003 348.696 616.211 348.832 616.483 348.896C616.771 348.96 617.155 349.008 617.635 349.04V350H610.075V349.04C610.555 349.008 610.939 348.96 611.227 348.896C611.515 348.832 611.731 348.704 611.875 348.512C612.019 348.32 612.107 348.048 612.139 347.696C612.187 347.328 612.211 346.84 612.211 346.232V336.368C612.211 335.408 612.195 334.656 612.163 334.112C612.147 333.552 612.107 333.128 612.043 332.84C611.995 332.632 611.939 332.472 611.875 332.36C611.811 332.232 611.707 332.136 611.563 332.072C611.435 331.992 611.251 331.944 611.011 331.928C610.787 331.896 610.499 331.88 610.147 331.88V330.992L615.499 330.08V338.936H615.595C616.091 338.28 616.643 337.8 617.251 337.496C617.875 337.192 618.619 337.04 619.483 337.04C621.051 337.04 622.267 337.52 623.131 338.48C623.547 338.96 623.875 339.544 624.115 340.232C624.355 340.904 624.475 341.608 624.475 342.344V346.064C624.475 346.736 624.491 347.264 624.523 347.648C624.555 348.016 624.635 348.304 624.763 348.512C624.907 348.704 625.115 348.832 625.387 348.896C625.659 348.96 626.035 349.008 626.515 349.04V350H619.003V349.04C619.483 349.024 619.859 348.984 620.131 348.92C620.419 348.84 620.635 348.704 620.779 348.512C620.939 348.32 621.035 348.048 621.067 347.696C621.115 347.328 621.139 346.84 621.139 346.232V343.28C621.139 341.584 620.955 340.384 620.587 339.68C620.219 338.976 619.587 338.624 618.691 338.624C617.731 338.624 616.971 338.976 616.411 339.68C616.139 340.048 615.923 340.504 615.763 341.048C615.619 341.592 615.547 342.2 615.547 342.872V346.064Z" fill="#18AB8E"/>
<path d="M172.991 205.656C172.991 207.384 172.319 208.704 170.975 209.616C169.631 210.512 167.679 210.96 165.119 210.96H163.079V215.184C163.079 215.792 163.119 216.288 163.199 216.672C163.279 217.04 163.447 217.328 163.703 217.536C163.959 217.744 164.311 217.88 164.759 217.944C165.207 218.008 165.807 218.04 166.559 218.04V219H157.031V218.04C157.559 218.024 157.991 217.976 158.327 217.896C158.663 217.816 158.919 217.68 159.095 217.488C159.271 217.296 159.391 217.024 159.455 216.672C159.519 216.32 159.551 215.864 159.551 215.304V204.216C159.551 203.656 159.519 203.208 159.455 202.872C159.407 202.52 159.303 202.248 159.143 202.056C158.983 201.848 158.751 201.712 158.447 201.648C158.159 201.568 157.775 201.512 157.295 201.48V200.52H165.599C168.031 200.52 169.871 200.952 171.119 201.816C172.367 202.68 172.991 203.96 172.991 205.656ZM163.079 209.52H164.639C166.191 209.52 167.327 209.208 168.047 208.584C168.767 207.96 169.127 206.976 169.127 205.632C169.127 204.432 168.823 203.504 168.215 202.848C167.607 202.192 166.655 201.864 165.359 201.864H163.511C163.223 201.864 163.079 202 163.079 202.272V209.52ZM179.587 215.28C179.587 215.904 179.611 216.4 179.659 216.768C179.723 217.12 179.843 217.392 180.019 217.584C180.195 217.776 180.451 217.904 180.787 217.968C181.123 218.016 181.571 218.04 182.131 218.04V219H174.115V218.04C174.595 218.008 174.979 217.96 175.267 217.896C175.555 217.832 175.771 217.704 175.915 217.512C176.059 217.32 176.147 217.048 176.179 216.696C176.227 216.328 176.251 215.84 176.251 215.232V212.304C176.251 211.312 176.227 210.52 176.179 209.928C176.131 209.336 176.027 208.88 175.867 208.56C175.707 208.24 175.475 208.032 175.171 207.936C174.883 207.824 174.499 207.768 174.019 207.768V206.928L178.819 206.04L179.203 208.8H179.299C179.731 207.952 180.299 207.28 181.003 206.784C181.707 206.288 182.451 206.04 183.235 206.04C183.843 206.04 184.339 206.192 184.723 206.496C185.107 206.8 185.299 207.184 185.299 207.648C185.299 208.16 185.147 208.592 184.843 208.944C184.555 209.296 184.155 209.472 183.643 209.472C183.403 209.472 183.187 209.424 182.995 209.328C182.803 209.232 182.627 209.128 182.467 209.016C182.323 208.888 182.171 208.776 182.011 208.68C181.867 208.568 181.715 208.512 181.555 208.512C181.251 208.512 180.963 208.712 180.691 209.112C180.419 209.512 180.195 210.048 180.019 210.72C179.891 211.2 179.787 211.744 179.707 212.352C179.627 212.944 179.587 213.536 179.587 214.128V215.28ZM191.516 215.064C191.516 215.704 191.54 216.216 191.588 216.6C191.636 216.984 191.732 217.28 191.876 217.488C192.02 217.696 192.228 217.84 192.5 217.92C192.772 217.984 193.14 218.024 193.604 218.04V219H186.044V218.04C186.492 218.024 186.852 217.976 187.124 217.896C187.412 217.8 187.628 217.656 187.772 217.464C187.932 217.256 188.036 216.976 188.084 216.624C188.148 216.256 188.18 215.792 188.18 215.232V212.28C188.18 211.352 188.164 210.592 188.132 210C188.1 209.392 188.06 208.976 188.012 208.752C187.932 208.352 187.748 208.088 187.46 207.96C187.188 207.832 186.684 207.768 185.948 207.768V206.952L191.516 206.04V215.064ZM187.988 200.952C187.988 200.424 188.164 199.984 188.516 199.632C188.884 199.264 189.324 199.08 189.836 199.08C190.364 199.08 190.804 199.264 191.156 199.632C191.524 199.984 191.708 200.424 191.708 200.952C191.708 201.464 191.524 201.904 191.156 202.272C190.804 202.624 190.364 202.8 189.836 202.8C189.324 202.8 188.884 202.624 188.516 202.272C188.164 201.904 187.988 201.464 187.988 200.952ZM206.5 219H194.644V218.448L202.156 207.552H199.948C199.26 207.552 198.7 207.584 198.268 207.648C197.836 207.696 197.484 207.816 197.212 208.008C196.956 208.184 196.756 208.432 196.612 208.752C196.484 209.072 196.372 209.496 196.276 210.024H195.34L195.628 206.28H206.452V206.832L199.06 217.704H201.172C202.004 217.704 202.692 217.672 203.236 217.608C203.78 217.528 204.22 217.392 204.556 217.2C204.892 216.992 205.156 216.712 205.348 216.36C205.54 215.992 205.708 215.512 205.852 214.92H206.788L206.5 219ZM220.62 216.768C219.164 218.416 217.348 219.24 215.172 219.24C214.18 219.24 213.276 219.088 212.46 218.784C211.66 218.464 210.972 218.024 210.396 217.464C209.82 216.888 209.372 216.208 209.052 215.424C208.732 214.64 208.572 213.768 208.572 212.808C208.572 211.816 208.74 210.912 209.076 210.096C209.412 209.264 209.884 208.552 210.492 207.96C211.116 207.352 211.844 206.88 212.676 206.544C213.524 206.208 214.452 206.04 215.46 206.04C217.156 206.04 218.476 206.496 219.42 207.408C220.364 208.32 220.836 209.6 220.836 211.248C220.836 211.504 220.796 211.664 220.716 211.728C220.636 211.776 220.412 211.8 220.044 211.8H212.316C212.252 211.944 212.22 212.208 212.22 212.592C212.22 214.16 212.556 215.4 213.228 216.312C213.916 217.224 214.844 217.68 216.012 217.68C216.684 217.68 217.348 217.528 218.004 217.224C218.676 216.92 219.324 216.488 219.948 215.928L220.62 216.768ZM215.964 210.456C216.604 210.456 217.012 210.424 217.188 210.36C217.38 210.28 217.476 210.104 217.476 209.832C217.476 209.128 217.276 208.552 216.876 208.104C216.476 207.656 215.972 207.432 215.364 207.432C214.676 207.432 214.06 207.72 213.516 208.296C212.988 208.856 212.644 209.576 212.484 210.456H215.964ZM244.874 205.656C244.874 207.384 244.202 208.704 242.858 209.616C241.514 210.512 239.562 210.96 237.002 210.96H234.962V215.184C234.962 215.792 235.002 216.288 235.082 216.672C235.162 217.04 235.33 217.328 235.586 217.536C235.842 217.744 236.194 217.88 236.642 217.944C237.09 218.008 237.69 218.04 238.442 218.04V219H228.914V218.04C229.442 218.024 229.874 217.976 230.21 217.896C230.546 217.816 230.802 217.68 230.978 217.488C231.154 217.296 231.274 217.024 231.338 216.672C231.402 216.32 231.434 215.864 231.434 215.304V204.216C231.434 203.656 231.402 203.208 231.338 202.872C231.29 202.52 231.186 202.248 231.026 202.056C230.866 201.848 230.634 201.712 230.33 201.648C230.042 201.568 229.658 201.512 229.178 201.48V200.52H237.482C239.914 200.52 241.754 200.952 243.002 201.816C244.25 202.68 244.874 203.96 244.874 205.656ZM234.962 209.52H236.522C238.074 209.52 239.21 209.208 239.93 208.584C240.65 207.96 241.01 206.976 241.01 205.632C241.01 204.432 240.706 203.504 240.098 202.848C239.49 202.192 238.538 201.864 237.242 201.864H235.394C235.106 201.864 234.962 202 234.962 202.272V209.52ZM252.54 206.04C253.5 206.04 254.404 206.208 255.252 206.544C256.116 206.864 256.868 207.312 257.508 207.888C258.164 208.464 258.676 209.152 259.044 209.952C259.428 210.736 259.62 211.6 259.62 212.544C259.62 213.52 259.428 214.416 259.044 215.232C258.676 216.048 258.164 216.752 257.508 217.344C256.868 217.936 256.116 218.4 255.252 218.736C254.404 219.072 253.5 219.24 252.54 219.24C251.596 219.24 250.7 219.08 249.852 218.76C249.004 218.424 248.26 217.96 247.62 217.368C246.98 216.776 246.476 216.072 246.108 215.256C245.74 214.424 245.556 213.52 245.556 212.544C245.556 211.6 245.74 210.728 246.108 209.928C246.476 209.128 246.98 208.44 247.62 207.864C248.26 207.288 249.004 206.84 249.852 206.52C250.7 206.2 251.596 206.04 252.54 206.04ZM252.54 207.432C252.06 207.432 251.62 207.56 251.22 207.816C250.82 208.056 250.476 208.4 250.188 208.848C249.916 209.296 249.7 209.84 249.54 210.48C249.396 211.104 249.324 211.8 249.324 212.568C249.324 213.368 249.396 214.088 249.54 214.728C249.7 215.368 249.916 215.912 250.188 216.36C250.476 216.808 250.812 217.16 251.196 217.416C251.596 217.656 252.044 217.776 252.54 217.776C253.036 217.776 253.484 217.656 253.884 217.416C254.3 217.16 254.652 216.808 254.94 216.36C255.228 215.896 255.452 215.344 255.612 214.704C255.772 214.064 255.852 213.352 255.852 212.568C255.852 211.8 255.772 211.104 255.612 210.48C255.452 209.856 255.228 209.32 254.94 208.872C254.652 208.408 254.3 208.056 253.884 207.816C253.484 207.56 253.036 207.432 252.54 207.432ZM268.384 206.04C269.344 206.04 270.248 206.208 271.096 206.544C271.96 206.864 272.712 207.312 273.352 207.888C274.008 208.464 274.52 209.152 274.888 209.952C275.272 210.736 275.464 211.6 275.464 212.544C275.464 213.52 275.272 214.416 274.888 215.232C274.52 216.048 274.008 216.752 273.352 217.344C272.712 217.936 271.96 218.4 271.096 218.736C270.248 219.072 269.344 219.24 268.384 219.24C267.44 219.24 266.544 219.08 265.696 218.76C264.848 218.424 264.104 217.96 263.464 217.368C262.824 216.776 262.32 216.072 261.952 215.256C261.584 214.424 261.4 213.52 261.4 212.544C261.4 211.6 261.584 210.728 261.952 209.928C262.32 209.128 262.824 208.44 263.464 207.864C264.104 207.288 264.848 206.84 265.696 206.52C266.544 206.2 267.44 206.04 268.384 206.04ZM268.384 207.432C267.904 207.432 267.464 207.56 267.064 207.816C266.664 208.056 266.32 208.4 266.032 208.848C265.76 209.296 265.544 209.84 265.384 210.48C265.24 211.104 265.168 211.8 265.168 212.568C265.168 213.368 265.24 214.088 265.384 214.728C265.544 215.368 265.76 215.912 266.032 216.36C266.32 216.808 266.656 217.16 267.04 217.416C267.44 217.656 267.888 217.776 268.384 217.776C268.88 217.776 269.328 217.656 269.728 217.416C270.144 217.16 270.496 216.808 270.784 216.36C271.072 215.896 271.296 215.344 271.456 214.704C271.616 214.064 271.696 213.352 271.696 212.568C271.696 211.8 271.616 211.104 271.456 210.48C271.296 209.856 271.072 209.32 270.784 208.872C270.496 208.408 270.144 208.056 269.728 207.816C269.328 207.56 268.88 207.432 268.384 207.432ZM282.283 215.064C282.283 215.704 282.307 216.216 282.355 216.6C282.403 216.984 282.499 217.28 282.643 217.488C282.787 217.696 282.995 217.84 283.267 217.92C283.539 217.984 283.907 218.024 284.371 218.04V219H276.811V218.04C277.259 218.024 277.619 217.976 277.891 217.896C278.179 217.8 278.395 217.656 278.539 217.464C278.699 217.256 278.803 216.976 278.851 216.624C278.915 216.256 278.947 215.792 278.947 215.232V205.32C278.947 204.392 278.931 203.632 278.899 203.04C278.867 202.432 278.827 202.016 278.779 201.792C278.699 201.392 278.515 201.128 278.227 201C277.955 200.872 277.451 200.808 276.715 200.808V199.992L282.283 199.08V215.064ZM310.119 205.8H309.087C309.039 205.016 308.919 204.368 308.727 203.856C308.551 203.328 308.295 202.912 307.959 202.608C307.623 202.288 307.215 202.072 306.735 201.96C306.255 201.832 305.695 201.768 305.055 201.768C304.431 201.768 303.927 201.784 303.543 201.816C303.175 201.832 302.887 201.872 302.679 201.936C302.487 201.984 302.359 202.056 302.295 202.152C302.231 202.248 302.199 202.368 302.199 202.512V215.088C302.199 215.6 302.231 216.04 302.295 216.408C302.375 216.776 302.527 217.08 302.751 217.32C302.975 217.544 303.303 217.72 303.735 217.848C304.167 217.96 304.735 218.024 305.439 218.04V219H295.383V218.04C296.103 218.024 296.679 217.96 297.111 217.848C297.543 217.72 297.871 217.544 298.095 217.32C298.335 217.08 298.487 216.776 298.551 216.408C298.631 216.04 298.671 215.6 298.671 215.088V202.512C298.671 202.368 298.639 202.248 298.575 202.152C298.527 202.056 298.415 201.984 298.239 201.936C298.063 201.872 297.807 201.832 297.471 201.816C297.151 201.784 296.727 201.768 296.199 201.768C295.623 201.768 295.071 201.8 294.543 201.864C294.015 201.912 293.551 202.072 293.151 202.344C292.751 202.6 292.423 203 292.167 203.544C291.927 204.072 291.799 204.824 291.783 205.8H290.847L291.087 200.52H309.879L310.119 205.8ZM316.36 206.04C317.32 206.04 318.224 206.208 319.072 206.544C319.936 206.864 320.688 207.312 321.328 207.888C321.984 208.464 322.496 209.152 322.864 209.952C323.248 210.736 323.44 211.6 323.44 212.544C323.44 213.52 323.248 214.416 322.864 215.232C322.496 216.048 321.984 216.752 321.328 217.344C320.688 217.936 319.936 218.4 319.072 218.736C318.224 219.072 317.32 219.24 316.36 219.24C315.416 219.24 314.52 219.08 313.672 218.76C312.824 218.424 312.08 217.96 311.44 217.368C310.8 216.776 310.296 216.072 309.928 215.256C309.56 214.424 309.376 213.52 309.376 212.544C309.376 211.6 309.56 210.728 309.928 209.928C310.296 209.128 310.8 208.44 311.44 207.864C312.08 207.288 312.824 206.84 313.672 206.52C314.52 206.2 315.416 206.04 316.36 206.04ZM316.36 207.432C315.88 207.432 315.44 207.56 315.04 207.816C314.64 208.056 314.296 208.4 314.008 208.848C313.736 209.296 313.52 209.84 313.36 210.48C313.216 211.104 313.144 211.8 313.144 212.568C313.144 213.368 313.216 214.088 313.36 214.728C313.52 215.368 313.736 215.912 314.008 216.36C314.296 216.808 314.632 217.16 315.016 217.416C315.416 217.656 315.864 217.776 316.36 217.776C316.856 217.776 317.304 217.656 317.704 217.416C318.12 217.16 318.472 216.808 318.76 216.36C319.048 215.896 319.272 215.344 319.432 214.704C319.592 214.064 319.672 213.352 319.672 212.568C319.672 211.8 319.592 211.104 319.432 210.48C319.272 209.856 319.048 209.32 318.76 208.872C318.472 208.408 318.12 208.056 317.704 207.816C317.304 207.56 316.856 207.432 316.36 207.432ZM324.932 207.6V206.52C325.892 206.248 326.692 205.84 327.332 205.296C327.988 204.736 328.476 204.096 328.796 203.376H330.02V206.28H332.78V207.6H330.02V214.968C330.02 215.96 330.124 216.664 330.332 217.08C330.556 217.496 330.924 217.704 331.436 217.704C332.06 217.704 332.532 217.416 332.852 216.84L333.356 217.536C332.908 218.672 331.852 219.24 330.188 219.24C329.084 219.24 328.22 218.984 327.596 218.472C326.988 217.96 326.684 217.24 326.684 216.312V207.6H324.932ZM341.752 212.16C340.408 212.768 339.392 213.336 338.704 213.864C338.032 214.376 337.696 214.912 337.696 215.472C337.696 215.936 337.824 216.304 338.08 216.576C338.336 216.848 338.656 216.984 339.04 216.984C339.424 216.984 339.784 216.92 340.12 216.792C340.456 216.648 340.744 216.464 340.984 216.24C341.224 216.016 341.408 215.752 341.536 215.448C341.68 215.128 341.752 214.792 341.752 214.44V212.16ZM341.752 210.888V209.88C341.752 208.952 341.584 208.28 341.248 207.864C340.928 207.432 340.424 207.216 339.736 207.216C339.272 207.216 338.92 207.344 338.68 207.6C338.44 207.84 338.216 208.248 338.008 208.824C337.864 209.224 337.656 209.536 337.384 209.76C337.128 209.984 336.768 210.096 336.304 210.096C335.856 210.096 335.512 209.96 335.272 209.688C335.032 209.416 334.912 209.032 334.912 208.536C334.912 207.768 335.328 207.16 336.16 206.712C337.008 206.264 338.28 206.04 339.976 206.04C341.768 206.04 343.048 206.368 343.816 207.024C344.584 207.664 344.968 208.744 344.968 210.264V215.52C344.968 216.88 345.24 217.56 345.784 217.56C346.088 217.56 346.368 217.456 346.624 217.248L346.984 217.944C346.76 218.344 346.408 218.664 345.928 218.904C345.464 219.128 344.936 219.24 344.344 219.24C343.608 219.24 343.048 219.016 342.664 218.568C342.28 218.12 342.088 217.488 342.088 216.672H341.968C341.504 217.504 340.904 218.136 340.168 218.568C339.432 219 338.592 219.216 337.648 219.216C336.64 219.216 335.832 218.936 335.224 218.376C334.616 217.8 334.312 217.056 334.312 216.144C334.312 215.44 334.624 214.784 335.248 214.176C335.872 213.552 336.912 212.944 338.368 212.352L341.752 210.888ZM353.205 215.064C353.205 215.704 353.229 216.216 353.277 216.6C353.325 216.984 353.421 217.28 353.565 217.488C353.709 217.696 353.917 217.84 354.189 217.92C354.461 217.984 354.829 218.024 355.293 218.04V219H347.733V218.04C348.181 218.024 348.541 217.976 348.813 217.896C349.101 217.8 349.317 217.656 349.461 217.464C349.621 217.256 349.725 216.976 349.773 216.624C349.837 216.256 349.869 215.792 349.869 215.232V205.32C349.869 204.392 349.853 203.632 349.821 203.04C349.789 202.432 349.749 202.016 349.701 201.792C349.621 201.392 349.437 201.128 349.149 201C348.877 200.872 348.373 200.808 347.637 200.808V199.992L353.205 199.08V215.064Z" fill="#18AB8E"/>
<g filter="url(#filter2_d_609_128217)">
<g filter="url(#filter3_d_609_128217)">
<path d="M137.923 164.173L3.42435 143.747L12.9494 63.9427L46.4506 29.4785L133.864 18.4657L254.797 29.9128L416.296 35.5512L553.752 21.5847L685.511 28.0515L785.38 42.4249L799.725 107.528L748.527 153.402L545.377 142.685L350.791 158.243L215.901 151.864L137.923 164.173Z" fill="white"/>
</g>
<path d="M81.9173 69.4874H84.5633L83.4833 83.1494H81.3233C80.5673 79.8374 79.0913 77.2274 76.8953 75.3194C74.7353 73.4114 72.1073 72.4574 69.0113 72.4574C66.8873 72.4574 64.9973 72.8894 63.3413 73.7534C61.6853 74.5814 60.2813 75.7874 59.1293 77.3714C58.0133 78.9194 57.1493 80.8274 56.5373 83.0954C55.9613 85.3274 55.6733 87.8474 55.6733 90.6554C55.6733 96.2354 56.8073 100.537 59.0753 103.561C61.3793 106.549 64.7633 108.043 69.2273 108.043C72.8273 108.043 75.7973 107.071 78.1373 105.127C80.5133 103.183 82.2053 100.285 83.2133 96.4334H85.5893V111.067H83.0513L82.2953 106.801C78.3353 110.005 73.5293 111.607 67.8773 111.607C64.6013 111.607 61.6313 111.121 58.9673 110.149C56.3033 109.177 54.0353 107.809 52.1633 106.045C50.2913 104.245 48.8333 102.067 47.7893 99.5114C46.7813 96.9554 46.2773 94.1114 46.2773 90.9794C46.2773 87.7034 46.8173 84.7154 47.8973 82.0154C48.9773 79.3154 50.4893 76.9934 52.4333 75.0494C54.4133 73.1054 56.7533 71.6114 59.4533 70.5674C62.1893 69.4874 65.2133 68.9474 68.5253 68.9474C70.7213 68.9474 72.7733 69.2534 74.6813 69.8654C76.5893 70.4774 78.6593 71.4674 80.8913 72.8354L81.9173 69.4874ZM102.072 102.211C102.072 103.651 102.126 104.803 102.234 105.667C102.342 106.531 102.558 107.197 102.882 107.665C103.206 108.133 103.674 108.457 104.286 108.637C104.898 108.781 105.726 108.871 106.77 108.907V111.067H89.7603V108.907C90.7683 108.871 91.5783 108.763 92.1903 108.583C92.8383 108.367 93.3243 108.043 93.6483 107.611C94.0083 107.143 94.2423 106.513 94.3503 105.721C94.4943 104.893 94.5663 103.849 94.5663 102.589V95.9474C94.5663 93.8594 94.5303 92.1494 94.4583 90.8174C94.3863 89.4494 94.2963 88.5134 94.1883 88.0094C94.0083 87.1094 93.5943 86.5154 92.9463 86.2274C92.3343 85.9394 91.2003 85.7954 89.5443 85.7954V83.9594L102.072 81.9074V102.211ZM94.1343 70.4594C94.1343 69.2714 94.5303 68.2814 95.3223 67.4894C96.1503 66.6614 97.1403 66.2474 98.2923 66.2474C99.4803 66.2474 100.47 66.6614 101.262 67.4894C102.09 68.2814 102.504 69.2714 102.504 70.4594C102.504 71.6114 102.09 72.6014 101.262 73.4294C100.47 74.2214 99.4803 74.6174 98.2923 74.6174C97.1403 74.6174 96.1503 74.2214 95.3223 73.4294C94.5303 72.6014 94.1343 71.6114 94.1343 70.4594ZM112.633 89.4134C112.237 88.3694 111.859 87.5414 111.499 86.9294C111.139 86.2814 110.761 85.7954 110.365 85.4714C110.005 85.1114 109.591 84.8774 109.123 84.7694C108.691 84.6614 108.169 84.6074 107.557 84.6074V82.4474H123.703V84.6074C122.803 84.6074 122.083 84.6434 121.543 84.7154C121.039 84.7874 120.643 84.8954 120.355 85.0394C120.103 85.1834 119.941 85.3814 119.869 85.6334C119.797 85.8494 119.761 86.1014 119.761 86.3894C119.761 86.8574 119.851 87.3974 120.031 88.0094C120.211 88.6214 120.427 89.2334 120.679 89.8454L125.809 103.993H126.025L131.803 89.8994C132.055 89.2874 132.253 88.7474 132.397 88.2794C132.541 87.7754 132.613 87.3254 132.613 86.9294C132.613 86.1374 132.343 85.5614 131.803 85.2014C131.263 84.8414 130.309 84.6434 128.941 84.6074V82.4474H140.875V84.6074C139.903 84.6074 139.057 84.8594 138.337 85.3634C137.653 85.8674 136.933 86.9834 136.177 88.7114L126.079 111.607H121.165L112.633 89.4134ZM154.754 102.211C154.754 103.651 154.808 104.803 154.916 105.667C155.024 106.531 155.24 107.197 155.564 107.665C155.888 108.133 156.356 108.457 156.968 108.637C157.58 108.781 158.408 108.871 159.452 108.907V111.067H142.442V108.907C143.45 108.871 144.26 108.763 144.872 108.583C145.52 108.367 146.006 108.043 146.33 107.611C146.69 107.143 146.924 106.513 147.032 105.721C147.176 104.893 147.248 103.849 147.248 102.589V95.9474C147.248 93.8594 147.212 92.1494 147.14 90.8174C147.068 89.4494 146.978 88.5134 146.87 88.0094C146.69 87.1094 146.276 86.5154 145.628 86.2274C145.016 85.9394 143.882 85.7954 142.226 85.7954V83.9594L154.754 81.9074V102.211ZM146.816 70.4594C146.816 69.2714 147.212 68.2814 148.004 67.4894C148.832 66.6614 149.822 66.2474 150.974 66.2474C152.162 66.2474 153.152 66.6614 153.944 67.4894C154.772 68.2814 155.186 69.2714 155.186 70.4594C155.186 71.6114 154.772 72.6014 153.944 73.4294C153.152 74.2214 152.162 74.6174 150.974 74.6174C149.822 74.6174 148.832 74.2214 148.004 73.4294C147.212 72.6014 146.816 71.6114 146.816 70.4594ZM173.726 102.211C173.726 103.651 173.78 104.803 173.888 105.667C173.996 106.531 174.212 107.197 174.536 107.665C174.86 108.133 175.328 108.457 175.94 108.637C176.552 108.781 177.38 108.871 178.424 108.907V111.067H161.414V108.907C162.422 108.871 163.232 108.763 163.844 108.583C164.492 108.367 164.978 108.043 165.302 107.611C165.662 107.143 165.896 106.513 166.004 105.721C166.148 104.893 166.22 103.849 166.22 102.589V80.2874C166.22 78.1994 166.184 76.4894 166.112 75.1574C166.04 73.7894 165.95 72.8534 165.842 72.3494C165.662 71.4494 165.248 70.8554 164.6 70.5674C163.988 70.2794 162.854 70.1354 161.198 70.1354V68.2994L173.726 66.2474V102.211ZM215.149 111.067H195.871V108.907C197.095 108.871 198.067 108.763 198.787 108.583C199.543 108.367 200.119 107.989 200.515 107.449C200.911 106.909 201.181 106.153 201.325 105.181C201.469 104.173 201.541 102.823 201.541 101.131V79.4234C201.541 77.9114 201.469 76.6694 201.325 75.6974C201.217 74.6894 200.983 73.8974 200.623 73.3214C200.263 72.7454 199.741 72.3494 199.057 72.1334C198.409 71.8814 197.527 71.7194 196.411 71.6474V69.4874H214.609V71.6474C213.493 71.7194 212.593 71.8814 211.909 72.1334C211.261 72.3494 210.757 72.7454 210.397 73.3214C210.037 73.8974 209.785 74.6894 209.641 75.6974C209.533 76.6694 209.479 77.9114 209.479 79.4234V101.131C209.479 102.823 209.533 104.173 209.641 105.181C209.785 106.153 210.055 106.909 210.451 107.449C210.883 107.989 211.459 108.367 212.179 108.583C212.935 108.763 213.925 108.871 215.149 108.907V111.067ZM230.955 102.265C230.955 103.741 230.991 104.911 231.063 105.775C231.171 106.603 231.369 107.251 231.657 107.719C231.981 108.151 232.449 108.439 233.061 108.583C233.709 108.727 234.573 108.835 235.653 108.907V111.067H218.643V108.907C219.687 108.835 220.515 108.727 221.127 108.583C221.775 108.439 222.261 108.151 222.585 107.719C222.945 107.287 223.179 106.675 223.287 105.883C223.395 105.091 223.449 104.011 223.449 102.643V95.8934C223.449 93.7694 223.413 92.0594 223.341 90.7634C223.269 89.4314 223.179 88.5314 223.071 88.0634C222.963 87.5954 222.819 87.2174 222.639 86.9294C222.459 86.6054 222.189 86.3714 221.829 86.2274C221.469 86.0474 221.019 85.9394 220.479 85.9034C219.939 85.8314 219.255 85.7954 218.427 85.7954V83.9594L228.849 81.9074L229.551 86.6594H229.767C230.955 85.1474 232.359 83.9774 233.979 83.1494C235.599 82.3214 237.381 81.9074 239.325 81.9074C241.629 81.9074 243.483 82.2314 244.887 82.8794C246.327 83.4914 247.605 84.5354 248.721 86.0114C249.333 86.8394 249.873 87.9194 250.341 89.2514C250.809 90.5474 251.043 92.3474 251.043 94.6514V102.265C251.043 103.741 251.079 104.911 251.151 105.775C251.259 106.603 251.457 107.251 251.745 107.719C252.069 108.151 252.537 108.439 253.149 108.583C253.761 108.727 254.589 108.835 255.633 108.907V111.067H238.731V108.907C239.811 108.871 240.657 108.781 241.269 108.637C241.917 108.457 242.403 108.151 242.727 107.719C243.051 107.287 243.267 106.675 243.375 105.883C243.483 105.055 243.537 103.975 243.537 102.643V95.2994C243.537 93.4634 243.429 91.9154 243.213 90.6554C242.997 89.3954 242.637 88.3874 242.133 87.6314C241.665 86.8394 241.035 86.2814 240.243 85.9574C239.451 85.5974 238.461 85.4174 237.273 85.4174C236.121 85.4174 235.131 85.7414 234.303 86.3894C233.475 87.0374 232.755 87.9374 232.143 89.0894C231.819 89.7374 231.531 90.5834 231.279 91.6274C231.063 92.6354 230.955 93.6974 230.955 94.8134V102.265ZM295.547 98.4854H280.265C278.573 102.301 277.727 104.947 277.727 106.423C277.727 107.503 278.123 108.187 278.915 108.475C279.743 108.763 280.967 108.907 282.587 108.907V111.067H267.791V108.907C268.655 108.799 269.393 108.655 270.005 108.475C270.653 108.295 271.211 108.043 271.679 107.719C272.183 107.395 272.615 106.981 272.975 106.477C273.335 105.937 273.677 105.289 274.001 104.533L288.203 68.9474H292.199L305.105 100.483C305.861 102.319 306.491 103.759 306.995 104.803C307.535 105.847 308.093 106.657 308.669 107.233C309.281 107.773 309.965 108.151 310.721 108.367C311.513 108.583 312.521 108.745 313.745 108.853V111.067H293.333V108.853C295.061 108.781 296.303 108.601 297.059 108.313C297.815 108.025 298.193 107.449 298.193 106.585C298.193 106.081 298.067 105.433 297.815 104.641C297.563 103.849 297.221 102.877 296.789 101.725L295.547 98.4854ZM281.507 95.2454H294.359L288.149 78.8834H287.933L281.507 95.2454ZM339.773 106.585C338.405 108.097 336.695 109.267 334.643 110.095C332.627 110.923 330.431 111.337 328.055 111.337C325.859 111.337 323.861 110.995 322.061 110.311C320.261 109.591 318.713 108.601 317.417 107.341C316.121 106.081 315.113 104.569 314.393 102.805C313.709 101.005 313.367 99.0254 313.367 96.8654C313.367 94.6334 313.745 92.5994 314.501 90.7634C315.257 88.9274 316.319 87.3614 317.687 86.0654C319.055 84.7334 320.693 83.7074 322.601 82.9874C324.509 82.2674 326.615 81.9074 328.919 81.9074C330.539 81.9074 332.033 82.0694 333.401 82.3934C334.805 82.7174 335.993 83.1674 336.965 83.7434C337.973 84.3194 338.765 85.0034 339.341 85.7954C339.917 86.5514 340.205 87.3794 340.205 88.2794C340.205 89.3234 339.899 90.1514 339.287 90.7634C338.711 91.3754 337.919 91.6814 336.911 91.6814C336.083 91.6814 335.345 91.4654 334.697 91.0334C334.085 90.6014 333.473 89.8994 332.861 88.9274C332.321 88.0634 331.853 87.3794 331.457 86.8754C331.097 86.3714 330.755 85.9934 330.431 85.7414C330.107 85.4534 329.783 85.2734 329.459 85.2014C329.135 85.0934 328.739 85.0394 328.271 85.0394C326.183 85.0394 324.563 86.0114 323.411 87.9554C322.259 89.8994 321.683 92.6174 321.683 96.1094C321.683 99.8534 322.367 102.733 323.735 104.749C325.139 106.765 327.137 107.773 329.729 107.773C331.205 107.773 332.681 107.503 334.157 106.963C335.633 106.387 337.037 105.577 338.369 104.533L339.773 106.585ZM343.091 85.4174V82.9874C345.251 82.3754 347.051 81.4574 348.491 80.2334C349.967 78.9734 351.065 77.5334 351.785 75.9134H354.539V82.4474H360.749V85.4174H354.539V101.995C354.539 104.227 354.773 105.811 355.241 106.747C355.745 107.683 356.573 108.151 357.725 108.151C359.129 108.151 360.191 107.503 360.911 106.207L362.045 107.773C361.037 110.329 358.661 111.607 354.917 111.607C352.433 111.607 350.489 111.031 349.085 109.879C347.717 108.727 347.033 107.107 347.033 105.019V85.4174H343.091ZM376.238 102.211C376.238 103.651 376.292 104.803 376.4 105.667C376.508 106.531 376.724 107.197 377.048 107.665C377.372 108.133 377.84 108.457 378.452 108.637C379.064 108.781 379.892 108.871 380.936 108.907V111.067H363.926V108.907C364.934 108.871 365.744 108.763 366.356 108.583C367.004 108.367 367.49 108.043 367.814 107.611C368.174 107.143 368.408 106.513 368.516 105.721C368.66 104.893 368.732 103.849 368.732 102.589V95.9474C368.732 93.8594 368.696 92.1494 368.624 90.8174C368.552 89.4494 368.462 88.5134 368.354 88.0094C368.174 87.1094 367.76 86.5154 367.112 86.2274C366.5 85.9394 365.366 85.7954 363.71 85.7954V83.9594L376.238 81.9074V102.211ZM368.3 70.4594C368.3 69.2714 368.696 68.2814 369.488 67.4894C370.316 66.6614 371.306 66.2474 372.458 66.2474C373.646 66.2474 374.636 66.6614 375.428 67.4894C376.256 68.2814 376.67 69.2714 376.67 70.4594C376.67 71.6114 376.256 72.6014 375.428 73.4294C374.636 74.2214 373.646 74.6174 372.458 74.6174C371.306 74.6174 370.316 74.2214 369.488 73.4294C368.696 72.6014 368.3 71.6114 368.3 70.4594ZM399.584 81.9074C401.744 81.9074 403.778 82.2854 405.686 83.0414C407.63 83.7614 409.322 84.7694 410.762 86.0654C412.238 87.3614 413.39 88.9094 414.218 90.7094C415.082 92.4734 415.514 94.4174 415.514 96.5414C415.514 98.7374 415.082 100.753 414.218 102.589C413.39 104.425 412.238 106.009 410.762 107.341C409.322 108.673 407.63 109.717 405.686 110.473C403.778 111.229 401.744 111.607 399.584 111.607C397.46 111.607 395.444 111.247 393.536 110.527C391.628 109.771 389.954 108.727 388.514 107.395C387.074 106.063 385.94 104.479 385.112 102.643C384.284 100.771 383.87 98.7374 383.87 96.5414C383.87 94.4174 384.284 92.4554 385.112 90.6554C385.94 88.8554 387.074 87.3074 388.514 86.0114C389.954 84.7154 391.628 83.7074 393.536 82.9874C395.444 82.2674 397.46 81.9074 399.584 81.9074ZM399.584 85.0394C398.504 85.0394 397.514 85.3274 396.614 85.9034C395.714 86.4434 394.94 87.2174 394.292 88.2254C393.68 89.2334 393.194 90.4574 392.834 91.8974C392.51 93.3014 392.348 94.8674 392.348 96.5954C392.348 98.3954 392.51 100.015 392.834 101.455C393.194 102.895 393.68 104.119 394.292 105.127C394.94 106.135 395.696 106.927 396.56 107.503C397.46 108.043 398.468 108.313 399.584 108.313C400.7 108.313 401.708 108.043 402.608 107.503C403.544 106.927 404.336 106.135 404.984 105.127C405.632 104.083 406.136 102.841 406.496 101.401C406.856 99.9614 407.036 98.3594 407.036 96.5954C407.036 94.8674 406.856 93.3014 406.496 91.8974C406.136 90.4934 405.632 89.2874 404.984 88.2794C404.336 87.2354 403.544 86.4434 402.608 85.9034C401.708 85.3274 400.7 85.0394 399.584 85.0394ZM431.399 102.265C431.399 103.741 431.435 104.911 431.507 105.775C431.615 106.603 431.813 107.251 432.101 107.719C432.425 108.151 432.893 108.439 433.505 108.583C434.153 108.727 435.017 108.835 436.097 108.907V111.067H419.087V108.907C420.131 108.835 420.959 108.727 421.571 108.583C422.219 108.439 422.705 108.151 423.029 107.719C423.389 107.287 423.623 106.675 423.731 105.883C423.839 105.091 423.893 104.011 423.893 102.643V95.8934C423.893 93.7694 423.857 92.0594 423.785 90.7634C423.713 89.4314 423.623 88.5314 423.515 88.0634C423.407 87.5954 423.263 87.2174 423.083 86.9294C422.903 86.6054 422.633 86.3714 422.273 86.2274C421.913 86.0474 421.463 85.9394 420.923 85.9034C420.383 85.8314 419.699 85.7954 418.871 85.7954V83.9594L429.293 81.9074L429.995 86.6594H430.211C431.399 85.1474 432.803 83.9774 434.423 83.1494C436.043 82.3214 437.825 81.9074 439.769 81.9074C442.073 81.9074 443.927 82.2314 445.331 82.8794C446.771 83.4914 448.049 84.5354 449.165 86.0114C449.777 86.8394 450.317 87.9194 450.785 89.2514C451.253 90.5474 451.487 92.3474 451.487 94.6514V102.265C451.487 103.741 451.523 104.911 451.595 105.775C451.703 106.603 451.901 107.251 452.189 107.719C452.513 108.151 452.981 108.439 453.593 108.583C454.205 108.727 455.033 108.835 456.077 108.907V111.067H439.175V108.907C440.255 108.871 441.101 108.781 441.713 108.637C442.361 108.457 442.847 108.151 443.171 107.719C443.495 107.287 443.711 106.675 443.819 105.883C443.927 105.055 443.981 103.975 443.981 102.643V95.2994C443.981 93.4634 443.873 91.9154 443.657 90.6554C443.441 89.3954 443.081 88.3874 442.577 87.6314C442.109 86.8394 441.479 86.2814 440.687 85.9574C439.895 85.5974 438.905 85.4174 437.717 85.4174C436.565 85.4174 435.575 85.7414 434.747 86.3894C433.919 87.0374 433.199 87.9374 432.587 89.0894C432.263 89.7374 431.975 90.5834 431.723 91.6274C431.507 92.6354 431.399 93.6974 431.399 94.8134V102.265ZM509.353 105.073C510.253 106.297 511.297 107.251 512.485 107.935C513.709 108.583 515.059 108.907 516.535 108.907V111.067H496.393V108.907C497.293 108.907 498.013 108.871 498.553 108.799C499.129 108.727 499.561 108.637 499.849 108.529C500.173 108.421 500.371 108.277 500.443 108.097C500.551 107.917 500.605 107.719 500.605 107.503C500.605 107.287 500.551 107.071 500.443 106.855C500.371 106.603 500.227 106.297 500.011 105.937C499.795 105.577 499.507 105.127 499.147 104.587C498.787 104.047 498.319 103.381 497.743 102.589L491.965 94.3814L488.239 98.9714C487.447 99.9434 486.673 100.843 485.917 101.671C485.197 102.499 484.531 103.273 483.919 103.993C483.343 104.713 482.875 105.361 482.515 105.937C482.155 106.477 481.975 106.963 481.975 107.395C481.975 107.971 482.335 108.367 483.055 108.583C483.775 108.799 484.963 108.907 486.619 108.907V111.067H470.041V108.907C471.013 108.907 471.841 108.871 472.525 108.799C473.245 108.691 473.875 108.511 474.415 108.259C474.991 108.007 475.513 107.665 475.981 107.233C476.485 106.765 477.043 106.171 477.655 105.451L489.481 91.0334L476.899 74.7254C475.927 73.4654 474.955 72.6374 473.983 72.2414C473.011 71.8454 471.913 71.6474 470.689 71.6474V69.4874H490.993V71.6474C489.697 71.6474 488.761 71.8094 488.185 72.1334C487.609 72.4574 487.321 72.9434 487.321 73.5914C487.321 74.5634 487.861 75.7694 488.941 77.2094L494.503 84.8774L501.469 76.5614C502.009 75.9134 502.387 75.3374 502.603 74.8334C502.855 74.2934 502.981 73.7894 502.981 73.3214C502.981 73.0694 502.927 72.8354 502.819 72.6194C502.711 72.4034 502.495 72.2234 502.171 72.0794C501.883 71.9354 501.451 71.8274 500.875 71.7554C500.299 71.6834 499.543 71.6474 498.607 71.6474V69.4874H514.699V71.6474C513.187 71.6474 512.017 71.7554 511.189 71.9714C510.361 72.1874 509.677 72.6194 509.137 73.2674L497.095 88.1714L509.353 105.073ZM567.39 69.4874H570.036L568.956 83.1494H566.796C566.04 79.8374 564.564 77.2274 562.368 75.3194C560.208 73.4114 557.58 72.4574 554.484 72.4574C552.36 72.4574 550.47 72.8894 548.814 73.7534C547.158 74.5814 545.754 75.7874 544.602 77.3714C543.486 78.9194 542.622 80.8274 542.01 83.0954C541.434 85.3274 541.146 87.8474 541.146 90.6554C541.146 96.2354 542.28 100.537 544.548 103.561C546.852 106.549 550.236 108.043 554.7 108.043C558.3 108.043 561.27 107.071 563.61 105.127C565.986 103.183 567.678 100.285 568.686 96.4334H571.062V111.067H568.524L567.768 106.801C563.808 110.005 559.002 111.607 553.35 111.607C550.074 111.607 547.104 111.121 544.44 110.149C541.776 109.177 539.508 107.809 537.636 106.045C535.764 104.245 534.306 102.067 533.262 99.5114C532.254 96.9554 531.75 94.1114 531.75 90.9794C531.75 87.7034 532.29 84.7154 533.37 82.0154C534.45 79.3154 535.962 76.9934 537.906 75.0494C539.886 73.1054 542.226 71.6114 544.926 70.5674C547.662 69.4874 550.686 68.9474 553.998 68.9474C556.194 68.9474 558.246 69.2534 560.154 69.8654C562.062 70.4774 564.132 71.4674 566.364 72.8354L567.39 69.4874ZM611.197 79.9094C611.197 82.8974 610.333 85.3994 608.605 87.4154C606.877 89.4314 604.123 90.7814 600.343 91.4654L612.871 105.829C613.735 106.837 614.761 107.611 615.949 108.151C617.137 108.655 618.343 108.907 619.567 108.907V111.067H606.769L593.377 94.6514C592.477 93.5714 591.685 92.8514 591.001 92.4914C590.353 92.0954 589.741 91.8974 589.165 91.8974V102.481C589.165 103.813 589.255 104.911 589.435 105.775C589.615 106.603 589.975 107.251 590.515 107.719C591.055 108.187 591.829 108.511 592.837 108.691C593.881 108.835 595.267 108.907 596.995 108.907V111.067H575.557V108.907C576.745 108.907 577.699 108.835 578.419 108.691C579.175 108.511 579.751 108.205 580.147 107.773C580.579 107.305 580.867 106.675 581.011 105.883C581.155 105.055 581.227 104.011 581.227 102.751V77.8034C581.227 76.5434 581.173 75.5354 581.065 74.7794C580.957 73.9874 580.723 73.3754 580.363 72.9434C580.003 72.4754 579.481 72.1694 578.797 72.0254C578.149 71.8454 577.267 71.7194 576.151 71.6474V69.4874H594.835C600.055 69.4874 604.087 70.4054 606.931 72.2414C609.775 74.0774 611.197 76.6334 611.197 79.9094ZM589.165 88.6574H592.675C596.059 88.6574 598.579 88.0094 600.235 86.7134C601.927 85.3814 602.773 83.2034 602.773 80.1794C602.773 77.8754 602.071 76.0214 600.667 74.6174C599.263 73.2134 597.319 72.5114 594.835 72.5114H590.137C589.489 72.5114 589.165 72.8174 589.165 73.4294V88.6574ZM644.754 98.4854H629.472C627.78 102.301 626.934 104.947 626.934 106.423C626.934 107.503 627.33 108.187 628.122 108.475C628.95 108.763 630.174 108.907 631.794 108.907V111.067H616.998V108.907C617.862 108.799 618.6 108.655 619.212 108.475C619.86 108.295 620.418 108.043 620.886 107.719C621.39 107.395 621.822 106.981 622.182 106.477C622.542 105.937 622.884 105.289 623.208 104.533L637.41 68.9474H641.406L654.312 100.483C655.068 102.319 655.698 103.759 656.202 104.803C656.742 105.847 657.3 106.657 657.876 107.233C658.488 107.773 659.172 108.151 659.928 108.367C660.72 108.583 661.728 108.745 662.952 108.853V111.067H642.54V108.853C644.268 108.781 645.51 108.601 646.266 108.313C647.022 108.025 647.4 107.449 647.4 106.585C647.4 106.081 647.274 105.433 647.022 104.641C646.77 103.849 646.428 102.877 645.996 101.725L644.754 98.4854ZM630.714 95.2454H643.566L637.356 78.8834H637.14L630.714 95.2454ZM676.862 102.373C676.862 103.741 676.952 104.857 677.132 105.721C677.312 106.549 677.672 107.197 678.212 107.665C678.788 108.097 679.58 108.403 680.588 108.583C681.632 108.763 683.018 108.871 684.746 108.907V111.067H663.254V108.907C664.442 108.871 665.414 108.763 666.17 108.583C666.926 108.403 667.502 108.097 667.898 107.665C668.294 107.233 668.564 106.621 668.708 105.829C668.852 105.037 668.924 104.011 668.924 102.751V77.8034C668.924 76.5434 668.852 75.5354 668.708 74.7794C668.6 73.9874 668.366 73.3754 668.006 72.9434C667.646 72.4754 667.124 72.1694 666.44 72.0254C665.792 71.8454 664.928 71.7194 663.848 71.6474V69.4874H696.896L697.544 80.8814H695.276C695.06 79.3334 694.736 78.0374 694.304 76.9934C693.908 75.9134 693.332 75.0494 692.576 74.4014C691.82 73.7174 690.848 73.2314 689.66 72.9434C688.472 72.6554 687.014 72.5114 685.286 72.5114H677.834C677.186 72.5114 676.862 72.8174 676.862 73.4294V89.0354C679.058 89.0354 680.84 88.9454 682.208 88.7654C683.612 88.5854 684.728 88.2434 685.556 87.7394C686.384 87.1994 686.978 86.4794 687.338 85.5794C687.698 84.6794 687.95 83.4914 688.094 82.0154H690.092V98.9174H688.094C687.878 97.4054 687.572 96.1994 687.176 95.2994C686.78 94.3634 686.168 93.6614 685.34 93.1934C684.548 92.6894 683.468 92.3474 682.1 92.1674C680.732 91.9874 678.986 91.8974 676.862 91.8974V102.373ZM742.605 81.3674H740.283C740.175 79.6034 739.905 78.1454 739.473 76.9934C739.077 75.8054 738.501 74.8694 737.745 74.1854C736.989 73.4654 736.071 72.9794 734.991 72.7274C733.911 72.4394 732.651 72.2954 731.211 72.2954C729.807 72.2954 728.673 72.3314 727.809 72.4034C726.981 72.4394 726.333 72.5294 725.865 72.6734C725.433 72.7814 725.145 72.9434 725.001 73.1594C724.857 73.3754 724.785 73.6454 724.785 73.9694V102.265C724.785 103.417 724.857 104.407 725.001 105.235C725.181 106.063 725.523 106.747 726.027 107.287C726.531 107.791 727.269 108.187 728.241 108.475C729.213 108.727 730.491 108.871 732.075 108.907V111.067H709.449V108.907C711.069 108.871 712.365 108.727 713.337 108.475C714.309 108.187 715.047 107.791 715.551 107.287C716.091 106.747 716.433 106.063 716.577 105.235C716.757 104.407 716.847 103.417 716.847 102.265V73.9694C716.847 73.6454 716.775 73.3754 716.631 73.1594C716.523 72.9434 716.271 72.7814 715.875 72.6734C715.479 72.5294 714.903 72.4394 714.147 72.4034C713.427 72.3314 712.473 72.2954 711.285 72.2954C709.989 72.2954 708.747 72.3674 707.559 72.5114C706.371 72.6194 705.327 72.9794 704.427 73.5914C703.527 74.1674 702.789 75.0674 702.213 76.2914C701.673 77.4794 701.385 79.1714 701.349 81.3674H699.243L699.783 69.4874H742.065L742.605 81.3674Z" fill="#18AB8E"/>
</g>
<defs>
<filter id="filter0_d_609_128217" x="101.579" y="100.394" width="588.023" height="325.206" filterUnits="userSpaceOnUse" color-interpolation-filters="sRGB">
<feFlood flood-opacity="0" result="BackgroundImageFix"/>
<feColorMatrix in="SourceAlpha" type="matrix" values="0 0 0 0 0 0 0 0 0 0 0 0 0 0 0 0 0 0 127 0" result="hardAlpha"/>
<feOffset dx="11" dy="13"/>
<feComposite in2="hardAlpha" operator="out"/>
<feColorMatrix type="matrix" values="0 0 0 0 0 0 0 0 0 0 0 0 0 0 0 0 0 0 0.25 0"/>
<feBlend mode="normal" in2="BackgroundImageFix" result="effect1_dropShadow_609_128217"/>
<feBlend mode="normal" in="SourceGraphic" in2="effect1_dropShadow_609_128217" result="shape"/>
</filter>
<filter id="filter1_d_609_128217" x="158.425" y="227.04" width="474.694" height="125.618" filterUnits="userSpaceOnUse" color-interpolation-filters="sRGB">
<feFlood flood-opacity="0" result="BackgroundImageFix"/>
<feColorMatrix in="SourceAlpha" type="matrix" values="0 0 0 0 0 0 0 0 0 0 0 0 0 0 0 0 0 0 127 0" result="hardAlpha"/>
<feOffset dx="2.12267" dy="3.53778"/>
<feComposite in2="hardAlpha" operator="out"/>
<feColorMatrix type="matrix" values="0 0 0 0 0 0 0 0 0 0 0 0 0 0 0 0 0 0 0.25 0"/>
<feBlend mode="normal" in2="BackgroundImageFix" result="effect1_dropShadow_609_128217"/>
<feBlend mode="normal" in="SourceGraphic" in2="effect1_dropShadow_609_128217" result="shape"/>
</filter>
<filter id="filter2_d_609_128217" x="3.42432" y="18.4657" width="807.3" height="158.708" filterUnits="userSpaceOnUse" color-interpolation-filters="sRGB">
<feFlood flood-opacity="0" result="BackgroundImageFix"/>
<feColorMatrix in="SourceAlpha" type="matrix" values="0 0 0 0 0 0 0 0 0 0 0 0 0 0 0 0 0 0 127 0" result="hardAlpha"/>
<feOffset dx="11" dy="13"/>
<feComposite in2="hardAlpha" operator="out"/>
<feColorMatrix type="matrix" values="0 0 0 0 0 0 0 0 0 0 0 0 0 0 0 0 0 0 0.25 0"/>
<feBlend mode="normal" in2="BackgroundImageFix" result="effect1_dropShadow_609_128217"/>
<feBlend mode="normal" in="SourceGraphic" in2="effect1_dropShadow_609_128217" result="shape"/>
</filter>
<filter id="filter3_d_609_128217" x="3.42432" y="18.4657" width="798.423" height="149.245" filterUnits="userSpaceOnUse" color-interpolation-filters="sRGB">
<feFlood flood-opacity="0" result="BackgroundImageFix"/>
<feColorMatrix in="SourceAlpha" type="matrix" values="0 0 0 0 0 0 0 0 0 0 0 0 0 0 0 0 0 0 127 0" result="hardAlpha"/>
<feOffset dx="2.12267" dy="3.53778"/>
<feComposite in2="hardAlpha" operator="out"/>
<feColorMatrix type="matrix" values="0 0 0 0 0 0 0 0 0 0 0 0 0 0 0 0 0 0 0.25 0"/>
<feBlend mode="normal" in2="BackgroundImageFix" result="effect1_dropShadow_609_128217"/>
<feBlend mode="normal" in="SourceGraphic" in2="effect1_dropShadow_609_128217" result="shape"/>
</filter>
</defs>
</svg>
