<svg width="2227" height="446" viewBox="0 0 2227 446" fill="none" xmlns="http://www.w3.org/2000/svg">
<g filter="url(#filter0_d_1085_20942)">
<path d="M35.0545 65.3031L253.94 31.7264L457.87 56.0455L686.804 37.4181L922.963 65.3031L1220.24 24.9999L1491.97 65.3031L1658.67 78.8122L1831.48 53.9757L1915.94 93.8176L1999.29 65.3031L2191.5 93.8176L2184.5 182.5L2216 236.11V329.764L2148.21 411H1999.29L1890.38 359.775L1745.91 411L1641.44 377.367H1547.53L1403.06 391.855L1318.04 349.426L1121.89 391.855L1034.65 359.775L900.736 391.855L714.032 377.367L538.997 391.855L327.844 377.367L143.362 399.616L32.2287 359.775L0 272.873L35.0545 65.3031Z" fill="white"/>
<path d="M1177.33 333.368C1177.33 338.21 1174.7 340.63 1169.44 340.63H1107.63C1102.37 340.63 1099.74 338.21 1099.74 333.368V104.962C1099.74 100.121 1102.37 97.7004 1107.63 97.7004H1213.02C1232.3 97.7004 1249.27 101.274 1263.92 108.42C1278.58 115.567 1289.85 125.423 1297.74 137.987C1305.75 150.551 1309.76 164.672 1309.76 180.348C1309.76 197.408 1305.94 212.451 1298.3 225.476C1290.79 238.502 1279.77 248.645 1265.24 255.907C1250.84 263.169 1233.74 266.8 1213.96 266.8H1177.33V333.368ZM1207.57 202.48C1211.95 202.48 1216.02 201.558 1219.78 199.714C1223.54 197.754 1226.48 195.16 1228.61 191.933C1230.86 188.59 1231.99 184.959 1231.99 181.04C1231.99 175.622 1229.61 171.127 1224.85 167.553C1220.22 163.98 1214.52 162.193 1207.76 162.193H1177.33V202.48H1207.57Z" fill="white"/>
<path d="M2153.14 352.026C2153.04 354.33 2152.27 356.088 2150.83 357.302C2149.4 358.516 2147.43 359.074 2144.93 358.978L1981.45 352.679C1976.2 352.476 1973.68 349.957 1973.9 345.12L1984.28 116.914C1984.5 112.077 1987.24 109.759 1992.49 109.962L2054.24 112.341C2059.5 112.544 2062.02 115.063 2061.8 119.9L2054.19 287.125L2148.03 290.741C2150.53 290.837 2152.44 291.545 2153.76 292.865C2155.08 294.185 2155.69 295.997 2155.58 298.3L2153.14 352.026Z" fill="white"/>
<path d="M1404.57 343.957L1429.63 140.649L1350.72 132.409L1354.29 103.387L1575.18 126.451L1571.6 155.473L1492.77 147.242L1467.71 350.55L1404.57 343.957Z" fill="white"/>
<path d="M1682.5 353.162L1681.01 323.987L1649.31 325.361L1647.82 296.185L1711.3 293.434L1712.79 322.609L1807.97 318.483L1803.49 230.878L1676.53 236.382L1675.04 207.206L1643.34 208.58L1640.35 150.151L1672.05 148.777L1670.55 119.601L1829.21 112.724L1830.7 141.899L1862.4 140.525L1863.89 169.701L1800.5 172.449L1799.01 143.273L1703.83 147.399L1706.82 205.828L1833.69 200.329L1835.19 229.504L1866.88 228.13L1871.37 315.735L1839.67 317.109L1841.16 346.285L1682.5 353.162Z" fill="white"/>
<path d="M217.26 350.183C191.871 352.8 168.04 349.573 145.765 340.503C123.477 331.317 105.133 317.782 90.7329 299.896C76.4435 281.883 67.9049 261.421 65.1171 238.51C62.3293 215.6 65.7522 194.021 75.386 173.773C85.1303 153.398 99.7805 136.577 119.337 123.31C138.893 110.043 161.366 102.101 186.754 99.4837C202.062 97.9057 217.006 98.5109 231.585 101.3C246.164 104.088 259.652 108.787 272.05 115.396C274.499 116.884 275.842 118.601 276.079 120.549C276.275 122.152 275.84 123.763 274.777 125.38L244.348 172.014C242.981 174.242 241.115 175.479 238.751 175.722C237.257 175.876 235.514 175.534 233.522 174.695C227.517 171.951 221.161 169.938 214.452 168.658C207.854 167.25 201.381 166.874 195.034 167.528C184.829 168.58 175.49 172.095 167.018 178.072C158.671 184.036 152.289 191.653 147.872 200.924C143.58 210.181 142.075 220.08 143.358 230.618C144.654 241.272 148.577 250.727 155.126 258.983C161.675 267.239 169.737 273.425 179.311 277.542C188.885 281.658 198.775 283.19 208.98 282.138C216.572 281.356 222.953 279.944 228.123 277.903C233.28 275.748 238.953 272.147 245.144 267.101C246.747 265.776 248.482 265.017 250.349 264.825C252.589 264.594 254.644 265.426 256.512 267.321L296.691 307.023C298.393 308.588 299.342 310.172 299.537 311.775C299.746 313.494 298.939 315.143 297.115 316.723C286.516 325.935 274.388 333.448 260.73 339.264C247.182 344.952 232.692 348.592 217.26 350.183Z" fill="white"/>
<path d="M929.75 302.457C928.992 303.626 928.122 304.459 927.14 304.955C926.24 305.453 925.064 305.685 923.614 305.65L876.119 304.523C874.749 304.491 873.709 304.206 872.998 303.67C872.288 303.133 871.945 302.42 871.97 301.53C871.991 300.789 872.338 299.907 873.012 298.884L925.111 226.321L879.979 153.788C879.363 152.734 879.066 151.837 879.087 151.095C879.112 150.205 879.494 149.509 880.234 149.007C881.054 148.507 882.189 148.275 883.639 148.309L931.618 149.448C934.277 149.511 936.179 150.669 937.325 152.923L957.015 192.571L978.053 153.889C979.243 151.691 981.248 150.626 984.068 150.693L1032.41 151.84C1033.78 151.872 1034.82 152.194 1035.53 152.804C1036.32 153.343 1036.7 154.057 1036.68 154.947C1036.65 155.837 1036.34 156.683 1035.76 157.485L988.679 227.83L1034.83 302.725C1035.45 303.63 1035.75 304.564 1035.72 305.528C1035.7 306.344 1035.28 307.002 1034.46 307.502C1033.72 308.004 1032.66 308.239 1031.29 308.206L983.678 307.076C982.227 307.042 981.026 306.753 980.074 306.211C979.122 305.669 978.299 304.796 977.608 303.593L954.999 260.201L929.75 302.457Z" fill="white"/>
<path d="M756.096 228.423L753.829 169.966L722.031 171.01L720.899 141.821L689.187 142.863L690.319 172.052L658.606 173.094L660.873 231.551L756.096 228.423ZM601.894 350.473L595.096 175.181L626.809 174.139L625.677 144.95L657.474 143.905L656.343 114.716L751.565 111.587L752.697 140.777L784.409 139.735L785.541 168.924L817.253 167.882L824.051 343.175L760.626 345.259L757.227 257.612L662.005 260.741L665.404 348.387L601.894 350.473Z" fill="white"/>
<path d="M340.115 327.249L342.144 298.1L405.565 301.842L417.754 126.797L354.333 123.055L356.363 93.9071L546.539 105.126L544.509 134.274L481.089 130.533L468.9 305.578L532.32 309.32L530.29 338.468L340.115 327.249Z" fill="white"/>
</g>
<path d="M192.146 348.336C169.564 350.865 148.367 347.747 128.555 338.981C108.731 330.106 92.4151 317.026 79.6073 299.742C66.8977 282.336 59.3031 262.563 56.8235 240.424C54.3439 218.285 57.3885 197.433 65.9571 177.867C74.6241 158.179 87.6546 141.924 105.049 129.104C122.443 116.284 142.431 108.609 165.013 106.08C178.628 104.555 191.919 105.14 204.887 107.834C217.854 110.529 229.851 115.07 240.878 121.456C243.057 122.894 244.251 124.553 244.462 126.435C244.635 127.985 244.249 129.541 243.304 131.104L216.239 176.167C215.023 178.32 213.363 179.515 211.26 179.751C209.932 179.899 208.382 179.569 206.61 178.758C201.269 176.106 195.615 174.161 189.648 172.924C183.779 171.564 178.022 171.2 172.377 171.832C163.3 172.849 154.994 176.245 147.459 182.021C140.034 187.784 134.358 195.145 130.429 204.103C126.612 213.049 125.273 222.614 126.414 232.798C127.567 243.093 131.056 252.229 136.881 260.207C142.706 268.185 149.877 274.163 158.392 278.141C166.908 282.119 175.704 283.599 184.781 282.583C191.534 281.826 197.209 280.462 201.808 278.49C206.394 276.407 211.44 272.928 216.947 268.052C218.373 266.771 219.916 266.038 221.576 265.852C223.569 265.629 225.396 266.433 227.058 268.265L262.795 306.63C264.309 308.141 265.153 309.672 265.326 311.222C265.512 312.882 264.794 314.476 263.172 316.002C253.745 324.904 242.958 332.165 230.809 337.784C218.76 343.281 205.872 346.798 192.146 348.336Z" fill="#4E8564"/>
<path d="M671.408 230.676L669.392 174.188L641.11 175.198L640.103 146.991L611.897 147.998L612.904 176.204L584.697 177.211L586.713 233.699L671.408 230.676ZM534.255 348.616L528.209 179.227L556.415 178.22L555.408 150.014L583.691 149.005L582.684 120.799L667.378 117.776L668.385 145.982L696.591 144.975L697.598 173.181L725.804 172.175L731.85 341.564L675.438 343.577L672.415 258.883L587.72 261.906L590.743 346.6L534.255 348.616Z" fill="#E92634"/>
<path d="M301.418 326.174L303.223 298.007L359.632 301.623L370.473 132.473L314.065 128.857L315.87 100.691L485.02 111.532L483.214 139.699L426.806 136.083L415.964 305.233L472.373 308.849L470.568 337.015L301.418 326.174Z" fill="#FEA342"/>
<path d="M837.481 298.774C836.643 299.789 835.757 300.468 834.822 300.81C833.957 301.165 832.89 301.229 831.62 301.001L790.024 293.55C788.824 293.335 787.951 292.923 787.405 292.316C786.858 291.708 786.661 290.981 786.812 290.134C786.939 289.428 787.373 288.632 788.114 287.746L844.504 225.422L815.399 150.077C815.011 148.988 814.881 148.091 815.007 147.385C815.159 146.538 815.597 145.925 816.32 145.545C817.114 145.177 818.146 145.107 819.416 145.335L861.436 152.862C863.764 153.28 865.268 154.641 865.947 156.948L877.478 197.466L901.616 163.338C902.983 161.398 904.901 160.649 907.371 161.092L949.708 168.676C950.907 168.891 951.774 169.338 952.308 170.016C952.925 170.636 953.158 171.37 953.006 172.217C952.854 173.063 952.462 173.831 951.829 174.518L900.177 235.396L929.836 313.135C930.249 314.083 930.373 315.015 930.209 315.933C930.07 316.709 929.604 317.281 928.809 317.648C928.086 318.028 927.124 318.111 925.925 317.896L884.223 310.425C882.953 310.198 881.939 309.761 881.181 309.116C880.422 308.47 879.827 307.526 879.394 306.283L865.843 261.798L837.481 298.774Z" fill="#9C81C5"/>
<path d="M1122.19 338.344C1099.47 338.344 1078.75 332.886 1060.04 321.97C1041.33 310.943 1026.57 296.129 1015.76 277.527C1005.07 258.814 999.723 238.319 999.723 216.041C999.723 193.764 1005.07 173.38 1015.76 154.89C1026.57 136.288 1041.33 121.585 1060.04 110.78C1078.75 99.9759 1099.47 94.5737 1122.19 94.5737C1135.89 94.5737 1149.04 96.6343 1161.62 100.756C1174.21 104.877 1185.63 110.725 1195.88 118.299C1197.88 119.97 1198.88 121.752 1198.88 123.646C1198.88 125.205 1198.33 126.709 1197.21 128.157L1165.3 169.927C1163.85 171.932 1162.07 172.934 1159.95 172.934C1158.62 172.934 1157.11 172.433 1155.44 171.431C1150.43 168.201 1145.03 165.639 1139.24 163.745C1133.55 161.74 1127.87 160.738 1122.19 160.738C1113.06 160.738 1104.43 163.188 1096.3 168.089C1088.28 172.99 1081.82 179.673 1076.91 188.139C1072.12 196.604 1069.73 205.961 1069.73 216.208C1069.73 226.567 1072.18 236.035 1077.08 244.612C1081.98 253.189 1088.44 259.928 1096.46 264.829C1104.48 269.73 1113.06 272.18 1122.19 272.18C1128.99 272.18 1134.78 271.456 1139.57 270.008C1144.36 268.449 1149.76 265.553 1155.78 261.32C1157.34 260.206 1158.95 259.649 1160.62 259.649C1162.63 259.649 1164.35 260.652 1165.8 262.657L1197.05 304.761C1198.38 306.432 1199.05 308.047 1199.05 309.606C1199.05 311.277 1198.16 312.781 1196.38 314.118C1186.02 321.915 1174.49 327.93 1161.79 332.162C1149.2 336.284 1136.01 338.344 1122.19 338.344Z" fill="#50A1DC"/>
<path d="M2089.68 340.939C2089.49 345.613 2087.05 347.852 2082.38 347.657L2027.46 345.357C2022.78 345.162 2020.54 342.727 2020.74 338.053L2027.58 174.624L1975.16 172.43C1972.94 172.336 1971.24 171.652 1970.06 170.377C1968.89 169.101 1968.35 167.351 1968.44 165.125L1970.54 115.045C1970.63 112.819 1971.32 111.119 1972.59 109.946C1973.87 108.774 1975.62 108.234 1977.85 108.327L2151.79 115.609C2154.02 115.702 2155.72 116.386 2156.89 117.662C2158.06 118.937 2158.6 120.688 2158.51 122.914L2156.41 172.994C2156.32 175.22 2155.63 176.919 2154.36 178.092C2153.08 179.265 2151.33 179.805 2149.11 179.712L2096.52 177.51L2089.68 340.939Z" fill="#9C81C5"/>
<path d="M1622.89 225.555L1617.87 169.255L1589.68 171.769L1587.17 143.656L1559.06 146.164L1561.57 174.277L1533.46 176.784L1538.48 233.085L1622.89 225.555ZM1492.21 350.633L1477.15 181.807L1505.27 179.299L1502.76 151.186L1530.95 148.672L1528.44 120.559L1612.85 113.029L1615.36 141.142L1643.47 138.634L1645.98 166.747L1674.09 164.239L1689.15 333.066L1632.93 338.081L1625.4 253.668L1540.99 261.198L1548.52 345.611L1492.21 350.633Z" fill="#4E8564"/>
<path d="M1737.29 359.643L1726.66 133.948L1924.17 124.646L1925.49 152.839L1784.45 159.482L1787.11 215.943L1871.77 211.957L1873.1 240.149L1788.44 244.136L1793.76 356.984L1737.29 359.643Z" fill="#50A1DC"/>
<path d="M1381.37 192.806L1389.28 136.837L1305.36 124.989L1297.46 180.958L1381.37 192.806ZM1221.75 312.867L1253.34 89.14L1421.17 112.836L1417.22 140.783L1445.17 144.729L1437.27 200.698L1409.32 196.752L1405.38 224.699L1433.32 228.645L1417.53 340.508L1361.64 332.617L1377.43 220.754L1293.51 208.906L1277.72 320.769L1221.75 312.867Z" fill="#E92634"/>
<defs>
<filter id="filter0_d_1085_20942" x="0" y="24.9999" width="2227" height="397" filterUnits="userSpaceOnUse" color-interpolation-filters="sRGB">
<feFlood flood-opacity="0" result="BackgroundImageFix"/>
<feColorMatrix in="SourceAlpha" type="matrix" values="0 0 0 0 0 0 0 0 0 0 0 0 0 0 0 0 0 0 127 0" result="hardAlpha"/>
<feOffset dx="11" dy="11"/>
<feComposite in2="hardAlpha" operator="out"/>
<feColorMatrix type="matrix" values="0 0 0 0 0 0 0 0 0 0 0 0 0 0 0 0 0 0 0.25 0"/>
<feBlend mode="normal" in2="BackgroundImageFix" result="effect1_dropShadow_1085_20942"/>
<feBlend mode="normal" in="SourceGraphic" in2="effect1_dropShadow_1085_20942" result="shape"/>
</filter>
</defs>
</svg>
