<svg width="1314" height="920" viewBox="0 0 1314 920" fill="none" xmlns="http://www.w3.org/2000/svg">
<g filter="url(#filter0_d_1085_20931)">
<path d="M279.179 59.0503L473.864 26.6045L655.248 50.1045L858.873 32.1045L1001 59.0503L1053 145V272.5L1001 371.5L911.5 393.104H833.5L774.5 452L795 518L910.5 544L985.5 518H1035.75H1086L1163 532L1285 552.5L1301 621.5L1285 693L1252 722.5L1270 775L1228.5 883L1124 903L1022.5 860.5L910.5 893.5L747.5 860.5L592 893.5H419L279.179 860.5L123 893.5L21.6533 829.5V709L0 617L61.5 532H151.679H236L302 564L471.5 544L514.5 452L473.864 393.104H302L236 298.5L222 189.5L279.179 59.0503Z" fill="white"/>
</g>
<path d="M202.693 820.344C179.971 820.344 159.253 814.886 140.539 803.97C121.826 792.943 107.068 778.129 96.2631 759.527C85.57 740.814 80.2234 720.319 80.2234 698.041C80.2234 675.764 85.57 655.38 96.2631 636.89C107.068 618.288 121.826 603.585 140.539 592.781C159.253 581.976 179.971 576.574 202.693 576.574C216.394 576.574 229.538 578.634 242.124 582.756C254.711 586.877 266.128 592.725 276.376 600.299C278.381 601.97 279.383 603.752 279.383 605.646C279.383 607.205 278.827 608.709 277.713 610.157L245.8 651.927C244.352 653.932 242.57 654.935 240.454 654.935C239.117 654.935 237.613 654.433 235.943 653.431C230.93 650.201 225.528 647.639 219.736 645.745C214.055 643.74 208.374 642.738 202.693 642.738C193.56 642.738 184.927 645.188 176.796 650.089C168.776 654.99 162.316 661.674 157.415 670.139C152.625 678.604 150.23 687.961 150.23 698.208C150.23 708.567 152.681 718.035 157.582 726.612C162.483 735.189 168.943 741.928 176.963 746.829C184.983 751.73 193.56 754.18 202.693 754.18C209.488 754.18 215.28 753.456 220.07 752.008C224.859 750.449 230.262 747.553 236.277 743.32C237.836 742.206 239.451 741.649 241.122 741.649C243.127 741.649 244.853 742.652 246.301 744.657L277.546 786.761C278.882 788.432 279.551 790.047 279.551 791.606C279.551 793.277 278.659 794.781 276.877 796.118C266.518 803.915 254.99 809.93 242.292 814.162C229.705 818.284 216.505 820.344 202.693 820.344Z" fill="#50A1DC"/>
<path d="M1153.67 826.274C1153.48 830.948 1151.04 833.187 1146.37 832.991L1091.45 830.692C1086.77 830.496 1084.54 828.062 1084.73 823.387L1091.57 659.959L1039.16 657.764C1036.93 657.671 1035.23 656.987 1034.06 655.711C1032.88 654.436 1032.34 652.685 1032.44 650.46L1034.53 600.379C1034.63 598.153 1035.31 596.454 1036.59 595.281C1037.86 594.108 1039.61 593.568 1041.84 593.662L1215.78 600.943C1218.01 601.037 1219.71 601.721 1220.88 602.996C1222.06 604.272 1222.6 606.022 1222.5 608.248L1220.41 658.329C1220.31 660.554 1219.63 662.254 1218.35 663.427C1217.08 664.6 1215.33 665.139 1213.1 665.046L1160.52 662.845L1153.67 826.274Z" fill="#9C81C5"/>
<path d="M700.201 714.924L706.573 658.76L678.453 655.57L681.635 627.526L653.59 624.345L650.409 652.389L622.365 649.207L615.993 705.371L700.201 714.924ZM547.094 811.252L566.201 642.836L594.245 646.017L597.426 617.973L625.546 621.163L628.728 593.119L712.936 602.672L709.755 630.716L737.799 633.898L734.617 661.942L762.662 665.123L743.555 833.54L687.467 827.177L697.02 742.969L612.812 733.416L603.258 817.624L547.094 811.252Z" fill="#4E8564"/>
<path d="M818.294 833.643L807.665 607.948L1005.17 598.646L1006.49 626.839L865.454 633.482L868.113 689.943L952.768 685.957L954.096 714.15L869.441 718.136L874.755 830.984L818.294 833.643Z" fill="#50A1DC"/>
<path d="M458.266 676.483L456.275 619.993L371.579 622.978L373.57 679.467L458.266 676.483ZM322.054 822.568L314.096 596.762L483.488 590.793L484.482 618.999L512.689 618.005L514.679 674.495L486.473 675.489L487.467 703.695L515.673 702.701L519.652 815.604L463.239 817.592L459.26 704.689L374.564 707.674L378.543 820.577L322.054 822.568Z" fill="#E92634"/>
<path d="M441.239 334.336C418.658 336.865 397.461 333.747 377.649 324.982C357.825 316.106 341.509 303.026 328.701 285.742C315.991 268.336 308.397 248.563 305.917 226.424C303.438 204.285 306.482 183.433 315.051 163.867C323.718 144.179 336.748 127.924 354.142 115.104C371.537 102.284 391.525 94.609 414.106 92.0798C427.722 90.5549 441.013 91.1398 453.98 93.8345C466.948 96.5293 478.945 101.07 489.972 107.457C492.15 108.894 493.345 110.553 493.556 112.435C493.729 113.985 493.343 115.541 492.397 117.104L465.333 162.167C464.117 164.321 462.457 165.515 460.354 165.751C459.026 165.9 457.475 165.569 455.703 164.759C450.363 162.106 444.709 160.162 438.742 158.924C432.873 157.564 427.116 157.2 421.471 157.833C412.394 158.849 404.088 162.245 396.552 168.021C389.128 173.784 383.451 181.145 379.523 190.103C375.706 199.049 374.367 208.614 375.508 218.798C376.661 229.093 380.15 238.229 385.975 246.207C391.8 254.185 398.971 260.163 407.486 264.141C416.002 268.119 424.798 269.6 433.875 268.583C440.627 267.827 446.303 266.462 450.902 264.49C455.488 262.407 460.534 258.928 466.041 254.052C467.466 252.772 469.009 252.038 470.67 251.852C472.662 251.629 474.49 252.433 476.152 254.265L511.888 292.63C513.403 294.141 514.247 295.672 514.42 297.222C514.606 298.882 513.888 300.476 512.266 302.002C502.839 310.904 492.051 318.165 479.903 323.785C467.853 329.281 454.965 332.798 441.239 334.336Z" fill="#4E8564"/>
<path d="M631.957 523.112C631.282 524.242 630.509 525.047 629.636 525.526C628.835 526.008 627.789 526.232 626.499 526.199L584.255 525.109C583.037 525.078 582.112 524.803 581.48 524.285C580.848 523.766 580.543 523.077 580.565 522.217C580.583 521.501 580.892 520.648 581.491 519.66L627.831 449.541L587.688 379.45C587.141 378.432 586.877 377.565 586.895 376.848C586.917 375.988 587.257 375.316 587.915 374.831C588.645 374.348 589.654 374.123 590.944 374.156L633.618 375.257C635.983 375.318 637.675 376.437 638.695 378.614L656.207 416.928L674.919 379.548C675.978 377.425 677.761 376.395 680.269 376.46L723.266 377.568C724.484 377.6 725.408 377.91 726.038 378.5C726.742 379.02 727.083 379.71 727.061 380.57C727.039 381.43 726.766 382.248 726.245 383.023L684.371 450.999L725.422 523.371C725.973 524.246 726.237 525.149 726.213 526.081C726.192 526.869 725.817 527.505 725.088 527.988C724.43 528.473 723.492 528.7 722.274 528.668L679.922 527.576C678.632 527.543 677.564 527.264 676.717 526.74C675.87 526.217 675.139 525.373 674.523 524.21L654.415 482.28L631.957 523.112Z" fill="#9C81C5"/>
<path d="M920.502 216.677L918.486 160.188L890.204 161.198L889.197 132.991L860.991 133.998L861.997 162.204L833.791 163.211L835.807 219.699L920.502 216.677ZM783.349 334.617L777.303 165.227L805.509 164.221L804.502 136.014L832.784 135.005L831.778 106.799L916.472 103.776L917.479 131.982L945.685 130.975L946.692 159.181L974.898 158.175L980.944 327.564L924.532 329.577L921.509 244.883L836.814 247.906L839.837 332.6L783.349 334.617Z" fill="#E92634"/>
<path d="M550.512 312.174L552.317 284.007L608.725 287.623L619.567 118.473L563.158 114.857L564.964 86.691L734.114 97.5325L732.308 125.699L675.9 122.083L665.058 291.233L721.467 294.849L719.661 323.015L550.512 312.174Z" fill="#FEA342"/>
<defs>
<filter id="filter0_d_1085_20931" x="0" y="26.6045" width="1313.94" height="889.336" filterUnits="userSpaceOnUse" color-interpolation-filters="sRGB">
<feFlood flood-opacity="0" result="BackgroundImageFix"/>
<feColorMatrix in="SourceAlpha" type="matrix" values="0 0 0 0 0 0 0 0 0 0 0 0 0 0 0 0 0 0 127 0" result="hardAlpha"/>
<feOffset dx="12.9406" dy="12.9406"/>
<feComposite in2="hardAlpha" operator="out"/>
<feColorMatrix type="matrix" values="0 0 0 0 0 0 0 0 0 0 0 0 0 0 0 0 0 0 0.25 0"/>
<feBlend mode="normal" in2="BackgroundImageFix" result="effect1_dropShadow_1085_20931"/>
<feBlend mode="normal" in="SourceGraphic" in2="effect1_dropShadow_1085_20931" result="shape"/>
</filter>
</defs>
</svg>
