<svg width="375" height="1017" viewBox="0 0 375 1017" fill="none" xmlns="http://www.w3.org/2000/svg">
<path d="M963.842 21.0382C957.469 15.3148 947.627 9.65405 940.638 14.6876C937.485 16.9769 936.117 20.8657 933.348 23.5628C928.493 28.267 920.003 28.3768 913.864 25.3504C907.725 22.324 903.221 16.8985 899.401 11.3789C895.581 5.85932 890.977 -0.287515 884.187 0.0104188C877.898 0.292672 873.611 6.47087 872.76 12.3355C871.91 18.2 873.361 24.143 873.027 30.0546C873.025 33.1125 871.985 36.0899 870.058 38.5536C866.154 42.9912 858.848 43.0226 853.009 41.282C838.563 36.9855 824.651 24.3469 810.655 29.8351C799.745 34.1316 796.475 47.4289 797.993 58.4524C800.863 79.2136 819.68 99.5515 841.849 97.3405C854.961 96.0234 865.787 87.5087 877.882 82.5693C942.222 56.2728 985.227 136.73 964.175 186.062C948.795 222.128 903.938 244.833 863.402 236.93C853.643 235.033 844.151 231.583 834.193 231.081C803.382 229.513 782.663 254.257 759.826 276.038C755.923 280.428 752.219 284.725 748.749 288.724C681.439 366.61 572.392 413.777 466.998 429.677C366.175 444.888 263.349 431.575 161.425 425.71C59.5007 419.846 -47.0945 422.354 -138.142 465.9C-180.897 486.285 -219.715 515.576 -259.918 540.712V545.887H1014.72V81.4717C1000.8 59.2205 983.682 38.8837 963.842 21.0382Z" fill="#83B9D5"/>
<path d="M963.847 1001.6C957.476 1005.58 947.635 1009.51 940.646 1006.01C937.493 1004.42 936.126 1001.72 933.357 999.84C928.503 996.569 920.013 996.492 913.875 998.597C907.737 1000.7 903.233 1004.47 899.414 1008.31C895.594 1012.15 890.99 1016.43 884.202 1016.22C877.914 1016.02 873.627 1011.73 872.776 1007.65C871.926 1003.57 873.377 999.436 873.043 995.325C873.041 993.199 872.001 991.128 870.074 989.415C866.171 986.329 858.865 986.307 853.027 987.518C838.583 990.506 824.672 999.295 810.678 995.478C799.769 992.49 796.5 983.243 798.018 975.577C800.887 961.14 819.702 946.996 841.869 948.534C854.979 949.45 865.804 955.371 877.897 958.806C942.23 977.093 985.231 921.141 964.181 886.836C948.802 861.755 903.951 845.965 863.419 851.461C853.661 852.781 844.171 855.18 834.213 855.529C803.406 856.619 782.689 839.412 759.855 824.265C755.952 821.212 752.249 818.224 748.779 815.443C681.477 761.28 572.442 728.479 467.06 717.422C366.248 706.844 263.434 716.102 161.521 720.181C59.6086 724.259 -46.9746 722.514 -138.012 692.232C-180.762 678.056 -337.283 639.691 -259.774 549.045V545.447H1014.72V959.569C1000.8 975.043 983.685 989.186 963.847 1001.6Z" fill="#83B9D5"/>
<path d="M18.8705 485.971C176.233 446.25 342.491 487.535 505.461 488.223C584.109 488.614 672.086 474.535 718.671 415.088C737.365 391.246 747.246 362.492 761.399 336.023C775.553 309.553 796.283 283.725 826.344 274.714C869.54 261.761 924.052 285.54 958.369 257.74C974.209 244.897 980.234 224.215 981.152 204.551C982.821 167.099 974.576 129.303 949.439 101.41C968.868 124.438 976.278 160.216 964.862 186.904C949.473 222.885 904.591 245.538 864.032 237.653C854.268 235.76 844.771 232.319 834.806 231.818C803.978 230.254 783.248 254.94 760.398 276.67C756.492 281.05 752.787 285.336 749.315 289.325C681.967 367.029 572.859 414.086 467.406 429.949C366.526 445.124 263.643 431.842 161.661 425.991C59.6799 420.141 -46.9751 422.644 -138.074 466.087C-180.853 486.424 -219.693 515.647 -259.918 540.725L-258.012 546.768L-106.518 547.649C-102.979 544.52 -97.5041 539.749 -93.7431 536.86C-61.2792 512.08 -21.7051 496.202 18.8705 485.971Z" fill="#F9E4AB"/>
<path d="M18.9577 678.401C176.288 706.107 342.512 677.31 505.449 676.83C584.081 676.557 672.041 686.378 718.616 727.844C737.306 744.475 747.185 764.531 761.336 782.994C775.487 801.458 796.213 819.474 826.267 825.759C869.454 834.794 923.956 818.208 958.265 837.599C974.102 846.558 980.126 860.984 981.044 874.7C982.713 900.824 974.469 927.188 949.338 946.644C968.762 930.581 976.171 905.625 964.757 887.009C949.371 861.911 904.498 846.11 863.947 851.61C854.185 852.93 844.69 855.331 834.728 855.68C803.906 856.771 783.18 839.552 760.335 824.395C756.43 821.34 752.725 818.35 749.254 815.567C681.92 761.367 572.834 728.543 467.402 717.478C366.542 706.893 263.68 716.157 161.72 720.239C59.7588 724.32 -46.8745 722.574 -137.955 692.271C-180.725 678.085 -219.557 657.701 -259.774 640.209V546.768H-106.518C-102.98 548.95 -158.924 587.284 -93.633 642.904C-61.1757 660.189 -21.6096 671.265 18.9577 678.401Z" fill="#F9E4AB"/>
</svg>
