<svg width="1440" height="725" viewBox="0 0 1440 725" fill="none" xmlns="http://www.w3.org/2000/svg">
<mask id="mask0_1194_54927" style="mask-type:alpha" maskUnits="userSpaceOnUse" x="0" y="0" width="1440" height="725">
<rect width="1440" height="725" fill="#D9D9D9"/>
</mask>
<g mask="url(#mask0_1194_54927)">
<path d="M1517.31 762.486C1282.12 838.363 1027.58 828.06 798.241 733.379C932.946 736.744 1070 715.067 1190.34 654.465C1310.67 593.864 1413.14 491.928 1460.4 364.72L1517.31 762.486Z" fill="#4573A4"/>
<path d="M1221.45 657.583C1131.14 717.987 1022.43 745.196 914.391 755.366C880.452 758.536 845.795 760.275 813.84 772.145C781.885 784.015 752.405 808.515 744.222 841.902C736.947 871.558 745.271 908.455 722.696 928.681C690.918 957.169 633.936 920.137 599.994 945.963C573.858 965.841 579.9 1009.3 558.175 1033.89C533.325 1062.24 487.96 1052.12 452.421 1039.62C416.882 1027.12 371.72 1016.62 346.495 1044.6C334.831 1057.54 330.727 1076.13 318.905 1088.94C296.684 1113.06 257.188 1107.55 227.243 1093.88C197.299 1080.22 168.237 1060.35 135.525 1060.89C105.375 1061.35 78.6161 1079.52 55.4805 1098.99C32.3448 1118.47 10.3509 1140.65 -17.5549 1151.78C-45.4607 1162.9 -82.0925 1160.02 -100.121 1135.47C-108.781 1123.69 -111.989 1108.59 -112.263 1093.92C-113.06 1048.76 -87.4699 1006.22 -52.4833 978.227C-17.4967 950.235 25.8211 935.113 69.3398 925.029C121.616 912.933 175.204 907.426 228.885 908.631C306.186 910.279 384.136 925.99 460.302 913.003C485.411 908.717 510.768 900.918 530.076 884.252C549.384 867.586 561.538 840.907 554.722 816.081C547.906 791.255 518.634 773.263 495.395 783.668C484.91 788.346 477.177 797.669 467.458 803.702C457.738 809.736 443.616 812.063 435.793 803.476C420.295 786.237 445.913 747.017 423.963 740.041C419.317 739.044 414.493 739.415 410.064 741.11C376.339 751.043 343.207 769.935 308.347 764.679C297.224 762.986 285.18 757.594 281.496 746.842C279.685 740.196 280.126 733.139 282.749 726.797C295.4 690.028 334.997 670.388 372.561 661.587C475.444 637.487 582.461 666.413 687.87 675.468C975.201 700.168 1270.32 564.631 1439.86 329.883L1460.45 364.947C1449.95 474.143 1311.77 597.179 1221.45 657.583Z" fill="#83B9D5"/>
<path d="M1467.43 722.644C1464.91 715.272 1377.12 741.867 1265.59 753.045C1154.21 765.137 1062.66 757.345 1061.81 765.071C1061.4 768.44 1084 774.923 1121.47 779.269L1136.19 780.801C1141.3 781.288 1146.66 781.649 1152.17 781.912C1163.19 782.631 1174.95 782.949 1187.5 783.153C1241.62 783.507 1295.58 777.833 1348.4 766.232C1360.62 763.399 1372.06 760.75 1382.69 757.697C1388.01 756.202 1393.17 754.843 1398.06 753.284L1412.12 748.751C1447.82 736.876 1468.54 725.921 1467.43 722.644Z" fill="#83B9D5"/>
<path d="M1347.92 743.736C1321.77 749.274 1294.82 754.803 1268.46 749.988C1262.16 748.839 1254.56 745.645 1254.31 739.149C1254.47 735.689 1255.94 732.43 1258.42 730.046C1283.4 701.208 1333.53 709.708 1360.25 682.553C1361.98 680.995 1363.3 679.02 1364.07 676.808C1367.44 665.172 1346.83 661.241 1343.12 649.548C1340.24 640.436 1349.27 632.115 1357.9 628.191C1366.54 624.267 1376.79 620.945 1380.32 612.107C1384.59 601.336 1376 588.883 1379.16 577.75C1381.86 568.257 1391.91 563.221 1401.04 559.638C1426.71 549.941 1454.16 543.32 1476.36 527.124C1483.72 521.705 1490.3 515.286 1495.92 508.049L1521.85 689.483C1468.87 717.7 1407.52 731.166 1347.92 743.736Z" fill="#83B9D5"/>
<path d="M325.967 695.091C320.676 707.725 325.986 725.496 339.182 728.892C346.486 730.785 354.033 728.026 361.134 725.566C380.969 718.718 401.413 713.795 422.19 710.864C430.27 709.709 439.211 709.071 446.018 713.687C460.49 723.566 453.637 746.568 460.195 762.91C461.017 765.409 462.651 767.557 464.831 769.006C467.082 770.079 469.605 770.417 472.049 769.974C484.635 768.654 495.956 761.175 508.495 758.954C535.109 754.188 562.156 776.049 568.029 802.784C573.901 829.518 561.487 858.013 541.301 876.054C537.861 879.147 534.214 881.996 530.384 884.58C549.621 867.868 561.557 840.788 554.78 815.99C548.003 791.193 518.689 773.182 495.444 783.587C484.958 788.266 477.222 797.587 467.501 803.621C457.779 809.654 443.653 811.982 435.831 803.397C420.33 786.162 445.956 746.946 424.003 739.974C419.357 738.977 414.532 739.348 410.102 741.044C376.369 750.978 343.23 769.869 308.364 764.617C297.239 762.925 285.193 757.536 281.509 746.786C279.699 740.14 280.14 733.084 282.764 726.744C295.325 690.262 334.427 670.674 371.749 661.766C366.289 664.074 361.034 666.432 356.131 668.644C343.647 674.437 331.23 682.334 325.967 695.091Z" fill="#F9E4AB"/>
<path d="M1221.36 657.371C1131.04 717.784 1022.32 744.996 914.266 755.167C880.323 758.336 845.662 760.075 813.703 771.947C781.744 783.819 752.261 808.322 744.078 841.714C736.802 871.375 745.127 908.278 722.55 928.507C719.463 931.283 715.967 933.556 712.186 935.245C721.221 925 724.316 909.285 723.403 895.053C722.247 877.128 716.359 859.647 716.163 841.694C715.705 802.023 743.486 766.698 777.219 746.623C810.951 726.547 850.274 718.642 888.49 709.852C953.422 694.902 1017.51 676.504 1080.5 654.733C1118.03 641.764 1155.36 627.605 1190.15 608.329C1233.38 584.455 1272.15 553.3 1309.54 520.932C1364.4 473.399 1417.84 420.848 1458.15 360.842L1460.38 364.659C1449.89 473.903 1311.69 596.958 1221.36 657.371Z" fill="#F9E4AB"/>
<path d="M1221.55 657.26C1131.19 717.689 1022.43 744.912 914.331 755.089C889.839 757.503 864.927 758.938 840.951 764.135C913.844 731.559 992.568 713.155 1067.51 685.095C1213.3 629.97 1343.1 539.097 1445.28 420.618C1404.87 513.497 1296.67 607.016 1221.55 657.26Z" fill="#E29891"/>
<path d="M934.748 812.739C784.561 741.724 609.8 755.884 446.18 727.146C367.207 713.341 281.67 682.345 246.422 610.232C232.275 581.309 227.917 548.717 218.832 517.799C209.746 486.882 193.94 455.462 165.525 440.371C124.694 418.682 65.4154 434.297 36.3604 398.308C22.9516 381.684 20.9024 358.437 23.7803 337.204C29.3409 296.779 -24.0811 273.737 6.52363 248.401C-17.4148 269.557 -31.7606 306.547 -25.4636 337.204C-16.9768 378.535 15.5844 321.619 41.2673 362.732C95.9258 421.342 124.023 402.903 155.194 401.805C186.804 404.879 204.958 429.964 223.682 457.376C226.754 462.775 232.165 469.377 234.878 474.278C293.268 566.254 392.89 635.531 495.613 671.598C593.881 706.101 699.656 710.479 803.092 722.656C906.527 734.832 1013.04 756.804 1096.03 819.822C1135.02 849.347 1168.34 887.679 1203.84 921.821L1202.85 927.352L1047.13 899.277C1044.18 895.285 1041.1 891.401 1037.89 887.626C1010.11 855.207 973.476 831.038 934.748 812.739Z" fill="#4573A4"/>
<path d="M44.5827 346.057C44.264 347.92 44.505 349.836 45.2752 351.562C46.0455 353.289 47.3103 354.748 48.9099 355.755C50.5095 356.763 52.372 357.273 54.2618 357.222C56.1516 357.171 57.9838 356.561 59.5268 355.469C61.0698 354.377 62.2543 352.852 62.9304 351.086C63.6065 349.321 63.7439 347.395 63.3253 345.551C62.9066 343.708 61.9507 342.03 60.5784 340.73C59.2061 339.43 57.4791 338.566 55.6157 338.247C53.1169 337.82 50.5506 338.403 48.4815 339.867C46.4125 341.332 45.0101 343.558 44.5827 346.057Z" fill="#4573A4"/>
<path d="M45.9626 345.081C45.7236 346.478 45.9389 347.921 46.5813 349.227C47.2237 350.533 48.2644 351.643 49.5717 352.417C50.879 353.191 52.3942 353.594 53.9258 353.575C55.4573 353.557 56.9365 353.117 58.176 352.312C59.4156 351.507 60.36 350.373 60.8898 349.052C61.4196 347.732 61.511 346.286 61.1524 344.896C60.7939 343.505 60.0014 342.234 58.8754 341.242C57.7493 340.251 56.3402 339.583 54.8262 339.324C52.796 338.977 50.7215 339.389 49.0593 340.468C47.397 341.548 46.2832 343.207 45.9626 345.081Z" fill="#83B9D5"/>
<path d="M54.5082 344.724C54.4085 345.307 54.4843 345.906 54.7256 346.446C54.967 346.986 55.3632 347.442 55.8641 347.757C56.365 348.071 56.9481 348.23 57.5393 348.213C58.1306 348.196 58.7034 348.003 59.1852 347.66C59.667 347.317 60.036 346.839 60.2456 346.286C60.4552 345.733 60.4958 345.13 60.3624 344.554C60.2289 343.977 59.9275 343.454 59.4961 343.049C59.0648 342.644 58.5229 342.377 57.9394 342.281C57.5535 342.215 57.1585 342.226 56.7769 342.313C56.3953 342.4 56.0346 342.562 55.7157 342.789C55.3969 343.016 55.126 343.304 54.9188 343.636C54.7116 343.968 54.572 344.338 54.5082 344.724Z" fill="#F9E4AB"/>
<path d="M112.762 156.517C107.233 155.572 103.518 150.324 104.463 144.796C105.409 139.267 110.657 135.552 116.186 136.498C121.714 137.443 125.43 142.691 124.484 148.22C123.539 153.748 118.29 157.463 112.762 156.517Z" fill="#4573A4"/>
<path d="M104.768 143.029C104.49 144.659 104.701 146.336 105.375 147.846C106.049 149.357 107.155 150.633 108.555 151.515C109.955 152.396 111.584 152.843 113.238 152.799C114.891 152.754 116.495 152.22 117.845 151.264C119.195 150.309 120.231 148.974 120.823 147.43C121.414 145.885 121.534 144.2 121.168 142.587C120.802 140.974 119.965 139.506 118.765 138.368C117.564 137.23 116.053 136.474 114.422 136.195C112.236 135.821 109.991 136.331 108.18 137.613C106.37 138.894 105.142 140.843 104.768 143.029Z" fill="#83B9D5"/>
<path d="M114.493 142.858C114.389 143.441 114.462 144.041 114.701 144.583C114.94 145.125 115.335 145.583 115.835 145.9C116.335 146.217 116.918 146.379 117.51 146.363C118.102 146.348 118.676 146.158 119.16 145.815C119.643 145.473 120.014 144.995 120.225 144.442C120.436 143.889 120.478 143.285 120.345 142.708C120.212 142.131 119.911 141.606 119.479 141.201C119.048 140.795 118.505 140.527 117.921 140.431C117.144 140.298 116.347 140.479 115.704 140.934C115.061 141.389 114.625 142.081 114.493 142.858Z" fill="#F9E4AB"/>
<path d="M132.314 38.6565C131.995 40.5198 132.236 42.4357 133.006 44.162C133.776 45.8883 135.041 47.3475 136.641 48.3549C138.241 49.3624 140.103 49.8729 141.993 49.8219C143.883 49.771 145.715 49.1608 147.258 48.0686C148.801 46.9764 149.985 45.4512 150.661 43.6859C151.337 41.9206 151.475 39.9945 151.056 38.1511C150.638 36.3077 149.682 34.6299 148.309 33.3298C146.937 32.0296 145.21 31.1656 143.347 30.8469C140.848 30.4196 138.282 31.0023 136.212 32.4669C134.143 33.9315 132.741 36.158 132.314 38.6565Z" fill="#4573A4"/>
<path d="M139.938 47.2324C135.71 46.5094 132.914 42.2327 133.693 37.6801C134.472 33.1274 138.53 30.0229 142.758 30.7459C146.986 31.4689 149.782 35.7457 149.003 40.2983C148.224 44.8509 144.166 47.9554 139.938 47.2324Z" fill="#83B9D5"/>
<path d="M141.167 36.5132C141.044 37.2131 141.097 37.928 141.319 38.5671C141.542 39.2062 141.923 39.7407 142.416 40.1027C142.908 40.4647 143.49 40.6378 144.085 40.6001C144.681 40.5624 145.265 40.3154 145.762 39.8908C146.26 39.4661 146.649 38.8828 146.879 38.2149C147.11 37.5471 147.172 36.8249 147.058 36.1401C146.943 35.4553 146.658 34.8388 146.237 34.3689C145.817 33.899 145.28 33.5969 144.695 33.501C144.311 33.4353 143.915 33.4611 143.53 33.5769C143.144 33.6927 142.777 33.8962 142.449 34.1759C142.122 34.4556 141.84 34.806 141.62 35.207C141.4 35.6081 141.246 36.0519 141.167 36.5132Z" fill="#F9E4AB"/>
<path d="M212.127 159.619C213.586 158.555 215.282 157.853 217.074 157.569C221.275 157.213 224.67 161.677 224.444 165.765C224.219 169.853 221.553 173.541 218.485 176.397C205.486 188.495 184.806 189.588 168.252 182.873C184.735 179.849 198.015 168.475 212.127 159.619Z" fill="#83B9D5"/>
<path d="M195.772 182.101C203.35 180.362 209.377 178.359 213.492 172.665C217.606 166.971 217.052 162.108 215.976 161.421C215.549 161.202 215.083 161.07 214.604 161.033C214.125 160.996 213.644 161.054 213.189 161.205C210.697 161.728 208.279 162.542 205.984 163.631C207.977 162.238 210.072 160.862 212.127 159.619C213.586 158.555 215.282 157.853 217.074 157.569C221.275 157.213 224.67 161.677 224.444 165.765C224.219 169.853 221.553 173.541 218.485 176.397C205.486 188.495 184.806 189.588 168.252 182.873C170.972 182.349 173.644 181.612 176.244 180.668C182.391 183.394 189.303 183.901 195.772 182.101Z" fill="#4573A4"/>
<path d="M205.43 167.672C206.02 168.143 205.836 169.113 205.518 169.837C204.394 172.339 202.635 174.476 200.437 176.011C198.238 177.546 195.687 178.418 193.066 178.531C191.516 178.682 189.98 178.193 188.786 177.169C188.288 176.64 187.927 175.985 187.737 175.266C191.532 172.968 195.231 170.413 198.904 167.797C200.789 167.278 202.745 167.14 204.667 167.393C204.942 167.413 205.205 167.51 205.43 167.672Z" fill="#F9E4AB"/>
<path d="M143.997 282.594C138.781 282.933 133.613 281.439 129.38 278.37C125.061 275.544 121.325 271.92 117.241 268.824C113.244 265.493 108.381 263.374 103.222 262.717C95.0114 262.107 87.3888 267.117 80.6536 272.072C73.9185 277.027 66.7153 282.403 58.4727 282.684C57.4529 282.807 56.4189 282.706 55.4417 282.39C54.4646 282.074 53.5675 281.55 52.8122 280.853C51.1085 278.837 51.5184 275.836 52.3781 273.326C56.3729 262.451 67.3349 255.631 78.1914 251.743C90.7687 247.126 104.25 245.532 117.55 247.088C129.972 248.643 140.485 253.909 150.256 261.497C152.015 262.829 153.419 264.574 154.345 266.578C155.287 268.612 155.6 270.883 155.244 273.098C154.381 278.246 149.191 282.016 143.997 282.594Z" fill="#83B9D5"/>
<path d="M72.6963 272.947C72.1512 273.082 71.5875 273.104 71.0381 273.01C70.4887 272.916 69.9643 272.708 69.4953 272.399C68.6167 271.687 72.7374 265.849 74.6212 264.214C75.5002 263.348 76.5883 262.753 77.7629 262.496C78.9376 262.239 80.1521 262.33 81.2693 262.759C81.628 262.893 81.9473 263.12 82.1975 263.42C82.4477 263.719 82.6209 264.081 82.7012 264.472C82.7288 264.917 82.6523 265.364 82.4783 265.775C80.8307 269.861 76.7569 272.3 72.6963 272.947Z" fill="#F9E4AB"/>
<path d="M139.121 269.402C139.736 270.299 139.906 271.332 139.593 272.275C139.141 273.154 132.103 270.676 129.967 269.354C128.843 268.758 127.924 267.929 127.315 266.961C126.705 265.993 126.431 264.925 126.521 263.878C126.558 263.555 126.693 263.251 126.916 262.992C127.138 262.733 127.44 262.529 127.795 262.396C128.237 262.289 128.713 262.277 129.18 262.36C133.618 262.921 137.284 266.007 139.121 269.402Z" fill="#F9E4AB"/>
<path d="M143.938 282.636C138.722 282.974 133.554 281.48 129.322 278.411C125.002 275.585 121.266 271.962 117.182 268.866C113.185 265.534 108.322 263.416 103.163 262.759C98.5961 262.575 94.0686 263.684 90.1001 265.959C92.9829 263.161 96.5805 261.215 100.496 260.336C106.463 259.302 112.603 260.268 117.965 263.082C123.281 265.886 128.163 269.446 132.46 273.652C133.986 275.25 135.764 276.585 137.723 277.605C138.706 278.111 139.801 278.358 140.906 278.324C142.011 278.289 143.089 277.975 144.04 277.409C144.873 276.806 145.538 275.999 145.973 275.066C148.127 270.725 146.077 265.199 142.4 262.034C138.724 258.869 133.873 257.539 129.109 256.604C110.178 252.849 89.6985 253.815 72.6468 262.923C68.0826 265.351 63.2824 269.36 63.7747 274.534C63.801 275.22 64.0664 275.876 64.525 276.387C65.0115 276.786 65.6018 277.036 66.2262 277.109C68.8972 277.604 71.6486 277.441 74.2437 276.635C69.3521 279.869 64.1538 282.482 58.4727 282.684C57.4529 282.807 56.4189 282.706 55.4417 282.39C54.4646 282.074 53.5675 281.55 52.8122 280.853C51.1085 278.837 51.5184 275.836 52.3781 273.326C56.3729 262.451 67.3349 255.631 78.1914 251.743C90.7687 247.126 104.25 245.532 117.55 247.088C129.972 248.643 140.485 253.909 150.256 261.497C152.015 262.829 153.419 264.574 154.345 266.578C155.287 268.612 155.6 270.883 155.244 273.098C154.322 278.288 149.132 282.058 143.938 282.636Z" fill="#4573A4"/>
<path d="M64.715 160.56C72.1683 155.532 83.0982 151.167 89.2033 157.754C91.9536 160.746 92.617 165.142 94.907 168.504C98.9259 174.372 107.441 175.949 114.166 173.766C120.891 171.584 126.412 166.553 131.262 161.303C136.113 156.054 141.866 150.269 148.636 151.755C154.907 153.138 158.086 160.485 157.868 166.907C157.649 173.328 155.103 179.438 154.357 185.82C153.799 189.093 154.3 192.457 155.786 195.425C158.898 200.844 166.237 202.134 172.425 201.275C187.733 199.161 204.032 188.03 217.097 196.308C227.277 202.781 228.13 217.571 224.587 229.105C217.903 250.826 195.265 269.353 173.384 263.176C160.444 259.512 151.119 248.541 139.865 241.176C79.9993 201.978 22.0432 280.674 34.1774 337.078C43.038 378.312 83.9748 410.319 126.17 408.831C136.327 408.479 146.501 406.419 156.604 407.594C187.863 411.213 204.162 441.251 223.133 468.483C226.254 473.852 229.19 479.085 231.946 483.96C285.355 578.87 386.343 648.086 489.381 683.218C587.95 716.826 693.752 720.258 797.285 731.505C900.818 742.752 1007.51 763.762 1091.07 826.008C1130.32 855.17 1163.98 893.185 1199.79 926.992L1198.85 932.529L-82.4876 713.4L2.50859 216.477C20.5714 195.061 41.5049 176.244 64.715 160.56Z" fill="#83B9D5"/>
<path d="M929.731 820.333C778.911 750.673 604.284 766.404 440.412 739.14C361.319 726.045 275.506 695.82 239.611 624.027C225.204 595.233 220.553 562.681 211.19 531.847C201.827 501.012 185.739 469.736 157.189 454.901C116.165 433.58 57.0289 449.728 27.6511 414.002C14.0935 397.499 11.8352 374.272 14.5219 353.014C19.7185 312.54 34.9399 273.401 65.3155 247.79C41.5684 269.161 27.5559 306.278 34.1285 336.878C42.9868 378.131 83.9249 410.15 126.124 408.658C136.282 408.305 146.456 406.244 156.56 407.419C187.822 411.038 204.119 441.089 223.09 468.331C226.21 473.703 229.147 478.939 231.903 483.816C285.31 578.766 386.3 648.008 489.344 683.149C587.919 716.766 693.729 720.193 797.269 731.438C900.81 742.684 1007.51 763.696 1091.07 825.965C1130.32 855.139 1163.98 893.169 1199.8 926.99L1198.85 932.529L1042.89 905.857C1039.9 901.892 1036.79 898.036 1033.54 894.29C1005.47 862.122 968.622 838.284 929.731 820.333Z" fill="#F9E4AB"/>
<mask id="mask1_1194_54927" style="mask-type:alpha" maskUnits="userSpaceOnUse" x="13" y="247" width="1187" height="686">
<path d="M929.731 820.334C778.911 750.674 604.284 766.405 440.412 739.14C361.319 726.046 275.506 695.821 239.611 624.028C225.204 595.233 220.553 562.682 211.19 531.847C201.827 501.013 185.739 469.736 157.189 454.902C116.165 433.58 57.0289 449.729 27.6511 414.003C14.0935 397.499 11.8352 374.272 14.5219 353.014C19.7185 312.541 34.9399 273.402 65.3155 247.791C41.5684 269.162 27.5559 306.279 34.1285 336.878C42.9868 378.131 83.9249 410.15 126.124 408.659C136.282 408.306 146.456 406.245 156.56 407.42C187.822 411.038 204.119 441.089 223.09 468.332C226.21 473.703 229.147 478.939 231.903 483.816C285.31 578.767 386.3 648.008 489.344 683.15C587.919 716.767 693.729 720.194 797.269 731.439C900.81 742.684 1007.51 763.697 1091.07 825.966C1130.32 855.139 1163.98 893.17 1199.8 926.99L1198.85 932.53L1042.89 905.857C1039.9 901.892 1036.79 898.036 1033.54 894.29C1005.47 862.122 968.622 838.284 929.731 820.334Z" fill="#F9E4AB"/>
</mask>
<g mask="url(#mask1_1194_54927)">
<path d="M347.023 720.226C268.278 687.804 219.116 624.49 187.172 552.552C179.826 536.311 181.47 484.022 171.438 469.635C218.751 504.421 248.752 613.171 291.95 651.83C354.95 708.211 491.267 727.342 579.511 739.416C478.288 760.063 412.493 747.174 347.023 720.226Z" fill="#E29891"/>
</g>
<path d="M135.118 189.885C134.326 187.825 133.394 185.822 132.328 183.889C128.49 178.162 119.898 177.624 113.597 180.444C107.296 183.265 102.482 188.495 97.1014 192.8C91.7205 197.106 84.8905 200.698 78.154 199.201C72.8961 198.043 68.7969 194.048 63.8792 191.81C51.7538 186.287 37.4233 192.546 27.1125 201.044C14.5167 211.394 5.21042 224.617 -2.19579 239.149L2.24956 213.16C20.3119 191.775 41.2463 172.987 64.459 157.33C71.9131 152.309 82.845 147.953 88.9537 154.534C91.7057 157.522 92.3704 161.913 94.6621 165.272C98.6837 171.133 107.202 172.711 113.928 170.532C120.655 168.354 126.176 163.331 131.026 158.09C135.876 152.848 141.63 147.072 148.403 148.557C154.675 149.941 157.857 157.28 157.641 163.693C157.424 170.106 154.879 176.208 154.134 182.582C153.577 185.85 150.414 189.836 151.902 192.8C151.902 200.48 159.529 201.391 165.072 201.183C162.055 202.606 163.432 200.654 160.137 201.183C150.42 202.678 139.413 198.691 135.118 189.885Z" fill="#4573A4"/>
<path d="M135.392 193.088C134.6 191.028 133.668 189.025 132.602 187.092C128.764 181.365 120.171 180.827 113.871 183.648C107.57 186.468 102.756 191.698 97.375 196.004C91.9941 200.309 85.1642 203.901 78.4277 202.404C73.1698 201.246 69.0706 197.251 64.1528 195.013C52.0275 189.49 37.697 195.749 27.3861 204.247C14.7903 214.597 5.48404 227.821 -1.92217 242.352L2.52318 216.363C20.5855 194.978 41.52 176.191 64.7326 160.533C72.1868 155.512 83.1187 151.156 89.2273 157.737C91.9793 160.725 92.6441 165.116 94.9357 168.475C98.9574 174.336 107.476 175.914 114.202 173.736C120.928 171.557 126.449 166.534 131.3 161.293C136.15 156.051 141.903 150.275 148.676 151.761C154.949 153.144 158.131 160.483 157.914 166.896C157.698 173.31 155.152 179.411 154.407 185.785C153.85 189.053 154.352 192.414 155.84 195.378C158.492 200.057 164.384 201.651 169.927 201.443C166.909 202.866 163.706 203.857 160.411 204.386C150.694 205.881 139.687 201.894 135.392 193.088Z" fill="#F2D997"/>
<path d="M133.383 228.83C145.087 233.173 155.389 240.745 167.024 244.99C178.658 249.234 193.337 249.663 202.224 240.88C208.502 234.582 210.564 224.961 210.158 216.08C209.918 208.172 207.573 200.472 203.364 193.775C208.372 192.975 213.501 193.975 217.842 196.597C228.067 203.099 228.924 217.954 225.365 229.539C218.652 251.356 195.914 269.964 173.937 263.76C160.941 260.081 151.575 249.06 140.272 241.664C126.243 232.465 112.271 229.729 99.3008 231.674C108.32 224.145 122.153 224.654 133.383 228.83Z" fill="#4573A4"/>
<path d="M33.0419 542.11C61.0803 566.66 106.962 552.01 139.844 569.58C172.725 587.15 181.169 629.088 196.054 663.198C218.428 714.397 261.257 753.889 310.863 780.663L-82.4878 713.394L-37.5701 450.787C-25.0131 454.286 -13.8818 461.649 -5.76609 471.827C10.8453 493.113 12.738 524.312 33.0419 542.11Z" fill="#4573A4"/>
<path d="M124.479 686.74C119.048 667.925 120.767 647.766 116.323 628.741C111.88 609.716 97.5197 590.219 77.9343 590.247C69.9241 590.255 62.3393 593.542 54.5891 595.266C46.839 596.991 37.5798 596.717 31.9868 590.987C25.6455 584.475 26.636 574.133 26.0411 565.071C26.0359 562.8 25.5343 560.556 24.5711 558.496C20.5404 550.915 9.2133 552.82 1.556 549.046C-8.23876 544.218 -10.2728 530.93 -7.91917 520.304C-5.56551 509.679 -0.195423 499.621 0.0710629 488.759C0.139676 485.409 -0.272992 482.066 -1.15421 478.832C11.324 499.523 14.7639 526.234 32.9824 542.187C61.0269 566.73 106.913 552.09 139.8 569.656C172.688 587.221 181.137 629.142 196.028 663.238C218.409 714.417 261.248 753.896 310.862 780.663L210.885 763.565L206.823 762.027C170.849 747.948 135.087 723.722 124.479 686.74Z" fill="#4573A4"/>
<path d="M46.7838 384.627C46.3253 377.288 51.9032 370.968 59.2425 370.509C66.5818 370.051 72.9031 375.628 73.3616 382.967C73.82 390.305 68.2421 396.626 60.9028 397.084C53.5635 397.543 47.2422 391.966 46.7838 384.627Z" fill="#4573A4"/>
<path d="M48.3671 380.641C48.0084 382.738 48.2453 384.888 49.0478 386.82C49.8503 388.751 51.1823 390.377 52.8752 391.492C54.5682 392.606 56.5462 393.16 58.5587 393.081C60.5711 393.003 62.5276 392.297 64.1807 391.052C65.8339 389.808 67.1094 388.081 67.8456 386.089C68.5819 384.098 68.7459 381.932 68.317 379.866C67.888 377.8 66.8854 375.926 65.4359 374.481C63.9864 373.037 62.1552 372.087 60.1741 371.752C58.8603 371.527 57.5124 371.579 56.2076 371.904C54.9029 372.229 53.6668 372.822 52.5702 373.647C51.4736 374.473 50.5378 375.516 49.8166 376.716C49.0954 377.916 48.6029 379.25 48.3671 380.641Z" fill="#83B9D5"/>
<path d="M60.6474 379.711C60.508 380.526 60.5788 381.359 60.8511 382.103C61.1234 382.847 61.5849 383.47 62.1772 383.892C62.7694 384.314 63.4657 384.517 64.1783 384.476C64.8908 384.434 65.5875 384.149 66.1802 383.657C66.7729 383.165 67.2351 382.488 67.5082 381.712C67.7813 380.936 67.853 380.095 67.7144 379.296C67.5758 378.497 67.2331 377.776 66.7296 377.224C66.2261 376.672 65.5843 376.313 64.8855 376.194C63.9485 376.033 62.9756 376.314 62.1808 376.974C61.3861 377.633 60.8344 378.618 60.6474 379.711Z" fill="#F9E4AB"/>
<path d="M177.05 96.0009C169.896 94.7773 165.133 87.7223 166.412 80.243C167.691 72.7637 174.528 67.6923 181.683 68.9159C188.838 70.1395 193.6 77.1945 192.321 84.6739C191.042 92.1532 184.205 97.2244 177.05 96.0009Z" fill="#4573A4"/>
<path d="M167.793 79.2679C167.455 81.2477 167.711 83.2833 168.529 85.1175C169.347 86.9517 170.691 88.5021 172.391 89.5725C174.091 90.6429 176.069 91.1853 178.077 91.1312C180.085 91.077 182.032 90.4287 183.671 89.2683C185.311 88.1078 186.569 86.4873 187.288 84.6117C188.006 82.7361 188.152 80.6895 187.707 78.731C187.262 76.7724 186.247 74.9896 184.788 73.6082C183.33 72.2268 181.496 71.3088 179.516 70.9702C178.201 70.7432 176.854 70.7778 175.553 71.0722C174.251 71.3667 173.021 71.915 171.932 72.6859C170.843 73.4567 169.917 74.4349 169.206 75.5644C168.496 76.6939 168.016 77.9525 167.793 79.2679Z" fill="#83B9D5"/>
<path d="M178.893 78.1352C178.734 79.0668 178.82 80.0189 179.14 80.871C179.461 81.7231 180.001 82.4369 180.693 82.9222C181.386 83.4075 182.199 83.6426 183.029 83.5976C183.86 83.5526 184.671 83.2295 185.36 82.6693C186.049 82.1091 186.585 81.337 186.901 80.4504C187.216 79.5639 187.296 78.6028 187.132 77.6888C186.967 76.7747 186.564 75.9487 185.975 75.3152C185.386 74.6817 184.636 74.2691 183.821 74.1297C182.728 73.9427 181.594 74.2597 180.67 75.0109C179.746 75.7621 179.107 76.8859 178.893 78.1352Z" fill="#F9E4AB"/>
<path d="M862.752 450.821C862.613 451.636 862.718 452.475 863.055 453.23C863.392 453.985 863.946 454.623 864.646 455.064C865.345 455.505 866.16 455.728 866.987 455.706C867.814 455.684 868.615 455.417 869.29 454.939C869.965 454.461 870.484 453.794 870.779 453.022C871.075 452.249 871.135 451.407 870.952 450.6C870.769 449.794 870.351 449.06 869.75 448.491C869.15 447.922 868.394 447.544 867.579 447.404C866.486 447.217 865.363 447.472 864.458 448.113C863.553 448.754 862.939 449.728 862.752 450.821Z" fill="#F9E4AB"/>
<path d="M316.568 602.164C312.9 596.286 314.693 588.548 320.571 584.881C326.449 581.214 334.187 583.006 337.854 588.885C341.522 594.763 339.73 602.501 333.852 606.168C327.974 609.835 320.235 608.043 316.568 602.164Z" fill="#4573A4"/>
<path d="M322.598 583.615C320.893 584.679 319.543 586.224 318.717 588.056C317.891 589.887 317.626 591.922 317.957 593.904C318.288 595.886 319.2 597.725 320.576 599.189C321.953 600.653 323.733 601.675 325.691 602.127C327.648 602.579 329.696 602.44 331.575 601.727C333.454 601.015 335.079 599.761 336.245 598.125C337.411 596.489 338.065 594.543 338.125 592.535C338.185 590.527 337.647 588.546 336.581 586.843C335.875 585.712 334.954 584.731 333.869 583.957C332.784 583.182 331.557 582.63 330.259 582.33C328.96 582.03 327.615 581.989 326.3 582.21C324.986 582.43 323.728 582.908 322.598 583.615Z" fill="#83B9D5"/>
<path d="M330.964 592.481C330.26 592.917 329.682 593.522 329.304 594.221C328.926 594.92 328.766 595.679 328.842 596.404C328.919 597.129 329.23 597.786 329.735 598.292C330.24 598.798 330.917 599.13 331.68 599.246C332.443 599.362 333.257 599.257 334.019 598.944C334.782 598.63 335.458 598.123 335.963 597.487C336.467 596.85 336.776 596.113 336.852 595.368C336.927 594.624 336.765 593.906 336.387 593.305C335.886 592.502 335.033 591.964 334.016 591.809C332.999 591.655 331.901 591.896 330.964 592.481Z" fill="#F9E4AB"/>
<path d="M293.347 580.743C290.203 575.704 291.739 569.071 296.777 565.928C301.816 562.785 308.449 564.322 311.592 569.36C314.736 574.399 313.199 581.031 308.161 584.175C303.123 587.318 296.49 585.781 293.347 580.743Z" fill="#4573A4"/>
<path d="M295.436 577.32C292.816 573.121 293.87 567.736 297.788 565.291C301.707 562.847 307.007 564.268 309.627 568.467C312.247 572.666 311.193 578.052 307.275 580.497C303.356 582.941 298.056 581.519 295.436 577.32Z" fill="#83B9D5"/>
<path d="M302.721 577.712C301.673 576.032 302.412 573.68 304.371 572.458C306.331 571.235 308.769 571.606 309.816 573.285C310.864 574.965 310.125 577.317 308.166 578.54C306.207 579.762 303.769 579.391 302.721 577.712Z" fill="#F9E4AB"/>
<path d="M278.428 547.801C277.627 548.301 277.028 549.087 276.709 550.06C276.389 551.033 276.364 552.149 276.635 553.266C276.906 554.384 277.461 555.453 278.231 556.339C279.001 557.224 279.95 557.887 280.96 558.242C281.969 558.597 282.992 558.629 283.901 558.334C284.809 558.039 285.562 557.43 286.064 556.584C286.565 555.738 286.793 554.693 286.719 553.582C286.644 552.471 286.271 551.342 285.645 550.34C284.804 548.999 283.573 547.979 282.221 547.504C280.869 547.028 279.505 547.135 278.428 547.801Z" fill="#4573A4"/>
<path d="M279.565 548.496C278.863 548.934 278.289 549.54 277.914 550.238C277.539 550.937 277.38 551.695 277.458 552.418C277.537 553.142 277.848 553.797 278.353 554.301C278.858 554.806 279.534 555.137 280.295 555.253C281.057 555.368 281.869 555.264 282.631 554.952C283.392 554.64 284.068 554.135 284.573 553.5C285.077 552.865 285.388 552.13 285.466 551.387C285.544 550.643 285.385 549.926 285.01 549.324C284.504 548.521 283.647 547.983 282.627 547.828C281.607 547.673 280.507 547.913 279.565 548.496Z" fill="#83B9D5"/>
<path d="M283.617 551.604C283.416 551.729 283.258 551.911 283.16 552.126C283.063 552.342 283.032 552.581 283.071 552.814C283.11 553.047 283.217 553.264 283.379 553.436C283.54 553.608 283.75 553.729 283.98 553.782C284.21 553.835 284.451 553.819 284.672 553.736C284.893 553.652 285.084 553.505 285.222 553.312C285.359 553.12 285.436 552.891 285.443 552.655C285.451 552.419 285.388 552.186 285.263 551.986C285.095 551.717 284.828 551.526 284.519 551.454C284.21 551.383 283.886 551.437 283.617 551.604Z" fill="#F9E4AB"/>
<path d="M272.736 538.677C271.934 539.177 271.317 539.933 270.963 540.851C270.609 541.768 270.534 542.804 270.747 543.829C270.96 544.854 271.452 545.822 272.161 546.609C272.869 547.396 273.763 547.968 274.728 548.252C275.693 548.536 276.686 548.52 277.582 548.206C278.479 547.891 279.238 547.292 279.763 546.484C280.289 545.677 280.557 544.697 280.535 543.669C280.512 542.641 280.2 541.611 279.637 540.709C278.879 539.502 277.729 538.611 276.436 538.231C275.143 537.85 273.813 538.01 272.736 538.677Z" fill="#4573A4"/>
<path d="M273.873 539.374C273.172 539.812 272.616 540.447 272.275 541.201C271.935 541.955 271.826 542.793 271.962 543.609C272.098 544.425 272.473 545.182 273.039 545.784C273.605 546.387 274.338 546.809 275.143 546.996C275.949 547.182 276.792 547.126 277.566 546.833C278.339 546.541 279.009 546.026 279.49 545.353C279.97 544.68 280.241 543.879 280.266 543.053C280.292 542.226 280.072 541.41 279.635 540.708C279.044 539.771 278.108 539.105 277.029 538.855C275.95 538.605 274.815 538.791 273.873 539.374Z" fill="#83B9D5"/>
<path d="M277.924 542.479C277.723 542.604 277.583 542.815 277.52 543.086C277.458 543.357 277.476 543.676 277.573 544.002C277.669 544.327 277.84 544.646 278.063 544.916C278.286 545.187 278.552 545.397 278.826 545.522C279.101 545.646 279.372 545.678 279.605 545.614C279.838 545.55 280.023 545.393 280.137 545.162C280.25 544.931 280.287 544.638 280.242 544.318C280.198 543.999 280.074 543.668 279.886 543.367C279.634 542.964 279.286 542.644 278.918 542.477C278.55 542.311 278.193 542.311 277.924 542.479Z" fill="#F9E4AB"/>
<path d="M149.271 586.164C148.812 578.826 154.39 572.505 161.729 572.047C169.069 571.588 175.39 577.165 175.848 584.504C176.307 591.843 170.729 598.163 163.39 598.622C156.05 599.08 149.729 593.503 149.271 586.164Z" fill="#4573A4"/>
<path d="M152.111 581.992C151.769 583.972 152.022 586.008 152.838 587.844C153.654 589.68 154.996 591.233 156.695 592.306C158.394 593.379 160.373 593.924 162.381 593.871C164.39 593.819 166.338 593.173 167.979 592.013C169.62 590.854 170.88 589.233 171.6 587.357C172.32 585.482 172.467 583.434 172.023 581.475C171.578 579.515 170.563 577.732 169.105 576.35C167.646 574.967 165.811 574.049 163.83 573.71C161.178 573.257 158.454 573.874 156.257 575.427C154.06 576.979 152.568 579.34 152.111 581.992Z" fill="#83B9D5"/>
<path d="M161.934 581.265C161.795 582.08 161.934 582.924 162.336 583.69C162.738 584.456 163.383 585.111 164.191 585.57C164.998 586.029 165.931 586.273 166.872 586.27C167.813 586.267 168.72 586.018 169.477 585.554C170.235 585.09 170.809 584.433 171.127 583.664C171.446 582.896 171.494 582.051 171.267 581.237C171.039 580.423 170.545 579.676 169.848 579.091C169.151 578.505 168.281 578.108 167.35 577.949C166.1 577.735 164.828 577.964 163.812 578.586C162.796 579.208 162.121 580.171 161.934 581.265Z" fill="#F9E4AB"/>
<path d="M219.405 716.54C211.926 715.261 206.899 708.16 208.178 700.681C209.458 693.202 216.558 688.176 224.038 689.455C231.518 690.734 236.544 697.834 235.265 705.313C233.986 712.793 226.885 717.819 219.405 716.54Z" fill="#4573A4"/>
<path d="M210.731 699.906C210.392 701.886 210.648 703.921 211.467 705.756C212.285 707.59 213.629 709.14 215.329 710.211C217.028 711.281 219.007 711.823 221.015 711.769C223.023 711.715 224.97 711.067 226.609 709.906C228.248 708.746 229.507 707.126 230.225 705.25C230.944 703.374 231.09 701.328 230.645 699.369C230.2 697.41 229.184 695.628 227.726 694.246C226.268 692.865 224.433 691.947 222.453 691.608C221.139 691.381 219.792 691.416 218.49 691.71C217.189 692.005 215.959 692.553 214.87 693.324C213.78 694.095 212.854 695.073 212.144 696.203C211.434 697.332 210.954 698.591 210.731 699.906Z" fill="#83B9D5"/>
<path d="M220.557 699.162C220.418 699.977 220.558 700.821 220.959 701.588C221.361 702.354 222.007 703.008 222.814 703.467C223.621 703.926 224.554 704.17 225.495 704.167C226.436 704.164 227.343 703.915 228.1 703.452C228.858 702.988 229.432 702.33 229.751 701.562C230.069 700.793 230.118 699.949 229.89 699.135C229.662 698.321 229.169 697.574 228.471 696.988C227.774 696.403 226.905 696.005 225.973 695.846C224.724 695.637 223.455 695.868 222.44 696.489C221.426 697.111 220.749 698.071 220.557 699.162Z" fill="#F9E4AB"/>
<path d="M247.093 763.698C235.385 761.695 227.518 750.582 229.52 738.875C231.523 727.169 242.637 719.302 254.344 721.304C266.052 723.306 273.919 734.419 271.917 746.126C269.915 757.833 258.801 765.7 247.093 763.698Z" fill="#4573A4"/>
<path d="M245.363 756.129C235.932 754.516 229.594 745.563 231.207 736.133C232.82 726.703 241.773 720.365 251.205 721.978C260.636 723.591 266.974 732.543 265.36 741.974C263.747 751.404 254.794 757.742 245.363 756.129Z" fill="#83B9D5"/>
<path d="M117.513 564.577C117.194 566.44 117.47 568.362 118.305 570.099C119.14 571.837 120.497 573.312 122.204 574.337C123.911 575.363 125.892 575.894 127.896 575.863C129.9 575.831 131.837 575.239 133.462 574.161C135.088 573.083 136.328 571.567 137.027 569.806C137.726 568.044 137.852 566.116 137.388 564.265C136.925 562.414 135.894 560.723 134.425 559.407C132.955 558.09 131.115 557.206 129.135 556.868C126.48 556.414 123.764 556.971 121.584 558.417C119.405 559.862 117.94 562.078 117.513 564.577Z" fill="#4573A4"/>
<path d="M117.715 563.4C117.436 565.031 117.647 566.707 118.321 568.218C118.995 569.728 120.102 571.005 121.501 571.886C122.901 572.768 124.531 573.215 126.184 573.17C127.838 573.126 129.441 572.592 130.791 571.636C132.141 570.68 133.178 569.346 133.769 567.801C134.361 566.257 134.481 564.571 134.115 562.958C133.748 561.345 132.912 559.877 131.711 558.739C130.51 557.602 128.999 556.846 127.369 556.567C125.182 556.193 122.937 556.703 121.127 557.984C119.316 559.266 118.089 561.214 117.715 563.4Z" fill="#83B9D5"/>
<path d="M127.639 562.067C127.54 562.649 127.615 563.248 127.856 563.787C128.097 564.327 128.492 564.783 128.992 565.097C129.492 565.412 130.074 565.572 130.664 565.556C131.255 565.54 131.827 565.349 132.309 565.008C132.792 564.667 133.162 564.19 133.373 563.638C133.584 563.087 133.627 562.485 133.497 561.909C133.366 561.333 133.067 560.808 132.638 560.402C132.209 559.996 131.669 559.726 131.087 559.626C130.306 559.493 129.504 559.675 128.858 560.132C128.211 560.59 127.773 561.286 127.639 562.067Z" fill="#F9E4AB"/>
<path d="M96.5155 559.774C96.1968 561.637 96.4378 563.553 97.2081 565.28C97.9783 567.006 99.2434 568.465 100.843 569.472C102.443 570.48 104.305 570.99 106.195 570.94C108.085 570.889 109.917 570.278 111.46 569.186C113.003 568.094 114.187 566.569 114.863 564.804C115.539 563.038 115.677 561.112 115.258 559.269C114.839 557.425 113.884 555.747 112.511 554.447C111.139 553.147 109.412 552.283 107.549 551.964C105.05 551.537 102.484 552.12 100.415 553.584C98.3455 555.049 96.9429 557.276 96.5155 559.774Z" fill="#4573A4"/>
<path d="M97.8962 558.798C97.6571 560.196 97.8379 561.633 98.4156 562.927C98.9933 564.222 99.9419 565.316 101.142 566.072C102.341 566.828 103.738 567.21 105.155 567.172C106.573 567.134 107.947 566.676 109.104 565.857C110.262 565.038 111.15 563.894 111.657 562.57C112.164 561.246 112.267 559.802 111.953 558.419C111.639 557.037 110.922 555.778 109.893 554.803C108.864 553.828 107.568 553.18 106.171 552.941C105.243 552.78 104.292 552.804 103.373 553.012C102.454 553.219 101.585 553.606 100.817 554.151C100.048 554.695 99.3938 555.386 98.8926 556.183C98.3914 556.981 98.0529 557.869 97.8962 558.798Z" fill="#83B9D5"/>
<path d="M105.366 557.651C105.246 558.351 105.302 559.064 105.527 559.701C105.752 560.338 106.135 560.87 106.629 561.229C107.122 561.588 107.703 561.758 108.298 561.718C108.893 561.677 109.476 561.429 109.972 561.003C110.468 560.577 110.855 559.993 111.084 559.326C111.313 558.658 111.374 557.937 111.259 557.253C111.144 556.57 110.858 555.954 110.438 555.485C110.017 555.016 109.481 554.715 108.898 554.619C108.512 554.553 108.114 554.579 107.727 554.696C107.341 554.813 106.973 555.018 106.644 555.3C106.316 555.582 106.034 555.935 105.815 556.338C105.595 556.742 105.443 557.188 105.366 557.651Z" fill="#F9E4AB"/>
<path d="M7.93201 664.415C14.6893 653.101 22.4839 642.219 32.4729 633.604C42.4619 624.989 54.8583 618.693 68.0223 617.708C73.8616 617.258 80.3334 618.11 84.3128 622.436C90.9357 629.701 86.4885 641.206 87.8522 650.928C89.0615 659.653 95.0393 666.791 99.8304 674.169C104.622 681.547 108.466 690.859 104.988 698.901C102.171 705.369 95.1944 709.27 88.1977 710.288C81.201 711.306 74.0633 709.949 67.1141 708.59L32.1989 701.785C26.5398 700.68 20.7536 699.521 15.841 696.551C4.47606 689.718 0.447728 675.282 7.93201 664.415Z" fill="#83B9D5"/>
</g>
</svg>
