<svg width="711" height="717" viewBox="0 0 711 717" fill="none" xmlns="http://www.w3.org/2000/svg">
<g opacity="0.05">
<path d="M100.98 113.774C104.374 113.653 103.401 115.012 101.908 116.549C99.6972 118.76 97.4862 120.971 95.3858 123.27C84.0212 135.586 76.2826 150.123 68.9642 165.025C60.2749 182.846 51.7846 200.766 41.4371 217.725C34.7267 228.725 27.4524 239.271 17.3149 247.485C14.0537 250.127 12.716 252.184 14.4296 257.236C17.8124 267.185 17.3923 277.875 16.7954 288.378C15.325 314.501 9.66484 340.005 5.62975 365.763C1.20773 394.086 2.81071 421.481 19.1722 446.343C23.4555 453.011 28.86 458.887 35.1468 463.711C37.2362 465.281 37.6894 466.806 36.9819 469.305C30.2715 492.996 35.0804 515.062 46.7546 536.077C56.8368 554.219 71.8495 568.137 86.5528 582.299C100.924 596.239 115.362 610.168 127.589 626.154C133.636 634.058 139.097 642.316 142.768 651.636C143.409 653.272 143.873 654.599 146.084 654.665C166.304 655.306 184.257 663.509 201.945 672.11C219.634 680.711 236.769 690.373 254.424 698.996C276.534 709.797 299.639 715.39 324.391 710.548C334.356 708.662 343.845 704.81 352.305 699.217C354.03 698.111 355.279 697.127 357.579 698.642C384.254 716.33 412.589 715.799 441.597 705.706C460.391 699.151 477.305 688.471 495.004 679.528C512.902 670.485 530.844 661.552 550.545 657.009C556.072 655.737 562.948 656.81 566.994 653.825C570.831 650.995 571.416 644.119 574.357 639.398C585.147 621.854 599.419 607.338 613.835 592.823C626.537 580.066 640.367 568.425 651.82 554.429C668.005 534.618 678.065 512.486 676.981 486.285C676.838 482.969 676.981 479.431 675.721 476.491C672.78 469.426 675.29 465.347 680.729 460.406C699.788 443.06 707.139 420.375 708.112 395.181C708.886 375.149 704.21 355.769 700.993 336.224C697.566 315.363 694.238 294.502 695.001 273.21C695.266 265.837 697.112 258.717 698.063 251.454L699.567 249.939C701.778 250.603 701.579 251.996 701.048 253.831C695.521 273.232 697.345 292.833 700.053 312.334C702.927 333.062 707.151 353.614 709.693 374.364C712.8 399.669 710.301 424.278 696.527 446.675C691.994 454.051 686.306 460.65 679.679 466.221C677.866 467.757 676.705 469.095 677.313 471.748C684.764 504.195 674.162 531.799 654.197 556.772C643.717 569.884 630.915 580.762 619.02 592.525C603.332 608.002 587.645 623.567 576.126 642.67C575.338 643.689 574.725 644.832 574.313 646.053C572.334 656.379 565.778 659.01 555.796 660.082C538.859 661.906 523.415 669.49 508.259 677.063C490.836 685.752 473.778 695.204 456.212 703.595C431.504 715.413 405.734 720.42 378.583 712.947C371.318 710.92 364.384 707.852 357.999 703.838C356.263 702.732 354.947 701.771 352.626 703.197C326.934 718.939 299.783 719.083 271.924 710.349C252.998 704.424 236.26 693.888 218.86 684.923C201.459 675.957 183.837 667.002 164.823 661.519C158.079 659.573 151.247 658.203 144.183 658.59C142.237 658.711 141.297 658.291 140.579 656.301C133.426 636.59 119.674 621.433 105.501 606.73C90.6542 591.541 75.0776 577.191 60.6729 561.747C44.2782 544.17 33.3227 523.618 30.8242 499.22C29.8558 490.061 30.507 480.803 32.7478 471.87C33.4774 469.006 33.1237 467.359 30.7911 465.336C11.6769 448.809 2.85493 427.185 0.500202 402.488C-1.51182 381.373 2.95443 360.799 6.63576 340.193C10.3171 319.586 13.6226 299.289 13.5783 278.406C13.5783 270.303 12.8155 262.233 9.9965 254.549C9.22264 252.449 8.8136 250.625 10.8588 249.177C23.7711 240.001 32.1951 227.066 40.1436 213.8C51.7293 194.454 60.8055 173.704 71.142 153.639C78.8916 138.736 87.9457 124.752 100.98 113.774Z" fill="#254166"/>
<path d="M432.598 23.1006C431.769 25.19 430.088 25.599 428.121 25.3116C405.602 21.7408 382.994 18.1921 362.675 7.07076C357.556 4.27383 354.417 4.05273 349.265 7.13709C333.788 16.4454 316.1 19.6293 298.566 23.0564C276.036 27.4784 252.998 28.7608 230.633 34.1114C225.647 35.3054 220.761 36.8752 215.83 38.2681L213.774 36.5546C228.389 30.0211 244.131 28.4733 259.697 26.2181C284.781 22.581 310.008 19.6404 334.075 11.0727C340.841 8.66269 347.341 5.74415 353.002 1.12314C354.417 0.0176322 355.434 -0.535121 357.247 0.714101C374.846 12.8747 395.32 16.6555 415.728 20.6132C421.3 21.6524 426.971 22.2715 432.598 23.1006Z" fill="#254166"/>
<path d="M621.794 130.102C611.038 117.576 599.098 106.599 583.643 99.9987C574.932 96.2842 565.955 93.7637 556.448 93.5536C553.308 93.4873 552.114 92.3707 550.986 89.5738C539.301 60.7754 516.904 44.5466 487.818 36.0784C472.153 31.5127 456.046 29.6665 440.038 27.0906C438.932 26.9027 436.323 28.1961 436.544 25.1449C445.61 24.0394 454.332 26.5932 463.143 27.8976C471.376 29.211 479.52 31.0274 487.53 33.3367C516.882 41.3848 539.489 57.5363 552.258 85.7377C553.938 89.4522 555.806 90.7456 559.742 91.1768C586.484 94.0732 607.069 107.605 623.165 128.631L621.794 130.102Z" fill="#254166"/>
<path d="M621.794 130.103L623.209 128.633C634.165 141.445 641.03 156.657 648.271 171.637C659.326 194.543 670.569 217.36 686.179 237.658L684.83 239.117C673.399 226.039 665.296 210.838 657.38 195.56C651.145 183.554 645.408 171.327 639.438 159.167C634.408 148.987 628.505 139.262 621.794 130.103Z" fill="#254166"/>
<path d="M213.774 36.5217L215.83 38.2353C200.862 44.3377 187.087 52.2752 176.187 64.5021C169.682 71.7804 164.524 80.158 160.953 89.2433C160.268 90.9568 160.102 92.8362 157.504 92.7035C151.578 92.394 145.874 94.1296 140.037 94.7819L138.445 93.2121C143.232 91.1337 148.395 90.7136 153.436 90.4372C156.288 90.2825 157.416 89.3317 158.51 86.7338C169.311 61.6609 188.613 45.8411 213.774 36.5217Z" fill="#254166"/>
<path d="M138.445 93.2119L140.037 94.7817C127.634 99.0158 115.926 104.532 105.899 113.188C104.517 114.371 102.649 115.676 102.583 112.083C113.085 102.985 124.627 95.9425 138.445 93.2119Z" fill="#254166"/>
<path d="M684.83 239.116L686.179 237.657L699.445 249.983L697.941 251.498C692.759 248.325 688.294 244.109 684.83 239.116Z" fill="#254166"/>
<path d="M407.448 703.075C387.051 702.964 372.072 698.587 359.082 688.14C357.313 686.725 355.677 684.724 352.681 687.112C329.698 705.441 304.039 705.706 277.286 697.857C260.095 692.805 244.972 683.364 229.229 675.216C207.937 664.161 186.899 652.133 163.109 647.579C153.159 645.688 148.384 641.089 143.597 632.842C131.491 611.981 113.748 595.719 96.657 578.971C83.1588 565.705 68.8756 553.168 58.4839 537.083C48.5343 521.606 42.6972 504.968 43.6038 486.296C43.9107 479.717 45.2731 473.23 47.6389 467.083C48.9434 463.689 48.6338 461.621 45.4278 459.433C24.6112 445.492 16.1651 424.819 13.7219 400.708C11.7984 381.793 15.5903 363.552 18.8294 345.201C23.4172 319.221 28.6131 293.142 25.5619 266.71C24.4564 257.225 27.4523 251.885 33.2341 245.429C48.1695 228.725 57.898 208.615 67.8475 188.738C77.9408 168.585 86.4753 147.536 101.82 130.423C114.146 116.693 128.628 106.599 147.145 103.095C152.463 102.078 157.78 102.719 163.098 102.531C165.187 102.454 166.735 102.531 167.52 99.7342C176.452 68.2162 199.989 52.7391 229.428 44.0609C243.8 39.8047 258.868 38.5334 273.648 36.3223C301.087 32.1325 328.868 29.225 353.809 15.5057C355.876 14.4002 357.203 14.9971 358.806 15.8594C377.013 25.5547 396.923 29.4461 416.933 33.0169C441.254 37.3615 466.15 38.2128 489.664 46.3603C511.852 54.0989 531.209 66.1378 540.175 88.9555C544.011 98.7171 547.759 102.664 559.057 103.415C586.96 105.251 605.698 122.917 620.479 145.082C630.893 160.681 637.913 178.137 646.348 194.83C655.059 212.042 663.892 229.178 676.274 244.157C676.506 244.445 676.661 244.832 676.948 245.02C687.915 252.04 687.528 262.498 685.527 273.42C683.78 282.972 685.527 292.49 686.4 301.909C688.733 327.015 695.189 351.568 697.676 376.63C699.887 398.364 698.019 419.889 686.19 439.312C681.04 447.849 674.002 455.091 665.617 460.483C663.151 462.075 661.991 463.744 663.052 466.806C672.946 495.549 665.009 520.799 647.741 544.103C637.725 557.613 625.122 568.701 613.116 580.353C596.887 596.095 579.796 611.307 568.487 631.129C562.606 641.432 555.906 646.606 544.166 649.071C519.966 654.167 498.707 667.013 476.973 678.356C460.766 686.813 444.913 696.044 426.75 700.024C419.144 701.726 411.45 703.208 407.448 703.075ZM403.413 694.231C410.996 694.452 418.326 692.949 425.655 691.235C442.846 687.2 457.87 678.29 473.281 670.23C496.021 658.402 518.43 645.666 543.635 639.796C551.374 637.994 555.972 634.655 559.974 627.812C571.77 607.592 588.939 591.806 605.4 575.5C616.886 564.124 629.223 553.522 639.173 540.698C656.142 518.82 664.456 494.941 653.965 467.514C651.753 461.743 652.461 458.283 658.099 454.834C680.43 441.17 688.545 419.811 689.363 394.783C690.269 367.267 681.801 340.956 678.96 313.915C677.401 299.002 675.168 284.155 676.882 269.02C677.313 265.239 679.524 260.696 675.953 257.048C663.593 244.434 654.683 229.41 646.314 214.11C635.801 194.808 627.521 174.312 616.399 155.352C606.649 138.77 594.19 124.818 576.181 116.659C565.867 111.961 555.033 110.922 543.978 111.53C539.909 111.751 538.108 110.424 537.102 106.5C535.869 101.352 534.151 96.333 531.972 91.5092C522.266 71.1679 504.699 60.555 484.159 53.922C462.104 46.8578 438.888 45.8518 416.281 41.872C396.813 38.4449 377.444 34.6862 359.458 26.0633C358.443 25.4867 357.293 25.1928 356.126 25.2123C354.959 25.2317 353.819 25.5638 352.825 26.1738C344.951 30.032 336.696 33.059 328.194 35.2058C301.153 42.6237 273.151 44.5031 245.701 49.5774C211.596 55.8566 183.793 70.195 174.385 107.152C173.534 110.469 171.809 111.298 168.57 111.265C161.793 111.198 154.972 110.657 148.24 111.994C127.666 116.096 113.195 129.019 101.377 145.303C88.8189 162.615 81.0915 182.603 71.352 201.463C61.2476 221.074 50.7674 240.41 35.3788 256.55C34.8194 257.013 34.389 257.612 34.1295 258.29C33.8699 258.968 33.79 259.701 33.8974 260.419C35.3219 270.383 35.6925 280.47 35.0029 290.511C34.0301 309.382 30.7799 327.9 27.6403 346.45C24.777 363.353 21.1509 380.101 22.367 397.502C24.0584 421.602 32.8583 441.534 53.9845 454.701C58.5944 457.586 59.6999 460.56 57.4889 465.833C48.1363 488.286 52.1051 509.479 64.3652 529.71C74.8011 546.933 89.9355 559.956 104.053 573.863C122.924 592.447 142.093 610.754 154.906 634.379C155.374 635.257 156.054 636.004 156.884 636.552C157.714 637.101 158.669 637.433 159.66 637.519C176.961 640.559 193.013 647.214 208.612 654.908C228.312 664.626 247.658 675.084 267.402 684.679C280.64 691.12 295.224 694.308 309.942 693.977C325.287 693.678 338.873 687.764 350.525 677.836C354.107 674.774 356.595 674.752 360.198 677.836C372.558 688.482 386.819 694.552 403.413 694.231Z" fill="#254166"/>
<path d="M564.319 243.096C564.783 256.075 569.05 267.417 573.163 278.815C577.872 291.904 584.218 304.43 586.086 318.492C587.7 330.884 586.219 342.669 580.017 353.658C578.911 355.581 577.806 357.129 579.199 359.638C588.198 375.934 587.214 392.804 581.52 409.784C576.91 423.515 570.465 436.582 566.43 450.533C564.219 458.272 562.008 466.099 562.97 474.324C563.066 474.669 563.092 475.031 563.045 475.386C562.999 475.742 562.882 476.085 562.7 476.394C562.519 476.704 562.277 476.973 561.989 477.187C561.701 477.402 561.373 477.555 561.024 477.64C552.722 480.957 546.885 487.358 540.948 493.648C530.203 505.035 521.956 518.5 511.011 529.71C499.525 541.483 486.049 548.967 469.113 548.824C467.388 548.824 465.94 549.023 464.989 550.836C454.033 571.641 435.14 578.882 413.273 581.447C400.833 582.731 388.498 584.888 376.361 587.903C368.832 589.882 361.668 592.602 355.356 597.201C349.083 593.061 342.169 589.987 334.893 588.102C320.245 584.355 305.166 583.205 290.341 580.607C271.061 577.224 254.6 569.331 244.75 551.3C244.435 550.652 243.923 550.12 243.288 549.781C242.653 549.441 241.926 549.311 241.213 549.41C221.457 549.332 206.632 539.537 194.262 525.21C184.18 513.525 175.369 500.767 164.247 489.944C159.062 484.892 150.627 482.206 147.665 477.054C144.702 471.903 146.703 463.324 144.768 456.426C140.855 442.43 134.819 429.219 129.479 415.754C123.708 401.261 121.188 386.513 125.345 371.069C126.837 365.542 131.9 360.81 131.734 355.592C131.569 350.54 127.644 345.543 126.605 340.115C124.106 327.081 126.284 314.545 130.618 302.219C135.792 287.526 142.192 273.254 145.553 257.943C146.946 251.62 145.177 244.168 147.62 239.149C149.887 234.517 157.57 232.516 162.069 228.006C172.141 217.957 180.388 206.449 188.889 195.128C196.373 185.179 204.753 176.257 215.985 170.464C223.31 166.539 231.509 164.527 239.82 164.616C242.031 164.616 244.032 164.815 245.458 162.339C256.203 143.8 273.759 136.525 293.779 133.397C308.151 131.186 322.611 129.859 336.64 125.857C342.499 124.188 348.203 122.187 353.222 118.671C354.328 117.864 355.301 116.737 357.003 118.03C369.308 127.328 384.221 128.477 398.626 131.064C410.001 133.109 421.642 133.728 432.708 137.498C445.831 141.92 456.764 149.272 464.094 161.3C465.122 162.991 466.061 163.964 468.372 163.82C487.166 162.571 501.802 170.896 514.107 184.073C525.162 195.902 533.674 209.854 544.84 221.66C550.036 227.188 555.342 232.627 562.34 235.744C566.961 237.734 563.556 241.139 564.319 243.096ZM487.033 361.474V360.368H405.966C403.247 360.368 400.604 359.76 400.195 364.105C399.09 376.088 393.109 385.607 383.756 392.947C381.346 394.838 381.07 396.131 382.596 398.718C410.182 445.783 437.698 492.878 465.144 540.002C465.603 540.978 466.36 541.785 467.304 542.307C468.249 542.829 469.335 543.04 470.406 542.909C480.575 542.539 490.421 539.242 498.762 533.413C506.656 528.051 512.371 520.589 518.109 513.171C526.323 502.547 534.581 491.968 544.353 482.692C548.101 479.133 554.004 477.297 556.271 473.329C558.659 469.139 557.531 463.003 558.725 457.774C562.461 441.391 569.537 426.223 575.595 410.691C581.653 395.158 581.233 380.3 574.324 365.288C572.931 362.27 571.239 361.396 568.066 361.407C541.048 361.573 514.062 361.474 487.033 361.474ZM355.19 124.807C354.383 125.216 353.554 125.603 352.758 126.056C345.097 130.301 336.761 132.689 328.26 134.182C316.155 136.393 303.939 138.062 291.778 140.052C275.019 142.805 261.454 150.731 251.671 164.848C250.001 167.269 249.813 169.204 251.35 171.846C278.619 218.874 305.822 265.954 332.958 313.086C334.617 315.96 335.932 316.236 338.906 314.976C343.9 312.802 349.281 311.654 354.728 311.601C360.174 311.547 365.576 312.59 370.612 314.667C374.614 316.27 376.062 315.529 378.085 312.024C403.379 268.084 428.773 224.203 454.266 180.381C461.507 167.9 461.374 166.617 451.115 156.06L450.728 155.673C439.894 144.341 425.832 140.892 410.93 138.803C392.424 136.216 373.52 134.989 356.638 125.614C356.229 125.327 355.743 125.094 355.19 124.807ZM222.74 361.197V360.368C195.721 360.368 168.702 360.468 141.695 360.269C137.527 360.269 135.526 361.639 133.956 365.376C127.788 380.234 128.009 394.915 133.835 409.828C139.827 425.184 146.714 440.208 150.97 456.26C152.584 462.351 150.97 469.714 154.055 474.379C157.283 479.31 164.148 482.007 168.691 486.595C179.968 497.993 189.221 511.093 199.358 523.441C206.931 532.672 216.272 539.151 227.869 542.235C241.268 545.795 242.727 545.187 249.625 533.391L250.466 531.976C275.848 488.323 301.264 444.674 326.712 401.029C328.658 397.712 329.156 395.833 325.463 393.102C316.486 386.469 311.501 377.05 309.986 366.117C309.411 362.115 308.35 361.065 304.359 361.098C277.142 361.286 249.946 361.197 222.74 361.197ZM485.695 354.841V355.106C512.349 355.106 539.003 355.106 565.656 355.183C568.973 355.183 570.908 354.299 572.665 351.347C581.675 336.301 581.874 320.846 575.683 304.839C569.492 288.831 561.057 273.254 558.67 256.196C557.166 245.451 553.142 238.508 544.63 231.997C533.376 223.285 525.582 211.125 516.749 200.07C510.68 192.475 504.754 184.692 496.706 178.955C489.155 173.56 480.831 170.685 471.412 171.216C468.35 171.404 466.548 172.72 464.978 175.417C437.753 222.239 410.432 269.005 383.016 315.717C381.335 318.591 381.114 320.139 384.121 322.35C388.644 325.698 392.412 329.959 395.181 334.858C397.95 339.756 399.659 345.182 400.195 350.783C400.627 354.807 402.749 354.83 405.723 354.819C432.388 354.76 459.045 354.767 485.695 354.841ZM460.998 547C460.456 545.894 460.036 544.877 459.495 543.948C431.997 496.633 404.511 449.31 377.035 401.979C375.697 399.68 374.669 398.994 371.95 400.166C366.724 402.49 361.073 403.707 355.354 403.739C349.634 403.771 343.97 402.619 338.718 400.354C335.612 399.061 334.362 399.647 332.782 402.444C305.962 449.929 279.061 497.362 252.08 544.744C250.399 547.696 250.875 549.642 252.732 552.118C261.54 564.14 274.663 572.283 289.346 574.836C305.752 577.987 322.511 578.916 338.685 583.614C344.124 585.195 366.323 585.217 371.718 583.68C385.923 579.623 400.571 578.153 415.098 575.942C432.786 573.344 447.622 565.871 458.367 551.212C459.329 549.907 460.114 548.47 460.998 547ZM223.823 353.061V354.432C250.853 354.432 277.893 354.432 304.923 354.509C308.239 354.509 309.433 353.912 309.92 350.209C310.56 344.71 312.32 339.401 315.092 334.609C317.865 329.817 321.59 325.645 326.038 322.35C328.946 320.139 328.923 318.602 327.243 315.717C299.974 268.902 272.742 222.04 245.546 175.13C244.087 172.609 242.606 171.57 239.477 171.813C226.316 172.664 213.888 178.175 204.421 187.356C197.788 193.569 192.725 201.054 187.12 208.096C179.227 218.045 171.698 228.481 161.229 235.8C155.459 239.835 151.976 243.848 152.551 251.1C152.75 253.554 151.633 256.119 151.048 258.617C147.267 274.603 140.048 289.339 134.465 304.684C128.882 320.028 128.937 334.875 136.787 349.457C138.124 351.966 139.606 353.171 142.712 353.16C169.775 353.005 196.782 353.061 223.823 353.061ZM316.265 357.77C316.265 379.162 334.009 396.916 355.168 396.728C362.888 396.748 370.44 394.476 376.868 390.2C383.296 385.925 388.311 379.838 391.277 372.71C394.243 365.583 395.027 357.735 393.529 350.162C392.032 342.588 388.321 335.63 382.866 330.167C377.411 324.704 370.457 320.983 362.886 319.475C355.315 317.967 347.466 318.74 340.334 321.696C333.203 324.652 327.109 329.658 322.824 336.079C318.539 342.501 316.257 350.05 316.265 357.77Z" fill="#254166"/>
<path d="M212.812 123.071C212.812 116.438 210.911 111.895 209.639 107.263C208.722 103.946 210.093 102.774 212.514 101.227C215.112 99.5684 216.361 100.696 217.975 102.498C221.38 106.279 224.962 109.916 229.594 114.802C229.041 108.656 227.25 104.388 225.758 100.143C224.265 95.8982 224.652 93.057 229.97 92.1726C232.568 101.426 235.155 110.767 237.83 120.087C238.604 122.773 236.791 123.503 235.088 124.674C233.043 126.078 231.772 125.305 230.412 123.812C227.007 120.197 223.536 116.671 220.064 113.133C219.092 112.149 218.395 110.557 216.438 111.232C217.875 116.759 219.158 122.364 220.86 127.814C221.756 130.755 221.303 132.358 218.495 134.049C215.687 135.741 214.614 133.972 213.144 132.369C207.683 126.421 202.177 120.518 196.771 114.526C195.865 113.52 193.455 112.315 195.964 110.69C197.612 109.584 199.38 107.727 201.58 110.391C204.842 114.404 208.412 118.163 212.812 123.071ZM213.044 123.071C213.166 122.939 213.387 122.806 213.398 122.674C213.409 122.541 213.188 122.386 213.067 122.253L212.669 122.839L213.044 123.071Z" fill="#254166"/>
<path d="M86.1435 282.319C90.3334 283.624 94.5012 285.039 98.7352 286.211C100.946 286.819 101.72 287.769 101.046 290.102C100.316 292.623 98.9453 292.578 96.9112 291.904C89.4269 289.417 81.9094 287.04 74.4252 284.574C72.6674 284 69.7489 283.911 71.2303 280.893C72.4131 278.505 71.1087 274.05 76.1719 274.415C81.5667 274.802 86.9727 274.923 93.473 275.211C88.8741 270.789 84.231 268.323 79.7648 265.759C74.8232 262.918 78.2613 259.789 78.9467 256.915C79.8864 253.012 82.5396 255.699 84.1978 256.185C91.4057 258.308 98.5694 260.74 105.689 262.995C107.756 263.647 109.459 264.178 108.508 267.096C107.557 270.015 105.954 269.54 103.909 268.744C99.5533 267.041 94.9876 266.334 88.9073 265.294C93.9373 268.401 97.6629 270.623 101.3 273.033C103.279 274.315 105.987 274.791 104.793 278.682C103.599 282.573 100.913 280.993 98.6689 281.214C97.9373 281.188 97.2139 281.05 96.5242 280.805C95.3192 279.622 93.9705 279.987 92.6218 280.473L87.0169 280.208C85.2481 279.777 83.4571 279.235 81.5999 280.484C82.1387 281.151 82.8387 281.67 83.6337 281.991C84.4288 282.312 85.2926 282.425 86.1435 282.319Z" fill="#254166"/>
<path d="M557.863 593.629C552.999 591.418 549.251 585.305 544.497 585.891C540.131 586.388 536.305 591.529 531.673 595.055C531.673 590.324 533.387 586.576 534.592 582.784C535.565 579.678 535.045 577.677 532.071 575.985C528.755 574.106 525.847 571.707 521.337 568.534C527.152 568.28 531.286 567.893 535.355 567.993C538.107 568.07 539.213 567.009 539.832 564.466C540.871 560.254 542.253 556.119 543.845 550.725C545.636 555.843 547.162 559.646 548.267 563.582C549.096 566.589 550.6 567.628 553.717 567.374C557.509 567.053 561.334 567.296 565.822 567.296C563.202 571.199 559.466 573.155 556.304 575.621C554.093 577.367 553.662 578.827 554.524 581.612C555.762 585.614 558.714 589.229 557.785 593.773L557.863 593.629Z" fill="#254166"/>
<path d="M190.979 595.1C185.75 591.64 181.892 587.362 177.436 586.599C172.705 585.814 169.698 591.872 165.475 594.172C164.821 594.404 164.134 594.534 163.441 594.559C163.319 594.061 163.12 593.74 163.208 593.53C168.526 580.187 168.526 580.187 157.394 572.15C156.542 571.531 155.779 570.801 153.944 569.265C158.952 568.999 162.788 568.557 166.691 568.679C169.853 568.778 171.257 567.739 171.887 564.566C172.705 560.476 174.186 556.518 175.502 552.085C178 555.965 178.94 560.122 180.145 564.058C181.14 567.308 182.699 568.48 186.015 568.159C189.807 567.861 193.632 568.093 198.419 568.093C194.815 571.022 191.786 573.775 188.469 576.119C185.893 577.932 185.44 579.789 186.634 582.652C188.171 586.322 189.276 590.17 190.979 595.1Z" fill="#254166"/>
<path d="M617.118 446.354C622.192 447.946 626.88 449.56 631.644 450.854C633.999 451.495 634.519 452.534 633.855 454.801C633.192 457.067 631.843 457.266 629.787 456.614C622.436 454.281 615.007 452.192 607.677 449.748C606.096 449.229 602.979 449.859 603.598 446.576C604.029 444.265 604.703 442.043 607.71 441.413C612.199 440.473 616.554 439.202 621.043 437.942C622.557 437.533 624.359 437.588 625.675 435.642C621.341 434.271 617.162 433.011 613.028 431.629C611.038 430.955 607.987 431.452 609.346 427.307C610.574 423.57 612.663 425.394 614.465 425.925C621.71 428.025 628.918 430.236 636.089 432.558C637.647 433.044 640.212 432.823 639.571 435.697C639.096 437.798 638.676 439.854 635.812 440.44C630.959 441.424 626.194 442.85 621.441 444.166C620.048 444.486 618.412 444.32 617.118 446.354Z" fill="#254166"/>
<path d="M630.727 303.899C626.305 304.673 622.004 305.425 617.748 306.11C615.537 306.475 613.149 307.769 612.398 303.899C611.646 300.03 614.609 300.693 616.4 300.34C623.596 298.936 630.837 297.697 638.09 296.581C639.648 296.338 641.87 294.48 642.843 297.123C643.717 299.499 644.015 301.965 641.395 304.032C637.504 307.083 633.911 310.521 630.229 313.849C629.478 314.534 628.273 314.954 628.394 316.778C633.281 317.11 637.891 315.352 642.633 314.766C644.546 314.534 646.016 314.004 646.525 316.867C647.033 319.73 645.861 320.338 643.495 320.736C635.901 321.985 628.328 323.434 620.722 324.683C619.174 324.937 617.063 326.562 616.123 323.732C615.36 321.444 614.808 319.31 617.229 317.32C620.667 314.578 623.862 311.583 627.112 308.553C628.405 307.304 630.318 306.586 630.727 303.899Z" fill="#254166"/>
<path d="M570.687 532.175C574.545 535.171 578.326 538.256 582.272 541.119C584.229 542.545 584.262 543.684 582.902 545.541C581.322 547.752 580.094 547.044 578.48 545.751C572.256 540.887 565.933 536.166 559.753 531.247C558.648 530.373 556.182 529.788 557.398 527.61C558.504 525.631 559.609 523.42 562.76 523.829C568.862 524.614 575.009 525.056 582.272 525.752C578.403 521.22 574.335 518.821 570.653 515.98C568.774 514.532 568.011 513.415 569.78 511.138C571.549 508.86 572.632 509.888 574.202 511.082C580.293 515.825 586.462 520.446 592.509 525.233C593.758 526.228 596.423 526.747 595.207 529.235C594.168 531.391 592.775 533.159 589.679 532.739C583.533 531.888 577.342 531.413 571.173 530.782C570.996 531.269 570.841 531.722 570.687 532.175Z" fill="#254166"/>
<path d="M78.9246 379.527C81.0926 376.504 83.8349 373.939 86.9948 371.976C88.3657 371.125 89.8913 368.14 91.2731 370.031C92.655 371.921 93.3847 375.182 90.5103 377.415C88.0451 379.317 85.6682 381.351 83.2693 383.352C81.3457 384.955 79.6985 386.945 80.605 389.487C81.7105 392.561 84.419 390.118 86.2984 390.648C88.8852 391.367 93.2299 387.42 93.8711 393.512C94.1032 395.612 93.5726 396.485 91.3947 396.673C82.9782 397.373 74.5763 398.151 66.1892 399.006C63.7571 399.26 62.8727 398.265 62.7179 396.021C62.4526 391.997 62.0878 387.973 61.8335 383.949C61.524 379.251 62.1652 374.994 67.5269 373.391C72.8886 371.788 76.2825 374.176 78.9246 379.527ZM67.0073 385.795C68.0244 388.271 65.6807 393.368 72.2916 392.24C78.2724 391.212 74.8343 387.398 74.8564 384.789C74.8564 381.97 74.0825 378.996 70.2575 379.538C66.8857 379.98 66.8967 382.799 67.0073 385.795Z" fill="#254166"/>
<path d="M600.756 224.479C596.489 226.557 592.2 228.592 587.988 230.758C586.285 231.632 585.124 232.019 584.074 229.808C583.146 227.829 582.891 226.635 585.18 225.463C592.067 222.014 598.8 218.266 605.698 214.828C607.224 214.076 608.86 211.512 610.85 213.8C612.839 216.088 613.16 218.344 611.214 221.207C607.898 226.038 605.167 231.245 601.707 237.104C607.356 236.076 611.214 232.87 615.57 230.858C617.405 230.007 618.887 228.647 620.357 231.599C621.672 234.23 620.556 235.103 618.489 236.153C611.612 239.636 604.847 243.328 597.937 246.733C596.622 247.374 595.041 249.895 593.305 247.352C592.023 245.451 590.63 243.593 592.366 240.907C595.682 235.822 598.501 230.482 601.53 225.253C601.608 224.833 601.685 224.413 601.773 223.993L600.756 224.479Z" fill="#254166"/>
<path d="M448.672 630.576C453.318 633.049 457.491 636.324 460.999 640.249C456.942 643.3 453.537 642.725 450.154 639.42C448.117 637.564 445.894 635.923 443.521 634.522C442.735 634.016 441.812 633.767 440.878 633.811C439.945 633.854 439.048 634.188 438.314 634.766C436.788 635.948 438.181 637.43 438.546 638.745C438.924 640.536 439.461 642.29 440.149 643.985C441.387 646.539 440.414 647.49 438.015 648.286C435.616 649.082 434.831 648.452 434.135 646.152C431.747 638.274 429.215 630.436 426.54 622.638C425.689 620.151 426.175 619.012 428.751 618.316C432.466 617.299 436.081 615.939 439.806 614.833C444.228 613.485 448.573 613.087 451.591 617.663C454.255 621.831 453.514 625.291 448.672 630.576ZM446.627 624.208C446.428 621.444 445.367 619.399 443.023 619.841C439.707 620.471 435.285 619.985 433.825 623.854C433.372 625.059 433.637 629.979 436.998 629.382C440.58 628.818 445.19 628.519 446.627 624.208Z" fill="#254166"/>
<path d="M641.262 356.986C639.504 354.034 638.731 351.458 642.125 348.893C644.336 347.202 644.159 344.317 643.473 341.719C643.113 340.083 642.232 338.608 640.962 337.515C639.692 336.423 638.102 335.772 636.431 335.661C631.766 335.108 627.045 335.318 624.027 339.674C621.816 342.813 622.247 346.307 623.972 349.623C624.801 351.237 625.84 352.343 627.819 351.934C629.964 351.491 629.422 349.811 629.356 348.418C629.267 346.616 628.571 344.781 631.567 344.494C635.027 344.173 634.176 346.705 634.574 348.407C634.591 348.591 634.591 348.776 634.574 348.96C635.315 357.87 632.363 360.501 623.519 358.545C622.846 358.367 622.225 358.034 621.706 357.572C616.609 353.15 615.637 340.702 619.904 335.019C624.58 328.784 635.491 326.927 642.412 331.205C648.735 335.119 651.256 344.814 647.774 351.724C647.163 353.04 646.259 354.2 645.13 355.112C644.001 356.024 642.678 356.665 641.262 356.986Z" fill="#254166"/>
<path d="M592.974 474.578C593.206 467.525 595.605 461.456 602.171 458.172C608.418 455.055 614.465 456.923 619.771 460.825C628.615 467.304 627.311 482.25 617.66 486.738C615.548 487.711 612.408 489.115 611.259 486.827C610.109 484.539 611.259 481.653 614.929 480.901C618.157 480.238 619.462 477.43 619.97 474.335C620.578 470.598 618.931 467.823 615.902 465.977C612.077 463.633 607.997 461.743 603.487 464.241C600.071 466.132 599.065 469.382 598.833 473.085C598.706 473.91 598.887 474.752 599.342 475.452C599.797 476.151 600.493 476.659 601.298 476.877C603.609 477.651 603.399 475.462 604.183 474.478C605.134 473.284 604.747 470.598 607.776 471.869C610.618 473.052 610.087 474.666 609.003 476.645C608.838 476.966 608.749 477.331 608.605 477.673C605.046 485.876 602.415 486.517 594.853 481.122C592.299 479.298 593.449 476.811 592.974 474.578Z" fill="#254166"/>
<path d="M386.631 87.4189C387.217 80.9627 387.671 75.9658 388.146 70.9689C388.345 68.9569 388.245 66.8896 391.407 67.1328C394.359 67.365 394.392 68.9016 394.138 71.2232C393.331 78.6964 392.833 86.2028 391.927 93.665C391.728 95.3343 392.822 98.1865 389.616 98.3855C386.93 98.5624 384.829 97.7996 383.547 94.881C381.064 89.2211 378.063 83.8032 374.581 78.6964C374.058 83.5828 373.542 88.4728 373.034 93.3665C372.846 95.2237 372.879 96.882 369.993 96.683C367.108 96.484 366.898 95.0026 367.141 92.7032C367.926 85.042 368.567 77.3698 369.352 69.7087C369.518 68.0393 368.877 65.5851 371.563 65.4746C373.907 65.3861 376.063 65.6736 377.312 68.5479C379.976 74.4955 383.072 80.2441 386.631 87.4189Z" fill="#254166"/>
<path d="M288.915 652.156C282.106 651.923 276.158 650.044 273.239 643.588C270.321 637.132 271.426 630.543 275.771 624.883C281.951 616.846 297.218 618.449 300.91 627.448C301.496 628.874 303.364 631.129 300.623 631.991C298.876 632.533 296.322 633.097 295.095 630.101C292.973 624.949 288.628 624.385 284.04 625.933C279.673 627.403 276.877 635.717 278.745 640.857C280.492 645.644 284.361 646.805 288.982 646.285C290.828 646.086 292.752 645.733 292.951 643.289C293.161 640.658 290.872 641.266 289.501 640.736C288.131 640.205 286.185 640.216 286.892 637.585C287.545 635.142 288.805 634.777 290.872 635.507C291.236 635.604 291.605 635.677 291.978 635.728C301.518 637.784 302.381 639.343 298.379 648.397C296.477 652.653 292.243 651.592 288.915 652.156Z" fill="#254166"/>
<path d="M581.167 173.217C581.255 181.199 575.639 188.395 568.719 191.159C562.694 193.558 558.393 192.265 553.242 186.461C545.592 177.86 545.592 177.86 554.347 170.121C558.482 166.495 562.594 162.858 566.751 159.265C567.635 158.503 568.774 156.8 569.891 158.16C574.246 163.422 580.393 167.535 581.167 173.217ZM575.296 174.51C575.053 171.304 572.743 168.441 569.979 166.551C567.834 165.091 566.508 168.275 564.949 169.502C561.942 171.879 559.233 174.643 556.215 176.998C554.237 178.534 554.292 179.784 555.895 181.42C558.272 183.874 560.14 187.179 564.451 186.041C568.763 184.902 574.976 178.534 575.296 174.51Z" fill="#254166"/>
<path d="M75.3873 343.255C76.327 341.453 73.4747 337.816 77.6646 336.865C83.4243 335.549 88.8192 337.44 90.4 341.199C93.3628 348.252 93.7166 355.216 88.4433 361.396C84.3198 366.227 75.6968 367.51 68.9532 364.713C59.5564 360.821 56.6821 346.229 64.1443 339.739C65.6146 338.468 67.7703 336.047 69.6497 338.258C70.8215 339.695 71.2858 342.359 68.6769 344.504C67.8132 345.185 67.0947 346.033 66.5635 346.996C66.0323 347.959 65.6992 349.019 65.5839 350.113C65.4685 351.207 65.5732 352.313 65.8917 353.366C66.2102 354.419 66.7362 355.398 67.4387 356.245C70.5783 360.081 79.5108 360.744 83.756 357.461C86.9951 354.951 87.8463 349.059 85.6464 345.411C85.375 344.835 84.9368 344.354 84.3887 344.031C83.8407 343.708 83.2081 343.557 82.5731 343.598C81.1691 343.653 80.8706 344.57 80.6053 345.742C80.1741 347.688 81.7108 351.104 77.4325 350.463C73.1542 349.822 76.2275 346.627 75.4204 344.769C75.3353 344.269 75.3241 343.759 75.3873 343.255Z" fill="#254166"/>
<path d="M253.561 608.72C262.35 608.808 269.514 615.651 269.304 623.755C269.05 633.627 262.295 641.299 253.915 641.244C245.237 641.177 238.129 634.765 238.062 626.938C237.974 617.354 245.425 608.642 253.561 608.72ZM254.501 614.524C249.438 614.524 244.552 620.582 244.552 627.027C244.538 629.245 245.388 631.381 246.921 632.984C248.454 634.586 250.549 635.531 252.766 635.617C258.006 635.749 263.146 629.293 263.003 622.76C262.965 620.541 262.048 618.428 260.455 616.884C258.861 615.34 256.72 614.491 254.501 614.524Z" fill="#254166"/>
<path d="M636.597 371.644C639.914 379.206 650.969 381.782 647.232 393.014C644.192 389.697 641.428 386.856 638.952 383.816C637.128 381.605 635.569 381.273 633.015 382.854C627.908 386.005 622.557 388.768 617.184 391.775C615.847 386.193 617.494 382.81 622.579 381.207C624.164 380.716 625.658 379.969 627.001 378.996C628.46 377.89 631.877 378.067 631.058 375.591C630.71 374.343 629.999 373.227 629.014 372.384C628.03 371.542 626.818 371.011 625.531 370.859C623.884 370.749 622.214 370.627 620.578 370.638C618.047 370.638 618.135 369.046 618.367 367.322C618.599 365.597 618.434 364.005 621.009 364.182C629.61 364.845 638.211 365.398 646.812 365.951C648.901 366.083 649.642 367.056 649.542 369.124C649.443 371.191 648.824 372.606 646.314 372.374C643.142 372.009 640.09 371.865 636.597 371.644Z" fill="#254166"/>
<path d="M133.338 533.346C126.108 529.687 116.014 535.093 111.659 524.093C116.081 524.613 119.939 524.867 123.753 525.597C126.671 526.161 128.031 525.387 128.96 522.49C130.784 516.753 133.039 511.159 135.206 505.267C139.727 508.716 140.921 512.386 137.937 517.084C137.133 518.527 136.502 520.06 136.057 521.65C135.504 523.32 133.448 525.641 134.819 526.537C135.898 527.25 137.152 527.654 138.445 527.702C139.738 527.751 141.019 527.443 142.149 526.813C143.568 525.967 144.895 524.974 146.106 523.85C147.964 522.092 149.113 522.645 150.528 524.513C151.943 526.382 152.22 527.454 150.119 528.935C143.295 533.91 136.555 538.999 129.9 544.203C127.91 545.761 126.915 545.363 125.544 543.517C124.173 541.671 123.897 540.477 125.986 539.029C128.418 537.359 130.74 535.381 133.338 533.346Z" fill="#254166"/>
<path d="M317.062 93.4439C320.655 92.9685 323.938 92.5705 327.21 92.0952C329.278 91.7967 331.212 91.2661 331.632 94.4278C332.053 97.5895 329.841 97.1031 328.183 97.3353C323.275 98.0539 318.234 98.2971 313.458 99.3915C309.334 100.331 307.93 99.093 307.521 95.069C306.784 87.7579 305.83 80.4726 304.658 73.2131C304.172 70.2062 304.724 68.7911 307.975 68.5147C313.502 67.973 318.908 67.166 324.358 66.3701C326.039 66.1268 327.255 66.0826 327.42 68.2384C327.542 69.9961 327.752 71.4664 325.209 71.6986C321.561 72.0302 317.946 72.8041 314.298 73.1468C311.258 73.4011 311.534 75.1146 311.7 77.3367C311.877 79.8462 312.872 80.3989 315.182 79.9678C318.245 79.3819 321.373 79.1386 324.447 78.608C326.315 78.2874 327.531 78.3427 327.962 80.6753C328.393 83.0079 327.498 83.6491 325.475 83.8702C322.379 84.2129 319.306 84.8762 316.2 85.0642C313.093 85.2521 312.75 86.9767 313.237 89.4862C313.723 91.9957 313.613 94.6378 317.062 93.4439Z" fill="#254166"/>
<path d="M442.691 78.2205C439.021 80.4315 436.058 82.6425 432.896 84.1902C429.735 85.7379 428.883 87.7168 430.21 91.1217C432.255 96.395 433.891 101.834 435.815 107.539C430.575 107.837 427.181 106.433 426.54 100.839C426.35 99.0143 425.841 97.2369 425.036 95.588C424.207 93.9739 425.147 90.6574 422.461 90.9891C421.161 91.096 419.924 91.592 418.91 92.4123C417.897 93.2326 417.154 94.3393 416.778 95.588C416.309 96.9749 415.939 98.3935 415.673 99.8331C415.385 102.409 414.014 102.718 411.859 102.144C409.703 101.569 408.653 101.038 409.382 98.4181C411.649 90.3147 413.661 82.134 415.695 73.9643C416.236 71.7533 417.231 70.9131 419.586 71.6096C421.709 72.2286 422.748 73.102 422.051 75.4788C421.178 78.4195 420.515 81.4154 419.697 84.6656C427.59 83.0626 432.255 72.494 442.691 78.2205Z" fill="#254166"/>
<path d="M190.216 151.77C188.366 151.819 186.547 151.281 185.02 150.234C183.815 149.394 181.417 148.73 182.986 146.674C184.003 145.336 185.109 142.871 187.806 144.518C191.189 146.586 194.141 145.524 196.706 142.926C198.242 141.357 198.917 139.345 197.712 137.399C196.507 135.453 194.539 135.895 192.726 136.537C189.962 137.509 187.276 138.748 184.457 139.521C180.587 140.627 177.05 139.787 174.795 136.205C172.539 132.623 173.147 128.875 175.9 125.559C179.791 120.849 185.673 118.417 189.896 120.031C191.443 120.639 194.229 121.247 193.334 123.348C192.593 125.095 190.858 127.637 187.751 126.09C186.942 125.67 186.026 125.5 185.12 125.603C183.94 125.816 182.829 126.308 181.877 127.036C180.925 127.765 180.161 128.71 179.648 129.793C179.321 130.253 179.19 130.823 179.281 131.38C179.372 131.936 179.678 132.435 180.134 132.767C182.124 134.027 184.003 132.866 185.883 132.225C188.425 131.179 191.036 130.311 193.699 129.627C195.275 129.308 196.907 129.41 198.431 129.924C199.955 130.437 201.317 131.343 202.379 132.551C203.441 133.758 204.165 135.225 204.479 136.802C204.793 138.379 204.686 140.011 204.168 141.533C202.587 146.541 195.39 151.793 190.216 151.77Z" fill="#254166"/>
<path d="M107.956 518.179C106.662 518.29 106.408 517.24 105.977 516.51C102.948 511.491 99.9738 506.428 96.9558 501.387C96.005 499.817 95.607 498.645 97.6412 497.341C100.04 495.804 100.814 497.164 101.787 498.877C103.323 501.586 105.103 504.184 106.485 506.969C107.79 509.578 109.039 510.386 111.924 508.694C115.053 506.848 113.494 505.311 112.355 503.432C110.83 500.933 109.426 498.347 107.856 495.87C106.651 493.969 107.359 492.996 109.083 491.946C110.808 490.895 111.659 491.647 112.488 493.117C113.737 495.329 115.141 497.54 116.402 499.751C117.839 502.293 118.613 504.847 122.747 502.337C126.727 499.916 125.378 498.048 123.687 495.428C121.995 492.808 120.702 490.376 119.132 487.9C118.027 486.175 117.441 484.848 119.818 483.477C121.951 482.25 122.67 483.279 123.598 484.87C126.55 489.945 129.59 494.964 132.619 499.994C133.526 501.497 134.244 502.813 132.122 504.051C124.505 508.473 116.943 512.995 109.36 517.483C108.895 517.77 108.342 517.969 107.956 518.179Z" fill="#254166"/>
<path d="M466.117 87.707C472.064 87.707 478.51 91.709 479.626 96.33C480.113 98.3531 480.864 101.316 478.421 101.858C477.834 101.993 477.223 101.997 476.634 101.87C476.044 101.743 475.49 101.488 475.01 101.123C474.53 100.758 474.136 100.292 473.857 99.758C473.577 99.2239 473.418 98.6348 473.391 98.0325C473.126 94.6164 470.329 93.7873 467.532 93.2014C466.194 92.914 464.901 93.0577 464.215 94.4175C463.919 95.0001 463.846 95.6706 464.009 96.3034C464.172 96.9363 464.559 97.4881 465.1 97.8556C467.443 99.9118 469.909 101.835 472.219 103.925C475.967 107.319 476.851 111.376 474.331 115.831C471.91 120.098 468.052 121.093 463.453 120.12C456.289 118.595 451.292 113.985 451.292 108.479C451.292 106.91 450.684 104.279 453.503 104.444C455.25 104.555 457.826 104.699 457.627 107.761C457.506 108.879 457.73 110.007 458.267 110.994C458.804 111.982 459.63 112.782 460.634 113.288C463.287 114.737 466.316 116.119 468.505 112.946C470.694 109.773 467.466 108.524 465.675 106.81C463.53 105.085 461.486 103.239 459.55 101.283C458.393 100.072 457.66 98.5193 457.461 96.8569C457.261 95.1945 457.607 93.5123 458.445 92.0627C459.113 90.6303 460.211 89.4415 461.586 88.661C462.961 87.8805 464.544 87.5471 466.117 87.707Z" fill="#254166"/>
<path d="M361.978 64.2252C361.583 65.006 361.147 65.7661 360.674 66.5025C357.844 70.0401 352.228 72.8039 352.449 76.8943C352.67 80.9847 357.081 84.5333 359.502 88.4137C360.84 90.5252 362.874 92.2719 363.272 94.9804C358.518 96.4286 354.969 95.4999 352.98 90.6689C352.408 89.3099 351.633 88.0461 350.68 86.9212C349.254 85.2409 348.9 81.2389 346.435 82.2339C344.981 82.8645 343.767 83.9443 342.971 85.315C342.175 86.6858 341.84 88.2753 342.013 89.8508C342.201 92.2608 343.981 96.1522 338.696 95.9532C336.883 95.8758 336.076 95.5552 336.043 93.5653C335.874 84.7213 335.63 75.903 335.314 67.1106C335.225 64.5458 336.972 64.7227 338.63 64.5458C340.554 64.3468 341.792 64.7669 341.703 67.1216C341.582 70.3497 341.703 73.5778 341.703 77.7345C347.762 73.4009 350.028 66.8563 355.865 64.3247C357.424 63.6282 359.613 64.2252 361.978 64.2252Z" fill="#254166"/>
<path d="M153.889 153.86C153.062 153.681 152.202 153.727 151.399 153.994C150.596 154.26 149.879 154.737 149.323 155.375C147.82 156.955 145.885 158.835 147.477 161.09C149.069 163.345 151.147 161.599 152.861 160.747C155.492 159.454 157.902 157.663 160.599 156.635C166.934 154.225 173.059 158.724 172.981 165.479C172.882 173.217 162.932 180.868 156.012 178.369C154.519 177.838 151.744 177.595 152.784 175.053C153.491 173.306 154.586 170.874 157.692 172.189C161.771 173.925 164.325 171.548 166.26 168.353C166.745 167.669 166.99 166.843 166.956 166.005C166.922 165.167 166.611 164.364 166.072 163.721C164.8 162.107 163.142 162.395 161.594 163.179C158.82 164.583 156.189 166.297 153.358 167.601C149.478 169.381 145.753 169.028 142.9 165.556C140.048 162.085 140.457 158.337 142.9 154.877C145.587 151.074 148.771 147.636 153.878 147.481C156.166 147.404 159.505 147.614 159.406 150.455C159.387 151.098 159.209 151.725 158.888 152.282C158.566 152.839 158.112 153.307 157.565 153.644C157.018 153.982 156.396 154.178 155.754 154.216C155.113 154.254 154.472 154.131 153.889 153.86Z" fill="#254166"/>
<path d="M118.104 205.597C115.605 204.027 113.449 202.424 111.073 201.241C108.176 199.793 108.021 198.168 109.812 195.659C110.918 194.089 111.758 194.034 113.306 195.006C120.591 199.605 127.909 204.16 135.305 208.593C137.594 209.975 136.986 211.202 135.924 213.015C134.686 215.116 133.503 215.414 131.591 213.911C130.308 212.893 128.639 212.341 127.423 211.257C123.897 208.129 122.15 209.267 119.629 212.993C116.479 217.647 116.998 219.913 121.896 222.478C123.83 223.484 129.203 223.517 126.229 228.625C125.124 230.493 124.239 231.333 122.006 229.885C114.931 225.308 107.734 220.908 100.515 216.553C98.304 215.259 98.4699 214.032 99.6528 212.131C100.836 210.229 101.864 209.422 103.843 211.025C104.824 211.873 105.947 212.543 107.159 213.004C108.873 213.623 110.387 216.663 112.145 214.817C114.455 212.33 115.915 209.035 118.104 205.597Z" fill="#254166"/>
<path d="M395.542 656.843C390.014 659.054 386.465 657.65 384.155 652.896C383.508 651.573 382.662 650.358 381.645 649.292C380.308 647.932 379.722 644.561 377.787 645.401C376.496 645.922 375.404 646.84 374.669 648.022C373.934 649.205 373.593 650.59 373.697 651.979C373.73 652.161 373.73 652.349 373.697 652.531C372.956 654.952 376.715 659.319 370.8 659.507C365.483 659.684 367.959 655.229 367.628 653.128C366.522 646.429 366.345 639.608 365.77 632.842C365.571 630.554 365.206 628.652 368.678 628.354C372.149 628.055 371.74 630.056 371.994 632.024C372.282 634.755 372.547 637.485 372.868 640.625C379.832 636.977 380.352 624.838 391.495 626.862C390.224 630.753 387.239 633.307 384.774 636.093C382.486 638.679 382.563 640.515 384.774 643.046C388.488 647.324 391.783 651.968 395.542 656.843Z" fill="#254166"/>
<path d="M95.662 433.951C100.957 434.039 104.506 437.61 106.341 444.044C108.01 450.003 106.717 454.602 102.14 457C95.7725 460.317 88.6862 461.854 81.9648 464.286C79.6322 465.137 79.2784 463.578 78.6483 461.887C78.0181 460.195 77.8744 458.836 80.0965 458.117C85.5134 456.37 90.8641 454.436 96.2811 452.678C100.316 451.362 101.997 448.82 100.703 444.685C99.4096 440.551 96.2811 439.81 92.4118 441.192C87.0501 443.093 81.6221 444.796 76.2383 446.631C74.5247 447.217 73.4745 446.951 73.0654 444.973C72.7559 443.48 71.1087 441.656 73.585 440.838C81.0361 438.284 88.3104 435.134 95.662 433.951Z" fill="#254166"/>
<path d="M95.0759 304.994C96.0156 304.684 96.9773 304.994 96.7562 306.53C96.4909 308.41 97.1874 311.494 94.6558 311.594C88.0228 311.859 88.3323 316.48 87.4479 321.024C86.7956 324.451 87.68 326.297 90.7644 327.347C94.3352 328.563 93.8267 331.482 92.688 333.615C91.1182 336.534 89.2941 333.615 87.9343 332.852C80.8591 329.005 73.9276 324.915 66.9297 320.924C65.0172 319.819 63.0715 319.034 63.7458 316.027C64.3207 313.473 65.1056 311.914 68.002 311.306C76.9014 309.427 85.7786 307.183 95.0759 304.994ZM82.0641 322.604C82.0641 319.465 83.9655 315.905 82.4621 315.198C79.433 313.783 75.9396 315.651 72.3577 316.734C75.0662 319.465 78.3385 320.57 82.0641 322.604Z" fill="#254166"/>
<path d="M93.8599 399.062C95.8719 402.909 96.3141 405.761 92.0358 408.06C87.2379 410.636 91.2067 414.572 91.1956 417.866C91.1956 420.254 92.1795 422.288 95.0759 422.133C99.7854 421.89 100.261 424.997 100.382 429.22C89.9685 427.528 79.7094 425.903 69.4282 424.168C67.0071 423.759 67.383 421.448 66.8634 419.746C66.1559 417.535 67.593 416.429 69.2292 415.39C77.3878 410.117 85.447 404.689 93.8599 399.062ZM75.8733 418.795C77.5868 420.287 79.7094 420.11 81.644 420.199C83.0259 420.265 85.248 421.879 85.7344 419.37C86.065 417.557 85.7019 415.687 84.7173 414.13C83.247 412.206 81.8651 414.516 80.627 415.235C78.9466 416.219 76.9125 416.86 75.8733 418.795Z" fill="#254166"/>
<path d="M613.039 409.121C613.293 398.652 618.157 394.451 628.516 395.988C633.601 396.728 638.631 397.867 643.706 398.674C646.038 399.05 646.668 400.1 646.348 402.411C646.027 404.721 645.043 405.484 642.688 405.02C637.283 403.914 631.821 403.207 626.415 402.123C622.137 401.261 619.639 402.908 618.776 407.043C617.914 411.177 620.07 413.178 623.961 413.864C629.389 414.814 634.773 415.997 640.223 416.804C643.009 417.224 643.263 418.628 642.987 420.983C642.666 423.78 640.975 423.625 639.051 423.26C633.104 422.155 627.112 421.149 621.22 419.767C615.327 418.385 612.884 415.102 613.039 409.121Z" fill="#254166"/>
<path d="M138.865 208.217C133.791 199.528 128.916 190.96 123.786 182.514C122.382 180.193 122.813 178.623 124.339 176.622C125.864 174.621 127.39 174.543 129.557 175.218C137.782 177.771 146.051 180.148 154.276 182.702C155.547 183.1 158.322 182.702 157.294 185.223C156.598 186.925 155.791 189.534 152.684 188.926C150.639 188.517 148.428 186.339 146.537 188.075C144.138 190.286 142.359 193.16 140.291 195.725C139.186 197.074 139.971 198.257 140.8 199.174C143.917 202.667 142.613 205.376 138.865 208.217ZM132.055 182.636L131.37 182.017L131.237 183.343C132.498 185.554 133.747 187.765 135.04 189.921C135.571 190.816 136.223 192.132 137.395 190.805C138.567 189.479 140.358 187.666 140.546 185.93C140.734 184.194 138.169 184.316 136.754 183.819C135.339 183.321 133.625 183.023 132.055 182.636Z" fill="#254166"/>
<path d="M515.168 613.429C511.984 616.745 509.353 617.74 506.048 614.358C502.322 610.544 499.956 615.364 497.038 616.336C494.827 617.066 492.373 618.183 493.6 621.477C495.225 625.822 492.395 627.358 488.448 628.829C486.956 618.448 485.32 608.233 484.092 597.963C483.717 594.823 488.625 592.27 491.168 594.226C499.216 600.483 507.109 606.973 515.168 613.429ZM492.052 612.158C494.385 612.323 495.667 610.765 497.303 610.057C498.409 609.571 499.216 608.565 497.955 607.559C495.678 605.735 493.931 603.137 490.339 602.031C490.958 605.79 491.499 609.007 492.03 612.158H492.052Z" fill="#254166"/>
<path d="M564.507 198.467C574.59 196.145 584.406 193.934 594.234 191.59C596.291 191.104 597.275 192.022 598.214 193.569C599.154 195.117 600.558 196.355 599.121 198.467C593.328 206.913 587.646 215.447 581.908 223.971C578.216 221.085 577.486 218.532 580.405 214.607C583.456 210.517 578.194 208.394 576.966 205.243C576.137 203.099 574.501 201.927 572.168 203.032C568.078 204.912 566.022 202.911 564.507 198.467ZM591.382 199.163L590.476 198.179C587.436 199.163 583.699 199.406 581.632 201.396C580.416 202.557 583.644 205.354 585.324 207.808C587.524 204.658 589.448 201.905 591.382 199.163Z" fill="#254166"/>
<path d="M399.477 653.835C401.102 644.659 402.793 635.649 404.22 626.584C404.617 624.053 405.822 623.4 408.067 622.925C410.311 622.45 411.748 622.826 413.052 624.893C417.662 632.189 422.516 639.331 427.115 646.616C427.855 647.777 430.254 649.457 428.22 650.607C426.595 651.502 423.356 653.349 422.029 650.065C419.873 644.715 416.093 646.163 412.08 646.749C408.365 647.301 405.822 648.573 405.966 652.74C406.066 655.67 403.866 655.659 401.942 656.145C399.632 656.731 398.747 656.035 399.477 653.835ZM410.233 631.482C409.183 635.041 406.63 638.667 408.387 641.497C409.493 643.344 412.809 641.1 415.728 640.536L410.233 631.482Z" fill="#254166"/>
<path d="M105.855 232.804C110.056 232.804 114.279 232.627 118.457 232.903C119.718 232.992 122.493 231.997 122.172 234.517C121.918 236.474 121.597 239.382 118.082 239.326C116.18 239.326 113.66 237.911 112.41 239.857C110.587 242.812 109.103 245.965 107.988 249.254C107.336 251.078 109.348 252.139 110.531 253.112C112.742 254.947 112.167 256.683 111.194 258.905C110.089 261.315 109.293 261.016 107.778 259.413C101.355 252.626 94.9213 245.838 88.3656 239.183C86.6189 237.403 87.4591 235.921 88.1556 234.241C88.852 232.561 89.8802 231.19 92.1907 231.389C96.7454 231.765 101.322 231.92 105.888 232.163L105.855 232.804ZM94.9544 237.502C98.2709 240.918 100.062 244.567 103.467 245.02C104.749 245.186 106.142 241.217 106.43 238.387L94.9544 237.502Z" fill="#254166"/>
<path d="M589.547 480.569C595.671 488.441 601.707 496.267 607.821 503.973C609.39 505.941 609.003 507.411 607.931 509.401C606.859 511.391 605.422 512.098 603.089 511.689C594.61 510.23 586.097 508.992 577.662 507.522C576.38 507.289 573.594 508.107 574.346 505.465C574.821 503.719 575.451 500.347 578.425 501.364C586.363 504.083 586.595 496.876 589.536 493.194C590.752 491.691 589.69 490.364 588.607 489.369C585.025 486.119 586.274 483.41 589.547 480.569ZM600.966 504.603C599.032 502.193 597.285 499.938 595.439 497.771C594.952 497.196 594.179 496.113 593.349 497.296C592.244 498.921 590.542 500.678 590.497 502.414C590.453 504.15 593.018 503.907 594.521 504.106C596.445 504.371 598.313 505.388 600.966 504.603Z" fill="#254166"/>
<path d="M361.658 659.231C357.457 660.336 354.406 660.336 353.521 655.428C352.825 651.57 349.586 652.045 346.944 652.344C344.069 652.664 340.034 650.21 338.763 655.251C338.546 656.142 338.211 657.001 337.768 657.805C336.364 660.27 334.031 659.01 332.329 658.689C329.576 658.158 331.743 656.301 332.13 655.373C335.524 647.07 339.128 638.79 342.577 630.565C343.284 628.863 344.036 627.58 346.137 628.056C347.939 628.465 350.183 627.547 351.145 630.267C354.549 639.918 358.109 649.502 361.658 659.231ZM350.548 646.694C349.199 642.869 348.071 639.63 346.689 635.639C345.252 639.774 342.201 642.891 343.284 646.418C343.815 648.054 347.585 647.137 350.548 646.694Z" fill="#254166"/>
<path d="M270.785 109.241C267.535 111.873 264.616 113.199 261.941 109.12C260.161 106.411 257.928 107.008 255.828 108.346C253.053 110.115 247.746 109.253 248.399 114.747C248.951 119.335 246.254 120.274 242.075 120.905C242.075 110.645 242.075 100.607 242.075 90.5805C242.075 88.3695 243.181 87.3967 245.071 86.6228C246.962 85.849 248.388 85.6279 249.935 87.3193C256.756 94.6599 263.743 101.879 270.785 109.241ZM247.835 93.7644C247.835 97.5121 247.835 99.9995 247.835 102.487C247.835 104.974 248.454 105.571 251.052 104.698C255.12 103.371 256.248 101.879 252.522 98.7723C250.87 97.1782 249.305 95.4954 247.835 93.7312V93.7644Z" fill="#254166"/>
<path d="M518.761 120.031C518.814 121.696 518.432 123.345 517.653 124.817C516.874 126.289 515.725 127.533 514.319 128.426C512.913 129.318 511.299 129.829 509.635 129.908C507.971 129.987 506.316 129.631 504.832 128.875C504.31 128.688 503.821 128.419 503.384 128.079C498.442 123.425 495.347 125.448 493.003 130.81C492.041 133.021 490.936 134.447 488.061 132.545C485.441 130.81 486.315 129.516 487.498 127.659C491.765 121.026 496.032 114.393 500.122 107.594C501.515 105.295 502.687 104.51 505.119 106.29C508.226 108.567 511.587 110.502 514.804 112.635C516.065 113.401 517.097 114.492 517.793 115.792C518.489 117.093 518.823 118.557 518.761 120.031ZM507.861 123.889C509.002 123.89 510.099 123.45 510.923 122.661C511.747 121.872 512.235 120.795 512.283 119.655C512.515 117.654 507.065 112.381 505.164 112.967C502.3 113.851 500.465 117.256 500.742 119.169C501.327 122.253 505.13 123.038 507.861 123.889Z" fill="#254166"/>
<path d="M218.008 592.282C223.149 592.89 224.984 595.388 224.973 600.352C224.973 609.196 225.393 609.351 232.8 604.376C236.537 601.866 239.61 601.236 242.838 605.006C240.627 607.626 237.476 608.82 234.613 610.301C228.577 613.408 223.326 617.067 221.104 623.91C220.319 626.32 219.048 627.437 216.217 625.867C213.387 624.297 214.15 622.761 215.477 621.069C220.418 614.823 219.578 607.692 218.793 600.562C218.539 597.842 218.285 595.112 218.008 592.282Z" fill="#254166"/>
<path d="M307.742 625.215C317.614 623.778 315.757 633.672 319.814 637.774C325.088 635.386 325.342 624.828 335.236 628.819C331.809 633.031 328.935 637.254 325.364 640.77C321.207 644.871 321.539 650.067 320.82 655.031C320.511 657.242 319.814 657.993 317.736 657.518C316.221 657.186 313.756 657.407 314.552 654.931C317.869 644.429 311.943 636.226 308.096 627.492C307.887 626.999 307.721 626.489 307.598 625.967C307.554 625.801 307.665 625.613 307.742 625.215Z" fill="#254166"/>
<path d="M295.571 101.956C295.958 103.349 294.112 103.481 292.553 104.045C290.043 104.963 289.292 103.537 288.816 101.525C287.434 95.6433 285.732 89.8283 284.726 83.8365C284.085 80.0114 282.515 79.5692 279.198 80.52C277.606 80.9401 275.042 83.3501 274.091 79.2708C273.251 75.6226 275.937 75.9542 277.905 75.4568C283.045 74.1412 288.208 72.892 293.382 71.6759C295.239 71.2337 297.24 70.1393 298.18 73.2347C299.197 76.5512 296.776 76.6286 294.941 76.8165C290.519 77.2698 289.701 79.2597 290.928 83.339C292.674 89.1098 293.879 95.0463 295.571 101.956Z" fill="#254166"/>
<path d="M477.637 603.955C477.416 606.277 475.216 606.409 473.657 606.951C470.506 608.056 469.953 609.538 471.446 612.622C474.132 618.006 476.233 623.677 478.82 629.127C479.925 631.416 479.87 632.588 477.36 633.793C474.652 635.097 473.856 633.793 472.938 631.714C470.65 626.33 468.085 621.068 465.963 615.629C464.636 612.213 463.166 610.986 459.661 613.164C458.191 614.07 455.914 616.304 454.41 612.711C452.907 609.118 455.869 609.129 457.66 608.289C462.801 605.901 468.085 603.867 473.137 601.291C476.365 599.743 476.929 601.633 477.637 603.955Z" fill="#254166"/>
<path d="M628.715 255.113C631.357 255.036 630.793 257.324 631.468 258.629C632.474 260.53 631.059 261.105 629.522 261.625C623.795 263.559 618.168 265.792 612.376 267.462C608.926 268.457 607.788 269.761 609.435 273.221C610.607 275.676 611.171 278.417 612.099 280.96C612.785 282.861 612.42 283.89 610.352 284.686C607.965 285.592 607.544 284.232 607.036 282.607C605.356 277.577 603.653 272.558 601.984 267.528C601.608 266.423 600.547 264.941 602.404 264.278C611.159 261.171 619.993 258.153 628.715 255.113Z" fill="#254166"/>
<path d="M538.56 164.395C537.989 165.216 537.365 165.999 536.692 166.739C535.587 167.845 534.724 166.883 533.895 166.175C529.727 162.582 525.604 158.923 521.359 155.419C519.546 153.926 519.38 152.821 521.016 150.997C526.632 144.695 532.071 138.283 537.599 131.816C538.992 130.158 540.009 130.047 541.523 131.584C542.828 132.911 544.508 133.795 542.529 136.006C538.483 140.505 534.879 145.447 530.601 149.703C527.417 152.865 528.113 154.7 531.33 156.911C533.256 158.322 535.074 159.874 536.77 161.554C537.488 162.218 538.671 162.715 538.56 164.395Z" fill="#254166"/>
<path d="M109.514 458.814C111.338 458.571 111.725 459.92 112.189 461.025C114.4 465.834 116.49 470.721 118.822 475.452C120.005 477.785 119.154 478.614 117.131 479.521C109.613 482.892 102.129 486.33 94.7001 489.89C92.4891 490.918 91.5494 490.553 90.5987 488.298C89.6479 486.043 89.7032 484.982 92.0027 484.02C97.7071 481.544 103.29 478.769 109.005 476.281C111.813 475.076 112.532 473.695 110.907 470.909C109.436 468.399 108.574 465.536 107.148 462.993C105.545 460.097 107.889 459.732 109.514 458.814Z" fill="#254166"/>
<path d="M611.602 295.674C609.855 296.193 609.855 294.48 609.49 293.087C609.125 291.694 608.097 289.826 610.596 289.162C619.252 286.951 627.919 284.663 636.564 282.375C638.488 281.855 639.317 282.773 639.582 284.453C639.814 285.934 641.03 287.869 638.554 288.543C629.787 290.931 620.943 293.209 611.602 295.674Z" fill="#254166"/>
<path d="M184.622 157.895C184.511 159.587 182.974 160.106 182.002 161.212C180.664 162.627 179.791 161.776 178.884 160.714C173.08 154.081 167.276 147.448 161.417 140.815C159.759 138.947 160.886 137.908 162.279 136.802C163.385 135.918 164.369 134.448 165.894 136.194C171.945 143.115 177.992 150.039 184.036 156.967C184.26 157.257 184.456 157.568 184.622 157.895Z" fill="#254166"/>
<path d="M532.757 125.46C532.37 126.079 531.939 126.875 531.408 127.593C526.489 134.226 521.525 140.859 516.639 147.492C515.434 149.14 514.516 150.289 512.349 148.498C510.503 146.984 509.641 145.978 511.432 143.678C516.506 137.156 521.304 130.412 526.279 123.779C527.041 122.773 527.627 120.75 529.595 122.154C530.745 123.039 532.182 123.636 532.757 125.46Z" fill="#254166"/>
<path d="M398.095 96.4837C399.499 88.3914 400.992 80.0891 402.34 71.7646C402.794 68.9787 404.408 69.4099 406.364 69.6863C408.321 69.9626 409.106 70.8802 408.719 73.0028C407.194 81.3088 405.738 89.6222 404.352 97.943C403.954 100.353 402.838 100.784 400.572 100.441C398.117 100.043 397.443 98.9158 398.095 96.4837Z" fill="#254166"/>
<path d="M495.037 101.591C494.661 102.332 494.363 102.995 494.02 103.636C490.272 110.734 486.458 117.787 482.788 124.917C481.682 127.051 480.787 127.935 478.277 126.542C475.768 125.149 476.066 123.9 477.172 121.789C481.096 114.592 484.833 107.284 488.669 100.032C489.332 98.7942 489.907 97.0806 491.853 98.3851C493.158 99.2253 495.17 99.4685 495.037 101.591Z" fill="#254166"/>
<path d="M86.1435 282.319C85.2858 282.416 84.4175 282.291 83.6219 281.956C82.8264 281.621 82.1301 281.088 81.5999 280.406C83.4571 279.157 85.248 279.699 87.0168 280.13C86.3093 280.694 85.3696 281.158 86.1435 282.319Z" fill="#254166"/>
<path d="M92.6221 280.396C93.9708 279.91 95.3195 279.545 96.5245 280.728C95.9231 281.094 95.2207 281.259 94.5191 281.2C93.8175 281.14 93.1531 280.859 92.6221 280.396Z" fill="#254166"/>
<path d="M557.785 593.729L558.46 593.354L558.626 593.774C558.371 593.696 558.117 593.619 557.863 593.564L557.785 593.729Z" fill="#254166"/>
<path d="M213.034 123.038L212.669 122.817L213.067 122.231C213.188 122.363 213.398 122.507 213.398 122.651C213.398 122.795 213.166 122.916 213.034 123.038Z" fill="#254166"/>
<path d="M600.756 224.48L601.862 223.993C601.773 224.414 601.696 224.834 601.619 225.254L600.756 224.48Z" fill="#254166"/>
<path d="M131.238 183.343L131.37 182.017L132.056 182.636C131.812 182.904 131.538 183.141 131.238 183.343Z" fill="#254166"/>
<path d="M538.616 429.584C536.781 432.37 535.167 435.83 532.613 438.307C531.055 439.81 529.142 437.124 527.583 436.096C504.246 421.448 480.898 406.8 457.749 391.809C454.034 389.399 452.862 390.25 451.204 393.799C444.991 407.065 438.402 420.221 432.211 433.531C430.664 436.847 429.304 437.323 426.054 435.654C417.619 431.331 417.541 431.497 421.632 423.029C428.139 409.453 434.64 395.881 441.133 382.313C445.555 373.049 451.082 371.435 459.606 376.951C484.745 393.246 509.869 409.575 534.979 425.936C536.273 426.798 538.075 427.207 538.616 429.584Z" fill="#254166"/>
<path d="M348.237 233.611C348.237 219.836 348.049 206.05 348.359 192.287C348.458 187.964 347.065 187.124 343.096 187.246C335.358 187.5 327.619 187.047 319.958 187.146C317.106 187.146 316.244 186.395 316.155 183.465C315.813 172.056 315.691 171.99 327.288 172.078C347.861 172.233 368.435 172.587 388.997 172.62C393.983 172.62 396.282 173.526 395.453 179.364C394.259 187.699 394.69 187.71 386.355 187.566C380.109 187.467 373.841 187.787 367.561 187.467C363.703 187.257 363.139 188.871 363.073 192.232C362.94 219.792 362.531 247.352 362.498 274.912C362.498 279.434 361.393 280.86 356.772 280.694C347.275 280.351 347.275 280.628 347.275 271.076V233.6L348.237 233.611Z" fill="#254166"/>
<path d="M177.292 408.369C197.501 411.41 217.676 414.317 237.797 417.578C241.555 418.186 243.324 417.302 245.104 414.019C252.024 401.283 259.365 388.769 266.308 376.044C267.888 373.148 269.027 372.551 272.078 374.253C281.663 379.626 281.729 379.483 276.257 389.134C269.838 400.469 263.43 411.815 257.032 423.172C256.06 424.897 254.766 426.489 255.651 428.799C256.933 432.116 257.696 434.68 262.284 431.485C270.84 425.472 279.972 420.298 288.816 414.615C291.115 413.134 292.265 413.112 293.934 415.622C300.313 425.239 300.412 425.162 290.496 431.386C263.411 448.367 236.326 465.303 209.319 482.438C205.87 484.649 204.112 484.948 201.812 480.957C196.937 472.489 196.683 472.61 204.808 467.47C216.77 459.919 228.776 452.446 240.693 444.818C242.329 443.768 245.668 443.314 244.33 440.307C242.992 437.3 242.893 433.21 237.841 432.514C218.196 429.805 198.64 426.444 178.973 423.902C173.39 423.172 171.588 421.37 173.169 416.075C173.593 414.477 173.845 412.839 173.92 411.188C174.009 408.911 174.882 407.706 177.292 408.369Z" fill="#254166"/>
<path d="M490.084 247.164C482.611 253.576 475.458 259.889 468.074 265.958C465.52 268.047 466.692 269.562 467.908 271.485C476.383 285.039 484.837 298.607 493.268 312.19C498.376 320.404 496.861 324.273 487.464 326.993C474.928 330.63 462.347 334.079 449.877 337.882C444.35 339.585 440.491 338.545 437.374 333.327C430.299 321.498 422.925 309.846 415.441 298.283C413.561 295.375 414.026 294.104 416.834 292.335C425.888 286.609 425.81 286.498 431.426 295.431C436.324 303.169 441.376 310.908 445.997 318.823C447.865 322.029 449.7 322.56 453.072 321.432C459.32 319.244 465.682 317.399 472.131 315.905C476.951 314.799 476.431 313.218 474.22 309.791C466.272 297.421 458.588 284.884 450.85 272.392C447.279 266.61 447.611 263.835 452.63 259.468C463.464 250.072 474.342 240.73 485.264 231.444C490.902 226.657 494.794 227.199 498.906 233.323C512.957 254.295 526.853 275.244 541.026 296.094C543.359 299.521 542.397 300.881 539.379 302.826C530.977 308.277 531.065 308.354 525.516 300.118L490.084 247.164Z" fill="#254166"/>
<path d="M406.154 534.86C407.459 525.43 408.553 516.962 409.836 508.527C410.532 503.95 417.751 499.827 421.996 501.374C423.787 502.027 424.207 503.585 424.605 505.277C427.214 516.531 429.757 527.807 432.598 539.006C433.505 542.588 431.437 543.085 429.005 543.737C426.186 544.478 424.76 543.804 424.075 540.565C422.193 531.342 419.718 522.251 416.668 513.347C415.562 522.788 414.401 532.218 413.351 541.67C413.031 544.644 413.141 547.375 409.228 548.414C405.027 549.519 403.28 547.419 401.489 544.345C397.83 538.188 393.961 532.185 390.08 526.138C389.174 524.734 388.787 522.49 385.946 522.877C387.925 531.201 389.749 539.459 391.915 547.717C392.778 551.034 391.915 552.416 388.654 553.19C385.393 553.963 384.099 552.88 383.392 549.63C381.181 539.238 378.506 528.935 376.162 518.554C375.554 515.812 374.238 512.242 378.373 511.18C382.508 510.119 387.328 507.178 390.898 512.396C395.155 518.62 399.168 524.988 403.324 531.278C404.01 532.262 404.817 533.158 406.154 534.86Z" fill="#254166"/>
<path d="M361.182 531.401C372.812 531.855 372.812 531.855 371.928 543.319C371.176 552.981 370.192 554.374 360.519 556.883C350.371 559.548 340.476 559.017 332.937 550.869C325.397 542.722 325.043 532.496 328.459 522.425C333.445 507.755 354.14 502.305 366.102 512.254C367.425 513.249 368.515 514.521 369.297 515.98C370.281 518.191 373.542 521.242 370.402 522.778C367.76 524.05 363.327 526.725 360.519 521.463C358.164 517.041 353.886 516.035 349.155 516.466C346.836 516.582 344.603 517.378 342.734 518.754C340.864 520.13 339.441 522.025 338.641 524.205C336.617 529.194 336.391 534.732 338 539.87C340.819 549.123 352.372 552.605 360.11 546.768C362.166 545.209 361.868 543.208 361.636 541.307C361.315 538.764 359.071 540.058 357.645 539.682C355.29 539.074 351.83 541.307 350.758 537.371C349.486 532.695 350.901 531.037 355.788 531.092C357.523 531.092 359.358 531.28 361.182 531.401Z" fill="#254166"/>
<path d="M305.122 552.726C301.512 552.527 297.944 551.855 294.51 550.725C286.705 548.017 282.791 542.423 283.786 534.264C285.035 524.071 287.103 513.978 288.208 503.774C288.794 498.446 291.878 500.812 294.399 500.834C297.539 500.834 299.053 501.939 298.401 505.499C296.732 514.896 295.151 524.293 293.979 533.767C293.282 539.405 295.847 542.301 301.375 543.473C307.156 544.689 310.672 542.71 311.844 536.84C313.635 527.841 315.282 518.798 316.376 509.711C316.995 504.637 319.394 504.913 323.297 505.422C327.918 506.018 327.111 508.451 326.536 511.535C324.778 521.098 323.463 530.749 321.517 540.278C319.859 548.647 314.364 552.726 305.122 552.726Z" fill="#254166"/>
<path d="M320.478 494.489C321.583 484.075 322.866 473.672 323.794 463.247C324.06 460.129 325.254 459.709 327.94 460.041C334.86 460.892 341.814 461.655 348.768 462.175C351.653 462.396 351.907 463.733 351.73 466.121C351.554 468.509 351.167 469.946 348.215 469.438C343.87 468.774 339.448 468.564 335.081 467.923C332.351 467.525 331.301 468.575 331.665 471.118C331.975 473.23 329.145 476.524 333.755 477.099C337.071 477.497 340.333 477.939 343.627 478.105C346.601 478.249 347.574 479.277 347.397 482.472C347.165 486.651 344.567 485.379 342.411 485.313C338.586 485.213 334.109 482.803 331.146 484.793C327.973 486.938 329.974 492.001 329.012 495.682C328.349 498.214 329.432 501.475 324.38 500.878C319.328 500.281 320.047 497.661 320.478 494.489Z" fill="#254166"/>
<path d="M388.035 461.501C388.931 465.624 386.034 465.116 384.044 465.425C376.803 466.586 376.836 466.531 377.853 473.562C378.959 481.19 379.81 488.862 381.17 496.457C381.778 499.939 379.821 499.983 377.533 500.226C375.244 500.47 372.912 501.708 372.503 497.606C371.707 489.757 370.093 481.986 369.385 474.136C368.932 469.106 367.55 466.818 362.045 468.41C360.32 468.918 357.147 470.931 356.174 467.083C355.467 464.297 355.312 461.843 359.602 461.423C367.827 460.616 376.007 459.345 384.155 458.007C387.626 457.421 388.323 459.035 388.035 461.501Z" fill="#254166"/>
<path d="M162.999 307.481C162.866 305.336 163.905 303.578 164.801 301.765C177.58 275.97 190.356 250.142 203.129 224.28C206.821 216.84 211 215.801 217.5 220.853C243.137 240.896 268.674 261.072 294.388 281.026C297.627 283.547 297.229 285.083 294.941 287.891C288.617 295.63 288.717 295.796 280.868 289.649C259.738 273.089 238.638 256.506 217.567 239.901C214.493 237.469 213.089 237.414 211.442 241.217C208.955 246.943 206.125 252.526 203.096 257.976C201.294 261.204 201.481 262.796 205.074 264.609C217.699 270.977 230.059 277.875 242.662 284.265C246.243 286.078 246.398 287.582 244.607 290.898C239.732 299.908 239.898 299.963 231.131 295.32C220.076 289.472 208.955 283.801 198.021 277.754C194.904 276.018 193.776 276.582 192.405 279.633C189.564 285.99 186.546 292.313 183.13 298.427C181.007 302.196 182.246 303.18 185.828 304.22C212.492 311.958 239.069 319.929 265.778 327.435C270.41 328.74 270.885 330.354 269.525 334.51C266.607 343.354 266.806 343.476 257.685 340.812C228.574 332.299 199.462 323.776 170.35 315.241C166.337 313.937 163.308 312.113 162.999 307.481Z" fill="#254166"/>
</g>
</svg>
