<svg width="56" height="48" viewBox="0 0 56 48" fill="none" xmlns="http://www.w3.org/2000/svg">
<path d="M4.56875 38.0748C5.94322 36.6637 7.45515 36.0453 11.8298 38.7585C14.4265 40.369 17.3392 41.996 19.5596 40.3719C19.6299 40.3205 20.544 39.7391 21.1769 38.9655C21.1769 41.1454 18.3325 43.6788 14.085 41.2981C11.8414 40.0421 9.57456 37.6296 7.04314 37.4889C6.55092 37.4616 6.0587 37.3483 4.56875 38.0748Z" fill="black" fill-opacity="0.08"/>
<path d="M12.2998 41.0413C9.4503 39.4261 6.71864 37.3959 4.64771 38.9457L12.2998 41.0413Z" fill="black" fill-opacity="0.08"/>
<path d="M4.35818 36.8048C9.06945 33.4999 10.8107 36.7575 15.2294 38.0038C18.2236 39.036 21.0362 36.6452 20.1924 34.5357C21.88 35.8717 20.4548 41.2942 15.0593 39.3876C12.5964 38.3146 10.8977 36.4533 8.08501 35.9611C7.51828 35.8619 5.90517 35.961 4.35818 36.8048Z" fill="black" fill-opacity="0.08"/>
<path fill-rule="evenodd" clip-rule="evenodd" d="M14.0292 35.1331C14.0605 34.4272 14.2655 33.8485 14.6532 33.4174C15.041 32.9863 15.5608 32.7205 16.212 32.6398C15.6761 32.367 15.2744 31.9905 14.9969 31.51C14.7189 31.0394 14.5936 30.4959 14.6197 29.9093C14.6576 29.0542 14.9552 28.4099 15.5214 27.9967C16.0877 27.5835 16.8305 27.4571 17.7494 27.6274C18.6489 27.7868 19.3584 28.1869 19.8991 28.7987C20.4298 29.41 20.6873 30.1188 20.6515 30.9241C20.6228 31.5704 20.4607 32.0812 20.1556 32.4463C19.85 32.8212 19.4115 33.0508 18.8399 33.135C19.1554 33.2836 19.4346 33.4654 19.6766 33.6781C20.3306 34.501 20.2376 35.8593 19.4167 36.8141C19.4838 36.6006 19.5237 36.3579 19.5358 36.0848C19.5667 35.3888 19.403 34.8137 19.0455 34.3396C18.6776 33.875 18.1729 33.5736 17.5207 33.455C16.8585 33.336 16.3362 33.4324 15.9429 33.7636C15.5596 34.0952 15.3477 34.6039 15.3164 35.3098C15.2955 36.0062 15.4493 36.5809 15.8077 37.0351C16.1577 37.4788 16.6478 37.7671 17.2879 37.882C16.7226 37.9445 16.0732 37.8965 15.3404 37.7C15.1269 37.6398 14.9192 37.5743 14.7166 37.5045C14.2224 36.8556 13.9879 36.0621 14.0292 35.1331ZM18.9006 31.9921C19.2207 31.7373 19.3983 31.3268 19.4231 30.77C19.4478 30.2132 19.3094 29.7388 18.9977 29.3564C18.6963 28.9645 18.2685 28.7263 17.7152 28.6221C17.1715 28.5282 16.7296 28.6082 16.3991 28.8725C16.0686 29.1367 15.891 29.5473 15.8658 30.114C15.8411 30.6708 15.9799 31.1352 16.2821 31.5073C16.5844 31.8793 17.0221 32.1179 17.5853 32.2226C18.1386 32.3269 18.5805 32.2468 18.9006 31.9921Z" fill="black" fill-opacity="0.08"/>
<g opacity="0.1">
<path d="M13.7327 42.4387C13.8868 42.2689 14.0713 42.3157 14.2558 42.3656C15.2367 42.63 16.2161 42.8997 17.1986 43.1578C17.5586 43.2524 17.9256 43.3208 18.2951 43.4017C18.2725 43.4348 18.2489 43.4685 18.2273 43.5005C18.8897 43.6104 19.5452 43.7103 20.1971 43.8301C20.8137 43.9437 21.4508 43.9889 22.0285 44.2512C22.0228 44.2728 22.017 44.2943 22.0112 44.3159C22.1053 44.2912 22.1994 44.2659 22.3061 44.2381C22.3792 39.7918 22.4522 35.3446 22.5253 30.8973C22.5621 30.8973 22.5989 30.8973 22.6357 30.8978V32.8702C22.652 32.8702 22.6683 32.8696 22.6841 32.8691C22.6919 32.856 22.7056 32.8434 22.7061 32.8297C22.754 31.822 22.7966 30.8142 22.8491 29.807C22.8675 29.449 22.9317 29.0921 22.9343 28.7346C22.9374 28.2988 22.8991 27.8625 22.8765 27.4262C22.8717 27.3326 22.8523 27.2396 22.8497 27.1465C22.8228 26.0904 22.7797 25.0349 22.7787 23.9788C22.7776 23.1272 22.8628 22.275 22.8475 21.4239C22.8171 19.7659 22.7424 18.109 22.6872 16.4515C22.6604 15.654 22.6289 14.8561 22.6131 14.0586C22.5926 13.0193 22.5768 11.98 22.5758 10.9402C22.5747 10.1974 22.6042 9.45518 22.6147 8.71239C22.6205 8.27555 22.6157 7.83923 22.6157 7.42341C16.717 6.01563 10.9661 4.30611 5.12676 2.73958C5.35281 2.70068 5.50052 2.52405 5.70133 2.63707C5.84169 2.71645 6.10453 2.60658 6.11399 2.92987C6.14764 2.88887 6.16499 2.84629 6.19232 2.8384C6.25698 2.82053 6.37105 2.79109 6.3863 2.8158C6.63022 3.20533 7.05339 3.08758 7.39824 3.17537C7.68947 3.24949 7.99384 3.27157 8.29295 3.31362C8.54791 3.34989 8.80497 3.37565 9.05835 3.42034C9.12669 3.43243 9.18661 3.49709 9.24865 3.53967C9.40162 3.64585 9.95779 3.7941 10.1407 3.7983C10.2285 3.8004 10.3153 3.85455 10.4025 3.88504C10.4109 3.86401 10.4199 3.84351 10.4283 3.82248C10.3363 3.78569 10.2448 3.74836 10.1528 3.71156L10.1649 3.65847C10.4377 3.71051 10.7137 3.75204 10.9839 3.81723C11.8729 4.03013 12.7571 4.26301 13.6491 4.46224C13.8894 4.51586 14.1564 4.44437 14.3988 4.49273C14.5197 4.51691 14.6306 4.57001 14.762 4.55003C14.7815 4.54688 14.8167 4.6662 14.8398 4.66463C14.8997 4.6599 14.957 4.61995 15.0606 4.57368C15.0285 4.65569 15.0164 4.68671 15.0044 4.71772L15.0291 4.73244C15.0764 4.67882 15.1232 4.6252 15.1699 4.57263C14.659 4.44226 14.1648 4.30296 13.6639 4.19467C13.4788 4.15471 13.2775 4.18836 13.0772 4.18836C13.0788 4.18468 13.1009 4.13369 13.1287 4.07008C12.9121 4.07008 12.7019 4.06377 12.4921 4.07218C12.3239 4.07902 12.2403 4.01383 12.2498 3.84088C12.4159 3.62377 12.6325 3.69947 12.8412 3.74731C13.5871 3.91921 14.332 4.09689 15.0779 4.26826C16.5283 4.60049 17.9792 4.93168 19.4311 5.25812C19.6172 5.30018 19.8102 5.31174 20.0115 5.28283C19.4895 5.1409 18.9675 4.99896 18.446 4.85703C18.4497 4.83653 18.4534 4.81603 18.4576 4.79552C18.6116 4.82076 18.7688 4.8339 18.9191 4.87385C19.5831 5.0489 20.2412 5.24866 20.9099 5.40532C21.3478 5.50835 21.8041 5.53201 22.243 5.62978C22.662 5.72283 23.0678 5.87265 23.4826 5.98409C23.7134 6.04612 23.952 6.08082 24.2243 6.13549C24.2243 6.50452 24.2995 6.91403 24.2059 7.28095C24.0824 7.76458 24.177 8.23717 24.1323 8.71134C24.1286 8.75129 24.1444 8.79335 24.2012 8.83225V7.61213C24.2138 7.61213 24.2264 7.61213 24.239 7.61213C24.2701 8.95052 24.3005 10.2894 24.3316 11.6278C24.3452 11.6294 24.3589 11.6315 24.3726 11.6331C24.3952 11.5837 24.4172 11.5343 24.4398 11.4848L24.5113 11.4985C24.4609 11.8791 24.3878 12.2592 24.3678 12.6413C24.3515 12.9583 24.3925 13.2795 24.4178 13.5981C24.4572 14.1027 24.5287 14.5985 24.4209 15.1131C24.3542 15.4322 24.4362 15.7818 24.4462 16.1182C24.4519 16.3132 24.4472 16.5083 24.4472 16.717C24.4235 16.6839 24.3994 16.6497 24.331 16.5545C24.361 16.9488 24.403 17.28 24.4078 17.6112C24.4193 18.406 24.4146 19.2008 24.4146 19.9962C24.4146 20.1681 24.403 20.34 24.4046 20.5124C24.4172 21.7541 24.4251 22.9957 24.4477 24.2374C24.4703 25.4733 24.5213 26.7092 24.5366 27.945C24.5523 29.2125 24.5403 30.4804 24.5403 31.7484C24.5403 31.834 24.5403 31.9197 24.5403 32.0054C24.5492 32.0065 24.5586 32.008 24.5676 32.0091C24.5949 31.8651 24.6223 31.7216 24.6454 31.6027C24.6454 31.9371 24.6433 32.2935 24.6454 32.6494C24.6564 34.1833 24.6843 35.7173 24.6738 37.2507C24.6696 37.9036 24.5497 38.556 24.5455 39.2083C24.5297 41.7731 24.5392 44.338 24.5397 46.9033C24.5397 46.9569 24.5397 47.0111 24.5397 47.102C24.3768 47.0715 24.2338 47.0526 24.095 47.0184C20.9314 46.2372 17.7821 45.3898 14.5996 44.6949C12.4296 44.2213 10.3068 43.5699 8.13367 43.1215C7.9665 43.0868 7.79355 43.0805 7.62481 43.0506C7.5223 43.0322 7.42242 42.9959 7.32201 42.9643C7.22581 42.9339 7.13224 42.8913 7.03447 42.8681C6.52613 42.7467 6.01569 42.6332 5.50736 42.5096C4.2946 42.2152 3.0829 41.9172 1.85806 41.6181C1.85175 41.5771 1.83914 41.5324 1.83809 41.4877C1.8139 39.9238 1.7708 38.3599 1.7729 36.796C1.77658 34.0261 1.7708 31.2553 1.84544 28.487C1.87646 27.3368 1.7955 26.1903 1.83703 25.0422C1.8465 24.7746 1.80129 24.505 1.73137 24.2395C1.70509 24.4282 1.6788 24.6169 1.65252 24.8062C1.58523 24.4834 1.49955 24.1659 1.65252 23.8426C1.69142 23.7601 1.65778 23.6434 1.65778 23.5419C1.65778 22.7776 1.65778 22.0132 1.65778 21.251C1.68091 21.3351 1.70666 21.4276 1.74819 21.5795C1.74819 20.822 1.75292 20.1297 1.74609 19.4374C1.74241 19.062 1.72349 18.6867 1.70246 18.3114C1.69563 18.1899 1.65042 18.0706 1.64306 17.9492C1.63833 17.874 1.66829 17.7957 1.68984 17.7205C1.71245 17.6427 1.74294 17.567 1.78131 17.4598C1.6951 17.4782 1.64726 17.4881 1.5826 17.5023C1.5826 16.9956 1.49219 16.4767 1.60994 16.011C1.71087 15.612 1.69825 15.2182 1.75871 14.8256C1.77973 14.6884 1.83125 14.5091 1.64148 14.4097C1.62413 14.4003 1.62886 14.2994 1.65462 14.2636C1.9101 13.9077 1.82021 13.5003 1.81285 13.1034C1.78762 13.2254 1.76239 13.3473 1.73768 13.4693C1.72769 13.4698 1.7177 13.4704 1.70772 13.4709C1.70772 13.4004 1.70509 13.33 1.70772 13.2601C1.73821 12.5336 1.78657 11.8071 1.79445 11.0801C1.79918 10.6753 1.72717 10.2705 1.71192 9.86469C1.70666 9.73117 1.77027 9.59554 1.83546 9.46675C2.04573 10.5281 1.66724 11.5989 1.91746 12.6519L1.99158 12.6529C2.0021 12.2608 2.01787 11.8686 2.02207 11.4764C2.03259 10.5391 2.03522 9.60185 2.04941 8.66455C2.05151 8.53523 2.04994 8.35966 2.29964 8.44587C2.26389 6.76841 2.22919 5.11041 2.19397 3.45188C2.21185 3.44557 2.22972 3.43873 2.24759 3.43243C2.32329 3.6653 2.39846 3.89818 2.49519 4.19677C2.74279 3.22163 2.51464 2.27224 2.70494 1.36123C2.73438 1.36071 2.76381 1.36018 2.79325 1.35913C2.81586 1.7045 2.84319 2.04988 2.86001 2.39578C2.87789 2.76165 2.88472 3.12858 2.89786 3.49498C2.90049 3.56542 2.92467 3.63744 2.91521 3.70526C2.83268 4.28403 2.96988 4.85387 3.14336 5.37693C3.31158 5.88474 3.24692 6.38098 3.29213 6.87828C3.33944 7.3966 3.27741 7.92386 3.2711 8.44745C3.26532 8.93843 3.27005 9.42995 3.27005 9.95038C3.30895 9.89413 3.33471 9.8568 3.3468 9.83946C3.38517 11.9359 3.42407 14.0439 3.46245 16.1519C3.46876 16.1534 3.47506 16.155 3.48137 16.1571C3.50766 16.0473 3.53394 15.9374 3.56022 15.828L3.62436 15.8254C3.65853 16.7517 3.69322 17.6774 3.72739 18.6036C3.7358 18.6063 3.74421 18.6089 3.75262 18.6115C3.78206 18.5216 3.8115 18.4317 3.82832 18.3797V20.3169C3.82201 20.3174 3.81518 20.3179 3.80887 20.3184C3.83673 20.1318 3.86512 19.9457 3.89298 19.7591L3.92452 19.7554C3.92452 19.838 3.92189 19.9205 3.92452 20.003C3.94765 20.6207 3.97236 21.2379 3.99602 21.8555C3.99864 21.9181 4.00232 21.9806 3.99917 22.0432C3.97289 22.5789 3.93399 23.1145 3.92137 23.6502C3.91401 23.9698 3.95764 24.29 3.95974 24.6101C3.96237 24.9529 3.94502 25.2956 3.93346 25.6383C3.92715 25.8339 3.90718 26.0289 3.90665 26.2245C3.90034 28.8135 3.89088 31.4025 3.89298 33.992C3.89456 35.8387 3.91664 37.686 3.91716 39.5327C3.91716 39.7524 3.97709 39.8523 4.19157 39.9033C5.42377 40.1945 6.65387 40.4931 7.88292 40.7948C8.53529 40.9552 9.18504 41.125 9.83478 41.2937C9.95937 41.3263 10.0808 41.3721 10.2243 41.4183C10.2285 41.4078 10.2143 41.443 10.188 41.5087C10.8394 41.6354 11.4844 41.7611 12.1299 41.8867C12.1241 41.9167 12.1189 41.9461 12.1131 41.9761C11.7951 41.9282 11.477 41.8804 11.159 41.8325C11.1548 41.8462 11.1506 41.8599 11.1464 41.8736C11.2373 41.9109 11.3351 41.9377 11.4176 41.9887C11.5538 42.0733 11.7588 42.0334 11.8376 42.2426C11.8539 42.2862 12.0448 42.2578 12.153 42.2746C12.4837 42.3256 12.8133 42.3819 13.1434 42.4366C13.1476 42.4166 13.1518 42.3971 13.1566 42.3772C12.8738 42.3099 12.5909 42.2421 12.2876 42.17C12.5605 42.0628 12.8175 42.1075 13.074 42.1832C13.2375 42.231 13.4021 42.2757 13.5629 42.3314C13.625 42.353 13.6786 42.3998 13.7359 42.4355C13.8105 42.6368 14.035 42.6947 14.2868 42.5259C14.1018 42.4975 13.9167 42.4691 13.7317 42.4402L13.7327 42.4387ZM22.7035 42.3467C22.7272 42.3451 22.7503 42.3435 22.774 42.3419C22.8023 42.9733 22.8307 43.6041 22.8596 44.2354C22.9148 44.1624 22.9159 44.0888 22.9148 44.0152C22.8775 41.6691 22.8502 39.3224 22.7976 36.9768C22.7787 36.1289 22.6988 35.2825 22.6452 34.4357C22.6441 34.4173 22.6289 34.3999 22.5984 34.3389C22.5852 34.4067 22.5758 34.432 22.5763 34.4567C22.5837 35.5359 22.5784 36.6157 22.6042 37.6944C22.6252 38.5696 22.6914 39.4438 22.7209 40.3191C22.7293 40.5741 22.6846 40.8316 22.6541 41.0871C22.632 41.2706 22.5663 41.453 22.5679 41.6354C22.5742 42.3624 22.5942 43.0895 22.6215 43.816C22.6294 44.0252 22.6693 44.2354 22.7151 44.4405C22.7398 44.5519 22.8071 44.6534 22.8554 44.7596C22.8833 44.7527 22.9112 44.7454 22.939 44.7385C22.6799 43.9532 22.7792 43.1447 22.7046 42.3472L22.7035 42.3467ZM23.2534 33.3901C23.2749 33.3916 23.2965 33.3937 23.318 33.3953C23.327 33.369 23.3427 33.3428 23.3433 33.3165C23.3622 32.7225 23.3832 32.1284 23.3932 31.5339C23.3948 31.4335 23.3491 31.332 23.3249 31.2311C23.3012 31.2342 23.277 31.2374 23.2534 31.2406V33.3895V33.3901ZM2.03364 16.5198C1.79077 16.7401 1.7729 17.3525 1.97371 17.6953C1.99579 17.2663 2.01471 16.8931 2.03364 16.5198ZM23.3417 28.3314C23.3364 28.8503 23.082 29.3733 23.267 29.9048C23.2918 29.9048 23.317 29.9053 23.3417 29.9058V28.3314ZM15.3913 4.61153C15.3839 4.63677 15.3765 4.662 15.3692 4.68776C15.5059 4.73086 15.6415 4.77765 15.7792 4.81603C15.9043 4.85072 16.1062 4.8381 16.1461 4.9138C16.2949 5.19715 16.4321 5.00159 16.5872 4.90013C16.1887 4.80393 15.7902 4.70773 15.3913 4.61206V4.61153ZM24.3936 35.8608C24.2732 36.4222 24.3163 37.165 24.4751 37.3816C24.4467 36.8506 24.4204 36.356 24.3936 35.8608ZM23.0652 28.3509C23.0757 28.3509 23.0867 28.3519 23.0972 28.3524V27.6233C23.0867 27.6244 23.0757 27.6249 23.0652 27.626V28.3509ZM2.94885 7.35613V6.90614C2.92467 6.90719 2.90049 6.90825 2.87578 6.9093C2.83373 7.0628 2.80324 7.21577 2.94885 7.35613ZM23.5446 35.9754H23.5777V35.3256C23.5667 35.3256 23.5556 35.3256 23.5446 35.3262V35.9749V35.9754ZM23.1614 28.5743C23.1283 28.5774 23.0951 28.5801 23.062 28.5832C23.0568 28.742 22.9953 28.907 23.1099 29.0516C23.1377 29.049 23.1651 29.0463 23.1929 29.0432C23.1824 28.8865 23.1719 28.7304 23.1619 28.5738L23.1614 28.5743ZM3.80624 21.8576C3.81886 21.8587 3.83148 21.8592 3.84409 21.8603V21.282C3.83148 21.282 3.81886 21.282 3.80624 21.282V21.8582V21.8576ZM12.46 4.41966C12.4637 4.3897 12.4674 4.36026 12.4716 4.33029C12.2855 4.28929 12.1 4.24829 11.9139 4.20728C11.9076 4.23304 11.9018 4.25933 11.8955 4.28508C12.0837 4.32977 12.2719 4.37445 12.46 4.41966ZM23.5388 37.134C23.5509 37.134 23.5635 37.135 23.5756 37.1356V36.5952C23.5635 36.5952 23.5509 36.5952 23.5388 36.5952V37.134Z" fill="black"/>
<path d="M33.4227 42.5904C34.2123 43.4851 35.0271 44.4092 35.8771 45.3728C35.3104 45.5084 34.8231 45.6341 34.33 45.7334C34.2538 45.7487 34.1318 45.664 34.0682 45.592C33.389 44.8245 32.7141 44.0528 32.047 43.2748C31.9418 43.1518 31.8583 43.1366 31.7095 43.1839C31.4288 43.2743 31.1386 43.3342 30.8258 43.4131C30.8258 43.4846 30.8258 43.5692 30.8258 43.6533C30.8258 44.5764 30.8232 45.5 30.8284 46.4231C30.8295 46.5703 30.7985 46.6439 30.636 46.6765C30.2386 46.7559 29.8465 46.861 29.4207 46.9635C29.4149 46.8679 29.4059 46.7943 29.4059 46.7212C29.4054 43.709 29.407 40.6963 29.4017 37.6842C29.4017 37.5002 29.4533 37.4439 29.6393 37.4029C30.2108 37.2757 30.7711 37.1033 31.3399 36.964C31.7642 36.8599 32.191 36.7548 32.6231 36.6948C34.0714 36.494 35.1185 37.3667 35.1948 38.8354C35.2536 39.9762 34.9056 40.9981 34.1986 41.8865C33.9952 42.1425 33.7097 42.3338 33.4216 42.5909L33.4227 42.5904ZM30.8384 42.0042C31.3073 42.0232 32.6247 41.5937 33.05 41.2888C33.4779 40.9818 33.746 40.5686 33.8222 40.0508C33.8616 39.7832 33.858 39.5046 33.839 39.2334C33.7765 38.3402 33.265 37.9344 32.3897 38.0984C31.8703 38.1957 31.3594 38.3381 30.8384 38.4617V42.0037V42.0042Z" fill="black"/>
<path d="M51.1377 37.8669C50.3597 39.2363 49.5985 40.5737 48.841 41.9142C48.7505 42.074 48.6344 42.1765 48.4519 42.2196C47.9536 42.3384 47.4574 42.4682 46.8943 42.6102C46.9743 42.4598 47.0163 42.3784 47.061 42.2985C48.0735 40.5006 49.0838 38.7012 50.1036 36.907C50.1972 36.742 50.1841 36.6426 50.069 36.4975C49.1942 35.3941 48.3289 34.2828 47.461 33.1742C47.4195 33.1211 47.3827 33.0638 47.328 32.9865C47.7833 32.8761 48.2306 32.8167 48.638 32.6548C49.046 32.4929 49.252 32.6175 49.4902 32.9434C50.0164 33.662 50.5867 34.348 51.1398 35.0482C51.7737 33.938 52.4051 32.8414 53.0254 31.738C53.1179 31.5735 53.2267 31.4846 53.4128 31.4473C53.8491 31.3595 54.2813 31.2486 54.7149 31.1482C54.7801 31.1329 54.8469 31.1251 54.9552 31.1072C54.8895 31.2502 54.8495 31.359 54.7927 31.4583C53.9448 32.9366 53.0943 34.4132 52.2442 35.8898C52.0629 36.2053 52.0639 36.2368 52.2952 36.5296C53.2656 37.7571 54.2366 38.984 55.207 40.2115C55.2695 40.2903 55.33 40.3708 55.412 40.4775C55.0335 40.569 54.6808 40.6536 54.3286 40.7398C54.1998 40.7713 54.0584 40.7824 53.9448 40.8434C53.6588 40.9974 53.509 40.8649 53.3382 40.6415C52.721 39.833 52.0855 39.0387 51.4552 38.2407C51.3548 38.1135 51.2444 37.9936 51.1366 37.8675L51.1377 37.8669Z" fill="black"/>
<path d="M38.4563 26.1775V29.3689C37.9558 29.4898 37.4801 29.605 36.9765 29.7269V29.4746C36.9765 26.4703 36.9786 23.4665 36.9717 20.4623C36.9717 20.2709 37.0212 20.1957 37.2136 20.1511C38.1798 19.9266 39.1355 19.6527 40.1064 19.4545C41.4684 19.1759 42.524 19.9192 42.7464 21.2766C42.8505 21.9111 42.7758 22.5398 42.6013 23.1564C42.2091 24.54 41.2576 25.3532 39.9219 25.7654C39.4451 25.9126 38.9615 26.0366 38.4568 26.178L38.4563 26.1775ZM38.4552 24.7834C38.9956 24.643 39.5003 24.54 39.986 24.3802C41.0978 24.0148 41.705 22.8489 41.4017 21.7129C41.2293 21.0663 40.8765 20.7735 40.2121 20.8381C39.7027 20.8881 39.2043 21.0416 38.6986 21.1362C38.5004 21.1735 38.4515 21.2818 38.4526 21.4642C38.4584 22.1997 38.4547 22.9351 38.4547 23.6705C38.4547 24.0138 38.4547 24.3571 38.4547 24.7834H38.4552Z" fill="black"/>
<path d="M35.6119 5.63126V7.41122C35.5714 7.40229 35.5336 7.40018 35.5015 7.38546C34.6394 6.98437 33.7768 7.02064 32.9478 7.45065C31.6525 8.123 30.8198 9.17752 30.5333 10.6174C30.3998 11.2902 30.4965 11.96 30.804 12.5829C31.2493 13.4844 32.1818 13.9223 33.2658 13.7741C34.3035 13.6327 35.0904 13.0818 35.7491 12.3074C35.8685 12.1676 35.9873 12.0272 36.1586 11.9027C36.1586 12.1329 36.1586 12.3626 36.1586 12.5929C36.1586 12.9603 36.1634 13.3283 36.1549 13.6958C36.1534 13.772 36.1266 13.8761 36.0724 13.9192C35.2587 14.5737 34.3687 15.0752 33.3278 15.2775C31.6493 15.604 30.0859 14.908 29.4141 13.4823C28.8085 12.1976 28.8653 10.8797 29.3873 9.5886C30.0097 8.04993 31.0443 6.86241 32.5325 6.08808C33.4466 5.61286 34.3897 5.46304 35.6114 5.63073L35.6119 5.63126Z" fill="black"/>
<path d="M40.9138 37.8373C41.0116 37.6838 41.0631 37.6071 41.1104 37.5277C41.7654 36.4343 42.4141 35.3377 43.0801 34.2511C43.1611 34.1191 43.3177 33.9956 43.4644 33.9499C43.9165 33.81 44.3812 33.7102 44.8985 33.5803C44.7833 33.7922 44.704 33.9525 44.6125 34.105C43.7057 35.6121 42.7926 37.1161 41.8937 38.6279C41.7912 38.7998 41.7176 39.018 41.7149 39.2156C41.6971 40.6786 41.7002 42.1421 41.6971 43.6051C41.6971 43.7055 41.6971 43.8059 41.6971 43.9037C41.2029 44.0314 40.7293 44.1539 40.2194 44.2859C40.2194 44.1608 40.2194 44.0698 40.2194 43.9789C40.2278 42.6173 40.2283 41.2558 40.2498 39.8943C40.2567 39.4743 40.1105 39.151 39.8335 38.8408C38.881 37.7732 37.9484 36.6876 36.9759 35.5721C37.172 35.5211 37.3318 35.478 37.4926 35.4381C37.8186 35.3561 38.1476 35.2856 38.4694 35.1905C38.6139 35.1479 38.6954 35.18 38.7884 35.2904C39.4124 36.0332 40.0438 36.7702 40.6709 37.5109C40.7513 37.6055 40.8197 37.7106 40.9133 37.8373H40.9138Z" fill="black"/>
<path d="M30.8218 29.9121C32.1223 29.582 33.3813 29.2624 34.6614 28.9375V30.3137C32.9256 30.749 31.1861 31.1848 29.4061 31.6311C29.4061 31.5223 29.4061 31.4403 29.4061 31.3583C29.4061 28.3624 29.4087 25.366 29.4014 22.3701C29.4008 22.1536 29.4687 22.0763 29.6763 22.0379C30.0511 21.9685 30.4196 21.865 30.8218 21.7677V29.9121Z" fill="black"/>
<path d="M11.11 3.42339C10.3604 3.39185 9.65969 3.17895 8.97998 2.88562C9.69964 3.02913 10.4225 3.16055 11.11 3.42339Z" fill="black"/>
<path d="M1.44208 40.3028V38.0166C1.45259 38.0166 1.46311 38.0166 1.47362 38.0166V40.3128C1.46311 40.3096 1.45259 40.306 1.44208 40.3028Z" fill="black"/>
<path d="M24.8021 32.6112V33.488L24.7643 33.4891V32.6123C24.7769 32.6123 24.7895 32.6117 24.8021 32.6112Z" fill="black"/>
<path d="M24.7962 31.0518V31.7967C24.7862 31.7967 24.7767 31.7977 24.7667 31.7982V31.0533C24.7767 31.0533 24.7862 31.0528 24.7962 31.0523V31.0518Z" fill="black"/>
<path d="M1.37671 16.3877V14.9116C1.38775 14.9116 1.39931 14.9116 1.41035 14.9116V16.3788C1.39931 16.382 1.38775 16.3851 1.37671 16.3883V16.3877Z" fill="black"/>
<path d="M24.6669 11.2645V11.929C24.6559 11.93 24.6454 11.9306 24.6343 11.9316V11.2708C24.6454 11.2687 24.6559 11.2666 24.6669 11.2645Z" fill="black"/>
<path d="M11.4378 3.46912C11.6707 3.51117 11.8631 3.54534 12.066 3.58214C11.9498 3.74615 11.8946 3.73564 11.4378 3.46912Z" fill="black"/>
<path d="M22.6333 18.0269V18.603C22.6207 18.603 22.6081 18.6035 22.5955 18.6041V18.0269C22.6081 18.0269 22.6207 18.0269 22.6333 18.0269Z" fill="black"/>
<path d="M24.6187 29.1636V28.6316C24.6308 28.6311 24.6429 28.6305 24.655 28.63V29.1662C24.6429 29.1652 24.6308 29.1646 24.6187 29.1636Z" fill="black"/>
</g>
<path d="M24.2764 32.0853V32.9622L24.2385 32.9632V32.0864C24.2511 32.0864 24.2638 32.0859 24.2764 32.0853Z" fill="white"/>
<path d="M24.2704 30.5259V31.2708C24.2604 31.2708 24.251 31.2718 24.241 31.2723V30.5275C24.251 30.5275 24.2604 30.5269 24.2704 30.5264V30.5259Z" fill="white"/>
<path d="M0.850891 15.8619V14.3857C0.86193 14.3857 0.873496 14.3857 0.884535 14.3857V15.8529C0.873496 15.8561 0.86193 15.8592 0.850891 15.8624V15.8619Z" fill="white"/>
<path d="M24.1412 10.7386V11.4031C24.1301 11.4042 24.1196 11.4047 24.1086 11.4057V10.745C24.1196 10.7429 24.1301 10.7408 24.1412 10.7386Z" fill="white"/>
<path d="M22.1076 17.501V18.0771C22.0949 18.0771 22.0823 18.0777 22.0697 18.0782V17.501C22.0823 17.501 22.0949 17.501 22.1076 17.501Z" fill="white"/>
<path d="M24.0929 28.6376V28.1056C24.105 28.1051 24.1171 28.1045 24.1292 28.104V28.6402C24.1171 28.6392 24.105 28.6386 24.0929 28.6376Z" fill="white"/>
<path d="M10.583 2.89752C9.83333 2.86597 9.13259 2.65307 8.45288 2.35974C9.17254 2.50325 9.89536 2.63467 10.583 2.89752Z" fill="white"/>
<path d="M10.9113 2.94336C11.1441 2.98541 11.3365 3.01958 11.5394 3.05638C11.4233 3.22039 11.3681 3.20988 10.9113 2.94336Z" fill="white"/>
<path d="M32.8958 42.0649C33.6853 42.9596 34.5002 43.8837 35.3502 44.8473C34.7835 44.9829 34.2962 45.1086 33.8031 45.2079C33.7269 45.2232 33.6049 45.1385 33.5413 45.0665C32.8621 44.299 32.1871 43.5273 31.5201 42.7493C31.4149 42.6263 31.3313 42.611 31.1826 42.6584C30.9019 42.7488 30.6117 42.8087 30.2989 42.8876C30.2989 42.9591 30.2989 43.0437 30.2989 43.1278C30.2989 44.0509 30.2963 44.9745 30.3015 45.8976C30.3026 46.0448 30.2716 46.1184 30.1091 46.151C29.7117 46.2304 29.3195 46.3355 28.8937 46.438C28.888 46.3424 28.879 46.2688 28.879 46.1957C28.8785 43.1835 28.8801 40.1708 28.8748 37.1587C28.8748 36.9747 28.9263 36.9184 29.1124 36.8774C29.6838 36.7502 30.2442 36.5778 30.813 36.4385C31.2372 36.3344 31.6641 36.2293 32.0962 36.1693C33.5445 35.9685 34.5916 36.8411 34.6678 38.3099C34.7267 39.4506 34.3787 40.4726 33.6717 41.361C33.4682 41.617 33.1828 41.8083 32.8947 42.0654L32.8958 42.0649ZM30.3115 41.4787C30.7804 41.4977 32.0978 41.0682 32.5231 40.7633C32.951 40.4563 33.2191 40.0431 33.2953 39.5253C33.3347 39.2577 33.331 38.9791 33.3121 38.7078C33.2496 37.8147 32.7381 37.4089 31.8628 37.5729C31.3434 37.6702 30.8325 37.8126 30.3115 37.9361V41.4782V41.4787Z" fill="white"/>
<path d="M50.6115 37.3409C49.8335 38.7103 49.0723 40.0477 48.3148 41.3882C48.2244 41.548 48.1082 41.6505 47.9258 41.6936C47.4274 41.8124 46.9312 41.9422 46.3682 42.0842C46.4481 41.9338 46.4901 41.8524 46.5348 41.7725C47.5473 39.9746 48.5576 38.1752 49.5775 36.381C49.671 36.216 49.6579 36.1166 49.5428 35.9715C48.668 34.8681 47.8028 33.7568 46.9348 32.6482C46.8933 32.5951 46.8565 32.5378 46.8019 32.4605C47.2571 32.3501 47.7045 32.2907 48.1119 32.1288C48.5198 31.9669 48.7259 32.0915 48.964 32.4174C49.4902 33.136 50.0606 33.822 50.6136 34.5222C51.2476 33.412 51.8789 32.3154 52.4992 31.212C52.5917 31.0475 52.7005 30.9586 52.8866 30.9213C53.323 30.8335 53.7551 30.7226 54.1888 30.6222C54.2539 30.6069 54.3207 30.599 54.429 30.5812C54.3633 30.7242 54.3233 30.833 54.2666 30.9323C53.4186 32.4106 52.5681 33.8872 51.718 35.3638C51.5367 35.6793 51.5377 35.7108 51.769 36.0036C52.7394 37.2311 53.7104 38.458 54.6808 39.6855C54.7434 39.7643 54.8038 39.8448 54.8858 39.9515C54.5073 40.043 54.1546 40.1276 53.8024 40.2138C53.6736 40.2453 53.5322 40.2564 53.4186 40.3174C53.1327 40.4714 52.9828 40.3389 52.812 40.1155C52.1948 39.307 51.5593 38.5127 50.929 37.7147C50.8286 37.5875 50.7182 37.4676 50.6104 37.3415L50.6115 37.3409Z" fill="white"/>
<path d="M37.9294 25.6517V28.8432C37.429 28.9641 36.9532 29.0792 36.4496 29.2012V28.9488C36.4496 25.9445 36.4517 22.9408 36.4449 19.9365C36.4449 19.7452 36.4943 19.67 36.6867 19.6253C37.6529 19.4008 38.6086 19.127 39.5795 18.9288C40.9416 18.6502 41.9972 19.3935 42.2195 20.7508C42.3236 21.3853 42.249 22.014 42.0744 22.6306C41.6823 24.0142 40.7308 24.8275 39.395 25.2396C38.9182 25.3868 38.4346 25.5109 37.9299 25.6523L37.9294 25.6517ZM37.9284 24.2576C38.4688 24.1173 38.9734 24.0142 39.4592 23.8544C40.571 23.4891 41.1781 22.3231 40.8748 21.1871C40.7024 20.5405 40.3497 20.2477 39.6852 20.3124C39.1758 20.3623 38.6775 20.5158 38.1718 20.6104C37.9736 20.6478 37.9247 20.7561 37.9257 20.9385C37.9315 21.6739 37.9278 22.4093 37.9278 23.1448C37.9278 23.488 37.9278 23.8313 37.9278 24.2576H37.9284Z" fill="white"/>
<path d="M35.0851 5.10562V6.88559C35.0446 6.87665 35.0068 6.87455 34.9747 6.85983C34.1126 6.45873 33.25 6.49501 32.421 6.92501C31.1257 7.59736 30.293 8.65188 30.0065 10.0917C29.873 10.7646 29.9697 11.4343 30.2772 12.0573C30.7225 12.9588 31.655 13.3967 32.739 13.2485C33.7767 13.1071 34.5636 12.5561 35.2223 11.7818C35.3417 11.642 35.4605 11.5016 35.6318 11.377C35.6318 11.6073 35.6318 11.837 35.6318 12.0672C35.6318 12.4347 35.6366 12.8027 35.6282 13.1701C35.6266 13.2464 35.5998 13.3504 35.5456 13.3935C34.7319 14.048 33.8419 14.5495 32.801 14.7519C31.1225 15.0784 29.5591 14.3824 28.8873 12.9567C28.2817 11.6719 28.3385 10.354 28.8605 9.06297C29.4829 7.52429 30.5175 6.33677 32.0057 5.56244C32.9198 5.08723 33.8629 4.93741 35.0846 5.1051L35.0851 5.10562Z" fill="white"/>
<path d="M40.3872 37.3117C40.485 37.1582 40.5365 37.0814 40.5838 37.002C41.2388 35.9086 41.8875 34.812 42.5535 33.7255C42.6345 33.5935 42.7911 33.47 42.9378 33.4242C43.3899 33.2844 43.8546 33.1845 44.3719 33.0547C44.2567 33.2665 44.1773 33.4269 44.0859 33.5793C43.1791 35.0865 42.266 36.5904 41.367 38.1023C41.2645 38.2742 41.1909 38.4924 41.1883 38.69C41.1704 40.153 41.1736 41.6165 41.1704 43.0795C41.1704 43.1799 41.1704 43.2803 41.1704 43.3781C40.6763 43.5058 40.2027 43.6283 39.6927 43.7602C39.6927 43.6351 39.6927 43.5442 39.6927 43.4532C39.7012 42.0917 39.7017 40.7302 39.7232 39.3687C39.7301 38.9486 39.5839 38.6254 39.3069 38.3152C38.3544 37.2475 37.4218 36.162 36.4493 35.0465C36.6454 34.9955 36.8052 34.9524 36.966 34.9125C37.2919 34.8304 37.621 34.76 37.9427 34.6649C38.0873 34.6223 38.1688 34.6543 38.2618 34.7647C38.8858 35.5075 39.5172 36.2445 40.1443 36.9852C40.2247 37.0798 40.2931 37.185 40.3866 37.3117H40.3872Z" fill="white"/>
<path d="M30.2952 29.3866C31.5958 29.0565 32.8548 28.7369 34.1348 28.412V29.7882C32.399 30.2235 30.6595 30.6593 28.8796 31.1056C28.8796 30.9968 28.8796 30.9148 28.8796 30.8328C28.8796 27.8369 28.8822 24.8405 28.8748 21.8446C28.8743 21.628 28.9421 21.5508 29.1498 21.5124C29.5246 21.443 29.8931 21.3394 30.2952 21.2422V29.3866Z" fill="white"/>
<path d="M13.2059 41.9128C13.36 41.743 13.5445 41.7898 13.729 41.8397C14.7099 42.1041 15.6893 42.3738 16.6718 42.6319C17.0319 42.7265 17.3988 42.7949 17.7683 42.8758C17.7457 42.9089 17.7221 42.9426 17.7005 42.9747C18.3629 43.0845 19.0184 43.1844 19.6703 43.3043C20.2869 43.4178 20.924 43.463 21.5017 43.7253C21.496 43.7469 21.4902 43.7684 21.4844 43.79C21.5785 43.7653 21.6726 43.7401 21.7793 43.7122C21.8524 39.266 21.9254 34.8187 21.9985 30.3714C22.0353 30.3714 22.0721 30.3714 22.1089 30.3719V32.3443C22.1252 32.3443 22.1415 32.3438 22.1573 32.3432C22.1652 32.3301 22.1788 32.3175 22.1793 32.3038C22.2272 31.2961 22.2698 30.2883 22.3223 29.2811C22.3407 28.9231 22.4049 28.5662 22.4075 28.2087C22.4107 27.7729 22.3723 27.3366 22.3497 26.9003C22.3449 26.8067 22.3255 26.7137 22.3229 26.6206C22.296 25.5646 22.2529 24.509 22.2519 23.4529C22.2508 22.6013 22.336 21.7491 22.3208 20.8981C22.2903 19.2401 22.2156 17.5831 22.1604 15.9256C22.1336 15.1282 22.1021 14.3302 22.0863 13.5327C22.0658 12.4934 22.05 11.4542 22.049 10.4144C22.0479 9.67157 22.0774 8.9293 22.0879 8.18651C22.0937 7.74967 22.0889 7.31335 22.0889 6.89754C16.1902 5.48976 10.4393 3.78023 4.59997 2.2137C4.82601 2.1748 4.97373 1.99817 5.17454 2.11119C5.3149 2.19057 5.57774 2.0807 5.5872 2.40399C5.62084 2.36299 5.63819 2.32041 5.66553 2.31253C5.73019 2.29465 5.84426 2.26521 5.8595 2.28992C6.10342 2.67945 6.5266 2.5617 6.87145 2.64949C7.16267 2.72361 7.46704 2.74569 7.76616 2.78774C8.02112 2.82401 8.27817 2.84977 8.53155 2.89446C8.59989 2.90655 8.65982 2.97121 8.72185 3.01379C8.87483 3.11997 9.431 3.26822 9.61394 3.27242C9.70173 3.27453 9.78846 3.32867 9.87573 3.35916C9.88414 3.33813 9.89307 3.31763 9.90149 3.2966C9.80949 3.25981 9.71802 3.22248 9.62603 3.18569L9.63812 3.13259C9.91095 3.18463 10.1869 3.22616 10.4571 3.29135C11.3461 3.50425 12.2303 3.73713 13.1223 3.93636C13.3626 3.98998 13.6296 3.91849 13.872 3.96685C13.9929 3.99103 14.1038 4.04413 14.2352 4.02415C14.2547 4.021 14.2899 4.14033 14.313 4.13875C14.3729 4.13402 14.4302 4.09407 14.5338 4.04781C14.5017 4.12981 14.4897 4.16083 14.4776 4.19184L14.5023 4.20656C14.5496 4.15294 14.5964 4.09932 14.6432 4.04675C14.1322 3.91638 13.638 3.77708 13.1371 3.66879C12.952 3.62884 12.7507 3.66248 12.5504 3.66248C12.552 3.6588 12.5741 3.60781 12.6019 3.5442C12.3853 3.5442 12.1751 3.53789 11.9653 3.5463C11.7971 3.55314 11.7135 3.48795 11.723 3.315C11.8891 3.0979 12.1057 3.17359 12.3144 3.22143C13.0603 3.39333 13.8052 3.57101 14.5512 3.74238C16.0015 4.07462 17.4524 4.4058 18.9043 4.73225C19.0904 4.7743 19.2834 4.78587 19.4847 4.75695C18.9627 4.61502 18.4407 4.47308 17.9192 4.33115C17.9229 4.31065 17.9266 4.29015 17.9308 4.26964C18.0848 4.29488 18.242 4.30802 18.3923 4.34797C19.0563 4.52302 19.7144 4.72278 20.3831 4.87944C20.821 4.98247 21.2773 5.00613 21.7162 5.1039C22.1352 5.19695 22.541 5.34677 22.9558 5.45821C23.1866 5.52025 23.4252 5.55494 23.6975 5.60961C23.6975 5.97864 23.7727 6.38815 23.6791 6.75507C23.5556 7.2387 23.6502 7.71129 23.6055 8.18546C23.6019 8.22541 23.6176 8.26747 23.6744 8.30637V7.08626C23.687 7.08626 23.6996 7.08626 23.7122 7.08626C23.7433 8.42465 23.7737 9.76356 23.8048 11.102C23.8184 11.1035 23.8321 11.1056 23.8458 11.1072C23.8684 11.0578 23.8904 11.0084 23.9131 10.959L23.9845 10.9726C23.9341 11.3532 23.861 11.7333 23.841 12.1155C23.8247 12.4325 23.8657 12.7536 23.891 13.0722C23.9304 13.5769 24.0019 14.0726 23.8941 14.5872C23.8274 14.9063 23.9094 15.2559 23.9194 15.5923C23.9251 15.7874 23.9204 15.9824 23.9204 16.1911C23.8968 16.158 23.8726 16.1238 23.8042 16.0287C23.8342 16.4229 23.8763 16.7541 23.881 17.0853C23.8926 17.8801 23.8878 18.6749 23.8878 19.4703C23.8878 19.6422 23.8763 19.8141 23.8778 19.9865C23.8904 21.2282 23.8983 22.4699 23.9209 23.7115C23.9435 24.9474 23.9945 26.1833 24.0098 27.4192C24.0256 28.6866 24.0135 29.9545 24.0135 31.2225C24.0135 31.3082 24.0135 31.3939 24.0135 31.4795C24.0224 31.4806 24.0319 31.4822 24.0408 31.4832C24.0681 31.3392 24.0955 31.1957 24.1186 31.0769C24.1186 31.4112 24.1165 31.7676 24.1186 32.1235C24.1296 33.6574 24.1575 35.1914 24.147 36.7248C24.1428 37.3777 24.0229 38.0301 24.0187 38.6825C24.0029 41.2473 24.0124 43.8121 24.0129 46.3774C24.0129 46.431 24.0129 46.4852 24.0129 46.5761C23.85 46.5456 23.707 46.5267 23.5682 46.4925C20.4046 45.7114 17.2553 44.864 14.0728 44.169C11.9028 43.6954 9.78005 43.044 7.60688 42.5956C7.43971 42.5609 7.26676 42.5546 7.09802 42.5247C6.99551 42.5063 6.89563 42.47 6.79522 42.4385C6.69902 42.408 6.60545 42.3654 6.50767 42.3423C5.99934 42.2208 5.4889 42.1073 4.98056 41.9837C3.76781 41.6894 2.55611 41.3913 1.33127 41.0922C1.32496 41.0512 1.31234 41.0065 1.31129 40.9618C1.28711 39.3979 1.244 37.834 1.24611 36.2701C1.24979 33.5003 1.244 30.7294 1.31865 27.9611C1.34967 26.8109 1.26871 25.6644 1.31024 24.5163C1.3197 24.2488 1.27449 23.9791 1.20458 23.7136C1.17829 23.9023 1.15201 24.0911 1.12572 24.2803C1.05844 23.9575 0.97275 23.64 1.12572 23.3167C1.16462 23.2342 1.13098 23.1175 1.13098 23.016C1.13098 22.2517 1.13098 21.4874 1.13098 20.7251C1.15411 20.8092 1.17987 20.9017 1.2214 21.0537C1.2214 20.2962 1.22613 19.6038 1.2193 18.9115C1.21562 18.5362 1.19669 18.1608 1.17566 17.7855C1.16883 17.6641 1.12362 17.5447 1.11626 17.4233C1.11153 17.3481 1.14149 17.2698 1.16305 17.1946C1.18565 17.1168 1.21614 17.0411 1.25452 16.9339C1.1683 16.9523 1.12047 16.9623 1.05581 16.9765C1.05581 16.4697 0.965391 15.9509 1.08314 15.4851C1.18408 15.0861 1.17146 14.6924 1.23191 14.2997C1.25294 14.1625 1.30446 13.9832 1.11469 13.8839C1.09734 13.8744 1.10207 13.7735 1.12783 13.7377C1.38331 13.3818 1.29342 12.9744 1.28606 12.5775C1.26083 12.6995 1.23559 12.8215 1.21089 12.9434C1.2009 12.9439 1.19091 12.9445 1.18092 12.945C1.18092 12.8746 1.17829 12.8041 1.18092 12.7342C1.21141 12.0077 1.25977 11.2812 1.26766 10.5542C1.27239 10.1494 1.20037 9.74464 1.18513 9.33881C1.17987 9.20529 1.24348 9.06966 1.30866 8.94087C1.51894 10.0022 1.14044 11.073 1.39067 12.126L1.46479 12.127C1.4753 11.7349 1.49107 11.3427 1.49528 10.9506C1.50579 10.0133 1.50842 9.07597 1.52262 8.13867C1.52472 8.00936 1.52314 7.83378 1.77284 7.91999C1.73709 6.24253 1.7024 4.58453 1.66718 2.926C1.68505 2.91969 1.70293 2.91286 1.7208 2.90655C1.7965 3.13942 1.87167 3.3723 1.9684 3.67089C2.21599 2.69575 1.98785 1.74636 2.17814 0.835355C2.20758 0.834829 2.23702 0.834303 2.26646 0.833252C2.28906 1.17863 2.3164 1.524 2.33322 1.8699C2.35109 2.23578 2.35793 2.6027 2.37107 2.9691C2.3737 3.03954 2.39788 3.11156 2.38842 3.17938C2.30588 3.75815 2.44309 4.328 2.61656 4.85105C2.78478 5.35886 2.72012 5.8551 2.76533 6.3524C2.81264 6.87073 2.75061 7.39799 2.7443 7.92157C2.73852 8.41255 2.74325 8.90407 2.74325 9.4245C2.78215 9.36825 2.80791 9.33092 2.82 9.31358C2.85838 11.41 2.89728 13.518 2.93565 15.626C2.94196 15.6276 2.94827 15.6291 2.95458 15.6312C2.98086 15.5214 3.00715 15.4115 3.03343 15.3022L3.09756 15.2995C3.13173 16.2258 3.16643 17.1515 3.2006 18.0778C3.20901 18.0804 3.21742 18.083 3.22583 18.0857C3.25527 17.9958 3.28471 17.9059 3.30153 17.8538V19.791C3.29522 19.7915 3.28839 19.792 3.28208 19.7925C3.30994 19.6059 3.33833 19.4198 3.36619 19.2332L3.39773 19.2295C3.39773 19.3121 3.3951 19.3946 3.39773 19.4771C3.42086 20.0948 3.44557 20.712 3.46922 21.3296C3.47185 21.3922 3.47553 21.4548 3.47238 21.5173C3.44609 22.053 3.40719 22.5887 3.39457 23.1243C3.38722 23.4439 3.43085 23.7641 3.43295 24.0842C3.43558 24.427 3.41823 24.7697 3.40667 25.1125C3.40036 25.308 3.38038 25.503 3.37986 25.6986C3.37355 28.2876 3.36408 30.8766 3.36619 33.4661C3.36776 35.3128 3.38984 37.1601 3.39037 39.0068C3.39037 39.2265 3.4503 39.3264 3.66478 39.3774C4.89698 39.6686 6.12708 39.9672 7.35613 40.269C8.0085 40.4293 8.65824 40.5991 9.30799 40.7678C9.43258 40.8004 9.55401 40.8462 9.69752 40.8924C9.70173 40.8819 9.68753 40.9171 9.66125 40.9828C10.3126 41.1095 10.9576 41.2352 11.6031 41.3608C11.5973 41.3908 11.5921 41.4202 11.5863 41.4502C11.2683 41.4023 10.9502 41.3545 10.6322 41.3067C10.628 41.3203 10.6238 41.334 10.6196 41.3477C10.7105 41.385 10.8083 41.4118 10.8908 41.4628C11.027 41.5474 11.232 41.5075 11.3108 41.7167C11.3271 41.7603 11.518 41.7319 11.6263 41.7488C11.9569 41.7998 12.2865 41.856 12.6166 41.9107C12.6208 41.8907 12.6251 41.8713 12.6298 41.8513C12.347 41.784 12.0641 41.7162 11.7608 41.6442C12.0337 41.5369 12.2907 41.5816 12.5472 41.6573C12.7107 41.7051 12.8753 41.7498 13.0361 41.8055C13.0982 41.8271 13.1518 41.8739 13.2091 41.9096C13.2837 42.111 13.5082 42.1688 13.76 42C13.575 41.9717 13.3899 41.9433 13.2049 41.9144L13.2059 41.9128ZM22.1767 41.8208C22.2004 41.8192 22.2235 41.8176 22.2472 41.8161C22.2755 42.4474 22.3039 43.0782 22.3328 43.7096C22.388 43.6365 22.3891 43.5629 22.388 43.4893C22.3507 41.1432 22.3234 38.7965 22.2708 36.4509C22.2519 35.603 22.172 34.7567 22.1184 33.9098C22.1173 33.8914 22.1021 33.874 22.0716 33.813C22.0584 33.8809 22.049 33.9061 22.0495 33.9308C22.0569 35.01 22.0516 36.0898 22.0774 37.1685C22.0984 38.0438 22.1646 38.918 22.1941 39.7932C22.2025 40.0482 22.1578 40.3058 22.1273 40.5612C22.1052 40.7447 22.0395 40.9271 22.0411 41.1095C22.0474 41.8366 22.0674 42.5636 22.0947 43.2901C22.1026 43.4993 22.1425 43.7096 22.1883 43.9146C22.213 44.026 22.2803 44.1275 22.3286 44.2337C22.3565 44.2268 22.3844 44.2195 22.4122 44.2126C22.1531 43.4273 22.2524 42.6188 22.1778 41.8213L22.1767 41.8208ZM22.7266 32.8642C22.7481 32.8658 22.7697 32.8679 22.7912 32.8694C22.8002 32.8432 22.816 32.8169 22.8165 32.7906C22.8354 32.1966 22.8564 31.6026 22.8664 31.008C22.868 30.9076 22.8223 30.8061 22.7981 30.7052C22.7744 30.7084 22.7502 30.7115 22.7266 30.7147V32.8637V32.8642ZM1.50685 15.994C1.26398 16.2142 1.24611 16.8266 1.44692 17.1694C1.469 16.7404 1.48792 16.3672 1.50685 15.994ZM22.8149 27.8055C22.8096 28.3244 22.5552 28.8474 22.7403 29.3789C22.765 29.3789 22.7902 29.3794 22.8149 29.38V27.8055ZM14.8645 4.08566C14.8571 4.11089 14.8497 4.13612 14.8424 4.16188C14.9791 4.20498 15.1147 4.25177 15.2524 4.29015C15.3775 4.32484 15.5794 4.31222 15.6193 4.38792C15.7681 4.67127 15.9053 4.47571 16.0604 4.37426C15.6619 4.27806 15.2635 4.18185 14.8645 4.08618V4.08566ZM23.8668 35.3349C23.7464 35.8963 23.7895 36.6391 23.9483 36.8557C23.9199 36.3248 23.8936 35.8301 23.8668 35.3349ZM22.5384 27.825C22.5489 27.825 22.5599 27.826 22.5705 27.8266V27.0974C22.5599 27.0985 22.5489 27.099 22.5384 27.1001V27.825ZM2.42206 6.83025V6.38026C2.39788 6.38131 2.3737 6.38237 2.34899 6.38342C2.30694 6.53692 2.27645 6.68989 2.42206 6.83025ZM23.0178 35.4495H23.0509V34.7998C23.0399 34.7998 23.0289 34.7998 23.0178 34.8003V35.449V35.4495ZM22.6346 28.0484C22.6015 28.0516 22.5684 28.0542 22.5352 28.0573C22.53 28.2161 22.4685 28.3812 22.5831 28.5257C22.6109 28.5231 22.6383 28.5205 22.6661 28.5173C22.6556 28.3607 22.6451 28.2045 22.6351 28.0479L22.6346 28.0484ZM3.27945 21.3317C3.29207 21.3328 3.30468 21.3333 3.3173 21.3344V20.7561C3.30468 20.7561 3.29207 20.7561 3.27945 20.7561V21.3323V21.3317ZM11.9333 3.89378C11.9369 3.86382 11.9406 3.83438 11.9448 3.80441C11.7587 3.76341 11.5732 3.72241 11.3871 3.6814C11.3808 3.70716 11.375 3.73345 11.3687 3.75921C11.5569 3.80389 11.7451 3.84857 11.9333 3.89378ZM23.012 36.6081C23.0241 36.6081 23.0367 36.6092 23.0488 36.6097V36.0693C23.0367 36.0693 23.0241 36.0693 23.012 36.0693V36.6081Z" fill="white"/>
<path d="M0.914917 39.7768V37.4906C0.925431 37.4906 0.935944 37.4906 0.946458 37.4906V39.7868C0.935944 39.7836 0.925431 39.78 0.914917 39.7768Z" fill="#365C4D"/>
<path d="M4.21279 37.6325C5.58726 36.2214 7.09919 35.6031 11.4738 38.3162C14.0705 39.9267 17.4052 41.5537 19.6255 39.9297C19.6959 39.8782 20.2584 39.3671 20.8209 38.5233C20.8209 40.7031 17.9765 43.2366 13.729 40.8558C11.4854 39.5999 9.2186 37.1873 6.68718 37.0467C6.19496 37.0193 5.70274 36.906 4.21279 37.6325Z" fill="white"/>
<path d="M11.9439 40.5989C9.0944 38.9837 6.36274 36.9535 4.29181 38.5033L11.9439 40.5989Z" fill="white"/>
<path d="M4.00217 36.3623C8.71343 33.0574 10.4547 36.315 14.8734 37.5613C17.8675 38.5935 20.6802 36.2027 19.8364 34.0932C21.524 35.4292 20.0988 40.8517 14.7033 38.9451C12.2404 37.8721 10.5417 36.0108 7.72899 35.5185C7.16226 35.4194 5.54915 35.5185 4.00217 36.3623Z" fill="white"/>
<path fill-rule="evenodd" clip-rule="evenodd" d="M13.6732 34.6907C13.7045 33.9848 13.9095 33.4061 14.2972 32.975C14.6849 32.544 15.2048 32.2781 15.8559 32.1974C15.3201 31.9246 14.9184 31.5481 14.6409 31.0676C14.3629 30.597 14.2376 30.0535 14.2636 29.4669C14.3016 28.6118 14.5992 27.9675 15.1654 27.5543C15.7317 27.1411 16.4745 27.0147 17.3934 27.185C18.2929 27.3445 19.0024 27.7445 19.5431 28.3563C20.0738 28.9676 20.3312 29.6764 20.2955 30.4818C20.2668 31.128 20.1047 31.6389 19.7996 32.0039C19.494 32.3788 19.0555 32.6084 18.4839 32.6926C18.7304 32.8088 18.9548 32.9452 19.1566 33.1007C19.5915 33.7937 19.6159 34.8412 19.1754 35.7228C19.1771 35.6963 19.1786 35.6695 19.1798 35.6424C19.2107 34.9465 19.047 34.3714 18.6894 33.8972C18.3215 33.4326 17.8169 33.1313 17.1646 33.0127C16.5025 32.8936 15.9802 32.99 15.5869 33.3212C15.2036 33.6529 14.9917 34.1615 14.9604 34.8674C14.9394 35.5638 15.0933 36.1385 15.4517 36.5927C15.728 36.943 16.0916 37.1964 16.5473 37.3441C16.0469 37.3711 15.4795 37.3114 14.8424 37.1406C14.6343 37.0576 14.4314 36.9714 14.2331 36.8829C13.8263 36.2689 13.6356 35.5359 13.6732 34.6907ZM18.5446 31.5497C18.8647 31.2949 19.0423 30.8844 19.067 30.3276C19.0918 29.7708 18.9534 29.2965 18.6416 28.914C18.3402 28.5221 17.9125 28.2839 17.3592 28.1797C16.8155 28.0858 16.3736 28.1658 16.0431 28.4301C15.7125 28.6944 15.5349 29.1049 15.5098 29.6716C15.4851 30.2284 15.6239 30.6928 15.9261 31.0649C16.2284 31.4369 16.6661 31.6755 17.2293 31.7802C17.7826 31.8845 18.2244 31.8045 18.5446 31.5497Z" fill="white"/>
</svg>
