<svg width="1024" height="524" viewBox="0 0 1024 524" fill="none" xmlns="http://www.w3.org/2000/svg">
<g opacity="0.05">
<path d="M138.156 166.336C143.136 166.158 141.708 168.146 139.519 170.393C136.275 173.625 133.031 176.858 129.949 180.22C113.275 198.224 101.921 219.478 91.1834 241.265C78.4346 267.318 65.9777 293.518 50.796 318.311C40.9505 334.392 30.2779 349.811 15.4043 361.82C10.6194 365.682 8.65682 368.689 11.1709 376.075C16.1342 390.621 15.5178 406.25 14.6419 421.604C12.4847 459.796 4.18014 497.082 -1.7401 534.74C-8.22804 576.148 -5.87616 616.198 18.1292 652.547C24.4136 662.295 32.3431 670.885 41.5669 677.939C44.6324 680.234 45.2974 682.464 44.2594 686.117C34.4139 720.753 41.4696 753.013 58.5977 783.737C73.3902 810.26 95.4168 830.608 116.989 851.312C138.075 871.693 159.258 892.057 177.197 915.428C186.069 926.984 194.082 939.057 199.467 952.682C200.408 955.074 201.089 957.013 204.333 957.11C233.999 958.048 260.34 970.04 286.292 982.615C312.244 995.189 337.384 1009.31 363.288 1021.92C395.727 1037.71 429.627 1045.89 465.943 1038.81C480.563 1036.05 494.486 1030.42 506.898 1022.24C509.428 1020.63 511.261 1019.19 514.635 1021.4C553.773 1047.26 595.345 1046.49 637.906 1031.73C665.479 1022.15 690.296 1006.53 716.264 993.46C742.524 980.239 768.849 967.18 797.752 960.537C805.862 958.678 815.951 960.246 821.887 955.882C827.516 951.745 828.375 941.692 832.69 934.79C848.52 909.141 869.46 887.92 890.611 866.698C909.247 848.047 929.538 831.028 946.342 810.567C970.088 781.604 984.848 749.247 983.259 710.942C983.048 706.093 983.259 700.921 981.41 696.622C977.095 686.294 980.777 680.331 988.757 673.106C1016.72 647.747 1027.51 614.582 1028.93 577.748C1030.07 548.462 1023.21 520.13 1018.49 491.555C1013.46 461.056 1008.58 430.558 1009.7 399.429C1010.09 388.649 1012.79 378.24 1014.19 367.622L1016.4 365.408C1019.64 366.377 1019.35 368.414 1018.57 371.097C1010.46 399.462 1013.14 428.117 1017.11 456.628C1021.33 486.932 1027.52 516.978 1031.25 547.315C1035.81 584.31 1032.15 620.288 1011.94 653.032C1005.29 663.816 996.939 673.464 987.216 681.607C984.556 683.854 982.853 685.81 983.745 689.689C994.677 737.125 979.123 777.482 949.83 813.993C934.453 833.162 915.671 849.065 898.218 866.262C875.202 888.889 852.186 911.646 835.285 939.574C834.128 941.064 833.229 942.735 832.625 944.52C829.722 959.616 820.103 963.462 805.457 965.03C780.608 967.697 757.949 978.784 735.711 989.855C710.149 1002.56 685.122 1016.38 659.348 1028.64C623.097 1045.92 585.289 1053.24 545.453 1042.32C534.793 1039.35 524.62 1034.87 515.251 1029C512.705 1027.38 510.775 1025.98 507.368 1028.06C469.673 1051.08 429.838 1051.29 388.964 1038.52C361.195 1029.86 336.638 1014.45 311.108 1001.35C285.578 988.239 259.724 975.148 231.826 967.131C221.932 964.286 211.908 962.282 201.543 962.848C198.689 963.026 197.31 962.412 196.256 959.502C185.761 930.685 165.584 908.526 144.79 887.031C123.007 864.823 100.153 843.845 79.0185 821.266C54.9645 795.568 38.8906 765.522 35.2249 729.852C33.8041 716.462 34.7594 702.927 38.0472 689.866C39.1177 685.68 38.5987 683.272 35.1763 680.314C7.13215 656.152 -5.81128 624.538 -9.26611 588.432C-12.2181 557.562 -5.6653 527.483 -0.264095 497.357C5.13711 467.23 9.98685 437.556 9.92197 407.026C9.92197 395.179 8.8028 383.38 4.66674 372.147C3.53135 369.076 2.93121 366.41 5.93188 364.292C24.8767 350.878 37.2362 331.968 48.8983 312.573C65.8967 284.289 79.2131 253.952 94.3787 224.618C105.749 202.831 119.033 182.385 138.156 166.336Z" fill="#254166"/>
<path d="M624.703 33.7727C623.486 36.8274 621.021 37.4254 618.134 37.0052C585.094 31.7848 551.924 26.5966 522.112 10.3373C514.602 6.24827 509.996 5.92503 502.437 10.4343C479.73 24.043 453.778 28.6977 428.053 33.7081C394.997 40.173 361.195 42.0478 328.382 49.8704C321.067 51.6159 313.898 53.911 306.664 55.9474L303.647 53.4423C325.09 43.8903 348.187 41.6276 371.024 38.3305C407.827 33.0131 444.841 28.7139 480.151 16.1881C490.078 12.6647 499.615 8.39786 507.92 1.64201C509.996 0.0257781 511.488 -0.782338 514.148 1.044C539.97 18.8226 570.009 24.3501 599.951 30.1362C608.126 31.6555 616.447 32.5605 624.703 33.7727Z" fill="#254166"/>
<path d="M902.288 190.207C886.507 171.895 868.989 155.846 846.314 146.197C833.533 140.766 820.362 137.081 806.413 136.774C801.807 136.677 800.055 135.045 798.4 130.956C781.256 88.8527 748.395 65.1264 705.72 52.7461C682.737 46.0711 659.104 43.372 635.618 39.6061C633.996 39.3314 630.168 41.2224 630.493 36.7616C643.793 35.1453 656.59 38.8788 669.517 40.786C681.596 42.7061 693.546 45.3617 705.298 48.7378C748.362 60.504 781.532 84.1172 800.266 125.347C802.731 130.778 805.472 132.669 811.247 133.299C850.482 137.534 880.684 157.316 904.3 188.057L902.288 190.207Z" fill="#254166"/>
<path d="M902.289 190.208L904.365 188.059C920.439 206.791 930.512 229.03 941.136 250.93C957.355 284.419 973.851 317.778 996.753 347.452L994.775 349.585C978.003 330.465 966.114 308.242 954.501 285.906C945.353 268.353 936.935 250.478 928.176 232.699C920.796 217.816 912.135 203.599 902.289 190.208Z" fill="#254166"/>
<path d="M303.647 53.3942L306.664 55.8993C284.702 64.8209 264.492 76.4255 248.5 94.301C238.955 104.942 231.387 117.19 226.149 130.472C225.143 132.977 224.9 135.725 221.088 135.531C212.394 135.079 204.025 137.616 195.461 138.57L193.125 136.275C200.148 133.236 207.723 132.622 215.119 132.218C219.304 131.992 220.958 130.602 222.564 126.803C238.411 90.1473 266.731 67.019 303.647 53.3942Z" fill="#254166"/>
<path d="M193.125 136.274L195.461 138.569C177.262 144.76 160.086 152.825 145.374 165.48C143.347 167.209 140.606 169.116 140.508 163.864C155.917 150.562 172.851 140.267 193.125 136.274Z" fill="#254166"/>
<path d="M994.774 349.584L996.753 347.451L1016.22 365.472L1014.01 367.686C1006.41 363.048 999.856 356.883 994.774 349.584Z" fill="#254166"/>
<path d="M587.803 1027.89C557.877 1027.72 535.899 1021.32 516.841 1006.05C514.246 1003.98 511.845 1001.06 507.449 1004.55C473.728 1031.34 436.082 1031.73 396.83 1020.26C371.608 1012.87 349.42 999.068 326.323 987.156C295.083 970.994 264.217 953.409 229.312 946.75C214.714 943.987 207.707 937.263 200.684 925.206C182.923 894.708 156.89 870.933 131.814 846.447C112.01 827.052 91.0537 808.724 75.807 785.208C61.2091 762.581 52.6451 738.256 53.9751 710.958C54.4254 701.339 56.4243 691.855 59.8953 682.868C61.8093 677.906 61.3551 674.884 56.6514 671.684C26.1094 651.303 13.7174 621.079 10.1329 585.829C7.3106 558.176 12.874 531.508 17.6264 504.678C24.3577 466.697 31.981 428.57 27.5043 389.926C25.8823 376.058 30.2779 368.252 38.7609 358.813C60.6739 334.392 74.9474 304.993 89.5452 275.933C104.354 246.469 116.876 215.696 139.389 190.677C157.474 170.603 178.722 155.847 205.89 150.723C213.692 149.236 221.494 150.174 229.295 149.899C232.361 149.786 234.632 149.899 235.783 145.81C248.889 99.7311 283.421 77.1038 326.614 64.4164C347.7 58.1939 369.808 56.3352 391.494 53.1028C431.751 46.9772 472.512 42.7265 509.104 22.6691C512.137 21.0529 514.083 21.9256 516.435 23.1863C543.149 37.3607 572.361 43.0498 601.719 48.2702C637.403 54.622 673.93 55.8665 708.43 67.7782C740.983 79.0918 769.384 96.6926 782.538 130.052C788.166 144.323 793.665 150.093 810.242 151.192C851.18 153.875 878.673 179.702 900.359 212.108C915.638 234.913 925.938 260.433 938.313 284.838C951.095 310.003 964.054 335.055 982.221 356.955C982.561 357.375 982.788 357.94 983.21 358.215C999.3 368.478 998.732 383.768 995.797 399.736C993.234 413.701 995.797 427.616 997.078 441.387C1000.5 478.091 1009.97 513.988 1013.62 550.628C1016.87 582.403 1014.13 613.871 996.77 642.268C989.214 654.748 978.888 665.336 966.585 673.219C962.968 675.546 961.265 677.987 962.822 682.464C977.338 724.486 965.693 761.401 940.357 795.471C925.662 815.221 907.171 831.432 889.557 848.467C865.746 871.482 840.67 893.722 824.077 922.701C815.448 937.764 805.619 945.328 788.393 948.932C752.888 956.383 721.697 975.164 689.809 991.746C666.031 1004.11 642.772 1017.61 616.122 1023.42C604.963 1025.91 593.674 1028.08 587.803 1027.89ZM581.882 1014.96C593.009 1015.28 603.763 1013.08 614.517 1010.58C639.739 1004.68 661.781 991.649 684.392 979.867C717.756 962.573 750.634 943.954 787.615 935.372C798.969 932.738 805.716 927.857 811.588 917.852C828.894 888.291 854.084 865.211 878.235 841.372C895.088 824.741 913.189 809.241 927.787 790.493C952.684 758.508 964.882 723.597 949.489 683.498C946.245 675.062 947.283 670.003 955.555 664.96C988.319 644.983 1000.22 613.758 1001.42 577.166C1002.75 536.938 990.33 498.472 986.162 458.939C983.875 437.136 980.599 415.43 983.113 393.304C983.745 387.776 986.989 381.133 981.75 375.8C963.616 357.359 950.543 335.394 938.265 313.025C922.84 284.806 910.691 254.841 894.374 227.123C880.068 202.879 861.788 182.482 835.366 170.554C820.233 163.685 804.338 162.166 788.118 163.055C782.149 163.378 779.505 161.439 778.029 155.701C776.22 148.176 773.7 140.837 770.503 133.785C756.262 104.046 730.489 88.5306 700.352 78.8332C667.994 68.5055 633.932 67.0347 600.762 61.2163C572.199 56.2059 543.782 50.7107 517.392 38.1041C515.904 37.2612 514.216 36.8316 512.504 36.86C510.792 36.8884 509.12 37.3739 507.66 38.2657C496.108 43.9064 483.996 48.3318 471.523 51.4704C431.849 62.3153 390.764 65.0629 350.49 72.4814C300.452 81.6616 259.659 102.624 245.856 156.655C244.607 161.504 242.077 162.716 237.324 162.667C227.381 162.57 217.374 161.778 207.496 163.734C177.311 169.73 156.079 188.624 138.74 212.431C120.314 237.741 108.977 266.963 94.6869 294.536C79.862 323.208 64.4856 351.476 41.9075 375.073C41.0868 375.749 40.4553 376.625 40.0745 377.616C39.6937 378.607 39.5764 379.68 39.7341 380.729C41.8241 395.296 42.3677 410.043 41.3561 424.723C39.9287 452.312 35.1601 479.384 30.5536 506.505C26.3527 531.217 21.0326 555.703 22.8168 581.142C25.2984 616.376 38.2094 645.517 69.2055 664.766C75.9692 668.984 77.5912 673.332 74.3472 681.042C60.6252 713.867 66.4482 744.85 84.436 774.428C99.7475 799.608 121.952 818.648 142.665 838.98C170.352 866.149 198.478 892.914 217.276 927.453C217.963 928.736 218.961 929.828 220.179 930.63C221.397 931.432 222.797 931.917 224.251 932.043C249.635 936.487 273.186 946.217 296.072 957.466C324.976 971.673 353.361 986.962 382.33 1000.99C401.752 1010.41 423.15 1015.07 444.744 1014.58C467.257 1014.15 487.191 1005.5 504.287 990.987C509.542 986.51 513.191 986.477 518.479 990.987C536.613 1006.55 557.536 1015.42 581.882 1014.96Z" fill="#254166"/>
<path d="M817.962 355.403C818.643 374.377 824.904 390.96 830.938 407.623C837.847 426.759 847.157 445.071 849.899 465.63C852.267 483.748 850.093 500.977 840.994 517.042C839.372 519.854 837.75 522.117 839.794 525.786C852.997 549.609 851.553 574.273 843.2 599.098C836.436 619.172 826.98 638.276 821.06 658.673C817.816 669.986 814.572 681.429 815.983 693.454C816.124 693.959 816.162 694.488 816.093 695.008C816.025 695.528 815.853 696.029 815.587 696.481C815.32 696.934 814.966 697.328 814.543 697.641C814.121 697.954 813.64 698.179 813.128 698.303C800.947 703.151 792.383 712.509 783.673 721.706C767.907 738.353 755.807 758.039 739.75 774.427C722.897 791.64 703.125 802.582 678.276 802.372C675.746 802.372 673.621 802.663 672.226 805.314C656.152 835.731 628.433 846.317 596.35 850.067C578.097 851.944 560 855.098 542.192 859.506C531.146 862.399 520.636 866.375 511.374 873.098C502.17 867.047 492.026 862.552 481.351 859.797C459.86 854.318 437.736 852.637 415.985 848.839C387.698 843.893 363.546 832.353 349.095 805.992C348.632 805.045 347.882 804.268 346.949 803.771C346.017 803.275 344.951 803.085 343.904 803.229C314.919 803.115 293.169 788.796 275.019 767.849C260.226 750.766 247.299 732.114 230.982 716.291C223.375 708.905 210.999 704.978 206.652 697.446C202.305 689.915 205.241 677.373 202.402 667.287C196.661 646.826 187.804 627.512 179.97 607.826C171.504 586.637 167.805 565.077 173.904 542.498C176.094 534.417 183.522 527.499 183.279 519.871C183.036 512.484 177.278 505.179 175.753 497.243C172.087 478.188 175.283 459.86 181.641 441.839C189.232 420.359 198.623 399.494 203.554 377.109C205.598 367.864 203.002 356.971 206.587 349.633C209.912 342.861 221.185 339.935 227.786 333.341C242.563 318.65 254.663 301.825 267.136 285.274C278.117 270.728 290.411 257.685 306.891 249.216C317.638 243.477 329.667 240.536 341.861 240.666C345.105 240.666 348.04 240.957 350.133 237.337C365.898 210.233 391.655 199.598 421.03 195.024C442.115 191.792 463.331 189.852 483.914 184.001C492.51 181.561 500.88 178.635 508.244 173.496C509.866 172.316 511.293 170.667 513.791 172.558C531.844 186.151 553.724 187.832 574.859 191.614C591.549 194.604 608.628 195.509 624.864 201.02C644.117 207.485 660.159 218.233 670.913 235.818C672.421 238.291 673.8 239.713 677.19 239.503C704.763 237.676 726.238 249.847 744.291 269.112C760.511 286.406 773 306.803 789.382 324.064C797.006 332.145 804.791 340.097 815.058 344.655C821.838 347.564 816.842 352.542 817.962 355.403ZM704.569 528.469V526.853H585.629C581.639 526.853 577.762 525.964 577.162 532.316C575.54 549.836 566.765 563.751 553.043 574.483C549.507 577.247 549.101 579.138 551.34 582.92C591.814 651.728 632.185 720.58 672.453 789.474C673.128 790.902 674.237 792.082 675.623 792.845C677.01 793.608 678.602 793.916 680.174 793.725C695.094 793.185 709.54 788.364 721.778 779.842C733.359 772.003 741.745 761.093 750.163 750.249C762.214 734.717 774.33 719.249 788.669 705.689C794.167 700.485 802.829 697.802 806.154 691.999C809.657 685.874 808.003 676.904 809.754 669.259C815.237 645.306 825.617 623.132 834.506 600.424C843.394 577.716 842.778 555.993 832.641 534.045C830.597 529.633 828.115 528.356 823.46 528.372C783.819 528.614 744.226 528.469 704.569 528.469ZM511.131 182.466C509.947 183.064 508.73 183.63 507.562 184.292C496.322 190.499 484.092 193.99 471.619 196.172C453.859 199.404 435.936 201.845 418.094 204.754C393.505 208.778 373.603 220.367 359.248 241.006C356.799 244.545 356.523 247.374 358.778 251.237C398.787 319.991 438.698 388.821 478.513 457.727C480.946 461.929 482.876 462.333 487.239 460.49C494.566 457.311 502.461 455.633 510.452 455.555C518.444 455.478 526.369 457.002 533.758 460.038C539.629 462.381 541.754 461.298 544.722 456.175C581.833 391.935 619.09 327.781 656.493 263.714C667.117 245.467 666.922 243.592 651.87 228.157L651.303 227.591C635.407 211.025 614.776 205.982 592.911 202.927C565.759 199.145 538.023 197.351 513.256 183.646C512.656 183.226 511.942 182.886 511.131 182.466ZM316.801 528.065V526.853C277.16 526.853 237.518 526.998 197.893 526.707C191.778 526.707 188.843 528.711 186.539 534.174C177.489 555.896 177.813 577.36 186.361 599.163C195.152 621.613 205.257 643.577 211.502 667.045C213.87 675.95 211.502 686.714 216.027 693.535C220.763 700.743 230.836 704.687 237.502 711.394C254.046 728.058 267.622 747.21 282.496 765.263C293.607 778.759 307.312 788.23 324.327 792.739C343.985 797.944 346.126 797.055 356.248 779.809L357.48 777.741C394.721 713.921 432.01 650.107 469.349 586.298C472.203 581.449 472.933 578.702 467.516 574.709C454.345 565.012 447.03 551.242 444.808 535.257C443.964 529.406 442.407 527.871 436.552 527.92C396.619 528.194 356.718 528.065 316.801 528.065ZM702.606 518.772V519.16C741.712 519.16 780.818 519.16 819.924 519.273C824.79 519.273 827.629 517.98 830.208 513.664C843.427 491.667 843.719 469.072 834.636 445.669C825.553 422.266 813.177 399.494 809.673 374.555C807.467 358.845 801.563 348.695 789.074 339.176C772.562 326.44 761.127 308.661 748.168 292.499C739.263 281.396 730.569 270.017 718.761 261.629C707.683 253.742 695.469 249.54 681.65 250.315C677.157 250.59 674.513 252.513 672.21 256.457C632.266 324.91 592.181 393.282 551.956 461.573C549.491 465.775 549.166 468.038 553.578 471.271C560.214 476.165 565.742 482.396 569.805 489.557C573.868 496.718 576.374 504.651 577.162 512.84C577.794 518.723 580.909 518.755 585.272 518.739C624.394 518.653 663.505 518.664 702.606 518.772ZM666.371 799.705C665.576 798.089 664.96 796.602 664.165 795.244C623.821 726.07 583.493 656.884 543.181 587.688C541.219 584.326 539.71 583.324 535.72 585.037C528.053 588.435 519.762 590.213 511.371 590.26C502.979 590.307 494.669 588.623 486.963 585.312C482.406 583.421 480.573 584.278 478.253 588.367C438.904 657.789 399.436 727.136 359.848 796.408C357.383 800.723 358.08 803.568 360.805 807.188C373.728 824.765 392.982 836.669 414.525 840.402C438.596 845.008 463.185 846.366 486.915 853.235C494.895 855.546 527.464 855.578 535.38 853.332C556.222 847.4 577.713 845.251 599.026 842.018C624.978 838.22 646.745 827.294 662.511 805.863C663.922 803.956 665.073 801.855 666.371 799.705ZM318.39 516.17V518.174C358.048 518.174 397.722 518.174 437.379 518.287C442.245 518.287 443.997 517.414 444.711 512C445.649 503.961 448.232 496.199 452.3 489.193C456.367 482.188 461.833 476.088 468.359 471.271C472.625 468.038 472.593 465.791 470.127 461.573C430.118 393.131 390.163 324.619 350.262 256.037C348.121 252.352 345.948 250.833 341.358 251.188C322.048 252.433 303.815 260.489 289.925 273.912C280.193 282.996 272.764 293.937 264.541 304.233C252.96 318.779 241.914 334.036 226.554 344.736C218.087 350.635 212.978 356.502 213.821 367.104C214.113 370.692 212.475 374.442 211.615 378.095C206.068 401.465 195.476 423.01 187.285 445.443C179.094 467.876 179.176 489.582 190.692 510.901C192.654 514.569 194.828 516.331 199.385 516.315C239.092 516.089 278.717 516.17 318.39 516.17ZM454.021 523.055C454.021 554.329 480.054 580.285 511.098 580.011C522.425 580.039 533.506 576.718 542.937 570.467C552.368 564.216 559.725 555.317 564.076 544.897C568.428 534.477 569.578 523.004 567.381 511.931C565.185 500.859 559.74 490.686 551.736 482.699C543.733 474.713 533.531 469.273 522.422 467.068C511.314 464.863 499.798 465.993 489.335 470.315C478.871 474.636 469.93 481.954 463.643 491.343C457.357 500.732 454.008 511.768 454.021 523.055Z" fill="#254166"/>
<path d="M302.235 179.929C302.235 170.231 299.446 163.589 297.58 156.817C296.234 151.968 298.245 150.255 301.797 147.992C305.609 145.568 307.442 147.216 309.81 149.851C314.806 155.378 320.061 160.696 326.857 167.839C326.046 158.853 323.419 152.614 321.229 146.408C319.039 140.202 319.607 136.048 327.409 134.755C331.22 148.283 335.016 161.94 338.941 175.565C340.076 179.492 337.416 180.559 334.918 182.272C331.918 184.325 330.052 183.194 328.057 181.012C323.062 175.727 317.969 170.571 312.876 165.399C311.448 163.96 310.426 161.633 307.556 162.619C309.664 170.7 311.546 178.894 314.043 186.862C315.357 191.162 314.692 193.505 310.572 195.978C306.453 198.451 304.879 195.865 302.722 193.521C294.709 184.826 286.632 176.195 278.7 167.435C277.37 165.964 273.834 164.203 277.516 161.827C279.933 160.211 282.528 157.495 285.756 161.391C290.541 167.257 295.78 172.753 302.235 179.929ZM302.576 179.929C302.754 179.735 303.079 179.541 303.095 179.347C303.111 179.153 302.787 178.927 302.608 178.733L302.025 179.589L302.576 179.929Z" fill="#254166"/>
<path d="M116.389 412.746C122.536 414.654 128.651 416.722 134.863 418.436C138.107 419.325 139.243 420.714 138.253 424.125C137.183 427.81 135.171 427.745 132.187 426.759C121.206 423.123 110.177 419.648 99.1959 416.044C96.6169 415.203 92.3349 415.074 94.5083 410.662C96.2439 407.17 94.3299 400.657 101.759 401.19C109.674 401.756 117.605 401.934 127.143 402.354C120.395 395.889 113.583 392.285 107.03 388.535C99.7798 384.382 104.824 379.808 105.83 375.605C107.208 369.9 111.101 373.828 113.534 374.539C124.11 377.642 134.62 381.198 145.066 384.495C148.099 385.448 150.597 386.224 149.202 390.491C147.807 394.758 145.455 394.063 142.454 392.899C136.064 390.41 129.365 389.376 120.444 387.856C127.824 392.398 133.29 395.647 138.626 399.17C141.53 401.045 145.504 401.74 143.752 407.429C142 413.118 138.059 410.807 134.766 411.13C133.693 411.093 132.631 410.891 131.619 410.532C129.851 408.803 127.873 409.336 125.894 410.047L117.67 409.659C115.075 409.029 112.447 408.237 109.723 410.064C110.513 411.039 111.54 411.797 112.707 412.266C113.873 412.736 115.14 412.901 116.389 412.746Z" fill="#254166"/>
<path d="M915.395 444.296C908.907 445.428 902.597 446.527 896.353 447.529C893.109 448.062 889.605 449.953 888.502 444.296C887.399 438.639 891.746 439.609 894.374 439.092C904.933 437.039 915.557 435.229 926.197 433.597C928.484 433.241 931.744 430.526 933.172 434.389C934.453 437.864 934.891 441.468 931.047 444.49C925.338 448.951 920.066 453.977 914.665 458.842C913.562 459.844 911.794 460.458 911.972 463.125C919.142 463.61 925.905 461.04 932.864 460.184C935.67 459.844 937.827 459.068 938.573 463.255C939.319 467.441 937.6 468.33 934.129 468.911C922.986 470.738 911.875 472.855 900.716 474.681C898.445 475.053 895.347 477.429 893.968 473.291C892.849 469.946 892.038 466.826 895.59 463.917C900.635 459.909 905.322 455.529 910.091 451.1C911.989 449.274 914.795 448.224 915.395 444.296Z" fill="#254166"/>
<path d="M871.422 328.185C865.161 331.224 858.868 334.197 852.688 337.365C850.19 338.642 848.487 339.208 846.946 335.975C845.584 333.082 845.211 331.337 848.568 329.624C858.673 324.581 868.551 319.102 878.672 314.075C880.911 312.976 883.311 309.227 886.231 312.572C889.15 315.918 889.621 319.215 886.766 323.401C881.9 330.464 877.894 338.076 872.817 346.642C881.105 345.139 886.766 340.452 893.157 337.511C895.849 336.266 898.023 334.278 900.18 338.594C902.11 342.44 900.472 343.717 897.439 345.253C887.35 350.344 877.423 355.742 867.286 360.72C865.356 361.657 863.036 365.342 860.49 361.625C858.608 358.845 856.565 356.13 859.111 352.202C863.977 344.768 868.113 336.961 872.557 329.316C872.671 328.702 872.785 328.088 872.914 327.474L871.422 328.185Z" fill="#254166"/>
<path d="M930.852 521.908C928.273 517.592 927.138 513.827 932.117 510.077C935.361 507.604 935.101 503.386 934.096 499.588C933.568 497.196 932.275 495.04 930.412 493.442C928.549 491.845 926.216 490.894 923.764 490.731C916.919 489.923 909.993 490.23 905.565 496.598C902.321 501.188 902.954 506.295 905.484 511.144C906.7 513.503 908.225 515.12 911.129 514.522C914.275 513.875 913.48 511.418 913.383 509.382C913.253 506.748 912.231 504.065 916.627 503.644C921.704 503.176 920.455 506.877 921.039 509.366C921.064 509.635 921.064 509.905 921.039 510.174C922.126 523.201 917.795 527.047 904.819 524.187C903.832 523.928 902.921 523.44 902.159 522.764C894.682 516.299 893.254 498.101 899.515 489.793C906.376 480.678 922.385 477.962 932.539 484.217C941.816 489.939 945.515 504.113 940.405 514.214C939.51 516.14 938.183 517.834 936.527 519.168C934.87 520.502 932.929 521.439 930.852 521.908Z" fill="#254166"/>
<path d="M557.261 127.805C558.121 118.366 558.786 111.061 559.483 103.756C559.775 100.814 559.629 97.7916 564.268 98.1472C568.599 98.4866 568.647 100.733 568.274 104.127C567.09 115.053 566.36 126.027 565.03 136.937C564.738 139.377 566.344 143.547 561.64 143.838C557.699 144.097 554.617 142.981 552.736 138.715C549.093 130.44 544.689 122.519 539.581 115.053C538.813 122.197 538.057 129.346 537.31 136.5C537.035 139.216 537.083 141.64 532.85 141.349C528.617 141.058 528.308 138.892 528.665 135.531C529.817 124.33 530.758 113.113 531.909 101.913C532.153 99.4725 531.212 95.8845 535.153 95.7228C538.592 95.5935 541.755 96.0137 543.588 100.216C547.496 108.911 552.038 117.316 557.261 127.805Z" fill="#254166"/>
<path d="M842.681 253.24C842.811 264.91 834.571 275.431 824.417 279.472C815.577 282.979 809.268 281.088 801.709 272.603C790.485 260.029 790.485 260.029 803.331 248.715C809.398 243.414 815.431 238.096 821.53 232.844C822.828 231.728 824.498 229.239 826.137 231.227C832.527 238.921 841.545 244.933 842.681 253.24ZM834.068 255.131C833.711 250.444 830.321 246.258 826.266 243.495C823.12 241.361 821.173 246.016 818.886 247.81C814.475 251.285 810.501 255.325 806.073 258.768C803.169 261.015 803.25 262.841 805.602 265.233C809.09 268.821 811.831 273.653 818.156 271.989C824.482 270.324 833.598 261.015 834.068 255.131Z" fill="#254166"/>
<path d="M100.607 501.833C101.986 499.199 97.8013 493.882 103.949 492.492C112.399 490.568 120.314 493.332 122.634 498.827C126.981 509.139 127.5 519.321 119.763 528.356C113.713 535.419 101.061 537.294 91.1673 533.204C77.3805 527.515 73.1633 506.181 84.1117 496.694C86.2689 494.835 89.4318 491.296 92.1892 494.528C93.9085 496.629 94.5897 500.524 90.7618 503.66C89.4948 504.656 88.4405 505.895 87.6612 507.303C86.8818 508.712 86.3931 510.261 86.2239 511.861C86.0546 513.46 86.2081 515.077 86.6755 516.616C87.1429 518.156 87.9146 519.586 88.9452 520.824C93.5517 526.432 106.657 527.402 112.886 522.602C117.638 518.933 118.887 510.319 115.659 504.985C115.261 504.144 114.618 503.441 113.814 502.968C113.01 502.496 112.082 502.275 111.15 502.334C109.09 502.415 108.652 503.757 108.263 505.47C107.63 508.315 109.885 513.309 103.608 512.371C97.3309 511.434 101.84 506.763 100.656 504.048C100.531 503.316 100.515 502.57 100.607 501.833Z" fill="#254166"/>
<path d="M455.189 136.614C460.461 135.919 465.278 135.337 470.079 134.642C473.112 134.205 475.951 133.43 476.567 138.052C477.183 142.674 473.939 141.963 471.506 142.303C464.305 143.353 456.908 143.709 449.901 145.309C443.851 146.683 441.792 144.873 441.191 138.989C440.11 128.301 438.71 117.65 436.99 107.037C436.277 102.64 437.088 100.572 441.856 100.168C449.966 99.3756 457.898 98.1958 465.894 97.0321C468.36 96.6765 470.144 96.6119 470.387 99.7635C470.566 102.333 470.874 104.483 467.143 104.822C461.791 105.307 456.487 106.439 451.134 106.94C446.674 107.311 447.079 109.816 447.323 113.065C447.582 116.734 449.042 117.542 452.432 116.912C456.925 116.055 461.515 115.7 466.024 114.924C468.765 114.455 470.549 114.536 471.182 117.946C471.814 121.356 470.501 122.294 467.532 122.617C462.991 123.118 458.482 124.088 453.924 124.363C449.366 124.637 448.863 127.159 449.577 130.828C450.291 134.496 450.129 138.359 455.189 136.614Z" fill="#254166"/>
<path d="M639.511 114.357C634.126 117.59 629.779 120.822 625.141 123.085C620.502 125.348 619.253 128.241 621.199 133.219C624.2 140.928 626.6 148.88 629.423 157.22C621.734 157.656 616.755 155.603 615.814 147.425C615.535 144.757 614.789 142.159 613.608 139.748C612.392 137.389 613.77 132.54 609.829 133.025C607.922 133.181 606.107 133.906 604.62 135.105C603.133 136.305 602.043 137.923 601.492 139.748C600.804 141.776 600.261 143.85 599.87 145.955C599.448 149.72 597.437 150.173 594.274 149.332C591.111 148.492 589.57 147.716 590.641 143.886C593.966 132.039 596.918 120.079 599.902 108.135C600.697 104.902 602.157 103.674 605.612 104.692C608.726 105.597 610.251 106.874 609.229 110.349C607.947 114.648 606.974 119.028 605.774 123.78C617.355 121.436 624.2 105.985 639.511 114.357Z" fill="#254166"/>
<path d="M269.083 221.886C266.368 221.957 263.7 221.171 261.46 219.64C259.692 218.411 256.172 217.441 258.475 214.435C259.968 212.48 261.59 208.875 265.547 211.284C270.511 214.306 274.841 212.754 278.604 208.956C280.859 206.661 281.848 203.72 280.08 200.875C278.312 198.031 275.425 198.677 272.765 199.614C268.71 201.037 264.769 202.847 260.633 203.978C254.956 205.594 249.765 204.366 246.456 199.13C243.148 193.893 244.04 188.414 248.078 183.565C253.788 176.68 262.417 173.124 268.613 175.484C270.884 176.373 274.971 177.262 273.657 180.333C272.57 182.886 270.024 186.604 265.466 184.341C264.279 183.727 262.935 183.479 261.606 183.63C259.875 183.941 258.244 184.66 256.848 185.725C255.452 186.79 254.33 188.172 253.577 189.755C253.098 190.428 252.905 191.261 253.038 192.075C253.172 192.889 253.622 193.617 254.291 194.103C257.21 195.946 259.968 194.249 262.725 193.311C266.455 191.782 270.286 190.513 274.192 189.513C276.505 189.046 278.9 189.196 281.136 189.946C283.372 190.697 285.37 192.022 286.928 193.787C288.485 195.553 289.549 197.697 290.009 200.002C290.47 202.308 290.313 204.694 289.553 206.92C287.233 214.241 276.674 221.918 269.083 221.886Z" fill="#254166"/>
<path d="M673.881 128.226C682.607 128.226 692.064 134.077 693.702 140.833C694.415 143.791 695.518 148.122 691.934 148.914C691.072 149.112 690.176 149.118 689.312 148.932C688.447 148.747 687.634 148.374 686.929 147.841C686.225 147.307 685.647 146.626 685.237 145.845C684.826 145.064 684.593 144.203 684.554 143.322C684.165 138.328 680.061 137.116 675.957 136.259C673.995 135.839 672.097 136.049 671.091 138.037C670.657 138.889 670.549 139.869 670.788 140.794C671.027 141.719 671.596 142.526 672.389 143.063C675.828 146.07 679.445 148.882 682.834 151.937C688.333 156.898 689.631 162.83 685.932 169.343C682.38 175.582 676.72 177.037 669.972 175.614C659.462 173.384 652.13 166.644 652.13 158.595C652.13 156.3 651.238 152.454 655.374 152.696C657.937 152.858 661.716 153.068 661.424 157.545C661.248 159.179 661.575 160.828 662.364 162.272C663.152 163.716 664.363 164.886 665.836 165.626C669.729 167.743 674.173 169.764 677.385 165.125C680.596 160.486 675.86 158.66 673.232 156.155C670.086 153.633 667.086 150.934 664.247 148.074C662.549 146.304 661.474 144.034 661.181 141.603C660.889 139.173 661.395 136.714 662.625 134.594C663.606 132.5 665.216 130.762 667.233 129.621C669.25 128.48 671.574 127.993 673.881 128.226Z" fill="#254166"/>
<path d="M521.09 93.8962C520.51 95.0378 519.871 96.1491 519.176 97.2257C515.024 102.398 506.784 106.438 507.109 112.418C507.433 118.398 513.905 123.586 517.457 129.259C519.42 132.346 522.404 134.9 522.988 138.86C516.014 140.977 510.807 139.619 507.887 132.557C507.049 130.57 505.912 128.722 504.514 127.077C502.421 124.621 501.902 118.77 498.285 120.225C496.152 121.147 494.371 122.725 493.203 124.729C492.036 126.733 491.543 129.057 491.797 131.361C492.073 134.884 494.684 140.573 486.931 140.282C484.271 140.169 483.087 139.7 483.039 136.791C482.79 123.861 482.433 110.969 481.968 98.1146C481.838 94.3649 484.401 94.6235 486.834 94.3649C489.656 94.074 491.473 94.6882 491.343 98.1308C491.165 102.85 491.343 107.57 491.343 113.647C500.232 107.311 503.557 97.7429 512.121 94.0417C514.408 93.0235 517.619 93.8962 521.09 93.8962Z" fill="#254166"/>
<path d="M215.784 224.941C214.571 224.68 213.309 224.747 212.131 225.137C210.953 225.526 209.901 226.223 209.085 227.155C206.879 229.466 204.041 232.214 206.376 235.511C208.712 238.808 211.761 236.255 214.276 235.01C218.136 233.119 221.672 230.501 225.629 228.998C234.923 225.474 243.909 232.052 243.796 241.928C243.65 253.241 229.052 264.426 218.898 260.773C216.709 259.997 212.637 259.642 214.162 255.924C215.2 253.371 216.806 249.815 221.364 251.738C227.349 254.276 231.096 250.801 233.934 246.13C234.646 245.13 235.006 243.922 234.956 242.697C234.906 241.472 234.45 240.297 233.658 239.358C231.793 236.998 229.36 237.418 227.089 238.566C223.018 240.618 219.158 243.124 215.005 245.031C209.312 247.633 203.846 247.116 199.661 242.041C195.477 236.966 196.077 231.487 199.661 226.428C203.603 220.868 208.274 215.842 215.768 215.615C219.125 215.502 224.024 215.809 223.878 219.963C223.85 220.902 223.589 221.82 223.118 222.634C222.646 223.448 221.98 224.132 221.177 224.626C220.375 225.119 219.462 225.406 218.521 225.461C217.579 225.516 216.639 225.338 215.784 224.941Z" fill="#254166"/>
<path d="M163.28 300.58C159.615 298.285 156.452 295.941 152.964 294.212C148.715 292.095 148.488 289.719 151.115 286.05C152.737 283.755 153.97 283.674 156.241 285.096C166.93 291.82 177.667 298.479 188.518 304.96C191.876 306.98 190.984 308.774 189.427 311.425C187.61 314.496 185.874 314.932 183.068 312.734C181.187 311.247 178.738 310.439 176.954 308.855C171.779 304.281 169.217 305.946 165.519 311.392C160.896 318.197 161.658 321.51 168.844 325.26C171.682 326.73 179.565 326.779 175.202 334.246C173.58 336.977 172.282 338.206 169.006 336.088C158.625 329.397 148.066 322.965 137.474 316.597C134.23 314.706 134.474 312.912 136.209 310.132C137.945 307.352 139.453 306.172 142.357 308.516C143.797 309.755 145.444 310.734 147.223 311.409C149.737 312.314 151.959 316.758 154.538 314.059C157.928 310.423 160.069 305.606 163.28 300.58Z" fill="#254166"/>
<path d="M129.494 445.896C130.873 445.444 132.284 445.896 131.959 448.143C131.57 450.89 132.592 455.4 128.878 455.545C119.146 455.933 119.6 462.689 118.302 469.332C117.345 474.342 118.643 477.041 123.168 478.577C128.407 480.354 127.661 484.621 125.99 487.741C123.687 492.007 121.011 487.741 119.016 486.625C108.635 481.001 98.4654 475.021 88.1982 469.186C85.3922 467.57 82.5375 466.422 83.5269 462.026C84.3703 458.293 85.5219 456.014 89.7715 455.125C102.829 452.377 115.853 449.096 129.494 445.896ZM110.403 471.643C110.403 467.053 113.193 461.849 110.987 460.814C106.543 458.745 101.417 461.477 96.1621 463.061C100.136 467.053 104.937 468.669 110.403 471.643Z" fill="#254166"/>
<path d="M193.741 304.41C186.296 291.707 179.143 279.181 171.617 266.833C169.557 263.439 170.19 261.144 172.428 258.218C174.667 255.293 176.905 255.18 180.084 256.166C192.152 259.899 204.284 263.374 216.352 267.108C218.217 267.69 222.288 267.108 220.78 270.793C219.758 273.282 218.574 277.096 214.016 276.207C211.015 275.609 207.771 272.425 204.998 274.963C201.478 278.195 198.867 282.397 195.834 286.147C194.212 288.119 195.363 289.848 196.58 291.19C201.154 296.297 199.24 300.257 193.741 304.41ZM183.75 267.011L182.744 266.106L182.55 268.045C184.399 271.278 186.231 274.51 188.129 277.662C188.908 278.971 189.865 280.894 191.584 278.955C193.303 277.015 195.931 274.365 196.207 271.827C196.482 269.29 192.719 269.467 190.643 268.74C188.567 268.013 186.053 267.576 183.75 267.011Z" fill="#254166"/>
<path d="M818.238 290.155C833.031 286.761 847.434 283.529 861.853 280.102C864.87 279.391 866.314 280.733 867.693 282.995C869.071 285.258 871.131 287.068 869.023 290.155C860.523 302.503 852.186 314.981 843.768 327.442C838.351 323.223 837.28 319.49 841.562 313.752C846.039 307.772 838.318 304.669 836.518 300.063C835.302 296.927 832.901 295.214 829.479 296.83C823.477 299.578 820.46 296.653 818.238 290.155ZM857.669 291.174L856.339 289.735C851.878 291.174 846.396 291.529 843.363 294.438C841.579 296.135 846.315 300.224 848.78 303.813C852.008 299.206 854.83 295.182 857.669 291.174Z" fill="#254166"/>
<path d="M145.309 340.356C151.472 340.356 157.668 340.097 163.8 340.501C165.649 340.631 169.72 339.176 169.249 342.861C168.876 345.722 168.406 349.972 163.248 349.892C160.458 349.892 156.76 347.823 154.927 350.667C152.251 354.988 150.075 359.597 148.439 364.405C147.482 367.072 150.434 368.624 152.17 370.046C155.414 372.729 154.57 375.266 153.143 378.515C151.521 382.038 150.353 381.602 148.131 379.259C138.707 369.335 129.267 359.411 119.649 349.682C117.086 347.079 118.319 344.914 119.341 342.457C120.363 340 121.871 337.996 125.261 338.287C131.944 338.837 138.659 339.063 145.358 339.418L145.309 340.356ZM129.316 347.225C134.182 352.219 136.81 357.553 141.805 358.215C143.687 358.458 145.731 352.655 146.152 348.518L129.316 347.225Z" fill="#254166"/>
<path d="M387.293 159.709C382.524 163.556 378.242 165.496 374.317 159.532C371.706 155.572 368.429 156.445 365.347 158.4C361.276 160.986 353.491 159.726 354.448 167.758C355.259 174.466 351.301 175.839 345.17 176.761C345.17 161.762 345.17 147.087 345.17 132.427C345.17 129.195 346.792 127.773 349.565 126.641C352.339 125.51 354.431 125.187 356.702 127.659C366.71 138.391 376.961 148.945 387.293 159.709ZM353.62 137.082C353.62 142.561 353.62 146.198 353.62 149.834C353.62 153.471 354.529 154.344 358.34 153.067C364.309 151.127 365.964 148.945 360.498 144.404C358.073 142.073 355.777 139.613 353.62 137.034V137.082Z" fill="#254166"/>
<path d="M751.12 175.484C751.198 177.917 750.637 180.329 749.494 182.481C748.351 184.633 746.665 186.451 744.602 187.756C742.54 189.061 740.171 189.808 737.73 189.924C735.289 190.039 732.861 189.518 730.683 188.414C729.918 188.14 729.2 187.747 728.558 187.25C721.308 180.446 716.767 183.403 713.328 191.242C711.917 194.474 710.295 196.559 706.078 193.779C702.234 191.242 703.515 189.351 705.251 186.636C711.511 176.938 717.772 167.241 723.774 157.301C725.817 153.939 727.537 152.792 731.105 155.394C735.663 158.723 740.594 161.552 745.314 164.671C747.164 165.791 748.678 167.385 749.7 169.287C750.721 171.189 751.211 173.329 751.12 175.484ZM735.128 181.124C736.801 181.126 738.411 180.483 739.62 179.329C740.829 178.175 741.544 176.601 741.615 174.934C741.956 172.009 733.96 164.299 731.17 165.156C726.969 166.449 724.276 171.427 724.682 174.223C725.542 178.732 731.121 179.88 735.128 181.124Z" fill="#254166"/>
<path d="M423.658 149.058C424.226 151.094 421.517 151.288 419.23 152.112C415.548 153.454 414.445 151.369 413.748 148.427C411.72 139.829 409.222 131.328 407.746 122.568C406.805 116.976 404.502 116.329 399.636 117.719C397.301 118.333 393.538 121.857 392.143 115.893C390.91 110.559 394.851 111.044 397.739 110.317C405.281 108.393 412.856 106.567 420.446 104.789C423.171 104.143 426.107 102.543 427.486 107.068C428.978 111.917 425.426 112.03 422.733 112.305C416.245 112.967 415.045 115.876 416.846 121.84C419.408 130.277 421.176 138.956 423.658 149.058Z" fill="#254166"/>
<path d="M912.443 372.972C916.32 372.859 915.492 376.204 916.482 378.111C917.958 380.891 915.882 381.732 913.627 382.491C905.225 385.32 896.969 388.585 888.47 391.025C883.409 392.48 881.739 394.387 884.156 399.446C885.875 403.034 886.702 407.042 888.065 410.759C889.07 413.539 888.535 415.042 885.502 416.206C881.998 417.531 881.382 415.543 880.636 413.168C878.17 405.814 875.673 398.476 873.223 391.122C872.672 389.506 871.115 387.34 873.84 386.37C886.686 381.829 899.646 377.416 912.443 372.972Z" fill="#254166"/>
<path d="M780.169 240.344C779.332 241.544 778.416 242.689 777.428 243.77C775.806 245.386 774.541 243.98 773.325 242.946C767.21 237.693 761.16 232.343 754.931 227.22C752.271 225.038 752.028 223.422 754.429 220.755C762.668 211.542 770.648 202.168 778.758 192.713C780.802 190.289 782.294 190.127 784.516 192.374C786.43 194.313 788.896 195.606 785.992 198.839C780.056 205.417 774.768 212.641 768.491 218.864C763.82 223.486 764.842 226.169 769.562 229.402C772.387 231.465 775.054 233.734 777.542 236.19C778.596 237.16 780.332 237.887 780.169 240.344Z" fill="#254166"/>
<path d="M887.334 432.271C884.772 433.03 884.772 430.525 884.236 428.489C883.701 426.452 882.193 423.721 885.858 422.751C898.558 419.519 911.275 416.173 923.959 412.827C926.781 412.068 927.997 413.409 928.387 415.866C928.727 418.032 930.512 420.86 926.878 421.846C914.016 425.337 901.04 428.667 887.334 432.271Z" fill="#254166"/>
<path d="M260.875 230.841C260.713 233.314 258.458 234.073 257.031 235.689C255.068 237.758 253.787 236.514 252.457 234.962C243.941 225.265 235.426 215.567 226.829 205.87C224.396 203.138 226.051 201.619 228.095 200.003C229.717 198.71 231.16 196.56 233.398 199.114C242.276 209.232 251.148 219.355 260.015 229.483C260.344 229.908 260.632 230.362 260.875 230.841Z" fill="#254166"/>
<path d="M771.655 183.42C771.087 184.325 770.454 185.489 769.676 186.54C762.458 196.237 755.175 205.934 748.006 215.632C746.238 218.04 744.892 219.721 741.713 217.103C739.004 214.888 737.739 213.418 740.367 210.056C747.811 200.52 754.851 190.661 762.15 180.964C763.269 179.493 764.129 176.535 767.016 178.588C768.703 179.881 770.811 180.754 771.655 183.42Z" fill="#254166"/>
<path d="M574.08 141.058C576.14 129.227 578.33 117.089 580.309 104.919C580.974 100.846 583.342 101.476 586.213 101.88C589.084 102.284 590.235 103.626 589.668 106.729C587.429 118.872 585.294 131.026 583.261 143.191C582.677 146.715 581.039 147.345 577.714 146.844C574.113 146.262 573.123 144.614 574.08 141.058Z" fill="#254166"/>
<path d="M716.312 148.525C715.761 149.607 715.323 150.577 714.82 151.515C709.321 161.891 703.725 172.202 698.34 182.627C696.718 185.746 695.405 187.039 691.723 185.003C688.041 182.966 688.479 181.14 690.101 178.053C695.859 167.531 701.341 156.848 706.969 146.246C707.943 144.436 708.786 141.93 711.641 143.837C713.555 145.066 716.507 145.421 716.312 148.525Z" fill="#254166"/>
<path d="M116.389 412.746C115.13 412.888 113.856 412.705 112.689 412.215C111.522 411.726 110.5 410.946 109.722 409.95C112.447 408.124 115.075 408.916 117.67 409.546C116.632 410.37 115.253 411.049 116.389 412.746Z" fill="#254166"/>
<path d="M125.894 409.935C127.873 409.224 129.852 408.691 131.62 410.42C130.737 410.955 129.707 411.197 128.677 411.11C127.648 411.023 126.673 410.611 125.894 409.935Z" fill="#254166"/>
<path d="M302.56 179.879L302.025 179.556L302.609 178.699C302.787 178.893 303.095 179.104 303.095 179.314C303.095 179.524 302.755 179.702 302.56 179.879Z" fill="#254166"/>
<path d="M871.422 328.186L873.044 327.475C872.915 328.089 872.801 328.703 872.688 329.317L871.422 328.186Z" fill="#254166"/>
<path d="M182.55 268.045L182.745 266.106L183.751 267.011C183.393 267.402 182.99 267.75 182.55 268.045Z" fill="#254166"/>
<path d="M500.929 341.535C500.929 321.397 500.653 301.243 501.107 281.121C501.253 274.801 499.21 273.573 493.387 273.751C482.033 274.122 470.679 273.46 459.439 273.605C455.254 273.605 453.989 272.506 453.859 268.223C453.356 251.544 453.178 251.447 470.192 251.576C500.378 251.802 530.563 252.319 560.732 252.368C568.047 252.368 571.42 253.693 570.204 262.227C568.452 274.413 569.085 274.429 556.855 274.219C547.691 274.074 538.494 274.543 529.281 274.074C523.621 273.767 522.793 276.126 522.696 281.04C522.501 321.332 521.901 361.625 521.853 401.918C521.853 408.528 520.231 410.613 513.451 410.371C499.518 409.87 499.518 410.274 499.518 396.31V341.519L500.929 341.535Z" fill="#254166"/>
<path d="M709.046 361.35C698.081 370.725 687.587 379.953 676.752 388.826C673.005 391.881 674.725 394.095 676.509 396.907C688.944 416.722 701.347 436.559 713.717 456.417C721.211 468.426 718.989 474.083 705.202 478.059C686.808 483.376 668.35 488.419 650.054 493.978C641.944 496.467 636.284 494.948 631.71 487.32C621.329 470.026 610.51 452.991 599.529 436.085C596.772 431.834 597.453 429.976 601.573 427.39C614.857 419.018 614.744 418.856 622.983 431.915C630.169 443.229 637.581 454.542 644.361 466.115C647.102 470.802 649.795 471.577 654.742 469.929C663.908 466.73 673.243 464.032 682.705 461.848C689.777 460.231 689.014 457.92 685.77 452.91C674.108 434.824 662.835 416.496 651.482 398.233C646.243 389.78 646.729 385.723 654.093 379.339C669.988 365.601 685.949 351.944 701.974 338.368C710.246 331.369 715.955 332.161 721.989 341.115C742.605 371.775 762.993 402.403 783.787 432.885C787.209 437.895 785.798 439.883 781.37 442.728C769.043 450.696 769.173 450.809 761.03 438.768L709.046 361.35Z" fill="#254166"/>
<path d="M229.15 449.532C228.955 446.397 230.48 443.827 231.794 441.176C250.544 403.464 269.288 365.704 288.028 327.895C293.445 317.017 299.576 315.498 309.114 322.884C346.727 352.187 384.195 381.683 421.923 410.856C426.675 414.541 426.091 416.787 422.734 420.893C413.456 432.206 413.602 432.449 402.086 423.462C371.084 399.251 340.126 375.008 309.211 350.732C304.702 347.176 302.642 347.096 300.225 352.655C296.576 361.027 292.423 369.189 287.979 377.157C285.335 381.877 285.611 384.204 290.882 386.855C309.405 396.164 327.539 406.25 346.03 415.591C351.285 418.242 351.512 420.44 348.885 425.289C341.732 438.461 341.975 438.542 329.113 431.754C312.893 423.204 296.576 414.913 280.534 406.072C275.96 403.534 274.306 404.359 272.294 408.819C268.126 418.113 263.698 427.358 258.686 436.295C255.572 441.807 257.388 443.245 262.644 444.764C301.766 456.078 340.758 467.731 379.946 478.705C386.742 480.612 387.439 482.972 385.444 489.049C381.162 501.979 381.454 502.157 368.073 498.262C325.36 485.817 282.648 473.356 239.936 460.878C234.048 458.971 229.604 456.304 229.15 449.532Z" fill="#254166"/>
</g>
</svg>
