<svg width="1224" height="516" viewBox="0 0 1224 516" fill="none" xmlns="http://www.w3.org/2000/svg">
<mask id="mask0_1194_56520" style="mask-type:alpha" maskUnits="userSpaceOnUse" x="0" y="0" width="1224" height="516">
<rect y="0.0500488" width="1224" height="515.95" fill="#D9D9D9"/>
</mask>
<g mask="url(#mask0_1194_56520)">
<path d="M588.609 577.506C688.312 530.322 804.327 539.73 912.947 520.635C965.373 511.462 1022.16 490.868 1045.56 442.953C1054.95 423.735 1057.84 402.08 1063.87 381.537C1069.9 360.994 1080.4 340.117 1099.26 330.091C1126.37 315.679 1165.72 326.055 1185.01 302.143C1193.91 291.096 1195.27 275.651 1193.36 261.542C1189.67 234.682 1225.13 219.373 1204.81 202.538C1220.71 216.595 1230.23 241.173 1226.05 261.542C1220.41 289.004 1193.43 310.523 1165.41 309.784C1158.66 309.61 1112.82 308.943 1106.12 309.784C1085.39 312.375 1073.08 323.175 1060.65 341.389C1058.61 344.977 1055.02 349.363 1053.22 352.62C1014.46 413.732 948.323 459.763 880.13 483.727C814.895 506.652 744.676 509.561 676.01 517.652C607.344 525.742 536.637 540.341 481.541 582.213C455.66 601.83 433.542 627.3 409.97 649.985L410.632 653.659L514.005 635.006C515.961 632.353 518.005 629.773 520.14 627.265C538.581 605.724 562.9 589.665 588.609 577.506Z" fill="#4573A4"/>
<path d="M1171.41 80.474C1168.64 75.5491 1165.55 70.6907 1161.32 66.9151C1157.09 63.1396 1151.58 60.5069 1145.88 60.7425C1143.03 60.751 1140.28 61.8097 1138.17 63.7129C1133.96 67.8505 1135.31 75.2631 1139.21 79.6867C1143.12 84.1103 1148.77 86.469 1153.94 89.3308C1167.33 96.7338 1181.23 108.923 1187.8 122.663C1184.37 107.9 1178.85 93.6971 1171.41 80.474Z" fill="#83B9D5"/>
<path d="M1161.69 72.9927C1159.15 70.3161 1156.47 67.6177 1153.08 66.2502C1152.61 66.0047 1152.07 65.9353 1151.56 66.0543C1151.07 66.2179 1150.73 66.8795 1151.05 67.2813C1153.39 72.3508 1158.06 78.0814 1163.33 79.8804C1163.61 80.0071 1163.93 80.0443 1164.23 79.9872C1164.83 79.8049 1165 79.0125 1164.94 78.385C1164.68 76.2755 1163.15 74.5437 1161.69 72.9927Z" fill="#F9E4AB"/>
<path d="M1153.94 89.3233C1167.32 96.7281 1181.23 108.92 1187.8 122.663C1185.66 113.429 1182.7 104.405 1178.95 95.6945C1176.49 96.9716 1173.23 96.3105 1170.89 94.6932C1168.28 92.8613 1166.53 90.1992 1164.61 87.7245C1161.77 83.933 1158.27 80.6747 1154.28 78.1011C1151.32 76.3285 1147.98 74.883 1145.68 72.2813C1144.53 70.9593 1143.72 69.3906 1143.29 67.6993C1142.87 66.0081 1142.85 64.2408 1143.23 62.5374C1143.36 61.9935 1143.54 61.4607 1143.75 60.9445C1141.66 61.2778 1139.71 62.2304 1138.17 63.6779C1133.96 67.8161 1135.31 75.2302 1139.21 79.6548C1143.11 84.0793 1148.77 86.5051 1153.94 89.3233Z" fill="#4573A4"/>
<path d="M1291.06 241.894C1291.27 243.132 1291.11 244.405 1290.6 245.552C1290.09 246.699 1289.25 247.668 1288.19 248.338C1287.12 249.007 1285.89 249.346 1284.63 249.312C1283.38 249.278 1282.16 248.873 1281.14 248.147C1280.11 247.422 1279.33 246.408 1278.88 245.235C1278.43 244.062 1278.34 242.783 1278.62 241.558C1278.89 240.333 1279.53 239.218 1280.44 238.354C1281.35 237.49 1282.5 236.916 1283.73 236.705C1285.39 236.421 1287.1 236.808 1288.47 237.781C1289.84 238.754 1290.78 240.233 1291.06 241.894Z" fill="#4573A4"/>
<path d="M1290.14 241.245C1290.33 242.328 1290.21 243.438 1289.81 244.435C1289.4 245.431 1288.73 246.269 1287.87 246.842C1287.01 247.416 1286.01 247.699 1284.99 247.657C1283.97 247.614 1282.97 247.247 1282.13 246.603C1281.29 245.959 1280.64 245.066 1280.26 244.037C1279.88 243.008 1279.8 241.889 1280.01 240.823C1280.22 239.756 1280.73 238.789 1281.46 238.044C1282.19 237.299 1283.12 236.81 1284.13 236.638C1285.47 236.407 1286.87 236.763 1287.99 237.627C1289.12 238.491 1289.9 239.793 1290.14 241.245Z" fill="#83B9D5"/>
<path d="M1284.47 241.008C1284.54 241.395 1284.49 241.793 1284.33 242.151C1284.17 242.51 1283.9 242.813 1283.57 243.022C1283.24 243.231 1282.85 243.337 1282.46 243.327C1282.07 243.316 1281.69 243.189 1281.37 242.963C1281.05 242.736 1280.8 242.419 1280.66 242.053C1280.52 241.686 1280.5 241.286 1280.58 240.903C1280.67 240.521 1280.87 240.172 1281.15 239.902C1281.44 239.632 1281.79 239.453 1282.18 239.387C1282.44 239.341 1282.7 239.347 1282.96 239.404C1283.21 239.461 1283.45 239.568 1283.66 239.719C1283.88 239.87 1284.06 240.062 1284.2 240.283C1284.33 240.504 1284.43 240.751 1284.47 241.008Z" fill="#F9E4AB"/>
<path d="M1179.55 267.424C1179.76 268.663 1179.6 269.936 1179.09 271.083C1178.58 272.23 1177.74 273.199 1176.68 273.868C1175.61 274.538 1174.38 274.877 1173.12 274.843C1171.87 274.809 1170.65 274.404 1169.63 273.678C1168.6 272.953 1167.82 271.939 1167.37 270.766C1166.92 269.593 1166.83 268.314 1167.11 267.089C1167.38 265.864 1168.02 264.749 1168.93 263.885C1169.84 263.021 1170.99 262.447 1172.22 262.235C1173.88 261.952 1175.59 262.339 1176.96 263.312C1178.33 264.285 1179.26 265.764 1179.55 267.424Z" fill="#4573A4"/>
<path d="M1178.63 266.776C1178.79 267.705 1178.65 268.663 1178.22 269.531C1177.8 270.399 1177.1 271.136 1176.24 271.65C1175.37 272.165 1174.36 272.433 1173.35 272.42C1172.33 272.408 1171.35 272.116 1170.52 271.581C1169.7 271.046 1169.07 270.292 1168.72 269.415C1168.37 268.538 1168.31 267.577 1168.55 266.653C1168.79 265.729 1169.31 264.885 1170.06 264.226C1170.81 263.567 1171.74 263.123 1172.75 262.951C1174.1 262.721 1175.47 262.994 1176.58 263.711C1177.68 264.429 1178.42 265.531 1178.63 266.776Z" fill="#83B9D5"/>
<path d="M1172.96 266.539C1173.03 266.926 1172.98 267.324 1172.81 267.683C1172.65 268.042 1172.39 268.345 1172.06 268.554C1171.73 268.763 1171.34 268.868 1170.95 268.857C1170.55 268.846 1170.17 268.718 1169.85 268.49C1169.53 268.262 1169.29 267.944 1169.15 267.576C1169.01 267.209 1168.98 266.808 1169.07 266.426C1169.16 266.043 1169.36 265.695 1169.65 265.426C1169.93 265.157 1170.29 264.979 1170.68 264.915C1170.94 264.871 1171.2 264.879 1171.45 264.937C1171.71 264.995 1171.95 265.102 1172.16 265.253C1172.37 265.404 1172.55 265.595 1172.69 265.816C1172.82 266.036 1172.92 266.282 1172.96 266.539Z" fill="#F9E4AB"/>
<path d="M1134.29 141.487C1137.96 140.859 1140.42 137.372 1139.8 133.699C1139.17 130.025 1135.68 127.557 1132.01 128.185C1128.34 128.814 1125.88 132.3 1126.51 135.974C1127.13 139.647 1130.62 142.115 1134.29 141.487Z" fill="#4573A4"/>
<path d="M1139.59 132.525C1139.78 133.608 1139.64 134.722 1139.19 135.726C1138.74 136.729 1138.01 137.577 1137.08 138.163C1136.15 138.749 1135.07 139.046 1133.97 139.016C1132.87 138.986 1131.81 138.632 1130.91 137.997C1130.02 137.362 1129.33 136.475 1128.94 135.449C1128.54 134.422 1128.46 133.303 1128.71 132.231C1128.95 131.159 1129.51 130.184 1130.3 129.428C1131.1 128.672 1132.1 128.17 1133.19 127.984C1134.64 127.736 1136.13 128.075 1137.33 128.926C1138.53 129.778 1139.35 131.072 1139.59 132.525Z" fill="#83B9D5"/>
<path d="M1133.14 132.411C1133.21 132.798 1133.16 133.197 1133 133.557C1132.84 133.917 1132.58 134.222 1132.25 134.433C1131.92 134.643 1131.53 134.75 1131.14 134.74C1130.74 134.73 1130.36 134.604 1130.04 134.376C1129.72 134.149 1129.47 133.831 1129.33 133.464C1129.19 133.096 1129.17 132.695 1129.25 132.311C1129.34 131.928 1129.54 131.58 1129.83 131.31C1130.11 131.041 1130.47 130.863 1130.86 130.798C1131.38 130.71 1131.91 130.831 1132.33 131.133C1132.76 131.435 1133.05 131.895 1133.14 132.411Z" fill="#F9E4AB"/>
<path d="M1121.31 63.1756C1121.52 64.4136 1121.36 65.6866 1120.85 66.8337C1120.34 67.9807 1119.5 68.9502 1118.44 69.6196C1117.37 70.289 1116.14 70.6282 1114.88 70.5943C1113.63 70.5605 1112.41 70.1551 1111.39 69.4294C1110.36 68.7037 1109.58 67.6903 1109.13 66.5173C1108.68 65.3444 1108.59 64.0646 1108.87 62.8398C1109.14 61.615 1109.78 60.5001 1110.69 59.6363C1111.6 58.7724 1112.75 58.1983 1113.98 57.9866C1115.64 57.7026 1117.35 58.0898 1118.72 59.0629C1120.09 60.0361 1121.02 61.5155 1121.31 63.1756Z" fill="#4573A4"/>
<path d="M1116.25 68.8738C1119.05 68.3934 1120.91 65.5518 1120.39 62.5269C1119.88 59.5019 1117.18 57.4392 1114.37 57.9196C1111.57 58.4 1109.71 61.2416 1110.23 64.2665C1110.75 67.2915 1113.44 69.3542 1116.25 68.8738Z" fill="#83B9D5"/>
<path d="M1115.43 61.7515C1115.51 62.2165 1115.48 62.6915 1115.33 63.1162C1115.18 63.5408 1114.93 63.896 1114.6 64.1365C1114.27 64.377 1113.89 64.4921 1113.49 64.467C1113.1 64.4419 1112.71 64.2778 1112.38 63.9957C1112.05 63.7135 1111.79 63.3259 1111.64 62.8822C1111.49 62.4385 1111.44 61.9586 1111.52 61.5036C1111.6 61.0486 1111.79 60.639 1112.06 60.3267C1112.34 60.0145 1112.7 59.8138 1113.09 59.7501C1113.34 59.7064 1113.61 59.7235 1113.86 59.8005C1114.12 59.8774 1114.36 60.0126 1114.58 60.1985C1114.8 60.3843 1114.98 60.6171 1115.13 60.8836C1115.28 61.1501 1115.38 61.445 1115.43 61.7515Z" fill="#F9E4AB"/>
<path d="M1068.32 143.548C1067.36 142.841 1066.23 142.374 1065.04 142.186C1062.25 141.949 1060 144.915 1060.15 147.631C1060.3 150.348 1062.07 152.798 1064.1 154.696C1072.73 162.734 1086.46 163.46 1097.45 158.999C1086.51 156.99 1077.69 149.432 1068.32 143.548Z" fill="#83B9D5"/>
<path d="M1079.18 158.486C1074.15 157.331 1070.15 156 1067.42 152.216C1064.69 148.433 1065.05 145.202 1065.77 144.745C1066.05 144.6 1066.36 144.512 1066.68 144.487C1067 144.463 1067.32 144.501 1067.62 144.601C1069.27 144.949 1070.88 145.49 1072.4 146.214C1071.08 145.288 1069.69 144.374 1068.32 143.548C1067.36 142.841 1066.23 142.374 1065.04 142.186C1062.25 141.949 1060 144.915 1060.15 147.631C1060.3 150.348 1062.07 152.798 1064.1 154.696C1072.73 162.734 1086.46 163.46 1097.45 158.999C1095.64 158.651 1093.87 158.161 1092.14 157.534C1088.06 159.345 1083.48 159.682 1079.18 158.486Z" fill="#4573A4"/>
<path d="M1072.77 148.898C1072.38 149.212 1072.5 149.856 1072.71 150.337C1073.46 151.999 1074.62 153.419 1076.08 154.439C1077.54 155.459 1079.24 156.039 1080.98 156.114C1082.01 156.214 1083.03 155.889 1083.82 155.209C1084.15 154.857 1084.39 154.422 1084.51 153.944C1082 152.417 1079.54 150.72 1077.1 148.982C1075.85 148.637 1074.55 148.545 1073.28 148.713C1073.09 148.727 1072.92 148.791 1072.77 148.898Z" fill="#F9E4AB"/>
<path d="M1113.55 225.258C1117.01 225.482 1120.45 224.49 1123.26 222.45C1126.12 220.573 1128.6 218.165 1131.31 216.108C1133.97 213.894 1137.2 212.487 1140.62 212.05C1146.07 211.645 1151.13 214.974 1155.6 218.266C1160.07 221.559 1164.86 225.13 1170.33 225.317C1171 225.398 1171.69 225.332 1172.34 225.122C1172.99 224.912 1173.58 224.564 1174.09 224.101C1175.22 222.761 1174.94 220.767 1174.37 219.1C1171.72 211.874 1164.44 207.342 1157.24 204.759C1148.89 201.691 1139.94 200.632 1131.11 201.666C1122.86 202.699 1115.88 206.198 1109.4 211.24C1108.23 212.124 1107.3 213.284 1106.68 214.616C1106.06 215.967 1105.85 217.476 1106.09 218.947C1106.66 222.368 1110.1 224.873 1113.55 225.258Z" fill="#83B9D5"/>
<path d="M1160.89 218.847C1161.25 218.937 1161.62 218.952 1161.99 218.889C1162.35 218.827 1162.7 218.689 1163.01 218.483C1163.59 218.01 1160.86 214.131 1159.61 213.045C1159.02 212.47 1158.3 212.074 1157.52 211.904C1156.74 211.733 1155.94 211.793 1155.19 212.078C1154.96 212.167 1154.74 212.318 1154.58 212.517C1154.41 212.716 1154.3 212.956 1154.24 213.216C1154.22 213.512 1154.28 213.809 1154.39 214.082C1155.48 216.797 1158.19 218.417 1160.89 218.847Z" fill="#F9E4AB"/>
<path d="M1116.79 216.492C1116.38 217.088 1116.27 217.775 1116.48 218.401C1116.78 218.985 1121.45 217.338 1122.87 216.46C1123.61 216.064 1124.22 215.514 1124.63 214.87C1125.03 214.227 1125.21 213.517 1125.15 212.822C1125.13 212.607 1125.04 212.405 1124.89 212.233C1124.74 212.061 1124.54 211.925 1124.31 211.837C1124.01 211.766 1123.7 211.758 1123.39 211.813C1120.44 212.186 1118.01 214.236 1116.79 216.492Z" fill="#F9E4AB"/>
<path d="M1113.59 225.285C1117.05 225.51 1120.48 224.517 1123.29 222.478C1126.16 220.6 1128.64 218.193 1131.35 216.136C1134.01 213.922 1137.23 212.514 1140.66 212.078C1143.69 211.956 1146.7 212.693 1149.33 214.204C1147.42 212.345 1145.03 211.052 1142.43 210.468C1138.47 209.781 1134.39 210.423 1130.83 212.293C1127.3 214.156 1124.06 216.521 1121.21 219.316C1120.2 220.377 1119.02 221.265 1117.72 221.943C1117.06 222.278 1116.34 222.443 1115.6 222.42C1114.87 222.397 1114.15 222.188 1113.52 221.812C1112.97 221.411 1112.53 220.875 1112.24 220.255C1110.81 217.371 1112.17 213.699 1114.61 211.596C1117.05 209.494 1120.27 208.61 1123.44 207.988C1136 205.493 1149.6 206.135 1160.92 212.187C1163.95 213.8 1167.13 216.464 1166.81 219.902C1166.79 220.358 1166.61 220.794 1166.31 221.133C1165.99 221.398 1165.59 221.565 1165.18 221.613C1163.41 221.942 1161.58 221.834 1159.86 221.298C1163.11 223.447 1166.56 225.183 1170.33 225.317C1171 225.398 1171.69 225.332 1172.34 225.122C1172.99 224.912 1173.58 224.564 1174.09 224.101C1175.22 222.761 1174.94 220.767 1174.37 219.1C1171.72 211.874 1164.44 207.342 1157.24 204.759C1148.89 201.691 1139.94 200.632 1131.11 201.666C1122.86 202.699 1115.88 206.198 1109.4 211.24C1108.23 212.124 1107.3 213.284 1106.68 214.616C1106.06 215.967 1105.85 217.476 1106.09 218.947C1106.7 222.396 1110.14 224.901 1113.59 225.285Z" fill="#4573A4"/>
<path d="M1159.28 114.08C1156.75 111.202 1153.76 108.753 1150.41 106.83C1147.03 104.903 1143 104.337 1139.18 105.248C1137.29 105.714 1135.64 106.842 1134.54 108.417C1132.42 111.794 1134.5 116.415 1137.8 118.683C1141.09 120.95 1145.22 121.601 1149.11 122.648C1159.18 125.355 1170.39 131.096 1176.92 139.022C1172.28 129.926 1166.34 121.528 1159.28 114.08Z" fill="#83B9D5"/>
<path d="M1151.97 110.445C1150.05 108.985 1147.86 107.959 1145.54 107.435C1145.21 107.375 1144.86 107.434 1144.56 107.602C1144.28 107.796 1144.17 108.276 1144.45 108.487C1146.69 111.394 1150.48 114.349 1154.05 114.703C1154.25 114.731 1154.45 114.696 1154.63 114.604C1154.98 114.398 1154.96 113.863 1154.82 113.449C1154.21 112.153 1153.21 111.097 1151.97 110.445Z" fill="#F9E4AB"/>
<path d="M1149.14 122.505C1159.19 125.244 1170.39 131.037 1176.92 139.022C1173.99 133.309 1170.55 127.863 1166.65 122.749C1165.86 123.32 1164.94 123.679 1163.98 123.787C1163.01 123.896 1162.03 123.752 1161.14 123.37C1159.21 122.451 1157.43 121.243 1155.87 119.79C1153.39 117.74 1150.54 116.152 1147.48 115.101C1145.22 114.339 1142.79 113.997 1140.85 112.639C1139.89 111.95 1139.09 111.049 1138.54 110.005C1137.99 108.962 1137.69 107.804 1137.66 106.624C1137.66 106.235 1137.68 105.846 1137.74 105.461C1136.41 106.017 1135.28 106.951 1134.49 108.144C1132.38 111.539 1134.46 116.192 1137.75 118.479C1141.04 120.765 1145.22 121.476 1149.14 122.505Z" fill="#4573A4"/>
<path d="M1166.17 144.082C1161.22 140.74 1153.96 137.839 1149.91 142.217C1148.08 144.205 1147.64 147.126 1146.12 149.361C1143.46 153.26 1137.8 154.308 1133.34 152.857C1128.87 151.406 1125.21 148.063 1121.99 144.575C1118.77 141.086 1114.95 137.241 1110.46 138.229C1106.29 139.148 1104.18 144.031 1104.33 148.298C1104.47 152.565 1106.16 156.625 1106.66 160.867C1107.03 163.041 1106.7 165.277 1105.71 167.249C1103.64 170.851 1098.77 171.707 1094.66 171.137C1084.5 169.732 1073.68 162.334 1065.01 167.835C1058.25 172.137 1057.68 181.965 1060.04 189.63C1064.47 204.065 1079.5 216.377 1094.03 212.272C1102.62 209.838 1108.81 202.547 1116.28 197.653C1156.02 171.606 1194.5 223.903 1186.44 261.386C1180.56 288.787 1153.39 310.056 1125.37 309.067C1118.63 308.832 1111.88 307.464 1105.17 308.245C1072 312.121 1106.64 512.574 1076.52 526.898C1056.06 536.621 1031.9 527.651 1011.84 517.119C991.771 506.587 970.448 494.251 948.036 497.536C934.175 499.564 921.872 507.489 911.091 516.483C882.572 540.014 861.614 571.717 832.792 594.817C800.928 620.366 760.543 634.199 719.814 637.107C663.221 641.183 583.009 640.872 542.02 601.559C536.089 595.884 529.497 591.836 529.986 582.629C530.475 573.422 537.447 570.037 545.987 569.791C565.692 569.242 582.389 583.07 599.11 593.485C625.417 609.865 561.24 552.235 592.188 553.448C629.426 554.855 558.481 577.632 579.439 546.732C585.631 537.639 496.328 574.502 494.203 563.676C492.078 552.851 565.327 525.46 554.437 527.175C546.625 528.398 591.01 539.91 585.011 545.034C578.965 550.142 542.082 566.771 534.869 570.024C529.43 572.458 597.752 565.319 592.834 562.018C587.222 558.274 604.361 556.737 599.836 551.716C592.964 544.09 619.717 531.739 613.872 540.176C610.315 545.375 619.359 548.019 614.786 552.302C609.851 556.946 576.725 555.216 570.155 553.448C563.585 551.681 635.232 555.64 630.121 551.144C585.127 555.052 619.371 544.423 619.371 544.423C609.795 542.7 601.918 553.929 592.188 553.448C583.315 553.016 581.017 539.569 572.608 536.694C494.425 509.979 444.547 608.628 441.655 615.251L388.45 511.772L413.286 657.1L1263.9 511.502L1207.46 181.242C1195.47 167.01 1181.58 154.505 1166.17 144.082Z" fill="#4573A4"/>
<path d="M1166.18 144.173C1161.24 140.832 1153.98 137.932 1149.93 142.309C1148.1 144.297 1147.66 147.218 1146.14 149.451C1143.47 153.35 1137.82 154.398 1133.36 152.948C1128.89 151.498 1125.23 148.155 1122.01 144.667C1118.79 141.179 1114.97 137.335 1110.47 138.322C1106.31 139.241 1104.2 144.123 1104.34 148.39C1104.49 152.657 1106.18 156.716 1106.67 160.957C1107.04 163.131 1106.71 165.367 1105.73 167.338C1103.66 170.939 1098.79 171.796 1094.68 171.226C1084.52 169.821 1073.7 162.425 1065.02 167.925C1058.27 172.226 1057.7 182.053 1060.05 189.717C1064.49 204.15 1079.52 216.459 1094.04 212.355C1102.63 209.921 1108.82 202.631 1116.29 197.738C1156.04 171.693 1194.51 223.982 1186.46 261.459C1180.57 288.856 1153.4 310.122 1125.39 309.134C1118.64 308.9 1111.89 307.532 1105.18 308.312C1084.43 310.717 1073.61 330.675 1061.02 348.769C1058.95 352.336 1057 355.814 1055.17 359.053C1019.71 422.114 952.67 468.104 884.268 491.447C818.832 513.778 748.595 516.058 679.865 523.531C611.134 531.005 540.303 544.964 484.834 586.323C458.778 605.699 436.432 630.958 412.658 653.421L413.286 657.1L1263.9 511.502L1207.48 181.327C1195.49 167.097 1181.59 154.594 1166.18 144.173Z" fill="#83B9D5"/>
<path d="M591.94 582.552C692.062 536.267 807.989 546.72 916.776 528.604C969.282 519.904 1026.25 499.821 1050.08 452.119C1059.64 432.987 1062.73 411.359 1068.95 390.871C1075.16 370.383 1085.84 349.602 1104.79 339.745C1132.03 325.578 1171.29 336.308 1190.79 312.57C1199.79 301.605 1201.29 286.172 1199.5 272.047C1196.05 245.155 1185.95 219.149 1165.78 202.132C1181.55 216.332 1190.85 240.994 1186.49 261.326C1180.61 288.736 1153.43 310.01 1125.42 309.02C1118.67 308.785 1111.92 307.415 1105.21 308.196C1084.46 310.6 1073.64 330.567 1061.05 348.668C1058.97 352.237 1057.02 355.717 1055.2 358.957C1019.74 422.046 952.698 468.053 884.292 491.402C818.853 513.739 748.611 516.015 679.875 523.487C611.139 530.959 540.304 544.921 484.833 586.295C458.777 605.678 436.431 630.948 412.656 653.419L413.286 657.1L516.822 639.378C518.801 636.743 520.869 634.181 523.026 631.692C541.66 610.318 566.122 594.479 591.94 582.552Z" fill="#F9E4AB"/>
<path d="M1119.26 165.786C1119.79 164.418 1120.41 163.086 1121.12 161.802C1123.66 157.997 1129.37 157.64 1133.55 159.513C1137.73 161.387 1140.93 164.863 1144.5 167.723C1148.07 170.584 1152.61 172.971 1157.08 171.976C1160.57 171.207 1163.29 168.552 1166.56 167.065C1174.61 163.396 1184.12 167.554 1190.96 173.201C1199.33 180.078 1205.5 188.864 1210.42 198.519L1207.47 181.251C1195.48 167.042 1181.58 154.559 1166.17 144.155C1161.22 140.819 1153.97 137.925 1149.91 142.297C1148.08 144.283 1147.64 147.201 1146.12 149.432C1143.45 153.327 1137.8 154.375 1133.33 152.928C1128.87 151.48 1125.2 148.143 1121.98 144.66C1118.76 141.177 1114.94 137.339 1110.45 138.327C1106.28 139.246 1104.17 144.122 1104.31 148.383C1104.46 152.644 1106.15 156.698 1106.64 160.934C1107.01 163.105 1106.68 165.338 1105.69 167.308C1103.93 170.417 1100.02 171.476 1096.34 171.338C1098.34 172.283 1100.47 172.941 1102.66 173.293C1109.11 174.286 1116.41 171.637 1119.26 165.786Z" fill="#F9E4AB"/>
<path d="M1120.6 189.534C1112.83 192.42 1105.99 197.451 1098.27 200.272C1090.54 203.092 1080.8 203.377 1074.9 197.541C1070.73 193.356 1069.36 186.964 1069.63 181.063C1069.79 175.809 1071.35 170.692 1074.14 166.242C1070.82 165.711 1067.41 166.375 1064.53 168.118C1057.74 172.437 1057.17 182.308 1059.54 190.005C1063.99 204.502 1079.09 216.866 1093.68 212.743C1102.3 210.298 1108.52 202.976 1116.02 198.062C1125.34 191.95 1134.61 190.132 1143.22 191.424C1137.24 186.421 1128.05 186.76 1120.6 189.534Z" fill="#4573A4"/>
<path d="M1187.21 397.69C1168.6 414.002 1138.14 404.268 1116.31 415.942C1094.48 427.616 1088.87 455.482 1078.99 478.146C1064.14 512.164 1035.71 538.404 1002.78 556.194L1263.9 511.498L1234.09 337.011C1225.75 339.336 1218.36 344.229 1212.97 350.991C1201.95 365.134 1200.69 385.864 1187.21 397.69Z" fill="#4573A4"/>
<path d="M1126.51 493.787C1130.11 481.286 1128.97 467.892 1131.92 455.251C1134.87 442.61 1144.41 429.655 1157.41 429.674C1162.73 429.679 1167.76 431.863 1172.91 433.009C1178.05 434.155 1184.2 433.973 1187.91 430.166C1192.12 425.839 1191.46 418.967 1191.86 412.946C1191.86 411.437 1192.19 409.946 1192.83 408.578C1195.51 403.54 1203.03 404.806 1208.11 402.299C1214.61 399.091 1215.96 390.261 1214.4 383.201C1212.84 376.141 1209.27 369.459 1209.1 362.242C1209.05 360.016 1209.33 357.794 1209.91 355.645C1201.63 369.394 1199.34 387.141 1187.25 397.741C1168.63 414.048 1138.17 404.321 1116.34 415.992C1094.51 427.663 1088.9 455.517 1079.01 478.172C1064.15 512.177 1035.71 538.409 1002.78 556.194L1069.15 544.834L1071.84 543.811C1095.73 534.457 1119.47 518.36 1126.51 493.787Z" fill="#4573A4"/>
<path d="M1178.09 293.052C1178.39 288.176 1174.69 283.976 1169.82 283.672C1164.94 283.367 1160.75 287.073 1160.44 291.949C1160.14 296.825 1163.84 301.025 1168.71 301.329C1173.59 301.634 1177.78 297.928 1178.09 293.052Z" fill="#4573A4"/>
<path d="M1177.04 290.403C1177.27 291.797 1177.12 293.225 1176.58 294.509C1176.05 295.792 1175.17 296.873 1174.04 297.613C1172.92 298.354 1171.61 298.721 1170.27 298.669C1168.93 298.617 1167.64 298.148 1166.54 297.321C1165.44 296.494 1164.59 295.347 1164.11 294.024C1163.62 292.7 1163.51 291.261 1163.79 289.888C1164.08 288.516 1164.74 287.27 1165.7 286.311C1166.67 285.351 1167.88 284.72 1169.2 284.497C1170.07 284.348 1170.96 284.382 1171.83 284.598C1172.7 284.814 1173.52 285.208 1174.25 285.757C1174.97 286.305 1175.59 286.998 1176.07 287.795C1176.55 288.593 1176.88 289.479 1177.04 290.403Z" fill="#83B9D5"/>
<path d="M1168.88 289.786C1168.98 290.327 1168.93 290.88 1168.75 291.375C1168.57 291.869 1168.26 292.283 1167.87 292.564C1167.48 292.844 1167.01 292.979 1166.54 292.951C1166.07 292.924 1165.6 292.734 1165.21 292.407C1164.82 292.081 1164.51 291.631 1164.33 291.115C1164.15 290.599 1164.1 290.041 1164.19 289.51C1164.28 288.979 1164.51 288.5 1164.85 288.133C1165.18 287.766 1165.61 287.528 1166.07 287.448C1166.69 287.342 1167.34 287.528 1167.87 287.967C1168.39 288.405 1168.76 289.059 1168.88 289.786Z" fill="#F9E4AB"/>
<path d="M1091.61 101.277C1096.36 100.465 1099.52 95.7769 1098.67 90.8073C1097.82 85.8378 1093.28 82.4682 1088.53 83.2812C1083.78 84.0941 1080.62 88.7818 1081.47 93.7514C1082.32 98.7209 1086.86 102.09 1091.61 101.277Z" fill="#4573A4"/>
<path d="M1097.75 90.1594C1097.98 91.4748 1097.81 92.8274 1097.27 94.0461C1096.72 95.2648 1095.83 96.2949 1094.7 97.0062C1093.57 97.7174 1092.26 98.0778 1090.93 98.0418C1089.59 98.0059 1088.3 97.5751 1087.21 96.804C1086.13 96.033 1085.29 94.9563 1084.81 93.71C1084.34 92.4638 1084.24 91.104 1084.53 89.8026C1084.83 88.5013 1085.5 87.3167 1086.47 86.3989C1087.44 85.481 1088.66 84.8711 1089.97 84.6461C1090.85 84.4952 1091.74 84.5183 1092.6 84.7139C1093.47 84.9095 1094.28 85.2738 1095.01 85.786C1095.73 86.2982 1096.35 86.9482 1096.82 87.6987C1097.29 88.4492 1097.61 89.2854 1097.75 90.1594Z" fill="#83B9D5"/>
<path d="M1090.39 89.4068C1090.49 90.0258 1090.43 90.6584 1090.22 91.2245C1090.01 91.7907 1089.65 92.265 1089.19 92.5875C1088.73 92.9099 1088.19 93.0661 1087.64 93.0362C1087.09 93.0063 1086.55 92.7916 1086.09 92.4194C1085.64 92.0472 1085.28 91.5341 1085.07 90.9451C1084.86 90.3561 1084.81 89.7175 1084.92 89.1101C1085.03 88.5028 1085.29 87.954 1085.68 87.533C1086.08 87.1121 1086.57 86.838 1087.11 86.7454C1087.84 86.6211 1088.59 86.8318 1089.21 87.3309C1089.82 87.83 1090.24 88.5767 1090.39 89.4068Z" fill="#F9E4AB"/>
<path d="M657.779 506.174C657.872 506.716 657.802 507.273 657.578 507.775C657.354 508.276 656.987 508.701 656.522 508.993C656.058 509.286 655.517 509.435 654.968 509.42C654.419 509.405 653.887 509.228 653.439 508.91C652.991 508.593 652.647 508.149 652.45 507.636C652.254 507.123 652.214 506.563 652.336 506.027C652.457 505.491 652.735 505.004 653.133 504.626C653.532 504.248 654.034 503.997 654.575 503.904C655.301 503.78 656.046 503.949 656.647 504.375C657.248 504.801 657.655 505.448 657.779 506.174Z" fill="#F9E4AB"/>
<path d="M998.99 437.592C1001.42 433.686 1000.24 428.545 996.333 426.108C992.431 423.672 987.294 424.863 984.859 428.769C982.424 432.675 983.614 437.816 987.516 440.253C991.418 442.689 996.555 441.498 998.99 437.592Z" fill="#4573A4"/>
<path d="M994.987 425.268C996.119 425.974 997.015 427.001 997.564 428.218C998.112 429.435 998.288 430.787 998.068 432.104C997.848 433.421 997.243 434.643 996.329 435.615C995.415 436.588 994.234 437.267 992.934 437.568C991.634 437.868 990.275 437.775 989.028 437.302C987.781 436.829 986.702 435.996 985.928 434.909C985.154 433.821 984.719 432.529 984.68 431.194C984.64 429.86 984.997 428.544 985.704 427.412C986.173 426.661 986.785 426.009 987.505 425.495C988.225 424.98 989.039 424.613 989.902 424.414C990.764 424.214 991.657 424.187 992.529 424.334C993.402 424.481 994.237 424.798 994.987 425.268Z" fill="#83B9D5"/>
<path d="M989.433 431.158C989.901 431.448 990.284 431.85 990.535 432.314C990.786 432.779 990.893 433.283 990.842 433.765C990.791 434.247 990.585 434.683 990.249 435.02C989.914 435.356 989.465 435.576 988.958 435.653C988.452 435.73 987.911 435.66 987.405 435.452C986.899 435.244 986.45 434.907 986.115 434.484C985.78 434.061 985.575 433.572 985.524 433.077C985.474 432.582 985.582 432.105 985.833 431.706C986.166 431.172 986.732 430.815 987.407 430.712C988.082 430.609 988.811 430.77 989.433 431.158Z" fill="#F9E4AB"/>
<path d="M1014.41 423.359C1016.49 420.011 1015.47 415.604 1012.13 413.516C1008.78 411.427 1004.38 412.448 1002.29 415.796C1000.21 419.144 1001.23 423.551 1004.57 425.639C1007.92 427.728 1012.32 426.707 1014.41 423.359Z" fill="#4573A4"/>
<path d="M1013.02 421.085C1014.76 418.295 1014.06 414.717 1011.46 413.092C1008.86 411.468 1005.34 412.413 1003.6 415.203C1001.86 417.993 1002.56 421.571 1005.16 423.195C1007.76 424.82 1011.28 423.875 1013.02 421.085Z" fill="#83B9D5"/>
<path d="M1008.18 421.345C1008.88 420.229 1008.39 418.666 1007.09 417.854C1005.79 417.042 1004.17 417.288 1003.47 418.404C1002.78 419.52 1003.27 421.083 1004.57 421.895C1005.87 422.707 1007.49 422.461 1008.18 421.345Z" fill="#F9E4AB"/>
<path d="M1024.31 401.471C1024.84 401.803 1025.24 402.326 1025.45 402.972C1025.66 403.619 1025.68 404.36 1025.5 405.103C1025.32 405.845 1024.95 406.556 1024.44 407.144C1023.93 407.732 1023.3 408.172 1022.63 408.408C1021.96 408.644 1021.28 408.665 1020.68 408.469C1020.07 408.273 1019.57 407.869 1019.24 407.307C1018.91 406.745 1018.76 406.051 1018.81 405.312C1018.86 404.574 1019.1 403.824 1019.52 403.158C1020.08 402.267 1020.89 401.59 1021.79 401.274C1022.69 400.958 1023.59 401.029 1024.31 401.471Z" fill="#4573A4"/>
<path d="M1023.55 401.933C1024.02 402.224 1024.4 402.627 1024.65 403.091C1024.9 403.555 1025 404.059 1024.95 404.539C1024.9 405.02 1024.69 405.455 1024.36 405.79C1024.02 406.126 1023.58 406.346 1023.07 406.422C1022.56 406.499 1022.02 406.43 1021.52 406.223C1021.01 406.015 1020.57 405.68 1020.23 405.258C1019.9 404.836 1019.69 404.348 1019.64 403.854C1019.59 403.36 1019.69 402.883 1019.94 402.483C1020.28 401.95 1020.84 401.592 1021.52 401.489C1022.2 401.386 1022.93 401.546 1023.55 401.933Z" fill="#83B9D5"/>
<path d="M1020.86 403.998C1021 404.081 1021.1 404.202 1021.17 404.345C1021.23 404.488 1021.25 404.647 1021.23 404.802C1021.2 404.957 1021.13 405.101 1021.02 405.215C1020.92 405.33 1020.78 405.41 1020.62 405.445C1020.47 405.481 1020.31 405.47 1020.16 405.414C1020.02 405.359 1019.89 405.261 1019.8 405.133C1019.71 405.005 1019.66 404.853 1019.65 404.697C1019.65 404.54 1019.69 404.385 1019.77 404.252C1019.88 404.073 1020.06 403.946 1020.27 403.898C1020.47 403.851 1020.69 403.887 1020.86 403.998Z" fill="#F9E4AB"/>
<path d="M1028.09 395.409C1028.62 395.741 1029.03 396.244 1029.26 396.853C1029.5 397.462 1029.55 398.151 1029.41 398.832C1029.27 399.513 1028.94 400.156 1028.47 400.679C1028 401.202 1027.41 401.582 1026.77 401.771C1026.13 401.96 1025.47 401.949 1024.87 401.74C1024.28 401.531 1023.77 401.133 1023.42 400.596C1023.07 400.06 1022.9 399.409 1022.91 398.726C1022.93 398.043 1023.13 397.358 1023.51 396.759C1024.01 395.957 1024.77 395.365 1025.63 395.112C1026.49 394.859 1027.37 394.966 1028.09 395.409Z" fill="#4573A4"/>
<path d="M1027.33 395.872C1027.8 396.163 1028.17 396.585 1028.39 397.086C1028.62 397.587 1028.69 398.144 1028.6 398.686C1028.51 399.228 1028.26 399.731 1027.89 400.131C1027.51 400.532 1027.02 400.812 1026.49 400.936C1025.95 401.06 1025.4 401.022 1024.88 400.828C1024.37 400.634 1023.92 400.292 1023.6 399.844C1023.29 399.397 1023.11 398.865 1023.09 398.316C1023.07 397.767 1023.22 397.225 1023.51 396.759C1023.9 396.136 1024.52 395.693 1025.24 395.527C1025.95 395.361 1026.71 395.485 1027.33 395.872Z" fill="#83B9D5"/>
<path d="M1024.64 397.935C1024.78 398.018 1024.87 398.159 1024.91 398.339C1024.95 398.519 1024.94 398.73 1024.88 398.947C1024.81 399.163 1024.7 399.375 1024.55 399.555C1024.4 399.734 1024.23 399.874 1024.04 399.957C1023.86 400.039 1023.68 400.061 1023.53 400.018C1023.37 399.976 1023.25 399.871 1023.18 399.718C1023.1 399.565 1023.08 399.37 1023.11 399.157C1023.13 398.945 1023.22 398.725 1023.34 398.525C1023.51 398.257 1023.74 398.045 1023.98 397.934C1024.23 397.823 1024.47 397.824 1024.64 397.935Z" fill="#F9E4AB"/>
<path d="M1110.05 426.961C1110.36 422.085 1106.65 417.885 1101.78 417.581C1096.91 417.276 1092.71 420.982 1092.41 425.858C1092.1 430.734 1095.81 434.934 1100.68 435.238C1105.55 435.543 1109.75 431.837 1110.05 426.961Z" fill="#4573A4"/>
<path d="M1108.17 424.189C1108.39 425.504 1108.22 426.858 1107.68 428.078C1107.14 429.297 1106.25 430.329 1105.12 431.042C1103.99 431.755 1102.68 432.117 1101.35 432.082C1100.01 432.048 1098.72 431.618 1097.63 430.847C1096.54 430.077 1095.71 429 1095.23 427.754C1094.75 426.508 1094.65 425.147 1094.95 423.845C1095.24 422.544 1095.92 421.358 1096.88 420.44C1097.85 419.522 1099.07 418.911 1100.39 418.686C1102.15 418.385 1103.95 418.795 1105.41 419.827C1106.87 420.858 1107.86 422.427 1108.17 424.189Z" fill="#83B9D5"/>
<path d="M1101.64 423.706C1101.74 424.247 1101.64 424.808 1101.38 425.317C1101.11 425.827 1100.68 426.261 1100.15 426.566C1099.61 426.871 1098.99 427.033 1098.37 427.031C1097.74 427.03 1097.14 426.864 1096.64 426.556C1096.13 426.248 1095.75 425.811 1095.54 425.3C1095.33 424.79 1095.3 424.228 1095.45 423.688C1095.6 423.147 1095.93 422.65 1096.39 422.261C1096.85 421.872 1097.43 421.608 1098.05 421.502C1098.88 421.36 1099.72 421.513 1100.4 421.926C1101.07 422.339 1101.52 422.979 1101.64 423.706Z" fill="#F9E4AB"/>
<path d="M1063.49 513.588C1068.46 512.738 1071.79 508.02 1070.94 503.051C1070.1 498.081 1065.38 494.742 1060.42 495.592C1055.45 496.442 1052.11 501.159 1052.96 506.129C1053.81 511.098 1058.53 514.438 1063.49 513.588Z" fill="#4573A4"/>
<path d="M1069.25 502.536C1069.48 503.851 1069.31 505.204 1068.76 506.422C1068.22 507.641 1067.33 508.671 1066.2 509.382C1065.07 510.094 1063.76 510.454 1062.42 510.418C1061.09 510.382 1059.8 509.951 1058.71 509.18C1057.62 508.409 1056.79 507.333 1056.31 506.086C1055.83 504.84 1055.74 503.48 1056.03 502.179C1056.33 500.878 1057 499.693 1057.97 498.775C1058.94 497.857 1060.15 497.247 1061.47 497.022C1062.34 496.872 1063.24 496.895 1064.1 497.09C1064.96 497.286 1065.78 497.65 1066.5 498.162C1067.23 498.675 1067.84 499.324 1068.31 500.075C1068.78 500.825 1069.1 501.662 1069.25 502.536Z" fill="#83B9D5"/>
<path d="M1062.73 502.041C1062.82 502.583 1062.73 503.144 1062.46 503.653C1062.19 504.162 1061.76 504.597 1061.23 504.902C1060.69 505.207 1060.07 505.369 1059.45 505.367C1058.82 505.365 1058.22 505.2 1057.72 504.892C1057.22 504.584 1056.84 504.147 1056.62 503.636C1056.41 503.125 1056.38 502.564 1056.53 502.023C1056.68 501.482 1057.01 500.986 1057.47 500.597C1057.94 500.208 1058.51 499.944 1059.13 499.838C1059.96 499.699 1060.8 499.853 1061.48 500.266C1062.15 500.678 1062.6 501.317 1062.73 502.041Z" fill="#F9E4AB"/>
<path d="M1045.11 544.921C1052.88 543.591 1058.11 536.207 1056.78 528.429C1055.45 520.65 1048.07 515.423 1040.3 516.753C1032.53 518.084 1027.3 525.468 1028.63 533.246C1029.96 541.025 1037.34 546.252 1045.11 544.921Z" fill="#4573A4"/>
<path d="M1046.26 539.892C1052.52 538.821 1056.73 532.872 1055.66 526.606C1054.59 520.34 1048.64 516.13 1042.38 517.201C1036.12 518.273 1031.91 524.221 1032.98 530.487C1034.06 536.753 1040 540.964 1046.26 539.892Z" fill="#83B9D5"/>
<path d="M1043.4 525.484C1043.54 526.335 1043.41 527.214 1043.02 528.01C1042.62 528.806 1041.98 529.483 1041.18 529.956C1040.38 530.428 1039.45 530.675 1038.51 530.664C1037.57 530.654 1036.67 530.387 1035.91 529.898C1035.15 529.408 1034.57 528.718 1034.25 527.914C1033.93 527.11 1033.87 526.229 1034.09 525.382C1034.31 524.535 1034.8 523.76 1035.49 523.155C1036.18 522.55 1037.04 522.142 1037.97 521.984C1038.59 521.878 1039.22 521.885 1039.82 522.004C1040.43 522.123 1041 522.351 1041.5 522.676C1042.01 523.001 1042.43 523.417 1042.76 523.898C1043.08 524.38 1043.3 524.919 1043.4 525.484Z" fill="#F9E4AB"/>
<path d="M1131.13 412.618C1131.34 413.856 1131.16 415.133 1130.61 416.287C1130.05 417.441 1129.15 418.421 1128.02 419.103C1126.89 419.785 1125.57 420.137 1124.24 420.116C1122.91 420.096 1121.62 419.702 1120.55 418.986C1119.47 418.269 1118.64 417.262 1118.18 416.092C1117.71 414.922 1117.63 413.64 1117.94 412.411C1118.25 411.181 1118.93 410.057 1119.91 409.182C1120.88 408.308 1122.1 407.721 1123.42 407.496C1125.18 407.194 1126.98 407.564 1128.43 408.525C1129.88 409.485 1130.85 410.958 1131.13 412.618Z" fill="#4573A4"/>
<path d="M1131 411.836C1131.18 412.919 1131.04 414.033 1130.6 415.037C1130.15 416.04 1129.41 416.889 1128.49 417.474C1127.56 418.06 1126.47 418.357 1125.38 418.327C1124.28 418.298 1123.21 417.943 1122.32 417.308C1121.42 416.673 1120.73 415.786 1120.34 414.76C1119.95 413.734 1119.87 412.614 1120.11 411.542C1120.36 410.47 1120.91 409.495 1121.71 408.739C1122.5 407.983 1123.51 407.481 1124.59 407.296C1126.04 407.047 1127.53 407.386 1128.73 408.237C1129.94 409.089 1130.75 410.383 1131 411.836Z" fill="#83B9D5"/>
<path d="M1124.41 410.95C1124.48 411.337 1124.43 411.735 1124.27 412.093C1124.11 412.451 1123.84 412.754 1123.51 412.964C1123.18 413.173 1122.79 413.279 1122.4 413.268C1122.01 413.258 1121.63 413.131 1121.31 412.904C1120.99 412.677 1120.74 412.361 1120.6 411.994C1120.46 411.628 1120.44 411.228 1120.52 410.845C1120.61 410.462 1120.81 410.114 1121.09 409.844C1121.38 409.574 1121.74 409.394 1122.12 409.328C1122.64 409.24 1123.17 409.361 1123.6 409.665C1124.03 409.969 1124.32 410.431 1124.41 410.95Z" fill="#F9E4AB"/>
<path d="M1145.07 409.427C1145.28 410.665 1145.12 411.938 1144.61 413.085C1144.1 414.232 1143.26 415.201 1142.2 415.871C1141.14 416.54 1139.9 416.879 1138.65 416.845C1137.39 416.811 1136.18 416.406 1135.15 415.68C1134.13 414.955 1133.34 413.941 1132.89 412.768C1132.44 411.595 1132.35 410.316 1132.63 409.091C1132.91 407.866 1133.54 406.751 1134.45 405.887C1135.36 405.023 1136.51 404.449 1137.75 404.238C1139.41 403.954 1141.11 404.341 1142.48 405.314C1143.86 406.287 1144.79 407.766 1145.07 409.427Z" fill="#4573A4"/>
<path d="M1144.16 408.778C1144.31 409.707 1144.19 410.661 1143.81 411.522C1143.43 412.382 1142.8 413.109 1142 413.611C1141.21 414.113 1140.28 414.367 1139.34 414.342C1138.4 414.317 1137.48 414.013 1136.72 413.468C1135.95 412.924 1135.36 412.164 1135.02 411.284C1134.68 410.405 1134.62 409.445 1134.82 408.526C1135.03 407.608 1135.51 406.771 1136.19 406.124C1136.88 405.476 1137.74 405.045 1138.66 404.886C1139.28 404.779 1139.91 404.795 1140.52 404.933C1141.13 405.071 1141.71 405.328 1142.22 405.69C1142.73 406.052 1143.16 406.511 1143.49 407.04C1143.83 407.57 1144.05 408.161 1144.16 408.778Z" fill="#83B9D5"/>
<path d="M1139.2 408.016C1139.28 408.481 1139.24 408.955 1139.09 409.378C1138.94 409.801 1138.69 410.155 1138.36 410.393C1138.03 410.632 1137.65 410.745 1137.25 410.718C1136.86 410.691 1136.47 410.526 1136.14 410.243C1135.81 409.96 1135.55 409.572 1135.4 409.129C1135.25 408.685 1135.21 408.206 1135.29 407.752C1135.36 407.298 1135.55 406.889 1135.83 406.577C1136.11 406.265 1136.47 406.065 1136.85 406.002C1137.11 405.958 1137.37 405.975 1137.63 406.053C1137.89 406.13 1138.13 406.267 1138.35 406.454C1138.57 406.641 1138.75 406.876 1138.9 407.144C1139.04 407.412 1139.15 407.708 1139.2 408.016Z" fill="#F9E4AB"/>
<path d="M1203.88 478.954C1199.39 471.437 1194.22 464.206 1187.59 458.482C1180.96 452.758 1172.73 448.575 1163.99 447.92C1160.11 447.621 1155.82 448.187 1153.17 451.062C1148.78 455.889 1151.73 463.533 1150.82 469.993C1150.02 475.79 1146.05 480.533 1142.87 485.435C1139.69 490.337 1137.14 496.524 1139.45 501.868C1141.32 506.166 1145.95 508.758 1150.59 509.434C1155.24 510.11 1159.98 509.209 1164.59 508.306L1187.77 503.784C1191.53 503.05 1195.37 502.28 1198.63 500.307C1206.17 495.767 1208.85 486.174 1203.88 478.954Z" fill="#83B9D5"/>
</g>
</svg>
