<svg width="549" height="160" viewBox="0 0 549 160" fill="none" xmlns="http://www.w3.org/2000/svg">
<path d="M24.7943 30.5359C22.6854 25.9849 4.73374 23.0918 -0.553894 21.7416L-0.5797 42.5932C3.92222 41.7642 8.43046 40.7057 13.1384 39.3721C16.8885 38.3084 27.807 37.0492 24.7943 30.5359Z" fill="#4573A4"/>
<path d="M497.451 18.3727C499.795 16.5604 507.127 10.9821 514.331 4.26857L482.093 4.22867C468.124 19.7677 445.736 30.6186 427.849 31.9317C419.994 32.5062 416.653 28.3501 409.838 25.6878C401.257 22.3389 392.747 23.3841 383.604 24.4702C356.214 27.7287 329.149 37.3052 301.373 39.7412C305.942 35.8702 313.16 34.6065 318.778 32.8775C328.095 30.0098 336.71 27.016 345.331 22.5868C349.381 23.1551 353.789 22.7433 357.299 22.6976C365.153 22.5946 373.097 20.9896 380.972 20.3734C391.869 19.5189 401.41 13.7973 411.638 8.79836C413.509 7.89934 417 6.23453 418.8 4.15034L-0.546692 3.63135L-0.555652 10.8712C3.9323 11.5653 8.40828 12.1717 12.7333 12.6945C16.238 17.0928 30.8216 22.3519 32.446 23.0007C40.7428 26.3493 43.6639 33.6428 46.9399 42.1678C49.951 49.9622 56.1121 58.2404 63.6248 60.5489C66.7742 61.5209 77.2951 64.2171 80.0721 61.0074C93.7088 67.488 111.932 70.828 123.195 74.1259C139.22 78.8319 154.706 82.4897 171.559 84.5887C187.461 86.5696 201.925 93.0679 218.183 93.0463C229.897 93.0357 237.705 93.8633 233.554 84.1146C229.458 74.487 217.187 70.5702 207.962 67.7337C203.734 66.4391 194.397 63.7569 185.95 60.3331C182.272 56.5355 176.536 53.5156 177.024 47.7201C177.597 40.8941 186.166 41.4722 190.128 38.168C200.329 37.5589 211.32 39.0538 220.37 36.9536C220.349 37.4209 220.375 37.8899 220.446 38.3474C217.199 38.7941 214.334 39.2036 212.207 39.7476C208.167 40.7775 191.085 43.5563 189.664 49.4299C188.328 54.9489 198.894 57.3697 202.593 58.4133C209.979 60.4672 228.324 67.7089 234.381 58.3442C237.604 53.3408 233.657 52.0298 234.909 46.6609C236.536 39.7277 244.041 38.5686 249.499 36.4889C251.331 35.7943 256.297 32.9337 259.969 29.5374C261.034 29.956 262.103 30.4247 263.169 30.9059C254.706 34.9723 246.208 39.8982 244.072 47.7113C241.554 56.8884 247.768 60.8895 256.584 62.2733C253.055 63.1327 249.129 64.7177 246.352 65.5238C242.309 66.6997 237.084 67.9075 235.006 72.4867C230.096 83.3091 260.02 75.7599 264.606 75.7573C271.768 75.7661 278.265 73.4666 285.26 71.9856C288.282 71.3425 296.212 70.8265 297.458 66.5009C299.342 59.9518 281.989 62.0168 278.853 62.2507C274.098 62.6037 265.783 63.8077 264.123 62.8793C275.115 63.064 287.337 60.8216 292.108 59.872C298.239 58.6277 303.866 56.3271 309.62 54.2061C309.569 54.9218 309.605 55.6443 309.729 56.3427C313.227 56.4138 316.904 56.0094 320.24 54.7575C323.438 53.5638 325.498 51.0085 328.668 49.8565C329.526 49.5446 330.4 49.2786 331.273 49.0252C345.394 47.0146 359.521 45.9096 373.736 46.574C378.804 46.8056 387.421 45.3391 391.688 48.6826C395.041 51.2948 393.418 54.4308 395.039 57.408C398.141 63.1119 406.484 60.7604 413.605 59.5925C428.108 57.1944 440.426 47.6914 454.071 42.2168C469.201 36.1224 484.519 28.3632 497.451 18.3727ZM62.7096 43.435C60.3686 40.9034 59.6743 38.065 62.6662 34.5719C65.6066 31.1329 69.0147 30.5195 66.1275 25.1163C62.7823 18.8529 56.3717 16.8713 50.4166 15.4201C59.1943 15.915 68.4535 17.7834 70.0691 25.5009C71.5045 32.367 62.9367 38.1191 62.7096 43.435Z" fill="#4573A4"/>
<path d="M542.218 4.30311C540.898 6.59517 539.408 8.69108 537.773 10.5569C531.118 17.826 523.559 23.9132 515.879 29.7248C511.897 32.7368 507.811 36.6167 503.122 34.9417C501.748 34.4476 501.291 33.3454 499.714 32.9888C497.105 32.3972 494.372 33.8501 492.021 34.8821C471.469 43.9242 450.773 56.8135 432.04 70.0975C429.585 71.8387 419.473 78.2482 424.992 80.8088C427.817 82.1184 433.885 80.1772 436.585 78.7367C439.284 77.2963 443.486 72.1898 446.82 73.3247C450.669 74.6105 447.4 77.8655 447.716 80.9621C455.021 80.7375 462.225 73.8403 468.19 69.7208C476.05 64.3058 484.541 59.6011 492.827 55.209C499.201 51.8285 504.94 47.5835 511.134 43.8523C523.94 36.1317 536.385 28.9406 548.192 19.9252L548.211 4.31052L542.218 4.30311Z" fill="#4573A4"/>
<path d="M348.966 65.0119C347.434 65.0503 345.911 65.3555 344.434 65.9202C342.857 66.5566 341.086 66.6922 339.461 67.1283C337.919 67.5437 336.408 68.1218 334.879 68.5873C331.643 69.5722 328.37 70.4069 325.074 71.1206C316.369 73.0001 307.535 74.0574 298.695 74.8018C289.98 75.5337 281.249 75.9486 272.525 76.5512C291.136 100.61 340.234 84.121 359.102 66.4849C355.805 65.4877 352.389 64.8367 348.966 65.0119Z" fill="#4573A4"/>
<path d="M277.168 105.708C282.694 104.789 290.209 95.6806 282.925 91.4487C278.732 89.0149 272.237 91.5523 267.989 92.682C258.546 95.2158 251.632 102.501 242.944 106.901C238.613 109.068 234.116 110.541 229.542 111.291C213.381 114.054 196.619 108.926 180.771 105.126C176.241 104.035 167.485 100.557 163.523 104.591C161.267 106.896 159.951 113.433 161.394 116.377C163.684 121.037 171.906 123.738 176.167 125.012C180.041 126.176 183.959 127.046 187.902 127.618C192.78 128.325 197.11 126.795 201.878 126.446C205.394 126.175 208.676 127.268 212.22 126.776C217.193 126.089 222.235 125.954 227.118 124.796C232.517 123.513 238.13 120.941 243.735 122.421C248.781 123.754 244.192 123.92 245.592 127.798C246.76 131.029 255.804 128.774 258.396 128.561C261.1 128.339 292.275 122.289 283.595 116.128C278.932 112.817 272.181 119.765 267.949 114.927C261.168 107.187 273.862 106.259 277.168 105.708Z" fill="#4573A4"/>
<path d="M388.351 77.308C391.896 66.317 367.564 87.8521 363.474 90.213C347.894 99.278 331.188 100.434 314.092 102.107C289.295 104.559 311.753 117.427 324.602 118.006C347.504 119.044 371.287 111.387 391.545 98.4766C397.41 94.7283 400.267 92.2615 398.286 84.4559C396.958 79.234 394.628 74.9456 388.351 77.308Z" fill="#4573A4"/>
<path d="M79.2299 123.999C65.5434 121.207 50.7435 119.791 37.7403 114.054C26.6784 109.175 11.9708 101.558 3.718 91.921C1.95177 89.8142 0.473462 87.2868 -0.64679 84.4587L-0.68074 111.891C0.438732 112.877 1.5401 113.847 2.6174 114.737C14.0845 124.202 26.4075 132.776 40.0046 137.062C53.0702 141.184 103.875 147.185 103.55 133.777C103.429 128.865 84.4152 125.061 79.2299 123.999Z" fill="#4573A4"/>
<path d="M142.486 124.946C134.4 116.84 144.056 113.168 144.196 105.214C144.226 104.358 144.113 103.504 143.866 102.719C143.619 101.933 143.245 101.235 142.773 100.681C146.016 94.4256 142.376 91.98 134.865 90.4518C129.523 89.3644 124.468 90.3972 119.1 89.9775C112.996 89.5067 106.8 87.8258 101.065 86.3874C76.8765 80.3194 57.326 70.7602 36.173 55.1819C31.2748 51.5705 26.5545 45.8103 20.0313 46.9289C8.62862 48.9178 15.6474 59.8301 20.9657 65.7078C37.312 94.0407 71.7697 101.24 97.767 107.844C104.323 109.521 112.18 111.576 119.584 111.84C120.95 113.669 121.808 115.861 121.754 118.414C121.654 122.913 118.121 124.444 116.663 128.473C112.908 138.971 122.392 142.321 130.812 145.67C152.116 154.146 181.176 168.433 201.827 150.311C194.19 141.288 182.434 137.818 171.87 133.916C163.726 130.906 148.994 131.463 142.486 124.946Z" fill="#4573A4"/>
<path d="M434.758 19.6554C443.813 25.1205 456.361 15.38 464.161 10.424C467.299 8.42906 470.549 6.3884 473.744 4.2183L437.314 4.17322C432.143 8.94471 428.567 15.9089 434.758 19.6554Z" fill="#4573A4"/>
<path d="M310.458 13.8264C297.985 28.8331 277.531 32.2379 263.878 46.0998C257.26 52.8182 260.454 54.5456 269.198 55.633C278.298 56.7626 287.444 54.3036 296.318 53.2296C295.623 46.1934 288.684 46.4018 294.404 39.5028C298.764 34.2463 310.298 30.9014 315.954 27.6202C329.705 19.6421 319.335 14.939 310.458 13.8264Z" fill="#83B9D5"/>
<path d="M40.024 6.81143C60.6523 9.5034 67.497 19.4683 85.993 26.7894C88.6861 27.8568 92.1977 29.113 96.1202 30.2779L96.1351 30.4574C96.4297 36.5042 94.0446 40.3444 97.1858 45.5184C100.327 50.6925 113.095 56.3124 118.354 58.6181C126.774 62.3132 135.199 62.4154 143.808 64.5667C146.475 65.2293 148.674 67.6314 151.311 65.6734C153.663 63.9279 153.753 59.6926 153.037 56.8751C152.292 53.9532 149.636 51.9511 148.195 49.454C144.102 42.3551 144.101 35.3447 151.238 31.6439C165.015 24.4878 183.075 34.9006 197.586 25.5088C219.22 11.4981 173.597 7.50252 167.312 6.58089C161.272 5.70129 155.104 4.80484 148.889 3.81654L82.3755 3.73422C84.7061 5.8548 86.8776 8.29115 88.858 11.0071C82.2816 8.81244 75.7505 6.60527 68.971 4.93192C67.2829 4.51255 65.616 4.0932 63.9581 3.71142L32.5939 3.67261C37.1587 5.69791 41.8212 6.93466 40.024 6.81143Z" fill="#83B9D5"/>
<path d="M222.537 85.1525C210.902 66.8152 184.622 69.47 167.44 71.6937C177.837 71.5814 187.637 81.1451 197.884 83.3444C205.832 85.0484 214.429 85.3678 222.537 85.1525Z" fill="#83B9D5"/>
<path d="M40.0243 6.81131C39.2813 6.71442 38.5625 6.60503 37.7802 6.52478C38.9067 6.69726 39.6256 6.78578 40.0243 6.81131Z" fill="#83B9D5"/>
<path d="M80.6645 58.1329C79.5719 52.5733 67.5693 48.6819 62.7093 43.4348C60.3684 40.9032 59.6741 38.0648 62.6659 34.5716C65.6063 31.1327 69.0145 30.5193 66.1273 25.1161C62.7821 18.8527 56.3715 16.871 50.4164 15.4199C49.5497 15.206 48.6921 15.0005 47.8556 14.8075C42.4712 13.5156 37.1322 12.2237 31.7811 10.8276C26.868 9.54459 20.1082 6.60689 15.1008 8.26566C11.6799 9.39643 11.3668 10.9817 12.7331 12.6943C16.2378 17.0926 30.8214 22.3517 32.4457 23.0005C40.7426 26.3491 43.6637 33.6426 46.9397 42.1676C49.9507 49.962 56.1119 58.2402 63.6246 60.5487C66.774 61.5207 77.2949 64.2169 80.0719 61.0072C80.3748 60.6725 80.5946 60.2158 80.7009 59.7006C80.8071 59.1854 80.7944 58.6374 80.6645 58.1329Z" fill="#83B9D5"/>
<path d="M256.584 62.269C253.055 63.1284 249.129 64.7134 246.352 65.5194C242.308 66.6954 237.084 67.9032 235.006 72.4824C230.096 83.3048 260.02 75.7556 264.605 75.753C271.768 75.7618 278.265 73.4623 285.26 71.9812C288.281 71.3382 296.211 70.8222 297.458 66.4966C299.342 59.9475 281.989 62.0125 278.853 62.2464C274.098 62.5994 265.783 63.8034 264.123 62.875C264.055 62.8452 263.99 62.8045 263.93 62.7537C262.53 61.3082 259.714 61.505 256.584 62.269Z" fill="#83B9D5"/>
<path d="M365.362 29.6969C360.736 25.2388 351.041 33.5933 345.826 34.7803C338.683 36.4113 331.835 34.3957 325.423 38.4062C320.779 41.3215 310.104 46.5785 309.635 54.2017C309.583 54.9174 309.62 55.6399 309.744 56.3384C313.242 56.4095 316.919 56.0051 320.255 54.7532C323.453 53.5595 325.513 51.0041 328.683 49.8522C329.541 49.5403 330.415 49.2743 331.288 49.0208C338.634 46.9143 346.422 46.7654 353.686 44.2748C357.252 43.0608 370.943 35.0784 365.362 29.6969Z" fill="#83B9D5"/>
<path d="M180.32 35.1932C175.364 34.8198 170.396 35.6566 165.822 34.0527C161.29 34.7482 156.972 35.907 155.24 41.4381C153.457 47.2194 158.346 48.7026 162.122 51.2611C169.573 56.3236 179.113 63.5252 188.176 63.3278C187.559 62.1692 186.809 61.1577 185.956 60.3331C182.278 56.5355 176.543 53.5156 177.03 47.7201C177.604 40.8941 186.173 41.4722 190.134 38.168C190.443 37.9208 190.733 37.6303 190.999 37.3011C188.854 34.7072 183.25 35.4096 180.32 35.1932Z" fill="#83B9D5"/>
<path d="M434.758 19.6554C443.813 25.1205 456.361 15.38 464.161 10.424C467.299 8.42906 470.549 6.3884 473.744 4.2183L437.314 4.17322C432.143 8.94471 428.567 15.9089 434.758 19.6554Z" fill="#83B9D5"/>
<path d="M217.326 23.5716C219.063 26.6552 220.109 30.3742 220.334 34.2703C220.386 35.1641 220.401 36.0614 220.379 36.9577C220.358 37.425 220.384 37.894 220.456 38.3515C217.208 38.7981 214.344 39.2077 212.216 39.7517C208.176 40.7816 191.094 43.5604 189.673 49.434C188.337 54.953 198.903 57.3738 202.602 58.4174C209.989 60.4712 228.334 67.7129 234.39 58.3483C237.613 53.3448 233.667 52.0339 234.918 46.665C236.536 39.7276 244.041 38.5685 249.499 36.4888C251.331 35.7942 256.297 32.9336 259.969 29.5373C261.035 29.9559 262.103 30.4246 263.169 30.9058C264.708 31.6494 266.279 32.2577 267.873 32.7268C278.14 35.4101 286.961 25.8527 295.912 20.293C301.411 16.8781 306.733 14.356 312.455 11.826C314.029 11.1269 318.224 9.61734 321.054 7.47184C325.387 6.35053 329.816 6.15155 333.356 9.15619C337.257 12.4743 335.244 18.1635 339.473 20.7058C341.197 21.7428 343.217 22.292 345.331 22.5867C349.381 23.155 353.789 22.7432 357.299 22.6975C365.153 22.5945 373.097 20.9895 380.973 20.3733C391.869 19.5188 401.41 13.7972 411.638 8.79824C413.509 7.89922 417 6.23441 418.8 4.15022L194.828 3.87303C202.151 11.0385 211.497 13.0739 217.326 23.5716Z" fill="#83B9D5"/>
<path d="M177.897 31.3371C160.121 -11.2784 105.651 10.0315 79.3698 15.2177C99.8348 13.9324 115.081 43.7641 133.876 46.4641C146.031 50.4174 165.496 31.8456 177.897 31.3371Z" fill="#F9E4AB"/>
<path d="M160.639 29.9252C135.69 -0.885305 109.316 14.2392 92.4051 25.0653C103.478 20.8846 124.521 40.3535 137.004 40.6734C146.686 40.9178 152.092 33.4309 160.639 29.9252Z" fill="#E29891"/>
</svg>
