<svg width="312" height="119" viewBox="0 0 312 119" fill="none" xmlns="http://www.w3.org/2000/svg">
<path d="M2.49776e-09 2.11909C2.52357e-09 0.948761 0.948751 1.52173e-05 2.11909 1.51662e-05L309.881 0.000497624C311.051 0.000497573 312 0.949243 312 2.11958L312 11.2629C312 12.4332 311.043 13.362 309.891 13.5711C304.428 14.5637 300.285 19.3437 300.285 25.0908C300.285 30.8378 304.428 35.6178 309.891 36.6104C311.043 36.8196 312 37.7483 312 38.9186L312 45.6724C312 46.8427 311.043 47.7714 309.891 47.9806C304.428 48.9732 300.285 53.7532 300.285 59.5003C300.285 65.2473 304.428 70.0273 309.891 71.0199C311.043 71.2291 312 72.1578 312 73.3281L312 80.0819C312 81.2522 311.043 82.1809 309.891 82.3901C304.428 83.3827 300.285 88.1627 300.285 93.9098C300.285 99.6568 304.428 104.437 309.891 105.429C311.043 105.639 312 106.567 312 107.738L312 116.881C312 118.051 311.051 119 309.881 119L2.11908 119C0.948743 118.999 3.85206e-07 118.051 8.6041e-07 116.88L4.57296e-06 107.737C5.04817e-06 106.567 0.957072 105.638 2.10856 105.429C7.57198 104.436 11.7146 99.6563 11.7146 93.9093C11.7146 88.1622 7.57198 83.3822 2.10856 82.3896C0.957073 82.1804 5.43392e-06 81.2517 5.43395e-06 80.0814L5.43409e-06 73.3277C5.43412e-06 72.1573 0.957072 71.2286 2.10856 71.0194C7.57198 70.0269 11.7146 65.2469 11.7146 59.4998C11.7146 53.7527 7.57198 48.9727 2.10856 47.9802C0.957072 47.771 4.96572e-06 46.8423 4.38727e-06 45.6719L1.04913e-06 38.9181C4.70679e-07 37.7478 0.957068 36.8191 2.10856 36.6099C7.57197 35.6174 11.7146 30.8374 11.7146 25.0903C11.7146 19.3432 7.57197 14.5631 2.10855 13.5706C0.957067 13.3614 2.27322e-09 12.4327 2.29857e-09 11.2623L2.49776e-09 2.11909Z" fill="#F3EDC8"/>
</svg>
