<svg width="200" height="523" viewBox="0 0 200 523" fill="none" xmlns="http://www.w3.org/2000/svg">
<path d="M197.075 0.558602C198.246 0.558602 199.194 1.50735 199.194 2.67769L199.194 520.44C199.194 521.61 198.245 522.559 197.074 522.559H178.913C177.743 522.559 176.806 521.607 176.681 520.443C175.626 510.613 167.304 502.959 157.195 502.959C147.085 502.959 138.763 510.613 137.708 520.443C137.583 521.607 136.647 522.559 135.476 522.559H121.315C120.145 522.559 119.208 521.607 119.083 520.443C118.028 510.613 109.706 502.959 99.5967 502.959C89.4871 502.959 81.1653 510.613 80.1102 520.443C79.9853 521.607 79.0486 522.559 77.8783 522.559H63.717C62.5467 522.559 61.61 521.607 61.4851 520.443C60.43 510.613 52.1082 502.959 41.9986 502.959C31.889 502.959 23.5671 510.613 22.5121 520.443C22.3872 521.607 21.4505 522.559 20.2801 522.559H2.11908C0.948746 522.559 1.52663e-06 521.61 3.40982e-06 520.44L0.000836541 2.67767C0.000838424 1.50734 0.949585 0.558594 2.11992 0.558595L20.281 0.558603C21.4513 0.558603 22.3881 1.51069 22.513 2.67434C23.568 12.5037 31.8899 20.158 41.9994 20.158C52.1091 20.158 60.4309 12.5037 61.486 2.67435C61.6109 1.51069 62.5476 0.558606 63.7179 0.558606L77.8791 0.558606C79.0494 0.558606 79.9861 1.51069 80.111 2.67435C81.1661 12.5037 89.488 20.158 99.5976 20.158C109.707 20.158 118.029 12.5037 119.084 2.67435C119.209 1.5107 120.146 0.558608 121.316 0.558607L135.477 0.558601C136.648 0.5586 137.584 1.51069 137.709 2.67434C138.764 12.5037 147.086 20.158 157.196 20.158C167.305 20.158 175.627 12.5037 176.682 2.67434C176.807 1.51069 177.744 0.558602 178.914 0.558602L197.075 0.558602Z" fill="#F3EDC8"/>
</svg>
