<svg width="241" height="50" viewBox="0 0 241 50" fill="none" xmlns="http://www.w3.org/2000/svg">
<path d="M232.742 45.2103C234.005 45.9681 235.503 46.5231 237.119 46.8621L3.88072 46.8619C5.49666 46.5229 6.99485 45.9679 8.25822 45.2101C10.1303 44.0871 12.0488 42.1292 12.0488 39.3488C12.0488 36.5684 10.1303 34.6105 8.25823 33.4876C7.3197 32.9246 6.2516 32.4736 5.1019 32.1399C6.2516 31.8062 7.3197 31.3551 8.25822 30.7922C10.1302 29.6692 12.0487 27.7113 12.0487 24.9309C12.0487 22.1505 10.1302 20.1927 8.25822 19.0697C7.3197 18.5067 6.2516 18.0557 5.10191 17.722C6.2516 17.3883 7.3197 16.9373 8.25822 16.3743C10.1302 15.2513 12.0487 13.2935 12.0487 10.513C12.0487 7.73261 10.1303 5.77477 8.25822 4.6518C6.99488 3.89396 5.49673 3.33898 3.88083 3L237.119 3.00022C235.503 3.33919 234.005 3.89417 232.742 4.65202C230.87 5.77499 228.951 7.73283 228.951 10.5133C228.951 13.2937 230.87 15.2515 232.742 16.3745C233.68 16.9375 234.748 17.3885 235.898 17.7222C234.748 18.0559 233.68 18.5069 232.742 19.0699C230.87 20.1929 228.951 22.1507 228.951 24.9311C228.951 27.7116 230.87 29.6694 232.742 30.7924C233.68 31.3554 234.748 31.8064 235.898 32.1401C234.748 32.4738 233.68 32.9248 232.742 33.4878C230.87 34.6108 228.951 36.5686 228.951 39.349C228.951 42.1295 230.87 44.0873 232.742 45.2103Z" fill="#F3EDC8" stroke="#9E0000" stroke-width="6"/>
<path d="M27.6094 28.3363V24.5468H34.4571V28.3363H27.6094Z" fill="#9E0000"/>
<path d="M36.879 36.0151V12.7461H46.3528C47.4387 13.145 48.4027 13.8431 49.2448 14.8403C50.087 15.8375 50.508 17.0453 50.508 18.4636C50.508 20.9678 49.6881 22.7185 48.0481 23.7157V23.8487C50.087 24.9789 51.1064 26.7518 51.1064 29.1673C51.1064 31.9375 49.6991 34.22 46.8847 36.0151H36.879ZM41.3999 22.3529H44.6908C45.6658 21.7545 46.1534 20.8459 46.1534 19.6271C46.1534 18.4082 45.6991 17.4442 44.7905 16.7351H41.3999V22.3529ZM41.3999 32.1591H44.8237C45.2226 31.871 45.5772 31.4167 45.8875 30.7962C46.2199 30.1757 46.3861 29.5552 46.3861 28.9346C46.3861 28.3141 46.2531 27.749 45.9872 27.2393C45.7213 26.7296 45.3888 26.3529 44.9899 26.1091H41.3999V32.1591Z" fill="#9E0000"/>
<path d="M59.283 32.1591H62.0752C62.5628 31.6272 62.9063 31.0953 63.1057 30.5635C63.3273 30.0095 63.4381 29.2006 63.4381 28.1369V12.7461H67.9922V26.4748C67.9922 27.605 67.959 28.4914 67.8925 29.1341C67.8482 29.7546 67.7152 30.5192 67.4936 31.4278C67.1168 33.0455 66.0753 34.5746 64.3689 36.0151H56.9893C55.2829 34.6189 54.2413 33.0898 53.8646 31.4278C53.5322 30.0759 53.366 28.4249 53.366 26.4748V12.7461H57.9201V28.1369C57.9201 29.2006 58.0198 30.0095 58.2192 30.5635C58.4408 31.0953 58.7954 31.6272 59.283 32.1591Z" fill="#9E0000"/>
<path d="M79.2067 36.0151H74.3535V28.2698L69.4338 12.7461H73.9546L76.0156 19.8265L76.7136 23.9152H76.8466L77.5447 19.8265L79.6056 12.7461H84.1265L79.2067 28.2698V36.0151Z" fill="#9E0000"/>
<path d="M94.8149 16.7351H89.7954V12.7461H104.355V16.7351H99.3357V36.0151H94.8149V16.7351Z" fill="#9E0000"/>
<path d="M106.283 36.0151V12.7461H110.837V36.0151H106.283Z" fill="#9E0000"/>
<path d="M120.491 32.1591H126.341V36.0151H117.898C116.435 34.6411 115.327 32.9015 114.574 30.7962C113.82 28.6909 113.444 26.5302 113.444 24.3141C113.444 22.0758 113.865 19.9262 114.707 17.8653C115.549 15.8043 116.801 14.0979 118.463 12.7461H126.341V16.7351H120.491C119.892 17.422 119.372 18.5301 118.928 20.0592C118.507 21.5883 118.297 23.0509 118.297 24.4471C118.297 25.8432 118.507 27.3058 118.928 28.8349C119.372 30.364 119.892 31.4721 120.491 32.1591Z" fill="#9E0000"/>
<path d="M128.78 36.0151V12.7461H133.334V22.5523H133.5L137.655 12.7461H142.342L137.489 23.8487L142.575 36.0151H137.522L133.567 25.8432H133.334V36.0151H128.78Z" fill="#9E0000"/>
<path d="M144.167 36.0151V12.7461H156.101V16.7351H148.721V22.2864H155.303V26.1424H148.721V32.1591H156.234V36.0151H144.167Z" fill="#9E0000"/>
<path d="M162.564 16.7351H157.544V12.7461H172.104V16.7351H167.085V36.0151H162.564V16.7351Z" fill="#9E0000"/>
<path d="M171.287 28.3363V24.5468H178.135V28.3363H171.287Z" fill="#9E0000"/>
<path d="M183.75 26.2196L209.39 26.144M203.988 21.1055L209.559 26.3015L204.678 31.5346" stroke="#9E0000" stroke-width="3"/>
</svg>
