<svg width="738" height="419" viewBox="0 0 738 419" fill="none" xmlns="http://www.w3.org/2000/svg">
<ellipse cx="420.199" cy="282.496" rx="317" ry="136.5" fill="white"/>
<path d="M714.872 282.493C714.872 295.819 708.348 309.585 694.29 323.241C680.198 336.931 659.213 349.784 632.353 360.82C578.689 382.87 503.766 396.772 420.422 396.772C337.078 396.772 262.155 382.87 208.49 360.82C181.631 349.784 160.646 336.931 146.553 323.241C132.496 309.585 125.971 295.819 125.971 282.493C125.971 269.167 132.496 255.4 146.553 241.745C160.646 228.055 181.631 215.202 208.49 204.165C262.155 182.115 337.078 168.213 420.422 168.213C503.766 168.213 578.689 182.115 632.353 204.165C659.213 215.202 680.198 228.055 694.29 241.745C708.348 255.4 714.872 269.167 714.872 282.493Z" fill="white" stroke="#9E0000" stroke-width="22.7705"/>
<path d="M355.174 292.093L326.936 308.017C320.708 318.562 314.444 328.506 308.145 337.848C301.917 347.261 296.361 355.011 291.478 361.097C286.666 367.254 282.49 371.925 278.951 375.11C275.413 378.366 272.794 379.994 271.095 379.994C268.831 379.994 266.99 379.215 265.575 377.658C264.16 376.172 263.452 374.403 263.452 372.35C263.452 364.707 267.734 355.117 276.297 343.581C284.932 332.115 298.555 319.907 317.169 306.955C325.237 291.456 331.89 277.372 337.127 264.704C342.364 252.035 346.363 241.207 349.123 232.219C351.883 223.23 353.794 216.011 354.856 210.562C355.988 205.112 356.554 201.644 356.554 200.158C356.554 197.115 355.387 195.593 353.051 195.593C351.14 195.593 348.309 196.69 344.558 198.884C340.878 201.078 336.879 204.369 332.562 208.757C328.245 213.074 324.211 218.099 320.46 223.832C316.709 229.494 313.276 235.863 310.162 242.941C307.119 249.947 304.748 256.423 303.05 262.368C301.422 268.313 300.608 273.09 300.608 276.7C300.608 277.62 300.749 279.637 301.033 282.751C301.67 281.76 302.448 280.557 303.368 279.141C304.288 277.726 305.456 276.275 306.871 274.789C308.287 273.303 309.773 272.064 311.33 271.073C312.25 270.366 313.347 269.799 314.621 269.375C315.895 268.879 316.532 268.915 316.532 269.481C316.532 269.906 314.515 272.595 310.481 277.549C306.447 282.432 302.943 286.856 299.971 290.819C298.272 293.084 296.008 295.207 293.177 297.189C290.346 299.17 288.046 300.161 286.276 300.161C284.153 300.161 282.738 299.17 282.03 297.189C281.393 295.207 281.074 292.058 281.074 287.74C281.074 277.337 282.844 265.765 286.382 253.026C289.992 240.287 294.804 229.105 300.82 219.479C305.704 211.836 311.684 204.935 318.761 198.778C325.839 192.55 332.704 187.702 339.356 184.234C346.08 180.766 351.352 179.032 355.174 179.032C359.845 179.032 363.455 180.519 366.003 183.491C368.55 186.393 369.824 190.427 369.824 195.593C369.824 198.141 369.506 201.008 368.869 204.192C368.303 207.377 367.56 210.597 366.64 213.853C365.72 217.108 364.127 222.346 361.862 229.565C359.598 236.784 358.111 241.561 357.404 243.896C355.21 251.186 352.308 258.688 348.698 266.402C345.16 274.046 340.1 284.202 333.518 296.87L355.174 285.193V292.093ZM405.388 277.337C395.126 290.925 387.305 300.586 381.927 306.318C376.619 312.051 372.266 314.917 368.869 314.917C366.18 314.917 363.702 313.82 361.438 311.626C359.173 309.362 357.404 306.354 356.13 302.603C354.927 298.781 354.325 294.712 354.325 290.394C354.325 287.563 354.573 285.016 355.068 282.751C355.634 280.486 356.661 278.009 358.147 275.32C359.633 272.56 361.579 269.587 363.986 266.402C366.463 263.217 369.471 259.608 373.009 255.574C375.132 253.097 376.902 251.009 378.317 249.31C379.803 247.612 381.219 246.479 382.564 245.913C383.979 245.276 386.244 244.958 389.358 244.958C391.623 244.958 393.781 245.276 395.834 245.913C397.886 246.479 398.912 247.081 398.912 247.718C398.912 248.992 397.851 251.292 395.727 254.618C393.675 257.945 390.313 262.014 385.642 266.827C381.042 271.569 375.699 276.24 369.612 280.84C368.267 285.016 367.595 288.2 367.595 290.394C367.595 293.438 368.763 294.959 371.098 294.959C371.948 294.959 373.363 294.252 375.345 292.836C377.326 291.35 380.653 288.554 385.324 284.449C390.066 280.274 394.312 276.594 398.063 273.409C400.823 271.002 404.008 267.428 407.617 262.687C411.298 257.874 414.27 254.265 416.535 251.858C421.772 246.338 425.346 242.764 427.257 241.136C429.168 239.438 431.008 238.588 432.777 238.588C434.476 238.588 435.608 239.119 436.175 240.181C436.811 241.242 437.13 243.401 437.13 246.656C437.13 248.143 436.988 249.346 436.705 250.266C436.422 251.186 435.821 252.389 434.901 253.875C434.051 255.291 432.282 257.945 429.593 261.837C426.903 265.73 423.718 270.33 420.038 275.638C418.057 278.469 416.323 281.583 414.836 284.98C413.35 288.307 412.607 290.819 412.607 292.518C412.607 296.198 414.058 298.038 416.96 298.038C419.366 298.038 422.161 297.047 425.346 295.065C428.531 293.084 433.414 289.51 439.996 284.343V291.456C431.716 299.1 425.594 304.655 421.631 308.123C417.667 311.591 414.235 314.21 411.333 315.979C408.431 317.748 405.671 318.633 403.053 318.633C397.108 318.633 394.135 315.094 394.135 308.017C394.135 305.328 395.02 301.718 396.789 297.189C398.558 292.588 401.425 285.971 405.388 277.337ZM489.785 283.388V291.244C474.994 310.848 462.962 320.65 453.691 320.65C448.666 320.65 444.703 317.925 441.801 312.476C438.97 306.955 437.555 299.737 437.555 290.819C437.555 283.6 439.253 275.037 442.65 265.128C446.047 255.149 450.577 245.064 456.239 234.873C461.971 224.61 467.881 215.693 473.968 208.12C480.125 200.477 485.822 195.133 491.059 192.09C493.183 190.816 494.846 190.179 496.049 190.179C497.535 190.179 498.526 190.852 499.021 192.196C499.517 193.47 499.765 195.699 499.765 198.884C499.765 208.722 495.766 220.824 487.768 235.191C479.771 249.487 468.624 264.102 454.328 279.035C453.62 282.716 453.266 285.546 453.266 287.528C453.266 292.058 454.222 295.738 456.133 298.569C458.114 301.4 460.839 302.815 464.307 302.815C466.076 302.815 467.987 302.143 470.04 300.798C472.092 299.383 474.251 297.649 476.515 295.596C478.78 293.544 483.204 289.474 489.785 283.388ZM458.044 264.279C461.724 260.67 465.262 256.565 468.66 251.964C472.127 247.364 475.383 242.445 478.426 237.208C481.47 231.971 483.84 227.264 485.539 223.089C487.308 218.913 488.193 215.764 488.193 213.641C488.193 212.013 487.627 211.199 486.494 211.199C486.07 211.199 485.256 211.588 484.053 212.367C479.736 215.905 474.888 222.841 469.509 233.174C464.13 243.436 460.308 253.805 458.044 264.279ZM534.904 288.696L516.007 304.726C507.019 312.582 501.003 316.51 497.96 316.51C495.2 316.51 492.298 313.36 489.255 307.062C486.211 300.692 484.69 295.136 484.69 290.394C484.69 286.36 485.291 282.963 486.494 280.203C487.768 277.372 489.927 273.727 492.97 269.269C497.287 263.253 501.428 258.157 505.391 253.981C509.354 249.806 512.858 246.586 515.901 244.321C518.944 241.985 521.067 240.818 522.27 240.818C524.181 240.818 526.021 241.808 527.791 243.79C529.631 245.772 530.551 247.824 530.551 249.947C530.551 251.292 529.56 253.451 527.579 256.423C525.668 259.396 522.589 263.182 518.343 267.782C514.167 272.312 508.328 277.761 500.826 284.131L498.809 289.97C498.243 291.102 497.96 292.093 497.96 292.942C497.96 294.853 498.915 295.809 500.826 295.809C502.808 295.809 507.443 293.296 514.733 288.271C522.094 283.246 530.056 276.487 538.619 267.995C541.946 264.668 544.706 261.731 546.9 259.183C549.094 256.635 551.075 254.265 552.845 252.071C554.614 249.806 556.065 248.107 557.197 246.975C558.4 245.843 559.462 245.241 560.382 245.17C562.151 244.958 563.531 245.701 564.522 247.4C565.513 249.098 566.009 251.611 566.009 254.937C566.009 256.848 565.159 259.254 563.461 262.156C561.762 264.987 558.577 269.87 553.906 276.806C549.235 283.671 544.564 290.819 539.893 298.25C535.293 305.611 530.586 313.927 525.774 323.198C525.986 322.986 528.145 320.862 532.25 316.828C536.425 312.794 540.813 308.583 545.413 304.195C550.014 299.807 553.8 296.304 556.773 293.685C559.745 290.996 563.461 287.882 567.919 284.343V291.456C558.365 301.718 549.695 311.45 541.91 320.65C534.196 329.851 528.215 337.211 523.969 342.731C519.793 348.252 517.352 351.472 516.644 352.392C514.733 354.869 512.999 357.169 511.442 359.292C509.956 361.486 508.682 363.15 507.62 364.282C506.63 365.485 505.816 366.087 505.179 366.087C503.692 366.087 502.348 364.6 501.145 361.628C500.012 358.726 499.446 356.143 499.446 353.878C499.446 351.826 499.835 350.021 500.614 348.464C505.709 336.999 517.139 317.076 534.904 288.696Z" fill="#9E0000"/>
<path d="M122.27 273.21C121.609 262.933 102.776 252.754 93.4422 248.95L101.677 246.532L98.5453 236.98C67.8572 245.771 71.7044 264.821 92.6804 282.769C113.656 300.718 123.097 286.057 122.27 273.21Z" fill="white" stroke="black" stroke-width="4.26714"/>
<path d="M109.531 261.026C92.2239 250.225 96.4594 236.067 100.741 230.338C116.022 234.214 146.345 244.416 145.38 254.211C144.175 266.454 131.165 274.527 109.531 261.026Z" fill="white" stroke="black" stroke-width="4.26714"/>
<path d="M116.048 214.083L119.161 208.295C91.9865 217.908 100.985 231.566 112.516 239.634C124.047 247.702 125.311 257.584 135.248 253.903C145.184 250.223 148.202 240.066 141.557 229.691C136.24 221.391 121.611 214.704 116.048 214.083Z" fill="white" stroke="black" stroke-width="4.26714"/>
<path d="M257.783 138.045C271.312 123.444 258.984 117.087 251.129 115.733C236.339 53.0164 207.43 37.8471 195.974 34.2607C157.223 2.75099 101.194 30.7691 89.3535 56.6396C59.4056 81.905 48.3777 137.101 48.2244 161.046C41.3823 163.865 26.3797 172.926 21.1057 186.621C14.5132 203.74 33.5368 215.831 85.0993 214.603C136.662 213.374 240.871 156.296 257.783 138.045Z" fill="#FFC737"/>
<path d="M91.4898 54.8263C76.6069 66.9468 47.557 104.668 50.4199 158.591C32.5053 169.567 3.51246 194.757 30.8574 207.708C65.0387 223.896 122.588 217.58 198.158 177.381C273.727 137.183 276.351 120.5 249.935 115.866" stroke="black" stroke-width="4.97833"/>
<path d="M50.4216 158.588C61.0752 172.78 92.6226 189.405 155.719 167.857C211.751 148.721 231.29 129.283 237.781 123.844" stroke="black" stroke-width="4.97833"/>
<path d="M91.2205 138.603C100.988 101.786 123.198 36.2787 167.65 31.3998C218.166 25.8553 234.716 67.4636 252.104 117.842" stroke="black" stroke-width="4.97833"/>
<path d="M125.303 96.0828C129.405 77.9081 146.779 37.1846 181.301 32.332" stroke="black" stroke-width="4.97833"/>
<path d="M68.7739 133.532C70.4895 107.495 81.8489 50.564 113.561 31.1312C145.274 11.6985 190.088 21.8455 197.133 34.3658" stroke="black" stroke-width="4.97833"/>
<path d="M228.625 62.1445L206.657 72.5318C210.371 88.3715 213.568 126.01 196.638 149.847" stroke="black" stroke-width="4.97833"/>
<path d="M39.4779 119.139C40.4644 129.978 44.5471 139.4 50.2276 145.882C55.9101 152.367 63.043 155.778 70.2774 155.12C77.5118 154.461 83.9116 149.819 88.3301 142.415C92.7471 135.013 95.062 125.009 94.0755 114.17C93.089 103.331 89.0062 93.9091 83.3257 87.4266C77.6433 80.9418 70.5104 77.5306 63.276 78.1889C56.0416 78.8473 49.6417 83.4902 45.2233 90.8942C40.8063 98.2957 38.4914 108.299 39.4779 119.139Z" fill="white" stroke="black" stroke-width="4.97833"/>
<ellipse cx="18.2727" cy="25.3326" rx="18.2727" ry="25.3326" transform="matrix(-0.995884 0.090634 0.090634 0.995884 81.8555 89.8438)" fill="black"/>
<mask id="path-16-inside-1_1370_5812" fill="white">
<path fill-rule="evenodd" clip-rule="evenodd" d="M36.6784 105.581C56.8441 92.7093 69.437 90.7349 92.3298 99.1579C86.5886 84.3856 74.852 74.6339 62.2693 75.7791C49.3173 76.9578 39.3314 89.3308 36.6784 105.581Z"/>
</mask>
<path fill-rule="evenodd" clip-rule="evenodd" d="M36.6784 105.581C56.8441 92.7093 69.437 90.7349 92.3298 99.1579C86.5886 84.3856 74.852 74.6339 62.2693 75.7791C49.3173 76.9578 39.3314 89.3308 36.6784 105.581Z" fill="#D2A32B"/>
<path d="M36.6784 105.581L39.3569 109.777L29.971 115.768L31.7651 104.778L36.6784 105.581ZM92.3298 99.1579L96.97 97.3545L100.968 107.641L90.6108 103.83L92.3298 99.1579ZM34 101.384C44.3373 94.7862 53.267 90.6249 62.8735 89.4428C72.5079 88.2573 82.2332 90.1384 94.0488 94.4858L90.6108 103.83C79.5336 99.7543 71.516 98.4111 64.0894 99.325C56.6348 100.242 49.1852 103.504 39.3569 109.777L34 101.384ZM87.6896 100.961C82.3787 87.2963 72.2118 79.8731 62.7205 80.7369L61.8181 70.8212C77.4923 69.3947 90.7984 81.4749 96.97 97.3545L87.6896 100.961ZM62.7205 80.7369C52.9542 81.6257 44.0537 91.3027 41.5917 106.383L31.7651 104.778C34.6092 87.3588 45.6804 72.2899 61.8181 70.8212L62.7205 80.7369Z" fill="black" mask="url(#path-16-inside-1_1370_5812)"/>
<path d="M90.763 114.471C91.7495 125.31 95.8323 134.732 101.513 141.214C107.195 147.699 114.328 151.11 121.563 150.452C128.797 149.793 135.197 145.151 139.615 137.747C144.032 130.345 146.347 120.341 145.361 109.502C144.374 98.6625 140.291 89.2411 134.611 82.7586C128.928 76.2738 121.796 72.8626 114.561 73.521C107.327 74.1794 100.927 78.8222 96.5084 86.2262C92.0915 93.6277 89.7765 103.631 90.763 114.471Z" fill="white" stroke="black" stroke-width="4.97833"/>
<ellipse cx="18.2727" cy="25.3326" rx="18.2727" ry="25.3326" transform="matrix(-0.995884 0.090634 0.090634 0.995884 133.965 85.1016)" fill="black"/>
<mask id="path-20-inside-2_1370_5812" fill="white">
<path fill-rule="evenodd" clip-rule="evenodd" d="M87.9555 100.926C108.911 88.4331 121.634 87.1349 143.648 94.6001C137.922 79.7698 126.16 69.97 113.547 71.1178C100.594 72.2967 90.607 84.6728 87.9555 100.926Z"/>
</mask>
<path fill-rule="evenodd" clip-rule="evenodd" d="M87.9555 100.926C108.911 88.4331 121.634 87.1349 143.648 94.6001C137.922 79.7698 126.16 69.97 113.547 71.1178C100.594 72.2967 90.607 84.6728 87.9555 100.926Z" fill="#D2A32B"/>
<path d="M87.9555 100.926L90.5048 105.202L81.3206 110.677L83.0422 100.124L87.9555 100.926ZM143.648 94.6001L148.292 92.8068L152.124 102.731L142.049 99.3147L143.648 94.6001ZM85.4063 96.6497C96.1682 90.2339 105.296 86.3961 114.853 85.331C124.428 84.2641 133.903 86.0386 145.247 89.8854L142.049 99.3147C131.379 95.6964 123.486 94.3874 115.956 95.2264C108.41 96.0674 100.698 99.125 90.5048 105.202L85.4063 96.6497ZM139.004 96.3933C133.705 82.6712 123.512 75.2098 113.999 76.0756L113.096 66.1599C128.807 64.7301 142.138 76.8685 148.292 92.8068L139.004 96.3933ZM113.999 76.0756C104.231 76.9645 95.3295 86.6441 92.8689 101.727L83.0422 100.124C85.8844 82.7014 96.9565 67.6288 113.096 66.1599L113.999 76.0756Z" fill="black" mask="url(#path-20-inside-2_1370_5812)"/>
<path d="M122.511 109.471L137.001 117.57L136.373 100.339L122.511 109.471Z" fill="white"/>
<path d="M71.5306 117.448L86.0205 125.546L85.3924 108.316L71.5306 117.448Z" fill="white"/>
<path d="M146.279 145.32C147.872 148.133 151.297 151.38 160.2 148.553" stroke="black" stroke-width="4.97833" stroke-linecap="round"/>
<path d="M120.87 162.984C131.34 164.669 149.37 160.765 152.543 149.578" stroke="black" stroke-width="4.97833" stroke-linecap="round"/>
<path d="M292.303 183.948C282.75 180.099 278.988 159.025 278.301 148.969L273.424 156.03L265.335 150.063C283.302 123.676 300.186 133.301 310.655 158.846C321.124 184.391 304.243 188.76 292.303 183.948Z" fill="white" stroke="black" stroke-width="4.26714"/>
<path d="M284.725 168.029C279.893 148.209 265.121 147.793 258.339 150.063C257.23 165.789 257.413 197.781 267.016 199.936C279.02 202.629 290.765 192.805 284.725 168.029Z" fill="white" stroke="black" stroke-width="4.26714"/>
<path d="M238.106 159.507L231.634 160.648C249.28 137.857 259.429 150.683 263.476 164.161C267.523 177.64 276.511 181.939 269.901 190.221C263.292 198.503 252.7 198.185 244.931 188.622C238.716 180.972 236.952 164.984 238.106 159.507Z" fill="white" stroke="black" stroke-width="4.26714"/>
</svg>
