<svg width="540" height="110" viewBox="0 0 540 110" fill="none" xmlns="http://www.w3.org/2000/svg">
<path d="M44.5 74.25L20.9375 62.75C14.9375 70.9583 11.5833 76.375 10.875 79C10.375 80.875 9.25 82.4375 7.5 83.6875C5.79167 84.9792 4.5625 85.625 3.8125 85.625C1.6875 85.625 0.625 84.8125 0.625 83.1875C0.625 82.2708 1.875 79.6458 4.375 75.3125C6.91667 70.9375 10.3958 65.7917 14.8125 59.875C12.3542 58.875 10.8333 58.2083 10.25 57.875C9.66667 57.5417 9.4375 56.9167 9.5625 56C9.6875 55.0417 10.4167 53.5625 11.75 51.5625C12.9167 49.8125 13.7917 48.6458 14.375 48.0625C14.9583 47.4375 15.6458 46.9583 16.4375 46.625C17.2292 46.25 18.0625 46 18.9375 45.875C19.8125 45.75 22.2708 45.4375 26.3125 44.9375C29.6042 40.4792 33.1667 35.6667 37 30.5C40.875 25.3333 43.8958 21.3125 46.0625 18.4375C39.5208 19.3125 34.9583 20.0417 32.375 20.625C29.625 21.1667 27.3125 21.625 25.4375 22C23.6042 22.3333 22.3125 22.6458 21.5625 22.9375C20.8125 23.1875 20.4375 23.5625 20.4375 24.0625C20.4375 24.5208 20.8958 24.8333 21.8125 25C22.7292 25.1667 23.875 25.25 25.25 25.25C26.6667 25.25 27.75 25.3125 28.5 25.4375C29.2917 25.5208 29.6875 25.75 29.6875 26.125C29.6875 26.5417 29.1667 26.7917 28.125 26.875C27.125 26.9167 24.2708 27.0417 19.5625 27.25C16.8958 27.3333 14.6458 27.4167 12.8125 27.5C11.0208 27.5833 9.77083 27.625 9.0625 27.625C8.10417 27.625 7.35417 27.3333 6.8125 26.75C6.27083 26.1667 6 25.3958 6 24.4375C6 23.7292 6.39583 22.4167 7.1875 20.5C7.97917 18.5833 9.10417 16.6458 10.5625 14.6875C12.0208 12.7292 13.6875 11.2083 15.5625 10.125C17.6875 8.83333 20.9792 7.54167 25.4375 6.25C29.9375 4.91667 34.9167 3.85417 40.375 3.0625C45.875 2.22917 51.3125 1.8125 56.6875 1.8125C59.9375 1.8125 63.1042 2 66.1875 2.375C69.3125 2.75 72.125 3.20833 74.625 3.75C77.1667 4.29167 79.1667 4.83333 80.625 5.375C84.4167 6.625 87.3125 8.52083 89.3125 11.0625C91.3542 13.6042 92.375 16.3958 92.375 19.4375C92.375 22.3958 91.8542 25.2917 90.8125 28.125C89.8125 30.9167 88.25 33.5208 86.125 35.9375C84.0417 38.3125 81.5208 40.25 78.5625 41.75C76.1458 43 72.4792 44.2708 67.5625 45.5625C62.6458 46.8542 56.7083 48 49.75 49C42.7917 50 35.0208 50.7292 26.4375 51.1875C32.8542 53.4375 38.8333 55.7083 44.375 58C49.9583 60.25 54.6458 62.2708 58.4375 64.0625C62.2708 65.8125 65.2708 67.25 67.4375 68.375C70.4792 69.9583 72.4583 71.1042 73.375 71.8125C74.2917 72.5208 74.8958 73.4375 75.1875 74.5625C75.4792 75.6875 75.625 77.5417 75.625 80.125C75.625 83.0417 75.4375 85.1875 75.0625 86.5625C74.7292 87.9792 73.9792 88.6875 72.8125 88.6875C72.4375 88.6875 71.4375 88.2708 69.8125 87.4375C68.2292 86.6458 66.0208 85.4583 63.1875 83.875C60.3542 82.3333 57.7708 80.9583 55.4375 79.75C53.1458 78.5 49.5 76.6667 44.5 74.25ZM50 17.8125C50.0417 18.1042 50.0625 18.375 50.0625 18.625C50.1042 18.875 50.125 19.2292 50.125 19.6875C50.125 20.8542 49.75 22.2083 49 23.75C48.2917 25.25 47.3542 26.8125 46.1875 28.4375C45.0625 30.0208 43.3542 32.3125 41.0625 35.3125C38.8125 38.2708 36.7292 41 34.8125 43.5C43.5625 41.8333 51.0208 40.2292 57.1875 38.6875C63.3958 37.1458 68.5 35.6042 72.5 34.0625C76.5 32.4792 79.5 30.8333 81.5 29.125C83.5417 27.375 84.5625 25.5625 84.5625 23.6875C84.5625 21.6042 82.4375 19.9792 78.1875 18.8125C73.9792 17.6042 68.8125 17 62.6875 17C61.4375 17 60.1042 17.0417 58.6875 17.125C57.3125 17.1667 55.6458 17.2917 53.6875 17.5C51.7708 17.6667 50.5417 17.7708 50 17.8125ZM91 62.5625V64.125C91 66.5833 91.6042 68.5 92.8125 69.875C94.0208 71.25 95.6042 71.9375 97.5625 71.9375C99.6042 71.9375 101.708 71.4583 103.875 70.5C106.083 69.5417 108.271 68.2708 110.438 66.6875C112.604 65.1042 115.25 62.9792 118.375 60.3125V64.125C113.667 69.7917 109.25 74.1458 105.125 77.1875C101 80.1875 96.8125 81.6875 92.5625 81.6875C88.8542 81.6875 85.9167 80.25 83.75 77.375C81.5833 74.5 80.5 70.5625 80.5 65.5625C80.5 61.1875 81.5208 57.2292 83.5625 53.6875C85.6042 50.1042 88.9375 46.3333 93.5625 42.375C96.7292 39.6667 99.875 37.625 103 36.25C106.125 34.875 108.917 34.1875 111.375 34.1875C113.333 34.1875 114.875 34.6458 116 35.5625C117.167 36.4375 117.75 37.7708 117.75 39.5625C117.75 42.1875 116.771 44.8125 114.812 47.4375C112.854 50.0208 109.854 52.6042 105.812 55.1875C101.812 57.7292 96.875 60.1875 91 62.5625ZM91.625 58.5C95.375 57.0417 98.5833 55.2292 101.25 53.0625C103.917 50.8958 105.875 48.8333 107.125 46.875C108.417 44.875 109.062 43.4167 109.062 42.5C109.062 41.5417 108.625 41.0625 107.75 41.0625C107 41.0625 105.771 41.5417 104.062 42.5C102.396 43.4583 100.688 44.7083 98.9375 46.25C97.2292 47.7917 95.6875 49.6042 94.3125 51.6875C92.9375 53.7708 92.0417 56.0417 91.625 58.5ZM160.5 49C153.167 57.1667 149.5 62.8542 149.5 66.0625C149.5 67.8542 150.229 68.75 151.688 68.75C152.896 68.75 154.458 68.125 156.375 66.875C158.333 65.5833 161.375 63.3125 165.5 60.0625V64.375C159.583 70.2083 155.042 74.4167 151.875 77C148.708 79.5833 146.125 80.875 144.125 80.875C140.708 80.875 139 78.625 139 74.125C139 72.7917 139.208 71.4792 139.625 70.1875C140.042 68.8958 140.604 67.5625 141.312 66.1875C142.062 64.7708 143.188 62.7708 144.688 60.1875C146.188 57.5625 147.917 54.6042 149.875 51.3125C147.5 52.5208 144.521 54.9167 140.938 58.5C138.604 60.75 136.625 62.8958 135 64.9375C133.375 66.9375 131.625 69.1875 129.75 71.6875C127.917 74.1458 126.562 75.8125 125.688 76.6875C124.854 77.5208 124 77.9375 123.125 77.9375C121.792 77.9375 120.562 76.5417 119.438 73.75C118.312 70.9583 117.75 67.7083 117.75 64C117.75 61.7083 118 59.9167 118.5 58.625C119.042 57.3333 120.083 55.5 121.625 53.125C124.5 48.7083 126.979 45.4792 129.062 43.4375C131.146 41.3542 133.146 40.3125 135.062 40.3125C136.396 40.3125 137.458 40.5417 138.25 41C139.083 41.4583 139.5 42.1667 139.5 43.125C139.5 43.5417 139.375 43.9792 139.125 44.4375C138.875 44.8958 138.583 45.3125 138.25 45.6875C137.958 46.0625 137.312 46.7917 136.312 47.875C129.729 55.1667 126.438 59.8958 126.438 62.0625C126.438 63.2708 126.833 63.875 127.625 63.875C128.125 63.875 129.083 63.0833 130.5 61.5C131.958 59.875 133.812 57.7708 136.062 55.1875C138.354 52.5625 141.042 49.8333 144.125 47C147.25 44.1667 150.792 41.4375 154.75 38.8125C156.958 37.2708 158.792 36.5 160.25 36.5C160.917 36.5 161.562 37.4167 162.188 39.25C162.854 41.0833 163.188 42.9375 163.188 44.8125C163.188 45.7292 162.292 47.125 160.5 49ZM208.938 16.75C208.938 18 208.458 19.75 207.5 22C206.458 25.0417 205.521 27.0625 204.688 28.0625C203.896 29.0625 202.667 29.5625 201 29.5625C197.417 29.5625 195.625 28.375 195.625 26C195.625 24.125 196.729 21.4375 198.938 17.9375C200.104 16.0625 201.042 14.9167 201.75 14.5C202.458 14.0417 203.604 13.8125 205.188 13.8125C207.688 13.8125 208.938 14.7917 208.938 16.75ZM168.875 49.125L170.625 44.1875L182.188 38.9375C189.062 35.6875 194.042 34.0625 197.125 34.0625C199.542 34.0625 200.75 35.1667 200.75 37.375C200.75 38.1667 200.417 39.4583 199.75 41.25C199.125 43 198.042 45.5208 196.5 48.8125C195 52.1042 193.25 55.8542 191.25 60.0625C189.25 64.2292 187.167 68.5208 185 72.9375C188.125 70.8125 190.854 68.8542 193.188 67.0625C195.562 65.2292 198.333 62.9375 201.5 60.1875L201.625 64.625C193.625 71.5417 186.208 78.4167 179.375 85.25C175.25 93.2917 171.604 99.3542 168.438 103.438C165.271 107.521 162.896 109.562 161.312 109.562C160.188 109.562 159.625 108.458 159.625 106.25C159.625 103.542 160.229 100.812 161.438 98.0625C162.646 95.3542 164.5 92.4792 167 89.4375C169.5 86.4375 172.458 83.375 175.875 80.25C181.167 69.8333 184.896 62.2708 187.062 57.5625C189.271 52.8125 190.375 49.7083 190.375 48.25C190.375 47.3333 189.938 46.875 189.062 46.875C188.604 46.875 185.5 48.2292 179.75 50.9375C174 53.6042 170.417 54.9375 169 54.9375C168.125 54.9375 167.688 54.4583 167.688 53.5C167.688 52.875 168.083 51.4167 168.875 49.125ZM208.438 49.125C214.771 43.375 220.917 39.1042 226.875 36.3125C232.833 33.5208 237.438 32.125 240.688 32.125C241.562 32.125 242.375 32.5 243.125 33.25C243.875 33.9583 244.458 34.7917 244.875 35.75C245.333 36.7083 245.562 37.4167 245.562 37.875C245.562 38.625 245.271 39.1875 244.688 39.5625C244.104 39.8958 243.083 40.3125 241.625 40.8125C241.917 41.4792 242.292 42.3333 242.75 43.375C243.208 44.4167 243.562 45.2708 243.812 45.9375C244.062 46.5625 244.188 47.125 244.188 47.625C244.188 48.625 243.167 50.5 241.125 53.25C239.125 55.9583 237.708 57.9583 236.875 59.25C236.083 60.5417 235.688 62.125 235.688 64C235.688 67.0833 237.104 68.625 239.938 68.625C242.854 68.625 247.417 65.8958 253.625 60.4375V64.25C243.083 75.9583 235.542 81.8125 231 81.8125C229.375 81.8125 228.208 81.2708 227.5 80.1875C226.833 79.1458 226.5 77.5833 226.5 75.5C226.5 72.2083 227.688 67.4375 230.062 61.1875C223.979 67.9375 219.458 72.75 216.5 75.625C213.542 78.4583 211.104 79.875 209.188 79.875C208.271 79.875 207.125 79.0833 205.75 77.5C204.375 75.9167 203.146 73.875 202.062 71.375C201.021 68.8333 200.5 66.2083 200.5 63.5C200.5 61.5417 200.688 59.9167 201.062 58.625C201.438 57.2917 202.167 55.9375 203.25 54.5625C204.333 53.1875 206.062 51.375 208.438 49.125ZM238.375 42.25C227.542 47.2083 219.812 51.4167 215.188 54.875C210.604 58.3333 208.312 61.8958 208.312 65.5625C208.312 66.8958 208.542 68 209 68.875C209.458 69.7083 210.083 70.125 210.875 70.125C211.333 70.125 212.146 69.8333 213.312 69.25C217.688 66.6667 221.688 63.3125 225.312 59.1875C228.938 55.0208 233.292 49.375 238.375 42.25ZM295.25 49C287.917 57.1667 284.25 62.8542 284.25 66.0625C284.25 67.8542 284.979 68.75 286.438 68.75C287.646 68.75 289.208 68.125 291.125 66.875C293.083 65.5833 296.125 63.3125 300.25 60.0625V64.375C294.333 70.2083 289.792 74.4167 286.625 77C283.458 79.5833 280.875 80.875 278.875 80.875C275.458 80.875 273.75 78.625 273.75 74.125C273.75 72.7917 273.958 71.4792 274.375 70.1875C274.792 68.8958 275.354 67.5625 276.062 66.1875C276.812 64.7708 277.938 62.7708 279.438 60.1875C280.938 57.5625 282.667 54.6042 284.625 51.3125C282.25 52.5208 279.271 54.9167 275.688 58.5C273.354 60.75 271.375 62.8958 269.75 64.9375C268.125 66.9375 266.375 69.1875 264.5 71.6875C262.667 74.1458 261.312 75.8125 260.438 76.6875C259.604 77.5208 258.75 77.9375 257.875 77.9375C256.542 77.9375 255.312 76.5417 254.188 73.75C253.062 70.9583 252.5 67.7083 252.5 64C252.5 61.7083 252.75 59.9167 253.25 58.625C253.792 57.3333 254.833 55.5 256.375 53.125C259.25 48.7083 261.729 45.4792 263.812 43.4375C265.896 41.3542 267.896 40.3125 269.812 40.3125C271.146 40.3125 272.208 40.5417 273 41C273.833 41.4583 274.25 42.1667 274.25 43.125C274.25 43.5417 274.125 43.9792 273.875 44.4375C273.625 44.8958 273.333 45.3125 273 45.6875C272.708 46.0625 272.062 46.7917 271.062 47.875C264.479 55.1667 261.188 59.8958 261.188 62.0625C261.188 63.2708 261.583 63.875 262.375 63.875C262.875 63.875 263.833 63.0833 265.25 61.5C266.708 59.875 268.562 57.7708 270.812 55.1875C273.104 52.5625 275.792 49.8333 278.875 47C282 44.1667 285.542 41.4375 289.5 38.8125C291.708 37.2708 293.542 36.5 295 36.5C295.667 36.5 296.312 37.4167 296.938 39.25C297.604 41.0833 297.938 42.9375 297.938 44.8125C297.938 45.7292 297.042 47.125 295.25 49ZM307.188 49.125C313.521 43.375 319.667 39.1042 325.625 36.3125C331.583 33.5208 336.188 32.125 339.438 32.125C340.312 32.125 341.125 32.5 341.875 33.25C342.625 33.9583 343.208 34.7917 343.625 35.75C344.083 36.7083 344.312 37.4167 344.312 37.875C344.312 38.625 344.021 39.1875 343.438 39.5625C342.854 39.8958 341.833 40.3125 340.375 40.8125C340.667 41.4792 341.042 42.3333 341.5 43.375C341.958 44.4167 342.312 45.2708 342.562 45.9375C342.812 46.5625 342.938 47.125 342.938 47.625C342.938 48.625 341.917 50.5 339.875 53.25C337.875 55.9583 336.458 57.9583 335.625 59.25C334.833 60.5417 334.438 62.125 334.438 64C334.438 67.0833 335.854 68.625 338.688 68.625C341.604 68.625 346.167 65.8958 352.375 60.4375V64.25C341.833 75.9583 334.292 81.8125 329.75 81.8125C328.125 81.8125 326.958 81.2708 326.25 80.1875C325.583 79.1458 325.25 77.5833 325.25 75.5C325.25 72.2083 326.438 67.4375 328.812 61.1875C322.729 67.9375 318.208 72.75 315.25 75.625C312.292 78.4583 309.854 79.875 307.938 79.875C307.021 79.875 305.875 79.0833 304.5 77.5C303.125 75.9167 301.896 73.875 300.812 71.375C299.771 68.8333 299.25 66.2083 299.25 63.5C299.25 61.5417 299.438 59.9167 299.812 58.625C300.188 57.2917 300.917 55.9375 302 54.5625C303.083 53.1875 304.812 51.375 307.188 49.125ZM337.125 42.25C326.292 47.2083 318.562 51.4167 313.938 54.875C309.354 58.3333 307.062 61.8958 307.062 65.5625C307.062 66.8958 307.292 68 307.75 68.875C308.208 69.7083 308.833 70.125 309.625 70.125C310.083 70.125 310.896 69.8333 312.062 69.25C316.438 66.6667 320.438 63.3125 324.062 59.1875C327.688 55.0208 332.042 49.375 337.125 42.25ZM392.375 48.875H401.812C407.271 41.5417 411.417 35.1458 414.25 29.6875C417.125 24.2292 418.562 20.6458 418.562 18.9375C418.562 16.5625 416.521 15.375 412.438 15.375C410.062 15.5833 405.854 16.1042 399.812 16.9375C393.771 17.7292 387.917 18.6875 382.25 19.8125C377.167 20.7708 373.083 21.7708 370 22.8125C366.958 23.8125 364.812 24.6458 363.562 25.3125C362.312 25.9792 361.542 26.4583 361.25 26.75C364.333 26.5833 366.938 26.5 369.062 26.5C372.396 26.5 374.062 26.875 374.062 27.625C374.062 27.9583 372.896 28.3958 370.562 28.9375C368.229 29.4375 366.021 29.9792 363.938 30.5625C361.896 31.1458 359.896 31.8333 357.938 32.625C356.021 33.4167 354.854 33.8125 354.438 33.8125C353.479 33.8125 352.688 33.4583 352.062 32.75C351.438 32 351.125 31.1042 351.125 30.0625C351.125 29.3542 351.688 27.5208 352.812 24.5625C353.979 21.5625 355.604 18.5625 357.688 15.5625C359.771 12.5208 362.354 10.2708 365.438 8.8125C366.562 8.27083 370.146 7.29167 376.188 5.875C382.271 4.45833 389.125 3.16667 396.75 2C404.375 0.833333 411.354 0.25 417.688 0.25C421.521 0.25 424.583 0.791667 426.875 1.875C429.208 2.91667 430.375 5.1875 430.375 8.6875C430.375 9.8125 429.958 11.5625 429.125 13.9375C428.292 16.2708 426.958 19.2708 425.125 22.9375C423.333 26.6042 421.125 30.625 418.5 35C415.917 39.375 412.958 44 409.625 48.875H419.25L410.938 60.8125C409.812 60.8958 408.396 60.9583 406.688 61C405.021 61.0417 403.188 61.1042 401.188 61.1875C396.062 67.8542 390.5 74.125 384.5 80C378.542 85.875 373.125 90.5833 368.25 94.125C363.417 97.6667 360.021 99.4375 358.062 99.4375C357.271 99.4375 356.583 99.1667 356 98.625C355.417 98.125 355.125 97.4583 355.125 96.625C355.125 95.9167 356.042 94.1042 357.875 91.1875C359.75 88.2708 362.333 85.5417 365.625 83C368.917 80.4583 372.667 79.0417 376.875 78.75C378.583 76.9583 380.042 75.375 381.25 74C382.5 72.5833 384.25 70.5625 386.5 67.9375C388.75 65.2708 390.479 63.2292 391.688 61.8125L372.875 62.75C370.833 62.8333 369.417 62.75 368.625 62.5C367.875 62.2083 367.5 61.5208 367.5 60.4375C367.5 60.4375 367.708 59.9167 368.125 58.875C368.542 57.7917 368.979 56.8542 369.438 56.0625C370.104 54.8542 370.625 54.125 371 53.875C371.417 53.625 372.562 53.2917 374.438 52.875L385.938 50.0625C389.021 49.2708 391.167 48.875 392.375 48.875ZM432.25 62.5625V64.125C432.25 66.5833 432.854 68.5 434.062 69.875C435.271 71.25 436.854 71.9375 438.812 71.9375C440.854 71.9375 442.958 71.4583 445.125 70.5C447.333 69.5417 449.521 68.2708 451.688 66.6875C453.854 65.1042 456.5 62.9792 459.625 60.3125V64.125C454.917 69.7917 450.5 74.1458 446.375 77.1875C442.25 80.1875 438.062 81.6875 433.812 81.6875C430.104 81.6875 427.167 80.25 425 77.375C422.833 74.5 421.75 70.5625 421.75 65.5625C421.75 61.1875 422.771 57.2292 424.812 53.6875C426.854 50.1042 430.188 46.3333 434.812 42.375C437.979 39.6667 441.125 37.625 444.25 36.25C447.375 34.875 450.167 34.1875 452.625 34.1875C454.583 34.1875 456.125 34.6458 457.25 35.5625C458.417 36.4375 459 37.7708 459 39.5625C459 42.1875 458.021 44.8125 456.062 47.4375C454.104 50.0208 451.104 52.6042 447.062 55.1875C443.062 57.7292 438.125 60.1875 432.25 62.5625ZM432.875 58.5C436.625 57.0417 439.833 55.2292 442.5 53.0625C445.167 50.8958 447.125 48.8333 448.375 46.875C449.667 44.875 450.312 43.4167 450.312 42.5C450.312 41.5417 449.875 41.0625 449 41.0625C448.25 41.0625 447.021 41.5417 445.312 42.5C443.646 43.4583 441.938 44.7083 440.188 46.25C438.479 47.7917 436.938 49.6042 435.562 51.6875C434.188 53.7708 433.292 56.0417 432.875 58.5ZM459.375 62.0625V60.5625C470.125 49.2292 477.521 41.2917 481.562 36.75C482.479 31.625 484.688 29.0625 488.188 29.0625C489.062 29.0625 490 29.3125 491 29.8125L491.375 31C491.208 31.5 491.125 32.2083 491.125 33.125C491.125 33.9167 491.417 35.3958 492 37.5625C492.625 39.6875 493.104 41.4792 493.438 42.9375C493.771 44.3958 493.938 46.0417 493.938 47.875C493.938 50.625 493.312 53.2708 492.062 55.8125C490.812 58.3125 489 60.7292 486.625 63.0625C484.25 65.3542 481.188 67.7083 477.438 70.125C478.938 70.375 480.125 70.5 481 70.5C482.708 70.5 484.542 70.0833 486.5 69.25C488.5 68.375 490.521 67.2292 492.562 65.8125C494.646 64.3542 497.062 62.4792 499.812 60.1875V64.375C494.479 69.5833 489.708 73.5417 485.5 76.25C481.292 78.9167 477.667 80.25 474.625 80.25C470.708 80.25 467.083 78.5833 463.75 75.25C461.792 73.25 460.562 71.3333 460.062 69.5C459.604 67.6667 459.375 65.1875 459.375 62.0625ZM482.688 52.5L481.562 43.375C478.979 46.2917 473.458 51.8958 465 60.1875C467.5 60.7292 469.208 61.4583 470.125 62.375C471.042 63.2917 472.333 65.0625 474 67.6875C476.833 66.5208 479 64.9375 480.5 62.9375C482.042 60.8958 482.812 58.125 482.812 54.625C482.812 54.2083 482.792 53.8333 482.75 53.5C482.75 53.1667 482.729 52.8333 482.688 52.5ZM521.562 27.875H524.25C526.458 23.9167 528.458 21.125 530.25 19.5C532.042 17.8333 534.083 17 536.375 17C538.667 17 539.812 17.5208 539.812 18.5625C539.812 19.0625 538.917 20.4167 537.125 22.625C535.333 24.8333 533.979 26.6875 533.062 28.1875C534.479 28.3542 535.729 28.5 536.812 28.625C537.938 28.75 538.812 28.8542 539.438 28.9375C537.062 33.3542 534.083 37.875 530.5 42.5C529.333 42.4167 528.354 42.3542 527.562 42.3125C526.771 42.2292 525.958 42.1667 525.125 42.125C524.333 42.0417 523.354 41.9583 522.188 41.875C519.938 45.5 518.042 48.75 516.5 51.625C515 54.4583 513.833 57.0625 513 59.4375C512.208 61.8125 511.812 64.0625 511.812 66.1875C511.812 69.0625 512.958 70.5 515.25 70.5C516.833 70.5 518.896 69.6667 521.438 68C524.021 66.2917 527.458 63.6875 531.75 60.1875V64.375C520.5 76.5833 512.188 82.6875 506.812 82.6875C504.938 82.6875 503.417 81.9583 502.25 80.5C501.125 79.0417 500.562 77.1667 500.562 74.875C500.562 73.3333 500.875 71.5 501.5 69.375C502.167 67.25 503.333 64.0417 505 59.75C504.417 60.25 503.854 60.75 503.312 61.25C502.812 61.7083 502.333 62.1458 501.875 62.5625C501.458 62.9375 501 63.3542 500.5 63.8125C500 64.2292 499.5 64.6667 499 65.125V60.8125C503.375 57.1458 508.667 50.7083 514.875 41.5C514.25 41.4583 513.667 41.4375 513.125 41.4375C512.583 41.3958 511.938 41.375 511.188 41.375C508.729 41.375 506.896 41.5417 505.688 41.875C505.188 42 504.708 42.1458 504.25 42.3125C503.833 42.4375 503.542 42.5 503.375 42.5C503.208 42.5 503.125 42.375 503.125 42.125C503.125 40.75 503.979 38.6875 505.688 35.9375C507.062 33.6042 508.354 31.875 509.562 30.75C510.812 29.625 512.312 28.875 514.062 28.5C515.854 28.0833 518.354 27.875 521.562 27.875Z" fill="#9E0000"/>
</svg>
