<svg width="530" height="495" viewBox="0 0 530 495" fill="none" xmlns="http://www.w3.org/2000/svg">
<g opacity="0.5">
<path d="M75.2581 79.3041C77.7875 79.2202 77.0625 80.158 75.9502 81.2179C74.3024 82.7429 72.6545 84.2679 71.0891 85.8539C62.6193 94.348 56.8519 104.375 51.3976 114.653C44.9217 126.945 38.594 139.305 30.8822 151.001C25.8811 158.588 20.4598 165.862 12.9045 171.528C10.4739 173.35 9.47701 174.768 10.7541 178.253C13.2752 185.115 12.9622 192.489 12.5172 199.732C11.4214 217.75 7.20302 235.341 4.19574 253.107C0.900094 272.642 2.09477 291.536 14.2887 308.685C17.4809 313.283 21.5088 317.336 26.1942 320.664C27.7514 321.746 28.0892 322.799 27.5619 324.522C22.5607 340.862 26.1447 356.082 34.8452 370.577C42.3593 383.089 53.548 392.689 64.5061 402.456C75.2169 412.071 85.9772 421.679 95.0897 432.704C99.5965 438.156 103.667 443.852 106.402 450.28C106.88 451.408 107.226 452.323 108.874 452.369C123.943 452.811 137.323 458.469 150.506 464.401C163.689 470.334 176.459 476.998 189.617 482.945C206.095 490.395 223.315 494.253 241.762 490.913C249.189 489.612 256.261 486.956 262.566 483.098C263.851 482.335 264.782 481.657 266.496 482.701C286.377 494.901 307.494 494.535 329.113 487.574C343.12 483.052 355.726 475.686 368.917 469.518C382.256 463.281 395.628 457.12 410.31 453.986C414.43 453.109 419.554 453.848 422.57 451.79C425.429 449.838 425.865 445.095 428.057 441.839C436.098 429.738 446.735 419.727 457.479 409.715C466.946 400.916 477.253 392.887 485.788 383.234C497.851 369.57 505.348 354.305 504.541 336.234C504.434 333.946 504.541 331.506 503.601 329.478C501.41 324.606 503.28 321.792 507.334 318.384C521.538 306.42 527.017 290.774 527.742 273.397C528.319 259.58 524.834 246.214 522.436 232.733C519.882 218.345 517.402 203.956 517.97 189.271C518.168 184.185 519.544 179.275 520.253 174.265L521.373 173.22C523.021 173.678 522.873 174.639 522.477 175.904C518.358 189.286 519.717 202.805 521.736 216.255C523.878 230.552 527.025 244.727 528.92 259.039C531.235 276.492 529.373 293.466 519.107 308.914C515.729 314.001 511.49 318.553 506.551 322.395C505.2 323.454 504.335 324.377 504.788 326.207C510.341 348.586 502.44 367.626 487.56 384.85C479.749 393.894 470.208 401.397 461.343 409.509C449.652 420.184 437.96 430.92 429.375 444.096C428.788 444.799 428.331 445.587 428.024 446.429C426.549 453.551 421.663 455.366 414.224 456.105C401.601 457.364 390.091 462.594 378.795 467.817C365.81 473.811 353.098 480.33 340.006 486.117C321.591 494.268 302.386 497.722 282.151 492.568C276.736 491.17 271.568 489.054 266.809 486.285C265.516 485.522 264.535 484.859 262.805 485.843C243.657 496.701 223.422 496.8 202.66 490.776C188.554 486.689 176.08 479.422 163.112 473.239C150.143 467.055 137.01 460.879 122.839 457.097C117.813 455.755 112.721 454.809 107.457 455.076C106.006 455.16 105.306 454.87 104.771 453.498C99.4399 439.902 89.1905 429.449 78.6279 419.307C67.5628 408.831 55.9539 398.934 45.2183 388.282C32.9997 376.158 24.8347 361.983 22.9727 345.155C22.251 338.838 22.7362 332.452 24.4063 326.291C24.9501 324.316 24.6864 323.18 22.948 321.785C8.70254 310.385 2.12772 295.471 0.372791 278.437C-1.12673 263.873 2.20187 249.683 4.9455 235.47C7.68913 221.257 10.1526 207.258 10.1197 192.855C10.1197 187.265 9.55116 181.699 7.45019 176.4C6.87345 174.951 6.5686 173.693 8.09284 172.694C17.7161 166.366 23.9943 157.444 29.9183 148.294C38.5528 134.951 45.3172 120.639 53.0207 106.8C58.7964 96.5212 65.5442 86.8756 75.2581 79.3041Z" fill="url(#paint0_linear_317_16619)" fill-opacity="0.28"/>
<path d="M322.407 16.7643C321.789 18.2054 320.537 18.4876 319.07 18.2893C302.287 15.8265 285.438 13.3789 270.294 5.70817C266.48 3.77906 264.14 3.62656 260.3 5.75392C248.766 12.1741 235.583 14.3701 222.516 16.7338C205.724 19.7838 188.554 20.6683 171.886 24.3588C168.171 25.1823 164.529 26.265 160.854 27.2257L159.322 26.0439C170.214 21.5375 181.946 20.47 193.547 18.9146C212.242 16.406 231.043 14.3777 248.98 8.4684C254.022 6.80616 258.867 4.79318 263.085 1.60595C264.14 0.84346 264.898 0.462213 266.249 1.32383C279.366 9.71126 294.624 12.319 309.834 15.0487C313.986 15.7655 318.213 16.1925 322.407 16.7643Z" fill="url(#paint1_linear_317_16619)" fill-opacity="0.28"/>
<path d="M463.411 90.5656C455.394 81.9265 446.496 74.355 434.978 69.8029C428.485 67.2409 421.795 65.5024 414.709 65.3576C412.37 65.3118 411.48 64.5417 410.639 62.6126C401.931 42.7496 385.238 31.5562 363.561 25.7155C351.886 22.5664 339.882 21.2931 327.952 19.5165C327.128 19.3868 325.183 20.279 325.348 18.1745C332.104 17.412 338.605 19.1733 345.171 20.0731C351.307 20.9789 357.377 22.2318 363.347 23.8246C385.222 29.3755 402.071 40.5155 411.587 59.9667C412.839 62.5287 414.232 63.4208 417.165 63.7182C437.095 65.7159 452.436 75.0489 464.432 89.5515L463.411 90.5656Z" fill="url(#paint2_linear_317_16619)" fill-opacity="0.28"/>
<path d="M463.411 90.5664L464.466 89.5523C472.631 98.3896 477.747 108.882 483.144 119.213C491.383 135.012 499.762 150.75 511.396 164.749L510.391 165.756C501.871 156.736 495.832 146.251 489.933 135.714C485.286 127.433 481.01 119 476.561 110.612C472.812 103.591 468.412 96.8839 463.411 90.5664Z" fill="url(#paint3_linear_317_16619)" fill-opacity="0.28"/>
<path d="M159.322 26.0214L160.854 27.2032C149.698 31.4122 139.433 36.8869 131.309 45.3201C126.461 50.3401 122.616 56.1183 119.955 62.3847C119.444 63.5665 119.321 64.8628 117.385 64.7713C112.968 64.5578 108.717 65.7549 104.367 66.2048L103.18 65.122C106.748 63.6885 110.596 63.3988 114.353 63.2082C116.478 63.1014 117.319 62.4457 118.134 60.6538C126.184 43.3605 140.57 32.4492 159.322 26.0214Z" fill="url(#paint4_linear_317_16619)" fill-opacity="0.28"/>
<path d="M103.181 65.1218L104.367 66.2046C95.1227 69.1249 86.3975 72.9298 78.9246 78.9001C77.8947 79.716 76.5023 80.6157 76.4529 78.1376C84.28 71.8623 92.8817 67.0052 103.181 65.1218Z" fill="url(#paint5_linear_317_16619)" fill-opacity="0.28"/>
<path d="M510.391 165.755L511.396 164.749L521.283 173.251L520.162 174.295C516.3 172.107 512.972 169.199 510.391 165.755Z" fill="url(#paint6_linear_317_16619)" fill-opacity="0.28"/>
<path d="M303.663 485.759C288.462 485.683 277.298 482.663 267.617 475.458C266.298 474.482 265.079 473.101 262.846 474.748C245.717 487.391 226.594 487.574 206.656 482.16C193.844 478.675 182.573 472.164 170.84 466.544C154.972 458.919 139.293 450.623 121.562 447.482C114.147 446.178 110.587 443.006 107.02 437.318C97.9981 422.929 84.7743 411.713 72.0366 400.161C61.9767 391.011 51.3317 382.365 43.587 371.27C36.1718 360.596 31.8215 349.12 32.4971 336.241C32.7259 331.704 33.7412 327.229 35.5044 322.989C36.4766 320.648 36.2459 319.223 33.8566 317.713C18.3423 308.098 12.0477 293.839 10.2268 277.209C8.7932 264.163 11.6192 251.582 14.0333 238.924C17.4525 221.006 21.3249 203.019 19.0509 184.787C18.227 178.245 20.4598 174.562 24.7688 170.109C35.8999 158.588 43.1503 144.718 50.5655 131.009C58.0878 117.108 64.4484 102.591 75.8843 90.7872C85.0709 81.317 95.8642 74.3555 109.665 71.9384C113.628 71.2369 117.591 71.6791 121.554 71.5495C123.111 71.4961 124.264 71.5495 124.849 69.6204C131.507 47.8817 149.048 37.2068 170.988 31.2212C181.699 28.2856 192.929 27.4088 203.945 25.8838C224.394 22.9939 245.099 20.9886 263.687 11.526C265.227 10.7635 266.216 11.1753 267.411 11.77C280.981 18.4571 295.819 21.1411 310.732 23.6039C328.858 26.6005 347.413 27.1876 364.937 32.8072C381.473 38.1447 395.9 46.4482 402.582 62.1861C405.441 68.9189 408.234 71.641 416.654 72.1595C437.45 73.4252 451.415 85.6099 462.431 100.898C470.192 111.657 475.424 123.696 481.71 135.21C488.202 147.082 494.786 158.901 504.013 169.233C504.186 169.431 504.302 169.698 504.516 169.827C512.689 174.669 512.401 181.882 510.909 189.416C509.608 196.004 510.91 202.569 511.56 209.065C513.299 226.381 518.111 243.316 519.964 260.602C521.612 275.593 520.22 290.439 511.404 303.836C507.566 309.723 502.321 314.718 496.071 318.437C494.234 319.535 493.368 320.687 494.159 322.799C501.533 342.624 495.618 360.039 482.748 376.112C475.284 385.43 465.891 393.078 456.943 401.114C444.848 411.972 432.111 422.464 423.682 436.136C419.299 443.242 414.306 446.811 405.556 448.511C387.521 452.026 371.677 460.886 355.479 468.71C343.4 474.543 331.585 480.909 318.048 483.654C312.38 484.829 306.645 485.85 303.663 485.759ZM300.656 479.659C306.308 479.811 311.77 478.774 317.233 477.593C330.044 474.809 341.241 468.664 352.727 463.105C369.675 454.946 386.375 446.163 405.16 442.114C410.928 440.871 414.355 438.568 417.338 433.848C426.129 419.902 438.924 409.014 451.192 397.767C459.753 389.921 468.948 382.609 476.363 373.764C489.01 358.674 495.206 342.204 487.387 323.287C485.739 319.307 486.266 316.92 490.468 314.541C507.111 305.117 513.159 290.385 513.768 273.122C514.444 254.144 508.133 235.996 506.015 217.346C504.854 207.06 503.189 196.82 504.467 186.381C504.788 183.773 506.436 180.639 503.774 178.123C494.563 169.423 487.922 159.061 481.685 148.508C473.85 135.195 467.679 121.058 459.39 107.981C452.123 96.544 442.838 86.9214 429.416 81.2942C421.729 78.0536 413.655 77.3368 405.416 77.7562C402.384 77.9087 401.041 76.9937 400.291 74.2869C399.372 70.7364 398.092 67.2745 396.468 63.9474C389.234 49.9176 376.142 42.5976 360.834 38.0227C344.397 33.1503 327.095 32.4565 310.246 29.7115C295.737 27.3478 281.302 24.7553 267.897 18.8078C267.141 18.4102 266.283 18.2075 265.414 18.2209C264.544 18.2343 263.695 18.4633 262.953 18.8841C257.085 21.5452 250.933 23.633 244.597 25.1137C224.444 30.23 203.574 31.5262 183.116 35.0261C157.699 39.357 136.977 49.2466 129.966 74.7367C129.331 77.0242 128.046 77.5961 125.632 77.5732C120.581 77.5275 115.498 77.1538 110.48 78.0765C95.1473 80.9053 84.3624 89.8189 75.5547 101.05C66.1951 112.991 60.436 126.777 53.1773 139.785C45.6468 153.312 37.8361 166.648 26.3672 177.78C25.9503 178.099 25.6296 178.513 25.4361 178.98C25.2427 179.448 25.1831 179.954 25.2632 180.449C26.3248 187.321 26.601 194.278 26.0871 201.204C25.3621 214.22 22.9398 226.991 20.5999 239.786C18.4659 251.445 15.7635 262.996 16.6698 274.998C17.9304 291.62 24.4887 305.368 40.2337 314.449C43.6694 316.44 44.4933 318.491 42.8455 322.128C35.8752 337.614 38.833 352.231 47.9702 366.185C55.7479 378.064 67.0273 387.046 77.5486 396.639C91.6128 409.456 105.899 422.083 115.449 438.378C115.797 438.983 116.304 439.498 116.923 439.877C117.542 440.255 118.253 440.484 118.991 440.543C131.886 442.64 143.849 447.23 155.474 452.537C170.156 459.239 184.575 466.453 199.29 473.071C209.156 477.513 220.025 479.712 230.994 479.484C242.43 479.278 252.556 475.198 261.24 468.351C263.909 466.239 265.763 466.224 268.449 468.351C277.66 475.694 288.289 479.88 300.656 479.659Z" fill="url(#paint7_linear_317_16619)" fill-opacity="0.28"/>
<path d="M420.576 168.5C420.922 177.452 424.102 185.275 427.167 193.137C430.677 202.165 435.406 210.804 436.799 220.503C438.002 229.05 436.897 237.178 432.275 244.757C431.451 246.084 430.627 247.152 431.666 248.883C438.372 260.122 437.639 271.757 433.396 283.469C429.96 292.939 425.157 301.952 422.149 311.575C420.502 316.912 418.854 322.311 419.571 327.984C419.642 328.222 419.661 328.471 419.627 328.717C419.592 328.962 419.505 329.198 419.369 329.412C419.234 329.625 419.054 329.811 418.839 329.959C418.625 330.106 418.38 330.213 418.121 330.271C411.933 332.559 407.583 336.973 403.158 341.312C395.15 349.166 389.003 358.453 380.847 366.185C372.286 374.305 362.243 379.467 349.621 379.368C348.335 379.368 347.256 379.505 346.547 380.756C338.382 395.106 324.302 400.1 308.005 401.869C298.733 402.755 289.54 404.243 280.494 406.322C274.884 407.687 269.545 409.563 264.84 412.735C260.165 409.88 255.012 407.759 249.589 406.459C238.673 403.875 227.434 403.082 216.386 401.29C202.017 398.956 189.749 393.512 182.408 381.076C182.173 380.629 181.792 380.262 181.318 380.028C180.844 379.794 180.303 379.704 179.771 379.772C165.048 379.719 153.999 372.963 144.78 363.081C137.266 355.022 130.699 346.222 122.41 338.758C118.546 335.273 112.26 333.42 110.052 329.867C107.844 326.314 109.335 320.397 107.893 315.639C104.976 305.986 100.478 296.874 96.4984 287.587C92.1976 277.59 90.3191 267.419 93.417 256.767C94.5293 252.954 98.3028 249.691 98.1792 246.092C98.0556 242.607 95.1307 239.161 94.3563 235.417C92.4942 226.427 94.1173 217.78 97.3471 209.279C101.203 199.145 105.973 189.301 108.478 178.741C109.516 174.379 108.198 169.24 110.019 165.778C111.708 162.584 117.434 161.203 120.787 158.092C128.293 151.161 134.44 143.224 140.775 135.416C146.353 128.553 152.599 122.4 160.97 118.405C166.429 115.697 172.539 114.31 178.733 114.371C180.381 114.371 181.872 114.508 182.935 112.8C190.943 100.013 204.027 94.9961 218.948 92.8383C229.659 91.3133 240.436 90.3983 250.891 87.6381C255.258 86.4867 259.509 85.1066 263.25 82.6819C264.074 82.1252 264.799 81.3475 266.068 82.2396C275.238 88.6522 286.352 89.4452 297.088 91.2294C305.566 92.64 314.242 93.067 322.489 95.6671C332.269 98.7171 340.417 103.788 345.88 112.084C346.646 113.25 347.347 113.921 349.069 113.822C363.075 112.96 373.984 118.702 383.154 127.791C391.393 135.95 397.737 145.572 406.058 153.716C409.931 157.528 413.886 161.28 419.101 163.43C422.545 164.802 420.007 167.151 420.576 168.5ZM362.976 250.148V249.386H302.559C300.532 249.386 298.563 248.966 298.258 251.963C297.434 260.228 292.977 266.794 286.006 271.856C284.21 273.16 284.004 274.052 285.141 275.837C305.701 308.299 326.208 340.781 346.663 373.283C347.005 373.957 347.569 374.513 348.273 374.873C348.977 375.234 349.786 375.379 350.585 375.289C358.163 375.034 365.502 372.759 371.718 368.739C377.601 365.041 381.86 359.894 386.136 354.778C392.258 347.45 398.413 340.153 405.696 333.756C408.489 331.3 412.889 330.035 414.578 327.297C416.357 324.408 415.517 320.176 416.407 316.569C419.192 305.269 424.465 294.808 428.98 284.094C433.495 273.381 433.182 263.134 428.032 252.779C426.994 250.697 425.733 250.095 423.369 250.103C403.232 250.217 383.121 250.148 362.976 250.148ZM264.716 86.9137C264.115 87.1958 263.497 87.4627 262.904 87.7753C257.194 90.7033 250.982 92.3503 244.646 93.3796C235.624 94.9046 226.52 96.056 217.457 97.4285C204.966 99.3271 194.857 104.794 187.565 114.531C186.321 116.201 186.181 117.535 187.326 119.358C207.65 151.794 227.923 184.266 248.148 216.774C249.383 218.756 250.364 218.947 252.58 218.078C256.302 216.578 260.312 215.786 264.372 215.75C268.431 215.713 272.457 216.432 276.21 217.864C279.193 218.97 280.272 218.459 281.78 216.042C300.631 185.735 319.556 155.469 338.555 125.244C343.952 116.636 343.853 115.751 336.207 108.469L335.919 108.203C327.845 100.387 317.364 98.008 306.258 96.5669C292.466 94.7826 278.377 93.9363 265.796 87.4703C265.491 87.2721 265.128 87.1119 264.716 86.9137ZM166.004 249.958V249.386C145.867 249.386 125.731 249.454 105.603 249.317C102.497 249.317 101.005 250.263 99.8353 252.84C95.2379 263.088 95.4026 273.214 99.7447 283.5C104.21 294.091 109.343 304.453 112.515 315.524C113.718 319.726 112.515 324.804 114.814 328.022C117.22 331.422 122.336 333.283 125.723 336.447C134.126 344.309 141.023 353.344 148.578 361.861C154.222 368.228 161.184 372.696 169.827 374.824C179.812 377.279 180.9 376.859 186.041 368.724L186.667 367.748C205.584 337.639 224.526 307.534 243.492 277.43C244.943 275.143 245.313 273.847 242.561 271.963C235.871 267.388 232.155 260.892 231.027 253.351C230.598 250.591 229.807 249.866 226.833 249.889C206.548 250.019 186.28 249.958 166.004 249.958ZM361.979 245.573V245.756C381.844 245.756 401.708 245.756 421.573 245.81C424.044 245.81 425.486 245.2 426.796 243.164C433.511 232.786 433.659 222.127 429.046 211.086C424.432 200.045 418.145 189.301 416.366 177.536C415.245 170.125 412.246 165.336 405.902 160.845C397.514 154.837 391.706 146.449 385.123 138.824C380.6 133.586 376.183 128.218 370.185 124.261C364.558 120.54 358.354 118.557 351.334 118.923C349.052 119.053 347.709 119.96 346.539 121.821C326.249 154.115 305.887 186.371 285.454 218.589C284.202 220.571 284.037 221.639 286.278 223.164C289.649 225.473 292.457 228.412 294.521 231.791C296.585 235.169 297.858 238.912 298.258 242.775C298.579 245.55 300.161 245.566 302.377 245.558C322.25 245.517 342.117 245.522 361.979 245.573ZM343.573 378.11C343.169 377.347 342.856 376.646 342.452 376.005C321.959 343.371 301.474 310.731 280.997 278.086C280 276.5 279.234 276.027 277.207 276.836C273.312 278.438 269.101 279.277 264.838 279.3C260.576 279.322 256.354 278.527 252.44 276.965C250.125 276.073 249.194 276.477 248.016 278.406C228.028 311.158 207.979 343.874 187.87 376.554C186.618 378.59 186.972 379.932 188.356 381.64C194.921 389.932 204.701 395.548 215.644 397.31C227.871 399.483 240.362 400.123 252.415 403.364C256.469 404.454 273.013 404.469 277.034 403.409C287.621 400.611 298.538 399.597 309.364 398.072C322.547 396.28 333.604 391.126 341.612 381.015C342.329 380.115 342.914 379.124 343.573 378.11ZM166.811 244.346V245.291C186.956 245.291 207.109 245.291 227.253 245.345C229.725 245.345 230.615 244.933 230.977 242.378C231.454 238.586 232.766 234.924 234.832 231.619C236.898 228.314 239.675 225.436 242.99 223.164C245.157 221.639 245.14 220.579 243.888 218.589C223.565 186.3 203.269 153.978 183.001 121.622C181.913 119.884 180.809 119.167 178.478 119.335C168.669 119.922 159.407 123.723 152.351 130.056C147.408 134.341 143.634 139.503 139.457 144.36C133.574 151.222 127.964 158.42 120.161 163.468C115.86 166.251 113.265 169.019 113.693 174.021C113.842 175.714 113.01 177.483 112.573 179.206C109.755 190.232 104.375 200.396 100.214 210.979C96.0535 221.562 96.0947 231.803 101.944 241.86C102.941 243.591 104.045 244.422 106.361 244.414C126.53 244.308 146.658 244.346 166.811 244.346ZM235.707 247.594C235.707 262.348 248.93 274.594 264.7 274.464C270.454 274.478 276.082 272.911 280.873 269.962C285.663 267.013 289.4 262.815 291.611 257.898C293.821 252.982 294.406 247.57 293.29 242.346C292.174 237.123 289.408 232.323 285.343 228.555C281.277 224.788 276.095 222.221 270.452 221.181C264.809 220.141 258.96 220.674 253.645 222.713C248.33 224.751 243.788 228.204 240.594 232.633C237.401 237.063 235.7 242.269 235.707 247.594Z" fill="url(#paint8_linear_317_16619)" fill-opacity="0.28"/>
<path d="M158.605 85.7167C158.605 81.1418 157.188 78.0079 156.241 74.8131C155.557 72.5256 156.578 71.7173 158.383 70.6498C160.319 69.5061 161.25 70.2839 162.453 71.5267C164.99 74.1344 167.66 76.6431 171.112 80.0133C170.7 75.7738 169.365 72.8306 168.253 69.9026C167.141 66.9746 167.429 65.015 171.392 64.405C173.328 70.7871 175.256 77.2302 177.25 83.658C177.827 85.5108 176.476 86.0141 175.207 86.8223C173.683 87.7907 172.735 87.257 171.722 86.2276C169.184 83.7342 166.597 81.3019 164.01 78.8619C163.285 78.1833 162.766 77.0853 161.308 77.5504C162.379 81.3629 163.334 85.2287 164.603 88.9878C165.271 91.0161 164.933 92.1217 162.84 93.2883C160.747 94.4549 159.948 93.2349 158.852 92.1293C154.782 88.0271 150.679 83.9554 146.65 79.8226C145.975 79.1288 144.178 78.2977 146.049 77.1768C147.276 76.4143 148.595 75.1333 150.234 76.9709C152.665 79.7388 155.326 82.3312 158.605 85.7167ZM158.778 85.7167C158.869 85.6252 159.034 85.5337 159.042 85.4422C159.05 85.3507 158.885 85.244 158.795 85.1525L158.498 85.5566L158.778 85.7167Z" fill="url(#paint9_linear_317_16619)" fill-opacity="0.28"/>
<path d="M64.2011 195.554C67.3237 196.454 70.4299 197.43 73.5855 198.238C75.2333 198.657 75.81 199.313 75.3074 200.922C74.7637 202.66 73.742 202.63 72.226 202.165C66.6481 200.449 61.0455 198.81 55.4677 197.109C54.1576 196.713 51.9825 196.652 53.0865 194.57C53.9681 192.923 52.9959 189.851 56.7694 190.102C60.7901 190.369 64.8191 190.453 69.6637 190.651C66.2362 187.601 62.7757 185.901 59.4471 184.132C55.7643 182.172 58.3266 180.014 58.8375 178.032C59.5378 175.34 61.5152 177.193 62.751 177.529C68.1229 178.993 73.4619 180.67 78.7679 182.226C80.3086 182.675 81.5774 183.041 80.8688 185.054C80.1603 187.067 78.9656 186.74 77.4414 186.191C74.1952 185.016 70.7924 184.528 66.2609 183.812C70.0097 185.954 72.7863 187.487 75.4969 189.149C76.9717 190.034 78.9903 190.361 78.1005 193.045C77.2107 195.729 75.2086 194.639 73.536 194.791C72.9907 194.774 72.4516 194.679 71.9376 194.509C71.0396 193.693 70.0344 193.945 69.0292 194.281L64.852 194.098C63.5337 193.8 62.199 193.427 60.8148 194.288C61.2164 194.748 61.7381 195.106 62.3306 195.327C62.9232 195.549 63.5669 195.627 64.2011 195.554Z" fill="url(#paint10_linear_317_16619)" fill-opacity="0.28"/>
<path d="M415.764 410.272C412.139 408.747 409.346 404.53 405.803 404.934C402.548 405.277 399.698 408.823 396.246 411.255C396.246 407.992 397.523 405.407 398.421 402.792C399.146 400.649 398.759 399.269 396.542 398.102C394.07 396.806 391.904 395.152 388.542 392.963C392.876 392.788 395.957 392.521 398.989 392.59C401.041 392.643 401.865 391.911 402.326 390.157C403.101 387.252 404.13 384.4 405.317 380.679C406.652 384.21 407.789 386.833 408.612 389.547C409.23 391.621 410.351 392.338 412.674 392.163C415.5 391.941 418.351 392.109 421.696 392.109C419.744 394.801 416.959 396.15 414.602 397.851C412.954 399.056 412.633 400.062 413.276 401.984C414.199 404.744 416.398 407.237 415.706 410.371L415.764 410.272Z" fill="url(#paint11_linear_317_16619)" fill-opacity="0.28"/>
<path d="M142.333 411.286C138.436 408.9 135.56 405.949 132.24 405.423C128.713 404.881 126.472 409.06 123.325 410.646C122.838 410.806 122.326 410.896 121.809 410.913C121.718 410.569 121.57 410.348 121.636 410.203C125.599 401 125.599 401 117.302 395.457C116.668 395.03 116.099 394.527 114.732 393.467C118.464 393.284 121.323 392.979 124.231 393.063C126.588 393.131 127.634 392.414 128.104 390.226C128.713 387.405 129.818 384.675 130.798 381.618C132.66 384.294 133.36 387.161 134.258 389.875C135 392.117 136.162 392.925 138.633 392.704C141.459 392.498 144.31 392.658 147.878 392.658C145.192 394.679 142.934 396.578 140.462 398.194C138.543 399.445 138.205 400.726 139.095 402.7C140.24 405.232 141.064 407.885 142.333 411.286Z" fill="url(#paint12_linear_317_16619)" fill-opacity="0.28"/>
<path d="M459.926 308.692C463.708 309.79 467.201 310.904 470.752 311.796C472.507 312.238 472.894 312.955 472.4 314.518C471.906 316.081 470.901 316.218 469.368 315.768C463.889 314.16 458.352 312.718 452.89 311.033C451.712 310.675 449.388 311.11 449.85 308.845C450.171 307.251 450.674 305.719 452.915 305.284C456.26 304.636 459.506 303.759 462.851 302.89C463.98 302.608 465.323 302.646 466.303 301.304C463.073 300.358 459.959 299.489 456.878 298.536C455.395 298.071 453.121 298.414 454.134 295.555C455.048 292.977 456.606 294.236 457.949 294.602C463.348 296.05 468.72 297.575 474.064 299.177C475.226 299.512 477.138 299.36 476.66 301.342C476.305 302.791 475.992 304.209 473.858 304.613C470.241 305.292 466.69 306.275 463.148 307.183C462.109 307.404 460.89 307.289 459.926 308.692Z" fill="url(#paint13_linear_317_16619)" fill-opacity="0.28"/>
<path d="M470.069 210.438C466.773 210.972 463.568 211.49 460.396 211.963C458.748 212.214 456.968 213.107 456.408 210.438C455.848 207.769 458.056 208.227 459.391 207.983C464.754 207.014 470.151 206.16 475.556 205.39C476.718 205.222 478.374 203.941 479.099 205.764C479.749 207.403 479.972 209.103 478.019 210.529C475.119 212.634 472.441 215.005 469.698 217.3C469.138 217.773 468.239 218.063 468.33 219.321C471.972 219.55 475.407 218.337 478.942 217.933C480.367 217.773 481.463 217.407 481.842 219.382C482.221 221.357 481.348 221.776 479.585 222.051C473.924 222.912 468.281 223.911 462.612 224.773C461.459 224.948 459.885 226.069 459.185 224.117C458.616 222.539 458.204 221.067 460.009 219.695C462.571 217.804 464.952 215.737 467.374 213.648C468.338 212.786 469.764 212.291 470.069 210.438Z" fill="url(#paint14_linear_317_16619)" fill-opacity="0.28"/>
<path d="M425.321 367.885C428.197 369.952 431.014 372.079 433.956 374.054C435.414 375.038 435.439 375.823 434.425 377.104C433.247 378.629 432.333 378.141 431.13 377.249C426.491 373.894 421.778 370.638 417.173 367.245C416.349 366.642 414.512 366.238 415.418 364.736C416.242 363.371 417.066 361.846 419.414 362.128C423.962 362.67 428.543 362.975 433.956 363.455C431.072 360.329 428.04 358.674 425.297 356.715C423.896 355.716 423.327 354.946 424.646 353.375C425.964 351.804 426.771 352.513 427.941 353.337C432.481 356.608 437.078 359.795 441.585 363.097C442.516 363.783 444.502 364.141 443.596 365.857C442.821 367.344 441.783 368.564 439.476 368.274C434.895 367.687 430.281 367.359 425.684 366.925C425.552 367.26 425.437 367.573 425.321 367.885Z" fill="url(#paint15_linear_317_16619)" fill-opacity="0.28"/>
<path d="M58.8209 262.6C60.4367 260.515 62.4805 258.746 64.8355 257.392C65.8572 256.805 66.9941 254.746 68.024 256.05C69.0539 257.354 69.5977 259.603 67.4555 261.144C65.6182 262.455 63.8468 263.858 62.0589 265.238C60.6253 266.344 59.3977 267.716 60.0733 269.47C60.8972 271.59 62.9158 269.905 64.3164 270.271C66.2444 270.766 69.4824 268.044 69.9602 272.246C70.1333 273.694 69.7378 274.297 68.1147 274.426C61.842 274.909 55.5802 275.445 49.3295 276.035C47.5169 276.21 46.8578 275.524 46.7424 273.976C46.5447 271.201 46.2728 268.425 46.0833 265.65C45.8526 262.409 46.3305 259.474 50.3264 258.368C54.3224 257.263 56.8518 258.909 58.8209 262.6ZM49.9392 266.923C50.6972 268.631 48.9505 272.146 53.8775 271.369C58.3348 270.66 55.7725 268.029 55.789 266.229C55.789 264.285 55.2122 262.234 52.3615 262.608C49.8486 262.913 49.8568 264.857 49.9392 266.923Z" fill="url(#paint16_linear_317_16619)" fill-opacity="0.28"/>
<path d="M447.732 155.66C444.552 157.093 441.355 158.496 438.216 159.991C436.947 160.593 436.082 160.86 435.299 159.335C434.607 157.97 434.418 157.147 436.123 156.339C441.256 153.96 446.274 151.375 451.415 149.003C452.552 148.485 453.771 146.716 455.254 148.294C456.737 149.873 456.976 151.428 455.526 153.403C453.054 156.735 451.019 160.326 448.441 164.368C452.651 163.658 455.526 161.447 458.772 160.06C460.14 159.472 461.244 158.535 462.34 160.57C463.32 162.385 462.488 162.987 460.948 163.712C455.823 166.114 450.78 168.66 445.631 171.009C444.651 171.451 443.472 173.19 442.179 171.436C441.223 170.124 440.185 168.843 441.479 166.991C443.95 163.483 446.051 159.8 448.309 156.194C448.366 155.904 448.424 155.614 448.49 155.324L447.732 155.66Z" fill="url(#paint17_linear_317_16619)" fill-opacity="0.28"/>
<path d="M334.387 435.754C337.849 437.46 340.959 439.719 343.573 442.426C340.549 444.53 338.012 444.134 335.491 441.854C333.972 440.574 332.316 439.442 330.547 438.476C329.962 438.127 329.273 437.955 328.578 437.985C327.882 438.015 327.214 438.246 326.666 438.644C325.529 439.46 326.568 440.482 326.839 441.389C327.121 442.624 327.521 443.834 328.034 445.003C328.957 446.765 328.232 447.42 326.444 447.969C324.656 448.518 324.071 448.084 323.552 446.498C321.772 441.064 319.886 435.658 317.892 430.279C317.257 428.564 317.62 427.779 319.54 427.298C322.308 426.597 325.002 425.659 327.779 424.896C331.074 423.966 334.312 423.692 336.562 426.848C338.547 429.723 337.995 432.109 334.387 435.754ZM332.862 431.362C332.714 429.456 331.923 428.045 330.176 428.35C327.705 428.785 324.409 428.45 323.321 431.118C322.984 431.949 323.181 435.342 325.686 434.931C328.355 434.542 331.791 434.336 332.862 431.362Z" fill="url(#paint18_linear_317_16619)" fill-opacity="0.28"/>
<path d="M477.92 247.053C476.61 245.017 476.034 243.241 478.563 241.472C480.211 240.305 480.079 238.315 479.568 236.523C479.3 235.395 478.643 234.377 477.697 233.624C476.75 232.87 475.565 232.421 474.32 232.345C470.843 231.963 467.325 232.108 465.076 235.112C463.428 237.278 463.749 239.687 465.034 241.975C465.652 243.088 466.427 243.851 467.902 243.568C469.5 243.263 469.096 242.104 469.047 241.144C468.981 239.901 468.462 238.635 470.695 238.437C473.273 238.216 472.639 239.962 472.936 241.136C472.948 241.263 472.948 241.39 472.936 241.517C473.488 247.663 471.288 249.478 464.697 248.128C464.195 248.006 463.732 247.776 463.345 247.457C459.547 244.407 458.822 235.821 462.002 231.902C465.487 227.602 473.619 226.321 478.777 229.272C483.49 231.971 485.368 238.658 482.773 243.424C482.318 244.332 481.644 245.131 480.803 245.761C479.962 246.39 478.975 246.832 477.92 247.053Z" fill="url(#paint19_linear_317_16619)" fill-opacity="0.28"/>
<path d="M441.931 328.159C442.104 323.294 443.892 319.108 448.786 316.844C453.441 314.693 457.948 315.982 461.903 318.674C468.494 323.142 467.522 333.451 460.329 336.546C458.756 337.217 456.416 338.186 455.559 336.607C454.702 335.029 455.559 333.039 458.294 332.52C460.7 332.063 461.672 330.126 462.051 327.991C462.504 325.414 461.277 323.5 459.019 322.227C456.169 320.61 453.128 319.306 449.767 321.03C447.221 322.333 446.471 324.575 446.298 327.13C446.203 327.698 446.339 328.279 446.677 328.762C447.016 329.244 447.535 329.594 448.135 329.745C449.857 330.279 449.701 328.769 450.286 328.09C450.994 327.267 450.706 325.414 452.964 326.291C455.081 327.107 454.686 328.22 453.878 329.585C453.755 329.806 453.689 330.058 453.582 330.294C450.929 335.952 448.968 336.394 443.332 332.673C441.429 331.415 442.286 329.699 441.931 328.159Z" fill="url(#paint20_linear_317_16619)" fill-opacity="0.28"/>
<path d="M288.149 61.1262C288.585 56.6732 288.923 53.2268 289.277 49.7803C289.426 48.3925 289.352 46.9667 291.708 47.1344C293.908 47.2946 293.932 48.3544 293.743 49.9557C293.142 55.1101 292.771 60.2874 292.095 65.4343C291.947 66.5856 292.763 68.5529 290.373 68.6901C288.371 68.8121 286.806 68.286 285.85 66.273C283.999 62.3693 281.763 58.6324 279.168 55.1101C278.778 58.4803 278.393 61.8531 278.014 65.2284C277.874 66.5094 277.899 67.6531 275.749 67.5159C273.598 67.3786 273.442 66.3569 273.623 64.7709C274.208 59.4868 274.686 54.1951 275.271 48.911C275.394 47.7597 274.917 46.0669 276.919 45.9907C278.665 45.9297 280.272 46.1279 281.203 48.1104C283.189 52.2126 285.496 56.1776 288.149 61.1262Z" fill="url(#paint21_linear_317_16619)" fill-opacity="0.28"/>
<path d="M215.323 450.639C210.248 450.478 205.815 449.182 203.64 444.729C201.465 440.276 202.289 435.732 205.527 431.828C210.133 426.284 221.511 427.39 224.263 433.597C224.699 434.58 226.092 436.136 224.048 436.731C222.747 437.104 220.843 437.493 219.929 435.427C218.347 431.874 215.109 431.485 211.69 432.552C208.435 433.566 206.351 439.3 207.743 442.846C209.045 446.147 211.929 446.948 215.373 446.59C216.749 446.452 218.182 446.208 218.33 444.523C218.487 442.709 216.782 443.128 215.76 442.762C214.738 442.396 213.288 442.404 213.815 440.589C214.302 438.904 215.241 438.652 216.782 439.155C217.052 439.222 217.328 439.273 217.605 439.308C224.716 440.726 225.358 441.801 222.376 448.046C220.959 450.982 217.803 450.25 215.323 450.639Z" fill="url(#paint22_linear_317_16619)" fill-opacity="0.28"/>
<path d="M433.132 120.303C433.198 125.808 429.013 130.772 423.855 132.678C419.365 134.333 416.16 133.441 412.32 129.438C406.619 123.506 406.619 123.506 413.144 118.168C416.226 115.667 419.29 113.159 422.388 110.68C423.047 110.154 423.896 108.98 424.728 109.918C427.974 113.547 432.555 116.384 433.132 120.303ZM428.757 121.195C428.576 118.984 426.854 117.009 424.794 115.705C423.196 114.699 422.207 116.895 421.045 117.741C418.804 119.381 416.786 121.287 414.536 122.911C413.062 123.971 413.103 124.832 414.298 125.961C416.069 127.654 417.461 129.933 420.675 129.148C423.888 128.363 428.518 123.971 428.757 121.195Z" fill="url(#paint23_linear_317_16619)" fill-opacity="0.28"/>
<path d="M56.185 237.582C56.8854 236.339 54.7597 233.831 57.8823 233.175C62.1749 232.268 66.1956 233.571 67.3737 236.164C69.5818 241.029 69.8455 245.832 65.9154 250.095C62.8422 253.427 56.4157 254.311 51.3899 252.382C44.3866 249.698 42.2444 239.633 47.8058 235.157C48.9017 234.281 50.5083 232.611 51.9089 234.136C52.7823 235.127 53.1283 236.965 51.1839 238.444C50.5403 238.914 50.0047 239.498 49.6089 240.163C49.213 240.827 48.9647 241.558 48.8787 242.313C48.7928 243.067 48.8708 243.83 49.1082 244.556C49.3456 245.283 49.7376 245.958 50.2611 246.541C52.601 249.187 59.2582 249.645 62.422 247.38C64.8361 245.649 65.4705 241.585 63.8309 239.069C63.6287 238.672 63.3021 238.341 62.8936 238.118C62.4852 237.895 62.0137 237.79 61.5405 237.819C60.4941 237.857 60.2716 238.49 60.0739 239.298C59.7526 240.64 60.8978 242.996 57.7093 242.554C54.5207 242.111 56.8112 239.908 56.2097 238.627C56.1463 238.282 56.138 237.93 56.185 237.582Z" fill="url(#paint24_linear_317_16619)" fill-opacity="0.28"/>
<path d="M188.975 420.68C195.525 420.741 200.864 425.461 200.707 431.05C200.518 437.859 195.484 443.151 189.238 443.113C182.771 443.067 177.473 438.644 177.423 433.246C177.358 426.635 182.911 420.627 188.975 420.68ZM189.675 424.683C185.901 424.683 182.26 428.862 182.26 433.307C182.25 434.837 182.883 436.31 184.025 437.415C185.168 438.521 186.73 439.172 188.381 439.232C192.287 439.323 196.118 434.87 196.011 430.364C195.983 428.834 195.3 427.376 194.112 426.311C192.924 425.246 191.329 424.661 189.675 424.683Z" fill="url(#paint25_linear_317_16619)" fill-opacity="0.28"/>
<path d="M474.444 257.163C476.915 262.379 485.154 264.155 482.37 271.902C480.104 269.615 478.044 267.655 476.198 265.558C474.839 264.033 473.677 263.804 471.774 264.895C467.968 267.068 463.98 268.974 459.976 271.048C458.979 267.198 460.206 264.864 463.996 263.759C465.177 263.42 466.291 262.905 467.292 262.234C468.38 261.471 470.925 261.593 470.316 259.885C470.056 259.025 469.526 258.255 468.792 257.674C468.059 257.093 467.155 256.726 466.196 256.622C464.969 256.546 463.724 256.462 462.505 256.469C460.618 256.469 460.684 255.371 460.857 254.182C461.03 252.992 460.907 251.894 462.826 252.016C469.236 252.474 475.646 252.855 482.056 253.236C483.614 253.328 484.166 253.999 484.092 255.425C484.017 256.851 483.556 257.826 481.686 257.666C479.321 257.415 477.047 257.316 474.444 257.163Z" fill="url(#paint26_linear_317_16619)" fill-opacity="0.28"/>
<path d="M99.3737 368.693C93.9853 366.169 86.463 369.898 83.2168 362.311C86.5124 362.669 89.3879 362.845 92.2304 363.348C94.4055 363.737 95.4189 363.203 96.111 361.205C97.4705 357.248 99.1512 353.39 100.766 349.326C104.136 351.705 105.026 354.236 102.801 357.477C102.202 358.472 101.732 359.529 101.401 360.626C100.989 361.777 99.4561 363.379 100.478 363.996C101.282 364.488 102.217 364.767 103.18 364.8C104.144 364.834 105.098 364.622 105.94 364.187C106.998 363.603 107.987 362.918 108.89 362.143C110.274 360.931 111.131 361.312 112.186 362.601C113.24 363.889 113.446 364.629 111.881 365.651C106.794 369.082 101.771 372.592 96.8113 376.181C95.3283 377.256 94.5868 376.981 93.5651 375.708C92.5435 374.435 92.3375 373.611 93.8947 372.612C95.7073 371.461 97.4375 370.096 99.3737 368.693Z" fill="url(#paint27_linear_317_16619)" fill-opacity="0.28"/>
<path d="M236.3 65.2818C238.978 64.9539 241.425 64.6794 243.864 64.3515C245.404 64.1457 246.846 63.7797 247.159 65.9604C247.472 68.1411 245.825 67.8056 244.589 67.9657C240.931 68.4614 237.174 68.6291 233.614 69.384C230.541 70.0321 229.495 69.1781 229.19 66.4026C228.641 61.36 227.929 56.3352 227.056 51.3281C226.693 49.2542 227.105 48.2782 229.528 48.0875C233.647 47.7139 237.676 47.1573 241.738 46.6083C242.99 46.4406 243.897 46.4101 244.02 47.8969C244.111 49.1093 244.267 50.1234 242.372 50.2835C239.653 50.5123 236.959 51.046 234.24 51.2824C231.975 51.4578 232.181 52.6396 232.304 54.1722C232.436 55.9031 233.178 56.2843 234.9 55.987C237.182 55.5829 239.513 55.4151 241.804 55.0491C243.196 54.828 244.103 54.8661 244.424 56.475C244.745 58.0838 244.078 58.5261 242.57 58.6786C240.263 58.915 237.973 59.3724 235.657 59.5021C233.342 59.6317 233.087 60.8212 233.449 62.552C233.812 64.2829 233.73 66.1053 236.3 65.2818Z" fill="url(#paint28_linear_317_16619)" fill-opacity="0.28"/>
<path d="M329.929 54.7819C327.194 56.3069 324.986 57.8319 322.629 58.8994C320.273 59.9669 319.638 61.3317 320.627 63.6802C322.151 67.3173 323.371 71.0688 324.804 75.0032C320.899 75.2091 318.37 74.2407 317.892 70.3825C317.75 69.1239 317.371 67.898 316.771 66.7607C316.153 65.6474 316.854 63.36 314.852 63.5887C313.883 63.6625 312.961 64.0045 312.206 64.5703C311.45 65.1361 310.896 65.8994 310.617 66.7607C310.267 67.7172 309.992 68.6957 309.793 69.6887C309.578 71.4653 308.557 71.6788 306.95 71.2823C305.344 70.8858 304.561 70.5198 305.105 68.7127C306.794 63.1236 308.293 57.4811 309.809 51.8463C310.213 50.3213 310.954 49.7418 312.709 50.2222C314.291 50.6492 315.066 51.2516 314.547 52.8909C313.896 54.9192 313.401 56.9855 312.792 59.2273C318.674 58.1216 322.151 50.8322 329.929 54.7819Z" fill="url(#paint29_linear_317_16619)" fill-opacity="0.28"/>
<path d="M141.765 105.511C140.385 105.544 139.03 105.173 137.892 104.451C136.994 103.872 135.206 103.414 136.376 101.996C137.134 101.073 137.958 99.3729 139.968 100.509C142.49 101.935 144.689 101.203 146.601 99.411C147.746 98.3283 148.249 96.9406 147.351 95.5986C146.453 94.2566 144.986 94.5616 143.635 95.0038C141.575 95.6748 139.573 96.5288 137.472 97.0626C134.588 97.8251 131.952 97.2456 130.271 94.7751C128.59 92.3046 129.043 89.7197 131.095 87.4323C133.995 84.184 138.378 82.5066 141.526 83.6198C142.679 84.0392 144.755 84.4585 144.088 85.9073C143.536 87.112 142.242 88.8658 139.927 87.7983C139.324 87.5086 138.641 87.3918 137.966 87.4628C137.087 87.6098 136.259 87.9486 135.549 88.4512C134.84 88.9538 134.271 89.6056 133.888 90.3526C133.645 90.6699 133.547 91.0631 133.614 91.447C133.682 91.8309 133.911 92.1746 134.25 92.4037C135.734 93.273 137.134 92.4723 138.535 92.0301C140.429 91.3088 142.376 90.7101 144.36 90.2382C145.535 90.0182 146.751 90.0887 147.887 90.4428C149.023 90.7968 150.037 91.4218 150.829 92.2548C151.62 93.0877 152.16 94.0991 152.394 95.1869C152.628 96.2746 152.548 97.4003 152.162 98.4503C150.984 101.904 145.62 105.526 141.765 105.511Z" fill="url(#paint30_linear_317_16619)" fill-opacity="0.28"/>
<path d="M80.4571 358.232C79.4932 358.308 79.3037 357.584 78.9823 357.081C76.7248 353.619 74.5085 350.127 72.2592 346.65C71.5507 345.567 71.254 344.759 72.77 343.859C74.5579 342.799 75.1347 343.737 75.8597 344.919C77.005 346.787 78.3314 348.579 79.3613 350.5C80.3336 352.3 81.2646 352.857 83.415 351.69C85.7466 350.417 84.5849 349.357 83.7363 348.06C82.5993 346.337 81.5529 344.553 80.383 342.845C79.4849 341.533 80.0122 340.862 81.2975 340.138C82.5828 339.414 83.2172 339.932 83.8352 340.946C84.7662 342.471 85.8126 343.996 86.7518 345.521C87.8229 347.275 88.3996 349.036 91.4811 347.306C94.4472 345.636 93.442 344.347 92.1814 342.54C90.9208 340.733 89.9568 339.055 88.7869 337.347C87.963 336.158 87.5263 335.243 89.2977 334.297C90.8879 333.451 91.4234 334.16 92.1155 335.258C94.3153 338.758 96.5811 342.22 98.8386 345.689C99.5142 346.726 100.05 347.633 98.4678 348.487C92.7911 351.537 87.1555 354.656 81.5035 357.752C81.1575 357.95 80.7455 358.087 80.4571 358.232Z" fill="url(#paint31_linear_317_16619)" fill-opacity="0.28"/>
<path d="M347.388 61.325C351.82 61.325 356.624 64.0852 357.456 67.2724C357.818 68.6678 358.379 70.7113 356.558 71.0849C356.12 71.1781 355.665 71.181 355.226 71.0935C354.787 71.006 354.373 70.8301 354.016 70.5784C353.658 70.3266 353.364 70.0052 353.156 69.6368C352.947 69.2684 352.829 68.8621 352.809 68.4467C352.611 66.0906 350.527 65.5187 348.442 65.1146C347.445 64.9163 346.481 65.0154 345.971 65.9533C345.75 66.3551 345.695 66.8176 345.817 67.2541C345.938 67.6906 346.227 68.0712 346.63 68.3247C348.376 69.7429 350.214 71.0696 351.936 72.5108C354.729 74.8516 355.388 77.65 353.509 80.7228C351.705 83.666 348.83 84.3523 345.402 83.6813C340.063 82.629 336.339 79.4494 336.339 75.6522C336.339 74.5695 335.886 72.7548 337.987 72.8691C339.289 72.9454 341.208 73.0445 341.06 75.1566C340.97 75.9276 341.137 76.7056 341.537 77.3868C341.938 78.0679 342.553 78.6199 343.301 78.9691C345.278 79.9679 347.536 80.9211 349.167 78.7327C350.799 76.5443 348.393 75.6827 347.058 74.5009C345.46 73.3109 343.936 72.038 342.494 70.6884C341.631 69.8536 341.085 68.7825 340.936 67.6359C340.788 66.4893 341.045 65.329 341.67 64.3292C342.168 63.3412 342.986 62.5213 344.011 61.983C345.035 61.4447 346.216 61.2147 347.388 61.325Z" fill="url(#paint32_linear_317_16619)" fill-opacity="0.28"/>
<path d="M269.776 45.129C269.481 45.6676 269.156 46.1919 268.803 46.6998C266.694 49.1397 262.509 51.046 262.673 53.8672C262.838 56.6884 266.126 59.136 267.93 61.8124C268.927 63.2687 270.443 64.4735 270.74 66.3416C267.197 67.3405 264.552 66.7 263.069 63.3679C262.643 62.4306 262.065 61.5589 261.355 60.783C260.292 59.624 260.029 56.8638 258.191 57.55C257.108 57.985 256.203 58.7298 255.61 59.6752C255.017 60.6206 254.766 61.717 254.896 62.8036C255.036 64.4659 256.362 67.1498 252.424 67.0126C251.073 66.9592 250.471 66.7381 250.447 65.3656C250.32 59.2657 250.139 53.1835 249.903 47.1191C249.837 45.3501 251.139 45.4721 252.375 45.3501C253.808 45.2129 254.731 45.5026 254.665 47.1268C254.574 49.3532 254.665 51.5797 254.665 54.4467C259.18 51.4577 260.869 46.9438 265.219 45.1976C266.381 44.7173 268.012 45.129 269.776 45.129Z" fill="url(#paint33_linear_317_16619)" fill-opacity="0.28"/>
<path d="M114.69 106.952C114.074 106.829 113.433 106.861 112.835 107.045C112.236 107.228 111.702 107.557 111.288 107.997C110.167 109.087 108.725 110.383 109.912 111.939C111.098 113.494 112.647 112.29 113.924 111.703C115.885 110.81 117.681 109.575 119.692 108.866C124.413 107.204 128.977 110.307 128.919 114.966C128.845 120.304 121.43 125.58 116.272 123.857C115.16 123.491 113.092 123.323 113.866 121.569C114.394 120.364 115.209 118.687 117.525 119.594C120.565 120.791 122.468 119.152 123.91 116.949C124.272 116.477 124.454 115.907 124.429 115.329C124.404 114.751 124.172 114.197 123.77 113.754C122.822 112.64 121.587 112.839 120.433 113.38C118.365 114.348 116.404 115.53 114.295 116.43C111.403 117.658 108.626 117.414 106.501 115.019C104.375 112.625 104.68 110.04 106.501 107.654C108.503 105.031 110.876 102.659 114.682 102.553C116.388 102.499 118.876 102.644 118.802 104.604C118.788 105.047 118.655 105.48 118.416 105.864C118.176 106.248 117.838 106.571 117.43 106.803C117.022 107.036 116.559 107.172 116.08 107.198C115.602 107.224 115.125 107.139 114.69 106.952Z" fill="url(#paint34_linear_317_16619)" fill-opacity="0.28"/>
<path d="M88.0205 142.636C86.1585 141.554 84.5518 140.448 82.7804 139.632C80.6218 138.633 80.5064 137.513 81.8412 135.782C82.6651 134.699 83.2912 134.661 84.4447 135.332C89.8743 138.504 95.3286 141.645 100.841 144.703C102.546 145.656 102.093 146.502 101.302 147.753C100.379 149.202 99.4976 149.407 98.0722 148.37C97.1165 147.669 95.8724 147.288 94.9661 146.54C92.3378 144.383 91.036 145.168 89.1575 147.738C86.8093 150.948 87.1966 152.511 90.8465 154.28C92.2884 154.974 96.2926 154.997 94.0762 158.519C93.2523 159.808 92.5932 160.387 90.9289 159.388C85.6559 156.232 80.2922 153.197 74.9121 150.193C73.2642 149.301 73.3878 148.454 74.2694 147.143C75.151 145.831 75.9172 145.275 77.392 146.38C78.1236 146.965 78.9602 147.427 79.8638 147.745C81.1408 148.172 82.2696 150.269 83.5796 148.996C85.3016 147.28 86.3892 145.008 88.0205 142.636Z" fill="url(#paint35_linear_317_16619)" fill-opacity="0.28"/>
<path d="M294.79 453.872C290.67 455.397 288.025 454.428 286.303 451.149C285.821 450.237 285.19 449.399 284.433 448.664C283.436 447.726 282.999 445.4 281.558 445.98C280.595 446.339 279.782 446.972 279.234 447.788C278.686 448.603 278.432 449.559 278.509 450.517C278.534 450.643 278.534 450.772 278.509 450.898C277.957 452.568 280.758 455.58 276.35 455.709C272.387 455.831 274.233 452.758 273.986 451.31C273.162 446.689 273.03 441.984 272.602 437.318C272.453 435.739 272.181 434.428 274.769 434.222C277.356 434.016 277.051 435.396 277.24 436.754C277.454 438.637 277.652 440.52 277.891 442.686C283.082 440.17 283.469 431.797 291.774 433.193C290.827 435.877 288.602 437.638 286.765 439.56C285.059 441.344 285.117 442.61 286.765 444.356C289.533 447.307 291.988 450.509 294.79 453.872Z" fill="url(#paint36_linear_317_16619)" fill-opacity="0.28"/>
<path d="M71.2949 300.138C75.2414 300.199 77.8862 302.661 79.2539 307.099C80.498 311.209 79.534 314.381 76.123 316.036C71.3773 318.323 66.096 319.383 61.0866 321.06C59.3482 321.648 59.0845 320.572 58.6149 319.406C58.1453 318.239 58.0382 317.301 59.6942 316.806C63.7314 315.601 67.7191 314.267 71.7563 313.054C74.7636 312.147 76.0159 310.393 75.0519 307.541C74.0879 304.69 71.7563 304.179 68.8726 305.132C64.8766 306.443 60.8312 307.618 56.8188 308.883C55.5417 309.288 54.759 309.105 54.4541 307.74C54.2234 306.71 52.9958 305.452 54.8414 304.888C60.3945 303.127 65.8159 300.954 71.2949 300.138Z" fill="url(#paint37_linear_317_16619)" fill-opacity="0.28"/>
<path d="M70.8583 211.193C71.5587 210.979 72.2755 211.193 72.1107 212.253C71.9129 213.549 72.432 215.676 70.5453 215.745C65.6018 215.928 65.8325 219.115 65.1734 222.249C64.6872 224.613 65.3464 225.886 67.6451 226.61C70.3063 227.449 69.9273 229.462 69.0787 230.934C67.9087 232.947 66.5493 230.934 65.5359 230.408C60.2628 227.754 55.0969 224.933 49.8816 222.18C48.4562 221.418 47.0061 220.876 47.5087 218.802C47.9371 217.041 48.5221 215.966 50.6807 215.547C57.3132 214.25 63.9292 212.702 70.8583 211.193ZM61.1609 223.339C61.1609 221.174 62.578 218.719 61.4575 218.231C59.2 217.255 56.5964 218.543 53.927 219.29C55.9455 221.174 58.3843 221.936 61.1609 223.339Z" fill="url(#paint38_linear_317_16619)" fill-opacity="0.28"/>
<path d="M69.9521 276.074C71.4516 278.727 71.7812 280.694 68.5926 282.28C65.0169 284.057 67.9747 286.771 67.9665 289.044C67.9665 290.691 68.6997 292.094 70.8584 291.987C74.3683 291.819 74.7225 293.962 74.8132 296.874C67.0519 295.708 59.406 294.587 51.7436 293.39C49.9393 293.108 50.2194 291.514 49.8322 290.34C49.3049 288.815 50.376 288.052 51.5953 287.336C57.6758 283.699 63.6821 279.955 69.9521 276.074ZM56.5471 289.684C57.8241 290.713 59.406 290.591 60.8479 290.652C61.8778 290.698 63.5338 291.811 63.8963 290.081C64.1427 288.831 63.8721 287.54 63.1383 286.466C62.0425 285.14 61.0127 286.733 60.0899 287.229C58.8375 287.908 57.3215 288.35 56.5471 289.684Z" fill="url(#paint39_linear_317_16619)" fill-opacity="0.28"/>
<path d="M456.886 283.012C457.075 275.791 460.7 272.894 468.421 273.954C472.211 274.464 475.959 275.25 479.741 275.806C481.479 276.066 481.949 276.79 481.71 278.384C481.471 279.977 480.738 280.503 478.983 280.183C474.954 279.421 470.884 278.933 466.855 278.185C463.667 277.591 461.804 278.727 461.162 281.579C460.519 284.43 462.126 285.81 465.026 286.283C469.071 286.939 473.084 287.755 477.146 288.311C479.222 288.601 479.411 289.569 479.205 291.194C478.967 293.123 477.706 293.016 476.272 292.764C471.84 292.002 467.374 291.308 462.983 290.355C458.591 289.402 456.77 287.137 456.886 283.012Z" fill="url(#paint40_linear_317_16619)" fill-opacity="0.28"/>
<path d="M103.494 144.444C99.7121 138.451 96.0786 132.541 92.2557 126.716C91.2093 125.115 91.5306 124.032 92.6676 122.652C93.8046 121.272 94.9416 121.218 96.5565 121.683C102.686 123.445 108.849 125.084 114.979 126.845C115.927 127.12 117.995 126.845 117.228 128.584C116.709 129.758 116.108 131.558 113.793 131.138C112.268 130.856 110.621 129.354 109.212 130.551C107.424 132.076 106.097 134.059 104.557 135.828C103.733 136.758 104.318 137.574 104.936 138.207C107.259 140.616 106.287 142.484 103.494 144.444ZM98.4185 126.8L97.9077 126.373L97.8088 127.288C98.7481 128.813 99.6791 130.338 100.643 131.824C101.039 132.442 101.525 133.349 102.398 132.434C103.271 131.519 104.606 130.269 104.746 129.072C104.886 127.875 102.975 127.959 101.92 127.615C100.866 127.272 99.5885 127.066 98.4185 126.8Z" fill="url(#paint41_linear_317_16619)" fill-opacity="0.28"/>
<path d="M383.945 423.928C381.572 426.215 379.611 426.902 377.147 424.568C374.371 421.938 372.608 425.262 370.432 425.933C368.785 426.436 366.956 427.207 367.87 429.479C369.081 432.475 366.972 433.535 364.031 434.549C362.918 427.39 361.699 420.344 360.784 413.261C360.504 411.095 364.163 409.334 366.058 410.683C372.056 414.999 377.938 419.475 383.945 423.928ZM366.717 423.051C368.455 423.165 369.411 422.09 370.63 421.602C371.454 421.267 372.056 420.573 371.116 419.879C369.419 418.621 368.117 416.829 365.44 416.066C365.901 418.659 366.305 420.878 366.7 423.051H366.717Z" fill="url(#paint42_linear_317_16619)" fill-opacity="0.28"/>
<path d="M420.716 137.719C428.23 136.117 435.546 134.592 442.871 132.976C444.403 132.64 445.137 133.273 445.837 134.341C446.537 135.408 447.584 136.262 446.512 137.719C442.195 143.544 437.96 149.43 433.684 155.309C430.932 153.319 430.389 151.558 432.564 148.851C434.838 146.03 430.916 144.566 430.001 142.393C429.383 140.913 428.164 140.105 426.426 140.868C423.377 142.164 421.845 140.784 420.716 137.719ZM440.745 138.199L440.069 137.52C437.804 138.199 435.019 138.367 433.478 139.739C432.572 140.54 434.978 142.469 436.23 144.162C437.87 141.989 439.303 140.09 440.745 138.199Z" fill="url(#paint43_linear_317_16619)" fill-opacity="0.28"/>
<path d="M297.722 451.797C298.933 445.468 300.194 439.254 301.257 433.001C301.553 431.255 302.451 430.805 304.124 430.478C305.796 430.15 306.868 430.409 307.84 431.835C311.275 436.867 314.892 441.793 318.32 446.818C318.872 447.618 320.66 448.777 319.144 449.57C317.933 450.188 315.519 451.461 314.53 449.197C312.923 445.506 310.106 446.505 307.115 446.909C304.346 447.291 302.451 448.167 302.559 451.042C302.633 453.063 300.993 453.055 299.559 453.391C297.837 453.795 297.178 453.314 297.722 451.797ZM305.739 436.379C304.956 438.835 303.053 441.335 304.363 443.287C305.187 444.561 307.659 443.013 309.834 442.624L305.739 436.379Z" fill="url(#paint44_linear_317_16619)" fill-opacity="0.28"/>
<path d="M78.8917 161.402C82.0225 161.402 85.1699 161.28 88.2843 161.47C89.2235 161.531 91.2915 160.845 91.0526 162.584C90.8631 163.933 90.6242 165.939 88.0041 165.901C86.587 165.901 84.7085 164.925 83.7775 166.267C82.4183 168.305 81.3127 170.479 80.4818 172.748C79.9957 174.006 81.4952 174.738 82.3768 175.409C84.0247 176.675 83.5962 177.872 82.8712 179.404C82.0473 181.067 81.454 180.861 80.3253 179.755C75.5384 175.073 70.7432 170.392 65.8574 165.801C64.5556 164.574 65.1818 163.552 65.7009 162.393C66.2199 161.234 66.9862 160.289 68.7081 160.426C72.1026 160.685 75.5136 160.792 78.9164 160.96L78.8917 161.402ZM70.7679 164.642C73.2396 166.999 74.5744 169.515 77.112 169.827C78.0678 169.942 79.1059 167.204 79.3201 165.252L70.7679 164.642Z" fill="url(#paint45_linear_317_16619)" fill-opacity="0.28"/>
<path d="M439.378 332.291C443.942 337.72 448.441 343.119 452.997 348.433C454.167 349.791 453.878 350.805 453.079 352.177C452.28 353.55 451.209 354.038 449.47 353.756C443.151 352.749 436.807 351.895 430.52 350.881C429.565 350.721 427.488 351.285 428.049 349.463C428.403 348.258 428.873 345.932 431.089 346.634C437.005 348.51 437.178 343.538 439.369 340.999C440.276 339.962 439.485 339.047 438.677 338.361C436.008 336.119 436.939 334.251 439.378 332.291ZM447.889 348.868C446.447 347.206 445.145 345.65 443.769 344.156C443.406 343.759 442.83 343.012 442.212 343.828C441.388 344.949 440.119 346.161 440.086 347.358C440.053 348.555 441.965 348.388 443.085 348.525C444.519 348.708 445.911 349.409 447.889 348.868Z" fill="url(#paint46_linear_317_16619)" fill-opacity="0.28"/>
<path d="M269.536 455.518C266.406 456.281 264.132 456.281 263.472 452.895C262.953 450.234 260.539 450.562 258.57 450.768C256.428 450.989 253.421 449.296 252.473 452.773C252.311 453.388 252.062 453.981 251.732 454.535C250.685 456.235 248.947 455.366 247.678 455.145C245.627 454.779 247.241 453.498 247.53 452.857C250.059 447.131 252.745 441.42 255.316 435.747C255.843 434.573 256.403 433.688 257.969 434.016C259.312 434.298 260.984 433.665 261.701 435.541C264.239 442.198 266.892 448.809 269.536 455.518ZM261.256 446.872C260.251 444.234 259.411 441.999 258.381 439.247C257.31 442.099 255.036 444.249 255.843 446.681C256.239 447.81 259.048 447.177 261.256 446.872Z" fill="url(#paint47_linear_317_16619)" fill-opacity="0.28"/>
<path d="M201.811 76.1779C199.389 77.9927 197.214 78.9077 195.22 76.0941C193.893 74.2259 192.229 74.6377 190.664 75.5603C188.596 76.7803 184.641 76.1856 185.127 79.9751C185.539 83.1395 183.529 83.7876 180.414 84.2222C180.414 77.1463 180.414 70.2229 180.414 63.307C180.414 61.7821 181.238 61.1111 182.647 60.5773C184.056 60.0436 185.119 59.8911 186.272 61.0577C191.356 66.1206 196.563 71.0997 201.811 76.1779ZM184.707 65.503C184.707 68.0879 184.707 69.8035 184.707 71.5191C184.707 73.2347 185.168 73.6465 187.104 73.0441C190.136 72.1291 190.977 71.0997 188.2 68.9571C186.969 67.8576 185.802 66.6969 184.707 65.4801V65.503Z" fill="url(#paint48_linear_317_16619)" fill-opacity="0.28"/>
<path d="M386.623 83.6197C386.662 84.7678 386.377 85.9056 385.797 86.9209C385.216 87.9362 384.36 88.7939 383.312 89.4096C382.264 90.0253 381.061 90.3777 379.821 90.4321C378.581 90.4865 377.347 90.2409 376.241 89.7197C375.853 89.5906 375.488 89.4053 375.162 89.1707C371.479 85.9606 369.172 87.3559 367.426 91.054C366.709 92.579 365.885 93.5626 363.743 92.2511C361.79 91.054 362.441 90.1619 363.323 88.8809C366.503 84.306 369.683 79.731 372.732 75.0417C373.77 73.4557 374.643 72.9143 376.456 74.1419C378.771 75.7126 381.276 77.047 383.673 78.5186C384.613 79.047 385.382 79.799 385.901 80.6962C386.42 81.5934 386.669 82.603 386.623 83.6197ZM378.499 86.2808C379.349 86.2815 380.167 85.978 380.781 85.4338C381.395 84.8896 381.758 84.1467 381.795 83.3605C381.968 81.9803 377.906 78.3433 376.489 78.7474C374.355 79.3574 372.987 81.7058 373.193 83.025C373.63 85.1523 376.464 85.6937 378.499 86.2808Z" fill="url(#paint49_linear_317_16619)" fill-opacity="0.28"/>
<path d="M162.478 409.342C166.309 409.761 167.676 411.485 167.668 414.908C167.668 421.008 167.981 421.115 173.501 417.684C176.286 415.953 178.577 415.518 180.983 418.118C179.335 419.925 176.987 420.749 174.853 421.771C170.354 423.913 166.441 426.437 164.784 431.157C164.2 432.819 163.252 433.589 161.143 432.507C159.034 431.424 159.602 430.364 160.591 429.197C164.274 424.889 163.648 419.971 163.063 415.053C162.873 413.177 162.684 411.294 162.478 409.342Z" fill="url(#paint50_linear_317_16619)" fill-opacity="0.28"/>
<path d="M229.355 432.057C236.712 431.066 235.328 437.89 238.352 440.719C242.282 439.072 242.471 431.79 249.845 434.543C247.291 437.448 245.149 440.36 242.488 442.785C239.39 445.614 239.637 449.198 239.102 452.621C238.871 454.146 238.352 454.665 236.803 454.337C235.674 454.108 233.837 454.261 234.43 452.553C236.902 445.309 232.486 439.651 229.618 433.628C229.463 433.287 229.339 432.935 229.248 432.575C229.215 432.461 229.297 432.331 229.355 432.057Z" fill="url(#paint51_linear_317_16619)" fill-opacity="0.28"/>
<path d="M220.283 71.1527C220.572 72.1134 219.196 72.2049 218.034 72.5938C216.164 73.2267 215.604 72.243 215.249 70.8553C214.22 66.7988 212.951 62.7881 212.201 58.6554C211.723 56.0172 210.553 55.7122 208.081 56.3679C206.895 56.6577 204.983 58.3199 204.275 55.5063C203.649 52.9901 205.651 53.2188 207.117 52.8757C210.949 51.9683 214.796 51.1067 218.652 50.268C220.036 49.963 221.528 49.2081 222.228 51.3431C222.986 53.6306 221.182 53.6839 219.814 53.8136C216.518 54.1262 215.909 55.4987 216.823 58.3123C218.125 62.2925 219.023 66.3871 220.283 71.1527Z" fill="url(#paint52_linear_317_16619)" fill-opacity="0.28"/>
<path d="M355.973 417.393C355.808 418.995 354.169 419.086 353.007 419.46C350.659 420.222 350.247 421.244 351.359 423.371C353.361 427.085 354.927 430.996 356.855 434.755C357.679 436.334 357.637 437.142 355.767 437.973C353.749 438.873 353.155 437.973 352.471 436.54C350.766 432.826 348.855 429.197 347.273 425.445C346.284 423.089 345.188 422.243 342.576 423.745C341.481 424.37 339.783 425.91 338.663 423.432C337.542 420.954 339.75 420.962 341.085 420.382C344.916 418.735 348.855 417.332 352.62 415.556C355.026 414.488 355.446 415.792 355.973 417.393Z" fill="url(#paint53_linear_317_16619)" fill-opacity="0.28"/>
<path d="M468.569 176.789C470.538 176.736 470.118 178.314 470.621 179.214C471.37 180.525 470.316 180.922 469.17 181.28C464.903 182.615 460.709 184.155 456.392 185.306C453.821 185.993 452.972 186.892 454.2 189.279C455.073 190.972 455.494 192.863 456.186 194.616C456.696 195.928 456.425 196.637 454.884 197.186C453.104 197.811 452.791 196.873 452.412 195.752C451.16 192.283 449.891 188.821 448.647 185.352C448.367 184.59 447.576 183.568 448.96 183.11C455.485 180.968 462.068 178.886 468.569 176.789Z" fill="url(#paint54_linear_317_16619)" fill-opacity="0.28"/>
<path d="M401.379 114.219C400.953 114.785 400.488 115.325 399.986 115.835C399.162 116.598 398.52 115.934 397.902 115.446C394.796 112.968 391.722 110.445 388.559 108.027C387.207 106.998 387.084 106.236 388.303 104.977C392.489 100.631 396.542 96.2088 400.662 91.7482C401.7 90.6045 402.458 90.5282 403.587 91.5881C404.559 92.5031 405.811 93.1131 404.336 94.6381C401.321 97.7414 398.635 101.15 395.446 104.085C393.074 106.266 393.593 107.532 395.99 109.057C397.425 110.03 398.78 111.1 400.044 112.259C400.579 112.717 401.461 113.06 401.379 114.219Z" fill="url(#paint55_linear_317_16619)" fill-opacity="0.28"/>
<path d="M81.6188 317.286C82.9783 317.118 83.2667 318.049 83.6127 318.811C85.2605 322.128 86.8177 325.498 88.5562 328.762C89.4378 330.371 88.8033 330.942 87.2956 331.568C81.693 333.893 76.1151 336.265 70.5784 338.72C68.9306 339.429 68.2303 339.177 67.5217 337.622C66.8131 336.066 66.8543 335.334 68.5681 334.671C72.8195 332.963 76.9802 331.049 81.2398 329.334C83.3326 328.502 83.8681 327.549 82.657 325.628C81.5612 323.897 80.9185 321.922 79.8557 320.168C78.661 318.171 80.4077 317.919 81.6188 317.286Z" fill="url(#paint56_linear_317_16619)" fill-opacity="0.28"/>
<path d="M455.815 204.765C454.513 205.123 454.513 203.941 454.241 202.981C453.969 202.02 453.203 200.731 455.065 200.274C461.516 198.749 467.976 197.17 474.419 195.592C475.852 195.234 476.47 195.866 476.668 197.025C476.841 198.047 477.747 199.382 475.902 199.847C469.368 201.494 462.777 203.064 455.815 204.765Z" fill="url(#paint57_linear_317_16619)" fill-opacity="0.28"/>
<path d="M137.595 109.736C137.513 110.902 136.367 111.261 135.642 112.023C134.645 112.999 133.994 112.412 133.319 111.68C128.993 107.105 124.668 102.53 120.301 97.9551C119.065 96.6665 119.906 95.9497 120.944 95.1872C121.768 94.5772 122.501 93.5631 123.638 94.7679C128.147 99.5411 132.654 104.317 137.158 109.095C137.325 109.295 137.471 109.51 137.595 109.736Z" fill="url(#paint58_linear_317_16619)" fill-opacity="0.28"/>
<path d="M397.053 87.3639C396.765 87.7909 396.444 88.3399 396.048 88.8355C392.382 93.4104 388.682 97.9854 385.041 102.56C384.143 103.696 383.459 104.489 381.844 103.254C380.468 102.21 379.825 101.516 381.16 99.9298C384.942 95.431 388.518 90.7798 392.225 86.2049C392.794 85.511 393.23 84.1156 394.697 85.084C395.554 85.694 396.625 86.1057 397.053 87.3639Z" fill="url(#paint59_linear_317_16619)" fill-opacity="0.28"/>
<path d="M296.693 67.3786C297.739 61.7972 298.851 56.0708 299.856 50.3293C300.194 48.4078 301.397 48.7051 302.855 48.8958C304.314 49.0864 304.899 49.7193 304.61 51.1832C303.473 56.9121 302.389 62.6461 301.356 68.3851C301.059 70.0473 300.227 70.3447 298.538 70.1083C296.709 69.8338 296.206 69.0561 296.693 67.3786Z" fill="url(#paint60_linear_317_16619)" fill-opacity="0.28"/>
<path d="M368.941 70.9012C368.661 71.412 368.439 71.8695 368.183 72.3118C365.39 77.207 362.548 82.0717 359.812 86.9898C358.988 88.4614 358.321 89.0714 356.451 88.1106C354.58 87.1499 354.803 86.2883 355.627 84.8319C358.552 79.8681 361.337 74.828 364.196 69.8261C364.69 68.9721 365.118 67.7902 366.568 68.6899C367.541 69.2694 369.04 69.4372 368.941 70.9012Z" fill="url(#paint61_linear_317_16619)" fill-opacity="0.28"/>
<path d="M64.2012 195.554C63.562 195.621 62.9149 195.534 62.322 195.303C61.729 195.072 61.2101 194.704 60.8149 194.235C62.1991 193.373 63.5339 193.747 64.8521 194.044C64.3248 194.433 63.6245 194.753 64.2012 195.554Z" fill="url(#paint62_linear_317_16619)" fill-opacity="0.28"/>
<path d="M69.0295 194.227C70.0347 193.892 71.0399 193.64 71.9379 194.456C71.4897 194.708 70.9662 194.822 70.4434 194.781C69.9205 194.74 69.4253 194.546 69.0295 194.227Z" fill="url(#paint63_linear_317_16619)" fill-opacity="0.28"/>
<path d="M415.707 410.341L416.209 410.081L416.333 410.371C416.143 410.318 415.954 410.264 415.764 410.226L415.707 410.341Z" fill="url(#paint64_linear_317_16619)" fill-opacity="0.28"/>
<path d="M158.77 85.6935L158.498 85.541L158.795 85.1369C158.885 85.2284 159.042 85.3275 159.042 85.4267C159.042 85.5258 158.869 85.6097 158.77 85.6935Z" fill="url(#paint65_linear_317_16619)" fill-opacity="0.28"/>
<path d="M447.732 155.66L448.556 155.325C448.49 155.615 448.432 155.904 448.375 156.194L447.732 155.66Z" fill="url(#paint66_linear_317_16619)" fill-opacity="0.28"/>
<path d="M97.8086 127.288L97.9075 126.373L98.4183 126.8C98.2368 126.984 98.0321 127.148 97.8086 127.288Z" fill="url(#paint67_linear_317_16619)" fill-opacity="0.28"/>
<path d="M401.42 297.126C400.053 299.047 398.85 301.434 396.946 303.142C395.785 304.179 394.359 302.326 393.198 301.617C375.805 291.514 358.404 281.411 341.151 271.072C338.383 269.409 337.509 269.996 336.274 272.444C331.643 281.594 326.733 290.668 322.119 299.848C320.965 302.135 319.952 302.463 317.53 301.312C311.243 298.331 311.185 298.445 314.234 292.604C319.084 283.241 323.929 273.88 328.768 264.522C332.063 258.132 336.183 257.019 342.535 260.824C361.271 272.063 379.996 283.325 398.71 294.61C399.674 295.204 401.017 295.487 401.42 297.126Z" fill="url(#paint68_linear_317_16619)" fill-opacity="0.28"/>
<path d="M259.534 161.958C259.534 152.458 259.394 142.949 259.625 133.456C259.699 130.475 258.661 129.895 255.703 129.979C249.936 130.155 244.168 129.842 238.459 129.911C236.333 129.911 235.69 129.392 235.624 127.372C235.369 119.503 235.278 119.457 243.921 119.518C259.254 119.625 274.587 119.869 289.912 119.892C293.628 119.892 295.341 120.517 294.723 124.543C293.834 130.292 294.155 130.3 287.943 130.2C283.288 130.132 278.616 130.353 273.936 130.132C271.061 129.987 270.641 131.1 270.591 133.418C270.492 152.427 270.187 171.436 270.163 190.445C270.163 193.564 269.339 194.547 265.895 194.433C258.817 194.196 258.817 194.387 258.817 187.799V161.951L259.534 161.958Z" fill="url(#paint69_linear_317_16619)" fill-opacity="0.28"/>
<path d="M132.133 282.493C147.194 284.59 162.23 286.595 177.225 288.845C180.027 289.264 181.345 288.654 182.672 286.389C187.829 277.606 193.3 268.974 198.474 260.198C199.652 258.2 200.501 257.788 202.775 258.963C209.918 262.668 209.968 262.569 205.889 269.226C201.105 277.044 196.329 284.87 191.562 292.703C190.837 293.892 189.873 294.99 190.532 296.584C191.487 298.871 192.056 300.64 195.475 298.437C201.852 294.289 208.658 290.72 215.249 286.801C216.963 285.779 217.82 285.764 219.064 287.495C223.818 294.129 223.892 294.075 216.501 298.368C196.316 310.08 176.13 321.762 156.002 333.58C153.431 335.105 152.121 335.311 150.407 332.558C146.774 326.718 146.584 326.802 152.64 323.256C161.555 318.048 170.502 312.894 179.384 307.633C180.604 306.908 183.092 306.596 182.095 304.522C181.098 302.448 181.024 299.626 177.258 299.146C162.618 297.278 148.043 294.96 133.385 293.206C129.224 292.703 127.881 291.46 129.06 287.808C129.375 286.706 129.563 285.576 129.62 284.437C129.686 282.867 130.337 282.036 132.133 282.493Z" fill="url(#paint70_linear_317_16619)" fill-opacity="0.28"/>
<path d="M365.25 171.306C359.681 175.729 354.35 180.083 348.846 184.269C346.943 185.71 347.816 186.755 348.723 188.081C355.039 197.43 361.339 206.788 367.623 216.156C371.43 221.822 370.301 224.49 363.298 226.366C353.954 228.875 344.578 231.254 335.285 233.877C331.165 235.051 328.29 234.334 325.966 230.735C320.693 222.577 315.198 214.54 309.62 206.564C308.219 204.559 308.565 203.682 310.658 202.462C317.406 198.512 317.348 198.436 321.533 204.597C325.183 209.934 328.949 215.272 332.393 220.731C333.785 222.943 335.153 223.309 337.666 222.531C342.322 221.022 347.064 219.749 351.87 218.718C355.462 217.956 355.075 216.865 353.427 214.502C347.503 205.969 341.777 197.323 336.01 188.707C333.348 184.719 333.596 182.805 337.336 179.793C345.41 173.312 353.518 166.869 361.658 160.464C365.86 157.162 368.76 157.536 371.825 161.76C382.297 176.225 392.654 190.674 403.216 205.054C404.955 207.418 404.238 208.356 401.988 209.698C395.727 213.457 395.793 213.51 391.657 207.83L365.25 171.306Z" fill="url(#paint71_linear_317_16619)" fill-opacity="0.28"/>
<path d="M302.699 369.737C303.671 363.233 304.487 357.393 305.443 351.575C305.962 348.418 311.342 345.574 314.506 346.641C315.841 347.091 316.154 348.166 316.45 349.333C318.395 357.095 320.29 364.873 322.407 372.597C323.083 375.067 321.542 375.41 319.729 375.86C317.628 376.371 316.566 375.906 316.055 373.672C314.652 367.311 312.808 361.041 310.535 354.899C309.711 361.411 308.846 367.915 308.063 374.434C307.824 376.485 307.906 378.369 304.99 379.086C301.859 379.848 300.557 378.399 299.222 376.28C296.495 372.033 293.611 367.892 290.719 363.721C290.044 362.753 289.755 361.205 287.638 361.472C289.113 367.214 290.472 372.909 292.087 378.605C292.73 380.893 292.087 381.846 289.657 382.38C287.226 382.913 286.262 382.166 285.735 379.924C284.087 372.757 282.093 365.65 280.346 358.491C279.893 356.6 278.913 354.137 281.994 353.405C285.076 352.673 288.668 350.645 291.329 354.244C294.501 358.536 297.492 362.928 300.59 367.267C301.101 367.946 301.702 368.563 302.699 369.737Z" fill="url(#paint72_linear_317_16619)" fill-opacity="0.28"/>
<path d="M269.182 367.352C277.85 367.664 277.85 367.664 277.19 375.571C276.63 382.236 275.897 383.196 268.688 384.927C261.124 386.765 253.75 386.399 248.131 380.779C242.512 375.16 242.248 368.107 244.794 361.16C248.51 351.042 263.934 347.283 272.848 354.145C273.834 354.832 274.647 355.709 275.229 356.715C275.963 358.24 278.393 360.344 276.053 361.404C274.084 362.281 270.78 364.126 268.688 360.497C266.933 357.447 263.744 356.753 260.218 357.05C258.49 357.13 256.826 357.679 255.432 358.628C254.039 359.577 252.978 360.885 252.382 362.388C250.874 365.829 250.705 369.649 251.905 373.192C254.006 379.574 262.615 381.976 268.383 377.95C269.915 376.875 269.693 375.495 269.52 374.184C269.281 372.43 267.608 373.322 266.545 373.063C264.791 372.643 262.212 374.184 261.412 371.469C260.465 368.244 261.52 367.1 265.161 367.138C266.455 367.138 267.823 367.268 269.182 367.352Z" fill="url(#paint73_linear_317_16619)" fill-opacity="0.28"/>
<path d="M227.402 382.06C224.711 381.923 222.052 381.459 219.492 380.68C213.675 378.812 210.759 374.953 211.5 369.326C212.431 362.296 213.972 355.334 214.796 348.297C215.233 344.621 217.531 346.253 219.41 346.268C221.75 346.268 222.878 347.031 222.392 349.486C221.148 355.967 219.97 362.448 219.097 368.983C218.578 372.872 220.489 374.869 224.609 375.678C228.918 376.516 231.538 375.152 232.411 371.103C233.746 364.896 234.973 358.659 235.789 352.391C236.251 348.891 238.038 349.082 240.947 349.433C244.391 349.844 243.789 351.522 243.361 353.649C242.051 360.245 241.07 366.901 239.62 373.474C238.384 379.246 234.29 382.06 227.402 382.06Z" fill="url(#paint74_linear_317_16619)" fill-opacity="0.28"/>
<path d="M238.846 341.892C239.67 334.709 240.625 327.534 241.317 320.344C241.515 318.194 242.405 317.904 244.407 318.133C249.565 318.72 254.747 319.246 259.93 319.604C262.08 319.757 262.27 320.679 262.138 322.326C262.006 323.973 261.718 324.965 259.518 324.614C256.28 324.156 252.984 324.012 249.73 323.569C247.695 323.295 246.912 324.019 247.184 325.773C247.414 327.229 245.305 329.501 248.741 329.898C251.213 330.172 253.643 330.477 256.098 330.592C258.315 330.691 259.04 331.4 258.908 333.604C258.735 336.486 256.799 335.609 255.192 335.563C252.341 335.495 249.005 333.832 246.796 335.205C244.432 336.684 245.923 340.176 245.206 342.715C244.712 344.462 245.519 346.711 241.754 346.299C237.989 345.887 238.524 344.08 238.846 341.892Z" fill="url(#paint75_linear_317_16619)" fill-opacity="0.28"/>
<path d="M289.195 319.139C289.862 321.983 287.704 321.632 286.221 321.846C280.824 322.646 280.849 322.608 281.607 327.458C282.431 332.719 283.065 338.011 284.078 343.249C284.532 345.651 283.073 345.681 281.368 345.849C279.662 346.017 277.924 346.871 277.619 344.042C277.026 338.628 275.823 333.268 275.296 327.854C274.958 324.385 273.928 322.807 269.825 323.905C268.539 324.255 266.175 325.643 265.45 322.99C264.922 321.068 264.807 319.375 268.004 319.086C274.134 318.529 280.231 317.652 286.303 316.73C288.89 316.325 289.409 317.439 289.195 319.139Z" fill="url(#paint76_linear_317_16619)" fill-opacity="0.28"/>
<path d="M121.48 212.908C121.381 211.429 122.156 210.217 122.823 208.966C132.347 191.175 141.869 173.36 151.388 155.523C154.14 150.391 157.254 149.675 162.099 153.159C181.205 166.983 200.238 180.899 219.402 194.662C221.816 196.4 221.519 197.46 219.814 199.397C215.101 204.734 215.175 204.849 209.325 200.609C193.578 189.187 177.852 177.75 162.148 166.297C159.858 164.619 158.811 164.581 157.584 167.204C155.73 171.154 153.621 175.005 151.363 178.764C150.02 180.99 150.16 182.088 152.838 183.339C162.247 187.731 171.458 192.489 180.851 196.896C183.521 198.146 183.636 199.183 182.301 201.471C178.668 207.685 178.791 207.723 172.258 204.521C164.019 200.487 155.73 196.576 147.582 192.405C145.258 191.208 144.418 191.596 143.396 193.701C141.279 198.085 139.029 202.447 136.483 206.663C134.902 209.263 135.824 209.942 138.494 210.659C158.367 215.996 178.173 221.494 198.079 226.671C201.531 227.571 201.886 228.684 200.872 231.551C198.697 237.651 198.845 237.735 192.048 235.897C170.352 230.026 148.655 224.147 126.959 218.261C123.968 217.361 121.711 216.103 121.48 212.908Z" fill="url(#paint77_linear_317_16619)" fill-opacity="0.28"/>
</g>
<defs>
<linearGradient id="paint0_linear_317_16619" x1="264.904" y1="79.2988" x2="8.11303" y2="764.83" gradientUnits="userSpaceOnUse">
<stop stop-color="#FBC60B"/>
<stop offset="1" stop-color="#FFDE0B"/>
</linearGradient>
<linearGradient id="paint1_linear_317_16619" x1="240.864" y1="0.831299" x2="237.052" y2="50.1712" gradientUnits="userSpaceOnUse">
<stop stop-color="#FBC60B"/>
<stop offset="1" stop-color="#FFDE0B"/>
</linearGradient>
<linearGradient id="paint2_linear_317_16619" x1="394.885" y1="17.9878" x2="362.873" y2="146.495" gradientUnits="userSpaceOnUse">
<stop stop-color="#FBC60B"/>
<stop offset="1" stop-color="#FFDE0B"/>
</linearGradient>
<linearGradient id="paint3_linear_317_16619" x1="487.403" y1="89.5523" x2="418.414" y2="180.547" gradientUnits="userSpaceOnUse">
<stop stop-color="#FBC60B"/>
<stop offset="1" stop-color="#FFDE0B"/>
</linearGradient>
<linearGradient id="paint4_linear_317_16619" x1="132.017" y1="26.0214" x2="109.386" y2="94.0582" gradientUnits="userSpaceOnUse">
<stop stop-color="#FBC60B"/>
<stop offset="1" stop-color="#FFDE0B"/>
</linearGradient>
<linearGradient id="paint5_linear_317_16619" x1="90.4099" y1="65.1218" x2="83.9294" y2="91.0168" gradientUnits="userSpaceOnUse">
<stop stop-color="#FBC60B"/>
<stop offset="1" stop-color="#FFDE0B"/>
</linearGradient>
<linearGradient id="paint6_linear_317_16619" x1="515.837" y1="164.749" x2="509.444" y2="180.026" gradientUnits="userSpaceOnUse">
<stop stop-color="#FBC60B"/>
<stop offset="1" stop-color="#FFDE0B"/>
</linearGradient>
<linearGradient id="paint7_linear_317_16619" x1="265.202" y1="11.1109" x2="-65.6866" y2="756.881" gradientUnits="userSpaceOnUse">
<stop stop-color="#FBC60B"/>
<stop offset="1" stop-color="#FFDE0B"/>
</linearGradient>
<linearGradient id="paint8_linear_317_16619" x1="264.566" y1="81.834" x2="29.187" y2="596.425" gradientUnits="userSpaceOnUse">
<stop stop-color="#FBC60B"/>
<stop offset="1" stop-color="#FFDE0B"/>
</linearGradient>
<linearGradient id="paint9_linear_317_16619" x1="161.305" y1="64.405" x2="141.088" y2="110.802" gradientUnits="userSpaceOnUse">
<stop stop-color="#FBC60B"/>
<stop offset="1" stop-color="#FFDE0B"/>
</linearGradient>
<linearGradient id="paint10_linear_317_16619" x1="66.9272" y1="176.595" x2="49.1207" y2="217.423" gradientUnits="userSpaceOnUse">
<stop stop-color="#FBC60B"/>
<stop offset="1" stop-color="#FFDE0B"/>
</linearGradient>
<linearGradient id="paint11_linear_317_16619" x1="405.119" y1="380.679" x2="383.914" y2="428.841" gradientUnits="userSpaceOnUse">
<stop stop-color="#FBC60B"/>
<stop offset="1" stop-color="#FFDE0B"/>
</linearGradient>
<linearGradient id="paint12_linear_317_16619" x1="131.305" y1="381.618" x2="111.145" y2="428.794" gradientUnits="userSpaceOnUse">
<stop stop-color="#FBC60B"/>
<stop offset="1" stop-color="#FFDE0B"/>
</linearGradient>
<linearGradient id="paint13_linear_317_16619" x1="463.262" y1="293.972" x2="449.24" y2="329.911" gradientUnits="userSpaceOnUse">
<stop stop-color="#FBC60B"/>
<stop offset="1" stop-color="#FFDE0B"/>
</linearGradient>
<linearGradient id="paint14_linear_317_16619" x1="469.124" y1="204.797" x2="456.319" y2="238.379" gradientUnits="userSpaceOnUse">
<stop stop-color="#FBC60B"/>
<stop offset="1" stop-color="#FFDE0B"/>
</linearGradient>
<linearGradient id="paint15_linear_317_16619" x1="429.5" y1="352.441" x2="412.074" y2="393.223" gradientUnits="userSpaceOnUse">
<stop stop-color="#FBC60B"/>
<stop offset="1" stop-color="#FFDE0B"/>
</linearGradient>
<linearGradient id="paint16_linear_317_16619" x1="58.0165" y1="255.625" x2="44.594" y2="288.591" gradientUnits="userSpaceOnUse">
<stop stop-color="#FBC60B"/>
<stop offset="1" stop-color="#FFDE0B"/>
</linearGradient>
<linearGradient id="paint17_linear_317_16619" x1="448.779" y1="147.653" x2="432.322" y2="186.923" gradientUnits="userSpaceOnUse">
<stop stop-color="#FBC60B"/>
<stop offset="1" stop-color="#FFDE0B"/>
</linearGradient>
<linearGradient id="paint18_linear_317_16619" x1="330.589" y1="424.272" x2="314.009" y2="461.968" gradientUnits="userSpaceOnUse">
<stop stop-color="#FBC60B"/>
<stop offset="1" stop-color="#FFDE0B"/>
</linearGradient>
<linearGradient id="paint19_linear_317_16619" x1="471.973" y1="227.673" x2="458.046" y2="261.134" gradientUnits="userSpaceOnUse">
<stop stop-color="#FBC60B"/>
<stop offset="1" stop-color="#FFDE0B"/>
</linearGradient>
<linearGradient id="paint20_linear_317_16619" x1="454.13" y1="315.762" x2="439.451" y2="350.334" gradientUnits="userSpaceOnUse">
<stop stop-color="#FBC60B"/>
<stop offset="1" stop-color="#FFDE0B"/>
</linearGradient>
<linearGradient id="paint21_linear_317_16619" x1="283.692" y1="45.9816" x2="265.902" y2="79.1841" gradientUnits="userSpaceOnUse">
<stop stop-color="#FBC60B"/>
<stop offset="1" stop-color="#FFDE0B"/>
</linearGradient>
<linearGradient id="paint22_linear_317_16619" x1="213.78" y1="428.24" x2="197.545" y2="462.714" gradientUnits="userSpaceOnUse">
<stop stop-color="#FBC60B"/>
<stop offset="1" stop-color="#FFDE0B"/>
</linearGradient>
<linearGradient id="paint23_linear_317_16619" x1="420.637" y1="109.566" x2="403.657" y2="146.758" gradientUnits="userSpaceOnUse">
<stop stop-color="#FBC60B"/>
<stop offset="1" stop-color="#FFDE0B"/>
</linearGradient>
<linearGradient id="paint24_linear_317_16619" x1="56.807" y1="232.887" x2="43.4544" y2="266.068" gradientUnits="userSpaceOnUse">
<stop stop-color="#FBC60B"/>
<stop offset="1" stop-color="#FFDE0B"/>
</linearGradient>
<linearGradient id="paint25_linear_317_16619" x1="189.067" y1="420.68" x2="173.053" y2="455.501" gradientUnits="userSpaceOnUse">
<stop stop-color="#FBC60B"/>
<stop offset="1" stop-color="#FFDE0B"/>
</linearGradient>
<linearGradient id="paint26_linear_317_16619" x1="471.871" y1="252.007" x2="459.245" y2="284.515" gradientUnits="userSpaceOnUse">
<stop stop-color="#FBC60B"/>
<stop offset="1" stop-color="#FFDE0B"/>
</linearGradient>
<linearGradient id="paint27_linear_317_16619" x1="98.1164" y1="349.326" x2="79.0114" y2="392.656" gradientUnits="userSpaceOnUse">
<stop stop-color="#FBC60B"/>
<stop offset="1" stop-color="#FFDE0B"/>
</linearGradient>
<linearGradient id="paint28_linear_317_16619" x1="237.07" y1="46.5295" x2="218.876" y2="80.0062" gradientUnits="userSpaceOnUse">
<stop stop-color="#FBC60B"/>
<stop offset="1" stop-color="#FFDE0B"/>
</linearGradient>
<linearGradient id="paint29_linear_317_16619" x1="317.431" y1="50.0576" x2="299.185" y2="88.3143" gradientUnits="userSpaceOnUse">
<stop stop-color="#FBC60B"/>
<stop offset="1" stop-color="#FFDE0B"/>
</linearGradient>
<linearGradient id="paint30_linear_317_16619" x1="140.884" y1="83.2764" x2="125.1" y2="117.895" gradientUnits="userSpaceOnUse">
<stop stop-color="#FBC60B"/>
<stop offset="1" stop-color="#FFDE0B"/>
</linearGradient>
<linearGradient id="paint31_linear_317_16619" x1="85.5897" y1="333.924" x2="69.3425" y2="372.867" gradientUnits="userSpaceOnUse">
<stop stop-color="#FBC60B"/>
<stop offset="1" stop-color="#FFDE0B"/>
</linearGradient>
<linearGradient id="paint32_linear_317_16619" x1="347.064" y1="61.298" x2="330.019" y2="95.2861" gradientUnits="userSpaceOnUse">
<stop stop-color="#FBC60B"/>
<stop offset="1" stop-color="#FFDE0B"/>
</linearGradient>
<linearGradient id="paint33_linear_317_16619" x1="260.32" y1="44.9648" x2="243.629" y2="78.0024" gradientUnits="userSpaceOnUse">
<stop stop-color="#FBC60B"/>
<stop offset="1" stop-color="#FFDE0B"/>
</linearGradient>
<linearGradient id="paint34_linear_317_16619" x1="116.969" y1="102.544" x2="102.143" y2="136.837" gradientUnits="userSpaceOnUse">
<stop stop-color="#FBC60B"/>
<stop offset="1" stop-color="#FFDE0B"/>
</linearGradient>
<linearGradient id="paint35_linear_317_16619" x1="87.8198" y1="134.886" x2="71.0087" y2="174.841" gradientUnits="userSpaceOnUse">
<stop stop-color="#FBC60B"/>
<stop offset="1" stop-color="#FFDE0B"/>
</linearGradient>
<linearGradient id="paint36_linear_317_16619" x1="283.651" y1="433.037" x2="266.888" y2="467.532" gradientUnits="userSpaceOnUse">
<stop stop-color="#FBC60B"/>
<stop offset="1" stop-color="#FFDE0B"/>
</linearGradient>
<linearGradient id="paint37_linear_317_16619" x1="66.8075" y1="300.138" x2="53.4288" y2="334.6" gradientUnits="userSpaceOnUse">
<stop stop-color="#FBC60B"/>
<stop offset="1" stop-color="#FFDE0B"/>
</linearGradient>
<linearGradient id="paint38_linear_317_16619" x1="59.7708" y1="211.118" x2="46.3657" y2="244.674" gradientUnits="userSpaceOnUse">
<stop stop-color="#FBC60B"/>
<stop offset="1" stop-color="#FFDE0B"/>
</linearGradient>
<linearGradient id="paint39_linear_317_16619" x1="62.2538" y1="276.074" x2="48.88" y2="309.902" gradientUnits="userSpaceOnUse">
<stop stop-color="#FBC60B"/>
<stop offset="1" stop-color="#FFDE0B"/>
</linearGradient>
<linearGradient id="paint40_linear_317_16619" x1="469.324" y1="273.742" x2="457.659" y2="305.483" gradientUnits="userSpaceOnUse">
<stop stop-color="#FBC60B"/>
<stop offset="1" stop-color="#FFDE0B"/>
</linearGradient>
<linearGradient id="paint41_linear_317_16619" x1="104.508" y1="121.42" x2="88.8855" y2="158.054" gradientUnits="userSpaceOnUse">
<stop stop-color="#FBC60B"/>
<stop offset="1" stop-color="#FFDE0B"/>
</linearGradient>
<linearGradient id="paint42_linear_317_16619" x1="372.357" y1="410.212" x2="354.021" y2="446.786" gradientUnits="userSpaceOnUse">
<stop stop-color="#FBC60B"/>
<stop offset="1" stop-color="#FFDE0B"/>
</linearGradient>
<linearGradient id="paint43_linear_317_16619" x1="433.844" y1="132.886" x2="419.102" y2="169.042" gradientUnits="userSpaceOnUse">
<stop stop-color="#FBC60B"/>
<stop offset="1" stop-color="#FFDE0B"/>
</linearGradient>
<linearGradient id="paint44_linear_317_16619" x1="308.638" y1="430.351" x2="291.24" y2="465.264" gradientUnits="userSpaceOnUse">
<stop stop-color="#FBC60B"/>
<stop offset="1" stop-color="#FFDE0B"/>
</linearGradient>
<linearGradient id="paint45_linear_317_16619" x1="78.0786" y1="160.413" x2="65.682" y2="193.808" gradientUnits="userSpaceOnUse">
<stop stop-color="#FBC60B"/>
<stop offset="1" stop-color="#FFDE0B"/>
</linearGradient>
<linearGradient id="paint46_linear_317_16619" x1="440.866" y1="332.291" x2="426.943" y2="367.254" gradientUnits="userSpaceOnUse">
<stop stop-color="#FBC60B"/>
<stop offset="1" stop-color="#FFDE0B"/>
</linearGradient>
<linearGradient id="paint47_linear_317_16619" x1="258.095" y1="433.947" x2="242.43" y2="468.102" gradientUnits="userSpaceOnUse">
<stop stop-color="#FBC60B"/>
<stop offset="1" stop-color="#FFDE0B"/>
</linearGradient>
<linearGradient id="paint48_linear_317_16619" x1="191.113" y1="60.1738" x2="172.272" y2="95.2873" gradientUnits="userSpaceOnUse">
<stop stop-color="#FBC60B"/>
<stop offset="1" stop-color="#FFDE0B"/>
</linearGradient>
<linearGradient id="paint49_linear_317_16619" x1="374.548" y1="73.4689" x2="362.362" y2="105.269" gradientUnits="userSpaceOnUse">
<stop stop-color="#FBC60B"/>
<stop offset="1" stop-color="#FFDE0B"/>
</linearGradient>
<linearGradient id="paint50_linear_317_16619" x1="170.344" y1="409.342" x2="151.91" y2="444.058" gradientUnits="userSpaceOnUse">
<stop stop-color="#FBC60B"/>
<stop offset="1" stop-color="#FFDE0B"/>
</linearGradient>
<linearGradient id="paint51_linear_317_16619" x1="239.543" y1="431.959" x2="222.233" y2="465.205" gradientUnits="userSpaceOnUse">
<stop stop-color="#FBC60B"/>
<stop offset="1" stop-color="#FFDE0B"/>
</linearGradient>
<linearGradient id="paint52_linear_317_16619" x1="213.282" y1="49.8865" x2="194.294" y2="81.5798" gradientUnits="userSpaceOnUse">
<stop stop-color="#FBC60B"/>
<stop offset="1" stop-color="#FFDE0B"/>
</linearGradient>
<linearGradient id="paint53_linear_317_16619" x1="347.861" y1="415.167" x2="328.926" y2="447.716" gradientUnits="userSpaceOnUse">
<stop stop-color="#FBC60B"/>
<stop offset="1" stop-color="#FFDE0B"/>
</linearGradient>
<linearGradient id="paint54_linear_317_16619" x1="459.52" y1="176.788" x2="445.393" y2="209.405" gradientUnits="userSpaceOnUse">
<stop stop-color="#FBC60B"/>
<stop offset="1" stop-color="#FFDE0B"/>
</linearGradient>
<linearGradient id="paint55_linear_317_16619" x1="396.238" y1="90.8394" x2="373.969" y2="123.146" gradientUnits="userSpaceOnUse">
<stop stop-color="#FBC60B"/>
<stop offset="1" stop-color="#FFDE0B"/>
</linearGradient>
<linearGradient id="paint56_linear_317_16619" x1="78.0237" y1="317.266" x2="62.0807" y2="350.72" gradientUnits="userSpaceOnUse">
<stop stop-color="#FBC60B"/>
<stop offset="1" stop-color="#FFDE0B"/>
</linearGradient>
<linearGradient id="paint57_linear_317_16619" x1="465.448" y1="195.492" x2="462.192" y2="212.427" gradientUnits="userSpaceOnUse">
<stop stop-color="#FBC60B"/>
<stop offset="1" stop-color="#FFDE0B"/>
</linearGradient>
<linearGradient id="paint58_linear_317_16619" x1="128.64" y1="94.2054" x2="115.043" y2="122.032" gradientUnits="userSpaceOnUse">
<stop stop-color="#FBC60B"/>
<stop offset="1" stop-color="#FFDE0B"/>
</linearGradient>
<linearGradient id="paint59_linear_317_16619" x1="388.74" y1="84.7528" x2="373.566" y2="112.385" gradientUnits="userSpaceOnUse">
<stop stop-color="#FBC60B"/>
<stop offset="1" stop-color="#FFDE0B"/>
</linearGradient>
<linearGradient id="paint60_linear_317_16619" x1="300.6" y1="48.7557" x2="280.957" y2="64.4339" gradientUnits="userSpaceOnUse">
<stop stop-color="#FBC60B"/>
<stop offset="1" stop-color="#FFDE0B"/>
</linearGradient>
<linearGradient id="paint61_linear_317_16619" x1="361.981" y1="68.3677" x2="344.196" y2="94.0498" gradientUnits="userSpaceOnUse">
<stop stop-color="#FBC60B"/>
<stop offset="1" stop-color="#FFDE0B"/>
</linearGradient>
<linearGradient id="paint62_linear_317_16619" x1="62.8335" y1="193.702" x2="62.0894" y2="197.061" gradientUnits="userSpaceOnUse">
<stop stop-color="#FBC60B"/>
<stop offset="1" stop-color="#FFDE0B"/>
</linearGradient>
<linearGradient id="paint63_linear_317_16619" x1="70.4837" y1="193.91" x2="70.2497" y2="195.53" gradientUnits="userSpaceOnUse">
<stop stop-color="#FBC60B"/>
<stop offset="1" stop-color="#FFDE0B"/>
</linearGradient>
<linearGradient id="paint64_linear_317_16619" x1="416.02" y1="410.081" x2="415.905" y2="410.601" gradientUnits="userSpaceOnUse">
<stop stop-color="#FBC60B"/>
<stop offset="1" stop-color="#FFDE0B"/>
</linearGradient>
<linearGradient id="paint65_linear_317_16619" x1="158.77" y1="85.1369" x2="158.357" y2="85.9818" gradientUnits="userSpaceOnUse">
<stop stop-color="#FBC60B"/>
<stop offset="1" stop-color="#FFDE0B"/>
</linearGradient>
<linearGradient id="paint66_linear_317_16619" x1="448.144" y1="155.325" x2="447.487" y2="156.629" gradientUnits="userSpaceOnUse">
<stop stop-color="#FBC60B"/>
<stop offset="1" stop-color="#FFDE0B"/>
</linearGradient>
<linearGradient id="paint67_linear_317_16619" x1="98.1134" y1="126.373" x2="97.2988" y2="127.51" gradientUnits="userSpaceOnUse">
<stop stop-color="#FBC60B"/>
<stop offset="1" stop-color="#FFDE0B"/>
</linearGradient>
<linearGradient id="paint68_linear_317_16619" x1="356.843" y1="258.636" x2="337.721" y2="338.32" gradientUnits="userSpaceOnUse">
<stop stop-color="#FBC60B"/>
<stop offset="1" stop-color="#FFDE0B"/>
</linearGradient>
<linearGradient id="paint69_linear_317_16619" x1="265.198" y1="119.509" x2="202.873" y2="222.819" gradientUnits="userSpaceOnUse">
<stop stop-color="#FBC60B"/>
<stop offset="1" stop-color="#FFDE0B"/>
</linearGradient>
<linearGradient id="paint70_linear_317_16619" x1="175.518" y1="258.311" x2="126.989" y2="383.06" gradientUnits="userSpaceOnUse">
<stop stop-color="#FBC60B"/>
<stop offset="1" stop-color="#FFDE0B"/>
</linearGradient>
<linearGradient id="paint71_linear_317_16619" x1="356.481" y1="158.255" x2="308.843" y2="283.289" gradientUnits="userSpaceOnUse">
<stop stop-color="#FBC60B"/>
<stop offset="1" stop-color="#FFDE0B"/>
</linearGradient>
<linearGradient id="paint72_linear_317_16619" x1="301.201" y1="346.413" x2="277.619" y2="404.84" gradientUnits="userSpaceOnUse">
<stop stop-color="#FBC60B"/>
<stop offset="1" stop-color="#FFDE0B"/>
</linearGradient>
<linearGradient id="paint73_linear_317_16619" x1="260.346" y1="350.66" x2="234.076" y2="404.031" gradientUnits="userSpaceOnUse">
<stop stop-color="#FBC60B"/>
<stop offset="1" stop-color="#FFDE0B"/>
</linearGradient>
<linearGradient id="paint74_linear_317_16619" x1="227.54" y1="345.894" x2="199.27" y2="398.795" gradientUnits="userSpaceOnUse">
<stop stop-color="#FBC60B"/>
<stop offset="1" stop-color="#FFDE0B"/>
</linearGradient>
<linearGradient id="paint75_linear_317_16619" x1="250.395" y1="318.067" x2="227.447" y2="358.094" gradientUnits="userSpaceOnUse">
<stop stop-color="#FBC60B"/>
<stop offset="1" stop-color="#FFDE0B"/>
</linearGradient>
<linearGradient id="paint76_linear_317_16619" x1="277.242" y1="316.646" x2="253.16" y2="358.015" gradientUnits="userSpaceOnUse">
<stop stop-color="#FBC60B"/>
<stop offset="1" stop-color="#FFDE0B"/>
</linearGradient>
<linearGradient id="paint77_linear_317_16619" x1="171.312" y1="151.007" x2="114.433" y2="289.202" gradientUnits="userSpaceOnUse">
<stop stop-color="#FBC60B"/>
<stop offset="1" stop-color="#FFDE0B"/>
</linearGradient>
</defs>
</svg>
