<svg width="750" height="540" viewBox="0 0 750 540" fill="none" xmlns="http://www.w3.org/2000/svg">
<g opacity="0.5">
<path d="M107.118 107.621C110.691 107.506 109.667 108.783 108.095 110.225C105.767 112.3 103.439 114.376 101.227 116.534C89.2612 128.093 81.113 141.738 73.4071 155.725C64.2578 172.452 55.318 189.272 44.4226 205.19C37.3569 215.514 29.6976 225.413 19.0234 233.123C15.5895 235.603 14.181 237.533 15.9853 242.275C19.5472 251.613 19.1049 261.647 18.4763 271.505C16.9281 296.024 10.9683 319.962 6.71955 344.139C2.06341 370.724 3.75126 396.436 20.979 419.773C25.489 426.031 31.1797 431.546 37.7993 436.074C39.9993 437.547 40.4765 438.979 39.7316 441.324C32.6659 463.561 37.7294 484.272 50.0216 503.998C60.6376 521.025 76.4452 534.089 91.9269 547.381C107.059 560.466 122.262 573.54 135.136 588.544C141.503 595.963 147.253 603.714 151.118 612.462C151.793 613.997 152.282 615.243 154.61 615.305C175.9 615.907 194.804 623.606 213.429 631.679C232.053 639.752 250.096 648.82 268.685 656.914C291.966 667.052 316.294 672.302 342.357 667.757C352.85 665.987 362.841 662.372 371.749 657.122C373.565 656.084 374.88 655.16 377.302 656.582C405.39 673.184 435.224 672.686 465.768 663.212C485.557 657.059 503.366 647.036 522.003 638.641C540.848 630.153 559.741 621.769 580.484 617.505C586.304 616.311 593.544 617.318 597.805 614.516C601.844 611.86 602.461 605.406 605.557 600.975C616.918 584.508 631.946 570.884 647.125 557.259C660.499 545.285 675.061 534.359 687.121 521.222C704.162 502.628 714.755 481.854 713.614 457.262C713.463 454.15 713.614 450.829 712.287 448.069C709.191 441.439 711.833 437.61 717.56 432.971C737.628 416.691 745.369 395.399 746.393 371.751C747.208 352.949 742.284 334.759 738.897 316.414C735.289 296.834 731.785 277.253 732.588 257.269C732.867 250.347 734.811 243.665 735.812 236.848L737.395 235.426C739.724 236.049 739.514 237.356 738.955 239.079C733.135 257.289 735.056 275.687 737.908 293.99C740.934 313.446 745.381 332.736 748.058 352.212C751.329 375.964 748.698 399.061 734.194 420.084C729.422 427.007 723.432 433.201 716.454 438.429C714.545 439.872 713.323 441.127 713.963 443.618C721.809 474.072 710.646 499.982 689.624 523.422C678.588 535.729 665.109 545.939 652.584 556.979C636.066 571.506 619.549 586.116 607.419 604.046C606.589 605.003 605.944 606.076 605.51 607.222C603.427 616.913 596.524 619.383 586.013 620.389C568.18 622.101 551.918 629.219 535.959 636.327C517.614 644.483 499.653 653.355 481.157 661.231C455.141 672.323 428.007 677.023 399.418 670.009C391.768 668.107 384.468 665.227 377.744 661.459C375.916 660.421 374.531 659.518 372.087 660.857C345.034 675.633 316.446 675.768 287.112 667.571C267.184 662.009 249.56 652.12 231.238 643.705C212.917 635.29 194.362 626.885 174.34 621.738C167.24 619.912 160.046 618.625 152.608 618.988C150.559 619.103 149.57 618.708 148.813 616.841C141.282 598.339 126.801 584.113 111.878 570.313C96.2454 556.056 79.8442 542.587 64.6768 528.092C47.4142 511.593 35.8786 492.303 33.2479 469.403C32.2282 460.806 32.9138 452.117 35.2733 443.732C36.0416 441.044 35.6691 439.498 33.213 437.599C13.0868 422.087 3.79783 401.79 1.31843 378.61C-0.80011 358.791 3.90259 339.48 7.77882 320.139C11.6551 300.797 15.1355 281.746 15.089 262.145C15.089 254.54 14.2858 246.965 11.3175 239.753C10.5027 237.782 10.072 236.07 12.2254 234.71C25.8214 226.098 34.6913 213.958 43.0607 201.506C55.2598 183.347 64.8165 163.871 75.7002 145.038C83.8601 131.05 93.3935 117.924 107.118 107.621Z" fill="url(#paint0_linear_446_1251)" fill-opacity="0.28"/>
<path d="M456.292 22.5137C455.419 24.4748 453.65 24.8587 451.578 24.589C427.867 21.2374 404.062 17.9066 382.667 7.46797C377.278 4.84275 373.972 4.63522 368.548 7.53023C352.251 16.2671 333.627 19.2555 315.165 22.4722C291.442 26.6227 267.184 27.8264 243.635 32.8485C238.385 33.9692 233.24 35.4426 228.049 36.7501L225.884 35.1417C241.272 29.0093 257.848 27.5566 274.238 25.4398C300.649 22.026 327.213 19.2659 352.554 11.2242C359.678 8.96216 366.522 6.2228 372.482 1.88548C373.972 0.847849 375.043 0.329031 376.952 1.50156C395.483 12.9156 417.041 16.4643 438.529 20.179C444.396 21.1544 450.368 21.7355 456.292 22.5137Z" fill="url(#paint1_linear_446_1251)" fill-opacity="0.28"/>
<path d="M655.505 122.946C644.179 111.189 631.608 100.886 615.335 94.691C606.162 91.2046 596.71 88.8388 586.699 88.6416C583.393 88.5794 582.136 87.5313 580.949 84.9061C568.645 57.8757 545.062 42.6432 514.436 34.6949C497.942 30.4095 480.982 28.6766 464.127 26.2589C462.963 26.0825 460.215 27.2966 460.448 24.4327C469.993 23.3951 479.178 25.792 488.455 27.0164C497.123 28.2491 505.699 29.954 514.133 32.1216C545.039 39.6756 568.843 54.8354 582.288 81.3055C584.057 84.792 586.024 86.006 590.168 86.4107C618.326 89.1293 640 101.83 656.949 121.566L655.505 122.946Z" fill="url(#paint2_linear_446_1251)" fill-opacity="0.28"/>
<path d="M655.506 122.947L656.996 121.567C668.531 133.593 675.76 147.871 683.384 161.931C695.025 183.431 706.863 204.848 723.299 223.899L721.879 225.268C709.843 212.993 701.31 198.726 692.976 184.385C686.411 173.117 680.369 161.64 674.084 150.226C668.788 140.672 662.572 131.544 655.506 122.947Z" fill="url(#paint3_linear_446_1251)" fill-opacity="0.28"/>
<path d="M225.884 35.1111L228.049 36.7194C212.288 42.4472 197.784 49.8974 186.307 61.3736C179.457 68.2051 174.026 76.0684 170.266 84.5959C169.544 86.2043 169.37 87.9683 166.634 87.8437C160.395 87.5532 154.389 89.1823 148.243 89.7945L146.566 88.3211C151.607 86.3703 157.043 85.976 162.351 85.7166C165.354 85.5713 166.541 84.679 167.694 82.2405C179.066 58.7069 199.39 43.8584 225.884 35.1111Z" fill="url(#paint4_linear_446_1251)" fill-opacity="0.28"/>
<path d="M146.567 88.3208L148.243 89.7943C135.182 93.7684 122.855 98.9462 112.297 107.071C110.842 108.181 108.875 109.406 108.805 106.033C119.864 97.4935 132.016 90.8838 146.567 88.3208Z" fill="url(#paint5_linear_446_1251)" fill-opacity="0.28"/>
<path d="M721.879 225.268L723.299 223.898L737.268 235.468L735.684 236.889C730.228 233.912 725.526 229.954 721.879 225.268Z" fill="url(#paint6_linear_446_1251)" fill-opacity="0.28"/>
<path d="M429.811 660.743C408.334 660.639 392.562 656.53 378.884 646.725C377.022 645.396 375.299 643.518 372.145 645.76C347.944 662.964 320.927 663.213 292.758 655.845C274.657 651.103 258.733 642.242 242.157 634.595C219.738 624.218 197.586 612.929 172.536 608.654C162.06 606.879 157.031 602.563 151.991 594.822C139.245 575.242 120.562 559.978 102.566 544.258C88.3531 531.806 73.3138 520.04 62.3719 504.942C51.8956 490.415 45.7495 474.799 46.704 457.273C47.0272 451.097 48.4617 445.008 50.9527 439.239C52.3263 436.053 52.0004 434.113 48.6247 432.058C26.7059 418.974 17.8127 399.57 15.2402 376.939C13.2147 359.185 17.2074 342.064 20.618 324.839C25.4487 300.455 30.9197 275.977 27.707 251.167C26.5429 242.264 29.6975 237.253 35.7854 231.193C51.5115 215.514 61.755 196.639 72.2313 177.983C82.8589 159.067 91.8452 139.31 108.002 123.247C120.981 110.36 136.23 100.886 155.727 97.5971C161.326 96.6424 166.925 97.2443 172.524 97.0679C174.724 96.9952 176.354 97.0679 177.181 94.4427C186.586 64.8597 211.368 50.3327 242.366 42.1873C257.499 38.1924 273.365 36.9991 288.928 34.9239C317.819 30.9912 347.071 28.2622 373.332 15.3852C375.509 14.3475 376.906 14.9079 378.593 15.7172C397.765 24.8173 418.729 28.4698 439.798 31.8213C465.407 35.8992 491.621 36.6982 516.38 44.3456C539.742 51.609 560.124 62.9089 569.565 84.3257C573.604 93.488 577.55 97.1924 589.447 97.898C618.827 99.6205 638.557 116.202 654.12 137.006C665.085 151.648 672.477 168.032 681.359 183.7C690.531 199.856 699.832 215.939 712.869 229.999C713.113 230.269 713.276 230.632 713.579 230.809C725.126 237.398 724.719 247.214 722.612 257.466C720.773 266.431 722.612 275.365 723.532 284.206C725.988 307.77 732.786 330.816 735.405 354.339C737.733 374.739 735.766 394.942 723.31 413.173C717.888 421.186 710.477 427.983 701.648 433.044C699.052 434.538 697.83 436.105 698.947 438.979C709.365 465.958 701.008 489.658 682.825 511.531C672.279 524.211 659.009 534.618 646.368 545.555C629.28 560.331 611.284 574.609 599.376 593.214C593.183 602.884 586.129 607.741 573.767 610.055C548.286 614.838 525.902 626.895 503.017 637.541C485.952 645.479 469.26 654.144 450.135 657.879C442.126 659.477 434.025 660.867 429.811 660.743ZM425.562 652.442C433.547 652.649 441.265 651.238 448.983 649.63C467.083 645.843 482.902 637.479 499.129 629.915C523.073 618.812 546.668 606.859 573.208 601.349C581.356 599.657 586.199 596.524 590.413 590.101C602.833 571.122 620.91 556.305 638.243 541C650.337 530.322 663.328 520.372 673.804 508.335C691.672 487.8 700.425 465.387 689.379 439.643C687.051 434.227 687.796 430.979 693.732 427.742C717.246 414.917 725.79 394.869 726.651 371.377C727.606 345.551 718.689 320.855 715.698 295.474C714.056 281.477 711.705 267.541 713.509 253.336C713.963 249.787 716.291 245.522 712.531 242.098C699.518 230.259 690.135 216.157 681.324 201.796C670.254 183.679 661.535 164.442 649.825 146.646C639.558 131.082 626.44 117.987 607.477 110.329C596.617 105.919 585.209 104.944 573.569 105.514C569.285 105.722 567.388 104.477 566.329 100.793C565.031 95.9614 563.222 91.2503 560.928 86.7227C550.707 67.6301 532.211 57.6688 510.583 51.443C487.361 44.8125 462.916 43.8683 439.111 40.1328C418.613 36.9161 398.219 33.3882 379.28 25.2946C378.212 24.7534 377.001 24.4776 375.772 24.4958C374.544 24.5141 373.343 24.8258 372.296 25.3984C364.005 29.0197 355.313 31.8609 346.361 33.8758C317.889 40.8384 288.404 42.6024 259.501 47.3651C223.591 53.2589 194.315 66.717 184.409 101.405C183.513 104.518 181.697 105.296 178.286 105.265C171.151 105.203 163.969 104.695 156.88 105.95C135.217 109.8 119.98 121.93 107.536 137.214C94.313 153.463 86.1764 172.224 75.9213 189.926C65.282 208.334 54.2469 226.482 38.0436 241.631C37.4546 242.066 37.0014 242.628 36.7281 243.264C36.4548 243.901 36.3707 244.589 36.4838 245.263C37.9837 254.615 38.3739 264.082 37.6478 273.508C36.6235 291.22 33.2012 308.6 29.8954 326.012C26.8805 341.877 23.0625 357.598 24.3429 373.93C26.1239 396.55 35.3896 415.259 57.6343 427.617C62.4883 430.325 63.6523 433.117 61.3243 438.066C51.4765 459.141 55.6554 479.032 68.5646 498.021C79.553 514.187 95.4887 526.411 110.353 539.464C130.223 556.907 150.408 574.09 163.899 596.264C164.392 597.088 165.108 597.79 165.982 598.304C166.856 598.819 167.861 599.131 168.904 599.211C187.121 602.065 204.023 608.311 220.448 615.533C241.191 624.654 261.561 634.47 282.351 643.477C296.29 649.522 311.646 652.514 327.143 652.203C343.3 651.923 357.606 646.372 369.875 637.054C373.646 634.18 376.265 634.159 380.06 637.054C393.074 647.046 408.09 652.743 425.562 652.442Z" fill="url(#paint7_linear_446_1251)" fill-opacity="0.28"/>
<path d="M594.987 229.003C595.476 241.185 599.969 251.831 604.299 262.529C609.258 274.815 615.94 286.571 617.907 299.77C619.606 311.402 618.047 322.463 611.516 332.777C610.352 334.583 609.188 336.035 610.655 338.391C620.13 353.686 619.094 369.52 613.1 385.458C608.245 398.345 601.459 410.61 597.21 423.705C594.882 430.969 592.554 438.315 593.567 446.035C593.668 446.36 593.695 446.699 593.646 447.033C593.598 447.367 593.474 447.688 593.283 447.979C593.092 448.269 592.837 448.522 592.534 448.723C592.231 448.924 591.885 449.069 591.518 449.148C582.776 452.261 576.63 458.269 570.379 464.173C559.065 474.861 550.381 487.499 538.857 498.021C526.763 509.072 512.573 516.096 494.74 515.961C492.925 515.961 491.4 516.148 490.399 517.85C478.863 537.378 458.97 544.175 435.945 546.582C422.846 547.787 409.858 549.812 397.078 552.642C389.151 554.499 381.608 557.052 374.961 561.368C368.356 557.483 361.076 554.598 353.415 552.829C337.992 549.311 322.114 548.232 306.505 545.793C286.204 542.618 268.871 535.21 258.5 518.286C258.168 517.678 257.629 517.179 256.96 516.86C256.291 516.541 255.526 516.419 254.775 516.511C233.974 516.439 218.364 507.245 205.338 493.798C194.722 482.83 185.445 470.855 173.735 460.697C168.275 455.955 159.394 453.434 156.274 448.598C153.155 443.763 155.262 435.711 153.225 429.236C149.104 416.099 142.748 403.7 137.126 391.061C131.05 377.458 128.396 363.616 132.772 349.12C134.344 343.932 139.675 339.491 139.501 334.593C139.326 329.851 135.194 325.161 134.099 320.066C131.469 307.832 133.762 296.066 138.325 284.496C143.773 270.706 150.512 257.31 154.051 242.939C155.518 237.003 153.655 230.01 156.228 225.299C158.614 220.951 166.704 219.073 171.442 214.84C182.046 205.407 190.73 194.606 199.681 183.98C207.562 174.641 216.385 166.268 228.212 160.831C235.925 157.146 244.558 155.258 253.308 155.341C255.636 155.341 257.743 155.528 259.245 153.204C270.559 135.803 289.044 128.975 310.125 126.039C325.257 123.963 340.483 122.718 355.254 118.962C361.424 117.395 367.43 115.517 372.715 112.217C373.879 111.46 374.903 110.401 376.696 111.615C389.651 120.342 405.354 121.421 420.522 123.849C432.5 125.769 444.757 126.35 456.409 129.888C470.226 134.039 481.738 140.939 489.456 152.229C490.538 153.816 491.528 154.729 493.961 154.594C513.749 153.422 529.161 161.235 542.117 173.604C553.757 184.707 562.72 197.802 574.477 208.883C579.948 214.072 585.535 219.177 592.904 222.103C597.769 223.971 594.184 227.167 594.987 229.003ZM513.609 340.113V339.076H428.251C425.387 339.076 422.605 338.505 422.175 342.583C421.011 353.831 414.713 362.765 404.865 369.655C402.328 371.429 402.037 372.643 403.643 375.071C432.69 419.247 461.663 463.45 490.562 507.681C491.046 508.598 491.842 509.355 492.836 509.845C493.831 510.335 494.974 510.533 496.102 510.41C506.81 510.063 517.177 506.968 525.96 501.497C534.271 496.464 540.289 489.46 546.33 482.498C554.979 472.526 563.675 462.596 573.965 453.89C577.911 450.549 584.127 448.826 586.513 445.101C589.027 441.169 587.84 435.41 589.097 430.502C593.032 415.124 600.481 400.888 606.86 386.309C613.239 371.73 612.797 357.784 605.522 343.693C604.055 340.86 602.274 340.041 598.933 340.051C570.484 340.207 542.07 340.113 513.609 340.113ZM374.787 117.976C373.937 118.36 373.064 118.723 372.226 119.149C364.159 123.133 355.382 125.375 346.431 126.775C333.685 128.851 320.822 130.417 308.018 132.285C290.371 134.869 276.088 142.309 265.787 155.559C264.029 157.832 263.831 159.648 265.449 162.128C294.162 206.269 322.805 250.458 351.378 294.696C353.124 297.394 354.509 297.653 357.641 296.47C362.899 294.429 368.565 293.352 374.3 293.302C380.035 293.252 385.723 294.231 391.025 296.18C395.239 297.684 396.764 296.989 398.894 293.7C425.527 252.457 452.265 211.27 479.108 170.138C486.732 158.423 486.592 157.22 475.79 147.31L475.383 146.947C463.975 136.311 449.169 133.074 433.477 131.113C413.991 128.685 394.086 127.533 376.312 118.734C375.881 118.464 375.369 118.246 374.787 117.976ZM235.324 339.854V339.076C206.875 339.076 178.426 339.169 149.989 338.982C145.6 338.982 143.493 340.269 141.84 343.776C135.345 357.722 135.578 371.502 141.712 385.499C148.021 399.912 155.273 414.014 159.755 429.08C161.454 434.798 159.755 441.708 163.002 446.087C166.401 450.715 173.63 453.247 178.414 457.553C190.287 468.251 200.03 480.547 210.705 492.137C218.678 500.802 228.514 506.882 240.725 509.777C254.833 513.118 256.37 512.548 263.633 501.476L264.518 500.148C291.244 459.175 318.005 418.206 344.801 377.24C346.85 374.127 347.374 372.363 343.486 369.8C334.034 363.574 328.784 354.734 327.189 344.471C326.584 340.715 325.467 339.729 321.264 339.76C292.606 339.937 263.971 339.854 235.324 339.854ZM512.201 333.887V334.136C540.266 334.136 568.331 334.137 596.396 334.209C599.888 334.209 601.925 333.379 603.776 330.609C613.262 316.486 613.472 301.98 606.953 286.955C600.435 271.93 591.553 257.31 589.039 241.299C587.456 231.213 583.219 224.697 574.256 218.585C562.406 210.409 554.199 198.995 544.899 188.618C538.508 181.49 532.269 174.185 523.795 168.8C515.844 163.736 507.079 161.038 497.162 161.536C493.937 161.713 492.04 162.947 490.387 165.479C461.721 209.426 432.954 253.322 404.086 297.166C402.316 299.863 402.083 301.316 405.25 303.391C410.012 306.534 413.979 310.534 416.895 315.131C419.811 319.729 421.609 324.822 422.175 330.079C422.629 333.856 424.864 333.877 427.995 333.867C456.071 333.811 484.14 333.818 512.201 333.887ZM486.196 514.249C485.626 513.212 485.184 512.257 484.613 511.385C455.66 466.975 426.718 422.557 397.788 378.132C396.38 375.974 395.297 375.331 392.434 376.431C386.931 378.612 380.981 379.753 374.959 379.784C368.937 379.814 362.973 378.732 357.443 376.607C354.172 375.393 352.856 375.943 351.192 378.568C322.952 423.138 294.628 467.66 266.217 512.133C264.448 514.903 264.949 516.729 266.904 519.054C276.179 530.338 289.996 537.98 305.457 540.377C322.731 543.334 340.378 544.206 357.408 548.616C363.135 550.1 386.509 550.12 392.189 548.678C407.147 544.87 422.57 543.49 437.866 541.415C456.49 538.976 472.112 531.962 483.426 518.203C484.439 516.978 485.265 515.629 486.196 514.249ZM236.465 332.217V333.504C264.925 333.504 293.398 333.504 321.858 333.576C325.35 333.576 326.607 333.016 327.12 329.54C327.793 324.379 329.647 319.395 332.566 314.898C335.485 310.4 339.408 306.484 344.091 303.391C347.153 301.316 347.129 299.874 345.36 297.166C316.647 253.225 287.973 209.24 259.338 165.209C257.801 162.844 256.242 161.868 252.947 162.096C239.09 162.895 226.004 168.067 216.036 176.686C209.052 182.517 203.72 189.542 197.819 196.152C189.507 205.49 181.58 215.286 170.557 222.155C164.481 225.942 160.814 229.709 161.419 236.516C161.629 238.819 160.453 241.227 159.836 243.572C155.855 258.576 148.254 272.408 142.376 286.81C136.497 301.212 136.556 315.148 144.82 328.834C146.229 331.19 147.788 332.321 151.059 332.31C179.555 332.165 207.992 332.217 236.465 332.217ZM333.801 336.637C333.801 356.715 352.484 373.38 374.763 373.204C382.892 373.222 390.844 371.09 397.612 367.077C404.381 363.063 409.661 357.35 412.784 350.66C415.907 343.97 416.732 336.605 415.156 329.496C413.579 322.388 409.671 315.856 403.928 310.729C398.184 305.601 390.862 302.109 382.89 300.693C374.918 299.278 366.654 300.003 359.145 302.778C351.635 305.552 345.218 310.25 340.707 316.278C336.195 322.306 333.792 329.391 333.801 336.637Z" fill="url(#paint8_linear_446_1251)" fill-opacity="0.28"/>
<path d="M224.871 116.347C224.871 110.122 222.869 105.857 221.53 101.509C220.564 98.3962 222.008 97.2963 224.557 95.8436C227.292 94.2872 228.608 95.3456 230.307 97.0369C233.892 100.586 237.664 103.999 242.541 108.586C241.959 102.817 240.073 98.8113 238.502 94.8268C236.931 90.8422 237.338 88.1755 242.937 87.3454C245.672 96.0304 248.396 104.798 251.213 113.546C252.028 116.067 250.119 116.752 248.326 117.852C246.173 119.17 244.834 118.443 243.403 117.043C239.817 113.649 236.162 110.339 232.507 107.019C231.483 106.095 230.75 104.601 228.689 105.234C230.202 110.422 231.553 115.683 233.345 120.799C234.288 123.559 233.811 125.063 230.854 126.651C227.898 128.239 226.769 126.578 225.22 125.074C219.47 119.491 213.673 113.95 207.981 108.326C207.027 107.382 204.489 106.251 207.131 104.726C208.866 103.688 210.728 101.945 213.045 104.446C216.478 108.212 220.238 111.74 224.871 116.347ZM225.116 116.347C225.244 116.223 225.476 116.098 225.488 115.974C225.5 115.849 225.267 115.704 225.139 115.579L224.72 116.129L225.116 116.347Z" fill="url(#paint9_linear_446_1251)" fill-opacity="0.28"/>
<path d="M91.4958 265.819C95.9075 267.043 100.296 268.371 104.754 269.471C107.082 270.042 107.897 270.934 107.187 273.124C106.419 275.49 104.975 275.448 102.834 274.815C94.953 272.48 87.0376 270.25 79.1571 267.936C77.3063 267.396 74.2332 267.313 75.793 264.48C77.0385 262.239 75.665 258.057 80.9962 258.4C86.6767 258.763 92.3689 258.877 99.2134 259.147C94.371 254.996 89.4821 252.682 84.7794 250.275C79.5761 247.608 83.1963 244.672 83.918 241.974C84.9074 238.311 87.7011 240.833 89.4471 241.289C97.0366 243.281 104.58 245.564 112.076 247.681C114.253 248.293 116.045 248.791 115.044 251.531C114.043 254.27 112.355 253.824 110.202 253.077C105.616 251.479 100.808 250.815 94.4059 249.839C99.7023 252.755 103.625 254.841 107.455 257.103C109.538 258.306 112.39 258.753 111.133 262.405C109.876 266.058 107.047 264.574 104.684 264.781C103.914 264.757 103.152 264.628 102.426 264.397C101.157 263.287 99.7372 263.629 98.3171 264.086L92.4154 263.837C90.553 263.432 88.6672 262.924 86.7117 264.096C87.2789 264.722 88.016 265.209 88.8532 265.511C89.6903 265.812 90.5999 265.918 91.4958 265.819Z" fill="url(#paint10_linear_446_1251)" fill-opacity="0.28"/>
<path d="M650.582 419.783C655.925 421.277 660.86 422.792 665.877 424.006C668.357 424.608 668.904 425.583 668.205 427.71C667.507 429.838 666.087 430.024 663.922 429.412C656.181 427.223 648.359 425.262 640.641 422.968C638.976 422.481 635.694 423.072 636.346 419.99C636.8 417.822 637.51 415.736 640.676 415.145C645.402 414.263 649.988 413.069 654.714 411.887C656.309 411.503 658.206 411.554 659.592 409.728C655.029 408.442 650.628 407.259 646.275 405.962C644.18 405.329 640.967 405.796 642.399 401.904C643.691 398.397 645.891 400.109 647.788 400.607C655.417 402.579 663.006 404.654 670.557 406.833C672.198 407.29 674.899 407.082 674.223 409.78C673.723 411.752 673.281 413.682 670.266 414.232C665.156 415.155 660.139 416.494 655.133 417.728C653.667 418.029 651.944 417.874 650.582 419.783Z" fill="url(#paint11_linear_446_1251)" fill-opacity="0.28"/>
<path d="M664.911 286.074C660.255 286.8 655.727 287.505 651.246 288.149C648.917 288.491 646.403 289.705 645.612 286.074C644.82 282.442 647.94 283.064 649.825 282.732C657.403 281.415 665.028 280.252 672.664 279.204C674.305 278.976 676.645 277.233 677.669 279.713C678.589 281.944 678.903 284.258 676.144 286.198C672.047 289.062 668.264 292.289 664.388 295.412C663.596 296.056 662.327 296.45 662.455 298.162C667.6 298.473 672.454 296.823 677.448 296.273C679.462 296.056 681.01 295.558 681.545 298.245C682.081 300.932 680.847 301.503 678.356 301.877C670.359 303.049 662.385 304.409 654.377 305.581C652.747 305.82 650.524 307.345 649.534 304.689C648.731 302.541 648.149 300.538 650.698 298.67C654.319 296.097 657.683 293.285 661.105 290.442C662.467 289.269 664.481 288.595 664.911 286.074Z" fill="url(#paint12_linear_446_1251)" fill-opacity="0.28"/>
<path d="M601.692 500.335C605.754 503.147 609.735 506.042 613.891 508.73C615.951 510.068 615.986 511.137 614.554 512.88C612.89 514.956 611.598 514.291 609.898 513.077C603.345 508.512 596.686 504.081 590.179 499.464C589.015 498.644 586.42 498.094 587.7 496.05C588.864 494.192 590.028 492.117 593.346 492.501C599.771 493.238 606.243 493.653 613.891 494.307C609.817 490.052 605.533 487.801 601.657 485.134C599.678 483.775 598.875 482.727 600.737 480.589C602.6 478.452 603.741 479.417 605.393 480.537C611.807 484.989 618.303 489.326 624.67 493.819C625.985 494.753 628.791 495.24 627.51 497.575C626.416 499.599 624.949 501.259 621.69 500.864C615.218 500.066 608.699 499.619 602.204 499.028C602.018 499.484 601.855 499.91 601.692 500.335Z" fill="url(#paint13_linear_446_1251)" fill-opacity="0.28"/>
<path d="M83.8948 357.058C86.1776 354.221 89.0651 351.813 92.3923 349.971C93.8357 349.172 95.4421 346.37 96.8971 348.145C98.3521 349.919 99.1204 352.98 96.0939 355.076C93.4981 356.861 90.9955 358.77 88.4695 360.648C86.4441 362.153 84.7097 364.021 85.6642 366.407C86.8282 369.292 89.6801 366.999 91.659 367.497C94.3828 368.171 98.9575 364.467 99.6326 370.184C99.877 372.156 99.3183 372.975 97.0252 373.152C88.163 373.809 79.3163 374.539 70.4852 375.341C67.9243 375.58 66.9931 374.646 66.8301 372.54C66.5507 368.763 66.1666 364.986 65.8989 361.209C65.5729 356.799 66.2481 352.804 71.8937 351.299C77.5392 349.795 81.1128 352.036 83.8948 357.058ZM71.3466 362.941C72.4175 365.266 69.9497 370.049 76.9106 368.991C83.2081 368.026 79.5879 364.446 79.6112 361.997C79.6112 359.351 78.7964 356.56 74.7688 357.068C71.2185 357.483 71.2302 360.129 71.3466 362.941Z" fill="url(#paint14_linear_446_1251)" fill-opacity="0.28"/>
<path d="M633.354 211.529C628.861 213.48 624.344 215.389 619.909 217.423C618.117 218.243 616.895 218.606 615.789 216.531C614.811 214.673 614.543 213.553 616.953 212.453C624.205 209.215 631.294 205.698 638.557 202.471C640.164 201.765 641.886 199.358 643.982 201.506C646.077 203.654 646.414 205.77 644.366 208.458C640.874 212.992 637.998 217.88 634.355 223.379C640.303 222.414 644.366 219.405 648.952 217.516C650.884 216.717 652.444 215.441 653.992 218.212C655.378 220.681 654.202 221.501 652.025 222.487C644.785 225.755 637.661 229.221 630.386 232.417C629 233.019 627.336 235.384 625.508 232.998C624.158 231.213 622.691 229.47 624.519 226.948C628.011 222.175 630.979 217.164 634.169 212.256C634.25 211.861 634.332 211.467 634.425 211.073L633.354 211.529Z" fill="url(#paint15_linear_446_1251)" fill-opacity="0.28"/>
<path d="M676.004 335.901C674.154 333.131 673.339 330.713 676.912 328.306C679.24 326.718 679.054 324.01 678.332 321.571C677.953 320.036 677.026 318.652 675.689 317.626C674.351 316.601 672.677 315.99 670.918 315.885C666.005 315.366 661.035 315.563 657.857 319.652C655.529 322.599 655.983 325.878 657.799 328.99C658.672 330.505 659.766 331.543 661.85 331.159C664.108 330.744 663.538 329.167 663.468 327.859C663.375 326.168 662.641 324.446 665.796 324.176C669.439 323.875 668.543 326.251 668.962 327.849C668.98 328.022 668.98 328.195 668.962 328.368C669.742 336.731 666.634 339.201 657.322 337.364C656.614 337.198 655.96 336.885 655.413 336.451C650.046 332.301 649.022 320.617 653.515 315.283C658.439 309.431 669.928 307.688 677.215 311.703C683.873 315.377 686.527 324.477 682.861 330.962C682.218 332.198 681.265 333.286 680.077 334.142C678.888 334.999 677.495 335.6 676.004 335.901Z" fill="url(#paint16_linear_446_1251)" fill-opacity="0.28"/>
<path d="M625.159 446.274C625.403 439.654 627.929 433.957 634.844 430.875C641.42 427.949 647.788 429.703 653.375 433.366C662.687 439.446 661.314 453.475 651.152 457.688C648.928 458.601 645.623 459.919 644.412 457.771C643.201 455.623 644.412 452.915 648.277 452.209C651.676 451.586 653.049 448.951 653.585 446.045C654.225 442.538 652.49 439.934 649.301 438.201C645.273 436.001 640.978 434.227 636.229 436.572C632.632 438.346 631.573 441.397 631.328 444.873C631.195 445.647 631.385 446.438 631.864 447.094C632.343 447.751 633.076 448.227 633.924 448.432C636.357 449.158 636.136 447.104 636.962 446.18C637.963 445.06 637.556 442.538 640.745 443.732C643.737 444.842 643.178 446.357 642.037 448.214C641.863 448.515 641.77 448.857 641.618 449.179C637.87 456.878 635.1 457.48 627.138 452.417C624.449 450.704 625.659 448.37 625.159 446.274Z" fill="url(#paint17_linear_446_1251)" fill-opacity="0.28"/>
<path d="M407.892 82.8834C408.509 76.8236 408.986 72.1335 409.487 67.4434C409.696 65.5549 409.592 63.6145 412.921 63.8428C416.029 64.0607 416.064 65.503 415.796 67.682C414.946 74.6965 414.422 81.742 413.468 88.746C413.258 90.3129 414.411 92.99 411.035 93.1768C408.206 93.3428 405.995 92.6268 404.644 89.8874C402.03 84.575 398.87 79.4897 395.204 74.6965C394.653 79.2828 394.11 83.8726 393.574 88.4659C393.377 90.2091 393.411 91.7656 390.373 91.5788C387.335 91.392 387.114 90.0016 387.37 87.8433C388.197 80.6525 388.872 73.4513 389.698 66.2605C389.873 64.6936 389.198 62.3901 392.026 62.2863C394.494 62.2033 396.764 62.4731 398.079 65.171C400.885 70.7534 404.144 76.1491 407.892 82.8834Z" fill="url(#paint18_linear_446_1251)" fill-opacity="0.28"/>
<path d="M612.727 163.414C612.82 170.906 606.907 177.661 599.62 180.255C593.276 182.507 588.748 181.293 583.324 175.845C575.269 167.772 575.269 167.772 584.488 160.509C588.841 157.105 593.171 153.691 597.548 150.319C598.479 149.603 599.678 148.005 600.854 149.282C605.44 154.221 611.912 158.081 612.727 163.414ZM606.546 164.628C606.29 161.619 603.857 158.932 600.947 157.157C598.689 155.787 597.292 158.776 595.651 159.928C592.485 162.159 589.633 164.753 586.455 166.963C584.371 168.405 584.43 169.578 586.117 171.113C588.62 173.417 590.587 176.519 595.127 175.451C599.667 174.382 606.209 168.405 606.546 164.628Z" fill="url(#paint19_linear_446_1251)" fill-opacity="0.28"/>
<path d="M80.1705 323.013C81.1599 321.321 78.1567 317.908 82.5684 317.015C88.633 315.78 94.3135 317.555 95.978 321.083C99.0976 327.703 99.4701 334.24 93.9177 340.04C89.5758 344.575 80.4964 345.778 73.3958 343.153C63.5015 339.501 60.475 325.804 68.3322 319.713C69.8804 318.52 72.1503 316.247 74.1291 318.323C75.363 319.672 75.8519 322.172 73.1048 324.185C72.1954 324.825 71.4388 325.62 70.8795 326.524C70.3202 327.429 69.9695 328.423 69.848 329.45C69.7265 330.477 69.8367 331.515 70.1722 332.504C70.5076 333.492 71.0614 334.41 71.801 335.205C75.1069 338.806 84.5123 339.428 88.9822 336.346C92.3928 333.991 93.2891 328.46 90.9727 325.036C90.6869 324.496 90.2255 324.045 89.6485 323.741C89.0714 323.438 88.4053 323.296 87.7367 323.334C86.2584 323.386 85.9441 324.248 85.6647 325.347C85.2107 327.174 86.8287 330.38 82.3239 329.778C77.8191 329.176 81.0551 326.178 80.2054 324.434C80.1157 323.965 80.104 323.486 80.1705 323.013Z" fill="url(#paint20_linear_446_1251)" fill-opacity="0.28"/>
<path d="M671.092 349.66C674.584 356.757 686.225 359.175 682.29 369.717C679.089 366.604 676.179 363.937 673.572 361.084C671.651 359.009 670.01 358.697 667.321 360.181C661.943 363.138 656.309 365.732 650.652 368.555C649.243 363.315 650.978 360.14 656.332 358.635C658.001 358.174 659.574 357.473 660.989 356.56C662.525 355.522 666.122 355.688 665.261 353.364C664.894 352.193 664.145 351.145 663.108 350.354C662.072 349.563 660.795 349.065 659.44 348.923C657.706 348.819 655.948 348.705 654.225 348.715C651.56 348.715 651.653 347.221 651.897 345.602C652.142 343.984 651.967 342.489 654.679 342.655C663.736 343.278 672.792 343.797 681.848 344.316C684.048 344.44 684.828 345.353 684.723 347.294C684.618 349.234 683.967 350.562 681.324 350.344C677.983 350.002 674.771 349.867 671.092 349.66Z" fill="url(#paint21_linear_446_1251)" fill-opacity="0.28"/>
<path d="M141.188 501.435C133.576 498 122.948 503.074 118.362 492.75C123.018 493.237 127.08 493.476 131.096 494.161C134.169 494.69 135.601 493.964 136.579 491.245C138.499 485.86 140.874 480.609 143.156 475.079C147.917 478.316 149.174 481.761 146.031 486.171C145.184 487.525 144.52 488.964 144.052 490.456C143.47 492.023 141.305 494.202 142.748 495.043C143.884 495.713 145.205 496.091 146.566 496.137C147.927 496.183 149.276 495.894 150.466 495.302C151.961 494.508 153.357 493.576 154.633 492.521C156.589 490.871 157.799 491.39 159.289 493.144C160.779 494.897 161.07 495.904 158.858 497.294C151.672 501.964 144.576 506.74 137.568 511.624C135.473 513.087 134.425 512.714 132.982 510.981C131.539 509.248 131.248 508.127 133.448 506.768C136.008 505.201 138.453 503.344 141.188 501.435Z" fill="url(#paint22_linear_446_1251)" fill-opacity="0.28"/>
<path d="M334.64 88.5384C338.423 88.0922 341.88 87.7187 345.326 87.2725C347.503 86.9924 349.54 86.4943 349.982 89.4619C350.424 92.4296 348.096 91.973 346.35 92.1909C341.182 92.8654 335.874 93.0937 330.845 94.1209C326.503 95.0029 325.025 93.8407 324.594 90.0638C323.818 83.2015 322.813 76.3635 321.579 69.5497C321.067 66.7273 321.649 65.3991 325.072 65.1397C330.892 64.6313 336.584 63.8738 342.323 63.1267C344.092 62.8984 345.372 62.8569 345.547 64.8803C345.675 66.5302 345.896 67.9102 343.219 68.1281C339.378 68.4394 335.571 69.1658 331.73 69.4874C328.529 69.7261 328.82 71.3344 328.994 73.4201C329.181 75.7755 330.228 76.2943 332.661 75.8896C335.885 75.3397 339.18 75.1114 342.416 74.6133C344.383 74.3124 345.663 74.3643 346.117 76.5537C346.571 78.7431 345.628 79.345 343.498 79.5525C340.239 79.8742 337.003 80.4967 333.732 80.6731C330.461 80.8495 330.1 82.4683 330.612 84.8237C331.125 87.1791 331.008 89.6591 334.64 88.5384Z" fill="url(#paint23_linear_446_1251)" fill-opacity="0.28"/>
<path d="M466.92 74.2498C463.056 76.3251 459.936 78.4003 456.607 79.853C453.278 81.3057 452.382 83.1631 453.778 86.359C455.932 91.3085 457.655 96.4137 459.68 101.768C454.163 102.048 450.589 100.73 449.914 95.4798C449.714 93.767 449.178 92.0987 448.331 90.5511C447.458 89.0361 448.447 85.9232 445.619 86.2345C444.25 86.3349 442.947 86.8004 441.88 87.5703C440.813 88.3403 440.031 89.379 439.635 90.5511C439.141 91.8528 438.752 93.1844 438.471 94.5356C438.169 96.9533 436.725 97.2438 434.455 96.7042C432.186 96.1647 431.08 95.6666 431.848 93.2074C434.234 85.6015 436.353 77.923 438.495 70.2549C439.065 68.1796 440.113 67.391 442.592 68.0447C444.827 68.6258 445.921 69.4455 445.188 71.6765C444.268 74.4366 443.57 77.2486 442.708 80.2992C451.02 78.7946 455.932 68.8748 466.92 74.2498Z" fill="url(#paint24_linear_446_1251)" fill-opacity="0.28"/>
<path d="M201.079 143.284C199.13 143.33 197.215 142.825 195.608 141.842C194.339 141.053 191.813 140.431 193.466 138.501C194.537 137.245 195.701 134.931 198.541 136.477C202.103 138.418 205.211 137.422 207.912 134.983C209.53 133.51 210.24 131.621 208.971 129.795C207.702 127.969 205.63 128.384 203.721 128.986C200.811 129.899 197.982 131.061 195.014 131.787C190.94 132.825 187.215 132.036 184.84 128.674C182.466 125.312 183.106 121.795 186.004 118.682C190.102 114.262 196.294 111.979 200.741 113.494C202.371 114.064 205.304 114.635 204.361 116.607C203.581 118.246 201.754 120.633 198.483 119.18C197.631 118.786 196.666 118.627 195.712 118.723C194.47 118.923 193.3 119.385 192.298 120.068C191.296 120.752 190.491 121.639 189.95 122.656C189.607 123.088 189.468 123.623 189.564 124.145C189.66 124.668 189.983 125.136 190.463 125.447C192.558 126.63 194.537 125.541 196.516 124.939C199.192 123.957 201.942 123.143 204.745 122.5C206.405 122.201 208.124 122.297 209.728 122.779C211.333 123.261 212.767 124.111 213.885 125.245C215.003 126.378 215.766 127.754 216.097 129.235C216.427 130.715 216.314 132.247 215.769 133.676C214.104 138.376 206.526 143.305 201.079 143.284Z" fill="url(#paint25_linear_446_1251)" fill-opacity="0.28"/>
<path d="M114.463 487.199C113.101 487.302 112.833 486.317 112.379 485.632C109.189 480.921 106.058 476.169 102.88 471.437C101.879 469.964 101.46 468.864 103.602 467.639C106.128 466.197 106.943 467.473 107.967 469.082C109.585 471.624 111.459 474.062 112.914 476.677C114.288 479.126 115.603 479.883 118.641 478.296C121.936 476.563 120.294 475.121 119.095 473.357C117.489 471.012 116.011 468.583 114.358 466.259C113.089 464.474 113.834 463.561 115.65 462.576C117.466 461.59 118.362 462.295 119.235 463.675C120.55 465.751 122.029 467.826 123.356 469.901C124.869 472.288 125.684 474.685 130.037 472.329C134.228 470.057 132.808 468.303 131.027 465.844C129.246 463.385 127.884 461.102 126.231 458.778C125.067 457.159 124.45 455.914 126.953 454.627C129.199 453.475 129.956 454.44 130.934 455.935C134.042 460.697 137.243 465.408 140.432 470.13C141.387 471.541 142.143 472.775 139.908 473.938C131.888 478.088 123.926 482.332 115.941 486.545C115.452 486.815 114.87 487.001 114.463 487.199Z" fill="url(#paint26_linear_446_1251)" fill-opacity="0.28"/>
<path d="M491.586 83.1539C497.849 83.1539 504.635 86.9101 505.811 91.2474C506.323 93.1463 507.114 95.9272 504.542 96.4356C503.923 96.5624 503.281 96.5664 502.66 96.4473C502.039 96.3282 501.456 96.0889 500.95 95.7463C500.445 95.4037 500.03 94.9663 499.736 94.465C499.441 93.9637 499.274 93.4108 499.246 92.8454C498.966 89.6391 496.021 88.8609 493.076 88.3109C491.668 88.0411 490.306 88.176 489.584 89.4523C489.272 89.9991 489.195 90.6285 489.367 91.2225C489.538 91.8165 489.946 92.3344 490.515 92.6794C492.983 94.6094 495.579 96.4148 498.012 98.376C501.958 101.562 502.889 105.37 500.235 109.551C497.686 113.557 493.623 114.49 488.781 113.577C481.238 112.145 475.977 107.818 475.977 102.651C475.977 101.178 475.336 98.708 478.305 98.8637C480.144 98.9674 482.856 99.1023 482.646 101.977C482.52 103.026 482.755 104.084 483.321 105.011C483.886 105.938 484.756 106.69 485.813 107.165C488.606 108.524 491.796 109.821 494.101 106.843C496.405 103.865 493.006 102.693 491.121 101.084C488.863 99.4648 486.71 97.7326 484.672 95.896C483.454 94.76 482.682 93.3024 482.472 91.742C482.262 90.1817 482.626 88.6027 483.508 87.2421C484.212 85.8977 485.368 84.7818 486.815 84.0493C488.263 83.3167 489.93 83.0038 491.586 83.1539Z" fill="url(#paint27_linear_446_1251)" fill-opacity="0.28"/>
<path d="M381.935 61.1136C381.518 61.8465 381.059 62.56 380.561 63.2512C377.581 66.5716 371.668 69.1657 371.901 73.005C372.133 76.8442 376.778 80.175 379.327 83.8171C380.736 85.799 382.877 87.4385 383.296 89.9807C378.291 91.34 374.555 90.4684 372.459 85.9339C371.858 84.6584 371.041 83.4722 370.038 82.4163C368.536 80.8391 368.164 77.0829 365.568 78.0167C364.037 78.6086 362.759 79.6222 361.921 80.9087C361.083 82.1953 360.73 83.6873 360.912 85.1661C361.11 87.4281 362.984 91.0806 357.42 90.8938C355.511 90.8212 354.661 90.5203 354.626 88.6525C354.448 80.3514 354.192 72.0745 353.858 63.8219C353.765 61.4146 355.604 61.5806 357.35 61.4146C359.376 61.2278 360.679 61.6221 360.586 63.8323C360.458 66.8622 360.586 69.892 360.586 73.7936C366.965 69.726 369.351 63.5832 375.497 61.207C377.139 60.5533 379.443 61.1136 381.935 61.1136Z" fill="url(#paint28_linear_446_1251)" fill-opacity="0.28"/>
<path d="M162.828 145.246C161.957 145.078 161.052 145.121 160.207 145.371C159.361 145.621 158.606 146.069 158.021 146.667C156.437 148.151 154.4 149.915 156.077 152.032C157.753 154.148 159.941 152.509 161.745 151.71C164.516 150.496 167.053 148.815 169.894 147.85C176.564 145.588 183.012 149.811 182.931 156.151C182.826 163.415 172.35 170.595 165.063 168.25C163.492 167.752 160.57 167.524 161.664 165.137C162.409 163.498 163.561 161.215 166.832 162.45C171.128 164.079 173.817 161.848 175.854 158.849C176.365 158.207 176.623 157.432 176.587 156.645C176.551 155.858 176.224 155.104 175.656 154.501C174.317 152.986 172.571 153.256 170.941 153.993C168.02 155.311 165.249 156.919 162.269 158.143C158.184 159.814 154.261 159.482 151.258 156.224C148.254 152.966 148.685 149.448 151.258 146.2C154.086 142.631 157.439 139.404 162.816 139.258C165.226 139.186 168.741 139.383 168.637 142.05C168.617 142.653 168.429 143.242 168.091 143.764C167.753 144.287 167.274 144.726 166.699 145.043C166.123 145.36 165.468 145.544 164.792 145.58C164.116 145.615 163.442 145.5 162.828 145.246Z" fill="url(#paint29_linear_446_1251)" fill-opacity="0.28"/>
<path d="M125.148 193.806C122.518 192.333 120.248 190.828 117.745 189.718C114.695 188.359 114.532 186.833 116.418 184.478C117.582 183.005 118.467 182.953 120.096 183.866C127.767 188.182 135.473 192.457 143.261 196.618C145.67 197.915 145.03 199.067 143.913 200.769C142.609 202.74 141.363 203.021 139.35 201.609C137.999 200.655 136.242 200.136 134.961 199.119C131.248 196.183 129.409 197.251 126.755 200.748C123.437 205.117 123.984 207.244 129.141 209.651C131.178 210.595 136.835 210.626 133.704 215.42C132.54 217.174 131.609 217.963 129.257 216.603C121.808 212.307 114.23 208.178 106.629 204.089C104.3 202.875 104.475 201.724 105.721 199.939C106.966 198.154 108.049 197.397 110.132 198.901C111.166 199.697 112.348 200.326 113.624 200.759C115.429 201.34 117.023 204.193 118.874 202.46C121.307 200.126 122.844 197.033 125.148 193.806Z" fill="url(#paint30_linear_446_1251)" fill-opacity="0.28"/>
<path d="M101.518 408.141C107.094 408.224 110.831 411.576 112.763 417.615C114.521 423.208 113.159 427.524 108.34 429.776C101.635 432.889 94.1732 434.331 87.0959 436.614C84.6398 437.413 84.2673 435.95 83.6038 434.362C82.9403 432.775 82.789 431.498 85.1287 430.824C90.8325 429.184 96.4664 427.368 102.17 425.719C106.419 424.484 108.188 422.097 106.826 418.216C105.464 414.336 102.17 413.641 98.096 414.938C92.4505 416.722 86.7351 418.32 81.0662 420.043C79.262 420.593 78.1561 420.344 77.7254 418.486C77.3995 417.085 75.6651 415.373 78.2725 414.606C86.1181 412.209 93.7775 409.251 101.518 408.141Z" fill="url(#paint31_linear_446_1251)" fill-opacity="0.28"/>
<path d="M100.901 287.101C101.891 286.81 102.903 287.101 102.671 288.543C102.391 290.307 103.125 293.202 100.459 293.296C93.4748 293.545 93.8007 297.882 92.8695 302.147C92.1827 305.363 93.114 307.096 96.3616 308.082C100.121 309.223 99.586 311.963 98.387 313.965C96.7341 316.705 94.8134 313.965 93.3817 313.249C85.9319 309.638 78.6334 305.799 71.265 302.053C69.2513 301.016 67.2026 300.279 67.9126 297.456C68.5179 295.059 69.3444 293.596 72.3941 293.026C81.7646 291.262 91.1118 289.155 100.901 287.101ZM87.2007 303.63C87.2007 300.683 89.2028 297.342 87.6197 296.678C84.4303 295.35 80.7519 297.104 76.9804 298.121C79.8323 300.683 83.2779 301.721 87.2007 303.63Z" fill="url(#paint32_linear_446_1251)" fill-opacity="0.28"/>
<path d="M99.6208 375.394C101.739 379.005 102.205 381.682 97.7002 383.84C92.6483 386.258 96.8271 389.952 96.8155 393.044C96.8155 395.285 97.8515 397.194 100.901 397.049C105.86 396.821 106.361 399.737 106.489 403.7C95.5234 402.113 84.7212 400.587 73.8957 398.958C71.3464 398.574 71.7422 396.406 71.1951 394.808C70.4501 392.733 71.9634 391.695 73.6861 390.72C82.2767 385.77 90.7625 380.675 99.6208 375.394ZM80.682 393.915C82.4862 395.316 84.7212 395.15 86.7582 395.233C88.2133 395.296 90.553 396.81 91.0652 394.455C91.4132 392.754 91.031 390.998 89.9943 389.537C88.4461 387.731 86.9911 389.9 85.6873 390.574C83.918 391.498 81.7762 392.1 80.682 393.915Z" fill="url(#paint33_linear_446_1251)" fill-opacity="0.28"/>
<path d="M646.286 384.836C646.554 375.009 651.676 371.066 662.583 372.509C667.937 373.204 673.234 374.273 678.577 375.03C681.033 375.383 681.696 376.369 681.359 378.537C681.021 380.706 679.985 381.422 677.506 380.986C671.814 379.949 666.063 379.284 660.371 378.268C655.866 377.458 653.236 379.004 652.328 382.885C651.42 386.766 653.69 388.644 657.787 389.287C663.502 390.18 669.171 391.29 674.91 392.047C677.843 392.442 678.111 393.759 677.82 395.97C677.483 398.595 675.702 398.45 673.676 398.107C667.414 397.07 661.105 396.125 654.9 394.828C648.696 393.531 646.123 390.449 646.286 384.836Z" fill="url(#paint34_linear_446_1251)" fill-opacity="0.28"/>
<path d="M147.009 196.266C141.666 188.11 136.533 180.068 131.132 172.141C129.653 169.962 130.107 168.488 131.714 166.61C133.32 164.732 134.926 164.659 137.208 165.292C145.868 167.689 154.575 169.92 163.236 172.317C164.574 172.691 167.496 172.317 166.413 174.683C165.68 176.281 164.83 178.73 161.559 178.159C159.406 177.775 157.078 175.731 155.087 177.36C152.561 179.435 150.687 182.133 148.511 184.54C147.347 185.806 148.173 186.917 149.046 187.778C152.329 191.057 150.955 193.599 147.009 196.266ZM139.839 172.255L139.117 171.674L138.977 172.919C140.304 174.994 141.62 177.069 142.981 179.093C143.54 179.933 144.227 181.168 145.461 179.923C146.695 178.678 148.58 176.976 148.778 175.347C148.976 173.718 146.276 173.832 144.786 173.365C143.296 172.898 141.492 172.618 139.839 172.255Z" fill="url(#paint35_linear_446_1251)" fill-opacity="0.28"/>
<path d="M595.185 187.114C605.801 184.935 616.138 182.859 626.486 180.66C628.651 180.203 629.687 181.064 630.677 182.517C631.666 183.97 633.144 185.132 631.631 187.114C625.532 195.041 619.548 203.052 613.507 211.052C609.619 208.344 608.851 205.947 611.924 202.263C615.137 198.424 609.596 196.432 608.304 193.474C607.431 191.461 605.708 190.362 603.252 191.399C598.945 193.163 596.78 191.285 595.185 187.114ZM623.483 187.767L622.528 186.844C619.327 187.767 615.393 187.996 613.216 189.864C611.936 190.953 615.335 193.578 617.104 195.882C619.42 192.925 621.446 190.341 623.483 187.767Z" fill="url(#paint36_linear_446_1251)" fill-opacity="0.28"/>
<path d="M112.251 219.343C116.674 219.343 121.121 219.177 125.521 219.437C126.848 219.52 129.77 218.586 129.432 220.951C129.164 222.788 128.827 225.517 125.125 225.465C123.123 225.465 120.469 224.137 119.154 225.963C117.233 228.737 115.671 231.696 114.498 234.783C113.811 236.495 115.929 237.491 117.175 238.404C119.503 240.127 118.898 241.756 117.873 243.842C116.709 246.104 115.871 245.824 114.276 244.319C107.513 237.948 100.739 231.577 93.836 225.33C91.9968 223.66 92.8815 222.269 93.6148 220.692C94.3482 219.115 95.4307 217.828 97.8635 218.015C102.659 218.368 107.478 218.513 112.286 218.741L112.251 219.343ZM100.774 223.753C104.266 226.959 106.151 230.384 109.737 230.809C111.087 230.965 112.554 227.24 112.856 224.583L100.774 223.753Z" fill="url(#paint37_linear_446_1251)" fill-opacity="0.28"/>
<path d="M621.551 451.898C627.999 459.286 634.355 466.632 640.792 473.864C642.445 475.711 642.038 477.091 640.908 478.959C639.779 480.827 638.266 481.491 635.81 481.107C626.882 479.737 617.919 478.575 609.037 477.195C607.687 476.977 604.754 477.745 605.545 475.265C606.046 473.626 606.709 470.461 609.84 471.416C618.198 473.968 618.443 467.203 621.539 463.747C622.819 462.336 621.702 461.091 620.561 460.157C616.79 457.107 618.105 454.564 621.551 451.898ZM633.575 474.456C631.538 472.194 629.699 470.077 627.755 468.043C627.243 467.504 626.428 466.487 625.555 467.597C624.391 469.122 622.598 470.772 622.552 472.401C622.505 474.03 625.206 473.802 626.789 473.989C628.814 474.238 630.781 475.193 633.575 474.456Z" fill="url(#paint38_linear_446_1251)" fill-opacity="0.28"/>
<path d="M285.913 103.366C282.491 105.836 279.418 107.081 276.601 103.252C274.727 100.71 272.376 101.27 270.164 102.526C267.242 104.186 261.655 103.377 262.342 108.534C262.924 112.84 260.083 113.722 255.683 114.314C255.683 104.684 255.683 95.2625 255.683 85.8512C255.683 83.7759 256.847 82.8628 258.838 82.1364C260.828 81.4101 262.33 81.2026 263.96 82.7901C271.142 89.68 278.498 96.4558 285.913 103.366ZM261.748 88.8395C261.748 92.3571 261.748 94.6918 261.748 97.0265C261.748 99.3612 262.4 99.9215 265.135 99.1018C269.419 97.8566 270.606 96.4558 266.683 93.54C264.943 92.0438 263.296 90.4642 261.748 88.8084V88.8395Z" fill="url(#paint39_linear_446_1251)" fill-opacity="0.28"/>
<path d="M547.018 113.494C547.073 115.056 546.671 116.604 545.851 117.986C545.031 119.368 543.821 120.535 542.34 121.373C540.86 122.211 539.16 122.69 537.408 122.764C535.657 122.838 533.914 122.504 532.351 121.795C531.802 121.619 531.287 121.367 530.826 121.047C525.623 116.679 522.364 118.578 519.896 123.61C518.883 125.686 517.719 127.024 514.693 125.24C511.934 123.61 512.853 122.396 514.099 120.653C518.592 114.427 523.085 108.202 527.392 101.82C528.859 99.6618 530.093 98.9251 532.654 100.596C535.925 102.733 539.463 104.549 542.851 106.552C544.178 107.271 545.265 108.294 545.998 109.515C546.731 110.736 547.083 112.11 547.018 113.494ZM535.54 117.115C536.742 117.116 537.897 116.703 538.765 115.962C539.632 115.222 540.146 114.211 540.197 113.141C540.441 111.263 534.702 106.313 532.7 106.863C529.685 107.693 527.753 110.889 528.044 112.684C528.661 115.579 532.665 116.316 535.54 117.115Z" fill="url(#paint40_linear_446_1251)" fill-opacity="0.28"/>
<path d="M312.011 96.5279C312.419 97.8353 310.475 97.9598 308.834 98.489C306.191 99.3503 305.4 98.0117 304.899 96.1232C303.444 90.603 301.651 85.145 300.592 79.5211C299.917 75.9308 298.264 75.5158 294.772 76.4081C293.096 76.8024 290.395 79.0645 289.394 75.2356C288.509 71.8114 291.338 72.1227 293.41 71.6558C298.823 70.421 304.259 69.2485 309.707 68.1071C311.662 67.692 313.769 66.6647 314.758 69.5701C315.829 72.683 313.28 72.7557 311.348 72.9321C306.692 73.3575 305.83 75.2252 307.122 79.0541C308.962 84.4706 310.23 90.0427 312.011 96.5279Z" fill="url(#paint41_linear_446_1251)" fill-opacity="0.28"/>
<path d="M662.793 240.283C665.575 240.21 664.981 242.358 665.691 243.583C666.75 245.367 665.26 245.907 663.642 246.395C657.613 248.21 651.688 250.307 645.588 251.873C641.956 252.807 640.758 254.032 642.492 257.279C643.726 259.583 644.319 262.156 645.297 264.543C646.019 266.328 645.635 267.293 643.458 268.04C640.944 268.891 640.501 267.614 639.966 266.089C638.197 261.368 636.404 256.657 634.646 251.936C634.251 250.898 633.133 249.508 635.089 248.885C644.308 245.969 653.608 243.136 662.793 240.283Z" fill="url(#paint42_linear_446_1251)" fill-opacity="0.28"/>
<path d="M567.865 155.134C567.264 155.905 566.607 156.64 565.898 157.334C564.734 158.372 563.826 157.469 562.953 156.805C558.565 153.433 554.223 149.998 549.753 146.709C547.844 145.308 547.669 144.27 549.392 142.558C555.305 136.644 561.032 130.625 566.853 124.555C568.319 122.999 569.39 122.895 570.985 124.337C572.358 125.582 574.128 126.413 572.044 128.488C567.784 132.711 563.989 137.349 559.484 141.344C556.132 144.312 556.865 146.034 560.252 148.11C562.28 149.434 564.194 150.891 565.98 152.468C566.736 153.09 567.982 153.557 567.865 155.134Z" fill="url(#paint43_linear_446_1251)" fill-opacity="0.28"/>
<path d="M116.104 431.478C118.025 431.249 118.432 432.515 118.921 433.553C121.249 438.067 123.449 442.653 125.905 447.094C127.151 449.284 126.254 450.062 124.124 450.913C116.209 454.077 108.328 457.304 100.506 460.646C98.1778 461.611 97.1883 461.268 96.1872 459.151C95.1862 457.035 95.2444 456.039 97.6656 455.136C103.672 452.811 109.55 450.207 115.568 447.872C118.525 446.741 119.282 445.444 117.571 442.829C116.022 440.474 115.114 437.786 113.613 435.4C111.925 432.681 114.393 432.339 116.104 431.478Z" fill="url(#paint44_linear_446_1251)" fill-opacity="0.28"/>
<path d="M644.773 278.353C642.934 278.841 642.934 277.233 642.55 275.925C642.166 274.618 641.083 272.864 643.714 272.242C652.828 270.166 661.954 268.019 671.057 265.871C673.083 265.383 673.956 266.244 674.235 267.821C674.479 269.212 675.76 271.028 673.152 271.661C663.922 273.902 654.609 276.039 644.773 278.353Z" fill="url(#paint45_linear_446_1251)" fill-opacity="0.28"/>
<path d="M195.188 149.033C195.071 150.621 193.453 151.109 192.429 152.146C191.02 153.474 190.101 152.675 189.146 151.679C183.035 145.453 176.924 139.228 170.755 133.002C169.009 131.248 170.196 130.273 171.663 129.235C172.827 128.405 173.863 127.025 175.469 128.664C181.84 135.16 188.207 141.659 194.571 148.162C194.807 148.434 195.013 148.726 195.188 149.033Z" fill="url(#paint46_linear_446_1251)" fill-opacity="0.28"/>
<path d="M561.754 118.589C561.347 119.17 560.893 119.917 560.334 120.591C555.154 126.817 549.928 133.043 544.783 139.269C543.514 140.815 542.548 141.894 540.266 140.213C538.322 138.792 537.414 137.847 539.3 135.689C544.643 129.567 549.695 123.237 554.933 117.012C555.736 116.067 556.353 114.168 558.425 115.486C559.636 116.316 561.149 116.877 561.754 118.589Z" fill="url(#paint47_linear_446_1251)" fill-opacity="0.28"/>
<path d="M419.963 91.3919C421.442 83.7964 423.013 76.0037 424.433 68.1903C424.91 65.5755 426.61 65.9802 428.67 66.2396C430.731 66.499 431.557 67.3602 431.15 69.3525C429.543 77.1486 428.011 84.9516 426.552 92.7616C426.133 95.0236 424.957 95.4283 422.571 95.1066C419.987 94.7331 419.276 93.6747 419.963 91.3919Z" fill="url(#paint48_linear_446_1251)" fill-opacity="0.28"/>
<path d="M522.037 96.1856C521.641 96.8808 521.327 97.5034 520.966 98.1052C517.02 104.767 513.004 111.387 509.14 118.08C507.976 120.082 507.033 120.912 504.39 119.605C501.748 118.298 502.062 117.125 503.226 115.143C507.359 108.388 511.293 101.529 515.332 94.7225C516.031 93.5604 516.636 91.952 518.685 93.1764C520.058 93.965 522.177 94.1933 522.037 96.1856Z" fill="url(#paint49_linear_446_1251)" fill-opacity="0.28"/>
<path d="M91.4962 265.818C90.593 265.909 89.6788 265.792 88.8411 265.478C88.0034 265.163 87.2703 264.663 86.712 264.023C88.6676 262.851 90.5533 263.359 92.4157 263.764C91.6708 264.293 90.6813 264.729 91.4962 265.818Z" fill="url(#paint50_linear_446_1251)" fill-opacity="0.28"/>
<path d="M98.3175 264.013C99.7376 263.557 101.158 263.214 102.427 264.325C101.793 264.668 101.054 264.823 100.315 264.767C99.5762 264.711 98.8766 264.447 98.3175 264.013Z" fill="url(#paint51_linear_446_1251)" fill-opacity="0.28"/>
<path d="M225.104 116.316L224.72 116.108L225.139 115.558C225.267 115.683 225.488 115.818 225.488 115.953C225.488 116.087 225.244 116.202 225.104 116.316Z" fill="url(#paint52_linear_446_1251)" fill-opacity="0.28"/>
<path d="M633.354 211.53L634.518 211.073C634.425 211.468 634.343 211.862 634.262 212.256L633.354 211.53Z" fill="url(#paint53_linear_446_1251)" fill-opacity="0.28"/>
<path d="M138.977 172.919L139.117 171.674L139.839 172.255C139.582 172.506 139.293 172.729 138.977 172.919Z" fill="url(#paint54_linear_446_1251)" fill-opacity="0.28"/>
<path d="M567.924 404.043C565.992 406.657 564.292 409.905 561.603 412.23C559.962 413.641 557.948 411.119 556.307 410.154C531.734 396.406 507.15 382.657 482.775 368.587C478.864 366.325 477.63 367.123 475.884 370.454C469.342 382.906 462.404 395.254 455.886 407.747C454.256 410.86 452.824 411.306 449.402 409.739C440.52 405.682 440.439 405.838 444.746 397.889C451.598 385.147 458.443 372.409 465.279 359.673C469.936 350.978 475.756 349.463 484.73 354.641C511.201 369.936 537.655 385.261 564.094 400.618C565.456 401.428 567.354 401.812 567.924 404.043Z" fill="url(#paint55_linear_446_1251)" fill-opacity="0.28"/>
<path d="M367.465 220.1C367.465 207.171 367.267 194.232 367.593 181.313C367.698 177.256 366.231 176.468 362.052 176.582C353.904 176.821 345.756 176.395 337.689 176.488C334.686 176.488 333.778 175.783 333.685 173.033C333.324 162.325 333.196 162.262 345.407 162.345C367.069 162.491 388.732 162.823 410.383 162.854C415.633 162.854 418.054 163.705 417.181 169.184C415.924 177.007 416.378 177.018 407.601 176.883C401.024 176.789 394.424 177.09 387.813 176.789C383.75 176.592 383.156 178.107 383.087 181.262C382.947 207.13 382.516 232.998 382.481 258.866C382.481 263.11 381.317 264.449 376.452 264.293C366.453 263.972 366.453 264.231 366.453 255.266V220.09L367.465 220.1Z" fill="url(#paint56_linear_446_1251)" fill-opacity="0.28"/>
<path d="M187.471 384.13C208.749 386.983 229.993 389.712 251.178 392.773C255.136 393.344 256.998 392.514 258.873 389.432C266.159 377.478 273.889 365.732 281.199 353.789C282.863 351.071 284.062 350.51 287.275 352.108C297.367 357.151 297.437 357.016 291.675 366.075C284.916 376.714 278.168 387.364 271.432 398.024C270.408 399.642 269.046 401.137 269.977 403.305C271.328 406.418 272.131 408.825 276.962 405.827C285.971 400.182 295.586 395.326 304.898 389.992C307.32 388.602 308.53 388.581 310.288 390.937C317.004 399.964 317.109 399.891 306.668 405.733C278.149 421.671 249.63 437.568 221.193 453.651C217.561 455.727 215.71 456.007 213.289 452.261C208.156 444.313 207.888 444.427 216.443 439.602C229.038 432.515 241.68 425.5 254.228 418.341C255.951 417.355 259.466 416.929 258.058 414.107C256.649 411.285 256.544 407.445 251.225 406.792C230.54 404.25 209.948 401.095 189.24 398.709C183.362 398.024 181.464 396.332 183.129 391.362C183.575 389.863 183.84 388.325 183.92 386.776C184.014 384.638 184.933 383.507 187.471 384.13Z" fill="url(#paint57_linear_446_1251)" fill-opacity="0.28"/>
<path d="M516.822 232.822C508.954 238.84 501.422 244.765 493.646 250.462C490.958 252.423 492.191 253.844 493.472 255.65C502.396 268.371 511.297 281.106 520.175 293.855C525.553 301.565 523.958 305.197 514.064 307.749C500.864 311.163 487.617 314.401 474.486 317.97C468.666 319.568 464.604 318.593 461.321 313.695C453.871 302.592 446.107 291.656 438.227 280.802C436.248 278.073 436.737 276.88 439.693 275.22C449.227 269.845 449.145 269.741 455.059 278.125C460.215 285.388 465.535 292.652 470.401 300.081C472.368 303.09 474.3 303.589 477.851 302.53C484.429 300.476 491.128 298.744 497.919 297.342C502.994 296.304 502.447 294.82 500.119 291.604C491.749 279.993 483.659 268.226 475.511 256.501C471.751 251.074 472.1 248.469 477.385 244.371C488.792 235.551 500.247 226.783 511.747 218.067C517.684 213.574 521.781 214.082 526.111 219.831C540.906 239.514 555.538 259.178 570.461 278.747C572.917 281.964 571.904 283.24 568.727 285.067C559.88 290.182 559.973 290.255 554.13 282.524L516.822 232.822Z" fill="url(#paint58_linear_446_1251)" fill-opacity="0.28"/>
<path d="M428.449 502.856C429.823 494.005 430.975 486.056 432.325 478.139C433.059 473.843 440.66 469.973 445.13 471.426C447.016 472.038 447.458 473.501 447.877 475.088C450.624 485.652 453.301 496.236 456.293 506.747C457.247 510.109 455.071 510.576 452.51 511.188C449.542 511.883 448.04 511.25 447.318 508.21C445.337 499.554 442.732 491.021 439.519 482.663C438.355 491.525 437.133 500.376 436.027 509.247C435.69 512.039 435.806 514.602 431.685 515.577C427.262 516.615 425.423 514.643 423.537 511.759C419.684 505.979 415.61 500.345 411.524 494.669C410.57 493.351 410.162 491.244 407.171 491.608C409.254 499.421 411.175 507.172 413.457 514.923C414.364 518.036 413.456 519.333 410.023 520.06C406.589 520.786 405.227 519.769 404.482 516.718C402.154 506.965 399.337 497.294 396.869 487.55C396.229 484.977 394.844 481.626 399.197 480.629C403.551 479.633 408.626 476.873 412.386 481.771C416.867 487.613 421.093 493.59 425.469 499.494C426.191 500.417 427.041 501.258 428.449 502.856Z" fill="url(#paint59_linear_446_1251)" fill-opacity="0.28"/>
<path d="M381.096 499.609C393.342 500.034 393.342 500.034 392.41 510.795C391.619 519.864 390.583 521.171 380.398 523.527C369.712 526.027 359.294 525.529 351.355 517.882C343.416 510.234 343.044 500.636 346.641 491.183C351.89 477.414 373.681 472.299 386.276 481.637C387.669 482.571 388.816 483.765 389.64 485.134C390.676 487.209 394.11 490.073 390.804 491.516C388.022 492.709 383.354 495.22 380.398 490.281C377.918 486.13 373.413 485.186 368.431 485.591C365.99 485.7 363.639 486.446 361.671 487.738C359.702 489.029 358.203 490.809 357.361 492.854C355.23 497.537 354.992 502.735 356.686 507.557C359.654 516.242 371.819 519.511 379.967 514.032C382.132 512.569 381.818 510.691 381.573 508.906C381.236 506.52 378.873 507.734 377.371 507.381C374.892 506.81 371.248 508.906 370.119 505.212C368.781 500.823 370.27 499.267 375.415 499.319C377.243 499.319 379.175 499.495 381.096 499.609Z" fill="url(#paint60_linear_446_1251)" fill-opacity="0.28"/>
<path d="M322.068 519.624C318.267 519.438 314.51 518.806 310.893 517.746C302.675 515.204 298.554 509.954 299.602 502.296C300.917 492.729 303.094 483.255 304.258 473.678C304.875 468.677 308.123 470.897 310.777 470.918C314.083 470.918 315.677 471.955 314.991 475.297C313.233 484.117 311.568 492.936 310.335 501.829C309.601 507.121 312.302 509.84 318.122 510.939C324.21 512.081 327.911 510.223 329.145 504.714C331.031 496.267 332.765 487.779 333.918 479.25C334.57 474.487 337.096 474.747 341.205 475.224C346.07 475.784 345.221 478.067 344.615 480.962C342.764 489.938 341.379 498.996 339.331 507.941C337.585 515.796 331.799 519.624 322.068 519.624Z" fill="url(#paint61_linear_446_1251)" fill-opacity="0.28"/>
<path d="M338.236 464.962C339.4 455.188 340.751 445.424 341.728 435.639C342.008 432.713 343.265 432.318 346.094 432.63C353.38 433.429 360.702 434.145 368.024 434.632C371.062 434.84 371.33 436.095 371.144 438.337C370.957 440.578 370.55 441.927 367.442 441.45C362.867 440.827 358.211 440.63 353.613 440.028C350.738 439.654 349.632 440.64 350.016 443.027C350.342 445.009 347.362 448.101 352.216 448.64C355.708 449.014 359.142 449.429 362.611 449.585C365.742 449.719 366.767 450.685 366.58 453.683C366.336 457.606 363.601 456.412 361.331 456.35C357.303 456.257 352.589 453.995 349.469 455.862C346.128 457.875 348.235 462.628 347.223 466.083C346.524 468.459 347.665 471.52 342.345 470.96C337.026 470.4 337.782 467.94 338.236 464.962Z" fill="url(#paint62_linear_446_1251)" fill-opacity="0.28"/>
<path d="M409.371 433.999C410.314 437.87 407.264 437.392 405.168 437.683C397.544 438.772 397.579 438.72 398.65 445.32C399.814 452.479 400.71 459.681 402.142 466.809C402.782 470.078 400.722 470.119 398.312 470.348C395.903 470.576 393.447 471.738 393.016 467.888C392.178 460.521 390.478 453.227 389.733 445.859C389.256 441.138 387.801 438.99 382.004 440.484C380.188 440.962 376.848 442.85 375.823 439.239C375.078 436.624 374.915 434.321 379.432 433.927C388.092 433.169 396.706 431.976 405.285 430.72C408.94 430.17 409.673 431.685 409.371 433.999Z" fill="url(#paint63_linear_446_1251)" fill-opacity="0.28"/>
<path d="M172.42 289.435C172.281 287.422 173.375 285.772 174.318 284.071C187.774 259.859 201.226 235.616 214.675 211.343C218.563 204.359 222.963 203.384 229.807 208.126C256.801 226.938 283.69 245.875 310.766 264.605C314.177 266.97 313.757 268.413 311.348 271.048C304.69 278.312 304.794 278.467 296.53 272.698C274.281 257.154 252.064 241.59 229.877 226.004C226.641 223.722 225.163 223.67 223.428 227.239C220.809 232.614 217.829 237.854 214.64 242.97C212.743 246 212.94 247.494 216.724 249.196C230.017 255.172 243.031 261.647 256.301 267.645C260.072 269.347 260.235 270.758 258.349 273.871C253.216 282.327 253.391 282.379 244.16 278.021C232.52 272.532 220.809 267.209 209.297 261.533C206.014 259.904 204.827 260.433 203.384 263.297C200.392 269.264 197.214 275.199 193.618 280.937C191.383 284.475 192.686 285.399 196.458 286.374C224.534 293.638 252.518 301.119 280.641 308.164C285.518 309.389 286.019 310.904 284.587 314.805C281.514 323.106 281.723 323.221 272.12 320.72C241.467 312.73 210.814 304.73 180.161 296.719C175.936 295.495 172.746 293.783 172.42 289.435Z" fill="url(#paint64_linear_446_1251)" fill-opacity="0.28"/>
</g>
<defs>
<linearGradient id="paint0_linear_446_1251" x1="375.052" y1="107.614" x2="35.4355" y2="1048.88" gradientUnits="userSpaceOnUse">
<stop stop-color="#FBC60B"/>
<stop offset="1" stop-color="#FFDE0B"/>
</linearGradient>
<linearGradient id="paint1_linear_446_1251" x1="341.088" y1="0.831299" x2="336.089" y2="68.0041" gradientUnits="userSpaceOnUse">
<stop stop-color="#FBC60B"/>
<stop offset="1" stop-color="#FFDE0B"/>
</linearGradient>
<linearGradient id="paint2_linear_446_1251" x1="558.692" y1="24.1786" x2="516.553" y2="199.799" gradientUnits="userSpaceOnUse">
<stop stop-color="#FBC60B"/>
<stop offset="1" stop-color="#FFDE0B"/>
</linearGradient>
<linearGradient id="paint3_linear_446_1251" x1="689.402" y1="121.567" x2="596.524" y2="248.75" gradientUnits="userSpaceOnUse">
<stop stop-color="#FBC60B"/>
<stop offset="1" stop-color="#FFDE0B"/>
</linearGradient>
<linearGradient id="paint4_linear_446_1251" x1="187.308" y1="35.1111" x2="157.428" y2="128.37" gradientUnits="userSpaceOnUse">
<stop stop-color="#FBC60B"/>
<stop offset="1" stop-color="#FFDE0B"/>
</linearGradient>
<linearGradient id="paint5_linear_446_1251" x1="128.524" y1="88.3208" x2="119.993" y2="123.711" gradientUnits="userSpaceOnUse">
<stop stop-color="#FBC60B"/>
<stop offset="1" stop-color="#FFDE0B"/>
</linearGradient>
<linearGradient id="paint6_linear_446_1251" x1="729.573" y1="223.898" x2="721.103" y2="244.914" gradientUnits="userSpaceOnUse">
<stop stop-color="#FBC60B"/>
<stop offset="1" stop-color="#FFDE0B"/>
</linearGradient>
<linearGradient id="paint7_linear_446_1251" x1="375.473" y1="14.8203" x2="-63.4659" y2="1041.9" gradientUnits="userSpaceOnUse">
<stop stop-color="#FBC60B"/>
<stop offset="1" stop-color="#FFDE0B"/>
</linearGradient>
<linearGradient id="paint8_linear_446_1251" x1="374.574" y1="111.063" x2="62.1382" y2="820.203" gradientUnits="userSpaceOnUse">
<stop stop-color="#FBC60B"/>
<stop offset="1" stop-color="#FFDE0B"/>
</linearGradient>
<linearGradient id="paint9_linear_446_1251" x1="228.686" y1="87.3454" x2="201.877" y2="151.22" gradientUnits="userSpaceOnUse">
<stop stop-color="#FBC60B"/>
<stop offset="1" stop-color="#FFDE0B"/>
</linearGradient>
<linearGradient id="paint10_linear_446_1251" x1="95.3473" y1="240.019" x2="71.7341" y2="296.228" gradientUnits="userSpaceOnUse">
<stop stop-color="#FBC60B"/>
<stop offset="1" stop-color="#FFDE0B"/>
</linearGradient>
<linearGradient id="paint11_linear_446_1251" x1="655.295" y1="399.75" x2="636.738" y2="449.129" gradientUnits="userSpaceOnUse">
<stop stop-color="#FBC60B"/>
<stop offset="1" stop-color="#FFDE0B"/>
</linearGradient>
<linearGradient id="paint12_linear_446_1251" x1="663.577" y1="278.397" x2="646.637" y2="324.52" gradientUnits="userSpaceOnUse">
<stop stop-color="#FBC60B"/>
<stop offset="1" stop-color="#FFDE0B"/>
</linearGradient>
<linearGradient id="paint13_linear_446_1251" x1="607.595" y1="479.318" x2="584.497" y2="535.441" gradientUnits="userSpaceOnUse">
<stop stop-color="#FBC60B"/>
<stop offset="1" stop-color="#FFDE0B"/>
</linearGradient>
<linearGradient id="paint14_linear_446_1251" x1="82.7584" y1="347.567" x2="64.9818" y2="392.893" gradientUnits="userSpaceOnUse">
<stop stop-color="#FBC60B"/>
<stop offset="1" stop-color="#FFDE0B"/>
</linearGradient>
<linearGradient id="paint15_linear_446_1251" x1="634.834" y1="200.633" x2="613.026" y2="254.656" gradientUnits="userSpaceOnUse">
<stop stop-color="#FBC60B"/>
<stop offset="1" stop-color="#FFDE0B"/>
</linearGradient>
<linearGradient id="paint16_linear_446_1251" x1="667.602" y1="309.528" x2="649.15" y2="355.554" gradientUnits="userSpaceOnUse">
<stop stop-color="#FBC60B"/>
<stop offset="1" stop-color="#FFDE0B"/>
</linearGradient>
<linearGradient id="paint17_linear_446_1251" x1="642.394" y1="429.404" x2="622.938" y2="476.975" gradientUnits="userSpaceOnUse">
<stop stop-color="#FBC60B"/>
<stop offset="1" stop-color="#FFDE0B"/>
</linearGradient>
<linearGradient id="paint18_linear_446_1251" x1="401.595" y1="62.274" x2="377.895" y2="108.197" gradientUnits="userSpaceOnUse">
<stop stop-color="#FBC60B"/>
<stop offset="1" stop-color="#FFDE0B"/>
</linearGradient>
<linearGradient id="paint19_linear_446_1251" x1="595.074" y1="148.802" x2="572.536" y2="200.053" gradientUnits="userSpaceOnUse">
<stop stop-color="#FBC60B"/>
<stop offset="1" stop-color="#FFDE0B"/>
</linearGradient>
<linearGradient id="paint20_linear_446_1251" x1="81.0492" y1="316.624" x2="63.3688" y2="362.237" gradientUnits="userSpaceOnUse">
<stop stop-color="#FBC60B"/>
<stop offset="1" stop-color="#FFDE0B"/>
</linearGradient>
<linearGradient id="paint21_linear_446_1251" x1="667.458" y1="342.643" x2="650.749" y2="387.304" gradientUnits="userSpaceOnUse">
<stop stop-color="#FBC60B"/>
<stop offset="1" stop-color="#FFDE0B"/>
</linearGradient>
<linearGradient id="paint22_linear_446_1251" x1="139.412" y1="475.079" x2="114.072" y2="534.746" gradientUnits="userSpaceOnUse">
<stop stop-color="#FBC60B"/>
<stop offset="1" stop-color="#FFDE0B"/>
</linearGradient>
<linearGradient id="paint23_linear_446_1251" x1="335.727" y1="63.0195" x2="311.48" y2="109.339" gradientUnits="userSpaceOnUse">
<stop stop-color="#FBC60B"/>
<stop offset="1" stop-color="#FFDE0B"/>
</linearGradient>
<linearGradient id="paint24_linear_446_1251" x1="449.263" y1="67.8207" x2="425.022" y2="120.588" gradientUnits="userSpaceOnUse">
<stop stop-color="#FBC60B"/>
<stop offset="1" stop-color="#FFDE0B"/>
</linearGradient>
<linearGradient id="paint25_linear_446_1251" x1="199.835" y1="113.026" x2="178.884" y2="160.73" gradientUnits="userSpaceOnUse">
<stop stop-color="#FBC60B"/>
<stop offset="1" stop-color="#FFDE0B"/>
</linearGradient>
<linearGradient id="paint26_linear_446_1251" x1="121.714" y1="454.119" x2="100.187" y2="507.688" gradientUnits="userSpaceOnUse">
<stop stop-color="#FBC60B"/>
<stop offset="1" stop-color="#FFDE0B"/>
</linearGradient>
<linearGradient id="paint27_linear_446_1251" x1="491.129" y1="83.1172" x2="468.457" y2="130.051" gradientUnits="userSpaceOnUse">
<stop stop-color="#FBC60B"/>
<stop offset="1" stop-color="#FFDE0B"/>
</linearGradient>
<linearGradient id="paint28_linear_446_1251" x1="368.576" y1="60.8901" x2="346.371" y2="106.519" gradientUnits="userSpaceOnUse">
<stop stop-color="#FBC60B"/>
<stop offset="1" stop-color="#FFDE0B"/>
</linearGradient>
<linearGradient id="paint29_linear_446_1251" x1="166.048" y1="139.247" x2="146.39" y2="186.452" gradientUnits="userSpaceOnUse">
<stop stop-color="#FBC60B"/>
<stop offset="1" stop-color="#FFDE0B"/>
</linearGradient>
<linearGradient id="paint30_linear_446_1251" x1="124.865" y1="183.259" x2="102.587" y2="238.228" gradientUnits="userSpaceOnUse">
<stop stop-color="#FBC60B"/>
<stop offset="1" stop-color="#FFDE0B"/>
</linearGradient>
<linearGradient id="paint31_linear_446_1251" x1="95.1784" y1="408.141" x2="77.4743" y2="455.487" gradientUnits="userSpaceOnUse">
<stop stop-color="#FBC60B"/>
<stop offset="1" stop-color="#FFDE0B"/>
</linearGradient>
<linearGradient id="paint32_linear_446_1251" x1="85.2367" y1="286.999" x2="67.4891" y2="333.122" gradientUnits="userSpaceOnUse">
<stop stop-color="#FBC60B"/>
<stop offset="1" stop-color="#FFDE0B"/>
</linearGradient>
<linearGradient id="paint33_linear_446_1251" x1="88.7445" y1="375.394" x2="71.0415" y2="421.883" gradientUnits="userSpaceOnUse">
<stop stop-color="#FBC60B"/>
<stop offset="1" stop-color="#FFDE0B"/>
</linearGradient>
<linearGradient id="paint34_linear_446_1251" x1="663.86" y1="372.22" x2="648.436" y2="415.789" gradientUnits="userSpaceOnUse">
<stop stop-color="#FBC60B"/>
<stop offset="1" stop-color="#FFDE0B"/>
</linearGradient>
<linearGradient id="paint35_linear_446_1251" x1="148.441" y1="164.934" x2="127.734" y2="215.347" gradientUnits="userSpaceOnUse">
<stop stop-color="#FBC60B"/>
<stop offset="1" stop-color="#FFDE0B"/>
</linearGradient>
<linearGradient id="paint36_linear_446_1251" x1="613.732" y1="180.537" x2="594.208" y2="230.252" gradientUnits="userSpaceOnUse">
<stop stop-color="#FBC60B"/>
<stop offset="1" stop-color="#FFDE0B"/>
</linearGradient>
<linearGradient id="paint37_linear_446_1251" x1="111.102" y1="217.997" x2="94.7095" y2="263.843" gradientUnits="userSpaceOnUse">
<stop stop-color="#FBC60B"/>
<stop offset="1" stop-color="#FFDE0B"/>
</linearGradient>
<linearGradient id="paint38_linear_446_1251" x1="623.654" y1="451.898" x2="605.221" y2="499.952" gradientUnits="userSpaceOnUse">
<stop stop-color="#FBC60B"/>
<stop offset="1" stop-color="#FFDE0B"/>
</linearGradient>
<linearGradient id="paint39_linear_446_1251" x1="270.798" y1="81.5873" x2="245.697" y2="130.155" gradientUnits="userSpaceOnUse">
<stop stop-color="#FBC60B"/>
<stop offset="1" stop-color="#FFDE0B"/>
</linearGradient>
<linearGradient id="paint40_linear_446_1251" x1="529.959" y1="99.6799" x2="513.836" y2="143.358" gradientUnits="userSpaceOnUse">
<stop stop-color="#FBC60B"/>
<stop offset="1" stop-color="#FFDE0B"/>
</linearGradient>
<linearGradient id="paint41_linear_446_1251" x1="302.12" y1="67.5879" x2="276.746" y2="111.556" gradientUnits="userSpaceOnUse">
<stop stop-color="#FBC60B"/>
<stop offset="1" stop-color="#FFDE0B"/>
</linearGradient>
<linearGradient id="paint42_linear_446_1251" x1="650.008" y1="240.281" x2="631.277" y2="285.18" gradientUnits="userSpaceOnUse">
<stop stop-color="#FBC60B"/>
<stop offset="1" stop-color="#FFDE0B"/>
</linearGradient>
<linearGradient id="paint43_linear_446_1251" x1="560.602" y1="123.318" x2="530.717" y2="168.329" gradientUnits="userSpaceOnUse">
<stop stop-color="#FBC60B"/>
<stop offset="1" stop-color="#FFDE0B"/>
</linearGradient>
<linearGradient id="paint44_linear_446_1251" x1="111.025" y1="431.451" x2="89.8437" y2="477.593" gradientUnits="userSpaceOnUse">
<stop stop-color="#FBC60B"/>
<stop offset="1" stop-color="#FFDE0B"/>
</linearGradient>
<linearGradient id="paint45_linear_446_1251" x1="658.383" y1="265.734" x2="654.104" y2="288.84" gradientUnits="userSpaceOnUse">
<stop stop-color="#FBC60B"/>
<stop offset="1" stop-color="#FFDE0B"/>
</linearGradient>
<linearGradient id="paint46_linear_446_1251" x1="182.536" y1="127.899" x2="164.461" y2="166.302" gradientUnits="userSpaceOnUse">
<stop stop-color="#FBC60B"/>
<stop offset="1" stop-color="#FFDE0B"/>
</linearGradient>
<linearGradient id="paint47_linear_446_1251" x1="550.009" y1="115.036" x2="529.78" y2="153.279" gradientUnits="userSpaceOnUse">
<stop stop-color="#FBC60B"/>
<stop offset="1" stop-color="#FFDE0B"/>
</linearGradient>
<linearGradient id="paint48_linear_446_1251" x1="425.484" y1="66.049" x2="398.548" y2="88.3692" gradientUnits="userSpaceOnUse">
<stop stop-color="#FBC60B"/>
<stop offset="1" stop-color="#FFDE0B"/>
</linearGradient>
<linearGradient id="paint49_linear_446_1251" x1="512.203" y1="92.738" x2="488.333" y2="128.525" gradientUnits="userSpaceOnUse">
<stop stop-color="#FBC60B"/>
<stop offset="1" stop-color="#FFDE0B"/>
</linearGradient>
<linearGradient id="paint50_linear_446_1251" x1="89.5639" y1="263.299" x2="88.5852" y2="267.885" gradientUnits="userSpaceOnUse">
<stop stop-color="#FBC60B"/>
<stop offset="1" stop-color="#FFDE0B"/>
</linearGradient>
<linearGradient id="paint51_linear_446_1251" x1="100.372" y1="263.581" x2="100.065" y2="265.79" gradientUnits="userSpaceOnUse">
<stop stop-color="#FBC60B"/>
<stop offset="1" stop-color="#FFDE0B"/>
</linearGradient>
<linearGradient id="paint52_linear_446_1251" x1="225.104" y1="115.558" x2="224.555" y2="116.724" gradientUnits="userSpaceOnUse">
<stop stop-color="#FBC60B"/>
<stop offset="1" stop-color="#FFDE0B"/>
</linearGradient>
<linearGradient id="paint53_linear_446_1251" x1="633.936" y1="211.073" x2="633.062" y2="212.874" gradientUnits="userSpaceOnUse">
<stop stop-color="#FBC60B"/>
<stop offset="1" stop-color="#FFDE0B"/>
</linearGradient>
<linearGradient id="paint54_linear_446_1251" x1="139.408" y1="171.674" x2="138.313" y2="173.26" gradientUnits="userSpaceOnUse">
<stop stop-color="#FBC60B"/>
<stop offset="1" stop-color="#FFDE0B"/>
</linearGradient>
<linearGradient id="paint55_linear_446_1251" x1="504.945" y1="351.664" x2="479.781" y2="460.529" gradientUnits="userSpaceOnUse">
<stop stop-color="#FBC60B"/>
<stop offset="1" stop-color="#FFDE0B"/>
</linearGradient>
<linearGradient id="paint56_linear_446_1251" x1="375.467" y1="162.334" x2="292.167" y2="305.685" gradientUnits="userSpaceOnUse">
<stop stop-color="#FBC60B"/>
<stop offset="1" stop-color="#FFDE0B"/>
</linearGradient>
<linearGradient id="paint57_linear_446_1251" x1="248.765" y1="351.221" x2="184.545" y2="522.613" gradientUnits="userSpaceOnUse">
<stop stop-color="#FBC60B"/>
<stop offset="1" stop-color="#FFDE0B"/>
</linearGradient>
<linearGradient id="paint58_linear_446_1251" x1="504.433" y1="215.061" x2="441.412" y2="386.784" gradientUnits="userSpaceOnUse">
<stop stop-color="#FBC60B"/>
<stop offset="1" stop-color="#FFDE0B"/>
</linearGradient>
<linearGradient id="paint59_linear_446_1251" x1="426.333" y1="471.115" x2="395.105" y2="551.437" gradientUnits="userSpaceOnUse">
<stop stop-color="#FBC60B"/>
<stop offset="1" stop-color="#FFDE0B"/>
</linearGradient>
<linearGradient id="paint60_linear_446_1251" x1="368.613" y1="476.895" x2="333.687" y2="550.561" gradientUnits="userSpaceOnUse">
<stop stop-color="#FBC60B"/>
<stop offset="1" stop-color="#FFDE0B"/>
</linearGradient>
<linearGradient id="paint61_linear_446_1251" x1="322.264" y1="470.409" x2="284.603" y2="543.572" gradientUnits="userSpaceOnUse">
<stop stop-color="#FBC60B"/>
<stop offset="1" stop-color="#FFDE0B"/>
</linearGradient>
<linearGradient id="paint62_linear_446_1251" x1="354.553" y1="432.541" x2="323.926" y2="488.001" gradientUnits="userSpaceOnUse">
<stop stop-color="#FBC60B"/>
<stop offset="1" stop-color="#FFDE0B"/>
</linearGradient>
<linearGradient id="paint63_linear_446_1251" x1="392.484" y1="430.607" x2="360.329" y2="487.952" gradientUnits="userSpaceOnUse">
<stop stop-color="#FBC60B"/>
<stop offset="1" stop-color="#FFDE0B"/>
</linearGradient>
<linearGradient id="paint64_linear_446_1251" x1="242.824" y1="205.197" x2="167.479" y2="395.248" gradientUnits="userSpaceOnUse">
<stop stop-color="#FBC60B"/>
<stop offset="1" stop-color="#FFDE0B"/>
</linearGradient>
</defs>
</svg>
