<svg width="114" height="109" viewBox="0 0 114 109" fill="none" xmlns="http://www.w3.org/2000/svg">
<path d="M16.0565 17.3093C16.5962 17.2908 16.4415 17.4976 16.2042 17.7314C15.8526 18.0678 15.501 18.4041 15.1671 18.754C13.36 20.6275 12.1295 22.8392 10.9658 25.1063C9.58416 27.8174 8.23414 30.5437 6.58881 33.1237C5.5218 34.7971 4.36514 36.4016 2.75321 37.6512C2.23464 38.0532 2.02195 38.366 2.29441 39.1346C2.83231 40.6483 2.76551 42.2746 2.67059 43.8724C2.4368 47.8466 1.53678 51.7266 0.895172 55.6453C0.192038 59.9542 0.446924 64.1218 3.04852 67.9043C3.7296 68.9186 4.58896 69.8125 5.5886 70.5465C5.92083 70.7853 5.9929 71.0174 5.8804 71.3975C4.81339 75.0017 5.57805 78.3586 7.43433 81.5558C9.03747 84.3157 11.4246 86.4332 13.7625 88.5876C16.0477 90.7084 18.3435 92.8276 20.2876 95.2595C21.2492 96.462 22.1175 97.7184 22.7011 99.1362C22.8031 99.3851 22.8769 99.5869 23.2285 99.597C26.4436 99.6945 29.2983 100.942 32.1108 102.251C34.9234 103.559 37.648 105.029 40.4553 106.341C43.971 107.984 47.6449 108.835 51.5807 108.099C53.1651 107.812 54.674 107.226 56.0192 106.375C56.2934 106.207 56.4921 106.057 56.8577 106.287C61.0993 108.978 65.6047 108.898 70.2172 107.362C73.2056 106.365 75.8951 104.74 78.7094 103.379C81.5553 102.004 84.4083 100.645 87.5407 99.9535C88.4196 99.7601 89.513 99.9233 90.1564 99.4692C90.7664 99.0386 90.8595 97.9925 91.3271 97.2744C93.0428 94.6053 95.3121 92.397 97.6043 90.1887C99.6241 88.2479 101.823 86.4769 103.644 84.3477C106.218 81.3338 107.817 77.9668 107.645 73.9808C107.622 73.4762 107.645 72.938 107.445 72.4907C106.977 71.416 107.376 70.7954 108.241 70.0436C111.272 67.4048 112.44 63.9536 112.595 60.1207C112.718 57.0732 111.975 54.1249 111.463 51.1514C110.918 47.9777 110.389 44.8041 110.51 41.5649C110.553 40.4431 110.846 39.36 110.997 38.255L111.236 38.0246C111.588 38.1255 111.556 38.3374 111.472 38.6166C110.593 41.5682 110.883 44.5501 111.314 47.5169C111.771 50.6704 112.442 53.7969 112.847 56.9538C113.341 60.8035 112.943 64.5473 110.753 67.9547C110.032 69.0768 109.128 70.0808 108.074 70.9282C107.786 71.162 107.601 71.3655 107.698 71.7692C108.883 76.7054 107.197 80.9049 104.022 84.7042C102.356 86.6989 100.32 88.3538 98.4288 90.1433C95.9344 92.4979 93.44 94.866 91.6084 97.7722C91.483 97.9272 91.3856 98.1011 91.3201 98.2868C91.0054 99.8577 89.963 100.258 88.3757 100.421C85.6827 100.699 83.227 101.852 80.817 103.004C78.0466 104.326 75.3343 105.764 72.5411 107.041C68.6123 108.839 64.5148 109.601 60.1976 108.464C59.0423 108.155 57.9399 107.689 56.9245 107.078C56.6485 106.91 56.4393 106.763 56.0702 106.98C51.985 109.375 47.6677 109.397 43.238 108.068C40.2285 107.167 37.5672 105.564 34.8003 104.2C32.0335 102.836 29.2315 101.474 26.208 100.64C25.1357 100.344 24.0494 100.135 22.9261 100.194C22.6168 100.213 22.4674 100.149 22.3531 99.8459C21.2158 96.8472 19.029 94.5414 16.7755 92.3045C14.4147 89.9936 11.9379 87.8106 9.64744 85.4611C7.04057 82.7869 5.29855 79.6604 4.90128 75.9485C4.7473 74.5552 4.85084 73.1467 5.20715 71.7876C5.32316 71.3521 5.26691 71.1015 4.89601 70.7937C1.85671 68.2793 0.453955 64.9896 0.0795359 61.2324C-0.24039 58.0201 0.469776 54.8901 1.05514 51.7552C1.6405 48.6202 2.16609 45.5323 2.15906 42.3553C2.15906 41.1225 2.03777 39.8948 1.58952 38.7259C1.46647 38.4063 1.40143 38.1288 1.72663 37.9085C3.77978 36.5126 5.11926 34.5448 6.38314 32.5266C8.22535 29.5834 9.66854 26.4266 11.3121 23.374C12.5444 21.1069 13.984 18.9793 16.0565 17.3093Z" fill="#E5BF39"/>
<path d="M68.7864 3.51438C68.6546 3.83225 68.3874 3.89448 68.0745 3.85075C64.4938 3.30751 60.899 2.76764 57.6681 1.0757C56.8543 0.650194 56.355 0.616557 55.5359 1.08579C53.0749 2.50191 50.2624 2.98628 47.4744 3.50765C43.892 4.18039 40.2286 4.37549 36.6725 5.1895C35.8797 5.37114 35.1028 5.60996 34.3188 5.82187L33.9918 5.56119C36.3157 4.56722 38.8188 4.33176 41.2939 3.98866C45.2824 3.43533 49.2938 2.98796 53.1206 1.68453C54.1964 1.31789 55.23 0.873879 56.13 0.170867C56.355 0.00268246 56.5167 -0.0814099 56.805 0.108639C59.6035 1.95867 62.859 2.53386 66.104 3.13596C66.9899 3.29406 67.8917 3.38824 68.7864 3.51438Z" fill="#E5BF39"/>
<path d="M98.87 19.7928C97.1597 17.8873 95.2612 16.2172 92.8037 15.2131C91.4186 14.648 89.9912 14.2646 88.4795 14.2326C87.9802 14.2225 87.7904 14.0527 87.6111 13.6272C85.7531 9.24595 82.1917 6.777 77.5668 5.4887C75.076 4.7941 72.5148 4.51323 69.9694 4.12136C69.7937 4.09277 69.3788 4.28955 69.414 3.82536C70.8554 3.65717 72.2423 4.04568 73.6433 4.24414C74.9524 4.44394 76.2474 4.72028 77.5211 5.07161C82.1882 6.29599 85.7829 8.75317 87.8132 13.0436C88.0804 13.6087 88.3775 13.8054 89.0033 13.871C93.2555 14.3117 96.5286 16.3703 99.088 19.5691L98.87 19.7928Z" fill="#E5BF39"/>
<path d="M98.8701 19.793L99.0951 19.5693C100.837 21.5186 101.929 23.8328 103.08 26.1117C104.838 29.5965 106.626 33.0678 109.108 36.1557L108.893 36.3777C107.076 34.3881 105.787 32.0756 104.529 29.7512C103.537 27.9248 102.625 26.0646 101.676 24.2146C100.876 22.6659 99.9372 21.1865 98.8701 19.793Z" fill="#E5BF39"/>
<path d="M33.9918 5.55615L34.3188 5.81684C31.9386 6.74522 29.7484 7.95278 28.0152 9.81291C26.9808 10.9202 26.1606 12.1947 25.5929 13.5769C25.4839 13.8376 25.4575 14.1235 25.0444 14.1033C24.1022 14.0562 23.1952 14.3203 22.267 14.4195L22.0139 14.1807C22.775 13.8645 23.596 13.8006 24.3975 13.7585C24.851 13.735 25.0303 13.5903 25.2044 13.1951C26.9218 9.38067 29.991 6.97395 33.9918 5.55615Z" fill="#E5BF39"/>
<path d="M22.0138 14.1812L22.2669 14.42C20.2946 15.0641 18.4331 15.9034 16.8387 17.2203C16.619 17.4002 16.3219 17.5987 16.3114 17.0521C17.9813 15.6679 19.8165 14.5966 22.0138 14.1812Z" fill="#E5BF39"/>
<path d="M108.893 36.3778L109.108 36.1558L111.217 38.031L110.978 38.2614C110.154 37.7788 109.444 37.1373 108.893 36.3778Z" fill="#E5BF39"/>
<path d="M64.7873 106.962C61.5441 106.945 59.1623 106.279 57.0968 104.689C56.8156 104.474 56.5554 104.17 56.079 104.533C52.4245 107.322 48.3445 107.362 44.0906 106.168C41.3571 105.399 38.9524 103.963 36.4493 102.723C33.0637 101.042 29.7185 99.2117 25.9356 98.5188C24.3536 98.2312 23.5942 97.5315 22.8331 96.2769C20.9082 93.1032 18.0869 90.6292 15.3693 88.0812C13.223 86.063 10.9518 84.1558 9.29946 81.7087C7.71741 79.3541 6.78927 76.8229 6.93341 73.9823C6.98221 72.9813 7.19885 71.9944 7.57502 71.0592C7.78245 70.5429 7.73323 70.2284 7.22346 69.8954C3.91345 67.7746 2.57046 64.6295 2.18198 60.9614C1.87612 58.0838 2.47906 55.3087 2.9941 52.5169C3.7236 48.5645 4.54979 44.5971 4.06462 40.5758C3.88884 39.1327 4.36521 38.3204 5.28456 37.3382C7.6594 34.7969 9.2063 31.7376 10.7884 28.7137C12.3933 25.6477 13.7503 22.4454 16.1902 19.8419C18.1502 17.7531 20.4529 16.2176 23.3973 15.6844C24.2428 15.5297 25.0884 15.6272 25.9339 15.5986C26.2661 15.5869 26.5122 15.5986 26.637 15.1731C28.0573 10.3782 31.7998 8.0236 36.4809 6.70335C38.7661 6.05584 41.162 5.86243 43.5122 5.52606C47.8752 4.88864 52.2926 4.44631 56.2583 2.35914C56.587 2.19096 56.798 2.28178 57.0529 2.41296C59.948 3.88794 63.1139 4.47995 66.2956 5.02319C70.1628 5.68415 74.1215 5.81366 77.8604 7.05318C81.3884 8.23047 84.4663 10.062 85.8919 13.5333C86.5019 15.0184 87.0978 15.6188 88.8943 15.7332C93.3311 16.0124 96.3106 18.7 98.6609 22.0721C100.317 24.4452 101.433 27.1008 102.774 29.6404C104.159 32.259 105.564 34.8659 107.533 37.1448C107.57 37.1885 107.594 37.2474 107.64 37.276C109.384 38.3439 109.322 39.935 109.004 41.5966C108.726 43.0498 109.004 44.4978 109.143 45.9308C109.514 49.7502 110.54 53.4856 110.936 57.2984C111.287 60.6049 110.99 63.8794 109.109 66.8344C108.291 68.1331 107.171 69.2349 105.838 70.0552C105.446 70.2974 105.262 70.5513 105.43 71.0172C107.004 75.39 105.741 79.2313 102.996 82.7767C101.403 84.8319 99.3992 86.5188 97.4901 88.2914C94.9096 90.6864 92.192 93.0006 90.3938 96.0162C89.4586 97.5837 88.3933 98.3708 86.5265 98.7458C82.6786 99.5211 79.2983 101.475 75.8424 103.201C73.2654 104.488 70.7447 105.892 67.8565 106.497C66.6471 106.756 65.4237 106.982 64.7873 106.962ZM64.1457 105.616C65.3516 105.65 66.5171 105.421 67.6825 105.16C70.4159 104.547 72.8048 103.191 75.2553 101.965C78.8711 100.165 82.4343 98.2278 86.4421 97.3347C87.6726 97.0606 88.4039 96.5527 89.0402 95.5116C90.9158 92.4355 93.6458 90.0338 96.2632 87.5531C98.0896 85.8225 100.051 84.2096 101.633 82.2587C104.332 78.9303 105.654 75.2975 103.985 71.1248C103.634 70.2469 103.746 69.7205 104.643 69.1958C108.194 67.117 109.484 63.8677 109.614 60.06C109.758 55.8738 108.412 51.871 107.96 47.7572C107.712 45.4884 107.357 43.2297 107.629 40.9273C107.698 40.3521 108.049 39.6608 107.482 39.1058C105.516 37.1868 104.1 34.9012 102.769 32.5735C101.097 29.637 99.7806 26.5189 98.0122 23.6345C96.4618 21.1117 94.4807 18.9892 91.6172 17.748C89.9772 17.0333 88.2545 16.8752 86.4966 16.9677C85.8498 17.0013 85.5632 16.7995 85.4033 16.2024C85.2072 15.4193 84.9341 14.6557 84.5876 13.9218C83.0442 10.8272 80.251 9.21267 76.985 8.20356C73.4781 7.12886 69.7866 6.97581 66.1919 6.37035C63.0963 5.84897 60.0166 5.27715 57.1566 3.96531C56.9953 3.87759 56.8123 3.83288 56.6268 3.83584C56.4413 3.8388 56.26 3.88932 56.1019 3.98212C54.8498 4.56909 53.5373 5.0296 52.1854 5.35619C47.8857 6.48471 43.4331 6.77063 39.0684 7.54259C33.6455 8.49788 29.2245 10.6792 27.7286 16.3017C27.5933 16.8062 27.3191 16.9323 26.804 16.9273C25.7264 16.9172 24.6419 16.8348 23.5713 17.0383C20.3 17.6623 17.999 19.6284 16.1199 22.1057C14.123 24.7395 12.8942 27.7803 11.3456 30.6495C9.73892 33.6331 8.07249 36.5746 5.62558 39.0301C5.53663 39.1005 5.4682 39.1917 5.42693 39.2948C5.38566 39.398 5.37295 39.5096 5.39003 39.6188C5.61654 41.1346 5.67546 42.6691 5.56582 44.1968C5.41113 47.0677 4.89432 49.8848 4.3951 52.7069C3.93982 55.2785 3.36325 57.8265 3.55661 60.4737C3.82556 64.1401 5.2248 67.1725 8.58402 69.1756C9.31704 69.6145 9.49283 70.0669 9.14126 70.8692C7.65413 74.285 8.28519 77.5091 10.2346 80.5869C11.894 83.2072 14.3005 85.1884 16.5453 87.3042C19.5459 90.1314 22.594 92.9165 24.6313 96.5106C24.7057 96.6442 24.8139 96.7579 24.9459 96.8413C25.0779 96.9247 25.2296 96.9752 25.3872 96.9883C28.1382 97.4508 30.6906 98.4633 33.1709 99.6338C36.3034 101.112 39.3796 102.703 42.5191 104.163C44.624 105.143 46.943 105.628 49.2832 105.577C51.7231 105.532 53.8835 104.632 55.7362 103.122C56.3058 102.656 56.7013 102.653 57.2744 103.122C59.2396 104.742 61.5072 105.665 64.1457 105.616Z" fill="#E5BF39"/>
<path d="M89.7308 36.9829C89.8047 38.9574 90.4832 40.683 91.1371 42.417C91.886 44.4083 92.895 46.3138 93.192 48.4531C93.4487 50.3385 93.2131 52.1313 92.227 53.8031C92.0512 54.0957 91.8754 54.3312 92.0969 54.7129C93.5278 57.192 93.3713 59.7585 92.466 62.3418C91.733 64.4307 90.7082 66.4186 90.0666 68.5411C89.715 69.7184 89.3635 70.9091 89.5164 72.1604C89.5317 72.213 89.5358 72.268 89.5284 72.3221C89.521 72.3762 89.5023 72.4284 89.4735 72.4754C89.4446 72.5225 89.4061 72.5635 89.3604 72.5961C89.3146 72.6287 89.2624 72.6521 89.207 72.665C87.8869 73.1695 86.9587 74.1433 86.0148 75.1003C84.3062 76.8326 82.9948 78.8811 81.2546 80.5865C79.4282 82.3776 77.2854 83.5163 74.5924 83.4944C74.3181 83.4944 74.0879 83.5247 73.9367 83.8005C72.1947 86.9657 69.1905 88.0673 65.7135 88.4575C63.7354 88.6528 61.7741 88.9811 59.8441 89.4397C58.647 89.7408 57.5079 90.1545 56.5042 90.8541C55.5067 90.2244 54.4073 89.7567 53.2505 89.47C50.9213 88.8998 48.5236 88.7249 46.1664 88.3297C43.1007 87.815 40.4833 86.6142 38.917 83.8711C38.867 83.7726 38.7856 83.6917 38.6846 83.64C38.5835 83.5884 38.468 83.5686 38.3545 83.5835C35.2133 83.5718 32.856 82.0816 30.889 79.902C29.2859 78.1242 27.8849 76.1834 26.1165 74.5369C25.2921 73.7683 23.9508 73.3596 23.4797 72.5758C23.0086 71.7921 23.3268 70.487 23.0192 69.4375C22.3969 67.3083 21.4371 65.2985 20.5881 63.25C19.6705 61.0451 19.2697 58.8015 19.9306 56.452C20.168 55.611 20.973 54.8912 20.9467 54.0974C20.9203 53.3288 20.2963 52.5686 20.131 51.7428C19.7338 49.7599 20.0801 47.8527 20.7691 45.9774C21.5918 43.7422 22.6096 41.571 23.144 39.2416C23.3655 38.2796 23.0842 37.146 23.4727 36.3825C23.833 35.6778 25.0547 35.3734 25.7702 34.6872C27.3716 33.1584 28.6829 31.4076 30.0347 29.6854C31.2248 28.1717 32.5572 26.8145 34.3432 25.9332C35.508 25.3359 36.8116 25.0299 38.1331 25.0435C38.4846 25.0435 38.8028 25.0737 39.0296 24.697C40.7382 21.8766 43.5296 20.7699 46.7131 20.2939C48.9982 19.9576 51.2975 19.7557 53.5282 19.1469C54.4598 18.893 55.3669 18.5885 56.165 18.0537C56.3407 17.9309 56.4954 17.7594 56.7661 17.9562C58.7226 19.3706 61.0939 19.5455 63.3844 19.9391C65.1932 20.2502 67.0442 20.3444 68.8038 20.9179C70.8904 21.5906 72.6288 22.7091 73.7943 24.5389C73.9578 24.7962 74.1072 24.9442 74.4746 24.9224C77.4629 24.7323 79.7903 25.9988 81.7468 28.0035C83.5046 29.8031 84.8581 31.9256 86.6335 33.7218C87.4597 34.5627 88.3035 35.3902 89.4162 35.8645C90.151 36.1672 89.6096 36.6852 89.7308 36.9829ZM77.4418 54.9921V54.8239H64.5516C64.1192 54.8239 63.699 54.7314 63.634 55.3924C63.4582 57.2155 62.5072 58.6636 61.0201 59.7803C60.6369 60.0679 60.5929 60.2647 60.8355 60.6583C65.2219 67.8184 69.5972 74.9831 73.9613 82.1523C74.0344 82.3009 74.1546 82.4236 74.3048 82.503C74.4551 82.5824 74.6277 82.6145 74.798 82.5946C76.415 82.5383 77.9806 82.0367 79.3069 81.1499C80.562 80.3342 81.4708 79.199 82.3831 78.0704C83.6892 76.4542 85.0023 74.8446 86.5562 73.4336C87.1521 72.892 88.0908 72.6128 88.4511 72.0091C88.8308 71.3716 88.6515 70.4382 88.8414 69.6427C89.4355 67.1502 90.5605 64.8427 91.5238 62.4797C92.4871 60.1167 92.4203 57.8563 91.3217 55.5724C91.1002 55.1132 90.8313 54.9803 90.3268 54.982C86.0306 55.0073 81.7397 54.9921 77.4418 54.9921ZM56.4778 18.9871C56.3495 19.0494 56.2177 19.1082 56.0911 19.1772C54.8729 19.823 53.5475 20.1863 52.1958 20.4133C50.2709 20.7497 48.3285 21.0037 46.3949 21.3064C43.73 21.7252 41.5731 22.9311 40.0175 25.0788C39.752 25.4471 39.7221 25.7414 39.9665 26.1434C44.3025 33.298 48.6279 40.4604 52.9428 47.6307C53.2065 48.068 53.4157 48.11 53.8885 47.9183C54.6827 47.5875 55.5382 47.4128 56.4043 47.4047C57.2704 47.3967 58.1293 47.5553 58.93 47.8712C59.5664 48.115 59.7966 48.0024 60.1183 47.4692C64.1403 40.7844 68.178 34.1086 72.2316 27.4418C73.383 25.543 73.3619 25.3479 71.7306 23.7417L71.6691 23.6829C69.9464 21.959 67.7104 21.4342 65.3409 21.1164C62.3982 20.7228 59.3923 20.5361 56.7081 19.1099C56.6431 19.0662 56.5657 19.0309 56.4778 18.9871ZM35.4172 54.9501V54.8239C31.121 54.8239 26.8249 54.8391 22.5305 54.8088C21.8678 54.8088 21.5496 55.0173 21.3 55.5858C20.3191 57.8462 20.3543 60.0797 21.2807 62.3485C22.2334 64.6846 23.3285 66.9702 24.0053 69.4123C24.262 70.339 24.0053 71.4591 24.4958 72.1688C25.009 72.9189 26.1007 73.3293 26.8231 74.0273C28.6161 75.7613 30.0874 77.7542 31.6994 79.6329C32.9035 81.0372 34.3889 82.0228 36.2328 82.492C38.3633 83.0336 38.5954 82.9411 39.6923 81.1465L39.8259 80.9313C43.8618 74.2902 47.9031 67.6497 51.9497 61.0098C52.259 60.5052 52.3381 60.2193 51.751 59.8039C50.3237 58.7948 49.5309 57.3618 49.29 55.6985C49.1986 55.0897 49.0299 54.9299 48.3953 54.9349C44.0675 54.9635 39.7432 54.9501 35.4172 54.9501ZM77.2291 53.983V54.0234C81.4673 54.0234 85.7054 54.0234 89.9436 54.0352C90.4709 54.0352 90.7785 53.9006 91.058 53.4515C92.4907 51.1626 92.5223 48.8113 91.5379 46.376C90.5535 43.9407 89.2123 41.571 88.8326 38.9759C88.5935 37.3411 87.9537 36.2849 86.6001 35.2943C84.8107 33.969 83.5714 32.119 82.1669 30.4372C81.2018 29.2817 80.2596 28.0977 78.9799 27.2248C77.7793 26.4041 76.4557 25.9668 74.958 26.0475C74.4711 26.0761 74.1845 26.2763 73.9349 26.6866C69.606 33.8098 65.2618 40.9246 60.9023 48.031C60.6351 48.4682 60.6 48.7037 61.0781 49.0401C61.7972 49.5494 62.3964 50.1977 62.8367 50.9429C63.277 51.6882 63.5487 52.5136 63.634 53.3658C63.7026 53.978 64.0401 53.9813 64.5129 53.9797C68.7528 53.9707 72.9916 53.9718 77.2291 53.983ZM73.3021 83.2169C73.216 83.0487 73.1492 82.894 73.063 82.7527C68.6907 75.5544 64.3201 68.355 59.9513 61.1544C59.7386 60.8046 59.5752 60.7003 59.1427 60.8786C58.3117 61.2321 57.4132 61.4172 56.5038 61.4221C55.5944 61.427 54.6938 61.2517 53.8587 60.9072C53.3647 60.7104 53.1661 60.7995 52.9147 61.225C48.6502 68.4491 44.3728 75.6654 40.0825 82.8738C39.8153 83.3228 39.8909 83.6188 40.1862 83.9956C41.5868 85.8246 43.6734 87.0633 46.0082 87.4518C48.6168 87.9311 51.2817 88.0724 53.8534 88.7872C54.7182 89.0277 58.248 89.031 59.1058 88.7973C61.3646 88.18 63.6938 87.9563 66.0036 87.62C68.8161 87.2247 71.1751 86.0878 72.8837 83.8577C73.0367 83.6592 73.1615 83.4406 73.3021 83.2169ZM35.5895 53.7122V53.9208C39.8874 53.9208 44.187 53.9208 48.485 53.9326C49.0123 53.9326 49.2022 53.8417 49.2795 53.2783C49.3812 52.4418 49.6611 51.6341 50.102 50.9051C50.5428 50.1761 51.1351 49.5414 51.8424 49.0401C52.3047 48.7037 52.3012 48.4699 52.034 48.031C47.698 40.9089 43.3679 33.7795 39.0436 26.6429C38.8116 26.2594 38.576 26.1014 38.0786 26.1384C35.9859 26.2678 34.0098 27.1062 32.5045 28.503C31.4498 29.4482 30.6447 30.5868 29.7534 31.6582C28.4983 33.1718 27.3013 34.7595 25.6366 35.8729C24.719 36.4868 24.1653 37.0973 24.2567 38.2006C24.2883 38.5739 24.1108 38.9641 24.0176 39.3442C23.4164 41.7762 22.2686 44.0181 21.3809 46.3525C20.4932 48.6869 20.5019 50.9456 21.75 53.164C21.9627 53.5457 22.1983 53.7291 22.6922 53.7274C26.9954 53.7038 31.2898 53.7122 35.5895 53.7122ZM50.2885 54.4287C50.2885 57.6831 53.1098 60.3841 56.4743 60.3555C57.7019 60.3585 58.9027 60.0129 59.9248 59.3624C60.9469 58.712 61.7442 57.7859 62.2158 56.7016C62.6875 55.6173 62.8121 54.4234 62.574 53.2712C62.336 52.119 61.7459 51.0604 60.8785 50.2293C60.0111 49.3982 58.9054 48.8322 57.7015 48.6027C56.4976 48.3733 55.2497 48.4909 54.1157 48.9406C52.9817 49.3903 52.0127 50.1518 51.3314 51.1288C50.6501 52.1058 50.2871 53.2542 50.2885 54.4287Z" fill="#E5BF39"/>
<path d="M33.8388 18.7232C33.8388 17.7141 33.5365 17.0229 33.3343 16.3182C33.1884 15.8136 33.4064 15.6354 33.7914 15.3999C34.2045 15.1476 34.4031 15.3192 34.6598 15.5933C35.2012 16.1685 35.7707 16.7218 36.5072 17.4652C36.4193 16.5301 36.1346 15.8809 35.8973 15.2351C35.66 14.5892 35.7215 14.157 36.567 14.0225C36.9801 15.4302 37.3914 16.8513 37.8168 18.2691C37.9399 18.6778 37.6516 18.7888 37.3809 18.9671C37.0557 19.1807 36.8535 19.063 36.6373 18.8359C36.0959 18.2859 35.5439 17.7494 34.992 17.2112C34.8373 17.0616 34.7266 16.8194 34.4154 16.922C34.6439 17.7629 34.8478 18.6156 35.1185 19.4447C35.2609 19.8921 35.1889 20.136 34.7424 20.3933C34.2959 20.6506 34.1254 20.3815 33.8916 20.1377C33.0232 19.2328 32.1478 18.3347 31.2882 17.4232C31.1441 17.2701 30.7609 17.0868 31.1599 16.8396C31.4218 16.6714 31.7031 16.3888 32.0529 16.7941C32.5714 17.4047 33.1392 17.9765 33.8388 18.7232ZM33.8758 18.7232C33.8951 18.703 33.9303 18.6829 33.932 18.6627C33.9338 18.6425 33.8986 18.6189 33.8793 18.5988L33.816 18.6879L33.8758 18.7232Z" fill="#E5BF39"/>
<path d="M13.6975 42.9508C14.3637 43.1493 15.0264 43.3646 15.6997 43.5429C16.0513 43.6354 16.1743 43.78 16.0671 44.1349C15.9511 44.5183 15.7331 44.5116 15.4096 44.409C14.2196 44.0306 13.0243 43.669 11.8342 43.2939C11.5547 43.2065 11.0906 43.193 11.3262 42.7339C11.5143 42.3706 11.3069 41.6928 12.1119 41.7483C12.9698 41.8072 13.8294 41.8257 14.863 41.8694C14.1317 41.1967 13.3934 40.8216 12.6832 40.4314C11.8975 39.9992 12.4442 39.5232 12.5532 39.086C12.7026 38.4923 13.1245 38.901 13.3881 38.975C14.5342 39.2979 15.6733 39.6679 16.8054 40.011C17.1341 40.1102 17.4048 40.1909 17.2536 40.6349C17.1024 41.0789 16.8476 41.0066 16.5224 40.8855C15.8298 40.6265 15.1038 40.5189 14.137 40.3608C14.9368 40.8334 15.5292 41.1714 16.1075 41.5381C16.4222 41.7332 16.8528 41.8055 16.663 42.3975C16.4731 42.9895 16.046 42.749 15.6891 42.7827C15.5728 42.7788 15.4578 42.7578 15.3481 42.7204C15.1565 42.5405 14.9421 42.596 14.7276 42.67L13.8364 42.6296C13.5551 42.564 13.2704 42.4816 12.975 42.6717C13.0607 42.7731 13.172 42.852 13.2984 42.9009C13.4249 42.9497 13.5622 42.9669 13.6975 42.9508Z" fill="#E5BF39"/>
<path d="M88.7044 90.3109C87.931 89.9746 87.3351 89.0445 86.5792 89.1336C85.8848 89.2093 85.2766 89.9914 84.5401 90.5279C84.5401 89.8081 84.8126 89.2379 85.0042 88.661C85.1589 88.1884 85.0762 87.884 84.6034 87.6267C84.076 87.3408 83.6137 86.9758 82.8965 86.4931C83.8211 86.4545 84.4786 86.3956 85.1255 86.4107C85.5632 86.4225 85.7389 86.2611 85.8374 85.8742C86.0026 85.2334 86.2224 84.6044 86.4755 83.7837C86.7603 84.5624 87.0028 85.1409 87.1786 85.7397C87.3105 86.1971 87.5495 86.3552 88.0452 86.3166C88.6482 86.2678 89.2564 86.3048 89.9701 86.3048C89.5535 86.8985 88.9593 87.1962 88.4566 87.5712C88.105 87.8369 88.0364 88.0589 88.1736 88.4828C88.3704 89.0916 88.8398 89.6416 88.6921 90.3328L88.7044 90.3109Z" fill="#E5BF39"/>
<path d="M30.3672 90.5343C29.5357 90.0079 28.9222 89.357 28.2138 89.241C27.4615 89.1216 26.9833 90.0432 26.3118 90.393C26.2078 90.4284 26.0987 90.4482 25.9884 90.4519C25.9691 90.3762 25.9374 90.3274 25.9515 90.2955C26.797 88.2655 26.797 88.2655 25.0269 87.0428C24.8915 86.9486 24.7702 86.8376 24.4784 86.6038C25.2747 86.5635 25.8847 86.4962 26.5052 86.5147C27.0079 86.5298 27.2312 86.3717 27.3314 85.889C27.4615 85.2668 27.697 84.6647 27.9062 83.9902C28.3035 84.5806 28.4529 85.2129 28.6445 85.8117C28.8027 86.3061 29.0505 86.4844 29.5779 86.4356C30.1808 86.3902 30.789 86.4256 31.5502 86.4256C30.9771 86.8712 30.4955 87.29 29.9681 87.6466C29.5586 87.9224 29.4865 88.2049 29.6763 88.6405C29.9207 89.1989 30.0965 89.7842 30.3672 90.5343Z" fill="#E5BF39"/>
<path d="M98.1263 67.9057C98.9332 68.1479 99.6785 68.3935 100.436 68.5902C100.811 68.6878 100.893 68.8459 100.788 69.1906C100.682 69.5354 100.468 69.5657 100.141 69.4665C98.9719 69.1116 97.7906 68.7937 96.6252 68.422C96.3738 68.343 95.8781 68.4389 95.9765 67.9394C96.0451 67.5878 96.1523 67.2498 96.6304 67.1539C97.3441 67.011 98.0367 66.8176 98.7504 66.6258C98.9912 66.5636 99.2777 66.572 99.4869 66.276C98.7978 66.0675 98.1334 65.8757 97.4759 65.6655C97.1595 65.5629 96.6744 65.6386 96.8906 65.0079C97.0857 64.4394 97.4179 64.7169 97.7045 64.7977C98.8564 65.1172 100.003 65.4536 101.143 65.8068C101.391 65.8808 101.798 65.8471 101.697 66.2844C101.621 66.604 101.554 66.9168 101.099 67.0059C100.327 67.1556 99.5695 67.3726 98.8137 67.5727C98.5922 67.6215 98.332 67.5963 98.1263 67.9057Z" fill="#E5BF39"/>
<path d="M100.29 46.2331C99.5872 46.3508 98.9034 46.4652 98.2266 46.5694C97.875 46.625 97.4953 46.8217 97.3758 46.2331C97.2563 45.6444 97.7274 45.7453 98.0122 45.6915C99.1565 45.4779 100.308 45.2896 101.461 45.1197C101.709 45.0827 102.062 44.8001 102.217 45.2021C102.356 45.5637 102.403 45.9388 101.987 46.2533C101.368 46.7175 100.797 47.2405 100.211 47.7467C100.092 47.851 99.9001 47.9149 99.9194 48.1924C100.696 48.2429 101.429 47.9755 102.183 47.8863C102.488 47.851 102.721 47.7703 102.802 48.2059C102.883 48.6415 102.697 48.734 102.321 48.7945C101.113 48.9846 99.9089 49.2049 98.6995 49.395C98.4534 49.4336 98.1176 49.6809 97.9682 49.2503C97.8469 48.9022 97.759 48.5776 98.144 48.2748C98.6907 47.8577 99.1987 47.402 99.7155 46.9411C99.9212 46.7511 100.225 46.6418 100.29 46.2331Z" fill="#E5BF39"/>
<path d="M90.7434 80.9617C91.3569 81.4175 91.958 81.8867 92.5856 82.3223C92.8967 82.5393 92.902 82.7125 92.6858 82.9951C92.4344 83.3314 92.2393 83.2238 91.9827 83.027C90.993 82.287 89.9875 81.5689 89.0049 80.8204C88.8291 80.6876 88.4371 80.5984 88.6305 80.2671C88.8062 79.9661 88.982 79.6297 89.483 79.6919C90.4533 79.8113 91.4307 79.8786 92.5856 79.9846C91.9704 79.295 91.3235 78.93 90.7381 78.4978C90.4393 78.2775 90.318 78.1076 90.5992 77.7612C90.8805 77.4147 91.0528 77.5711 91.3024 77.7527C92.2709 78.4743 93.2518 79.1773 94.2134 79.9055C94.412 80.0569 94.8356 80.1359 94.6423 80.5143C94.477 80.8423 94.2555 81.1114 93.7633 81.0475C92.786 80.918 91.8016 80.8457 90.8207 80.7498C90.7926 80.8238 90.768 80.8928 90.7434 80.9617Z" fill="#E5BF39"/>
<path d="M12.5496 57.7386C12.8943 57.2788 13.3304 56.8885 13.8328 56.5899C14.0508 56.4604 14.2934 56.0063 14.5131 56.2939C14.7328 56.5815 14.8488 57.0777 14.3918 57.4174C13.9998 57.7067 13.6219 58.0161 13.2404 58.3205C12.9346 58.5644 12.6726 58.8671 12.8168 59.254C12.9926 59.7215 13.4232 59.3498 13.7221 59.4306C14.1334 59.5399 14.8242 58.9395 14.9262 59.8662C14.9631 60.1857 14.8787 60.3186 14.5324 60.3472C13.1941 60.4537 11.8582 60.572 10.5246 60.702C10.1378 60.7407 9.99721 60.5894 9.9726 60.2479C9.93041 59.6357 9.8724 59.0236 9.83197 58.4114C9.78275 57.6966 9.8847 57.0491 10.7373 56.8052C11.5898 56.5613 12.1295 56.9246 12.5496 57.7386ZM10.6546 58.6922C10.8164 59.069 10.4437 59.8443 11.4949 59.6727C12.4459 59.5163 11.8992 58.9361 11.9027 58.5392C11.9027 58.1103 11.7797 57.6579 11.1714 57.7403C10.6353 57.8076 10.6371 58.2365 10.6546 58.6922Z" fill="#E5BF39"/>
<path d="M95.5249 34.1508C94.8463 34.467 94.1643 34.7765 93.4946 35.1061C93.2238 35.239 93.0393 35.2978 92.8723 34.9615C92.7246 34.6604 92.6842 34.4788 93.0481 34.3005C94.1432 33.7758 95.2137 33.2056 96.3106 32.6826C96.5532 32.5682 96.8133 32.178 97.1298 32.5261C97.4462 32.8743 97.4971 33.2174 97.1878 33.653C96.6604 34.388 96.2262 35.1801 95.676 36.0715C96.5743 35.9151 97.1878 35.4273 97.8804 35.1212C98.1722 34.9917 98.4077 34.7849 98.6415 35.2339C98.8507 35.6342 98.6731 35.7671 98.3444 35.9268C97.2511 36.4566 96.1753 37.0184 95.0766 37.5364C94.8674 37.6339 94.6161 38.0174 94.3401 37.6306C94.1362 37.3413 93.9147 37.0587 94.1907 36.65C94.718 35.8764 95.1663 35.0641 95.6479 34.2685C95.6602 34.2046 95.6725 34.1407 95.6866 34.0768L95.5249 34.1508Z" fill="#E5BF39"/>
<path d="M71.3424 95.9316C72.0811 96.308 72.7446 96.8062 73.3023 97.4032C72.6572 97.8674 72.1158 97.78 71.5779 97.2771C71.254 96.9948 70.9006 96.7451 70.5232 96.532C70.3983 96.455 70.2515 96.4171 70.103 96.4238C69.9546 96.4304 69.8121 96.4812 69.6953 96.5691C69.4527 96.749 69.6742 96.9744 69.7322 97.1745C69.7923 97.4469 69.8776 97.7137 69.9871 97.9717C70.1839 98.3602 70.0292 98.5049 69.6478 98.626C69.2663 98.747 69.1415 98.6512 69.0308 98.3014C68.6511 97.1028 68.2486 95.9103 67.8232 94.7241C67.6878 94.3456 67.7652 94.1724 68.1747 94.0665C68.7654 93.9117 69.3402 93.7049 69.9326 93.5367C70.6357 93.3315 71.3265 93.2709 71.8064 93.9672C72.2301 94.6013 72.1123 95.1277 71.3424 95.9316ZM71.0172 94.9629C70.9855 94.5424 70.8168 94.2313 70.4441 94.2986C69.9167 94.3944 69.2136 94.3204 68.9816 94.9091C68.9095 95.0924 68.9517 95.8408 69.4861 95.75C70.0556 95.6642 70.7886 95.6188 71.0172 94.9629Z" fill="#E5BF39"/>
<path d="M101.966 54.3094C101.686 53.8604 101.563 53.4685 102.103 53.0783C102.454 52.821 102.426 52.382 102.317 51.9868C102.26 51.7379 102.12 51.5135 101.918 51.3473C101.716 51.1811 101.463 51.0821 101.197 51.0651C100.456 50.981 99.705 51.013 99.2251 51.6756C98.8735 52.1533 98.9421 52.6847 99.2163 53.1893C99.3481 53.4348 99.5134 53.603 99.828 53.5408C100.169 53.4735 100.083 53.2179 100.072 53.006C100.058 52.7318 99.9475 52.4526 100.424 52.4089C100.974 52.3601 100.839 52.7453 100.902 53.0043C100.905 53.0323 100.905 53.0604 100.902 53.0884C101.02 54.444 100.55 54.8442 99.1442 54.5465C99.0373 54.5196 98.9385 54.4689 98.8559 54.3985C98.0456 53.7258 97.8909 51.832 98.5694 50.9676C99.313 50.019 101.048 49.7365 102.148 50.3873C103.154 50.9827 103.555 52.4577 103.001 53.5088C102.904 53.7092 102.76 53.8855 102.581 54.0243C102.401 54.1631 102.191 54.2607 101.966 54.3094Z" fill="#E5BF39"/>
<path d="M94.2872 72.1992C94.3242 71.1262 94.7056 70.2029 95.7498 69.7033C96.7429 69.2291 97.7045 69.5133 98.5482 70.107C99.9545 71.0925 99.7471 73.3664 98.2125 74.0492C97.8768 74.1972 97.3775 74.4108 97.1947 74.0627C97.0119 73.7145 97.1947 73.2756 97.7783 73.1612C98.2916 73.0603 98.499 72.6331 98.5799 72.1622C98.6766 71.5937 98.4146 71.1716 97.933 70.8907C97.3248 70.5342 96.6761 70.2466 95.959 70.6267C95.4158 70.9143 95.2558 71.4087 95.2189 71.9722C95.1987 72.0976 95.2275 72.2258 95.2998 72.3322C95.3721 72.4386 95.4829 72.5158 95.6109 72.549C95.9783 72.6668 95.9449 72.3338 96.0697 72.1841C96.2209 72.0024 96.1593 71.5937 96.641 71.7871C97.0928 71.9671 97.0084 72.2127 96.8361 72.5137C96.8097 72.5625 96.7957 72.618 96.7728 72.6701C96.2068 73.918 95.7884 74.0156 94.5861 73.1949C94.18 72.9174 94.3628 72.5389 94.2872 72.1992Z" fill="#E5BF39"/>
<path d="M61.4773 13.2995C61.5705 12.3173 61.6426 11.5571 61.7181 10.7969C61.7498 10.4908 61.734 10.1763 62.2367 10.2133C62.706 10.2486 62.7113 10.4824 62.6709 10.8355C62.5426 11.9725 62.4635 13.1144 62.3193 14.2497C62.2877 14.5037 62.4617 14.9376 61.9519 14.9678C61.5248 14.9948 61.1908 14.8787 60.9869 14.4347C60.5921 13.5736 60.1148 12.7494 59.5613 11.9725C59.4781 12.7158 59.396 13.4598 59.3152 14.2043C59.2853 14.4868 59.2906 14.7391 58.8318 14.7088C58.373 14.6786 58.3396 14.4532 58.3783 14.1034C58.5031 12.9379 58.605 11.7707 58.7298 10.6051C58.7562 10.3512 58.6542 9.9778 59.0814 9.96098C59.454 9.94753 59.7968 9.99126 59.9955 10.4285C60.4191 11.3334 60.9113 12.2079 61.4773 13.2995Z" fill="#E5BF39"/>
<path d="M45.9397 99.2153C44.8568 99.18 43.9111 98.8941 43.4471 97.9119C42.983 96.9297 43.1588 95.9273 43.8496 95.0662C44.8322 93.8435 47.2598 94.0873 47.8469 95.4564C47.9401 95.6733 48.2372 96.0164 47.8012 96.1476C47.5235 96.23 47.1174 96.3158 46.9223 95.86C46.5848 95.0763 45.894 94.9905 45.1645 95.2259C44.4701 95.4496 44.0254 96.7144 44.3225 97.4964C44.6002 98.2247 45.2154 98.4013 45.9502 98.3222C46.2438 98.292 46.5496 98.2381 46.5813 97.8664C46.6147 97.4662 46.2508 97.5587 46.0328 97.4779C45.8149 97.3972 45.5055 97.3989 45.618 96.9986C45.7217 96.6269 45.9221 96.5714 46.2508 96.6824C46.3086 96.6972 46.3673 96.7084 46.4266 96.7161C47.9436 97.0289 48.0807 97.266 47.4444 98.6435C47.142 99.291 46.4688 99.1295 45.9397 99.2153Z" fill="#E5BF39"/>
<path d="M92.4098 26.3517C92.4238 27.566 91.5308 28.6609 90.4304 29.0814C89.4724 29.4463 88.7886 29.2496 87.9695 28.3666C86.753 27.0581 86.753 27.0581 88.1453 25.8808C88.8027 25.3292 89.4566 24.7758 90.1175 24.2292C90.2582 24.1132 90.4392 23.8542 90.6168 24.0611C91.3094 24.8616 92.2867 25.4873 92.4098 26.3517ZM91.4764 26.5485C91.4377 26.0608 91.0703 25.6252 90.6308 25.3376C90.2898 25.1156 90.0789 25.6 89.831 25.7866C89.3529 26.1482 88.9222 26.5687 88.4423 26.9269C88.1277 27.1607 88.1365 27.3508 88.3913 27.5997C88.7693 27.973 89.0664 28.4759 89.7519 28.3027C90.4375 28.1294 91.4254 27.1607 91.4764 26.5485Z" fill="#E5BF39"/>
<path d="M11.9873 52.2206C12.1367 51.9465 11.6832 51.3932 12.3494 51.2485C13.2652 51.0484 14.1231 51.336 14.3744 51.9078C14.8455 52.9808 14.9018 54.0404 14.0633 54.9806C13.4076 55.7155 12.0365 55.9106 10.9642 55.4851C9.47006 54.8931 9.01302 52.6731 10.1996 51.6858C10.4334 51.4924 10.7761 51.1241 11.075 51.4604C11.2613 51.6791 11.3351 52.0844 10.9203 52.4107C10.783 52.5144 10.6687 52.6433 10.5842 52.7898C10.4998 52.9364 10.4468 53.0976 10.4285 53.2641C10.4101 53.4305 10.4268 53.5988 10.4774 53.759C10.5281 53.9191 10.6117 54.068 10.7234 54.1968C11.2226 54.7804 12.643 54.8813 13.318 54.3818C13.833 54 13.9684 53.1036 13.6186 52.5486C13.5754 52.461 13.5057 52.3879 13.4186 52.3387C13.3314 52.2896 13.2308 52.2666 13.1299 52.2728C12.9066 52.2812 12.8592 52.4208 12.817 52.5991C12.7484 52.8951 12.9928 53.4148 12.3125 53.3172C11.6322 53.2197 12.1209 52.7336 11.9926 52.4511C11.979 52.3749 11.9772 52.2973 11.9873 52.2206Z" fill="#E5BF39"/>
<path d="M40.3182 92.607C41.7156 92.6205 42.8547 93.6615 42.8213 94.8943C42.7809 96.3962 41.7068 97.5634 40.3744 97.555C38.9945 97.5449 37.8642 96.5694 37.8537 95.3787C37.8396 93.9205 39.0244 92.5952 40.3182 92.607ZM40.4676 93.49C39.6625 93.49 38.8855 94.4116 38.8855 95.3921C38.8834 95.7295 39.0185 96.0545 39.2622 96.2983C39.5059 96.5422 39.8392 96.6858 40.1916 96.6989C41.0248 96.7191 41.8422 95.7369 41.8193 94.7429C41.8133 94.4054 41.6676 94.0839 41.4142 93.8491C41.1608 93.6142 40.8204 93.485 40.4676 93.49Z" fill="#E5BF39"/>
<path d="M101.224 56.5396C101.751 57.69 103.509 58.0819 102.915 59.7906C102.431 59.2861 101.992 58.8539 101.598 58.3914C101.308 58.055 101.06 58.0045 100.654 58.245C99.8421 58.7244 98.9913 59.1448 98.137 59.6023C97.9243 58.753 98.1862 58.2383 98.9948 57.9944C99.2467 57.9197 99.4843 57.8061 99.6979 57.6581C99.9299 57.4899 100.473 57.5168 100.343 57.1401C100.288 56.9502 100.175 56.7804 100.018 56.6523C99.8615 56.5241 99.6687 56.4433 99.4641 56.4202C99.2022 56.4034 98.9368 56.3849 98.6766 56.3866C98.2741 56.3866 98.2881 56.1444 98.325 55.882C98.362 55.6197 98.3356 55.3775 98.7452 55.4044C100.113 55.5053 101.48 55.5894 102.848 55.6735C103.18 55.6937 103.298 55.8417 103.282 56.1562C103.266 56.4707 103.168 56.686 102.769 56.6506C102.264 56.5951 101.779 56.5733 101.224 56.5396Z" fill="#E5BF39"/>
<path d="M21.2017 81.1401C20.052 80.5834 18.4471 81.4058 17.7546 79.7323C18.4577 79.8114 19.0712 79.8501 19.6776 79.9611C20.1417 80.0469 20.3579 79.9291 20.5056 79.4885C20.7956 78.6156 21.1542 77.7646 21.4987 76.8682C22.2177 77.3929 22.4075 77.9513 21.9329 78.6661C21.8051 78.8855 21.7048 79.1187 21.6341 79.3607C21.5462 79.6146 21.2193 79.9678 21.4372 80.104C21.6088 80.2126 21.8082 80.274 22.0138 80.2814C22.2193 80.2888 22.4231 80.242 22.6027 80.1461C22.8284 80.0174 23.0393 79.8663 23.232 79.6953C23.5273 79.4279 23.7101 79.512 23.9351 79.7963C24.1601 80.0805 24.2041 80.2436 23.8701 80.469C22.7849 81.2258 21.7132 82 20.655 82.7916C20.3386 83.0288 20.1804 82.9682 19.9624 82.6874C19.7444 82.4065 19.7005 82.2248 20.0327 82.0045C20.4194 81.7506 20.7886 81.4495 21.2017 81.1401Z" fill="#E5BF39"/>
<path d="M50.4154 14.2158C50.9867 14.1435 51.5088 14.0829 52.0291 14.0106C52.3578 13.9652 52.6655 13.8845 52.7322 14.3655C52.799 14.8465 52.4475 14.7725 52.1838 14.8078C51.4033 14.9171 50.6018 14.9541 49.8424 15.1206C49.1867 15.2636 48.9634 15.0752 48.8984 14.463C48.7812 13.3508 48.6295 12.2424 48.4431 11.138C48.3658 10.6806 48.4537 10.4653 48.9705 10.4232C49.8494 10.3408 50.709 10.2181 51.5756 10.097C51.8428 10.06 52.0361 10.0532 52.0625 10.3812C52.0819 10.6486 52.1152 10.8723 51.7109 10.9076C51.1309 10.9581 50.556 11.0758 49.976 11.1279C49.4926 11.1666 49.5365 11.4273 49.5629 11.7654C49.591 12.1471 49.7492 12.2312 50.1166 12.1656C50.6035 12.0765 51.101 12.0395 51.5897 11.9588C51.8867 11.91 52.0801 11.9184 52.1486 12.2733C52.2172 12.6281 52.0748 12.7257 51.7531 12.7593C51.2609 12.8115 50.7723 12.9124 50.2783 12.941C49.7844 12.9696 49.7299 13.2319 49.8072 13.6137C49.8846 13.9955 49.867 14.3974 50.4154 14.2158Z" fill="#E5BF39"/>
<path d="M70.3914 11.9C69.8078 12.2363 69.3367 12.5727 68.834 12.8082C68.3312 13.0436 68.1959 13.3447 68.4068 13.8627C68.732 14.6649 68.9922 15.4924 69.298 16.3602C68.4648 16.4056 67.9252 16.192 67.8232 15.341C67.793 15.0634 67.7121 14.793 67.5841 14.5422C67.4523 14.2966 67.6017 13.792 67.1746 13.8425C66.9679 13.8588 66.7712 13.9342 66.61 14.059C66.4489 14.1838 66.3307 14.3522 66.271 14.5422C66.1964 14.7531 66.1377 14.969 66.0953 15.188C66.0496 15.5799 65.8316 15.6269 65.4888 15.5395C65.146 15.452 64.979 15.3713 65.095 14.9727C65.4554 13.7399 65.7753 12.4953 66.0988 11.2525C66.1849 10.9161 66.3431 10.7883 66.7175 10.8942C67.055 10.9884 67.2203 11.1213 67.1095 11.4829C66.9707 11.9302 66.8652 12.386 66.7351 12.8805C67.9902 12.6366 68.732 11.0288 70.3914 11.9Z" fill="#E5BF39"/>
<path d="M30.2459 23.0894C29.9516 23.0968 29.6625 23.015 29.4197 22.8556C29.2281 22.7278 28.8467 22.6269 29.0963 22.3141C29.258 22.1106 29.4338 21.7355 29.8627 21.9861C30.4006 22.3006 30.8699 22.1392 31.2778 21.7439C31.5221 21.5051 31.6293 21.199 31.4377 20.903C31.2461 20.607 30.9332 20.6743 30.6449 20.7718C30.2055 20.9198 29.7783 21.1082 29.3301 21.2259C28.7148 21.3941 28.1523 21.2663 27.7937 20.7214C27.4351 20.1764 27.5318 19.6063 27.9695 19.1017C28.5883 18.3853 29.5234 18.0153 30.1949 18.2608C30.441 18.3533 30.884 18.4458 30.7416 18.7654C30.6238 19.0311 30.3479 19.4179 29.8539 19.1825C29.7252 19.1186 29.5796 19.0928 29.4355 19.1085C29.248 19.1409 29.0712 19.2156 28.9199 19.3265C28.7686 19.4373 28.6471 19.5811 28.5654 19.7459C28.5135 19.8159 28.4926 19.9026 28.5071 19.9873C28.5215 20.072 28.5703 20.1478 28.6428 20.1983C28.9592 20.39 29.258 20.2134 29.5568 20.1159C29.961 19.9568 30.3763 19.8247 30.7996 19.7207C31.0502 19.6721 31.3098 19.6877 31.5521 19.7658C31.7944 19.8439 32.011 19.9817 32.1798 20.1654C32.3486 20.3492 32.4639 20.5722 32.5138 20.8122C32.5638 21.0521 32.5467 21.3004 32.4643 21.532C32.2129 22.2939 31.0686 23.0928 30.2459 23.0894Z" fill="#E5BF39"/>
<path d="M17.1656 78.8324C16.96 78.8492 16.9195 78.6894 16.851 78.5784C16.3693 77.8149 15.8965 77.0446 15.4166 76.2777C15.2654 76.0388 15.2021 75.8606 15.5256 75.6621C15.907 75.4283 16.0301 75.6352 16.1848 75.8959C16.4291 76.3079 16.7121 76.7032 16.9318 77.127C17.1393 77.5239 17.3379 77.6467 17.7967 77.3894C18.2942 77.1085 18.0463 76.8747 17.8653 76.5888C17.6227 76.2087 17.3994 75.8152 17.1498 75.4384C16.9582 75.1492 17.0707 75.0011 17.3449 74.8414C17.6192 74.6816 17.7545 74.796 17.8863 75.0196C18.085 75.356 18.3082 75.6924 18.5086 76.0288C18.7371 76.4156 18.8602 76.8041 19.5176 76.4223C20.1504 76.054 19.936 75.7698 19.667 75.3712C19.3981 74.9726 19.1924 74.6025 18.9428 74.2258C18.767 73.9634 18.6739 73.7616 19.0518 73.5531C19.3911 73.3664 19.5053 73.5228 19.653 73.765C20.1223 74.537 20.6057 75.3005 21.0874 76.0658C21.2315 76.2945 21.3458 76.4946 21.0083 76.683C19.7971 77.3557 18.5948 78.0436 17.3889 78.7264C17.315 78.7702 17.2272 78.8004 17.1656 78.8324Z" fill="#E5BF39"/>
<path d="M74.1162 13.3433C75.0619 13.3433 76.0867 13.9522 76.2643 14.6552C76.3416 14.963 76.4611 15.4137 76.0727 15.4961C75.9792 15.5167 75.8822 15.5173 75.7885 15.498C75.6947 15.4787 75.6066 15.4399 75.5303 15.3844C75.454 15.3289 75.3913 15.258 75.3469 15.1767C75.3024 15.0955 75.2771 15.0058 75.2728 14.9142C75.2306 14.3945 74.7859 14.2684 74.3412 14.1792C74.1285 14.1355 73.9228 14.1574 73.8138 14.3642C73.7668 14.4529 73.7551 14.5549 73.781 14.6511C73.8069 14.7474 73.8685 14.8314 73.9545 14.8873C74.3271 15.2001 74.7191 15.4927 75.0865 15.8106C75.6824 16.3269 75.823 16.9442 75.4223 17.622C75.0373 18.2712 74.4238 18.4225 73.6925 18.2745C72.5535 18.0424 71.7589 17.3411 71.7589 16.5035C71.7589 16.2647 71.6622 15.8644 72.1105 15.8897C72.3882 15.9065 72.7978 15.9283 72.7662 16.3942C72.747 16.5643 72.7825 16.7359 72.868 16.8861C72.9534 17.0364 73.0847 17.1581 73.2443 17.2351C73.6662 17.4555 74.1478 17.6657 74.4959 17.183C74.8439 16.7003 74.3306 16.5103 74.0459 16.2496C73.7049 15.9871 73.3798 15.7063 73.072 15.4087C72.8881 15.2245 72.7715 14.9883 72.7398 14.7354C72.7081 14.4824 72.763 14.2265 72.8962 14.006C73.0026 13.7881 73.1771 13.6072 73.3957 13.4885C73.6143 13.3697 73.8661 13.319 74.1162 13.3433Z" fill="#E5BF39"/>
<path d="M57.5573 9.7706C57.4944 9.88939 57.4251 10.005 57.3499 10.1171C56.8999 10.6553 56.0069 11.0757 56.042 11.698C56.0772 12.3203 56.7786 12.8602 57.1635 13.4505C57.3762 13.7717 57.6997 14.0374 57.763 14.4495C57.0071 14.6698 56.4428 14.5285 56.1264 13.7936C56.0356 13.5868 55.9123 13.3946 55.7608 13.2234C55.534 12.9678 55.4778 12.359 55.0858 12.5103C54.8546 12.6063 54.6615 12.7705 54.535 12.9791C54.4085 13.1876 54.3551 13.4294 54.3826 13.6691C54.4125 14.0358 54.6955 14.6278 53.8553 14.5975C53.567 14.5857 53.4387 14.537 53.4334 14.2342C53.4065 12.8887 53.3678 11.5472 53.3174 10.2096C53.3033 9.81938 53.5811 9.84629 53.8447 9.81938C54.1506 9.7891 54.3475 9.85301 54.3334 10.2112C54.3141 10.7023 54.3334 11.1934 54.3334 11.8258C55.2967 11.1665 55.6571 10.1709 56.5852 9.78574C56.8331 9.67978 57.1811 9.7706 57.5573 9.7706Z" fill="#E5BF39"/>
<path d="M24.4695 23.4074C24.3381 23.3801 24.2013 23.3872 24.0737 23.4277C23.946 23.4682 23.832 23.5408 23.7436 23.6378C23.5045 23.8783 23.1969 24.1642 23.45 24.5073C23.7031 24.8504 24.0336 24.5846 24.3061 24.4551C24.7244 24.2584 25.1076 23.9859 25.5365 23.8295C26.5438 23.4629 27.5176 24.1474 27.5053 25.175C27.4895 26.3523 25.9075 27.5161 24.807 27.136C24.5697 27.0553 24.1285 27.0183 24.2938 26.6315C24.4063 26.3657 24.5803 25.9957 25.0742 26.1959C25.7229 26.4599 26.1289 26.0983 26.4366 25.6123C26.5138 25.5082 26.5527 25.3825 26.5473 25.255C26.5419 25.1275 26.4924 25.0053 26.4067 24.9076C26.2045 24.662 25.9409 24.7057 25.6948 24.8251C25.2535 25.0387 24.8352 25.2994 24.3852 25.4979C23.7682 25.7687 23.1758 25.7148 22.7222 25.1867C22.2687 24.6586 22.3338 24.0885 22.7222 23.5621C23.1494 22.9835 23.6557 22.4605 24.4678 22.4369C24.8317 22.4252 25.3625 22.4571 25.3467 22.8893C25.3437 22.9871 25.3154 23.0826 25.2643 23.1673C25.2133 23.2519 25.141 23.3232 25.054 23.3745C24.9671 23.4259 24.8681 23.4558 24.7661 23.4615C24.6641 23.4672 24.5622 23.4486 24.4695 23.4074Z" fill="#E5BF39"/>
<path d="M18.7795 31.2783C18.3822 31.0395 18.0394 30.7956 17.6615 30.6157C17.2009 30.3954 17.1763 30.1481 17.4611 29.7664C17.6369 29.5275 17.7705 29.5191 18.0166 29.6671C19.175 30.3668 20.3387 31.0597 21.5147 31.7341C21.8785 31.9443 21.7819 32.131 21.6131 32.4069C21.4162 32.7264 21.2281 32.7718 20.924 32.5431C20.7201 32.3884 20.4547 32.3043 20.2613 32.1394C19.7006 31.6635 19.4228 31.8367 19.0221 32.4035C18.5211 33.1116 18.6037 33.4563 19.3824 33.8465C19.69 33.9996 20.5443 34.0046 20.0715 34.7816C19.8957 35.0659 19.7551 35.1937 19.4 34.9734C18.275 34.2771 17.1306 33.6077 15.9828 32.945C15.6312 32.7483 15.6576 32.5616 15.8456 32.2723C16.0337 31.983 16.1972 31.8603 16.5119 32.1041C16.6679 32.2331 16.8464 32.335 17.0392 32.4052C17.3117 32.4994 17.5525 32.9619 17.832 32.681C18.1994 32.3026 18.4314 31.8014 18.7795 31.2783Z" fill="#E5BF39"/>
<path d="M62.8942 99.928C62.0153 100.264 61.451 100.051 61.0836 99.3276C60.9807 99.1264 60.8462 98.9415 60.6846 98.7793C60.4719 98.5725 60.3787 98.0595 60.0711 98.1873C59.8658 98.2666 59.6922 98.4063 59.5753 98.5862C59.4583 98.766 59.4042 98.9768 59.4207 99.188C59.4259 99.2158 59.4259 99.2443 59.4207 99.2721C59.3029 99.6405 59.9006 100.305 58.9601 100.333C58.1146 100.36 58.5084 99.6825 58.4556 99.3629C58.2799 98.3437 58.2517 97.306 58.1603 96.2767C58.1287 95.9286 58.0707 95.6393 58.6226 95.5939C59.1746 95.5485 59.1095 95.8529 59.15 96.1523C59.1957 96.5677 59.2379 96.9831 59.2888 97.4608C60.3963 96.9058 60.4789 95.0591 62.2508 95.3669C62.0487 95.9589 61.574 96.3474 61.182 96.7712C60.8182 97.1648 60.8305 97.444 61.182 97.8291C61.7727 98.48 62.2965 99.1863 62.8942 99.928Z" fill="#E5BF39"/>
<path d="M15.211 66.0186C16.053 66.032 16.6172 66.5752 16.909 67.5541C17.1745 68.4606 16.9688 69.1602 16.2411 69.5252C15.2286 70.0298 14.1018 70.2635 13.033 70.6335C12.6621 70.763 12.6059 70.5259 12.5057 70.2686C12.4055 70.0113 12.3826 69.8044 12.7359 69.6951C13.5973 69.4293 14.4481 69.135 15.3094 68.8676C15.951 68.6675 16.2182 68.2806 16.0126 67.6516C15.8069 67.0226 15.3094 66.9099 14.6942 67.1202C13.8416 67.4094 12.9785 67.6684 12.1225 67.9476C11.85 68.0368 11.683 67.9964 11.618 67.6954C11.5687 67.4683 11.3068 67.1908 11.7006 67.0663C12.8854 66.6778 14.042 66.1985 15.211 66.0186Z" fill="#E5BF39"/>
<path d="M15.1177 46.3997C15.2671 46.3526 15.42 46.3997 15.3849 46.6335C15.3427 46.9194 15.4534 47.3887 15.0509 47.4038C13.9962 47.4442 14.0454 48.1472 13.9048 48.8384C13.801 49.3598 13.9417 49.6406 14.4321 49.8004C14.9999 49.9854 14.919 50.4294 14.738 50.754C14.4884 51.198 14.1983 50.754 13.9821 50.638C12.8571 50.0527 11.7549 49.4304 10.6422 48.8233C10.3381 48.6551 10.0287 48.5357 10.136 48.0782C10.2274 47.6897 10.3522 47.4526 10.8127 47.3601C12.2278 47.0741 13.6393 46.7327 15.1177 46.3997ZM13.0487 49.0789C13.0487 48.6013 13.351 48.0597 13.112 47.9521C12.6303 47.7368 12.0749 48.021 11.5053 48.1859C11.936 48.6013 12.4563 48.7695 13.0487 49.0789Z" fill="#E5BF39"/>
<path d="M14.9243 60.7104C15.2443 61.2957 15.3146 61.7297 14.6343 62.0795C13.8714 62.4713 14.5024 63.0701 14.5007 63.5713C14.5007 63.9346 14.6571 64.244 15.1177 64.2205C15.8665 64.1835 15.9421 64.6561 15.9615 65.2985C14.3056 65.0412 12.6743 64.794 11.0395 64.5299C10.6545 64.4677 10.7143 64.1162 10.6317 63.8572C10.5192 63.5208 10.7477 63.3526 11.0079 63.1945C12.3051 62.3923 13.5866 61.5665 14.9243 60.7104ZM12.0643 63.7125C12.3368 63.9396 12.6743 63.9127 12.9819 63.9261C13.2016 63.9362 13.555 64.1818 13.6323 63.8C13.6849 63.5243 13.6272 63.2397 13.4706 63.0028C13.2368 62.7102 13.0171 63.0617 12.8202 63.171C12.553 63.3207 12.2296 63.4182 12.0643 63.7125Z" fill="#E5BF39"/>
<path d="M97.4777 62.2406C97.5182 60.6479 98.2916 60.0088 99.9387 60.2426C100.747 60.3553 101.547 60.5285 102.354 60.6513C102.725 60.7084 102.825 60.8682 102.774 61.2197C102.723 61.5712 102.567 61.6873 102.192 61.6166C101.333 61.4485 100.464 61.3408 99.6047 61.176C98.9244 61.0448 98.5272 61.2954 98.39 61.9244C98.2529 62.5534 98.5957 62.8578 99.2145 62.9621C100.078 63.1068 100.934 63.2867 101.8 63.4095C102.243 63.4734 102.284 63.687 102.24 64.0452C102.189 64.4707 101.92 64.4472 101.614 64.3917C100.668 64.2235 99.7155 64.0705 98.7785 63.8602C97.8416 63.65 97.4531 63.1505 97.4777 62.2406Z" fill="#E5BF39"/>
<path d="M22.0807 31.677C21.2738 30.3551 20.4986 29.0516 19.683 27.7667C19.4598 27.4135 19.5283 27.1747 19.7709 26.8703C20.0135 26.5659 20.2561 26.5541 20.6006 26.6567C21.9084 27.0452 23.2233 27.4068 24.5311 27.7953C24.7333 27.8558 25.1745 27.7953 25.011 28.1788C24.9003 28.4378 24.7719 28.8347 24.278 28.7422C23.9528 28.6799 23.6012 28.3486 23.3006 28.6127C22.9192 28.949 22.6362 29.3863 22.3075 29.7765C22.1317 29.9817 22.2565 30.1617 22.3883 30.3012C22.884 30.8327 22.6766 31.2448 22.0807 31.677ZM20.9979 27.7852L20.8889 27.691L20.8678 27.8928C21.0682 28.2292 21.2668 28.5656 21.4725 28.8935C21.5569 29.0298 21.6606 29.2299 21.8469 29.0281C22.0332 28.8263 22.318 28.5504 22.3479 28.2864C22.3778 28.0223 21.97 28.0408 21.7449 27.9652C21.5199 27.8895 21.2475 27.8441 20.9979 27.7852Z" fill="#E5BF39"/>
<path d="M81.9155 93.3232C81.4093 93.8278 80.9909 93.9792 80.4653 93.4645C79.8729 92.8843 79.4967 93.6176 79.0327 93.7656C78.6811 93.8766 78.2909 94.0464 78.486 94.5476C78.7444 95.2086 78.2944 95.4424 77.6668 95.6661C77.4295 94.0868 77.1694 92.5328 76.9743 90.9703C76.9145 90.4927 77.695 90.1042 78.0993 90.4019C79.379 91.3538 80.6341 92.341 81.9155 93.3232ZM78.2399 93.1298C78.6108 93.1551 78.8147 92.9179 79.0749 92.8103C79.2506 92.7363 79.379 92.5832 79.1786 92.4302C78.8165 92.1527 78.5387 91.7574 77.9674 91.5893C78.0659 92.1611 78.152 92.6505 78.2364 93.1298H78.2399Z" fill="#E5BF39"/>
<path d="M89.7609 30.1934C91.3641 29.8403 92.925 29.5039 94.4877 29.1473C94.8147 29.0733 94.9711 29.2129 95.1206 29.4484C95.27 29.6838 95.4932 29.8722 95.2647 30.1934C94.3436 31.4784 93.4401 32.7768 92.5277 34.0735C91.9406 33.6345 91.8246 33.246 92.2887 32.6489C92.7738 32.0267 91.9371 31.7037 91.742 31.2244C91.6102 30.8981 91.35 30.7199 90.9791 30.888C90.3287 31.174 90.0017 30.8695 89.7609 30.1934ZM94.0342 30.2994L93.8901 30.1497C93.4067 30.2994 92.8125 30.3364 92.4838 30.6391C92.2904 30.8157 92.8037 31.2412 93.0709 31.6146C93.4207 31.1353 93.7266 30.7165 94.0342 30.2994Z" fill="#E5BF39"/>
<path d="M63.5199 99.4706C63.7783 98.0747 64.0472 96.704 64.274 95.3249C64.3373 94.9397 64.5289 94.8405 64.8857 94.7682C65.2426 94.6959 65.4711 94.7531 65.6785 95.0676C66.4115 96.1776 67.1832 97.2641 67.9145 98.3724C68.0322 98.549 68.4137 98.8046 68.0903 98.9795C67.8318 99.1158 67.3168 99.3966 67.1059 98.8971C66.7631 98.0831 66.1619 98.3034 65.5238 98.3926C64.9332 98.4767 64.5289 98.6701 64.5517 99.3041C64.5675 99.7498 64.2177 99.7481 63.9119 99.8221C63.5445 99.9113 63.4039 99.8053 63.5199 99.4706ZM65.2302 96.0699C65.0633 96.6115 64.6572 97.1631 64.9367 97.5937C65.1125 97.8746 65.6398 97.5332 66.1039 97.4474L65.2302 96.0699Z" fill="#E5BF39"/>
<path d="M16.8318 35.4174C17.4998 35.4174 18.1713 35.3905 18.8358 35.4326C19.0362 35.446 19.4774 35.2946 19.4264 35.6781C19.386 35.9758 19.335 36.4181 18.776 36.4097C18.4737 36.4097 18.0729 36.1944 17.8742 36.4904C17.5842 36.9401 17.3484 37.4196 17.1711 37.92C17.0674 38.1975 17.3873 38.359 17.5754 38.507C17.927 38.7862 17.8356 39.0502 17.6809 39.3883C17.5051 39.7549 17.3785 39.7095 17.1377 39.4656C16.1164 38.433 15.0933 37.4003 14.0509 36.3879C13.7732 36.1171 13.9068 35.8917 14.0175 35.6361C14.1283 35.3804 14.2918 35.1719 14.6592 35.2021C15.3834 35.2593 16.1111 35.2829 16.8371 35.3199L16.8318 35.4174ZM15.0986 36.1322C15.626 36.6519 15.9107 37.2069 16.4521 37.2759C16.6561 37.3011 16.8775 36.6973 16.9232 36.2668L15.0986 36.1322Z" fill="#E5BF39"/>
<path d="M93.7424 73.1108C94.7163 74.3083 95.676 75.4991 96.6481 76.6713C96.8977 76.9707 96.8362 77.1944 96.6657 77.4971C96.4952 77.7998 96.2667 77.9075 95.8958 77.8452C94.5475 77.6232 93.194 77.4349 91.8527 77.2112C91.6488 77.1759 91.2059 77.3003 91.3254 76.8984C91.401 76.6326 91.5012 76.1197 91.974 76.2744C93.2361 76.6881 93.2731 75.5916 93.7407 75.0315C93.934 74.8028 93.7653 74.601 93.593 74.4496C93.0235 73.9551 93.2221 73.5431 93.7424 73.1108ZM95.5583 76.7672C95.2506 76.4005 94.9729 76.0574 94.6793 75.7278C94.602 75.6403 94.4789 75.4755 94.3471 75.6555C94.1713 75.9027 93.9006 76.1701 93.8936 76.4342C93.8866 76.6982 94.2944 76.6612 94.5334 76.6915C94.8393 76.7319 95.1364 76.8866 95.5583 76.7672Z" fill="#E5BF39"/>
<path d="M57.5062 100.291C56.8383 100.459 56.3531 100.459 56.2125 99.7127C56.1017 99.1257 55.5867 99.198 55.1666 99.2434C54.7095 99.2922 54.0679 98.9188 53.8658 99.6858C53.8312 99.8214 53.778 99.952 53.7076 100.074C53.4843 100.449 53.1134 100.258 52.8427 100.209C52.405 100.128 52.7495 99.8455 52.8111 99.7043C53.3507 98.4412 53.9238 97.1815 54.4722 95.9302C54.5847 95.6712 54.7042 95.4761 55.0382 95.5484C55.3248 95.6106 55.6816 95.4711 55.8345 95.8848C56.376 97.353 56.942 98.8112 57.5062 100.291ZM55.7396 98.384C55.5252 97.8021 55.3459 97.3093 55.1261 96.7022C54.8976 97.3312 54.4124 97.8055 54.5847 98.342C54.6691 98.5909 55.2685 98.4513 55.7396 98.384Z" fill="#E5BF39"/>
<path d="M43.0571 16.6194C42.5403 17.0197 42.0762 17.2215 41.6508 16.6009C41.3678 16.1889 41.0127 16.2797 40.6787 16.4832C40.2375 16.7523 39.3938 16.6211 39.4975 17.457C39.5854 18.1549 39.1565 18.2979 38.492 18.3938C38.492 16.833 38.492 15.3059 38.492 13.7805C38.492 13.4441 38.6678 13.2961 38.9684 13.1784C39.269 13.0606 39.4957 13.027 39.7418 13.2843C40.8264 14.4011 41.9374 15.4993 43.0571 16.6194ZM39.4078 14.2648C39.4078 14.835 39.4078 15.2134 39.4078 15.5918C39.4078 15.9702 39.5063 16.061 39.9194 15.9282C40.5662 15.7264 40.7455 15.4993 40.1531 15.0267C39.8904 14.7842 39.6415 14.5282 39.4078 14.2598V14.2648Z" fill="#E5BF39"/>
<path d="M82.4871 18.2609C82.4955 18.5142 82.4348 18.7652 82.3109 18.9891C82.187 19.213 82.0043 19.4022 81.7808 19.538C81.5572 19.6739 81.3005 19.7516 81.036 19.7636C80.7715 19.7756 80.5082 19.7214 80.2723 19.6064C80.1893 19.578 80.1116 19.5371 80.042 19.4853C79.2562 18.7773 78.764 19.0851 78.3914 19.9008C78.2384 20.2371 78.0627 20.4541 77.6056 20.1648C77.189 19.9008 77.3279 19.704 77.516 19.4214C78.1945 18.4123 78.873 17.4032 79.5234 16.3689C79.7449 16.019 79.9312 15.8996 80.318 16.1704C80.8119 16.5169 81.3463 16.8112 81.8578 17.1358C82.0583 17.2523 82.2225 17.4182 82.3332 17.6161C82.4439 17.814 82.497 18.0367 82.4871 18.2609ZM80.7539 18.8479C80.9353 18.8481 81.1098 18.7811 81.2408 18.6611C81.3719 18.541 81.4493 18.3772 81.457 18.2038C81.494 17.8994 80.6273 17.0971 80.325 17.1862C79.8697 17.3208 79.5779 17.8388 79.6219 18.1298C79.715 18.599 80.3197 18.7184 80.7539 18.8479Z" fill="#E5BF39"/>
<path d="M34.6652 90.106C35.4825 90.1985 35.7743 90.5786 35.7726 91.3337C35.7726 92.6792 35.8394 92.7027 37.0171 91.9459C37.6113 91.5641 38.1 91.4682 38.6133 92.0418C38.2617 92.4404 37.7607 92.622 37.3054 92.8474C36.3456 93.32 35.5107 93.8767 35.1573 94.9177C35.0325 95.2844 34.8304 95.4542 34.3804 95.2154C33.9304 94.9766 34.0517 94.7428 34.2626 94.4855C35.0484 93.5352 34.9148 92.4505 34.79 91.3657C34.7495 90.9519 34.7091 90.5365 34.6652 90.106Z" fill="#E5BF39"/>
<path d="M48.9333 95.1162C50.5031 94.8976 50.2078 96.4029 50.8529 97.0268C51.6914 96.6635 51.7318 95.0574 53.3051 95.6645C52.7601 96.3053 52.3031 96.9478 51.7353 97.4826C51.0744 98.1066 51.1271 98.897 51.0129 99.6522C50.9636 99.9885 50.8529 100.103 50.5224 100.031C50.2816 99.9801 49.8896 100.014 50.0162 99.637C50.5435 98.0393 49.6013 96.7914 48.9896 95.4627C48.9564 95.3876 48.9299 95.31 48.9105 95.2306C48.9034 95.2054 48.921 95.1768 48.9333 95.1162Z" fill="#E5BF39"/>
<path d="M46.9982 15.5106C47.0597 15.7225 46.7662 15.7426 46.5183 15.8284C46.1193 15.968 45.9998 15.7511 45.9242 15.445C45.7045 14.5502 45.4337 13.6656 45.2738 12.754C45.1718 12.1721 44.9222 12.1048 44.3949 12.2495C44.1417 12.3134 43.7339 12.68 43.5827 12.0594C43.4491 11.5044 43.8763 11.5548 44.1892 11.4792C45.0066 11.279 45.8275 11.089 46.6502 10.904C46.9455 10.8367 47.2637 10.6702 47.4131 11.1411C47.5748 11.6457 47.1898 11.6574 46.898 11.686C46.1949 11.755 46.0648 12.0577 46.2599 12.6783C46.5377 13.5562 46.7293 14.4594 46.9982 15.5106Z" fill="#E5BF39"/>
<path d="M75.9478 91.8821C75.9127 92.2353 75.5629 92.2555 75.315 92.3379C74.814 92.5061 74.7261 92.7315 74.9635 93.2007C75.3906 94.0197 75.7246 94.8825 76.1359 95.7117C76.3117 96.0598 76.3029 96.2381 75.9039 96.4214C75.4732 96.6199 75.3467 96.4214 75.2008 96.1052C74.8369 95.2862 74.4291 94.4856 74.0916 93.6582C73.8806 93.1385 73.6468 92.9518 73.0896 93.2831C72.8558 93.421 72.4937 93.7607 72.2546 93.2141C72.0156 92.6675 72.4867 92.6692 72.7714 92.5414C73.5888 92.1781 74.4291 91.8687 75.2324 91.4768C75.7457 91.2413 75.8353 91.5289 75.9478 91.8821Z" fill="#E5BF39"/>
<path d="M99.9706 38.8113C100.391 38.7996 100.301 39.1477 100.408 39.3462C100.568 39.6354 100.343 39.7229 100.099 39.8019C99.1883 40.0963 98.2936 40.436 97.3725 40.69C96.824 40.8413 96.643 41.0398 96.9049 41.5662C97.0912 41.9396 97.1809 42.3567 97.3285 42.7435C97.4375 43.0328 97.3795 43.1892 97.0508 43.3103C96.6711 43.4482 96.6043 43.2413 96.5235 42.9941C96.2563 42.2288 95.9856 41.4653 95.7201 40.7C95.6604 40.5319 95.4916 40.3065 95.7869 40.2056C97.1791 39.733 98.5836 39.2738 99.9706 38.8113Z" fill="#E5BF39"/>
<path d="M85.6353 25.0104C85.5445 25.1353 85.4452 25.2544 85.3382 25.3669C85.1624 25.5351 85.0253 25.3888 84.8935 25.2811C84.2308 24.7345 83.5751 24.1779 82.9001 23.6447C82.6118 23.4177 82.5854 23.2495 82.8456 22.972C83.7386 22.0133 84.6034 21.0378 85.4823 20.054C85.7038 19.8017 85.8655 19.7849 86.1064 20.0187C86.3138 20.2205 86.581 20.355 86.2663 20.6914C85.623 21.3759 85.0499 22.1277 84.3696 22.7752C83.8634 23.2562 83.9741 23.5354 84.4856 23.8718C84.7918 24.0864 85.0809 24.3225 85.3505 24.5781C85.4648 24.679 85.6528 24.7547 85.6353 25.0104Z" fill="#E5BF39"/>
<path d="M17.4135 69.8012C17.7035 69.7642 17.765 69.9694 17.8389 70.1376C18.1904 70.8692 18.5227 71.6126 18.8936 72.3324C19.0817 72.6873 18.9463 72.8134 18.6246 72.9514C17.4293 73.4643 16.2392 73.9874 15.058 74.5289C14.7064 74.6853 14.557 74.6298 14.4058 74.2867C14.2546 73.9436 14.2634 73.7822 14.629 73.6359C15.5361 73.2591 16.4238 72.837 17.3326 72.4586C17.7791 72.2752 17.8934 72.065 17.635 71.6412C17.4012 71.2594 17.264 70.8238 17.0373 70.437C16.7824 69.9963 17.1551 69.9408 17.4135 69.8012Z" fill="#E5BF39"/>
<path d="M97.2493 44.9819C96.9716 45.0609 96.9716 44.8002 96.9136 44.5883C96.8556 44.3764 96.6921 44.0922 97.0894 43.9913C98.4658 43.6549 99.8439 43.3067 101.219 42.9586C101.524 42.8796 101.656 43.0192 101.698 43.2748C101.735 43.5002 101.929 43.7945 101.535 43.8971C100.141 44.2604 98.7347 44.6068 97.2493 44.9819Z" fill="#E5BF39"/>
<path d="M29.3564 24.0212C29.3388 24.2785 29.0944 24.3576 28.9397 24.5258C28.727 24.7411 28.5882 24.6116 28.444 24.4501C27.5212 23.441 26.5983 22.4319 25.6667 21.4228C25.403 21.1385 25.5823 20.9804 25.8038 20.8123C25.9795 20.6777 26.136 20.454 26.3786 20.7198C27.3407 21.7726 28.3022 22.826 29.2632 23.8799C29.2988 23.9241 29.33 23.9714 29.3564 24.0212Z" fill="#E5BF39"/>
<path d="M84.7124 19.0862C84.6508 19.1804 84.5823 19.3015 84.4979 19.4108C83.7157 20.4199 82.9264 21.429 82.1494 22.4381C81.9578 22.6887 81.8119 22.8636 81.4674 22.5911C81.1738 22.3607 81.0367 22.2077 81.3215 21.8579C82.1283 20.8656 82.8912 19.8396 83.6823 18.8305C83.8036 18.6775 83.8967 18.3697 84.2096 18.5833C84.3924 18.7179 84.6209 18.8087 84.7124 19.0862Z" fill="#E5BF39"/>
<path d="M63.3001 14.6785C63.5234 13.4474 63.7607 12.1843 63.9751 10.9179C64.0472 10.4941 64.3039 10.5597 64.615 10.6017C64.9261 10.6437 65.0509 10.7833 64.9894 11.1063C64.7468 12.3699 64.5154 13.6346 64.2951 14.9005C64.2318 15.2671 64.0542 15.3327 63.6939 15.2806C63.3037 15.2201 63.1964 15.0485 63.3001 14.6785Z" fill="#E5BF39"/>
<path d="M78.7147 15.4553C78.6549 15.568 78.6074 15.6689 78.5529 15.7664C77.957 16.8462 77.3506 17.9192 76.767 19.004C76.5912 19.3286 76.4488 19.4631 76.0498 19.2512C75.6508 19.0393 75.6982 18.8493 75.874 18.528C76.498 17.4331 77.0922 16.3214 77.7021 15.2181C77.8076 15.0298 77.899 14.7691 78.2084 14.9676C78.4158 15.0954 78.7358 15.1324 78.7147 15.4553Z" fill="#E5BF39"/>
<path d="M13.6976 42.9504C13.5612 42.9652 13.4231 42.9461 13.2966 42.8952C13.1701 42.8443 13.0594 42.7631 12.9751 42.6595C13.2704 42.4694 13.5552 42.5518 13.8364 42.6174C13.7239 42.7032 13.5745 42.7738 13.6976 42.9504Z" fill="#E5BF39"/>
<path d="M14.7277 42.6579C14.9421 42.5839 15.1566 42.5284 15.3482 42.7084C15.2526 42.7641 15.1409 42.7892 15.0293 42.7801C14.9178 42.7711 14.8121 42.7283 14.7277 42.6579Z" fill="#E5BF39"/>
<path d="M88.6921 90.3262L88.7993 90.269L88.8257 90.333C88.7852 90.3212 88.7448 90.3094 88.7044 90.301L88.6921 90.3262Z" fill="#E5BF39"/>
<path d="M33.8739 18.7185L33.8159 18.6848L33.8792 18.5957C33.8985 18.6159 33.9319 18.6378 33.9319 18.6596C33.9319 18.6815 33.895 18.7 33.8739 18.7185Z" fill="#E5BF39"/>
<path d="M95.5248 34.1512L95.7006 34.0771C95.6865 34.1411 95.6742 34.205 95.6619 34.2689L95.5248 34.1512Z" fill="#E5BF39"/>
<path d="M20.8676 27.8923L20.8887 27.6904L20.9977 27.7846C20.959 27.8253 20.9153 27.8615 20.8676 27.8923Z" fill="#E5BF39"/>
<path d="M85.6441 65.3545C85.3523 65.7783 85.0956 66.3047 84.6896 66.6815C84.4417 66.9102 84.1376 66.5015 83.8897 66.3451C80.179 64.1167 76.4664 61.8882 72.7855 59.6076C72.1949 59.241 72.0085 59.3705 71.7448 59.9104C70.7569 61.9286 69.7093 63.93 68.7249 65.9549C68.4788 66.4595 68.2626 66.5318 67.7458 66.2778C66.4045 65.6202 66.3922 65.6455 67.0426 64.3572C68.0774 62.2918 69.111 60.2271 70.1435 58.1629C70.8466 56.7535 71.7255 56.508 73.0808 57.3472C77.0781 59.8263 81.0731 62.3104 85.0657 64.7995C85.2714 64.9307 85.5579 64.9929 85.6441 65.3545Z" fill="#E5BF39"/>
<path d="M55.3723 35.5403C55.3723 33.4447 55.3424 31.3475 55.3916 29.2536C55.4074 28.596 55.186 28.4682 54.5549 28.4867C53.3244 28.5253 52.0939 28.4564 50.8757 28.4715C50.4222 28.4715 50.2851 28.3572 50.271 27.9115C50.2166 26.1758 50.1972 26.1657 52.0412 26.1792C55.3125 26.2027 58.5839 26.2565 61.8534 26.2616C62.6462 26.2616 63.0118 26.3995 62.88 27.2875C62.6902 28.5556 62.7587 28.5573 61.4333 28.5354C60.4401 28.5203 59.4434 28.5691 58.445 28.5203C57.8315 28.4883 57.7419 28.7339 57.7313 29.2452C57.7102 33.438 57.6452 37.6309 57.6399 41.8237C57.6399 42.5116 57.4641 42.7285 56.7293 42.7033C55.2194 42.6512 55.2194 42.6932 55.2194 41.2401V35.5386L55.3723 35.5403Z" fill="#E5BF39"/>
<path d="M28.1909 62.127C31.4042 62.5895 34.6122 63.0318 37.8115 63.528C38.4092 63.6205 38.6904 63.4859 38.9734 62.9864C40.0738 61.0489 41.241 59.1451 42.345 57.2092C42.5963 56.7686 42.7774 56.6778 43.2626 56.9368C44.7866 57.7542 44.7971 57.7323 43.927 59.2006C42.9063 60.925 41.8873 62.6511 40.8701 64.379C40.7155 64.6413 40.5098 64.8835 40.6504 65.235C40.8543 65.7396 40.9756 66.1298 41.7051 65.6437C43.0657 64.7288 44.5177 63.9417 45.9239 63.0772C46.2896 62.8518 46.4724 62.8485 46.7378 63.2303C47.7521 64.6935 47.7679 64.6817 46.1911 65.6286C41.8844 68.2119 37.5777 70.7885 33.2833 73.3954C32.7349 73.7317 32.4554 73.7771 32.0897 73.17C31.3145 71.8817 31.2741 71.9002 32.5661 71.1181C34.4681 69.9694 36.3771 68.8325 38.2721 67.672C38.5322 67.5123 39.0631 67.4433 38.8504 66.9858C38.6377 66.5284 38.6219 65.9061 37.8185 65.8001C34.6949 65.3881 31.5852 64.8768 28.4581 64.49C27.5703 64.379 27.2838 64.1048 27.5352 63.2992C27.6026 63.0562 27.6426 62.807 27.6547 62.5558C27.6688 62.2094 27.8077 62.0261 28.1909 62.127Z" fill="#E5BF39"/>
<path d="M77.9271 37.6024C76.7388 38.5779 75.6015 39.5382 74.4273 40.4616C74.0212 40.7794 74.2076 41.0098 74.4009 41.3025C75.7486 43.3644 77.0928 45.4286 78.4334 47.4951C79.2455 48.7447 79.0047 49.3333 77.5105 49.747C75.5171 50.3004 73.5167 50.8251 71.5339 51.4037C70.655 51.6627 70.0415 51.5046 69.5458 50.7107C68.4208 48.9112 67.2483 47.1385 66.0582 45.3793C65.7594 44.937 65.8332 44.7435 66.2797 44.4745C67.7194 43.6033 67.7071 43.5864 68.6001 44.9454C69.3788 46.1227 70.1821 47.3 70.9169 48.5042C71.214 48.9919 71.5058 49.0726 72.0419 48.9011C73.0353 48.5682 74.047 48.2875 75.0724 48.0601C75.8388 47.892 75.7562 47.6515 75.4046 47.1301C74.1408 45.2481 72.9191 43.3409 71.6886 41.4404C71.1208 40.5608 71.1735 40.1386 71.9716 39.4743C73.6943 38.0447 75.424 36.6236 77.1607 35.2108C78.0572 34.4826 78.676 34.565 79.3299 35.4968C81.5641 38.6872 83.7737 41.8743 86.0273 45.0463C86.3982 45.5677 86.2452 45.7745 85.7653 46.0705C84.4294 46.8997 84.4434 46.9114 83.561 45.6585L77.9271 37.6024Z" fill="#E5BF39"/>
<path d="M64.5816 81.3703C64.789 79.9357 64.963 78.6474 65.1669 77.3642C65.2777 76.6679 66.4256 76.0406 67.1006 76.276C67.3853 76.3752 67.4521 76.6124 67.5154 76.8697C67.9303 78.5818 68.3346 80.2973 68.7863 82.001C68.9305 82.5459 68.6018 82.6216 68.215 82.7209C67.7668 82.8335 67.54 82.7309 67.431 82.2382C67.1318 80.8352 66.7384 79.4521 66.2533 78.0975C66.0775 79.5338 65.8929 80.9684 65.7259 82.4063C65.675 82.8588 65.6925 83.2742 65.0703 83.4323C64.4023 83.6005 64.1245 83.2809 63.8398 82.8134C63.2579 81.8766 62.6427 80.9633 62.0257 80.0434C61.8815 79.8298 61.82 79.4883 61.3683 79.5472C61.6829 80.8136 61.973 82.07 62.3175 83.3263C62.4546 83.8309 62.3175 84.0411 61.7989 84.1588C61.2804 84.2766 61.0747 84.1117 60.9622 83.6173C60.6106 82.0363 60.1852 80.4689 59.8126 78.8896C59.7159 78.4725 59.5067 77.9293 60.1641 77.7678C60.8216 77.6064 61.588 77.159 62.1558 77.9528C62.8325 78.8997 63.4706 79.8684 64.1316 80.8254C64.2406 80.9751 64.3689 81.1113 64.5816 81.3703Z" fill="#E5BF39"/>
<path d="M57.4307 80.8438C59.28 80.9127 59.28 80.9127 59.1393 82.6568C59.0198 84.1267 58.8633 84.3387 57.3252 84.7204C55.7115 85.1258 54.1383 85.045 52.9394 83.8055C51.7406 82.566 51.6843 81.0103 52.2275 79.4781C53.0203 77.2463 56.311 76.4172 58.2129 77.9308C58.4233 78.0823 58.5966 78.2757 58.721 78.4976C58.8774 78.834 59.396 79.2982 58.8967 79.5319C58.4766 79.7254 57.7717 80.1324 57.3252 79.3318C56.9508 78.6591 56.2705 78.506 55.5182 78.5716C55.1495 78.5893 54.7945 78.7103 54.4972 78.9196C54.2 79.129 53.9737 79.4174 53.8465 79.7489C53.5247 80.508 53.4886 81.3504 53.7445 82.1321C54.1928 83.5398 56.0297 84.0696 57.2602 83.1815C57.5872 82.9444 57.5397 82.64 57.5028 82.3507C57.4518 81.9639 57.095 82.1607 56.8682 82.1035C56.4938 82.011 55.9436 82.3507 55.7731 81.752C55.5709 81.0406 55.7959 80.7883 56.5729 80.7967C56.8489 80.7967 57.1407 80.8253 57.4307 80.8438Z" fill="#E5BF39"/>
<path d="M48.5168 84.0884C47.9428 84.0582 47.3754 83.9558 46.8293 83.784C45.5882 83.3719 44.966 82.5209 45.1242 81.2797C45.3228 79.7291 45.6515 78.1935 45.8273 76.6412C45.9205 75.8305 46.4109 76.1904 46.8117 76.1938C47.3109 76.1938 47.5517 76.362 47.448 76.9036C47.1826 78.3331 46.9312 79.7627 46.7449 81.204C46.6341 82.0618 47.042 82.5024 47.9209 82.6807C48.8402 82.8657 49.3992 82.5646 49.5856 81.6716C49.8703 80.3026 50.1322 78.9268 50.3063 77.5443C50.4047 76.7724 50.7862 76.8144 51.4067 76.8918C52.1414 76.9826 52.0131 77.3526 51.9217 77.8218C51.6422 79.2766 51.433 80.7449 51.1237 82.1946C50.86 83.4678 49.9863 84.0884 48.5168 84.0884Z" fill="#E5BF39"/>
<path d="M50.9585 75.2287C51.1343 73.6444 51.3382 72.0618 51.4859 70.4758C51.528 70.0015 51.7179 69.9376 52.145 69.988C53.2455 70.1175 54.3511 70.2336 55.4568 70.3126C55.9156 70.3463 55.956 70.5498 55.9279 70.9131C55.8998 71.2763 55.8383 71.495 55.3689 71.4176C54.6781 71.3167 53.975 71.2847 53.2806 71.1872C52.8464 71.1266 52.6794 71.2864 52.7374 71.6732C52.7867 71.9945 52.3366 72.4957 53.0697 72.5831C53.597 72.6437 54.1156 72.7109 54.6394 72.7362C55.1123 72.758 55.267 72.9145 55.2388 73.4005C55.2019 74.0362 54.7888 73.8428 54.4461 73.8327C53.8378 73.8176 53.1259 73.451 52.6548 73.7537C52.1503 74.08 52.4685 74.8503 52.3155 75.4103C52.2101 75.7955 52.3824 76.2916 51.579 76.2008C50.7757 76.11 50.8899 75.7114 50.9585 75.2287Z" fill="#E5BF39"/>
<path d="M61.7005 70.2099C61.8429 70.8373 61.3824 70.7599 61.0659 70.807C59.9146 70.9836 59.9198 70.9752 60.0816 72.0448C60.2573 73.2053 60.3927 74.3725 60.6089 75.5279C60.7056 76.0577 60.3944 76.0645 60.0306 76.1015C59.6667 76.1385 59.2958 76.3268 59.2308 75.7029C59.1042 74.5087 58.8476 73.3264 58.7351 72.1323C58.663 71.3671 58.4432 71.0189 57.5678 71.2611C57.2936 71.3385 56.7891 71.6446 56.6344 71.0593C56.5219 70.6354 56.4973 70.2621 57.1794 70.1982C58.4872 70.0754 59.788 69.882 61.0835 69.6785C61.6355 69.5893 61.7462 69.8349 61.7005 70.2099Z" fill="#E5BF39"/>
<path d="M25.9181 46.7778C25.897 46.4515 26.0623 46.1841 26.2047 45.9083C28.2367 41.984 30.2682 38.0546 32.2991 34.1202C32.8862 32.9883 33.5507 32.8302 34.5843 33.5988C38.6607 36.648 42.7213 39.7174 46.81 42.7531C47.3251 43.1366 47.2618 43.3704 46.8979 43.7975C45.8924 44.9748 45.9083 45.0001 44.6602 44.065C41.3004 41.5456 37.9452 39.0228 34.5948 36.4967C34.1061 36.1266 33.8829 36.1182 33.621 36.6968C33.2255 37.568 32.7755 38.4173 32.2938 39.2465C32.0073 39.7376 32.0372 39.9798 32.6085 40.2556C34.6159 41.2243 36.5812 42.2738 38.5851 43.2459C39.1546 43.5217 39.1793 43.7505 38.8945 44.255C38.1193 45.6257 38.1456 45.6341 36.7517 44.9278C34.9938 44.0381 33.2255 43.1753 31.487 42.2553C30.9912 41.9912 30.8119 42.077 30.594 42.5412C30.1422 43.5083 29.6623 44.4703 29.1191 45.4003C28.7816 45.9739 28.9785 46.1235 29.5481 46.2816C33.788 47.4589 38.0138 48.6715 42.2607 49.8135C42.9973 50.012 43.0729 50.2575 42.8566 50.8899C42.3926 52.2354 42.4242 52.2539 40.974 51.8486C36.345 50.5535 31.7161 49.2568 27.0871 47.9584C26.449 47.76 25.9673 47.4825 25.9181 46.7778Z" fill="#E5BF39"/>
</svg>
