<svg width="778" height="656" viewBox="0 0 778 656" fill="none" xmlns="http://www.w3.org/2000/svg">
<g opacity="0.5" filter="url(#filter0_d_317_16619)">
<path d="M199.258 116.304C201.788 116.22 201.062 117.158 199.95 118.218C198.302 119.743 196.655 121.268 195.089 122.854C186.619 131.348 180.852 141.375 175.398 151.653C168.922 163.945 162.594 176.305 154.882 188.001C149.881 195.588 144.46 202.862 136.904 208.528C134.474 210.35 133.477 211.768 134.754 215.253C137.275 222.115 136.962 229.489 136.517 236.732C135.421 254.75 131.203 272.341 128.196 290.107C124.9 309.642 126.095 328.536 138.289 345.685C141.481 350.283 145.509 354.336 150.194 357.664C151.751 358.746 152.089 359.799 151.562 361.522C146.561 377.862 150.145 393.082 158.845 407.577C166.359 420.089 177.548 429.689 188.506 439.456C199.217 449.071 209.977 458.679 219.09 469.704C223.596 475.156 227.667 480.852 230.402 487.28C230.88 488.408 231.226 489.323 232.874 489.369C247.943 489.811 261.323 495.469 274.506 501.401C287.689 507.334 300.459 513.998 313.617 519.945C330.095 527.395 347.315 531.253 365.762 527.913C373.189 526.612 380.261 523.956 386.566 520.098C387.851 519.335 388.782 518.657 390.496 519.701C410.377 531.901 431.494 531.535 453.113 524.574C467.12 520.052 479.726 512.686 492.917 506.518C506.256 500.281 519.628 494.12 534.31 490.986C538.43 490.109 543.554 490.848 546.57 488.79C549.429 486.838 549.865 482.095 552.057 478.839C560.098 466.738 570.735 456.727 581.479 446.715C590.946 437.916 601.253 429.887 609.788 420.234C621.851 406.57 629.348 391.305 628.541 373.234C628.434 370.946 628.541 368.506 627.601 366.478C625.41 361.606 627.28 358.792 631.334 355.384C645.538 343.42 651.017 327.774 651.742 310.397C652.319 296.58 648.834 283.214 646.436 269.733C643.882 255.345 641.402 240.956 641.97 226.271C642.168 221.185 643.544 216.275 644.253 211.265L645.373 210.22C647.021 210.678 646.873 211.639 646.477 212.904C642.358 226.286 643.717 239.805 645.736 253.255C647.878 267.552 651.025 281.727 652.92 296.039C655.235 313.492 653.373 330.466 643.107 345.914C639.729 351.001 635.49 355.553 630.551 359.395C629.2 360.454 628.335 361.377 628.788 363.207C634.341 385.586 626.44 404.626 611.56 421.85C603.749 430.894 594.208 438.397 585.343 446.509C573.652 457.184 561.96 467.92 553.375 481.096C552.788 481.799 552.331 482.587 552.024 483.429C550.549 490.551 545.663 492.366 538.224 493.105C525.601 494.364 514.091 499.594 502.795 504.817C489.81 510.811 477.098 517.33 464.006 523.117C445.591 531.268 426.386 534.722 406.151 529.568C400.736 528.17 395.568 526.054 390.809 523.285C389.516 522.522 388.535 521.859 386.805 522.843C367.657 533.701 347.422 533.8 326.66 527.776C312.554 523.689 300.08 516.422 287.112 510.239C274.143 504.055 261.01 497.879 246.839 494.097C241.813 492.755 236.721 491.809 231.457 492.076C230.006 492.16 229.306 491.87 228.771 490.498C223.44 476.902 213.19 466.449 202.628 456.307C191.563 445.831 179.954 435.934 169.218 425.282C157 413.158 148.835 398.983 146.973 382.155C146.251 375.838 146.736 369.452 148.406 363.291C148.95 361.316 148.686 360.18 146.948 358.785C132.703 347.385 126.128 332.471 124.373 315.437C122.873 300.873 126.202 286.683 128.945 272.47C131.689 258.257 134.153 244.258 134.12 229.855C134.12 224.265 133.551 218.699 131.45 213.4C130.873 211.951 130.569 210.693 132.093 209.694C141.716 203.366 147.994 194.444 153.918 185.294C162.553 171.951 169.317 157.639 177.021 143.8C182.796 133.521 189.544 123.876 199.258 116.304Z" fill="url(#paint0_linear_317_16619)" fill-opacity="0.28"/>
<path d="M446.407 53.7643C445.789 55.2054 444.537 55.4876 443.07 55.2893C426.287 52.8265 409.438 50.3789 394.294 42.7082C390.48 40.7791 388.14 40.6266 384.3 42.7539C372.766 49.1741 359.583 51.3701 346.516 53.7338C329.724 56.7838 312.554 57.6683 295.886 61.3588C292.171 62.1823 288.529 63.265 284.854 64.2257L283.322 63.0439C294.214 58.5375 305.946 57.47 317.547 55.9146C336.242 53.406 355.043 51.3777 372.98 45.4684C378.022 43.8062 382.867 41.7932 387.085 38.606C388.14 37.8435 388.898 37.4622 390.249 38.3238C403.366 46.7113 418.624 49.319 433.834 52.0487C437.986 52.7655 442.213 53.1925 446.407 53.7643Z" fill="url(#paint1_linear_317_16619)" fill-opacity="0.28"/>
<path d="M587.411 127.566C579.394 118.927 570.496 111.355 558.978 106.803C552.485 104.241 545.795 102.502 538.709 102.358C536.37 102.312 535.48 101.542 534.639 99.6126C525.931 79.7496 509.238 68.5562 487.561 62.7155C475.886 59.5664 463.882 58.2931 451.952 56.5165C451.128 56.3868 449.183 57.279 449.348 55.1745C456.104 54.412 462.605 56.1733 469.171 57.0731C475.307 57.9789 481.377 59.2318 487.347 60.8246C509.222 66.3755 526.071 77.5155 535.587 96.9667C536.839 99.5287 538.232 100.421 541.165 100.718C561.095 102.716 576.436 112.049 588.432 126.551L587.411 127.566Z" fill="url(#paint2_linear_317_16619)" fill-opacity="0.28"/>
<path d="M587.411 127.566L588.466 126.552C596.631 135.39 601.747 145.882 607.144 156.213C615.383 172.012 623.762 187.75 635.396 201.749L634.391 202.756C625.871 193.736 619.832 183.251 613.933 172.714C609.286 164.433 605.01 156 600.561 147.612C596.812 140.591 592.412 133.884 587.411 127.566Z" fill="url(#paint3_linear_317_16619)" fill-opacity="0.28"/>
<path d="M283.322 63.0214L284.854 64.2032C273.698 68.4122 263.433 73.8869 255.309 82.3201C250.461 87.3401 246.616 93.1183 243.955 99.3847C243.444 100.567 243.321 101.863 241.385 101.771C236.968 101.558 232.717 102.755 228.367 103.205L227.18 102.122C230.748 100.689 234.596 100.399 238.353 100.208C240.478 100.101 241.319 99.4457 242.134 97.6538C250.184 80.3605 264.57 69.4492 283.322 63.0214Z" fill="url(#paint4_linear_317_16619)" fill-opacity="0.28"/>
<path d="M227.181 102.122L228.367 103.205C219.123 106.125 210.397 109.93 202.925 115.9C201.895 116.716 200.502 117.616 200.453 115.138C208.28 108.862 216.882 104.005 227.181 102.122Z" fill="url(#paint5_linear_317_16619)" fill-opacity="0.28"/>
<path d="M634.391 202.755L635.396 201.749L645.283 210.251L644.162 211.295C640.3 209.107 636.972 206.199 634.391 202.755Z" fill="url(#paint6_linear_317_16619)" fill-opacity="0.28"/>
<path d="M427.663 522.759C412.462 522.683 401.298 519.663 391.617 512.458C390.298 511.482 389.079 510.101 386.846 511.748C369.717 524.391 350.594 524.574 330.656 519.16C317.844 515.675 306.573 509.164 294.84 503.544C278.972 495.919 263.293 487.623 245.562 484.482C238.147 483.178 234.587 480.006 231.02 474.318C221.998 459.929 208.774 448.713 196.037 437.161C185.977 428.011 175.332 419.365 167.587 408.27C160.172 397.596 155.822 386.12 156.497 373.241C156.726 368.704 157.741 364.229 159.504 359.989C160.477 357.648 160.246 356.223 157.857 354.713C142.342 345.098 136.048 330.839 134.227 314.209C132.793 301.163 135.619 288.582 138.033 275.924C141.453 258.006 145.325 240.019 143.051 221.787C142.227 215.245 144.46 211.562 148.769 207.109C159.9 195.588 167.15 181.718 174.566 168.009C182.088 154.108 188.448 139.591 199.884 127.787C209.071 118.317 219.864 111.355 233.665 108.938C237.628 108.237 241.591 108.679 245.554 108.55C247.111 108.496 248.264 108.55 248.849 106.62C255.507 84.8817 273.048 74.2068 294.988 68.2212C305.699 65.2856 316.929 64.4088 327.945 62.8838C348.394 59.9939 369.099 57.9886 387.687 48.526C389.227 47.7635 390.216 48.1753 391.411 48.77C404.981 55.4571 419.819 58.1411 434.732 60.6039C452.858 63.6005 471.413 64.1876 488.937 69.8072C505.473 75.1447 519.9 83.4482 526.582 99.1861C529.441 105.919 532.234 108.641 540.654 109.16C561.45 110.425 575.415 122.61 586.431 137.898C594.192 148.657 599.424 160.696 605.71 172.21C612.202 184.082 618.786 195.901 628.013 206.233C628.186 206.431 628.302 206.698 628.516 206.827C636.689 211.669 636.401 218.882 634.909 226.416C633.608 233.004 634.91 239.569 635.56 246.065C637.299 263.381 642.111 280.316 643.964 297.602C645.612 312.593 644.22 327.439 635.404 340.836C631.566 346.723 626.321 351.718 620.071 355.437C618.234 356.535 617.368 357.687 618.159 359.799C625.533 379.624 619.618 397.039 606.748 413.112C599.284 422.43 589.891 430.078 580.943 438.114C568.848 448.972 556.111 459.464 547.682 473.136C543.299 480.242 538.306 483.811 529.556 485.511C511.521 489.026 495.677 497.886 479.479 505.71C467.4 511.543 455.585 517.909 442.048 520.654C436.38 521.829 430.645 522.85 427.663 522.759ZM424.656 516.659C430.308 516.811 435.77 515.774 441.233 514.593C454.044 511.809 465.241 505.664 476.727 500.105C493.675 491.946 510.375 483.163 529.16 479.114C534.928 477.871 538.355 475.568 541.338 470.848C550.129 456.902 562.924 446.014 575.192 434.767C583.753 426.921 592.948 419.609 600.363 410.764C613.01 395.674 619.206 379.204 611.387 360.287C609.739 356.307 610.266 353.92 614.468 351.541C631.111 342.117 637.159 327.385 637.768 310.122C638.444 291.144 632.133 272.996 630.015 254.346C628.854 244.06 627.189 233.82 628.467 223.381C628.788 220.773 630.436 217.639 627.774 215.123C618.563 206.423 611.922 196.061 605.685 185.508C597.85 172.195 591.679 158.058 583.39 144.981C576.123 133.544 566.838 123.921 553.416 118.294C545.729 115.054 537.655 114.337 529.416 114.756C526.384 114.909 525.041 113.994 524.291 111.287C523.372 107.736 522.092 104.275 520.468 100.947C513.234 86.9176 500.142 79.5976 484.834 75.0227C468.397 70.1503 451.095 69.4565 434.246 66.7115C419.737 64.3478 405.302 61.7553 391.897 55.8078C391.141 55.4102 390.283 55.2075 389.414 55.2209C388.544 55.2343 387.695 55.4633 386.953 55.8841C381.085 58.5452 374.933 60.633 368.597 62.1137C348.444 67.23 327.574 68.5262 307.116 72.0261C281.699 76.357 260.977 86.2466 253.966 111.737C253.331 114.024 252.046 114.596 249.632 114.573C244.581 114.527 239.498 114.154 234.48 115.076C219.147 117.905 208.362 126.819 199.555 138.05C190.195 149.991 184.436 163.777 177.177 176.785C169.647 190.312 161.836 203.648 150.367 214.78C149.95 215.099 149.63 215.513 149.436 215.98C149.243 216.448 149.183 216.954 149.263 217.449C150.325 224.321 150.601 231.278 150.087 238.204C149.362 251.22 146.94 263.991 144.6 276.786C142.466 288.445 139.763 299.996 140.67 311.998C141.93 328.62 148.489 342.368 164.234 351.449C167.669 353.44 168.493 355.491 166.845 359.128C159.875 374.614 162.833 389.231 171.97 403.185C179.748 415.064 191.027 424.046 201.549 433.639C215.613 446.456 229.899 459.083 239.449 475.378C239.797 475.983 240.304 476.498 240.923 476.877C241.542 477.255 242.253 477.484 242.991 477.543C255.886 479.64 267.849 484.23 279.474 489.537C294.156 496.239 308.575 503.453 323.29 510.071C333.156 514.513 344.025 516.712 354.994 516.484C366.43 516.278 376.556 512.198 385.24 505.351C387.909 503.239 389.763 503.224 392.449 505.351C401.66 512.694 412.289 516.88 424.656 516.659Z" fill="url(#paint7_linear_317_16619)" fill-opacity="0.28"/>
<path d="M544.576 205.5C544.922 214.452 548.102 222.275 551.167 230.137C554.677 239.165 559.406 247.804 560.799 257.503C562.002 266.05 560.897 274.178 556.275 281.757C555.451 283.084 554.627 284.152 555.666 285.883C562.372 297.122 561.639 308.757 557.396 320.469C553.96 329.939 549.157 338.952 546.149 348.575C544.502 353.912 542.854 359.311 543.571 364.984C543.642 365.222 543.661 365.471 543.627 365.717C543.592 365.962 543.505 366.198 543.369 366.412C543.234 366.625 543.054 366.811 542.839 366.959C542.625 367.106 542.38 367.213 542.121 367.271C535.933 369.559 531.583 373.973 527.158 378.312C519.15 386.166 513.003 395.453 504.847 403.185C496.286 411.305 486.243 416.467 473.621 416.368C472.335 416.368 471.256 416.505 470.547 417.756C462.382 432.106 448.302 437.1 432.005 438.869C422.733 439.755 413.54 441.243 404.494 443.322C398.884 444.687 393.545 446.563 388.84 449.735C384.165 446.88 379.012 444.759 373.589 443.459C362.673 440.875 351.434 440.082 340.386 438.29C326.017 435.956 313.749 430.512 306.408 418.076C306.173 417.629 305.792 417.262 305.318 417.028C304.844 416.794 304.303 416.704 303.771 416.772C289.048 416.719 277.999 409.963 268.78 400.081C261.266 392.022 254.699 383.222 246.41 375.758C242.546 372.273 236.26 370.42 234.052 366.867C231.844 363.314 233.335 357.397 231.893 352.639C228.976 342.986 224.478 333.874 220.498 324.587C216.198 314.59 214.319 304.419 217.417 293.767C218.529 289.954 222.303 286.691 222.179 283.092C222.056 279.607 219.131 276.161 218.356 272.417C216.494 263.427 218.117 254.78 221.347 246.279C225.203 236.145 229.973 226.301 232.478 215.741C233.516 211.379 232.198 206.24 234.019 202.778C235.708 199.584 241.434 198.203 244.787 195.092C252.293 188.161 258.44 180.224 264.775 172.416C270.353 165.553 276.599 159.4 284.97 155.405C290.429 152.697 296.539 151.31 302.733 151.371C304.381 151.371 305.872 151.508 306.935 149.8C314.943 137.013 328.027 131.996 342.948 129.838C353.659 128.313 364.436 127.398 374.891 124.638C379.258 123.487 383.509 122.107 387.25 119.682C388.074 119.125 388.799 118.347 390.068 119.24C399.238 125.652 410.352 126.445 421.088 128.229C429.566 129.64 438.242 130.067 446.489 132.667C456.269 135.717 464.417 140.788 469.88 149.084C470.646 150.25 471.347 150.921 473.069 150.822C487.075 149.96 497.984 155.702 507.154 164.791C515.393 172.95 521.737 182.572 530.058 190.716C533.931 194.528 537.886 198.28 543.101 200.43C546.545 201.802 544.007 204.151 544.576 205.5ZM486.976 287.148V286.386H426.559C424.532 286.386 422.563 285.966 422.258 288.963C421.434 297.228 416.977 303.794 410.006 308.856C408.21 310.16 408.004 311.052 409.141 312.837C429.701 345.299 450.208 377.781 470.663 410.283C471.005 410.957 471.569 411.513 472.273 411.873C472.977 412.234 473.786 412.379 474.585 412.289C482.163 412.034 489.502 409.759 495.718 405.739C501.601 402.041 505.86 396.894 510.136 391.778C516.258 384.45 522.413 377.153 529.696 370.756C532.489 368.3 536.889 367.035 538.578 364.297C540.357 361.408 539.517 357.176 540.407 353.569C543.192 342.269 548.465 331.808 552.98 321.094C557.495 310.381 557.182 300.134 552.032 289.779C550.994 287.697 549.733 287.095 547.369 287.103C527.232 287.217 507.121 287.148 486.976 287.148ZM388.716 123.914C388.115 124.196 387.497 124.463 386.904 124.775C381.194 127.703 374.982 129.35 368.646 130.38C359.624 131.905 350.52 133.056 341.457 134.428C328.966 136.327 318.857 141.794 311.565 151.531C310.321 153.201 310.181 154.535 311.326 156.358C331.65 188.794 351.923 221.266 372.148 253.774C373.383 255.756 374.364 255.947 376.58 255.078C380.302 253.578 384.312 252.786 388.372 252.75C392.431 252.713 396.457 253.432 400.21 254.864C403.193 255.97 404.272 255.459 405.78 253.042C424.631 222.735 443.556 192.469 462.555 162.244C467.952 153.636 467.853 152.751 460.207 145.469L459.919 145.203C451.845 137.387 441.364 135.008 430.258 133.567C416.466 131.783 402.377 130.936 389.796 124.47C389.491 124.272 389.128 124.112 388.716 123.914ZM290.004 286.958V286.386C269.867 286.386 249.731 286.454 229.603 286.317C226.497 286.317 225.005 287.263 223.835 289.84C219.238 300.088 219.403 310.214 223.745 320.5C228.21 331.091 233.343 341.453 236.515 352.524C237.718 356.726 236.515 361.804 238.814 365.022C241.22 368.422 246.336 370.283 249.723 373.447C258.126 381.309 265.023 390.344 272.578 398.861C278.222 405.228 285.184 409.696 293.827 411.824C303.812 414.279 304.9 413.859 310.041 405.724L310.667 404.748C329.584 374.639 348.526 344.534 367.492 314.43C368.943 312.143 369.313 310.847 366.561 308.963C359.871 304.388 356.155 297.892 355.027 290.351C354.598 287.591 353.807 286.866 350.833 286.889C330.548 287.019 310.28 286.958 290.004 286.958ZM485.979 282.573V282.756C505.844 282.756 525.708 282.756 545.573 282.81C548.044 282.81 549.486 282.2 550.796 280.164C557.511 269.786 557.659 259.127 553.046 248.086C548.432 237.045 542.145 226.301 540.366 214.536C539.245 207.125 536.246 202.336 529.902 197.845C521.514 191.837 515.706 183.449 509.123 175.824C504.6 170.586 500.183 165.218 494.185 161.261C488.558 157.54 482.354 155.557 475.334 155.923C473.052 156.053 471.709 156.96 470.539 158.821C450.249 191.115 429.887 223.371 409.454 255.589C408.202 257.571 408.037 258.639 410.278 260.164C413.649 262.473 416.457 265.412 418.521 268.791C420.585 272.169 421.858 275.912 422.258 279.775C422.579 282.55 424.161 282.566 426.377 282.558C446.25 282.517 466.117 282.522 485.979 282.573ZM467.573 415.11C467.169 414.347 466.856 413.646 466.452 413.005C445.959 380.371 425.474 347.731 404.997 315.086C404 313.5 403.234 313.027 401.207 313.836C397.312 315.438 393.101 316.277 388.838 316.3C384.576 316.322 380.354 315.527 376.44 313.965C374.125 313.073 373.194 313.477 372.016 315.406C352.028 348.158 331.979 380.874 311.87 413.554C310.618 415.59 310.972 416.932 312.356 418.64C318.921 426.932 328.701 432.548 339.644 434.31C351.871 436.483 364.362 437.123 376.415 440.364C380.469 441.454 397.013 441.469 401.034 440.409C411.621 437.611 422.538 436.597 433.364 435.072C446.547 433.28 457.604 428.126 465.612 418.015C466.329 417.115 466.914 416.124 467.573 415.11ZM290.811 281.346V282.291C310.956 282.291 331.109 282.291 351.253 282.345C353.725 282.345 354.615 281.933 354.977 279.378C355.454 275.586 356.766 271.924 358.832 268.619C360.898 265.314 363.675 262.436 366.99 260.164C369.157 258.639 369.14 257.579 367.888 255.589C347.565 223.3 327.269 190.978 307.001 158.622C305.913 156.884 304.809 156.167 302.478 156.335C292.669 156.922 283.407 160.723 276.351 167.056C271.408 171.341 267.634 176.503 263.457 181.36C257.574 188.222 251.964 195.42 244.161 200.468C239.86 203.251 237.265 206.019 237.693 211.021C237.842 212.714 237.01 214.483 236.573 216.206C233.755 227.232 228.375 237.396 224.214 247.979C220.054 258.562 220.095 268.803 225.944 278.86C226.941 280.591 228.045 281.422 230.361 281.414C250.53 281.308 270.658 281.346 290.811 281.346ZM359.707 284.594C359.707 299.348 372.93 311.594 388.7 311.464C394.454 311.478 400.082 309.911 404.873 306.962C409.663 304.013 413.4 299.815 415.611 294.898C417.821 289.982 418.406 284.57 417.29 279.346C416.174 274.123 413.408 269.323 409.343 265.555C405.277 261.788 400.095 259.221 394.452 258.181C388.809 257.141 382.96 257.674 377.645 259.713C372.33 261.751 367.788 265.204 364.594 269.633C361.401 274.063 359.7 279.269 359.707 284.594Z" fill="url(#paint8_linear_317_16619)" fill-opacity="0.28"/>
<path d="M282.605 122.717C282.605 118.142 281.188 115.008 280.241 111.813C279.557 109.526 280.578 108.717 282.383 107.65C284.319 106.506 285.25 107.284 286.453 108.527C288.99 111.134 291.66 113.643 295.112 117.013C294.7 112.774 293.365 109.831 292.253 106.903C291.141 103.975 291.429 102.015 295.392 101.405C297.328 107.787 299.256 114.23 301.25 120.658C301.827 122.511 300.476 123.014 299.207 123.822C297.683 124.791 296.735 124.257 295.722 123.228C293.184 120.734 290.597 118.302 288.01 115.862C287.285 115.183 286.766 114.085 285.308 114.55C286.379 118.363 287.334 122.229 288.603 125.988C289.271 128.016 288.933 129.122 286.84 130.288C284.747 131.455 283.948 130.235 282.852 129.129C278.782 125.027 274.679 120.955 270.65 116.823C269.975 116.129 268.178 115.298 270.049 114.177C271.276 113.414 272.595 112.133 274.234 113.971C276.665 116.739 279.326 119.331 282.605 122.717ZM282.778 122.717C282.869 122.625 283.034 122.534 283.042 122.442C283.05 122.351 282.885 122.244 282.795 122.152L282.498 122.557L282.778 122.717Z" fill="url(#paint9_linear_317_16619)" fill-opacity="0.28"/>
<path d="M188.201 232.554C191.324 233.454 194.43 234.43 197.585 235.238C199.233 235.657 199.81 236.313 199.307 237.922C198.764 239.66 197.742 239.63 196.226 239.165C190.648 237.449 185.046 235.81 179.468 234.109C178.158 233.713 175.983 233.652 177.087 231.57C177.968 229.923 176.996 226.851 180.769 227.102C184.79 227.369 188.819 227.453 193.664 227.651C190.236 224.601 186.776 222.901 183.447 221.132C179.764 219.172 182.327 217.014 182.837 215.032C183.538 212.34 185.515 214.193 186.751 214.529C192.123 215.993 197.462 217.67 202.768 219.226C204.309 219.675 205.577 220.041 204.869 222.054C204.16 224.067 202.966 223.74 201.441 223.191C198.195 222.016 194.792 221.528 190.261 220.812C194.01 222.954 196.786 224.487 199.497 226.149C200.972 227.034 202.99 227.361 202.101 230.045C201.211 232.729 199.209 231.639 197.536 231.791C196.991 231.774 196.452 231.679 195.938 231.509C195.04 230.693 194.034 230.945 193.029 231.281L188.852 231.098C187.534 230.8 186.199 230.427 184.815 231.288C185.216 231.748 185.738 232.106 186.331 232.327C186.923 232.549 187.567 232.627 188.201 232.554Z" fill="url(#paint10_linear_317_16619)" fill-opacity="0.28"/>
<path d="M539.764 447.272C536.139 445.747 533.346 441.53 529.803 441.934C526.548 442.277 523.698 445.823 520.246 448.255C520.246 444.992 521.523 442.407 522.421 439.792C523.146 437.649 522.759 436.269 520.542 435.102C518.07 433.806 515.904 432.152 512.542 429.963C516.876 429.788 519.957 429.521 522.989 429.59C525.041 429.643 525.865 428.911 526.326 427.157C527.101 424.252 528.13 421.4 529.317 417.679C530.652 421.21 531.789 423.833 532.612 426.547C533.23 428.621 534.351 429.338 536.674 429.163C539.5 428.941 542.351 429.109 545.696 429.109C543.744 431.801 540.959 433.15 538.602 434.851C536.954 436.056 536.633 437.062 537.276 438.984C538.199 441.744 540.398 444.237 539.706 447.371L539.764 447.272Z" fill="url(#paint11_linear_317_16619)" fill-opacity="0.28"/>
<path d="M266.333 448.286C262.436 445.9 259.56 442.949 256.24 442.423C252.713 441.881 250.472 446.06 247.325 447.646C246.838 447.806 246.326 447.896 245.809 447.913C245.718 447.569 245.57 447.348 245.636 447.203C249.599 438 249.599 438 241.302 432.457C240.668 432.03 240.099 431.527 238.732 430.467C242.464 430.284 245.323 429.979 248.231 430.063C250.588 430.131 251.634 429.414 252.104 427.226C252.713 424.405 253.818 421.675 254.798 418.618C256.66 421.294 257.36 424.161 258.258 426.875C259 429.117 260.162 429.925 262.633 429.704C265.459 429.498 268.31 429.658 271.878 429.658C269.192 431.679 266.934 433.578 264.462 435.194C262.543 436.445 262.205 437.726 263.095 439.7C264.24 442.232 265.064 444.885 266.333 448.286Z" fill="url(#paint12_linear_317_16619)" fill-opacity="0.28"/>
<path d="M583.926 345.692C587.708 346.79 591.201 347.904 594.752 348.796C596.507 349.238 596.894 349.955 596.4 351.518C595.906 353.081 594.901 353.218 593.368 352.768C587.889 351.16 582.352 349.718 576.89 348.033C575.712 347.675 573.388 348.11 573.85 345.845C574.171 344.251 574.674 342.719 576.915 342.284C580.26 341.636 583.506 340.759 586.851 339.89C587.98 339.608 589.323 339.646 590.303 338.304C587.073 337.358 583.959 336.489 580.878 335.536C579.395 335.071 577.121 335.414 578.134 332.555C579.048 329.977 580.606 331.236 581.949 331.602C587.348 333.05 592.72 334.575 598.064 336.177C599.226 336.512 601.138 336.36 600.66 338.342C600.305 339.791 599.992 341.209 597.858 341.613C594.241 342.292 590.69 343.275 587.148 344.183C586.109 344.404 584.89 344.289 583.926 345.692Z" fill="url(#paint13_linear_317_16619)" fill-opacity="0.28"/>
<path d="M594.069 247.438C590.773 247.972 587.568 248.49 584.396 248.963C582.748 249.214 580.968 250.107 580.408 247.438C579.848 244.769 582.056 245.227 583.391 244.983C588.754 244.014 594.151 243.16 599.556 242.39C600.718 242.222 602.374 240.941 603.099 242.764C603.749 244.403 603.972 246.103 602.019 247.529C599.119 249.634 596.441 252.005 593.698 254.3C593.138 254.773 592.239 255.063 592.33 256.321C595.972 256.55 599.407 255.337 602.942 254.933C604.367 254.773 605.463 254.407 605.842 256.382C606.221 258.357 605.348 258.776 603.585 259.051C597.924 259.912 592.281 260.911 586.612 261.773C585.459 261.948 583.885 263.069 583.185 261.117C582.616 259.539 582.204 258.067 584.009 256.695C586.571 254.804 588.952 252.737 591.374 250.648C592.338 249.786 593.764 249.291 594.069 247.438Z" fill="url(#paint14_linear_317_16619)" fill-opacity="0.28"/>
<path d="M549.321 404.885C552.197 406.952 555.014 409.079 557.956 411.054C559.414 412.038 559.439 412.823 558.425 414.104C557.247 415.629 556.333 415.141 555.13 414.249C550.491 410.894 545.778 407.638 541.173 404.245C540.349 403.642 538.512 403.238 539.418 401.736C540.242 400.371 541.066 398.846 543.414 399.128C547.962 399.67 552.543 399.975 557.956 400.455C555.072 397.329 552.04 395.674 549.297 393.715C547.896 392.716 547.327 391.946 548.646 390.375C549.964 388.804 550.771 389.513 551.941 390.337C556.481 393.608 561.078 396.795 565.585 400.097C566.516 400.783 568.502 401.141 567.596 402.857C566.821 404.344 565.783 405.564 563.476 405.274C558.895 404.687 554.281 404.359 549.684 403.925C549.552 404.26 549.437 404.573 549.321 404.885Z" fill="url(#paint15_linear_317_16619)" fill-opacity="0.28"/>
<path d="M182.821 299.6C184.437 297.515 186.48 295.746 188.836 294.392C189.857 293.805 190.994 291.746 192.024 293.05C193.054 294.354 193.598 296.603 191.456 298.144C189.618 299.455 187.847 300.858 186.059 302.238C184.625 303.344 183.398 304.716 184.073 306.47C184.897 308.59 186.916 306.905 188.316 307.271C190.244 307.766 193.482 305.044 193.96 309.246C194.133 310.694 193.738 311.297 192.115 311.426C185.842 311.909 179.58 312.445 173.329 313.035C171.517 313.21 170.858 312.524 170.742 310.976C170.545 308.201 170.273 305.425 170.083 302.65C169.853 299.409 170.33 296.474 174.326 295.368C178.322 294.263 180.852 295.909 182.821 299.6ZM173.939 303.923C174.697 305.631 172.95 309.146 177.877 308.369C182.335 307.66 179.772 305.029 179.789 303.229C179.789 301.285 179.212 299.234 176.361 299.608C173.849 299.913 173.857 301.857 173.939 303.923Z" fill="url(#paint16_linear_317_16619)" fill-opacity="0.28"/>
<path d="M571.732 192.66C568.552 194.093 565.355 195.496 562.216 196.991C560.947 197.593 560.082 197.86 559.299 196.335C558.607 194.97 558.418 194.147 560.123 193.339C565.256 190.96 570.274 188.375 575.415 186.003C576.552 185.485 577.771 183.716 579.254 185.294C580.737 186.873 580.976 188.428 579.526 190.403C577.054 193.735 575.019 197.326 572.441 201.368C576.651 200.658 579.526 198.447 582.772 197.06C584.14 196.472 585.244 195.535 586.34 197.57C587.32 199.385 586.488 199.987 584.948 200.712C579.823 203.114 574.78 205.66 569.631 208.009C568.651 208.451 567.472 210.19 566.179 208.436C565.223 207.124 564.185 205.843 565.479 203.991C567.95 200.483 570.051 196.8 572.309 193.194C572.366 192.904 572.424 192.614 572.49 192.324L571.732 192.66Z" fill="url(#paint17_linear_317_16619)" fill-opacity="0.28"/>
<path d="M458.387 472.754C461.849 474.46 464.959 476.719 467.573 479.426C464.549 481.53 462.012 481.134 459.491 478.854C457.972 477.574 456.316 476.442 454.547 475.476C453.962 475.127 453.273 474.955 452.578 474.985C451.882 475.015 451.214 475.246 450.666 475.644C449.529 476.46 450.568 477.482 450.839 478.389C451.121 479.624 451.521 480.834 452.034 482.003C452.957 483.765 452.232 484.42 450.444 484.969C448.656 485.518 448.071 485.084 447.552 483.498C445.772 478.064 443.886 472.658 441.892 467.279C441.257 465.564 441.62 464.779 443.54 464.298C446.308 463.597 449.002 462.659 451.779 461.896C455.074 460.966 458.312 460.692 460.562 463.848C462.547 466.723 461.995 469.109 458.387 472.754ZM456.862 468.362C456.714 466.456 455.923 465.045 454.176 465.35C451.705 465.785 448.409 465.45 447.321 468.118C446.984 468.949 447.181 472.342 449.686 471.931C452.355 471.542 455.791 471.336 456.862 468.362Z" fill="url(#paint18_linear_317_16619)" fill-opacity="0.28"/>
<path d="M601.92 284.053C600.61 282.017 600.034 280.241 602.563 278.472C604.211 277.305 604.079 275.315 603.568 273.523C603.3 272.395 602.643 271.377 601.697 270.624C600.75 269.87 599.565 269.421 598.32 269.345C594.843 268.963 591.325 269.108 589.076 272.112C587.428 274.278 587.749 276.687 589.034 278.975C589.652 280.088 590.427 280.851 591.902 280.568C593.5 280.263 593.096 279.104 593.047 278.144C592.981 276.901 592.462 275.635 594.695 275.437C597.273 275.216 596.639 276.962 596.936 278.136C596.948 278.263 596.948 278.39 596.936 278.517C597.488 284.663 595.288 286.478 588.697 285.128C588.195 285.006 587.732 284.776 587.345 284.457C583.547 281.407 582.822 272.821 586.002 268.902C589.487 264.602 597.619 263.321 602.777 266.272C607.49 268.971 609.368 275.658 606.773 280.424C606.318 281.332 605.644 282.131 604.803 282.761C603.962 283.39 602.975 283.832 601.92 284.053Z" fill="url(#paint19_linear_317_16619)" fill-opacity="0.28"/>
<path d="M565.931 365.159C566.104 360.294 567.892 356.108 572.786 353.844C577.441 351.693 581.948 352.982 585.903 355.674C592.494 360.142 591.522 370.451 584.329 373.546C582.756 374.217 580.416 375.186 579.559 373.607C578.702 372.029 579.559 370.039 582.294 369.52C584.7 369.063 585.672 367.126 586.051 364.991C586.504 362.414 585.277 360.5 583.019 359.227C580.169 357.61 577.128 356.306 573.767 358.03C571.221 359.333 570.471 361.575 570.298 364.13C570.203 364.698 570.339 365.279 570.677 365.762C571.016 366.244 571.535 366.594 572.135 366.745C573.857 367.279 573.701 365.769 574.286 365.09C574.994 364.267 574.706 362.414 576.964 363.291C579.081 364.107 578.686 365.22 577.878 366.585C577.755 366.806 577.689 367.058 577.582 367.294C574.929 372.952 572.968 373.394 567.332 369.673C565.429 368.415 566.286 366.699 565.931 365.159Z" fill="url(#paint20_linear_317_16619)" fill-opacity="0.28"/>
<path d="M412.149 98.1262C412.585 93.6732 412.923 90.2268 413.277 86.7803C413.426 85.3925 413.352 83.9667 415.708 84.1344C417.908 84.2946 417.932 85.3544 417.743 86.9557C417.142 92.1101 416.771 97.2874 416.095 102.434C415.947 103.586 416.763 105.553 414.373 105.69C412.371 105.812 410.806 105.286 409.85 103.273C407.999 99.3693 405.763 95.6324 403.168 92.1101C402.778 95.4803 402.393 98.8531 402.014 102.228C401.874 103.509 401.899 104.653 399.749 104.516C397.598 104.379 397.442 103.357 397.623 101.771C398.208 96.4868 398.686 91.1951 399.271 85.911C399.394 84.7597 398.917 83.0669 400.919 82.9907C402.665 82.9297 404.272 83.1279 405.203 85.1104C407.189 89.2126 409.496 93.1776 412.149 98.1262Z" fill="url(#paint21_linear_317_16619)" fill-opacity="0.28"/>
<path d="M339.323 487.639C334.248 487.478 329.815 486.182 327.64 481.729C325.465 477.276 326.289 472.732 329.527 468.828C334.133 463.284 345.511 464.39 348.263 470.597C348.699 471.58 350.092 473.136 348.048 473.731C346.747 474.104 344.843 474.493 343.929 472.427C342.347 468.874 339.109 468.485 335.69 469.552C332.435 470.566 330.351 476.3 331.743 479.846C333.045 483.147 335.929 483.948 339.373 483.59C340.749 483.452 342.182 483.208 342.33 481.523C342.487 479.709 340.782 480.128 339.76 479.762C338.738 479.396 337.288 479.404 337.815 477.589C338.302 475.904 339.241 475.652 340.782 476.155C341.052 476.222 341.328 476.273 341.605 476.308C348.716 477.726 349.358 478.801 346.376 485.046C344.959 487.982 341.803 487.25 339.323 487.639Z" fill="url(#paint22_linear_317_16619)" fill-opacity="0.28"/>
<path d="M557.132 157.303C557.198 162.808 553.013 167.772 547.855 169.678C543.365 171.333 540.16 170.441 536.32 166.438C530.619 160.506 530.619 160.506 537.144 155.168C540.226 152.667 543.29 150.159 546.388 147.68C547.047 147.154 547.896 145.98 548.728 146.918C551.974 150.547 556.555 153.384 557.132 157.303ZM552.757 158.195C552.576 155.984 550.854 154.009 548.794 152.705C547.196 151.699 546.207 153.895 545.045 154.741C542.804 156.381 540.786 158.287 538.536 159.911C537.062 160.971 537.103 161.832 538.298 162.961C540.069 164.654 541.461 166.933 544.675 166.148C547.888 165.363 552.518 160.971 552.757 158.195Z" fill="url(#paint23_linear_317_16619)" fill-opacity="0.28"/>
<path d="M180.185 274.582C180.885 273.339 178.76 270.831 181.882 270.175C186.175 269.268 190.196 270.571 191.374 273.164C193.582 278.029 193.845 282.832 189.915 287.095C186.842 290.427 180.416 291.311 175.39 289.382C168.387 286.698 166.244 276.633 171.806 272.157C172.902 271.281 174.508 269.611 175.909 271.136C176.782 272.127 177.128 273.965 175.184 275.444C174.54 275.914 174.005 276.498 173.609 277.163C173.213 277.827 172.965 278.558 172.879 279.313C172.793 280.067 172.871 280.83 173.108 281.556C173.346 282.283 173.738 282.958 174.261 283.541C176.601 286.187 183.258 286.645 186.422 284.38C188.836 282.649 189.471 278.585 187.831 276.069C187.629 275.672 187.302 275.341 186.894 275.118C186.485 274.895 186.014 274.79 185.54 274.819C184.494 274.857 184.272 275.49 184.074 276.298C183.753 277.64 184.898 279.996 181.709 279.554C178.521 279.111 180.811 276.908 180.21 275.627C180.146 275.282 180.138 274.93 180.185 274.582Z" fill="url(#paint24_linear_317_16619)" fill-opacity="0.28"/>
<path d="M312.975 457.68C319.525 457.741 324.864 462.461 324.707 468.05C324.518 474.859 319.484 480.151 313.238 480.113C306.771 480.067 301.473 475.644 301.423 470.246C301.358 463.635 306.911 457.627 312.975 457.68ZM313.675 461.683C309.901 461.683 306.26 465.862 306.26 470.307C306.25 471.837 306.883 473.31 308.025 474.415C309.168 475.521 310.73 476.172 312.381 476.232C316.287 476.323 320.118 471.87 320.011 467.364C319.983 465.834 319.3 464.376 318.112 463.311C316.924 462.246 315.329 461.661 313.675 461.683Z" fill="url(#paint25_linear_317_16619)" fill-opacity="0.28"/>
<path d="M598.444 294.163C600.915 299.379 609.154 301.155 606.37 308.902C604.104 306.615 602.044 304.655 600.198 302.558C598.839 301.033 597.677 300.804 595.774 301.895C591.968 304.068 587.98 305.974 583.976 308.048C582.979 304.198 584.206 301.864 587.996 300.759C589.177 300.42 590.291 299.905 591.292 299.234C592.38 298.471 594.925 298.593 594.316 296.885C594.056 296.025 593.526 295.255 592.792 294.674C592.059 294.093 591.155 293.726 590.196 293.622C588.969 293.546 587.724 293.462 586.505 293.469C584.618 293.469 584.684 292.371 584.857 291.182C585.03 289.992 584.907 288.894 586.826 289.016C593.236 289.474 599.646 289.855 606.056 290.236C607.614 290.328 608.166 290.999 608.092 292.425C608.017 293.851 607.556 294.826 605.686 294.666C603.321 294.415 601.047 294.316 598.444 294.163Z" fill="url(#paint26_linear_317_16619)" fill-opacity="0.28"/>
<path d="M223.374 405.693C217.985 403.169 210.463 406.898 207.217 399.311C210.512 399.669 213.388 399.845 216.23 400.348C218.406 400.737 219.419 400.203 220.111 398.205C221.47 394.248 223.151 390.39 224.766 386.326C228.136 388.705 229.026 391.236 226.801 394.477C226.202 395.472 225.732 396.529 225.401 397.626C224.989 398.777 223.456 400.379 224.478 400.996C225.282 401.488 226.217 401.767 227.18 401.8C228.144 401.834 229.098 401.622 229.94 401.187C230.998 400.603 231.987 399.918 232.89 399.143C234.274 397.931 235.131 398.312 236.186 399.601C237.24 400.889 237.446 401.629 235.881 402.651C230.794 406.082 225.771 409.592 220.811 413.181C219.328 414.256 218.587 413.981 217.565 412.708C216.543 411.435 216.337 410.611 217.895 409.612C219.707 408.461 221.438 407.096 223.374 405.693Z" fill="url(#paint27_linear_317_16619)" fill-opacity="0.28"/>
<path d="M360.3 102.282C362.978 101.954 365.425 101.679 367.864 101.352C369.404 101.146 370.846 100.78 371.159 102.96C371.472 105.141 369.825 104.806 368.589 104.966C364.931 105.461 361.174 105.629 357.614 106.384C354.541 107.032 353.495 106.178 353.19 103.403C352.641 98.36 351.929 93.3352 351.056 88.3281C350.693 86.2542 351.105 85.2782 353.528 85.0875C357.647 84.7139 361.676 84.1573 365.738 83.6083C366.99 83.4406 367.897 83.4101 368.02 84.8969C368.111 86.1093 368.267 87.1234 366.372 87.2835C363.653 87.5123 360.959 88.046 358.24 88.2824C355.975 88.4578 356.181 89.6396 356.304 91.1722C356.436 92.9031 357.178 93.2843 358.9 92.987C361.182 92.5829 363.513 92.4151 365.804 92.0491C367.196 91.828 368.103 91.8661 368.424 93.475C368.745 95.0838 368.078 95.5261 366.57 95.6786C364.263 95.915 361.973 96.3724 359.657 96.5021C357.342 96.6317 357.087 97.8212 357.449 99.552C357.812 101.283 357.73 103.105 360.3 102.282Z" fill="url(#paint28_linear_317_16619)" fill-opacity="0.28"/>
<path d="M453.929 91.7819C451.194 93.3069 448.986 94.8319 446.629 95.8994C444.273 96.9669 443.638 98.3317 444.627 100.68C446.151 104.317 447.371 108.069 448.804 112.003C444.899 112.209 442.37 111.241 441.892 107.383C441.75 106.124 441.371 104.898 440.771 103.761C440.153 102.647 440.854 100.36 438.852 100.589C437.883 100.662 436.961 101.005 436.206 101.57C435.45 102.136 434.896 102.899 434.617 103.761C434.267 104.717 433.992 105.696 433.793 106.689C433.578 108.465 432.557 108.679 430.95 108.282C429.344 107.886 428.561 107.52 429.105 105.713C430.794 100.124 432.293 94.4811 433.809 88.8463C434.213 87.3213 434.954 86.7418 436.709 87.2222C438.291 87.6492 439.066 88.2516 438.547 89.8909C437.896 91.9192 437.401 93.9855 436.792 96.2273C442.674 95.1216 446.151 87.8322 453.929 91.7819Z" fill="url(#paint29_linear_317_16619)" fill-opacity="0.28"/>
<path d="M265.765 142.511C264.385 142.544 263.03 142.173 261.892 141.451C260.994 140.872 259.206 140.414 260.376 138.996C261.134 138.073 261.958 136.373 263.968 137.509C266.49 138.935 268.689 138.203 270.601 136.411C271.746 135.328 272.249 133.941 271.351 132.599C270.453 131.257 268.986 131.562 267.635 132.004C265.575 132.675 263.573 133.529 261.472 134.063C258.588 134.825 255.952 134.246 254.271 131.775C252.59 129.305 253.043 126.72 255.095 124.432C257.995 121.184 262.378 119.507 265.526 120.62C266.679 121.039 268.755 121.459 268.088 122.907C267.536 124.112 266.242 125.866 263.927 124.798C263.324 124.509 262.641 124.392 261.966 124.463C261.087 124.61 260.259 124.949 259.549 125.451C258.84 125.954 258.271 126.606 257.888 127.353C257.645 127.67 257.547 128.063 257.614 128.447C257.682 128.831 257.911 129.175 258.25 129.404C259.734 130.273 261.134 129.472 262.535 129.03C264.429 128.309 266.376 127.71 268.36 127.238C269.535 127.018 270.751 127.089 271.887 127.443C273.023 127.797 274.037 128.422 274.829 129.255C275.62 130.088 276.16 131.099 276.394 132.187C276.628 133.275 276.548 134.4 276.162 135.45C274.984 138.904 269.62 142.526 265.765 142.511Z" fill="url(#paint30_linear_317_16619)" fill-opacity="0.28"/>
<path d="M204.457 395.232C203.493 395.308 203.304 394.584 202.982 394.081C200.725 390.619 198.508 387.127 196.259 383.65C195.551 382.567 195.254 381.759 196.77 380.859C198.558 379.799 199.135 380.737 199.86 381.919C201.005 383.787 202.331 385.579 203.361 387.5C204.334 389.3 205.265 389.857 207.415 388.69C209.747 387.417 208.585 386.357 207.736 385.06C206.599 383.337 205.553 381.553 204.383 379.845C203.485 378.533 204.012 377.862 205.298 377.138C206.583 376.414 207.217 376.932 207.835 377.946C208.766 379.471 209.813 380.996 210.752 382.521C211.823 384.275 212.4 386.036 215.481 384.306C218.447 382.636 217.442 381.347 216.181 379.54C214.921 377.733 213.957 376.055 212.787 374.347C211.963 373.158 211.526 372.243 213.298 371.297C214.888 370.451 215.423 371.16 216.115 372.258C218.315 375.758 220.581 379.22 222.839 382.689C223.514 383.726 224.05 384.633 222.468 385.487C216.791 388.537 211.156 391.656 205.504 394.752C205.157 394.95 204.746 395.087 204.457 395.232Z" fill="url(#paint31_linear_317_16619)" fill-opacity="0.28"/>
<path d="M471.388 98.325C475.82 98.325 480.624 101.085 481.456 104.272C481.818 105.668 482.379 107.711 480.558 108.085C480.12 108.178 479.665 108.181 479.226 108.094C478.787 108.006 478.373 107.83 478.016 107.578C477.658 107.327 477.364 107.005 477.156 106.637C476.947 106.268 476.829 105.862 476.809 105.447C476.611 103.091 474.527 102.519 472.442 102.115C471.445 101.916 470.481 102.015 469.971 102.953C469.75 103.355 469.695 103.818 469.817 104.254C469.938 104.691 470.227 105.071 470.63 105.325C472.376 106.743 474.214 108.07 475.936 109.511C478.729 111.852 479.388 114.65 477.509 117.723C475.705 120.666 472.83 121.352 469.402 120.681C464.063 119.629 460.339 116.449 460.339 112.652C460.339 111.569 459.886 109.755 461.987 109.869C463.289 109.945 465.208 110.045 465.06 112.157C464.97 112.928 465.137 113.706 465.537 114.387C465.938 115.068 466.553 115.62 467.301 115.969C469.278 116.968 471.536 117.921 473.167 115.733C474.799 113.544 472.393 112.683 471.058 111.501C469.46 110.311 467.936 109.038 466.494 107.688C465.631 106.854 465.085 105.782 464.936 104.636C464.788 103.489 465.045 102.329 465.67 101.329C466.168 100.341 466.986 99.5213 468.011 98.983C469.035 98.4447 470.216 98.2147 471.388 98.325Z" fill="url(#paint32_linear_317_16619)" fill-opacity="0.28"/>
<path d="M393.776 82.129C393.481 82.6676 393.156 83.1919 392.803 83.6998C390.694 86.1397 386.509 88.046 386.673 90.8672C386.838 93.6884 390.126 96.136 391.93 98.8124C392.927 100.269 394.443 101.473 394.74 103.342C391.197 104.34 388.552 103.7 387.069 100.368C386.643 99.4306 386.065 98.5589 385.355 97.783C384.292 96.624 384.029 93.8638 382.191 94.55C381.108 94.985 380.203 95.7298 379.61 96.6752C379.017 97.6206 378.766 98.717 378.896 99.8036C379.036 101.466 380.362 104.15 376.424 104.013C375.073 103.959 374.471 103.738 374.447 102.366C374.32 96.2657 374.139 90.1835 373.903 84.1191C373.837 82.3501 375.139 82.4721 376.375 82.3501C377.808 82.2129 378.731 82.5026 378.665 84.1268C378.574 86.3532 378.665 88.5797 378.665 91.4467C383.18 88.4577 384.869 83.9438 389.219 82.1976C390.381 81.7173 392.012 82.129 393.776 82.129Z" fill="url(#paint33_linear_317_16619)" fill-opacity="0.28"/>
<path d="M238.69 143.952C238.074 143.829 237.433 143.861 236.835 144.045C236.236 144.228 235.702 144.557 235.288 144.997C234.167 146.087 232.725 147.383 233.912 148.939C235.098 150.494 236.647 149.29 237.924 148.703C239.885 147.81 241.681 146.575 243.692 145.866C248.413 144.204 252.977 147.307 252.919 151.966C252.845 157.304 245.43 162.58 240.272 160.857C239.16 160.491 237.092 160.323 237.866 158.569C238.394 157.364 239.209 155.687 241.525 156.594C244.565 157.791 246.468 156.152 247.91 153.949C248.272 153.477 248.454 152.907 248.429 152.329C248.404 151.751 248.172 151.197 247.77 150.754C246.822 149.64 245.587 149.839 244.433 150.38C242.365 151.348 240.404 152.53 238.295 153.43C235.403 154.658 232.626 154.414 230.501 152.019C228.375 149.625 228.68 147.04 230.501 144.654C232.503 142.031 234.876 139.659 238.682 139.553C240.388 139.499 242.876 139.644 242.802 141.604C242.788 142.047 242.655 142.48 242.416 142.864C242.176 143.248 241.838 143.571 241.43 143.803C241.022 144.036 240.559 144.172 240.08 144.198C239.602 144.224 239.125 144.139 238.69 143.952Z" fill="url(#paint34_linear_317_16619)" fill-opacity="0.28"/>
<path d="M212.02 179.636C210.158 178.554 208.552 177.448 206.78 176.632C204.622 175.633 204.506 174.513 205.841 172.782C206.665 171.699 207.291 171.661 208.445 172.332C213.874 175.504 219.329 178.645 224.841 181.703C226.546 182.656 226.093 183.502 225.302 184.753C224.379 186.202 223.498 186.407 222.072 185.37C221.116 184.669 219.872 184.288 218.966 183.54C216.338 181.383 215.036 182.168 213.157 184.738C210.809 187.948 211.197 189.511 214.847 191.28C216.288 191.974 220.293 191.997 218.076 195.519C217.252 196.808 216.593 197.387 214.929 196.388C209.656 193.232 204.292 190.197 198.912 187.193C197.264 186.301 197.388 185.454 198.269 184.143C199.151 182.831 199.917 182.275 201.392 183.38C202.124 183.965 202.96 184.427 203.864 184.745C205.141 185.172 206.27 187.269 207.58 185.996C209.302 184.28 210.389 182.008 212.02 179.636Z" fill="url(#paint35_linear_317_16619)" fill-opacity="0.28"/>
<path d="M418.79 490.872C414.67 492.397 412.025 491.428 410.303 488.149C409.821 487.237 409.19 486.399 408.433 485.664C407.436 484.726 406.999 482.4 405.558 482.98C404.595 483.339 403.782 483.972 403.234 484.788C402.686 485.603 402.432 486.559 402.509 487.517C402.534 487.643 402.534 487.772 402.509 487.898C401.957 489.568 404.758 492.58 400.35 492.709C396.387 492.831 398.233 489.758 397.986 488.31C397.162 483.689 397.03 478.984 396.602 474.318C396.453 472.739 396.181 471.428 398.769 471.222C401.356 471.016 401.051 472.396 401.24 473.754C401.454 475.637 401.652 477.52 401.891 479.686C407.082 477.17 407.469 468.797 415.774 470.193C414.827 472.877 412.602 474.638 410.765 476.56C409.059 478.344 409.117 479.61 410.765 481.356C413.533 484.307 415.988 487.509 418.79 490.872Z" fill="url(#paint36_linear_317_16619)" fill-opacity="0.28"/>
<path d="M195.295 337.138C199.241 337.199 201.886 339.661 203.254 344.099C204.498 348.209 203.534 351.381 200.123 353.036C195.377 355.323 190.096 356.383 185.087 358.06C183.348 358.648 183.085 357.572 182.615 356.406C182.145 355.239 182.038 354.301 183.694 353.806C187.731 352.601 191.719 351.267 195.756 350.054C198.764 349.147 200.016 347.393 199.052 344.541C198.088 341.69 195.756 341.179 192.873 342.132C188.877 343.443 184.831 344.618 180.819 345.883C179.542 346.288 178.759 346.105 178.454 344.74C178.223 343.71 176.996 342.452 178.841 341.888C184.395 340.127 189.816 337.954 195.295 337.138Z" fill="url(#paint37_linear_317_16619)" fill-opacity="0.28"/>
<path d="M194.858 248.193C195.559 247.979 196.275 248.193 196.111 249.253C195.913 250.549 196.432 252.676 194.545 252.745C189.602 252.928 189.832 256.115 189.173 259.249C188.687 261.613 189.346 262.886 191.645 263.61C194.306 264.449 193.927 266.462 193.079 267.934C191.909 269.947 190.549 267.934 189.536 267.408C184.263 264.754 179.097 261.933 173.882 259.18C172.456 258.418 171.006 257.876 171.509 255.802C171.937 254.041 172.522 252.966 174.681 252.547C181.313 251.25 187.929 249.702 194.858 248.193ZM185.161 260.339C185.161 258.174 186.578 255.719 185.458 255.231C183.2 254.255 180.596 255.543 177.927 256.29C179.946 258.174 182.384 258.936 185.161 260.339Z" fill="url(#paint38_linear_317_16619)" fill-opacity="0.28"/>
<path d="M193.952 313.074C195.452 315.727 195.781 317.694 192.593 319.28C189.017 321.057 191.975 323.771 191.966 326.044C191.966 327.691 192.7 329.094 194.858 328.987C198.368 328.819 198.723 330.962 198.813 333.874C191.052 332.708 183.406 331.587 175.744 330.39C173.939 330.108 174.219 328.514 173.832 327.34C173.305 325.815 174.376 325.052 175.595 324.336C181.676 320.699 187.682 316.955 193.952 313.074ZM180.547 326.684C181.824 327.713 183.406 327.591 184.848 327.652C185.878 327.698 187.534 328.811 187.896 327.081C188.143 325.831 187.872 324.54 187.138 323.466C186.043 322.14 185.013 323.733 184.09 324.229C182.838 324.908 181.322 325.35 180.547 326.684Z" fill="url(#paint39_linear_317_16619)" fill-opacity="0.28"/>
<path d="M580.886 320.012C581.075 312.791 584.7 309.894 592.421 310.954C596.211 311.464 599.959 312.25 603.741 312.806C605.479 313.066 605.949 313.79 605.71 315.384C605.471 316.977 604.738 317.503 602.983 317.183C598.954 316.421 594.884 315.933 590.855 315.185C587.667 314.591 585.804 315.727 585.162 318.579C584.519 321.43 586.126 322.81 589.026 323.283C593.071 323.939 597.084 324.755 601.146 325.311C603.222 325.601 603.411 326.569 603.205 328.194C602.967 330.123 601.706 330.016 600.272 329.764C595.84 329.002 591.374 328.308 586.983 327.355C582.591 326.402 580.77 324.137 580.886 320.012Z" fill="url(#paint40_linear_317_16619)" fill-opacity="0.28"/>
<path d="M227.494 181.444C223.712 175.451 220.079 169.541 216.256 163.716C215.209 162.115 215.531 161.032 216.668 159.652C217.805 158.272 218.942 158.218 220.556 158.683C226.686 160.445 232.849 162.084 238.979 163.845C239.927 164.12 241.995 163.845 241.228 165.584C240.709 166.758 240.108 168.558 237.793 168.138C236.268 167.856 234.621 166.354 233.212 167.551C231.424 169.076 230.097 171.059 228.557 172.828C227.733 173.758 228.318 174.574 228.936 175.207C231.259 177.616 230.287 179.484 227.494 181.444ZM222.419 163.8L221.908 163.373L221.809 164.288C222.748 165.813 223.679 167.338 224.643 168.824C225.039 169.442 225.525 170.349 226.398 169.434C227.271 168.519 228.606 167.269 228.746 166.072C228.886 164.875 226.975 164.959 225.92 164.615C224.866 164.272 223.588 164.066 222.419 163.8Z" fill="url(#paint41_linear_317_16619)" fill-opacity="0.28"/>
<path d="M507.945 460.928C505.572 463.215 503.611 463.902 501.147 461.568C498.371 458.938 496.608 462.262 494.432 462.933C492.785 463.436 490.956 464.207 491.87 466.479C493.081 469.475 490.972 470.535 488.031 471.549C486.918 464.39 485.699 457.344 484.784 450.261C484.504 448.095 488.163 446.334 490.058 447.683C496.056 451.999 501.938 456.475 507.945 460.928ZM490.717 460.051C492.455 460.165 493.411 459.09 494.63 458.602C495.454 458.267 496.056 457.573 495.116 456.879C493.419 455.621 492.117 453.829 489.44 453.066C489.901 455.659 490.305 457.878 490.7 460.051H490.717Z" fill="url(#paint42_linear_317_16619)" fill-opacity="0.28"/>
<path d="M544.716 174.719C552.23 173.117 559.546 171.592 566.871 169.976C568.403 169.64 569.137 170.273 569.837 171.341C570.537 172.408 571.584 173.262 570.512 174.719C566.195 180.544 561.96 186.43 557.684 192.309C554.932 190.319 554.389 188.558 556.564 185.851C558.838 183.03 554.916 181.566 554.001 179.393C553.383 177.913 552.164 177.105 550.426 177.868C547.377 179.164 545.845 177.784 544.716 174.719ZM564.745 175.199L564.069 174.52C561.804 175.199 559.019 175.367 557.478 176.739C556.572 177.54 558.978 179.469 560.23 181.162C561.87 178.989 563.303 177.09 564.745 175.199Z" fill="url(#paint43_linear_317_16619)" fill-opacity="0.28"/>
<path d="M421.722 488.797C422.933 482.468 424.194 476.254 425.257 470.001C425.553 468.255 426.451 467.805 428.124 467.478C429.796 467.15 430.868 467.409 431.84 468.835C435.275 473.867 438.892 478.793 442.32 483.818C442.872 484.618 444.66 485.777 443.144 486.57C441.933 487.188 439.519 488.461 438.53 486.197C436.923 482.506 434.106 483.505 431.115 483.909C428.346 484.291 426.451 485.167 426.559 488.042C426.633 490.063 424.993 490.055 423.559 490.391C421.837 490.795 421.178 490.314 421.722 488.797ZM429.739 473.379C428.956 475.835 427.053 478.335 428.363 480.287C429.187 481.561 431.659 480.013 433.834 479.624L429.739 473.379Z" fill="url(#paint44_linear_317_16619)" fill-opacity="0.28"/>
<path d="M202.892 198.402C206.023 198.402 209.17 198.28 212.284 198.47C213.224 198.531 215.292 197.845 215.053 199.584C214.863 200.933 214.624 202.939 212.004 202.901C210.587 202.901 208.708 201.925 207.777 203.267C206.418 205.305 205.313 207.479 204.482 209.748C203.996 211.006 205.495 211.738 206.377 212.409C208.025 213.675 207.596 214.872 206.871 216.404C206.047 218.067 205.454 217.861 204.325 216.755C199.538 212.073 194.743 207.392 189.857 202.801C188.556 201.574 189.182 200.552 189.701 199.393C190.22 198.234 190.986 197.289 192.708 197.426C196.103 197.685 199.514 197.792 202.916 197.96L202.892 198.402ZM194.768 201.642C197.24 203.999 198.574 206.515 201.112 206.827C202.068 206.942 203.106 204.204 203.32 202.252L194.768 201.642Z" fill="url(#paint45_linear_317_16619)" fill-opacity="0.28"/>
<path d="M563.378 369.291C567.942 374.72 572.441 380.119 576.997 385.433C578.167 386.791 577.878 387.805 577.079 389.177C576.28 390.55 575.209 391.038 573.47 390.756C567.151 389.749 560.807 388.895 554.52 387.881C553.565 387.721 551.488 388.285 552.049 386.463C552.403 385.258 552.873 382.932 555.089 383.634C561.005 385.51 561.178 380.538 563.369 377.999C564.276 376.962 563.485 376.047 562.677 375.361C560.008 373.119 560.939 371.251 563.378 369.291ZM571.889 385.868C570.447 384.206 569.145 382.65 567.769 381.156C567.406 380.759 566.83 380.012 566.212 380.828C565.388 381.949 564.119 383.161 564.086 384.358C564.053 385.555 565.965 385.388 567.085 385.525C568.519 385.708 569.911 386.409 571.889 385.868Z" fill="url(#paint46_linear_317_16619)" fill-opacity="0.28"/>
<path d="M393.536 492.518C390.406 493.281 388.132 493.281 387.472 489.895C386.953 487.234 384.539 487.562 382.57 487.768C380.428 487.989 377.421 486.296 376.473 489.773C376.311 490.388 376.062 490.981 375.732 491.535C374.685 493.235 372.947 492.366 371.678 492.145C369.627 491.779 371.241 490.498 371.53 489.857C374.059 484.131 376.745 478.42 379.316 472.747C379.843 471.573 380.403 470.688 381.969 471.016C383.312 471.298 384.984 470.665 385.701 472.541C388.239 479.198 390.892 485.809 393.536 492.518ZM385.256 483.872C384.251 481.234 383.411 478.999 382.381 476.247C381.31 479.099 379.036 481.249 379.843 483.681C380.239 484.81 383.048 484.177 385.256 483.872Z" fill="url(#paint47_linear_317_16619)" fill-opacity="0.28"/>
<path d="M325.811 113.178C323.389 114.993 321.214 115.908 319.22 113.094C317.893 111.226 316.229 111.638 314.664 112.56C312.596 113.78 308.641 113.186 309.127 116.975C309.539 120.139 307.529 120.788 304.414 121.222C304.414 114.146 304.414 107.223 304.414 100.307C304.414 98.7821 305.238 98.1111 306.647 97.5773C308.056 97.0436 309.119 96.8911 310.272 98.0577C315.356 103.121 320.563 108.1 325.811 113.178ZM308.707 102.503C308.707 105.088 308.707 106.803 308.707 108.519C308.707 110.235 309.168 110.646 311.104 110.044C314.136 109.129 314.977 108.1 312.2 105.957C310.969 104.858 309.802 103.697 308.707 102.48V102.503Z" fill="url(#paint48_linear_317_16619)" fill-opacity="0.28"/>
<path d="M510.623 120.62C510.662 121.768 510.377 122.906 509.797 123.921C509.216 124.936 508.36 125.794 507.312 126.41C506.264 127.025 505.061 127.378 503.821 127.432C502.581 127.486 501.347 127.241 500.241 126.72C499.853 126.591 499.488 126.405 499.162 126.171C495.479 122.961 493.172 124.356 491.426 128.054C490.709 129.579 489.885 130.563 487.743 129.251C485.79 128.054 486.441 127.162 487.323 125.881C490.503 121.306 493.683 116.731 496.732 112.042C497.77 110.456 498.643 109.914 500.456 111.142C502.771 112.713 505.276 114.047 507.673 115.519C508.613 116.047 509.382 116.799 509.901 117.696C510.42 118.593 510.669 119.603 510.623 120.62ZM502.499 123.281C503.349 123.282 504.167 122.978 504.781 122.434C505.395 121.89 505.758 121.147 505.795 120.36C505.968 118.98 501.906 115.343 500.489 115.747C498.355 116.357 496.987 118.706 497.193 120.025C497.63 122.152 500.464 122.694 502.499 123.281Z" fill="url(#paint49_linear_317_16619)" fill-opacity="0.28"/>
<path d="M286.478 446.342C290.309 446.761 291.676 448.485 291.668 451.908C291.668 458.008 291.981 458.115 297.501 454.684C300.286 452.953 302.577 452.518 304.983 455.118C303.335 456.925 300.987 457.749 298.853 458.771C294.354 460.913 290.441 463.437 288.784 468.157C288.2 469.819 287.252 470.589 285.143 469.507C283.034 468.424 283.602 467.364 284.591 466.197C288.274 461.889 287.648 456.971 287.063 452.053C286.873 450.177 286.684 448.294 286.478 446.342Z" fill="url(#paint50_linear_317_16619)" fill-opacity="0.28"/>
<path d="M353.355 469.057C360.712 468.066 359.328 474.89 362.352 477.719C366.282 476.072 366.471 468.79 373.845 471.543C371.291 474.448 369.149 477.36 366.488 479.785C363.39 482.614 363.637 486.198 363.102 489.621C362.871 491.146 362.352 491.665 360.803 491.337C359.674 491.108 357.837 491.261 358.43 489.553C360.902 482.309 356.486 476.651 353.618 470.628C353.463 470.287 353.339 469.935 353.248 469.575C353.215 469.461 353.297 469.331 353.355 469.057Z" fill="url(#paint51_linear_317_16619)" fill-opacity="0.28"/>
<path d="M344.283 108.153C344.572 109.113 343.196 109.205 342.034 109.594C340.164 110.227 339.604 109.243 339.249 107.855C338.22 103.799 336.951 99.7881 336.201 95.6554C335.723 93.0172 334.553 92.7122 332.081 93.3679C330.895 93.6577 328.983 95.3199 328.275 92.5063C327.649 89.9901 329.651 90.2188 331.117 89.8757C334.949 88.9683 338.796 88.1067 342.652 87.268C344.036 86.963 345.528 86.2081 346.228 88.3431C346.986 90.6306 345.182 90.6839 343.814 90.8136C340.518 91.1262 339.909 92.4987 340.823 95.3123C342.125 99.2925 343.023 103.387 344.283 108.153Z" fill="url(#paint52_linear_317_16619)" fill-opacity="0.28"/>
<path d="M479.973 454.393C479.808 455.995 478.169 456.086 477.007 456.46C474.659 457.222 474.247 458.244 475.359 460.371C477.361 464.085 478.927 467.996 480.855 471.755C481.679 473.334 481.637 474.142 479.767 474.973C477.749 475.873 477.155 474.973 476.471 473.54C474.766 469.826 472.855 466.197 471.273 462.445C470.284 460.089 469.188 459.243 466.576 460.745C465.481 461.37 463.783 462.91 462.663 460.432C461.542 457.954 463.75 457.962 465.085 457.382C468.916 455.735 472.855 454.332 476.62 452.556C479.026 451.488 479.446 452.792 479.973 454.393Z" fill="url(#paint53_linear_317_16619)" fill-opacity="0.28"/>
<path d="M592.569 213.789C594.538 213.736 594.118 215.314 594.621 216.214C595.37 217.525 594.316 217.922 593.17 218.28C588.903 219.615 584.709 221.155 580.392 222.306C577.821 222.993 576.972 223.892 578.2 226.279C579.073 227.972 579.494 229.863 580.186 231.616C580.696 232.928 580.425 233.637 578.884 234.186C577.104 234.811 576.791 233.873 576.412 232.752C575.16 229.283 573.891 225.821 572.647 222.352C572.367 221.59 571.576 220.568 572.96 220.11C579.485 217.968 586.068 215.886 592.569 213.789Z" fill="url(#paint54_linear_317_16619)" fill-opacity="0.28"/>
<path d="M525.379 151.219C524.953 151.785 524.488 152.325 523.986 152.835C523.162 153.598 522.52 152.934 521.902 152.446C518.796 149.968 515.722 147.445 512.559 145.027C511.207 143.998 511.084 143.236 512.303 141.977C516.489 137.631 520.542 133.209 524.662 128.748C525.7 127.604 526.458 127.528 527.587 128.588C528.559 129.503 529.811 130.113 528.336 131.638C525.321 134.741 522.635 138.15 519.446 141.085C517.074 143.266 517.593 144.532 519.99 146.057C521.425 147.03 522.78 148.1 524.044 149.259C524.579 149.717 525.461 150.06 525.379 151.219Z" fill="url(#paint55_linear_317_16619)" fill-opacity="0.28"/>
<path d="M205.619 354.286C206.978 354.118 207.267 355.049 207.613 355.811C209.261 359.128 210.818 362.498 212.556 365.762C213.438 367.371 212.803 367.942 211.296 368.568C205.693 370.893 200.115 373.265 194.578 375.72C192.931 376.429 192.23 376.177 191.522 374.622C190.813 373.066 190.854 372.334 192.568 371.671C196.819 369.963 200.98 368.049 205.24 366.334C207.333 365.502 207.868 364.549 206.657 362.628C205.561 360.897 204.919 358.922 203.856 357.168C202.661 355.171 204.408 354.919 205.619 354.286Z" fill="url(#paint56_linear_317_16619)" fill-opacity="0.28"/>
<path d="M579.815 241.765C578.513 242.123 578.513 240.941 578.241 239.981C577.969 239.02 577.203 237.731 579.065 237.274C585.516 235.749 591.976 234.17 598.419 232.592C599.852 232.234 600.47 232.866 600.668 234.025C600.841 235.047 601.747 236.382 599.902 236.847C593.368 238.494 586.777 240.064 579.815 241.765Z" fill="url(#paint57_linear_317_16619)" fill-opacity="0.28"/>
<path d="M261.595 146.736C261.513 147.902 260.367 148.261 259.642 149.023C258.645 149.999 257.994 149.412 257.319 148.68C252.993 144.105 248.668 139.53 244.301 134.955C243.065 133.666 243.906 132.95 244.944 132.187C245.768 131.577 246.501 130.563 247.638 131.768C252.147 136.541 256.654 141.317 261.158 146.095C261.325 146.295 261.471 146.51 261.595 146.736Z" fill="url(#paint58_linear_317_16619)" fill-opacity="0.28"/>
<path d="M521.053 124.364C520.765 124.791 520.444 125.34 520.048 125.835C516.382 130.41 512.682 134.985 509.041 139.56C508.143 140.696 507.459 141.489 505.844 140.254C504.468 139.21 503.825 138.516 505.16 136.93C508.942 132.431 512.518 127.78 516.225 123.205C516.794 122.511 517.23 121.116 518.697 122.084C519.554 122.694 520.625 123.106 521.053 124.364Z" fill="url(#paint59_linear_317_16619)" fill-opacity="0.28"/>
<path d="M420.693 104.379C421.739 98.7972 422.851 93.0708 423.856 87.3293C424.194 85.4078 425.397 85.7051 426.855 85.8958C428.314 86.0864 428.899 86.7193 428.61 88.1832C427.473 93.9121 426.389 99.6461 425.356 105.385C425.059 107.047 424.227 107.345 422.538 107.108C420.709 106.834 420.206 106.056 420.693 104.379Z" fill="url(#paint60_linear_317_16619)" fill-opacity="0.28"/>
<path d="M492.941 107.901C492.661 108.412 492.439 108.87 492.183 109.312C489.39 114.207 486.548 119.072 483.812 123.99C482.988 125.461 482.321 126.071 480.451 125.111C478.58 124.15 478.803 123.288 479.627 121.832C482.552 116.868 485.337 111.828 488.196 106.826C488.69 105.972 489.118 104.79 490.568 105.69C491.541 106.269 493.04 106.437 492.941 107.901Z" fill="url(#paint61_linear_317_16619)" fill-opacity="0.28"/>
<path d="M188.201 232.554C187.562 232.621 186.915 232.534 186.322 232.303C185.729 232.072 185.21 231.704 184.815 231.235C186.199 230.373 187.534 230.747 188.852 231.044C188.325 231.433 187.624 231.753 188.201 232.554Z" fill="url(#paint62_linear_317_16619)" fill-opacity="0.28"/>
<path d="M193.03 231.227C194.035 230.892 195.04 230.64 195.938 231.456C195.49 231.708 194.966 231.822 194.443 231.781C193.92 231.74 193.425 231.546 193.03 231.227Z" fill="url(#paint63_linear_317_16619)" fill-opacity="0.28"/>
<path d="M539.707 447.341L540.209 447.081L540.333 447.371C540.143 447.318 539.954 447.264 539.764 447.226L539.707 447.341Z" fill="url(#paint64_linear_317_16619)" fill-opacity="0.28"/>
<path d="M282.77 122.694L282.498 122.541L282.795 122.137C282.885 122.228 283.042 122.328 283.042 122.427C283.042 122.526 282.869 122.61 282.77 122.694Z" fill="url(#paint65_linear_317_16619)" fill-opacity="0.28"/>
<path d="M571.732 192.66L572.556 192.325C572.49 192.615 572.432 192.904 572.375 193.194L571.732 192.66Z" fill="url(#paint66_linear_317_16619)" fill-opacity="0.28"/>
<path d="M221.809 164.288L221.907 163.373L222.418 163.8C222.237 163.984 222.032 164.148 221.809 164.288Z" fill="url(#paint67_linear_317_16619)" fill-opacity="0.28"/>
<path d="M525.42 334.126C524.053 336.047 522.85 338.434 520.946 340.142C519.785 341.179 518.359 339.326 517.198 338.617C499.805 328.514 482.404 318.411 465.151 308.072C462.383 306.409 461.509 306.996 460.274 309.444C455.643 318.594 450.733 327.668 446.119 336.848C444.965 339.135 443.952 339.463 441.53 338.312C435.243 335.331 435.185 335.445 438.234 329.604C443.084 320.241 447.929 310.88 452.768 301.522C456.063 295.132 460.183 294.019 466.535 297.824C485.271 309.063 503.996 320.325 522.71 331.61C523.674 332.204 525.017 332.487 525.42 334.126Z" fill="url(#paint68_linear_317_16619)" fill-opacity="0.28"/>
<path d="M383.534 198.958C383.534 189.458 383.394 179.949 383.625 170.456C383.699 167.475 382.661 166.895 379.703 166.979C373.936 167.155 368.168 166.842 362.459 166.911C360.333 166.911 359.69 166.392 359.624 164.372C359.369 156.503 359.278 156.457 367.921 156.518C383.254 156.625 398.587 156.869 413.912 156.892C417.628 156.892 419.341 157.517 418.723 161.543C417.834 167.292 418.155 167.3 411.943 167.2C407.288 167.132 402.616 167.353 397.936 167.132C395.061 166.987 394.641 168.1 394.591 170.418C394.492 189.427 394.187 208.436 394.163 227.445C394.163 230.564 393.339 231.547 389.895 231.433C382.817 231.196 382.817 231.387 382.817 224.799V198.951L383.534 198.958Z" fill="url(#paint69_linear_317_16619)" fill-opacity="0.28"/>
<path d="M256.133 319.493C271.194 321.59 286.23 323.595 301.225 325.845C304.027 326.264 305.345 325.654 306.672 323.389C311.829 314.606 317.3 305.974 322.474 297.198C323.652 295.2 324.501 294.788 326.775 295.963C333.918 299.668 333.968 299.569 329.889 306.226C325.105 314.044 320.329 321.87 315.562 329.703C314.837 330.892 313.873 331.99 314.532 333.584C315.487 335.871 316.056 337.64 319.475 335.437C325.852 331.289 332.658 327.72 339.249 323.801C340.963 322.779 341.82 322.764 343.064 324.495C347.818 331.129 347.892 331.075 340.501 335.368C320.316 347.08 300.13 358.762 280.002 370.58C277.431 372.105 276.121 372.311 274.407 369.558C270.774 363.718 270.584 363.802 276.64 360.256C285.555 355.048 294.502 349.894 303.384 344.633C304.604 343.908 307.092 343.596 306.095 341.522C305.098 339.448 305.024 336.626 301.258 336.146C286.618 334.278 272.043 331.96 257.385 330.206C253.224 329.703 251.881 328.46 253.06 324.808C253.375 323.706 253.563 322.576 253.62 321.437C253.686 319.867 254.337 319.036 256.133 319.493Z" fill="url(#paint70_linear_317_16619)" fill-opacity="0.28"/>
<path d="M489.25 208.306C483.681 212.729 478.35 217.083 472.846 221.269C470.943 222.71 471.816 223.755 472.723 225.081C479.039 234.43 485.339 243.788 491.623 253.156C495.43 258.822 494.301 261.49 487.298 263.366C477.954 265.875 468.578 268.254 459.285 270.877C455.165 272.051 452.29 271.334 449.966 267.735C444.693 259.577 439.198 251.54 433.62 243.564C432.219 241.559 432.565 240.682 434.658 239.462C441.406 235.512 441.348 235.436 445.533 241.597C449.183 246.934 452.949 252.272 456.393 257.731C457.785 259.943 459.153 260.309 461.666 259.531C466.322 258.022 471.064 256.749 475.87 255.718C479.462 254.956 479.075 253.865 477.427 251.502C471.503 242.969 465.777 234.323 460.01 225.707C457.348 221.719 457.596 219.805 461.336 216.793C469.41 210.312 477.518 203.869 485.658 197.464C489.86 194.162 492.76 194.536 495.825 198.76C506.297 213.225 516.654 227.674 527.216 242.054C528.955 244.418 528.238 245.356 525.988 246.698C519.727 250.457 519.793 250.51 515.657 244.83L489.25 208.306Z" fill="url(#paint71_linear_317_16619)" fill-opacity="0.28"/>
<path d="M426.699 406.737C427.671 400.233 428.487 394.393 429.443 388.575C429.962 385.418 435.342 382.574 438.506 383.641C439.841 384.091 440.154 385.166 440.45 386.333C442.395 394.095 444.29 401.873 446.407 409.597C447.083 412.067 445.542 412.41 443.729 412.86C441.628 413.371 440.566 412.906 440.055 410.672C438.652 404.311 436.808 398.041 434.535 391.899C433.711 398.411 432.846 404.915 432.063 411.434C431.824 413.485 431.906 415.369 428.99 416.086C425.859 416.848 424.557 415.399 423.222 413.28C420.495 409.033 417.611 404.892 414.719 400.721C414.044 399.753 413.755 398.205 411.638 398.472C413.113 404.214 414.472 409.909 416.087 415.605C416.73 417.893 416.087 418.846 413.657 419.38C411.226 419.913 410.262 419.166 409.735 416.924C408.087 409.757 406.093 402.65 404.346 395.491C403.893 393.6 402.913 391.137 405.994 390.405C409.076 389.673 412.668 387.645 415.329 391.244C418.501 395.536 421.492 399.928 424.59 404.267C425.101 404.946 425.702 405.563 426.699 406.737Z" fill="url(#paint72_linear_317_16619)" fill-opacity="0.28"/>
<path d="M393.182 404.352C401.85 404.664 401.85 404.664 401.19 412.571C400.63 419.236 399.897 420.196 392.688 421.927C385.124 423.765 377.75 423.399 372.131 417.779C366.512 412.16 366.248 405.107 368.794 398.16C372.51 388.042 387.934 384.283 396.848 391.145C397.834 391.832 398.647 392.709 399.229 393.715C399.963 395.24 402.393 397.344 400.053 398.404C398.084 399.281 394.78 401.126 392.688 397.497C390.933 394.447 387.744 393.753 384.218 394.05C382.49 394.13 380.826 394.679 379.432 395.628C378.039 396.577 376.978 397.885 376.382 399.388C374.874 402.829 374.705 406.649 375.905 410.192C378.006 416.574 386.615 418.976 392.383 414.95C393.915 413.875 393.693 412.495 393.52 411.184C393.281 409.43 391.608 410.322 390.545 410.063C388.791 409.643 386.212 411.184 385.412 408.469C384.465 405.244 385.52 404.1 389.161 404.138C390.455 404.138 391.823 404.268 393.182 404.352Z" fill="url(#paint73_linear_317_16619)" fill-opacity="0.28"/>
<path d="M351.402 419.06C348.711 418.923 346.052 418.459 343.492 417.68C337.675 415.812 334.759 411.953 335.5 406.326C336.431 399.296 337.972 392.334 338.796 385.297C339.233 381.621 341.531 383.253 343.41 383.268C345.75 383.268 346.878 384.031 346.392 386.486C345.148 392.967 343.97 399.448 343.097 405.983C342.578 409.872 344.489 411.869 348.609 412.678C352.918 413.516 355.538 412.152 356.411 408.103C357.746 401.896 358.973 395.659 359.789 389.391C360.251 385.891 362.038 386.082 364.947 386.433C368.391 386.844 367.789 388.522 367.361 390.649C366.051 397.245 365.07 403.901 363.62 410.474C362.384 416.246 358.29 419.06 351.402 419.06Z" fill="url(#paint74_linear_317_16619)" fill-opacity="0.28"/>
<path d="M362.846 378.892C363.67 371.709 364.625 364.534 365.317 357.344C365.515 355.194 366.405 354.904 368.407 355.133C373.565 355.72 378.747 356.246 383.93 356.604C386.08 356.757 386.27 357.679 386.138 359.326C386.006 360.973 385.718 361.965 383.518 361.614C380.28 361.156 376.984 361.012 373.73 360.569C371.695 360.295 370.912 361.019 371.184 362.773C371.414 364.229 369.305 366.501 372.741 366.898C375.213 367.172 377.643 367.477 380.098 367.592C382.315 367.691 383.04 368.4 382.908 370.604C382.735 373.486 380.799 372.609 379.192 372.563C376.341 372.495 373.005 370.832 370.796 372.205C368.432 373.684 369.923 377.176 369.206 379.715C368.712 381.462 369.519 383.711 365.754 383.299C361.989 382.887 362.524 381.08 362.846 378.892Z" fill="url(#paint75_linear_317_16619)" fill-opacity="0.28"/>
<path d="M413.195 356.139C413.862 358.983 411.704 358.632 410.221 358.846C404.824 359.646 404.849 359.608 405.607 364.458C406.431 369.719 407.065 375.011 408.078 380.249C408.532 382.651 407.073 382.681 405.368 382.849C403.662 383.017 401.924 383.871 401.619 381.042C401.026 375.628 399.823 370.268 399.296 364.854C398.958 361.385 397.928 359.807 393.825 360.905C392.539 361.255 390.175 362.643 389.45 359.99C388.922 358.068 388.807 356.375 392.004 356.086C398.134 355.529 404.231 354.652 410.303 353.73C412.89 353.325 413.409 354.439 413.195 356.139Z" fill="url(#paint76_linear_317_16619)" fill-opacity="0.28"/>
<path d="M245.48 249.908C245.381 248.429 246.156 247.217 246.823 245.966C256.347 228.175 265.869 210.36 275.388 192.523C278.14 187.391 281.254 186.675 286.099 190.159C305.205 203.983 324.238 217.899 343.402 231.662C345.816 233.4 345.519 234.46 343.814 236.397C339.101 241.734 339.175 241.849 333.325 237.609C317.578 226.187 301.852 214.75 286.148 203.297C283.858 201.619 282.811 201.581 281.584 204.204C279.73 208.154 277.621 212.005 275.363 215.764C274.02 217.99 274.16 219.088 276.838 220.339C286.247 224.731 295.458 229.489 304.851 233.896C307.521 235.146 307.636 236.183 306.301 238.471C302.668 244.685 302.791 244.723 296.258 241.521C288.019 237.487 279.73 233.576 271.582 229.405C269.258 228.208 268.418 228.596 267.396 230.701C265.279 235.085 263.029 239.447 260.483 243.663C258.902 246.263 259.824 246.942 262.494 247.659C282.367 252.996 302.173 258.494 322.079 263.671C325.531 264.571 325.886 265.684 324.872 268.551C322.697 274.651 322.845 274.735 316.048 272.897C294.352 267.026 272.655 261.147 250.959 255.261C247.968 254.361 245.711 253.103 245.48 249.908Z" fill="url(#paint77_linear_317_16619)" fill-opacity="0.28"/>
</g>
<defs>
<filter id="filter0_d_317_16619" x="0" y="-86.1687" width="777.808" height="742.169" filterUnits="userSpaceOnUse" color-interpolation-filters="sRGB">
<feFlood flood-opacity="0" result="BackgroundImageFix"/>
<feColorMatrix in="SourceAlpha" type="matrix" values="0 0 0 0 0 0 0 0 0 0 0 0 0 0 0 0 0 0 127 0" result="hardAlpha"/>
<feOffset/>
<feGaussianBlur stdDeviation="62"/>
<feComposite in2="hardAlpha" operator="out"/>
<feColorMatrix type="matrix" values="0 0 0 0 0.984314 0 0 0 0 0.690196 0 0 0 0 0.231373 0 0 0 1 0"/>
<feBlend mode="normal" in2="BackgroundImageFix" result="effect1_dropShadow_317_16619"/>
<feBlend mode="normal" in="SourceGraphic" in2="effect1_dropShadow_317_16619" result="shape"/>
</filter>
<linearGradient id="paint0_linear_317_16619" x1="388.904" y1="116.299" x2="132.113" y2="801.83" gradientUnits="userSpaceOnUse">
<stop stop-color="#FBC60B"/>
<stop offset="1" stop-color="#FFDE0B"/>
</linearGradient>
<linearGradient id="paint1_linear_317_16619" x1="364.864" y1="37.8313" x2="361.052" y2="87.1712" gradientUnits="userSpaceOnUse">
<stop stop-color="#FBC60B"/>
<stop offset="1" stop-color="#FFDE0B"/>
</linearGradient>
<linearGradient id="paint2_linear_317_16619" x1="518.885" y1="54.9878" x2="486.873" y2="183.495" gradientUnits="userSpaceOnUse">
<stop stop-color="#FBC60B"/>
<stop offset="1" stop-color="#FFDE0B"/>
</linearGradient>
<linearGradient id="paint3_linear_317_16619" x1="611.403" y1="126.552" x2="542.414" y2="217.547" gradientUnits="userSpaceOnUse">
<stop stop-color="#FBC60B"/>
<stop offset="1" stop-color="#FFDE0B"/>
</linearGradient>
<linearGradient id="paint4_linear_317_16619" x1="256.017" y1="63.0214" x2="233.386" y2="131.058" gradientUnits="userSpaceOnUse">
<stop stop-color="#FBC60B"/>
<stop offset="1" stop-color="#FFDE0B"/>
</linearGradient>
<linearGradient id="paint5_linear_317_16619" x1="214.41" y1="102.122" x2="207.929" y2="128.017" gradientUnits="userSpaceOnUse">
<stop stop-color="#FBC60B"/>
<stop offset="1" stop-color="#FFDE0B"/>
</linearGradient>
<linearGradient id="paint6_linear_317_16619" x1="639.837" y1="201.749" x2="633.444" y2="217.026" gradientUnits="userSpaceOnUse">
<stop stop-color="#FBC60B"/>
<stop offset="1" stop-color="#FFDE0B"/>
</linearGradient>
<linearGradient id="paint7_linear_317_16619" x1="389.202" y1="48.1109" x2="58.3134" y2="793.881" gradientUnits="userSpaceOnUse">
<stop stop-color="#FBC60B"/>
<stop offset="1" stop-color="#FFDE0B"/>
</linearGradient>
<linearGradient id="paint8_linear_317_16619" x1="388.566" y1="118.834" x2="153.187" y2="633.425" gradientUnits="userSpaceOnUse">
<stop stop-color="#FBC60B"/>
<stop offset="1" stop-color="#FFDE0B"/>
</linearGradient>
<linearGradient id="paint9_linear_317_16619" x1="285.305" y1="101.405" x2="265.088" y2="147.802" gradientUnits="userSpaceOnUse">
<stop stop-color="#FBC60B"/>
<stop offset="1" stop-color="#FFDE0B"/>
</linearGradient>
<linearGradient id="paint10_linear_317_16619" x1="190.927" y1="213.595" x2="173.121" y2="254.423" gradientUnits="userSpaceOnUse">
<stop stop-color="#FBC60B"/>
<stop offset="1" stop-color="#FFDE0B"/>
</linearGradient>
<linearGradient id="paint11_linear_317_16619" x1="529.119" y1="417.679" x2="507.914" y2="465.841" gradientUnits="userSpaceOnUse">
<stop stop-color="#FBC60B"/>
<stop offset="1" stop-color="#FFDE0B"/>
</linearGradient>
<linearGradient id="paint12_linear_317_16619" x1="255.305" y1="418.618" x2="235.145" y2="465.794" gradientUnits="userSpaceOnUse">
<stop stop-color="#FBC60B"/>
<stop offset="1" stop-color="#FFDE0B"/>
</linearGradient>
<linearGradient id="paint13_linear_317_16619" x1="587.262" y1="330.972" x2="573.24" y2="366.911" gradientUnits="userSpaceOnUse">
<stop stop-color="#FBC60B"/>
<stop offset="1" stop-color="#FFDE0B"/>
</linearGradient>
<linearGradient id="paint14_linear_317_16619" x1="593.124" y1="241.797" x2="580.319" y2="275.379" gradientUnits="userSpaceOnUse">
<stop stop-color="#FBC60B"/>
<stop offset="1" stop-color="#FFDE0B"/>
</linearGradient>
<linearGradient id="paint15_linear_317_16619" x1="553.5" y1="389.441" x2="536.074" y2="430.223" gradientUnits="userSpaceOnUse">
<stop stop-color="#FBC60B"/>
<stop offset="1" stop-color="#FFDE0B"/>
</linearGradient>
<linearGradient id="paint16_linear_317_16619" x1="182.017" y1="292.625" x2="168.594" y2="325.591" gradientUnits="userSpaceOnUse">
<stop stop-color="#FBC60B"/>
<stop offset="1" stop-color="#FFDE0B"/>
</linearGradient>
<linearGradient id="paint17_linear_317_16619" x1="572.779" y1="184.653" x2="556.322" y2="223.923" gradientUnits="userSpaceOnUse">
<stop stop-color="#FBC60B"/>
<stop offset="1" stop-color="#FFDE0B"/>
</linearGradient>
<linearGradient id="paint18_linear_317_16619" x1="454.589" y1="461.272" x2="438.009" y2="498.968" gradientUnits="userSpaceOnUse">
<stop stop-color="#FBC60B"/>
<stop offset="1" stop-color="#FFDE0B"/>
</linearGradient>
<linearGradient id="paint19_linear_317_16619" x1="595.973" y1="264.673" x2="582.046" y2="298.134" gradientUnits="userSpaceOnUse">
<stop stop-color="#FBC60B"/>
<stop offset="1" stop-color="#FFDE0B"/>
</linearGradient>
<linearGradient id="paint20_linear_317_16619" x1="578.13" y1="352.762" x2="563.451" y2="387.334" gradientUnits="userSpaceOnUse">
<stop stop-color="#FBC60B"/>
<stop offset="1" stop-color="#FFDE0B"/>
</linearGradient>
<linearGradient id="paint21_linear_317_16619" x1="407.692" y1="82.9816" x2="389.902" y2="116.184" gradientUnits="userSpaceOnUse">
<stop stop-color="#FBC60B"/>
<stop offset="1" stop-color="#FFDE0B"/>
</linearGradient>
<linearGradient id="paint22_linear_317_16619" x1="337.78" y1="465.24" x2="321.545" y2="499.714" gradientUnits="userSpaceOnUse">
<stop stop-color="#FBC60B"/>
<stop offset="1" stop-color="#FFDE0B"/>
</linearGradient>
<linearGradient id="paint23_linear_317_16619" x1="544.637" y1="146.566" x2="527.657" y2="183.758" gradientUnits="userSpaceOnUse">
<stop stop-color="#FBC60B"/>
<stop offset="1" stop-color="#FFDE0B"/>
</linearGradient>
<linearGradient id="paint24_linear_317_16619" x1="180.807" y1="269.887" x2="167.454" y2="303.068" gradientUnits="userSpaceOnUse">
<stop stop-color="#FBC60B"/>
<stop offset="1" stop-color="#FFDE0B"/>
</linearGradient>
<linearGradient id="paint25_linear_317_16619" x1="313.067" y1="457.68" x2="297.053" y2="492.501" gradientUnits="userSpaceOnUse">
<stop stop-color="#FBC60B"/>
<stop offset="1" stop-color="#FFDE0B"/>
</linearGradient>
<linearGradient id="paint26_linear_317_16619" x1="595.871" y1="289.007" x2="583.245" y2="321.515" gradientUnits="userSpaceOnUse">
<stop stop-color="#FBC60B"/>
<stop offset="1" stop-color="#FFDE0B"/>
</linearGradient>
<linearGradient id="paint27_linear_317_16619" x1="222.116" y1="386.326" x2="203.011" y2="429.656" gradientUnits="userSpaceOnUse">
<stop stop-color="#FBC60B"/>
<stop offset="1" stop-color="#FFDE0B"/>
</linearGradient>
<linearGradient id="paint28_linear_317_16619" x1="361.07" y1="83.5295" x2="342.876" y2="117.006" gradientUnits="userSpaceOnUse">
<stop stop-color="#FBC60B"/>
<stop offset="1" stop-color="#FFDE0B"/>
</linearGradient>
<linearGradient id="paint29_linear_317_16619" x1="441.431" y1="87.0576" x2="423.185" y2="125.314" gradientUnits="userSpaceOnUse">
<stop stop-color="#FBC60B"/>
<stop offset="1" stop-color="#FFDE0B"/>
</linearGradient>
<linearGradient id="paint30_linear_317_16619" x1="264.884" y1="120.276" x2="249.1" y2="154.895" gradientUnits="userSpaceOnUse">
<stop stop-color="#FBC60B"/>
<stop offset="1" stop-color="#FFDE0B"/>
</linearGradient>
<linearGradient id="paint31_linear_317_16619" x1="209.59" y1="370.924" x2="193.343" y2="409.867" gradientUnits="userSpaceOnUse">
<stop stop-color="#FBC60B"/>
<stop offset="1" stop-color="#FFDE0B"/>
</linearGradient>
<linearGradient id="paint32_linear_317_16619" x1="471.064" y1="98.298" x2="454.019" y2="132.286" gradientUnits="userSpaceOnUse">
<stop stop-color="#FBC60B"/>
<stop offset="1" stop-color="#FFDE0B"/>
</linearGradient>
<linearGradient id="paint33_linear_317_16619" x1="384.32" y1="81.9648" x2="367.629" y2="115.002" gradientUnits="userSpaceOnUse">
<stop stop-color="#FBC60B"/>
<stop offset="1" stop-color="#FFDE0B"/>
</linearGradient>
<linearGradient id="paint34_linear_317_16619" x1="240.969" y1="139.544" x2="226.143" y2="173.837" gradientUnits="userSpaceOnUse">
<stop stop-color="#FBC60B"/>
<stop offset="1" stop-color="#FFDE0B"/>
</linearGradient>
<linearGradient id="paint35_linear_317_16619" x1="211.82" y1="171.886" x2="195.009" y2="211.841" gradientUnits="userSpaceOnUse">
<stop stop-color="#FBC60B"/>
<stop offset="1" stop-color="#FFDE0B"/>
</linearGradient>
<linearGradient id="paint36_linear_317_16619" x1="407.651" y1="470.037" x2="390.888" y2="504.532" gradientUnits="userSpaceOnUse">
<stop stop-color="#FBC60B"/>
<stop offset="1" stop-color="#FFDE0B"/>
</linearGradient>
<linearGradient id="paint37_linear_317_16619" x1="190.807" y1="337.138" x2="177.429" y2="371.6" gradientUnits="userSpaceOnUse">
<stop stop-color="#FBC60B"/>
<stop offset="1" stop-color="#FFDE0B"/>
</linearGradient>
<linearGradient id="paint38_linear_317_16619" x1="183.771" y1="248.118" x2="170.366" y2="281.674" gradientUnits="userSpaceOnUse">
<stop stop-color="#FBC60B"/>
<stop offset="1" stop-color="#FFDE0B"/>
</linearGradient>
<linearGradient id="paint39_linear_317_16619" x1="186.254" y1="313.074" x2="172.88" y2="346.902" gradientUnits="userSpaceOnUse">
<stop stop-color="#FBC60B"/>
<stop offset="1" stop-color="#FFDE0B"/>
</linearGradient>
<linearGradient id="paint40_linear_317_16619" x1="593.324" y1="310.742" x2="581.659" y2="342.483" gradientUnits="userSpaceOnUse">
<stop stop-color="#FBC60B"/>
<stop offset="1" stop-color="#FFDE0B"/>
</linearGradient>
<linearGradient id="paint41_linear_317_16619" x1="228.508" y1="158.42" x2="212.886" y2="195.054" gradientUnits="userSpaceOnUse">
<stop stop-color="#FBC60B"/>
<stop offset="1" stop-color="#FFDE0B"/>
</linearGradient>
<linearGradient id="paint42_linear_317_16619" x1="496.357" y1="447.212" x2="478.021" y2="483.786" gradientUnits="userSpaceOnUse">
<stop stop-color="#FBC60B"/>
<stop offset="1" stop-color="#FFDE0B"/>
</linearGradient>
<linearGradient id="paint43_linear_317_16619" x1="557.844" y1="169.886" x2="543.102" y2="206.042" gradientUnits="userSpaceOnUse">
<stop stop-color="#FBC60B"/>
<stop offset="1" stop-color="#FFDE0B"/>
</linearGradient>
<linearGradient id="paint44_linear_317_16619" x1="432.638" y1="467.351" x2="415.24" y2="502.264" gradientUnits="userSpaceOnUse">
<stop stop-color="#FBC60B"/>
<stop offset="1" stop-color="#FFDE0B"/>
</linearGradient>
<linearGradient id="paint45_linear_317_16619" x1="202.079" y1="197.413" x2="189.682" y2="230.808" gradientUnits="userSpaceOnUse">
<stop stop-color="#FBC60B"/>
<stop offset="1" stop-color="#FFDE0B"/>
</linearGradient>
<linearGradient id="paint46_linear_317_16619" x1="564.866" y1="369.291" x2="550.943" y2="404.254" gradientUnits="userSpaceOnUse">
<stop stop-color="#FBC60B"/>
<stop offset="1" stop-color="#FFDE0B"/>
</linearGradient>
<linearGradient id="paint47_linear_317_16619" x1="382.095" y1="470.947" x2="366.43" y2="505.102" gradientUnits="userSpaceOnUse">
<stop stop-color="#FBC60B"/>
<stop offset="1" stop-color="#FFDE0B"/>
</linearGradient>
<linearGradient id="paint48_linear_317_16619" x1="315.113" y1="97.1738" x2="296.272" y2="132.287" gradientUnits="userSpaceOnUse">
<stop stop-color="#FBC60B"/>
<stop offset="1" stop-color="#FFDE0B"/>
</linearGradient>
<linearGradient id="paint49_linear_317_16619" x1="498.548" y1="110.469" x2="486.362" y2="142.269" gradientUnits="userSpaceOnUse">
<stop stop-color="#FBC60B"/>
<stop offset="1" stop-color="#FFDE0B"/>
</linearGradient>
<linearGradient id="paint50_linear_317_16619" x1="294.344" y1="446.342" x2="275.91" y2="481.058" gradientUnits="userSpaceOnUse">
<stop stop-color="#FBC60B"/>
<stop offset="1" stop-color="#FFDE0B"/>
</linearGradient>
<linearGradient id="paint51_linear_317_16619" x1="363.543" y1="468.959" x2="346.233" y2="502.205" gradientUnits="userSpaceOnUse">
<stop stop-color="#FBC60B"/>
<stop offset="1" stop-color="#FFDE0B"/>
</linearGradient>
<linearGradient id="paint52_linear_317_16619" x1="337.282" y1="86.8865" x2="318.294" y2="118.58" gradientUnits="userSpaceOnUse">
<stop stop-color="#FBC60B"/>
<stop offset="1" stop-color="#FFDE0B"/>
</linearGradient>
<linearGradient id="paint53_linear_317_16619" x1="471.861" y1="452.167" x2="452.926" y2="484.716" gradientUnits="userSpaceOnUse">
<stop stop-color="#FBC60B"/>
<stop offset="1" stop-color="#FFDE0B"/>
</linearGradient>
<linearGradient id="paint54_linear_317_16619" x1="583.52" y1="213.788" x2="569.393" y2="246.405" gradientUnits="userSpaceOnUse">
<stop stop-color="#FBC60B"/>
<stop offset="1" stop-color="#FFDE0B"/>
</linearGradient>
<linearGradient id="paint55_linear_317_16619" x1="520.238" y1="127.839" x2="497.969" y2="160.146" gradientUnits="userSpaceOnUse">
<stop stop-color="#FBC60B"/>
<stop offset="1" stop-color="#FFDE0B"/>
</linearGradient>
<linearGradient id="paint56_linear_317_16619" x1="202.024" y1="354.266" x2="186.081" y2="387.72" gradientUnits="userSpaceOnUse">
<stop stop-color="#FBC60B"/>
<stop offset="1" stop-color="#FFDE0B"/>
</linearGradient>
<linearGradient id="paint57_linear_317_16619" x1="589.448" y1="232.492" x2="586.192" y2="249.427" gradientUnits="userSpaceOnUse">
<stop stop-color="#FBC60B"/>
<stop offset="1" stop-color="#FFDE0B"/>
</linearGradient>
<linearGradient id="paint58_linear_317_16619" x1="252.64" y1="131.205" x2="239.043" y2="159.032" gradientUnits="userSpaceOnUse">
<stop stop-color="#FBC60B"/>
<stop offset="1" stop-color="#FFDE0B"/>
</linearGradient>
<linearGradient id="paint59_linear_317_16619" x1="512.74" y1="121.753" x2="497.566" y2="149.385" gradientUnits="userSpaceOnUse">
<stop stop-color="#FBC60B"/>
<stop offset="1" stop-color="#FFDE0B"/>
</linearGradient>
<linearGradient id="paint60_linear_317_16619" x1="424.6" y1="85.7557" x2="404.957" y2="101.434" gradientUnits="userSpaceOnUse">
<stop stop-color="#FBC60B"/>
<stop offset="1" stop-color="#FFDE0B"/>
</linearGradient>
<linearGradient id="paint61_linear_317_16619" x1="485.981" y1="105.368" x2="468.196" y2="131.05" gradientUnits="userSpaceOnUse">
<stop stop-color="#FBC60B"/>
<stop offset="1" stop-color="#FFDE0B"/>
</linearGradient>
<linearGradient id="paint62_linear_317_16619" x1="186.834" y1="230.702" x2="186.089" y2="234.061" gradientUnits="userSpaceOnUse">
<stop stop-color="#FBC60B"/>
<stop offset="1" stop-color="#FFDE0B"/>
</linearGradient>
<linearGradient id="paint63_linear_317_16619" x1="194.484" y1="230.91" x2="194.25" y2="232.53" gradientUnits="userSpaceOnUse">
<stop stop-color="#FBC60B"/>
<stop offset="1" stop-color="#FFDE0B"/>
</linearGradient>
<linearGradient id="paint64_linear_317_16619" x1="540.02" y1="447.081" x2="539.905" y2="447.601" gradientUnits="userSpaceOnUse">
<stop stop-color="#FBC60B"/>
<stop offset="1" stop-color="#FFDE0B"/>
</linearGradient>
<linearGradient id="paint65_linear_317_16619" x1="282.77" y1="122.137" x2="282.357" y2="122.982" gradientUnits="userSpaceOnUse">
<stop stop-color="#FBC60B"/>
<stop offset="1" stop-color="#FFDE0B"/>
</linearGradient>
<linearGradient id="paint66_linear_317_16619" x1="572.144" y1="192.325" x2="571.487" y2="193.629" gradientUnits="userSpaceOnUse">
<stop stop-color="#FBC60B"/>
<stop offset="1" stop-color="#FFDE0B"/>
</linearGradient>
<linearGradient id="paint67_linear_317_16619" x1="222.113" y1="163.373" x2="221.299" y2="164.51" gradientUnits="userSpaceOnUse">
<stop stop-color="#FBC60B"/>
<stop offset="1" stop-color="#FFDE0B"/>
</linearGradient>
<linearGradient id="paint68_linear_317_16619" x1="480.843" y1="295.636" x2="461.721" y2="375.32" gradientUnits="userSpaceOnUse">
<stop stop-color="#FBC60B"/>
<stop offset="1" stop-color="#FFDE0B"/>
</linearGradient>
<linearGradient id="paint69_linear_317_16619" x1="389.198" y1="156.509" x2="326.873" y2="259.819" gradientUnits="userSpaceOnUse">
<stop stop-color="#FBC60B"/>
<stop offset="1" stop-color="#FFDE0B"/>
</linearGradient>
<linearGradient id="paint70_linear_317_16619" x1="299.518" y1="295.311" x2="250.989" y2="420.06" gradientUnits="userSpaceOnUse">
<stop stop-color="#FBC60B"/>
<stop offset="1" stop-color="#FFDE0B"/>
</linearGradient>
<linearGradient id="paint71_linear_317_16619" x1="480.481" y1="195.255" x2="432.843" y2="320.289" gradientUnits="userSpaceOnUse">
<stop stop-color="#FBC60B"/>
<stop offset="1" stop-color="#FFDE0B"/>
</linearGradient>
<linearGradient id="paint72_linear_317_16619" x1="425.201" y1="383.413" x2="401.619" y2="441.84" gradientUnits="userSpaceOnUse">
<stop stop-color="#FBC60B"/>
<stop offset="1" stop-color="#FFDE0B"/>
</linearGradient>
<linearGradient id="paint73_linear_317_16619" x1="384.346" y1="387.66" x2="358.076" y2="441.031" gradientUnits="userSpaceOnUse">
<stop stop-color="#FBC60B"/>
<stop offset="1" stop-color="#FFDE0B"/>
</linearGradient>
<linearGradient id="paint74_linear_317_16619" x1="351.54" y1="382.894" x2="323.27" y2="435.795" gradientUnits="userSpaceOnUse">
<stop stop-color="#FBC60B"/>
<stop offset="1" stop-color="#FFDE0B"/>
</linearGradient>
<linearGradient id="paint75_linear_317_16619" x1="374.395" y1="355.067" x2="351.447" y2="395.094" gradientUnits="userSpaceOnUse">
<stop stop-color="#FBC60B"/>
<stop offset="1" stop-color="#FFDE0B"/>
</linearGradient>
<linearGradient id="paint76_linear_317_16619" x1="401.242" y1="353.646" x2="377.16" y2="395.015" gradientUnits="userSpaceOnUse">
<stop stop-color="#FBC60B"/>
<stop offset="1" stop-color="#FFDE0B"/>
</linearGradient>
<linearGradient id="paint77_linear_317_16619" x1="295.312" y1="188.007" x2="238.433" y2="326.202" gradientUnits="userSpaceOnUse">
<stop stop-color="#FBC60B"/>
<stop offset="1" stop-color="#FFDE0B"/>
</linearGradient>
</defs>
</svg>
