<svg width="806" height="749" viewBox="0 0 806 749" fill="none" xmlns="http://www.w3.org/2000/svg">
<g opacity="0.5" filter="url(#filter0_d_1091_35822)">
<path d="M203.204 203.549C205.866 203.464 205.103 204.415 203.932 205.489C202.198 207.035 200.464 208.581 198.816 210.189C189.903 218.8 183.833 228.964 178.093 239.383C171.277 251.843 164.618 264.373 156.501 276.23C151.238 283.921 145.533 291.295 137.581 297.038C135.023 298.885 133.974 300.323 135.318 303.856C137.971 310.812 137.642 318.287 137.174 325.63C136.02 343.895 131.581 361.727 128.416 379.737C124.947 399.54 126.205 418.693 139.038 436.077C142.397 440.739 146.637 444.847 151.568 448.22C153.206 449.318 153.562 450.385 153.007 452.131C147.744 468.696 151.516 484.124 160.672 498.818C168.58 511.502 180.356 521.234 191.888 531.135C203.161 540.882 214.485 550.621 224.075 561.798C228.819 567.325 233.102 573.099 235.981 579.615C236.484 580.759 236.848 581.686 238.582 581.733C254.442 582.181 268.524 587.916 282.397 593.93C296.271 599.944 309.711 606.699 323.559 612.728C340.901 620.28 359.024 624.191 378.439 620.806C386.255 619.487 393.698 616.794 400.333 612.883C401.686 612.11 402.666 611.422 404.469 612.481C425.393 624.848 447.617 624.477 470.37 617.42C485.111 612.836 498.377 605.37 512.26 599.117C526.298 592.794 540.371 586.548 555.823 583.371C560.159 582.483 565.552 583.232 568.726 581.145C571.735 579.167 572.194 574.359 574.501 571.058C582.964 558.791 594.158 548.643 605.465 538.494C615.429 529.574 626.276 521.435 635.259 511.649C647.954 497.798 655.845 482.323 654.995 464.004C654.882 461.685 654.995 459.212 654.006 457.156C651.7 452.216 653.668 449.364 657.934 445.909C672.883 433.782 678.65 417.92 679.413 400.305C680.02 386.299 676.352 372.749 673.829 359.083C671.14 344.498 668.53 329.912 669.129 315.025C669.337 309.869 670.785 304.891 671.531 299.813L672.71 298.754C674.444 299.218 674.288 300.192 673.872 301.475C669.536 315.04 670.967 328.745 673.091 342.38C675.346 356.873 678.658 371.242 680.653 385.75C683.089 403.443 681.13 420.649 670.325 436.309C666.77 441.466 662.308 446.08 657.111 449.975C655.689 451.049 654.778 451.985 655.255 453.84C661.099 476.526 652.784 495.827 637.124 513.288C628.904 522.455 618.862 530.061 609.532 538.285C597.228 549.106 584.924 559.99 575.888 573.346C575.27 574.059 574.789 574.858 574.466 575.711C572.914 582.931 567.772 584.77 559.942 585.52C546.658 586.796 534.545 592.098 522.656 597.393C508.991 603.468 495.611 610.077 481.833 615.944C462.453 624.207 442.241 627.708 420.944 622.483C415.246 621.066 409.807 618.92 404.799 616.114C403.437 615.341 402.405 614.668 400.585 615.665C380.433 626.672 359.137 626.773 337.285 620.666C322.44 616.523 309.312 609.157 295.664 602.889C282.016 596.62 268.194 590.359 253.28 586.525C247.99 585.165 242.632 584.206 237.091 584.477C235.565 584.562 234.828 584.268 234.264 582.877C228.654 569.095 217.867 558.498 206.751 548.217C195.105 537.597 182.888 527.564 171.589 516.766C158.73 504.476 150.137 490.107 148.177 473.048C147.418 466.644 147.928 460.171 149.686 453.925C150.258 451.923 149.981 450.771 148.151 449.357C133.159 437.801 126.239 422.682 124.392 405.414C122.814 390.651 126.317 376.266 129.205 361.858C132.092 347.45 134.685 333.259 134.65 318.658C134.65 312.992 134.052 307.349 131.841 301.977C131.234 300.509 130.913 299.233 132.517 298.221C142.645 291.805 149.252 282.762 155.487 273.486C164.574 259.959 171.693 245.451 179.801 231.422C185.879 221.003 192.981 211.225 203.204 203.549Z" fill="url(#paint0_linear_1091_35822)" fill-opacity="0.28"/>
<path d="M463.311 140.152C462.661 141.613 461.343 141.899 459.799 141.698C442.136 139.201 424.404 136.72 408.466 128.944C404.452 126.988 401.989 126.834 397.948 128.99C385.809 135.498 371.935 137.725 358.183 140.121C340.511 143.213 322.44 144.109 304.899 147.85C300.988 148.685 297.155 149.783 293.288 150.757L291.675 149.558C303.138 144.99 315.486 143.908 327.695 142.331C347.37 139.788 367.157 137.732 386.034 131.742C391.341 130.057 396.44 128.016 400.879 124.785C401.989 124.012 402.787 123.626 404.209 124.499C418.013 133.002 434.072 135.645 450.079 138.412C454.449 139.139 458.898 139.572 463.311 140.152Z" fill="url(#paint1_linear_1091_35822)" fill-opacity="0.28"/>
<path d="M611.709 214.965C603.272 206.208 593.907 198.532 581.785 193.918C574.952 191.32 567.911 189.558 560.454 189.411C557.991 189.365 557.055 188.584 556.17 186.629C547.005 166.493 529.437 155.146 506.623 149.225C494.337 146.033 481.703 144.742 469.147 142.941C468.28 142.81 466.233 143.714 466.407 141.581C473.517 140.808 480.359 142.593 487.27 143.506C493.727 144.424 500.115 145.694 506.398 147.308C529.42 152.936 547.152 164.228 557.167 183.946C558.485 186.544 559.951 187.448 563.038 187.749C584.013 189.775 600.159 199.236 612.784 213.937L611.709 214.965Z" fill="url(#paint2_linear_1091_35822)" fill-opacity="0.28"/>
<path d="M611.709 214.967L612.819 213.938C621.412 222.897 626.797 233.533 632.476 244.006C641.147 260.022 649.966 275.976 662.21 290.167L661.152 291.188C652.186 282.044 645.83 271.415 639.621 260.733C634.731 252.339 630.23 243.79 625.548 235.287C621.603 228.17 616.973 221.371 611.709 214.967Z" fill="url(#paint3_linear_1091_35822)" fill-opacity="0.28"/>
<path d="M291.675 149.536L293.288 150.734C281.547 155 270.743 160.55 262.193 169.099C257.091 174.188 253.045 180.046 250.245 186.398C249.707 187.596 249.577 188.91 247.539 188.817C242.892 188.601 238.417 189.814 233.839 190.27L232.59 189.173C236.345 187.72 240.394 187.426 244.348 187.233C246.585 187.124 247.47 186.46 248.328 184.643C256.8 167.113 271.94 156.052 291.675 149.536Z" fill="url(#paint4_linear_1091_35822)" fill-opacity="0.28"/>
<path d="M232.591 189.172L233.839 190.27C224.11 193.23 214.927 197.087 207.063 203.14C205.979 203.967 204.513 204.879 204.461 202.367C212.699 196.005 221.752 191.082 232.591 189.172Z" fill="url(#paint5_linear_1091_35822)" fill-opacity="0.28"/>
<path d="M661.151 291.187L662.209 290.167L672.615 298.785L671.435 299.844C667.37 297.626 663.868 294.678 661.151 291.187Z" fill="url(#paint6_linear_1091_35822)" fill-opacity="0.28"/>
<path d="M443.584 615.58C427.586 615.503 415.837 612.442 405.648 605.138C404.261 604.148 402.977 602.749 400.628 604.419C382.6 617.235 362.475 617.42 341.491 611.932C328.007 608.4 316.145 601.799 303.797 596.102C287.097 588.372 270.596 579.963 251.935 576.778C244.131 575.456 240.386 572.241 236.631 566.475C227.136 551.889 213.219 540.519 199.813 528.808C189.226 519.533 178.023 510.768 169.872 499.521C162.068 488.7 157.49 477.067 158.201 464.012C158.441 459.411 159.51 454.876 161.366 450.578C162.389 448.205 162.146 446.759 159.632 445.229C143.304 435.482 136.679 421.028 134.763 404.17C133.254 390.944 136.228 378.191 138.769 365.359C142.367 347.195 146.443 328.961 144.05 310.48C143.182 303.848 145.532 300.114 150.067 295.6C161.782 283.921 169.413 269.861 177.217 255.963C185.133 241.872 191.827 227.155 203.863 215.19C213.531 205.59 224.89 198.533 239.414 196.082C243.585 195.371 247.756 195.82 251.927 195.688C253.566 195.634 254.78 195.688 255.395 193.733C262.401 171.696 280.862 160.874 303.953 154.807C315.226 151.831 327.045 150.942 338.638 149.396C360.16 146.466 381.95 144.434 401.512 134.841C403.134 134.068 404.174 134.486 405.431 135.089C419.713 141.867 435.329 144.588 451.024 147.085C470.101 150.123 489.628 150.718 508.071 156.414C525.474 161.825 540.657 170.243 547.69 186.196C550.699 193.022 553.638 195.781 562.5 196.307C584.386 197.59 599.083 209.941 610.677 225.439C618.845 236.346 624.351 248.551 630.967 260.222C637.8 272.257 644.728 284.238 654.44 294.711C654.622 294.912 654.743 295.183 654.969 295.314C663.57 300.223 663.267 307.535 661.697 315.172C660.327 321.85 661.697 328.505 662.382 335.091C664.212 352.644 669.276 369.812 671.227 387.335C672.961 402.531 671.496 417.58 662.218 431.161C658.178 437.13 652.658 442.193 646.081 445.963C644.147 447.076 643.237 448.243 644.069 450.385C651.83 470.481 645.604 488.136 632.06 504.43C624.203 513.875 614.318 521.628 604.902 529.775C592.172 540.782 578.767 551.417 569.896 565.277C565.283 572.48 560.029 576.098 550.82 577.822C531.839 581.385 515.164 590.367 498.117 598.297C485.405 604.21 472.971 610.664 458.724 613.447C452.758 614.637 446.723 615.673 443.584 615.58ZM440.419 609.397C446.368 609.551 452.117 608.5 457.866 607.302C471.349 604.481 483.133 598.251 495.221 592.616C513.057 584.345 530.634 575.441 550.404 571.336C556.473 570.077 560.081 567.742 563.22 562.958C572.472 548.82 585.938 537.782 598.849 526.381C607.858 518.428 617.535 511.015 625.339 502.049C638.65 486.752 645.17 470.056 636.941 450.879C635.207 446.844 635.762 444.425 640.184 442.013C657.7 432.46 664.065 417.526 664.706 400.027C665.417 380.788 658.775 362.391 656.547 343.485C655.324 333.058 653.573 322.677 654.917 312.095C655.255 309.452 656.989 306.275 654.188 303.724C644.494 294.905 637.505 284.4 630.941 273.703C622.695 260.207 616.2 245.876 607.477 232.62C599.829 221.026 590.057 211.271 575.931 205.567C567.841 202.282 559.344 201.555 550.672 201.98C547.482 202.135 546.068 201.207 545.279 198.463C544.312 194.864 542.965 191.355 541.256 187.982C533.642 173.759 519.864 166.339 503.753 161.701C486.454 156.762 468.245 156.059 450.513 153.276C435.243 150.88 420.051 148.252 405.943 142.223C405.147 141.82 404.245 141.614 403.33 141.628C402.415 141.642 401.521 141.874 400.74 142.3C394.564 144.998 388.09 147.114 381.421 148.615C360.212 153.802 338.248 155.116 316.717 158.664C289.967 163.054 268.159 173.079 260.78 198.919C260.112 201.238 258.76 201.818 256.219 201.795C250.904 201.748 245.554 201.369 240.273 202.305C224.136 205.172 212.785 214.208 203.516 225.594C193.666 237.698 187.605 251.673 179.965 264.86C172.04 278.572 163.82 292.091 151.749 303.376C151.311 303.7 150.973 304.119 150.77 304.593C150.566 305.067 150.503 305.58 150.588 306.082C151.705 313.048 151.995 320.1 151.455 327.121C150.692 340.316 148.142 353.263 145.68 366.233C143.434 378.051 140.59 389.762 141.544 401.928C142.87 418.778 149.772 432.715 166.343 441.921C169.959 443.938 170.826 446.017 169.092 449.704C161.756 465.403 164.869 480.221 174.485 494.366C182.671 506.408 194.541 515.514 205.614 525.237C220.416 538.231 235.452 551.031 245.501 567.549C245.869 568.163 246.402 568.685 247.053 569.069C247.704 569.452 248.453 569.684 249.23 569.744C262.8 571.87 275.391 576.523 287.626 581.903C303.078 588.697 318.252 596.009 333.739 602.718C344.122 607.222 355.561 609.451 367.105 609.219C379.141 609.01 389.797 604.875 398.937 597.934C401.746 595.793 403.697 595.777 406.524 597.934C416.218 605.377 427.404 609.621 440.419 609.397Z" fill="url(#paint7_linear_1091_35822)" fill-opacity="0.28"/>
<path d="M566.628 293.97C566.992 303.044 570.339 310.975 573.564 318.944C577.258 328.096 582.236 336.853 583.701 346.685C584.967 355.35 583.805 363.59 578.94 371.273C578.073 372.618 577.206 373.7 578.299 375.455C585.357 386.848 584.585 398.643 580.12 410.516C576.504 420.116 571.449 429.252 568.284 439.007C566.549 444.418 564.815 449.89 565.57 455.641C565.645 455.883 565.665 456.135 565.629 456.384C565.592 456.633 565.5 456.872 565.358 457.089C565.216 457.305 565.026 457.494 564.8 457.643C564.574 457.793 564.317 457.901 564.044 457.96C557.532 460.279 552.953 464.754 548.297 469.152C539.868 477.114 533.4 486.528 524.815 494.366C515.806 502.598 505.236 507.831 491.952 507.73C490.599 507.73 489.463 507.87 488.718 509.137C480.125 523.684 465.306 528.747 448.154 530.54C438.396 531.438 428.722 532.946 419.201 535.054C413.296 536.438 407.677 538.339 402.726 541.555C397.806 538.661 392.383 536.511 386.676 535.193C375.187 532.573 363.359 531.769 351.731 529.953C336.609 527.588 323.698 522.069 315.972 509.462C315.725 509.009 315.323 508.637 314.825 508.4C314.327 508.162 313.757 508.071 313.197 508.14C297.702 508.086 286.074 501.238 276.371 491.22C268.463 483.05 261.552 474.13 252.829 466.563C248.762 463.03 242.146 461.152 239.822 457.55C237.498 453.948 239.068 447.95 237.55 443.127C234.481 433.341 229.746 424.104 225.558 414.69C221.032 404.556 219.055 394.245 222.315 383.447C223.486 379.582 227.457 376.274 227.327 372.626C227.197 369.093 224.119 365.599 223.304 361.804C221.344 352.691 223.052 343.926 226.451 335.307C230.509 325.035 235.53 315.056 238.166 304.351C239.258 299.929 237.871 294.72 239.787 291.21C241.565 287.972 247.591 286.573 251.121 283.419C259.02 276.393 265.489 268.346 272.157 260.431C278.027 253.475 284.6 247.237 293.41 243.187C299.155 240.442 305.586 239.035 312.104 239.098C313.839 239.098 315.408 239.237 316.527 237.505C324.955 224.543 338.725 219.457 354.428 217.27C365.701 215.724 377.042 214.796 388.046 211.998C392.642 210.831 397.116 209.432 401.053 206.974C401.92 206.41 402.683 205.621 404.018 206.525C413.669 213.026 425.366 213.83 436.665 215.639C445.587 217.069 454.718 217.501 463.398 220.137C473.691 223.229 482.266 228.369 488.015 236.779C488.822 237.962 489.559 238.642 491.371 238.541C506.112 237.668 517.592 243.488 527.243 252.702C535.914 260.972 542.591 270.727 551.349 278.982C555.424 282.847 559.587 286.65 565.075 288.83C568.7 290.221 566.029 292.602 566.628 293.97ZM506.008 376.738V375.965H442.423C440.289 375.965 438.217 375.54 437.896 378.577C437.029 386.956 432.338 393.611 425.002 398.744C423.112 400.066 422.895 400.97 424.092 402.779C445.729 435.686 467.312 468.614 488.839 501.562C489.2 502.245 489.793 502.809 490.534 503.174C491.275 503.539 492.126 503.686 492.966 503.595C500.943 503.337 508.666 501.031 515.208 496.955C521.399 493.207 525.882 487.989 530.382 482.803C536.825 475.375 543.302 467.977 550.967 461.492C553.907 459.003 558.537 457.72 560.315 454.945C562.188 452.016 561.303 447.726 562.24 444.07C565.171 432.615 570.72 422.01 575.472 411.15C580.224 400.29 579.894 389.901 574.475 379.404C573.382 377.294 572.056 376.684 569.567 376.691C548.375 376.807 527.209 376.738 506.008 376.738ZM402.596 211.264C401.963 211.55 401.313 211.82 400.688 212.137C394.679 215.105 388.141 216.775 381.473 217.818C371.978 219.364 362.397 220.531 352.859 221.923C339.713 223.847 329.074 229.389 321.4 239.26C320.091 240.953 319.943 242.306 321.148 244.153C342.537 277.034 363.874 309.952 385.159 342.906C386.459 344.915 387.491 345.108 389.824 344.227C393.741 342.707 397.961 341.904 402.233 341.867C406.506 341.83 410.743 342.559 414.692 344.011C417.831 345.132 418.967 344.614 420.554 342.163C440.394 311.441 460.311 280.76 480.307 250.12C485.986 241.393 485.882 240.497 477.835 233.115L477.532 232.845C469.034 224.922 458.005 222.51 446.316 221.049C431.8 219.241 416.973 218.383 403.732 211.828C403.411 211.627 403.03 211.465 402.596 211.264ZM298.708 376.545V375.965C277.515 375.965 256.323 376.034 235.14 375.895C231.871 375.895 230.301 376.854 229.07 379.466C224.231 389.855 224.405 400.12 228.975 410.547C233.674 421.283 239.076 431.788 242.415 443.011C243.681 447.27 242.415 452.418 244.834 455.68C247.366 459.127 252.751 461.013 256.315 464.221C265.159 472.19 272.417 481.349 280.368 489.983C286.308 496.438 293.635 500.967 302.731 503.124C313.24 505.613 314.385 505.187 319.796 496.94L320.455 495.951C340.364 465.429 360.298 434.91 380.259 404.394C381.785 402.075 382.176 400.761 379.28 398.852C372.239 394.214 368.328 387.629 367.14 379.984C366.689 377.186 365.857 376.452 362.726 376.475C341.378 376.606 320.047 376.545 298.708 376.545ZM504.959 372.1V372.286C525.865 372.286 546.771 372.286 567.677 372.34C570.278 372.34 571.796 371.721 573.174 369.657C580.241 359.138 580.397 348.332 575.541 337.139C570.686 325.947 564.07 315.056 562.197 303.129C561.017 295.616 557.861 290.762 551.184 286.209C542.357 280.118 536.244 271.616 529.316 263.886C524.555 258.576 519.908 253.135 513.595 249.123C507.673 245.351 501.143 243.341 493.756 243.712C491.354 243.844 489.94 244.764 488.709 246.65C467.355 279.387 445.926 312.085 424.421 344.745C423.103 346.755 422.93 347.837 425.288 349.383C428.836 351.724 431.791 354.703 433.963 358.128C436.135 361.553 437.475 365.347 437.896 369.263C438.234 372.077 439.899 372.092 442.232 372.085C463.146 372.043 484.055 372.049 504.959 372.1ZM485.587 506.455C485.162 505.682 484.833 504.971 484.408 504.322C462.84 471.239 441.281 438.152 419.73 405.059C418.681 403.451 417.875 402.972 415.742 403.791C411.642 405.416 407.21 406.266 402.724 406.289C398.238 406.312 393.796 405.506 389.676 403.923C387.24 403.018 386.26 403.428 385.02 405.383C363.984 438.584 342.884 471.749 321.721 504.878C320.403 506.942 320.776 508.302 322.232 510.034C329.141 518.44 339.434 524.133 350.951 525.918C363.819 528.121 376.964 528.77 389.65 532.055C393.916 533.161 411.328 533.176 415.559 532.102C426.702 529.265 438.191 528.237 449.585 526.691C463.459 524.875 475.095 519.649 483.524 509.4C484.278 508.488 484.894 507.483 485.587 506.455ZM299.557 370.856V371.814C320.758 371.814 341.968 371.814 363.169 371.868C365.77 371.868 366.706 371.451 367.088 368.861C367.59 365.017 368.971 361.305 371.145 357.954C373.319 354.604 376.241 351.687 379.73 349.383C382.011 347.837 381.994 346.763 380.676 344.745C359.287 312.013 337.927 279.248 316.596 246.449C315.451 244.686 314.29 243.96 311.836 244.13C301.513 244.725 291.765 248.578 284.34 254.997C279.137 259.341 275.166 264.574 270.769 269.498C264.578 276.455 258.673 283.751 250.462 288.868C245.935 291.69 243.204 294.495 243.655 299.566C243.811 301.282 242.935 303.075 242.475 304.822C239.51 315.999 233.848 326.302 229.469 337.031C225.09 347.76 225.133 358.14 231.29 368.336C232.339 370.09 233.501 370.933 235.937 370.925C257.164 370.817 278.348 370.856 299.557 370.856ZM372.065 374.148C372.065 389.105 385.982 401.519 402.579 401.387C408.634 401.401 414.558 399.813 419.599 396.823C424.641 393.834 428.574 389.578 430.901 384.594C433.227 379.611 433.842 374.124 432.668 368.829C431.493 363.534 428.582 358.668 424.304 354.849C420.025 351.029 414.571 348.427 408.632 347.373C402.694 346.319 396.538 346.859 390.944 348.926C385.35 350.992 380.57 354.492 377.209 358.982C373.849 363.472 372.058 368.751 372.065 374.148Z" fill="url(#paint8_linear_1091_35822)" fill-opacity="0.28"/>
<path d="M290.921 210.05C290.921 205.412 289.43 202.235 288.432 198.997C287.713 196.678 288.788 195.858 290.687 194.776C292.725 193.617 293.704 194.405 294.97 195.665C297.641 198.309 300.451 200.852 304.084 204.268C303.65 199.971 302.246 196.987 301.075 194.019C299.904 191.051 300.208 189.064 304.379 188.446C306.416 194.915 308.445 201.447 310.544 207.963C311.151 209.841 309.729 210.351 308.393 211.171C306.789 212.152 305.792 211.611 304.725 210.568C302.055 208.04 299.332 205.574 296.609 203.101C295.846 202.413 295.3 201.3 293.765 201.772C294.892 205.636 295.898 209.555 297.234 213.366C297.936 215.422 297.58 216.543 295.378 217.725C293.176 218.908 292.334 217.671 291.181 216.55C286.898 212.392 282.579 208.264 278.339 204.075C277.628 203.372 275.738 202.529 277.706 201.393C278.998 200.62 280.386 199.321 282.111 201.184C284.669 203.99 287.47 206.618 290.921 210.05ZM291.103 210.05C291.199 209.957 291.372 209.864 291.381 209.772C291.389 209.679 291.216 209.571 291.121 209.478L290.808 209.888L291.103 210.05Z" fill="url(#paint9_linear_1091_35822)" fill-opacity="0.28"/>
<path d="M191.568 321.394C194.854 322.306 198.123 323.296 201.444 324.115C203.178 324.54 203.785 325.205 203.256 326.836C202.684 328.598 201.609 328.567 200.013 328.096C194.143 326.357 188.247 324.695 182.376 322.971C180.997 322.569 178.708 322.507 179.87 320.397C180.798 318.728 179.775 315.613 183.746 315.868C187.978 316.138 192.218 316.223 197.317 316.424C193.709 313.332 190.067 311.609 186.564 309.815C182.688 307.829 185.385 305.641 185.923 303.632C186.66 300.903 188.741 302.782 190.041 303.122C195.695 304.606 201.314 306.306 206.898 307.883C208.52 308.339 209.855 308.71 209.109 310.751C208.364 312.791 207.106 312.459 205.502 311.902C202.086 310.712 198.504 310.217 193.735 309.491C197.681 311.663 200.603 313.216 203.456 314.901C205.008 315.798 207.132 316.13 206.196 318.851C205.259 321.572 203.152 320.467 201.392 320.621C200.818 320.604 200.251 320.507 199.71 320.335C198.765 319.508 197.707 319.763 196.649 320.103L192.253 319.918C190.865 319.616 189.46 319.238 188.004 320.111C188.426 320.578 188.975 320.94 189.599 321.165C190.223 321.389 190.9 321.468 191.568 321.394Z" fill="url(#paint10_linear_1091_35822)" fill-opacity="0.28"/>
<path d="M561.563 539.058C557.748 537.512 554.809 533.238 551.08 533.647C547.655 533.995 544.655 537.589 541.022 540.055C541.022 536.747 542.366 534.126 543.311 531.475C544.074 529.303 543.666 527.904 541.334 526.722C538.732 525.408 536.452 523.73 532.914 521.512C537.475 521.334 540.718 521.064 543.909 521.133C546.068 521.187 546.935 520.445 547.421 518.667C548.236 515.722 549.32 512.832 550.568 509.06C551.973 512.638 553.17 515.297 554.037 518.049C554.687 520.151 555.866 520.878 558.312 520.7C561.286 520.476 564.286 520.646 567.807 520.646C565.752 523.375 562.821 524.743 560.341 526.467C558.607 527.688 558.268 528.708 558.945 530.656C559.916 533.454 562.231 535.982 561.503 539.158L561.563 539.058Z" fill="url(#paint11_linear_1091_35822)" fill-opacity="0.28"/>
<path d="M273.796 540.086C269.694 537.667 266.668 534.675 263.174 534.142C259.462 533.593 257.104 537.829 253.792 539.437C253.278 539.599 252.74 539.69 252.196 539.707C252.101 539.359 251.945 539.135 252.014 538.988C256.185 529.659 256.185 529.659 247.453 524.039C246.785 523.607 246.187 523.096 244.748 522.022C248.676 521.836 251.684 521.527 254.745 521.612C257.225 521.682 258.327 520.955 258.821 518.737C259.462 515.877 260.624 513.11 261.656 510.01C263.616 512.723 264.353 515.63 265.298 518.381C266.078 520.654 267.301 521.473 269.902 521.249C272.877 521.04 275.877 521.203 279.631 521.203C276.805 523.251 274.429 525.176 271.827 526.814C269.807 528.082 269.452 529.38 270.388 531.382C271.593 533.949 272.46 536.639 273.796 540.086Z" fill="url(#paint12_linear_1091_35822)" fill-opacity="0.28"/>
<path d="M608.041 436.085C612.021 437.198 615.698 438.327 619.435 439.231C621.282 439.679 621.69 440.406 621.169 441.99C620.649 443.575 619.591 443.714 617.978 443.258C612.212 441.627 606.385 440.166 600.636 438.458C599.396 438.095 596.951 438.535 597.436 436.24C597.775 434.624 598.304 433.07 600.662 432.63C604.183 431.973 607.599 431.084 611.119 430.203C612.307 429.917 613.721 429.955 614.753 428.595C611.354 427.637 608.076 426.755 604.833 425.789C603.272 425.318 600.879 425.666 601.945 422.767C602.908 420.154 604.547 421.43 605.96 421.801C611.643 423.269 617.296 424.815 622.921 426.439C624.143 426.779 626.155 426.624 625.652 428.634C625.279 430.102 624.95 431.54 622.704 431.95C618.897 432.638 615.16 433.635 611.432 434.555C610.339 434.779 609.056 434.663 608.041 436.085Z" fill="url(#paint13_linear_1091_35822)" fill-opacity="0.28"/>
<path d="M618.715 336.482C615.247 337.023 611.874 337.549 608.535 338.028C606.801 338.283 604.928 339.188 604.339 336.482C603.749 333.777 606.073 334.241 607.477 333.993C613.122 333.012 618.802 332.146 624.49 331.365C625.713 331.195 627.456 329.897 628.219 331.744C628.904 333.406 629.138 335.13 627.083 336.575C624.031 338.708 621.213 341.112 618.325 343.439C617.735 343.918 616.79 344.212 616.886 345.487C620.718 345.719 624.334 344.49 628.054 344.08C629.554 343.918 630.707 343.547 631.106 345.549C631.505 347.551 630.586 347.976 628.73 348.254C622.773 349.128 616.834 350.14 610.868 351.014C609.654 351.192 607.998 352.328 607.261 350.349C606.662 348.749 606.229 347.257 608.128 345.866C610.825 343.949 613.33 341.854 615.88 339.736C616.894 338.863 618.394 338.361 618.715 336.482Z" fill="url(#paint14_linear_1091_35822)" fill-opacity="0.28"/>
<path d="M571.622 496.09C574.648 498.185 577.613 500.341 580.709 502.343C582.244 503.34 582.27 504.137 581.203 505.435C579.963 506.981 579.001 506.486 577.735 505.582C572.853 502.181 567.893 498.88 563.046 495.441C562.179 494.83 560.245 494.42 561.199 492.898C562.066 491.514 562.933 489.968 565.404 490.254C570.191 490.803 575.012 491.112 580.709 491.599C577.674 488.43 574.483 486.753 571.596 484.766C570.122 483.754 569.523 482.973 570.911 481.381C572.298 479.788 573.148 480.507 574.379 481.342C579.157 484.658 583.995 487.889 588.738 491.236C589.718 491.932 591.808 492.295 590.854 494.034C590.039 495.541 588.947 496.778 586.519 496.484C581.698 495.889 576.842 495.557 572.003 495.116C571.864 495.456 571.743 495.773 571.622 496.09Z" fill="url(#paint15_linear_1091_35822)" fill-opacity="0.28"/>
<path d="M185.905 389.36C187.606 387.247 189.757 385.453 192.235 384.081C193.31 383.486 194.507 381.399 195.591 382.72C196.675 384.042 197.247 386.322 194.992 387.884C193.059 389.213 191.195 390.635 189.313 392.034C187.804 393.155 186.512 394.546 187.223 396.324C188.09 398.473 190.215 396.765 191.689 397.136C193.718 397.638 197.126 394.879 197.628 399.138C197.811 400.606 197.394 401.217 195.686 401.348C189.085 401.838 182.495 402.382 175.916 402.979C174.008 403.157 173.315 402.462 173.193 400.892C172.985 398.079 172.699 395.265 172.5 392.452C172.257 389.167 172.76 386.191 176.965 385.07C181.171 383.949 183.833 385.619 185.905 389.36ZM176.558 393.743C177.355 395.474 175.517 399.037 180.702 398.249C185.394 397.53 182.697 394.863 182.714 393.039C182.714 391.068 182.107 388.989 179.107 389.368C176.462 389.677 176.471 391.648 176.558 393.743Z" fill="url(#paint16_linear_1091_35822)" fill-opacity="0.28"/>
<path d="M595.208 280.953C591.861 282.406 588.496 283.828 585.193 285.343C583.857 285.954 582.947 286.224 582.123 284.679C581.395 283.295 581.195 282.46 582.99 281.641C588.392 279.229 593.673 276.609 599.084 274.205C600.28 273.679 601.564 271.886 603.124 273.486C604.685 275.086 604.937 276.663 603.411 278.665C600.809 282.043 598.667 285.683 595.953 289.78C600.384 289.061 603.411 286.82 606.827 285.413C608.266 284.818 609.428 283.867 610.582 285.931C611.613 287.77 610.738 288.381 609.116 289.115C603.723 291.55 598.416 294.132 592.997 296.513C591.965 296.961 590.725 298.723 589.363 296.945C588.357 295.616 587.265 294.317 588.626 292.439C591.228 288.883 593.439 285.15 595.815 281.494C595.875 281.2 595.936 280.907 596.005 280.613L595.208 280.953Z" fill="url(#paint17_linear_1091_35822)" fill-opacity="0.28"/>
<path d="M475.919 564.89C479.563 566.62 482.836 568.909 485.588 571.653C482.405 573.787 479.735 573.385 477.081 571.074C475.483 569.776 473.74 568.629 471.878 567.649C471.263 567.295 470.538 567.121 469.806 567.152C469.074 567.182 468.371 567.416 467.794 567.819C466.598 568.647 467.69 569.682 467.976 570.602C468.273 571.854 468.694 573.08 469.234 574.266C470.205 576.051 469.442 576.716 467.56 577.273C465.679 577.829 465.063 577.389 464.517 575.781C462.644 570.272 460.658 564.792 458.56 559.34C457.892 557.601 458.274 556.805 460.294 556.318C463.207 555.607 466.043 554.656 468.965 553.883C472.433 552.94 475.841 552.662 478.208 555.862C480.298 558.776 479.717 561.195 475.919 564.89ZM474.315 560.438C474.159 558.505 473.327 557.075 471.488 557.385C468.887 557.825 465.419 557.485 464.274 560.19C463.918 561.033 464.127 564.473 466.763 564.055C469.572 563.661 473.188 563.452 474.315 560.438Z" fill="url(#paint18_linear_1091_35822)" fill-opacity="0.28"/>
<path d="M626.979 373.6C625.6 371.536 624.993 369.735 627.655 367.942C629.389 366.759 629.251 364.742 628.713 362.925C628.431 361.781 627.74 360.75 626.744 359.986C625.748 359.223 624.5 358.767 623.19 358.689C619.53 358.303 615.828 358.45 613.461 361.495C611.726 363.69 612.065 366.133 613.417 368.452C614.068 369.58 614.883 370.353 616.435 370.067C618.117 369.758 617.692 368.583 617.64 367.609C617.571 366.349 617.024 365.066 619.374 364.865C622.088 364.641 621.421 366.411 621.733 367.602C621.746 367.73 621.746 367.86 621.733 367.988C622.314 374.218 619.999 376.058 613.062 374.69C612.534 374.566 612.047 374.333 611.64 374.009C607.642 370.918 606.879 362.214 610.226 358.241C613.894 353.882 622.452 352.583 627.881 355.574C632.84 358.311 634.818 365.089 632.086 369.92C631.607 370.841 630.898 371.652 630.012 372.29C629.127 372.927 628.089 373.376 626.979 373.6Z" fill="url(#paint19_linear_1091_35822)" fill-opacity="0.28"/>
<path d="M589.103 455.819C589.285 450.887 591.167 446.644 596.317 444.348C601.217 442.168 605.96 443.475 610.122 446.203C617.059 450.733 616.036 461.183 608.466 464.321C606.809 465.001 604.347 465.983 603.445 464.383C602.543 462.783 603.445 460.766 606.324 460.24C608.856 459.776 609.879 457.813 610.278 455.649C610.755 453.036 609.463 451.096 607.087 449.805C604.087 448.166 600.887 446.845 597.349 448.592C594.67 449.913 593.881 452.186 593.699 454.775C593.599 455.352 593.741 455.941 594.098 456.43C594.455 456.919 595.001 457.274 595.632 457.426C597.445 457.968 597.28 456.437 597.896 455.749C598.641 454.914 598.338 453.036 600.714 453.925C602.942 454.752 602.526 455.881 601.676 457.264C601.546 457.488 601.477 457.743 601.364 457.983C598.572 463.718 596.508 464.167 590.577 460.395C588.574 459.119 589.476 457.38 589.103 455.819Z" fill="url(#paint20_linear_1091_35822)" fill-opacity="0.28"/>
<path d="M427.257 185.122C427.716 180.608 428.072 177.115 428.445 173.621C428.601 172.214 428.523 170.769 431.003 170.939C433.318 171.101 433.344 172.175 433.144 173.799C432.511 179.024 432.121 184.272 431.41 189.49C431.254 190.657 432.112 192.651 429.598 192.79C427.491 192.914 425.843 192.38 424.837 190.34C422.89 186.382 420.536 182.594 417.805 179.024C417.395 182.44 416.99 185.859 416.591 189.281C416.444 190.579 416.47 191.739 414.207 191.6C411.943 191.461 411.779 190.425 411.969 188.817C412.585 183.461 413.088 178.096 413.704 172.74C413.834 171.572 413.331 169.857 415.438 169.779C417.276 169.717 418.967 169.918 419.947 171.928C422.037 176.087 424.465 180.106 427.257 185.122Z" fill="url(#paint21_linear_1091_35822)" fill-opacity="0.28"/>
<path d="M350.613 579.978C345.272 579.816 340.607 578.502 338.318 573.988C336.029 569.474 336.896 564.867 340.303 560.91C345.151 555.29 357.125 556.411 360.022 562.703C360.481 563.7 361.947 565.277 359.796 565.88C358.426 566.258 356.423 566.653 355.461 564.558C353.796 560.956 350.388 560.562 346.789 561.644C343.364 562.672 341.171 568.484 342.636 572.079C344.006 575.426 347.041 576.237 350.665 575.874C352.113 575.735 353.622 575.487 353.778 573.779C353.943 571.94 352.148 572.365 351.073 571.994C349.998 571.623 348.472 571.63 349.027 569.791C349.538 568.083 350.527 567.827 352.148 568.338C352.433 568.405 352.723 568.457 353.015 568.492C360.498 569.93 361.175 571.02 358.036 577.35C356.544 580.326 353.223 579.584 350.613 579.978Z" fill="url(#paint22_linear_1091_35822)" fill-opacity="0.28"/>
<path d="M579.843 245.111C579.912 250.692 575.507 255.724 570.079 257.656C565.353 259.333 561.98 258.429 557.939 254.371C551.939 248.358 551.939 248.358 558.807 242.947C562.049 240.412 565.275 237.869 568.535 235.356C569.229 234.823 570.122 233.633 570.998 234.583C574.414 238.263 579.236 241.138 579.843 245.111ZM575.238 246.015C575.048 243.774 573.235 241.772 571.067 240.45C569.385 239.43 568.345 241.656 567.122 242.514C564.764 244.176 562.639 246.108 560.272 247.755C558.72 248.829 558.763 249.702 560.02 250.846C561.885 252.562 563.35 254.874 566.732 254.077C570.114 253.281 574.987 248.829 575.238 246.015Z" fill="url(#paint23_linear_1091_35822)" fill-opacity="0.28"/>
<path d="M183.131 363.999C183.868 362.739 181.631 360.196 184.917 359.531C189.435 358.612 193.666 359.933 194.906 362.561C197.23 367.493 197.508 372.363 193.371 376.683C190.137 380.061 183.374 380.958 178.084 379.002C170.714 376.281 168.459 366.078 174.312 361.541C175.466 360.652 177.156 358.959 178.631 360.505C179.55 361.51 179.914 363.373 177.868 364.873C177.19 365.349 176.627 365.941 176.21 366.615C175.793 367.289 175.532 368.03 175.442 368.795C175.351 369.559 175.433 370.333 175.683 371.069C175.933 371.805 176.345 372.489 176.896 373.081C179.359 375.764 186.365 376.227 189.695 373.932C192.236 372.177 192.903 368.057 191.178 365.506C190.965 365.104 190.621 364.768 190.191 364.542C189.761 364.316 189.265 364.21 188.767 364.239C187.666 364.277 187.432 364.919 187.224 365.738C186.885 367.099 188.091 369.487 184.735 369.039C181.379 368.591 183.79 366.357 183.157 365.058C183.09 364.708 183.081 364.351 183.131 363.999Z" fill="url(#paint24_linear_1091_35822)" fill-opacity="0.28"/>
<path d="M322.883 549.609C329.777 549.671 335.396 554.455 335.231 560.121C335.031 567.023 329.733 572.388 323.161 572.349C316.354 572.303 310.778 567.82 310.726 562.347C310.657 555.646 316.501 549.555 322.883 549.609ZM323.62 553.667C319.649 553.667 315.816 557.903 315.816 562.409C315.806 563.96 316.472 565.453 317.674 566.574C318.877 567.694 320.521 568.355 322.259 568.415C326.369 568.507 330.401 563.993 330.288 559.425C330.259 557.874 329.54 556.397 328.29 555.317C327.04 554.237 325.36 553.644 323.62 553.667Z" fill="url(#paint25_linear_1091_35822)" fill-opacity="0.28"/>
<path d="M623.32 383.848C625.921 389.135 634.592 390.936 631.661 398.79C629.277 396.471 627.109 394.484 625.167 392.359C623.736 390.813 622.513 390.581 620.51 391.686C616.504 393.889 612.308 395.822 608.093 397.924C607.044 394.021 608.336 391.655 612.325 390.535C613.568 390.191 614.739 389.669 615.793 388.989C616.938 388.216 619.617 388.339 618.976 386.608C618.702 385.735 618.144 384.955 617.372 384.366C616.6 383.777 615.649 383.406 614.64 383.3C613.348 383.222 612.039 383.137 610.755 383.145C608.77 383.145 608.839 382.032 609.021 380.826C609.203 379.62 609.073 378.507 611.094 378.631C617.84 379.095 624.586 379.481 631.332 379.868C632.971 379.96 633.552 380.641 633.474 382.086C633.396 383.532 632.91 384.521 630.942 384.359C628.453 384.104 626.06 384.003 623.32 383.848Z" fill="url(#paint26_linear_1091_35822)" fill-opacity="0.28"/>
<path d="M228.584 496.909C222.913 494.35 214.996 498.13 211.58 490.439C215.049 490.803 218.075 490.98 221.066 491.491C223.355 491.885 224.422 491.344 225.15 489.319C226.581 485.307 228.35 481.396 230.05 477.276C233.596 479.687 234.533 482.254 232.191 485.539C231.561 486.548 231.066 487.619 230.717 488.731C230.284 489.898 228.671 491.521 229.746 492.148C230.592 492.647 231.576 492.929 232.59 492.963C233.604 492.997 234.609 492.782 235.495 492.341C236.608 491.749 237.649 491.055 238.599 490.269C240.056 489.04 240.958 489.427 242.068 490.733C243.178 492.039 243.394 492.789 241.747 493.825C236.394 497.303 231.107 500.861 225.887 504.499C224.327 505.589 223.546 505.311 222.471 504.02C221.396 502.729 221.179 501.894 222.818 500.882C224.725 499.715 226.546 498.331 228.584 496.909Z" fill="url(#paint27_linear_1091_35822)" fill-opacity="0.28"/>
<path d="M372.69 189.335C375.508 189.002 378.083 188.724 380.65 188.392C382.272 188.183 383.789 187.812 384.119 190.023C384.448 192.233 382.714 191.893 381.413 192.056C377.563 192.558 373.609 192.728 369.863 193.493C366.629 194.15 365.528 193.284 365.207 190.471C364.629 185.359 363.88 180.265 362.961 175.19C362.58 173.087 363.013 172.098 365.562 171.905C369.898 171.526 374.138 170.962 378.413 170.405C379.731 170.235 380.685 170.204 380.815 171.711C380.91 172.94 381.075 173.968 379.081 174.131C376.219 174.363 373.384 174.904 370.522 175.143C368.138 175.321 368.354 176.519 368.485 178.073C368.623 179.827 369.404 180.214 371.216 179.912C373.618 179.503 376.072 179.333 378.482 178.962C379.948 178.737 380.902 178.776 381.24 180.407C381.578 182.038 380.876 182.486 379.289 182.641C376.861 182.881 374.45 183.344 372.014 183.476C369.577 183.607 369.308 184.813 369.69 186.568C370.071 188.322 369.985 190.169 372.69 189.335Z" fill="url(#paint28_linear_1091_35822)" fill-opacity="0.28"/>
<path d="M471.228 178.691C468.349 180.237 466.026 181.783 463.546 182.865C461.066 183.947 460.398 185.331 461.439 187.711C463.043 191.398 464.326 195.201 465.835 199.19C461.725 199.398 459.063 198.417 458.56 194.506C458.411 193.23 458.012 191.987 457.38 190.834C456.73 189.706 457.467 187.387 455.36 187.619C454.341 187.693 453.37 188.04 452.575 188.614C451.78 189.187 451.198 189.961 450.903 190.834C450.535 191.804 450.245 192.796 450.036 193.802C449.811 195.603 448.735 195.82 447.045 195.418C445.354 195.016 444.53 194.645 445.102 192.813C446.88 187.147 448.458 181.427 450.053 175.715C450.478 174.169 451.259 173.582 453.106 174.069C454.77 174.502 455.586 175.112 455.039 176.774C454.354 178.83 453.834 180.925 453.192 183.197C459.384 182.077 463.043 174.687 471.228 178.691Z" fill="url(#paint29_linear_1091_35822)" fill-opacity="0.28"/>
<path d="M273.197 230.116C271.746 230.15 270.319 229.774 269.122 229.041C268.177 228.454 266.295 227.99 267.527 226.553C268.324 225.617 269.191 223.894 271.307 225.045C273.961 226.491 276.276 225.749 278.287 223.932C279.493 222.835 280.022 221.428 279.076 220.067C278.131 218.707 276.588 219.016 275.166 219.465C272.998 220.145 270.891 221.01 268.68 221.552C265.645 222.324 262.87 221.737 261.101 219.233C259.332 216.728 259.809 214.108 261.968 211.789C265.021 208.496 269.634 206.796 272.946 207.924C274.16 208.349 276.345 208.775 275.643 210.243C275.062 211.464 273.7 213.242 271.264 212.16C270.629 211.866 269.911 211.748 269.2 211.82C268.275 211.969 267.403 212.313 266.656 212.822C265.91 213.331 265.311 213.992 264.908 214.75C264.652 215.071 264.549 215.47 264.62 215.859C264.691 216.248 264.932 216.597 265.289 216.829C266.85 217.71 268.324 216.898 269.798 216.45C271.792 215.719 273.841 215.112 275.929 214.634C277.165 214.41 278.445 214.482 279.641 214.841C280.836 215.2 281.904 215.833 282.737 216.678C283.57 217.522 284.138 218.547 284.385 219.65C284.631 220.753 284.547 221.894 284.14 222.958C282.9 226.46 277.256 230.131 273.197 230.116Z" fill="url(#paint30_linear_1091_35822)" fill-opacity="0.28"/>
<path d="M208.675 486.304C207.661 486.382 207.462 485.647 207.123 485.137C204.747 481.628 202.415 478.088 200.048 474.563C199.302 473.465 198.99 472.646 200.585 471.734C202.467 470.66 203.074 471.61 203.837 472.808C205.042 474.702 206.438 476.519 207.522 478.466C208.545 480.291 209.525 480.855 211.788 479.672C214.242 478.381 213.02 477.307 212.127 475.993C210.93 474.246 209.829 472.437 208.597 470.706C207.652 469.377 208.207 468.696 209.56 467.962C210.913 467.228 211.58 467.753 212.231 468.781C213.21 470.327 214.312 471.873 215.3 473.419C216.427 475.197 217.034 476.982 220.277 475.228C223.399 473.535 222.341 472.229 221.014 470.397C219.688 468.565 218.673 466.864 217.442 465.133C216.575 463.927 216.115 463 217.98 462.041C219.653 461.183 220.217 461.902 220.945 463.015C223.26 466.563 225.645 470.072 228.021 473.589C228.732 474.64 229.295 475.56 227.631 476.426C221.656 479.518 215.725 482.679 209.777 485.817C209.413 486.018 208.979 486.157 208.675 486.304Z" fill="url(#paint31_linear_1091_35822)" fill-opacity="0.28"/>
<path d="M489.602 185.324C494.267 185.324 499.322 188.122 500.198 191.353C500.58 192.767 501.169 194.839 499.253 195.218C498.792 195.312 498.313 195.315 497.851 195.226C497.389 195.138 496.954 194.959 496.577 194.704C496.201 194.449 495.892 194.123 495.673 193.75C495.453 193.376 495.329 192.964 495.308 192.543C495.099 190.155 492.906 189.575 490.712 189.165C489.663 188.964 488.648 189.065 488.111 190.016C487.878 190.423 487.821 190.892 487.948 191.334C488.076 191.777 488.38 192.162 488.804 192.419C490.642 193.857 492.576 195.202 494.388 196.663C497.328 199.036 498.022 201.873 496.045 204.988C494.146 207.971 491.119 208.667 487.512 207.987C481.893 206.92 477.974 203.697 477.974 199.848C477.974 198.75 477.497 196.91 479.708 197.026C481.078 197.104 483.099 197.204 482.943 199.345C482.848 200.127 483.023 200.915 483.445 201.606C483.866 202.296 484.514 202.856 485.301 203.21C487.382 204.222 489.758 205.189 491.475 202.97C493.192 200.752 490.66 199.878 489.255 198.68C487.573 197.474 485.969 196.184 484.451 194.816C483.544 193.969 482.969 192.884 482.812 191.721C482.656 190.559 482.927 189.383 483.584 188.369C484.109 187.368 484.97 186.536 486.048 185.991C487.126 185.445 488.368 185.212 489.602 185.324Z" fill="url(#paint32_linear_1091_35822)" fill-opacity="0.28"/>
<path d="M407.921 168.905C407.61 169.451 407.269 169.983 406.897 170.498C404.678 172.971 400.273 174.903 400.446 177.763C400.62 180.623 404.079 183.104 405.978 185.818C407.028 187.294 408.623 188.515 408.935 190.409C405.207 191.421 402.423 190.772 400.862 187.394C400.414 186.444 399.806 185.561 399.059 184.774C397.94 183.599 397.663 180.801 395.729 181.497C394.589 181.938 393.636 182.693 393.012 183.651C392.388 184.609 392.125 185.721 392.261 186.822C392.408 188.507 393.804 191.228 389.659 191.089C388.237 191.035 387.604 190.811 387.578 189.419C387.445 183.236 387.255 177.07 387.006 170.923C386.937 169.129 388.307 169.253 389.607 169.129C391.116 168.99 392.087 169.284 392.018 170.93C391.922 173.187 392.018 175.444 392.018 178.351C396.77 175.321 398.547 170.745 403.126 168.975C404.348 168.488 406.065 168.905 407.921 168.905Z" fill="url(#paint33_linear_1091_35822)" fill-opacity="0.28"/>
<path d="M244.704 231.577C244.055 231.452 243.381 231.484 242.751 231.67C242.121 231.857 241.559 232.19 241.123 232.636C239.943 233.741 238.426 235.055 239.675 236.632C240.923 238.209 242.553 236.988 243.897 236.392C245.961 235.488 247.851 234.236 249.967 233.517C254.936 231.832 259.74 234.978 259.679 239.701C259.601 245.111 251.797 250.46 246.369 248.713C245.198 248.342 243.022 248.172 243.837 246.394C244.392 245.173 245.25 243.473 247.687 244.393C250.886 245.606 252.889 243.944 254.407 241.71C254.788 241.232 254.98 240.655 254.953 240.069C254.926 239.483 254.682 238.921 254.259 238.472C253.262 237.343 251.962 237.544 250.748 238.093C248.571 239.075 246.507 240.273 244.288 241.185C241.244 242.429 238.322 242.182 236.085 239.755C233.848 237.328 234.168 234.707 236.085 232.288C238.192 229.629 240.689 227.225 244.695 227.117C246.49 227.063 249.109 227.21 249.031 229.196C249.016 229.645 248.876 230.084 248.625 230.474C248.373 230.863 248.016 231.19 247.587 231.426C247.158 231.662 246.67 231.799 246.167 231.826C245.664 231.852 245.161 231.767 244.704 231.577Z" fill="url(#paint34_linear_1091_35822)" fill-opacity="0.28"/>
<path d="M216.636 267.751C214.676 266.653 212.985 265.532 211.121 264.705C208.849 263.693 208.727 262.556 210.132 260.802C210.999 259.704 211.658 259.666 212.872 260.346C218.587 263.561 224.327 266.746 230.128 269.845C231.923 270.812 231.446 271.67 230.613 272.937C229.642 274.406 228.714 274.614 227.214 273.563C226.208 272.852 224.899 272.466 223.945 271.708C221.179 269.521 219.809 270.317 217.832 272.922C215.361 276.176 215.768 277.76 219.61 279.554C221.127 280.257 225.341 280.28 223.009 283.851C222.142 285.158 221.448 285.745 219.696 284.732C214.147 281.532 208.502 278.456 202.84 275.411C201.106 274.506 201.236 273.648 202.163 272.319C203.091 270.989 203.898 270.425 205.45 271.546C206.22 272.139 207.1 272.607 208.051 272.929C209.395 273.362 210.583 275.488 211.962 274.197C213.774 272.458 214.919 270.155 216.636 267.751Z" fill="url(#paint35_linear_1091_35822)" fill-opacity="0.28"/>
<path d="M434.246 583.256C429.911 584.802 427.127 583.82 425.315 580.496C424.807 579.571 424.144 578.721 423.347 577.976C422.297 577.026 421.838 574.668 420.32 575.256C419.308 575.62 418.451 576.262 417.875 577.089C417.298 577.915 417.031 578.884 417.112 579.855C417.138 579.982 417.138 580.113 417.112 580.241C416.531 581.934 419.479 584.987 414.84 585.119C410.669 585.242 412.612 582.127 412.352 580.659C411.485 575.974 411.346 571.205 410.895 566.475C410.739 564.875 410.453 563.545 413.175 563.337C415.898 563.128 415.577 564.527 415.777 565.903C416.002 567.812 416.21 569.721 416.462 571.916C421.925 569.366 422.332 560.879 431.073 562.293C430.075 565.014 427.734 566.799 425.8 568.747C424.006 570.556 424.066 571.839 425.8 573.609C428.714 576.601 431.298 579.847 434.246 583.256Z" fill="url(#paint36_linear_1091_35822)" fill-opacity="0.28"/>
<path d="M199.033 427.413C203.187 427.474 205.97 429.971 207.409 434.47C208.719 438.636 207.704 441.851 204.114 443.529C199.12 445.848 193.562 446.922 188.29 448.622C186.46 449.218 186.182 448.128 185.688 446.945C185.194 445.763 185.081 444.812 186.824 444.309C191.073 443.088 195.27 441.735 199.519 440.506C202.684 439.587 204.002 437.809 202.987 434.918C201.973 432.027 199.519 431.509 196.484 432.475C192.278 433.805 188.021 434.995 183.798 436.278C182.454 436.688 181.63 436.503 181.309 435.119C181.067 434.075 179.775 432.8 181.717 432.228C187.561 430.443 193.267 428.24 199.033 427.413Z" fill="url(#paint37_linear_1091_35822)" fill-opacity="0.28"/>
<path d="M198.574 337.247C199.311 337.031 200.065 337.247 199.892 338.322C199.683 339.636 200.23 341.792 198.244 341.862C193.041 342.047 193.284 345.278 192.59 348.455C192.079 350.851 192.773 352.142 195.192 352.877C197.993 353.727 197.594 355.767 196.701 357.259C195.469 359.3 194.039 357.259 192.972 356.726C187.422 354.036 181.986 351.176 176.497 348.386C174.997 347.613 173.471 347.064 174 344.961C174.451 343.176 175.066 342.086 177.338 341.661C184.318 340.347 191.281 338.778 198.574 337.247ZM188.368 349.561C188.368 347.365 189.859 344.876 188.68 344.382C186.304 343.392 183.564 344.699 180.754 345.456C182.879 347.365 185.445 348.138 188.368 349.561Z" fill="url(#paint38_linear_1091_35822)" fill-opacity="0.28"/>
<path d="M197.62 403.019C199.198 405.708 199.545 407.703 196.189 409.31C192.426 411.111 195.539 413.863 195.53 416.167C195.53 417.836 196.302 419.258 198.574 419.15C202.267 418.98 202.64 421.152 202.736 424.105C194.567 422.922 186.521 421.786 178.457 420.572C176.558 420.286 176.852 418.671 176.445 417.481C175.89 415.935 177.017 415.162 178.3 414.435C184.7 410.748 191.021 406.953 197.62 403.019ZM183.512 416.816C184.856 417.859 186.521 417.736 188.038 417.797C189.122 417.844 190.865 418.972 191.246 417.218C191.506 415.95 191.221 414.643 190.449 413.554C189.295 412.209 188.212 413.824 187.24 414.327C185.922 415.015 184.327 415.463 183.512 416.816Z" fill="url(#paint39_linear_1091_35822)" fill-opacity="0.28"/>
<path d="M604.841 410.052C605.041 402.732 608.856 399.795 616.981 400.869C620.97 401.387 624.915 402.183 628.895 402.748C630.725 403.01 631.219 403.745 630.967 405.36C630.716 406.976 629.944 407.509 628.097 407.184C623.857 406.411 619.574 405.917 615.333 405.159C611.978 404.556 610.018 405.708 609.342 408.599C608.665 411.49 610.356 412.889 613.408 413.368C617.666 414.033 621.889 414.86 626.164 415.424C628.349 415.718 628.548 416.699 628.331 418.346C628.08 420.301 626.753 420.193 625.244 419.938C620.579 419.165 615.88 418.462 611.258 417.495C606.636 416.529 604.72 414.234 604.841 410.052Z" fill="url(#paint40_linear_1091_35822)" fill-opacity="0.28"/>
<path d="M232.92 269.583C228.94 263.507 225.116 257.517 221.093 251.611C219.991 249.988 220.33 248.891 221.526 247.492C222.723 246.093 223.919 246.038 225.619 246.51C232.07 248.295 238.556 249.957 245.008 251.743C246.005 252.021 248.181 251.743 247.375 253.505C246.829 254.696 246.196 256.52 243.759 256.095C242.155 255.809 240.421 254.286 238.938 255.499C237.056 257.045 235.66 259.055 234.039 260.848C233.172 261.791 233.787 262.618 234.438 263.26C236.883 265.702 235.86 267.596 232.92 269.583ZM227.579 251.696L227.041 251.264L226.937 252.191C227.926 253.737 228.905 255.283 229.92 256.79C230.336 257.416 230.848 258.336 231.767 257.409C232.686 256.481 234.091 255.213 234.238 254C234.386 252.786 232.374 252.871 231.264 252.524C230.154 252.176 228.81 251.967 227.579 251.696Z" fill="url(#paint41_linear_1091_35822)" fill-opacity="0.28"/>
<path d="M528.076 552.901C525.579 555.22 523.515 555.916 520.922 553.551C518 550.884 516.145 554.254 513.855 554.934C512.121 555.444 510.196 556.225 511.159 558.529C512.433 561.566 510.214 562.641 507.118 563.669C505.947 556.411 504.664 549.268 503.702 542.088C503.407 539.893 507.257 538.107 509.251 539.475C515.564 543.85 521.755 548.387 528.076 552.901ZM509.945 552.012C511.774 552.128 512.78 551.039 514.064 550.544C514.931 550.204 515.564 549.5 514.575 548.797C512.789 547.522 511.419 545.705 508.601 544.932C509.086 547.56 509.511 549.81 509.927 552.012H509.945Z" fill="url(#paint42_linear_1091_35822)" fill-opacity="0.28"/>
<path d="M566.775 262.765C574.683 261.142 582.383 259.596 590.092 257.958C591.704 257.618 592.476 258.259 593.213 259.341C593.95 260.423 595.051 261.289 593.924 262.765C589.38 268.671 584.924 274.638 580.423 280.597C577.527 278.58 576.955 276.795 579.244 274.051C581.637 271.191 577.51 269.707 576.547 267.504C575.897 266.004 574.614 265.185 572.784 265.958C569.576 267.272 567.963 265.873 566.775 262.765ZM587.854 263.252L587.143 262.564C584.759 263.252 581.828 263.422 580.206 264.814C579.253 265.625 581.785 267.581 583.103 269.297C584.828 267.094 586.337 265.169 587.854 263.252Z" fill="url(#paint43_linear_1091_35822)" fill-opacity="0.28"/>
<path d="M437.332 581.153C438.607 574.737 439.934 568.438 441.052 562.1C441.365 560.33 442.31 559.873 444.07 559.541C445.83 559.209 446.957 559.472 447.981 560.917C451.596 566.018 455.403 571.012 459.01 576.106C459.591 576.917 461.473 578.092 459.877 578.896C458.603 579.522 456.062 580.813 455.022 578.517C453.331 574.776 450.365 575.789 447.218 576.198C444.304 576.585 442.31 577.474 442.422 580.388C442.5 582.436 440.775 582.428 439.266 582.768C437.454 583.178 436.76 582.691 437.332 581.153ZM445.769 565.524C444.946 568.013 442.943 570.548 444.321 572.527C445.189 573.818 447.79 572.248 450.079 571.854L445.769 565.524Z" fill="url(#paint44_linear_1091_35822)" fill-opacity="0.28"/>
<path d="M207.028 286.774C210.323 286.774 213.636 286.65 216.913 286.843C217.902 286.905 220.078 286.21 219.827 287.972C219.627 289.34 219.376 291.373 216.618 291.334C215.127 291.334 213.15 290.345 212.17 291.705C210.74 293.772 209.576 295.976 208.702 298.275C208.19 299.551 209.768 300.293 210.696 300.973C212.43 302.256 211.979 303.47 211.216 305.023C210.349 306.708 209.725 306.5 208.537 305.379C203.499 300.633 198.452 295.887 193.31 291.234C191.94 289.989 192.599 288.954 193.146 287.779C193.692 286.604 194.498 285.645 196.311 285.784C199.883 286.047 203.473 286.155 207.054 286.326L207.028 286.774ZM198.478 290.059C201.08 292.447 202.485 294.998 205.155 295.315C206.161 295.431 207.254 292.656 207.479 290.677L198.478 290.059Z" fill="url(#paint45_linear_1091_35822)" fill-opacity="0.28"/>
<path d="M586.415 460.008C591.219 465.511 595.953 470.984 600.749 476.371C601.98 477.747 601.676 478.775 600.835 480.166C599.994 481.558 598.867 482.052 597.037 481.766C590.387 480.746 583.71 479.88 577.094 478.852C576.088 478.69 573.903 479.262 574.492 477.415C574.865 476.193 575.359 473.836 577.692 474.547C583.918 476.449 584.1 471.409 586.407 468.835C587.36 467.784 586.528 466.856 585.678 466.161C582.869 463.888 583.849 461.994 586.415 460.008ZM595.372 476.812C593.855 475.127 592.485 473.55 591.037 472.035C590.655 471.633 590.048 470.876 589.398 471.703C588.531 472.839 587.196 474.068 587.161 475.281C587.126 476.495 589.138 476.325 590.317 476.464C591.826 476.65 593.291 477.361 595.372 476.812Z" fill="url(#paint46_linear_1091_35822)" fill-opacity="0.28"/>
<path d="M407.669 584.925C404.374 585.698 401.981 585.698 401.287 582.266C400.741 579.569 398.2 579.901 396.128 580.11C393.873 580.334 390.708 578.618 389.711 582.143C389.541 582.766 389.278 583.366 388.931 583.928C387.83 585.652 386 584.771 384.665 584.547C382.506 584.176 384.205 582.877 384.509 582.228C387.171 576.423 389.997 570.633 392.703 564.883C393.258 563.692 393.847 562.796 395.495 563.128C396.908 563.414 398.669 562.772 399.423 564.674C402.094 571.422 404.886 578.123 407.669 584.925ZM398.955 576.16C397.897 573.486 397.012 571.221 395.928 568.43C394.801 571.321 392.408 573.501 393.258 575.967C393.674 577.111 396.631 576.469 398.955 576.16Z" fill="url(#paint47_linear_1091_35822)" fill-opacity="0.28"/>
<path d="M336.392 200.38C333.843 202.22 331.554 203.148 329.456 200.295C328.059 198.402 326.308 198.819 324.66 199.754C322.484 200.991 318.322 200.388 318.833 204.23C319.267 207.437 317.151 208.095 313.874 208.535C313.874 201.362 313.874 194.344 313.874 187.333C313.874 185.787 314.741 185.107 316.223 184.566C317.706 184.025 318.825 183.87 320.039 185.053C325.389 190.185 330.869 195.233 336.392 200.38ZM318.391 189.559C318.391 192.179 318.391 193.919 318.391 195.658C318.391 197.397 318.877 197.814 320.914 197.204C324.105 196.276 324.99 195.233 322.068 193.061C320.771 191.946 319.544 190.769 318.391 189.536V189.559Z" fill="url(#paint48_linear_1091_35822)" fill-opacity="0.28"/>
<path d="M530.894 207.924C530.936 209.088 530.636 210.242 530.025 211.271C529.414 212.3 528.513 213.17 527.41 213.794C526.307 214.418 525.041 214.775 523.736 214.83C522.431 214.885 521.133 214.636 519.969 214.108C519.559 213.977 519.176 213.789 518.833 213.551C514.957 210.297 512.529 211.712 510.691 215.461C509.936 217.007 509.069 218.004 506.815 216.674C504.76 215.461 505.445 214.556 506.372 213.258C509.719 208.62 513.067 203.982 516.275 199.229C517.367 197.621 518.287 197.072 520.194 198.316C522.631 199.909 525.267 201.261 527.79 202.753C528.779 203.289 529.589 204.051 530.135 204.961C530.681 205.87 530.943 206.894 530.894 207.924ZM522.345 210.622C523.24 210.623 524.1 210.315 524.746 209.763C525.393 209.212 525.775 208.459 525.813 207.662C525.995 206.262 521.72 202.575 520.229 202.985C517.983 203.604 516.544 205.984 516.76 207.321C517.22 209.478 520.203 210.027 522.345 210.622Z" fill="url(#paint49_linear_1091_35822)" fill-opacity="0.28"/>
<path d="M294.997 538.115C299.029 538.54 300.468 540.287 300.46 543.758C300.46 549.941 300.789 550.05 306.599 546.571C309.53 544.817 311.94 544.376 314.472 547.012C312.738 548.844 310.267 549.679 308.021 550.714C303.287 552.886 299.168 555.445 297.425 560.229C296.809 561.914 295.812 562.695 293.592 561.598C291.372 560.5 291.971 559.426 293.011 558.243C296.887 553.876 296.228 548.89 295.613 543.905C295.413 542.003 295.214 540.094 294.997 538.115Z" fill="url(#paint50_linear_1091_35822)" fill-opacity="0.28"/>
<path d="M365.38 561.142C373.124 560.137 371.667 567.055 374.849 569.923C378.985 568.253 379.185 560.871 386.945 563.662C384.257 566.607 382.003 569.559 379.202 572.017C375.942 574.885 376.202 578.518 375.638 581.988C375.396 583.534 374.849 584.06 373.219 583.728C372.031 583.496 370.098 583.65 370.722 581.919C373.323 574.576 368.675 568.84 365.658 562.734C365.494 562.389 365.364 562.032 365.268 561.667C365.233 561.552 365.32 561.42 365.38 561.142Z" fill="url(#paint51_linear_1091_35822)" fill-opacity="0.28"/>
<path d="M355.833 195.286C356.137 196.26 354.689 196.353 353.466 196.747C351.498 197.389 350.908 196.392 350.535 194.985C349.451 190.873 348.116 186.807 347.327 182.618C346.824 179.943 345.593 179.634 342.991 180.299C341.743 180.593 339.731 182.278 338.985 179.425C338.326 176.875 340.434 177.107 341.977 176.759C346.009 175.839 350.058 174.966 354.117 174.115C355.573 173.806 357.143 173.041 357.88 175.205C358.678 177.524 356.779 177.578 355.339 177.709C351.871 178.026 351.229 179.418 352.192 182.27C353.562 186.305 354.507 190.456 355.833 195.286Z" fill="url(#paint52_linear_1091_35822)" fill-opacity="0.28"/>
<path d="M498.638 546.277C498.464 547.9 496.739 547.993 495.516 548.372C493.045 549.145 492.611 550.181 493.782 552.337C495.889 556.101 497.537 560.067 499.566 563.877C500.433 565.477 500.389 566.297 498.421 567.139C496.297 568.051 495.672 567.139 494.953 565.686C493.158 561.922 491.146 558.242 489.481 554.44C488.441 552.051 487.287 551.193 484.539 552.716C483.385 553.35 481.599 554.911 480.42 552.399C479.241 549.887 481.564 549.895 482.969 549.307C487.001 547.638 491.146 546.215 495.109 544.414C497.641 543.332 498.083 544.654 498.638 546.277Z" fill="url(#paint53_linear_1091_35822)" fill-opacity="0.28"/>
<path d="M617.137 302.372C619.209 302.318 618.767 303.918 619.296 304.83C620.085 306.159 618.975 306.561 617.77 306.925C613.278 308.277 608.865 309.839 604.321 311.006C601.616 311.702 600.723 312.614 602.015 315.033C602.934 316.749 603.376 318.666 604.104 320.444C604.642 321.773 604.356 322.492 602.734 323.048C600.861 323.682 600.532 322.732 600.133 321.595C598.815 318.078 597.48 314.569 596.17 311.052C595.875 310.279 595.043 309.244 596.5 308.78C603.367 306.608 610.296 304.498 617.137 302.372Z" fill="url(#paint54_linear_1091_35822)" fill-opacity="0.28"/>
<path d="M546.424 238.943C545.976 239.517 545.487 240.065 544.959 240.582C544.091 241.355 543.415 240.683 542.765 240.188C539.496 237.676 536.261 235.117 532.932 232.667C531.51 231.624 531.38 230.851 532.663 229.575C537.068 225.169 541.334 220.686 545.67 216.164C546.762 215.005 547.56 214.928 548.748 216.002C549.771 216.93 551.089 217.548 549.537 219.094C546.363 222.24 543.537 225.695 540.181 228.671C537.684 230.881 538.23 232.165 540.753 233.71C542.263 234.697 543.689 235.782 545.019 236.957C545.583 237.421 546.511 237.768 546.424 238.943Z" fill="url(#paint55_linear_1091_35822)" fill-opacity="0.28"/>
<path d="M209.898 444.796C211.329 444.626 211.632 445.569 211.997 446.342C213.731 449.705 215.37 453.121 217.199 456.429C218.127 458.06 217.459 458.64 215.873 459.274C209.976 461.631 204.106 464.035 198.279 466.524C196.545 467.243 195.808 466.988 195.062 465.411C194.316 463.834 194.36 463.092 196.163 462.42C200.637 460.688 205.016 458.748 209.499 457.009C211.702 456.167 212.265 455.2 210.991 453.253C209.838 451.498 209.161 449.496 208.043 447.718C206.785 445.693 208.624 445.438 209.898 444.796Z" fill="url(#paint56_linear_1091_35822)" fill-opacity="0.28"/>
<path d="M603.714 330.731C602.344 331.094 602.344 329.896 602.058 328.922C601.772 327.949 600.965 326.642 602.925 326.178C609.714 324.633 616.512 323.033 623.293 321.433C624.802 321.069 625.452 321.711 625.66 322.886C625.843 323.921 626.796 325.274 624.854 325.746C617.978 327.415 611.041 329.008 603.714 330.731Z" fill="url(#paint57_linear_1091_35822)" fill-opacity="0.28"/>
<path d="M268.809 234.399C268.722 235.581 267.517 235.944 266.754 236.717C265.705 237.707 265.02 237.112 264.309 236.37C259.756 231.732 255.204 227.094 250.608 222.456C249.308 221.15 250.192 220.423 251.285 219.651C252.152 219.032 252.924 218.004 254.12 219.225C258.866 224.064 263.609 228.905 268.35 233.749C268.525 233.952 268.679 234.17 268.809 234.399Z" fill="url(#paint58_linear_1091_35822)" fill-opacity="0.28"/>
<path d="M541.872 211.72C541.568 212.152 541.23 212.709 540.814 213.211C536.955 217.849 533.062 222.487 529.229 227.125C528.284 228.276 527.565 229.08 525.865 227.828C524.417 226.769 523.741 226.066 525.145 224.458C529.125 219.897 532.889 215.182 536.791 210.545C537.389 209.841 537.848 208.427 539.392 209.408C540.294 210.027 541.421 210.444 541.872 211.72Z" fill="url(#paint59_linear_1091_35822)" fill-opacity="0.28"/>
<path d="M436.249 191.46C437.35 185.802 438.521 179.998 439.579 174.177C439.934 172.229 441.2 172.531 442.735 172.724C444.27 172.917 444.886 173.559 444.582 175.043C443.385 180.85 442.244 186.663 441.157 192.481C440.845 194.166 439.969 194.467 438.191 194.228C436.266 193.949 435.738 193.161 436.249 191.46Z" fill="url(#paint60_linear_1091_35822)" fill-opacity="0.28"/>
<path d="M512.286 195.031C511.991 195.549 511.757 196.013 511.488 196.461C508.548 201.423 505.557 206.355 502.678 211.34C501.811 212.832 501.109 213.451 499.14 212.477C497.172 211.503 497.406 210.629 498.273 209.153C501.351 204.121 504.282 199.012 507.291 193.941C507.811 193.076 508.262 191.877 509.788 192.79C510.812 193.377 512.39 193.547 512.286 195.031Z" fill="url(#paint61_linear_1091_35822)" fill-opacity="0.28"/>
<path d="M191.568 321.394C190.895 321.462 190.214 321.375 189.59 321.14C188.966 320.906 188.42 320.533 188.004 320.057C189.461 319.184 190.865 319.562 192.253 319.864C191.698 320.258 190.961 320.583 191.568 321.394Z" fill="url(#paint62_linear_1091_35822)" fill-opacity="0.28"/>
<path d="M196.649 320.049C197.707 319.709 198.765 319.454 199.71 320.281C199.238 320.537 198.687 320.653 198.137 320.611C197.587 320.569 197.065 320.373 196.649 320.049Z" fill="url(#paint63_linear_1091_35822)" fill-opacity="0.28"/>
<path d="M561.503 539.128L562.032 538.865L562.162 539.158C561.963 539.104 561.763 539.05 561.564 539.012L561.503 539.128Z" fill="url(#paint64_linear_1091_35822)" fill-opacity="0.28"/>
<path d="M291.095 210.027L290.809 209.872L291.121 209.462C291.216 209.555 291.381 209.656 291.381 209.756C291.381 209.857 291.199 209.942 291.095 210.027Z" fill="url(#paint65_linear_1091_35822)" fill-opacity="0.28"/>
<path d="M595.208 280.953L596.075 280.613C596.005 280.907 595.945 281.201 595.884 281.494L595.208 280.953Z" fill="url(#paint66_linear_1091_35822)" fill-opacity="0.28"/>
<path d="M226.937 252.191L227.041 251.264L227.579 251.697C227.388 251.884 227.172 252.05 226.937 252.191Z" fill="url(#paint67_linear_1091_35822)" fill-opacity="0.28"/>
<path d="M546.468 424.36C545.028 426.307 543.762 428.727 541.759 430.458C540.537 431.509 539.036 429.631 537.814 428.912C519.509 418.671 501.196 408.429 483.038 397.948C480.125 396.263 479.206 396.858 477.905 399.339C473.032 408.614 467.864 417.813 463.008 427.119C461.794 429.438 460.728 429.77 458.178 428.603C451.562 425.581 451.502 425.697 454.71 419.776C459.814 410.284 464.913 400.795 470.006 391.308C473.474 384.831 477.81 383.702 484.495 387.559C504.213 398.953 523.92 410.369 543.615 421.809C544.629 422.412 546.043 422.698 546.468 424.36Z" fill="url(#paint68_linear_1091_35822)" fill-opacity="0.28"/>
<path d="M397.142 287.338C397.142 277.707 396.994 268.068 397.237 258.445C397.315 255.422 396.223 254.835 393.11 254.92C387.04 255.098 380.97 254.781 374.961 254.85C372.724 254.85 372.048 254.325 371.978 252.276C371.71 244.299 371.614 244.253 380.71 244.315C396.847 244.423 412.984 244.671 429.112 244.694C433.023 244.694 434.827 245.328 434.176 249.409C433.24 255.237 433.578 255.245 427.04 255.144C422.141 255.074 417.224 255.299 412.299 255.074C409.273 254.928 408.831 256.056 408.779 258.406C408.674 277.676 408.354 296.945 408.328 316.215C408.328 319.377 407.461 320.374 403.836 320.258C396.387 320.018 396.387 320.211 396.387 313.533V287.33L397.142 287.338Z" fill="url(#paint69_linear_1091_35822)" fill-opacity="0.28"/>
<path d="M263.061 409.526C278.911 411.652 294.736 413.685 310.518 415.965C313.466 416.39 314.853 415.772 316.249 413.476C321.677 404.571 327.435 395.822 332.88 386.925C334.12 384.9 335.013 384.482 337.407 385.673C344.924 389.429 344.977 389.329 340.684 396.077C335.649 404.002 330.623 411.935 325.605 419.876C324.842 421.082 323.828 422.195 324.521 423.81C325.527 426.129 326.126 427.922 329.724 425.689C336.435 421.484 343.598 417.866 350.535 413.893C352.338 412.858 353.24 412.842 354.549 414.597C359.553 421.321 359.631 421.267 351.853 425.619C330.608 437.492 309.364 449.333 288.181 461.314C285.475 462.86 284.097 463.069 282.293 460.278C278.469 454.357 278.27 454.442 284.643 450.848C294.025 445.569 303.442 440.344 312.789 435.01C314.073 434.276 316.691 433.959 315.642 431.857C314.593 429.754 314.515 426.894 310.552 426.407C295.144 424.514 279.804 422.164 264.379 420.386C260 419.876 258.586 418.616 259.826 414.914C260.159 413.797 260.356 412.651 260.416 411.497C260.485 409.905 261.17 409.062 263.061 409.526Z" fill="url(#paint70_linear_1091_35822)" fill-opacity="0.28"/>
<path d="M508.401 296.814C502.539 301.297 496.929 305.711 491.137 309.954C489.134 311.415 490.053 312.474 491.007 313.819C497.655 323.295 504.285 332.782 510.898 342.279C514.904 348.022 513.717 350.728 506.346 352.629C496.513 355.172 486.645 357.584 476.864 360.243C472.529 361.433 469.503 360.706 467.057 357.058C461.508 348.788 455.724 340.641 449.854 332.555C448.38 330.523 448.744 329.634 450.946 328.397C458.048 324.393 457.987 324.316 462.392 330.561C466.234 335.972 470.196 341.383 473.821 346.917C475.286 349.159 476.726 349.53 479.37 348.741C484.271 347.211 489.261 345.921 494.319 344.876C498.1 344.103 497.692 342.998 495.958 340.602C489.724 331.953 483.697 323.187 477.627 314.453C474.827 310.41 475.087 308.47 479.023 305.417C487.521 298.847 496.054 292.315 504.621 285.823C509.043 282.476 512.095 282.854 515.321 287.137C526.342 301.8 537.241 316.447 548.358 331.025C550.187 333.421 549.433 334.372 547.066 335.732C540.476 339.543 540.545 339.597 536.192 333.839L508.401 296.814Z" fill="url(#paint71_linear_1091_35822)" fill-opacity="0.28"/>
<path d="M442.57 497.967C443.594 491.374 444.452 485.453 445.458 479.556C446.004 476.355 451.666 473.472 454.996 474.555C456.401 475.011 456.73 476.1 457.043 477.283C459.089 485.152 461.083 493.036 463.312 500.866C464.023 503.37 462.401 503.718 460.494 504.174C458.282 504.692 457.164 504.221 456.626 501.956C455.15 495.508 453.21 489.151 450.817 482.926C449.95 489.527 449.039 496.12 448.215 502.729C447.964 504.808 448.051 506.717 444.981 507.444C441.686 508.217 440.316 506.748 438.911 504.599C436.041 500.294 433.006 496.097 429.963 491.869C429.252 490.887 428.948 489.318 426.72 489.588C428.272 495.409 429.703 501.183 431.402 506.957C432.078 509.276 431.402 510.242 428.844 510.783C426.286 511.324 425.272 510.566 424.717 508.294C422.982 501.028 420.884 493.824 419.046 486.566C418.569 484.649 417.537 482.153 420.78 481.411C424.023 480.669 427.804 478.613 430.604 482.261C433.943 486.613 437.09 491.065 440.351 495.463C440.888 496.151 441.521 496.777 442.57 497.967Z" fill="url(#paint72_linear_1091_35822)" fill-opacity="0.28"/>
<path d="M407.296 495.549C416.418 495.866 416.418 495.866 415.724 503.881C415.135 510.637 414.363 511.611 406.776 513.366C398.816 515.228 391.055 514.857 385.141 509.161C379.227 503.464 378.95 496.314 381.629 489.273C385.54 479.015 401.772 475.205 411.155 482.161C412.192 482.857 413.047 483.746 413.66 484.766C414.432 486.312 416.99 488.445 414.528 489.52C412.455 490.409 408.978 492.279 406.776 488.6C404.929 485.508 401.573 484.805 397.862 485.106C396.043 485.187 394.292 485.744 392.825 486.706C391.359 487.668 390.243 488.993 389.615 490.517C388.028 494.005 387.85 497.877 389.113 501.47C391.324 507.939 400.385 510.374 406.455 506.293C408.068 505.203 407.833 503.804 407.651 502.475C407.4 500.697 405.64 501.601 404.521 501.338C402.674 500.913 399.96 502.475 399.119 499.723C398.122 496.453 399.232 495.294 403.064 495.332C404.426 495.332 405.865 495.464 407.296 495.549Z" fill="url(#paint73_linear_1091_35822)" fill-opacity="0.28"/>
<path d="M363.325 510.459C360.493 510.32 357.695 509.85 355.001 509.06C348.879 507.166 345.809 503.255 346.59 497.551C347.57 490.424 349.191 483.367 350.058 476.233C350.518 472.507 352.937 474.161 354.914 474.176C357.377 474.176 358.565 474.949 358.053 477.438C356.744 484.008 355.504 490.579 354.584 497.203C354.038 501.145 356.05 503.17 360.385 503.989C364.92 504.84 367.678 503.456 368.597 499.352C370.002 493.06 371.294 486.737 372.152 480.383C372.638 476.835 374.519 477.029 377.58 477.384C381.205 477.802 380.572 479.502 380.121 481.659C378.742 488.345 377.71 495.093 376.184 501.755C374.884 507.607 370.574 510.459 363.325 510.459Z" fill="url(#paint74_linear_1091_35822)" fill-opacity="0.28"/>
<path d="M375.369 469.74C376.236 462.459 377.242 455.185 377.97 447.896C378.179 445.716 379.115 445.423 381.222 445.655C386.65 446.25 392.104 446.783 397.558 447.146C399.822 447.301 400.021 448.236 399.882 449.906C399.744 451.575 399.44 452.58 397.125 452.225C393.717 451.761 390.249 451.614 386.824 451.166C384.682 450.887 383.858 451.622 384.144 453.4C384.387 454.876 382.167 457.179 385.783 457.581C388.384 457.86 390.942 458.169 393.526 458.285C395.859 458.385 396.622 459.104 396.483 461.338C396.301 464.26 394.263 463.371 392.573 463.324C389.572 463.255 386.061 461.57 383.737 462.961C381.248 464.461 382.818 468.001 382.063 470.575C381.543 472.345 382.393 474.625 378.43 474.208C374.467 473.79 375.031 471.958 375.369 469.74Z" fill="url(#paint75_linear_1091_35822)" fill-opacity="0.28"/>
<path d="M428.358 446.675C429.061 449.558 426.789 449.203 425.228 449.419C419.548 450.231 419.574 450.192 420.372 455.108C421.239 460.442 421.907 465.806 422.973 471.116C423.45 473.551 421.916 473.582 420.121 473.752C418.326 473.922 416.496 474.788 416.175 471.92C415.551 466.432 414.285 460.998 413.73 455.51C413.375 451.993 412.291 450.393 407.972 451.506C406.62 451.862 404.131 453.268 403.368 450.579C402.813 448.631 402.692 446.915 406.056 446.621C412.507 446.057 418.924 445.168 425.315 444.233C428.037 443.823 428.584 444.951 428.358 446.675Z" fill="url(#paint76_linear_1091_35822)" fill-opacity="0.28"/>
<path d="M251.849 338.986C251.745 337.487 252.56 336.258 253.263 334.99C263.287 316.954 273.307 298.896 283.325 280.814C286.222 275.612 289.499 274.885 294.598 278.417C314.706 292.431 334.736 306.538 354.905 320.489C357.446 322.252 357.134 323.326 355.339 325.289C350.379 330.7 350.457 330.816 344.301 326.518C327.727 314.94 311.177 303.345 294.65 291.735C292.239 290.035 291.138 289.996 289.846 292.655C287.895 296.659 285.675 300.563 283.299 304.373C281.886 306.63 282.033 307.743 284.852 309.011C294.754 313.463 304.448 318.286 314.333 322.754C317.143 324.022 317.264 325.073 315.859 327.392C312.036 333.691 312.166 333.73 305.289 330.484C296.618 326.395 287.895 322.43 279.319 318.201C276.874 316.988 275.99 317.382 274.915 319.515C272.686 323.96 270.319 328.381 267.639 332.656C265.975 335.291 266.946 335.979 269.755 336.706C290.67 342.117 311.515 347.69 332.465 352.938C336.098 353.85 336.471 354.979 335.404 357.885C333.115 364.069 333.271 364.154 326.117 362.291C303.283 356.339 280.45 350.38 257.616 344.412C254.468 343.5 252.092 342.225 251.849 338.986Z" fill="url(#paint77_linear_1091_35822)" fill-opacity="0.28"/>
</g>
<defs>
<filter id="filter0_d_1091_35822" x="0" y="0" width="805.586" height="748.948" filterUnits="userSpaceOnUse" color-interpolation-filters="sRGB">
<feFlood flood-opacity="0" result="BackgroundImageFix"/>
<feColorMatrix in="SourceAlpha" type="matrix" values="0 0 0 0 0 0 0 0 0 0 0 0 0 0 0 0 0 0 127 0" result="hardAlpha"/>
<feOffset/>
<feGaussianBlur stdDeviation="62"/>
<feComposite in2="hardAlpha" operator="out"/>
<feColorMatrix type="matrix" values="0 0 0 0 0.984314 0 0 0 0 0.690196 0 0 0 0 0.231373 0 0 0 1 0"/>
<feBlend mode="normal" in2="BackgroundImageFix" result="effect1_dropShadow_1091_35822"/>
<feBlend mode="normal" in="SourceGraphic" in2="effect1_dropShadow_1091_35822" result="shape"/>
</filter>
<linearGradient id="paint0_linear_1091_35822" x1="402.793" y1="203.544" x2="149.807" y2="904.711" gradientUnits="userSpaceOnUse">
<stop stop-color="#FBC60B"/>
<stop offset="1" stop-color="#FFDE0B"/>
</linearGradient>
<linearGradient id="paint1_linear_1091_35822" x1="377.493" y1="124" x2="373.769" y2="174.038" gradientUnits="userSpaceOnUse">
<stop stop-color="#FBC60B"/>
<stop offset="1" stop-color="#FFDE0B"/>
</linearGradient>
<linearGradient id="paint2_linear_1091_35822" x1="539.59" y1="141.392" x2="508.2" y2="272.214" gradientUnits="userSpaceOnUse">
<stop stop-color="#FBC60B"/>
<stop offset="1" stop-color="#FFDE0B"/>
</linearGradient>
<linearGradient id="paint3_linear_1091_35822" x1="636.959" y1="213.938" x2="567.772" y2="308.679" gradientUnits="userSpaceOnUse">
<stop stop-color="#FBC60B"/>
<stop offset="1" stop-color="#FFDE0B"/>
</linearGradient>
<linearGradient id="paint4_linear_1091_35822" x1="262.939" y1="149.536" x2="240.682" y2="219.006" gradientUnits="userSpaceOnUse">
<stop stop-color="#FBC60B"/>
<stop offset="1" stop-color="#FFDE0B"/>
</linearGradient>
<linearGradient id="paint5_linear_1091_35822" x1="219.15" y1="189.172" x2="212.795" y2="215.535" gradientUnits="userSpaceOnUse">
<stop stop-color="#FBC60B"/>
<stop offset="1" stop-color="#FFDE0B"/>
</linearGradient>
<linearGradient id="paint6_linear_1091_35822" x1="666.883" y1="290.167" x2="660.573" y2="305.822" gradientUnits="userSpaceOnUse">
<stop stop-color="#FBC60B"/>
<stop offset="1" stop-color="#FFDE0B"/>
</linearGradient>
<linearGradient id="paint7_linear_1091_35822" x1="403.107" y1="134.42" x2="76.1331" y2="899.51" gradientUnits="userSpaceOnUse">
<stop stop-color="#FBC60B"/>
<stop offset="1" stop-color="#FFDE0B"/>
</linearGradient>
<linearGradient id="paint8_linear_1091_35822" x1="402.438" y1="206.114" x2="169.698" y2="734.365" gradientUnits="userSpaceOnUse">
<stop stop-color="#FBC60B"/>
<stop offset="1" stop-color="#FFDE0B"/>
</linearGradient>
<linearGradient id="paint9_linear_1091_35822" x1="293.762" y1="188.446" x2="273.792" y2="236.027" gradientUnits="userSpaceOnUse">
<stop stop-color="#FBC60B"/>
<stop offset="1" stop-color="#FFDE0B"/>
</linearGradient>
<linearGradient id="paint10_linear_1091_35822" x1="194.437" y1="302.175" x2="176.847" y2="344.047" gradientUnits="userSpaceOnUse">
<stop stop-color="#FBC60B"/>
<stop offset="1" stop-color="#FFDE0B"/>
</linearGradient>
<linearGradient id="paint11_linear_1091_35822" x1="550.36" y1="509.06" x2="529.41" y2="558.461" gradientUnits="userSpaceOnUse">
<stop stop-color="#FBC60B"/>
<stop offset="1" stop-color="#FFDE0B"/>
</linearGradient>
<linearGradient id="paint12_linear_1091_35822" x1="262.189" y1="510.01" x2="242.283" y2="558.374" gradientUnits="userSpaceOnUse">
<stop stop-color="#FBC60B"/>
<stop offset="1" stop-color="#FFDE0B"/>
</linearGradient>
<linearGradient id="paint13_linear_1091_35822" x1="611.552" y1="421.162" x2="597.729" y2="457.945" gradientUnits="userSpaceOnUse">
<stop stop-color="#FBC60B"/>
<stop offset="1" stop-color="#FFDE0B"/>
</linearGradient>
<linearGradient id="paint14_linear_1091_35822" x1="617.721" y1="330.764" x2="605.102" y2="365.122" gradientUnits="userSpaceOnUse">
<stop stop-color="#FBC60B"/>
<stop offset="1" stop-color="#FFDE0B"/>
</linearGradient>
<linearGradient id="paint15_linear_1091_35822" x1="576.019" y1="480.434" x2="558.813" y2="522.241" gradientUnits="userSpaceOnUse">
<stop stop-color="#FBC60B"/>
<stop offset="1" stop-color="#FFDE0B"/>
</linearGradient>
<linearGradient id="paint16_linear_1091_35822" x1="185.059" y1="382.29" x2="171.816" y2="416.054" gradientUnits="userSpaceOnUse">
<stop stop-color="#FBC60B"/>
<stop offset="1" stop-color="#FFDE0B"/>
</linearGradient>
<linearGradient id="paint17_linear_1091_35822" x1="596.31" y1="272.836" x2="580.065" y2="313.079" gradientUnits="userSpaceOnUse">
<stop stop-color="#FBC60B"/>
<stop offset="1" stop-color="#FFDE0B"/>
</linearGradient>
<linearGradient id="paint18_linear_1091_35822" x1="471.923" y1="553.25" x2="455.542" y2="591.916" gradientUnits="userSpaceOnUse">
<stop stop-color="#FBC60B"/>
<stop offset="1" stop-color="#FFDE0B"/>
</linearGradient>
<linearGradient id="paint19_linear_1091_35822" x1="620.72" y1="353.954" x2="606.974" y2="388.24" gradientUnits="userSpaceOnUse">
<stop stop-color="#FBC60B"/>
<stop offset="1" stop-color="#FFDE0B"/>
</linearGradient>
<linearGradient id="paint20_linear_1091_35822" x1="601.942" y1="443.252" x2="587.449" y2="478.689" gradientUnits="userSpaceOnUse">
<stop stop-color="#FBC60B"/>
<stop offset="1" stop-color="#FFDE0B"/>
</linearGradient>
<linearGradient id="paint21_linear_1091_35822" x1="422.566" y1="169.77" x2="404.911" y2="203.979" gradientUnits="userSpaceOnUse">
<stop stop-color="#FBC60B"/>
<stop offset="1" stop-color="#FFDE0B"/>
</linearGradient>
<linearGradient id="paint22_linear_1091_35822" x1="348.989" y1="557.273" x2="332.926" y2="592.683" gradientUnits="userSpaceOnUse">
<stop stop-color="#FBC60B"/>
<stop offset="1" stop-color="#FFDE0B"/>
</linearGradient>
<linearGradient id="paint23_linear_1091_35822" x1="566.693" y1="234.227" x2="549.903" y2="272.404" gradientUnits="userSpaceOnUse">
<stop stop-color="#FBC60B"/>
<stop offset="1" stop-color="#FFDE0B"/>
</linearGradient>
<linearGradient id="paint24_linear_1091_35822" x1="183.785" y1="359.24" x2="170.615" y2="393.218" gradientUnits="userSpaceOnUse">
<stop stop-color="#FBC60B"/>
<stop offset="1" stop-color="#FFDE0B"/>
</linearGradient>
<linearGradient id="paint25_linear_1091_35822" x1="322.98" y1="549.608" x2="307.144" y2="585.358" gradientUnits="userSpaceOnUse">
<stop stop-color="#FBC60B"/>
<stop offset="1" stop-color="#FFDE0B"/>
</linearGradient>
<linearGradient id="paint26_linear_1091_35822" x1="620.613" y1="378.622" x2="608.166" y2="411.891" gradientUnits="userSpaceOnUse">
<stop stop-color="#FBC60B"/>
<stop offset="1" stop-color="#FFDE0B"/>
</linearGradient>
<linearGradient id="paint27_linear_1091_35822" x1="227.261" y1="477.276" x2="208.384" y2="521.723" gradientUnits="userSpaceOnUse">
<stop stop-color="#FBC60B"/>
<stop offset="1" stop-color="#FFDE0B"/>
</linearGradient>
<linearGradient id="paint28_linear_1091_35822" x1="373.5" y1="170.325" x2="355.438" y2="204.829" gradientUnits="userSpaceOnUse">
<stop stop-color="#FBC60B"/>
<stop offset="1" stop-color="#FFDE0B"/>
</linearGradient>
<linearGradient id="paint29_linear_1091_35822" x1="458.075" y1="173.902" x2="440.017" y2="213.21" gradientUnits="userSpaceOnUse">
<stop stop-color="#FBC60B"/>
<stop offset="1" stop-color="#FFDE0B"/>
</linearGradient>
<linearGradient id="paint30_linear_1091_35822" x1="272.271" y1="207.576" x2="256.664" y2="243.112" gradientUnits="userSpaceOnUse">
<stop stop-color="#FBC60B"/>
<stop offset="1" stop-color="#FFDE0B"/>
</linearGradient>
<linearGradient id="paint31_linear_1091_35822" x1="214.077" y1="461.663" x2="198.041" y2="501.567" gradientUnits="userSpaceOnUse">
<stop stop-color="#FBC60B"/>
<stop offset="1" stop-color="#FFDE0B"/>
</linearGradient>
<linearGradient id="paint32_linear_1091_35822" x1="489.262" y1="185.296" x2="472.373" y2="220.258" gradientUnits="userSpaceOnUse">
<stop stop-color="#FBC60B"/>
<stop offset="1" stop-color="#FFDE0B"/>
</linearGradient>
<linearGradient id="paint33_linear_1091_35822" x1="397.969" y1="168.739" x2="381.429" y2="202.729" gradientUnits="userSpaceOnUse">
<stop stop-color="#FBC60B"/>
<stop offset="1" stop-color="#FFDE0B"/>
</linearGradient>
<linearGradient id="paint34_linear_1091_35822" x1="247.102" y1="227.108" x2="232.459" y2="262.272" gradientUnits="userSpaceOnUse">
<stop stop-color="#FBC60B"/>
<stop offset="1" stop-color="#FFDE0B"/>
</linearGradient>
<linearGradient id="paint35_linear_1091_35822" x1="216.424" y1="259.894" x2="199.829" y2="300.841" gradientUnits="userSpaceOnUse">
<stop stop-color="#FBC60B"/>
<stop offset="1" stop-color="#FFDE0B"/>
</linearGradient>
<linearGradient id="paint36_linear_1091_35822" x1="422.524" y1="562.135" x2="405.927" y2="597.593" gradientUnits="userSpaceOnUse">
<stop stop-color="#FBC60B"/>
<stop offset="1" stop-color="#FFDE0B"/>
</linearGradient>
<linearGradient id="paint37_linear_1091_35822" x1="194.31" y1="427.413" x2="181.122" y2="462.682" gradientUnits="userSpaceOnUse">
<stop stop-color="#FBC60B"/>
<stop offset="1" stop-color="#FFDE0B"/>
</linearGradient>
<linearGradient id="paint38_linear_1091_35822" x1="186.905" y1="337.172" x2="173.684" y2="371.529" gradientUnits="userSpaceOnUse">
<stop stop-color="#FBC60B"/>
<stop offset="1" stop-color="#FFDE0B"/>
</linearGradient>
<linearGradient id="paint39_linear_1091_35822" x1="189.518" y1="403.019" x2="176.33" y2="437.649" gradientUnits="userSpaceOnUse">
<stop stop-color="#FBC60B"/>
<stop offset="1" stop-color="#FFDE0B"/>
</linearGradient>
<linearGradient id="paint40_linear_1091_35822" x1="617.932" y1="400.654" x2="606.443" y2="433.11" gradientUnits="userSpaceOnUse">
<stop stop-color="#FBC60B"/>
<stop offset="1" stop-color="#FFDE0B"/>
</linearGradient>
<linearGradient id="paint41_linear_1091_35822" x1="233.987" y1="246.243" x2="218.562" y2="283.797" gradientUnits="userSpaceOnUse">
<stop stop-color="#FBC60B"/>
<stop offset="1" stop-color="#FFDE0B"/>
</linearGradient>
<linearGradient id="paint42_linear_1091_35822" x1="515.881" y1="538.997" x2="497.713" y2="576.618" gradientUnits="userSpaceOnUse">
<stop stop-color="#FBC60B"/>
<stop offset="1" stop-color="#FFDE0B"/>
</linearGradient>
<linearGradient id="paint43_linear_1091_35822" x1="580.591" y1="257.866" x2="566.047" y2="294.9" gradientUnits="userSpaceOnUse">
<stop stop-color="#FBC60B"/>
<stop offset="1" stop-color="#FFDE0B"/>
</linearGradient>
<linearGradient id="paint44_linear_1091_35822" x1="448.821" y1="559.413" x2="431.585" y2="595.321" gradientUnits="userSpaceOnUse">
<stop stop-color="#FBC60B"/>
<stop offset="1" stop-color="#FFDE0B"/>
</linearGradient>
<linearGradient id="paint45_linear_1091_35822" x1="206.172" y1="285.771" x2="193.961" y2="319.923" gradientUnits="userSpaceOnUse">
<stop stop-color="#FBC60B"/>
<stop offset="1" stop-color="#FFDE0B"/>
</linearGradient>
<linearGradient id="paint46_linear_1091_35822" x1="587.982" y1="460.008" x2="574.251" y2="495.804" gradientUnits="userSpaceOnUse">
<stop stop-color="#FBC60B"/>
<stop offset="1" stop-color="#FFDE0B"/>
</linearGradient>
<linearGradient id="paint47_linear_1091_35822" x1="395.628" y1="563.058" x2="380.138" y2="598.121" gradientUnits="userSpaceOnUse">
<stop stop-color="#FBC60B"/>
<stop offset="1" stop-color="#FFDE0B"/>
</linearGradient>
<linearGradient id="paint48_linear_1091_35822" x1="325.133" y1="184.157" x2="306.434" y2="220.336" gradientUnits="userSpaceOnUse">
<stop stop-color="#FBC60B"/>
<stop offset="1" stop-color="#FFDE0B"/>
</linearGradient>
<linearGradient id="paint49_linear_1091_35822" x1="518.187" y1="197.634" x2="506.176" y2="230.171" gradientUnits="userSpaceOnUse">
<stop stop-color="#FBC60B"/>
<stop offset="1" stop-color="#FFDE0B"/>
</linearGradient>
<linearGradient id="paint50_linear_1091_35822" x1="303.276" y1="538.115" x2="284.986" y2="573.875" gradientUnits="userSpaceOnUse">
<stop stop-color="#FBC60B"/>
<stop offset="1" stop-color="#FFDE0B"/>
</linearGradient>
<linearGradient id="paint51_linear_1091_35822" x1="376.103" y1="561.043" x2="358.937" y2="595.272" gradientUnits="userSpaceOnUse">
<stop stop-color="#FBC60B"/>
<stop offset="1" stop-color="#FFDE0B"/>
</linearGradient>
<linearGradient id="paint52_linear_1091_35822" x1="348.465" y1="173.729" x2="329.564" y2="206.481" gradientUnits="userSpaceOnUse">
<stop stop-color="#FBC60B"/>
<stop offset="1" stop-color="#FFDE0B"/>
</linearGradient>
<linearGradient id="paint53_linear_1091_35822" x1="490.101" y1="544.021" x2="471.268" y2="577.629" gradientUnits="userSpaceOnUse">
<stop stop-color="#FBC60B"/>
<stop offset="1" stop-color="#FFDE0B"/>
</linearGradient>
<linearGradient id="paint54_linear_1091_35822" x1="607.613" y1="302.371" x2="593.661" y2="335.816" gradientUnits="userSpaceOnUse">
<stop stop-color="#FBC60B"/>
<stop offset="1" stop-color="#FFDE0B"/>
</linearGradient>
<linearGradient id="paint55_linear_1091_35822" x1="541.013" y1="215.243" x2="518.752" y2="248.773" gradientUnits="userSpaceOnUse">
<stop stop-color="#FBC60B"/>
<stop offset="1" stop-color="#FFDE0B"/>
</linearGradient>
<linearGradient id="paint56_linear_1091_35822" x1="206.115" y1="444.776" x2="190.336" y2="479.149" gradientUnits="userSpaceOnUse">
<stop stop-color="#FBC60B"/>
<stop offset="1" stop-color="#FFDE0B"/>
</linearGradient>
<linearGradient id="paint57_linear_1091_35822" x1="613.852" y1="321.331" x2="610.665" y2="338.543" gradientUnits="userSpaceOnUse">
<stop stop-color="#FBC60B"/>
<stop offset="1" stop-color="#FFDE0B"/>
</linearGradient>
<linearGradient id="paint58_linear_1091_35822" x1="259.385" y1="218.655" x2="245.92" y2="247.262" gradientUnits="userSpaceOnUse">
<stop stop-color="#FBC60B"/>
<stop offset="1" stop-color="#FFDE0B"/>
</linearGradient>
<linearGradient id="paint59_linear_1091_35822" x1="533.123" y1="209.073" x2="518.054" y2="237.561" gradientUnits="userSpaceOnUse">
<stop stop-color="#FBC60B"/>
<stop offset="1" stop-color="#FFDE0B"/>
</linearGradient>
<linearGradient id="paint60_linear_1091_35822" x1="440.361" y1="172.582" x2="420.297" y2="189.209" gradientUnits="userSpaceOnUse">
<stop stop-color="#FBC60B"/>
<stop offset="1" stop-color="#FFDE0B"/>
</linearGradient>
<linearGradient id="paint61_linear_1091_35822" x1="504.96" y1="192.463" x2="487.178" y2="219.121" gradientUnits="userSpaceOnUse">
<stop stop-color="#FBC60B"/>
<stop offset="1" stop-color="#FFDE0B"/>
</linearGradient>
<linearGradient id="paint62_linear_1091_35822" x1="190.128" y1="319.517" x2="189.399" y2="322.933" gradientUnits="userSpaceOnUse">
<stop stop-color="#FBC60B"/>
<stop offset="1" stop-color="#FFDE0B"/>
</linearGradient>
<linearGradient id="paint63_linear_1091_35822" x1="198.179" y1="319.728" x2="197.951" y2="321.373" gradientUnits="userSpaceOnUse">
<stop stop-color="#FBC60B"/>
<stop offset="1" stop-color="#FFDE0B"/>
</linearGradient>
<linearGradient id="paint64_linear_1091_35822" x1="561.832" y1="538.865" x2="561.72" y2="539.393" gradientUnits="userSpaceOnUse">
<stop stop-color="#FBC60B"/>
<stop offset="1" stop-color="#FFDE0B"/>
</linearGradient>
<linearGradient id="paint65_linear_1091_35822" x1="291.095" y1="209.462" x2="290.686" y2="210.331" gradientUnits="userSpaceOnUse">
<stop stop-color="#FBC60B"/>
<stop offset="1" stop-color="#FFDE0B"/>
</linearGradient>
<linearGradient id="paint66_linear_1091_35822" x1="595.641" y1="280.613" x2="594.99" y2="281.955" gradientUnits="userSpaceOnUse">
<stop stop-color="#FBC60B"/>
<stop offset="1" stop-color="#FFDE0B"/>
</linearGradient>
<linearGradient id="paint67_linear_1091_35822" x1="227.258" y1="251.264" x2="226.442" y2="252.445" gradientUnits="userSpaceOnUse">
<stop stop-color="#FBC60B"/>
<stop offset="1" stop-color="#FFDE0B"/>
</linearGradient>
<linearGradient id="paint68_linear_1091_35822" x1="499.553" y1="385.342" x2="480.808" y2="466.438" gradientUnits="userSpaceOnUse">
<stop stop-color="#FBC60B"/>
<stop offset="1" stop-color="#FFDE0B"/>
</linearGradient>
<linearGradient id="paint69_linear_1091_35822" x1="403.103" y1="244.306" x2="341.051" y2="351.091" gradientUnits="userSpaceOnUse">
<stop stop-color="#FBC60B"/>
<stop offset="1" stop-color="#FFDE0B"/>
</linearGradient>
<linearGradient id="paint70_linear_1091_35822" x1="308.72" y1="385.012" x2="260.881" y2="512.685" gradientUnits="userSpaceOnUse">
<stop stop-color="#FBC60B"/>
<stop offset="1" stop-color="#FFDE0B"/>
</linearGradient>
<linearGradient id="paint71_linear_1091_35822" x1="499.172" y1="283.583" x2="452.227" y2="411.504" gradientUnits="userSpaceOnUse">
<stop stop-color="#FBC60B"/>
<stop offset="1" stop-color="#FFDE0B"/>
</linearGradient>
<linearGradient id="paint72_linear_1091_35822" x1="440.994" y1="474.323" x2="417.732" y2="534.156" gradientUnits="userSpaceOnUse">
<stop stop-color="#FBC60B"/>
<stop offset="1" stop-color="#FFDE0B"/>
</linearGradient>
<linearGradient id="paint73_linear_1091_35822" x1="397.997" y1="478.628" x2="371.98" y2="533.504" gradientUnits="userSpaceOnUse">
<stop stop-color="#FBC60B"/>
<stop offset="1" stop-color="#FFDE0B"/>
</linearGradient>
<linearGradient id="paint74_linear_1091_35822" x1="363.471" y1="473.797" x2="335.416" y2="528.298" gradientUnits="userSpaceOnUse">
<stop stop-color="#FBC60B"/>
<stop offset="1" stop-color="#FFDE0B"/>
</linearGradient>
<linearGradient id="paint75_linear_1091_35822" x1="387.523" y1="445.588" x2="364.709" y2="486.902" gradientUnits="userSpaceOnUse">
<stop stop-color="#FBC60B"/>
<stop offset="1" stop-color="#FFDE0B"/>
</linearGradient>
<linearGradient id="paint76_linear_1091_35822" x1="415.779" y1="444.148" x2="391.826" y2="486.866" gradientUnits="userSpaceOnUse">
<stop stop-color="#FBC60B"/>
<stop offset="1" stop-color="#FFDE0B"/>
</linearGradient>
<linearGradient id="paint77_linear_1091_35822" x1="304.294" y1="276.235" x2="248.168" y2="417.808" gradientUnits="userSpaceOnUse">
<stop stop-color="#FBC60B"/>
<stop offset="1" stop-color="#FFDE0B"/>
</linearGradient>
</defs>
</svg>
