<svg width="142" height="186" viewBox="0 0 142 186" fill="none" xmlns="http://www.w3.org/2000/svg">
<path d="M60.0788 107.298C58.9146 107.481 57.7242 107.405 56.5931 107.073C54.8894 106.516 53.3853 105.473 52.2648 104.074C51.1444 102.674 50.4562 100.978 50.2845 99.1939C50.1889 97.9359 50.2926 96.6707 50.5917 95.445C51.0044 93.3794 51.9468 91.4566 53.3267 89.8651C54.3984 88.7331 55.6943 87.8369 57.1316 87.2337C58.5689 86.6304 60.1162 86.3333 61.6747 86.3613C64.6811 86.4514 67.5936 87.429 70.0455 89.1711C72.9973 91.178 74.7365 93.7803 74.9533 96.4806C74.9749 96.67 74.9582 96.8618 74.9042 97.0446C74.8502 97.2274 74.76 97.3974 74.6389 97.5447C74.5179 97.6919 74.3685 97.8133 74.1996 97.9017C74.0307 97.99 73.8458 98.0435 73.6559 98.059C73.4659 98.0744 73.2747 98.0515 73.0938 97.9917C72.9128 97.9318 72.7458 97.8361 72.6025 97.7104C72.4593 97.5847 72.3428 97.4314 72.2599 97.2598C72.1771 97.0881 72.1296 96.9016 72.1203 96.7112C71.929 94.2405 69.7299 92.3928 68.4431 91.5133C66.4556 90.0919 64.0933 89.2873 61.6513 89.2001C60.494 89.1662 59.3423 89.3741 58.2699 89.8107C57.1974 90.2473 56.2279 90.9028 55.4233 91.7354C54.3678 92.9615 53.6528 94.4432 53.3497 96.0324C53.1152 96.9755 53.0352 97.9504 53.1129 98.9191C53.2311 100.137 53.6979 101.296 54.4574 102.255C55.2169 103.215 56.2369 103.936 57.3953 104.331C58.5344 104.651 59.7469 104.589 60.8476 104.156C61.9483 103.722 62.8767 102.939 63.4909 101.928C63.8397 101.279 64.0183 100.552 64.0101 99.8148C64.0018 99.0779 63.807 98.355 63.4437 97.7138C63.0761 97.1291 62.5408 96.6687 61.9078 96.3927C61.2747 96.1167 60.5731 96.0378 59.8945 96.1663C59.2742 96.3297 58.729 96.7019 58.3508 97.2202C57.9727 97.7384 57.7846 98.3711 57.8182 99.0118C57.8676 99.3185 57.9788 99.6119 58.145 99.8744C58.3112 100.137 58.529 100.363 58.7851 100.539C59.0031 100.713 59.2546 100.841 59.5241 100.915C59.7936 100.988 60.0752 101.006 60.3517 100.966C60.5384 100.917 60.7329 100.908 60.9235 100.937C61.1142 100.966 61.2968 101.034 61.4605 101.136C61.6241 101.238 61.7653 101.372 61.8754 101.53C61.9855 101.689 62.0623 101.868 62.1011 102.056C62.1399 102.245 62.1398 102.44 62.1009 102.629C62.0621 102.818 61.9852 102.997 61.8749 103.155C61.7647 103.313 61.6235 103.447 61.4598 103.549C61.2961 103.651 61.1134 103.719 60.9227 103.748C60.2656 103.871 59.5902 103.857 58.9387 103.707C58.2872 103.557 57.6735 103.274 57.136 102.877C56.559 102.473 56.0717 101.954 55.7044 101.353C55.3371 100.752 55.0979 100.081 55.0015 99.3834C54.8856 98.0527 55.2461 96.724 56.0188 95.6344C56.7915 94.5448 57.9262 93.7651 59.2204 93.4344C60.4806 93.1667 61.7927 93.2914 62.9799 93.7917C64.1672 94.292 65.1727 95.144 65.8613 96.2329C66.4955 97.2985 66.8418 98.5106 66.8663 99.7505C66.8907 100.99 66.5924 102.215 66.0006 103.305C65.3821 104.377 64.5273 105.294 63.5011 105.986C62.475 106.678 61.3045 107.126 60.0788 107.298Z" fill="#FFEEBF"/>
<path d="M81.388 148.629L71.744 150.106C71.357 150.159 70.9645 150.058 70.6518 149.824C70.4992 149.703 70.3729 149.553 70.2806 149.382C70.1883 149.212 70.132 149.024 70.1152 148.83C70.1152 148.83 69.743 144.981 68.8735 140.767C68.3676 138.264 68.5718 135.669 69.4631 133.277C67.6879 131.506 66.6525 129.127 66.5669 126.622C66.5664 124 67.8539 121.409 70.3974 118.921C72.2727 116.994 73.814 114.769 74.9579 112.336C75.0332 112.165 75.1415 112.01 75.2764 111.881C75.4114 111.752 75.5705 111.651 75.7446 111.583C75.9187 111.516 76.1044 111.483 76.2911 111.487C76.4778 111.492 76.6619 111.533 76.8328 111.608C77.0037 111.683 77.1581 111.791 77.2872 111.926C77.4163 112.061 77.5175 112.22 77.5851 112.395C77.6527 112.569 77.6853 112.754 77.6811 112.941C77.677 113.128 77.6361 113.312 77.5607 113.483C76.2672 116.245 74.5147 118.769 72.3776 120.946C70.4113 122.88 69.4057 124.791 69.4005 126.628C69.3952 128.466 70.3197 130.179 72.1447 131.969C72.363 132.188 72.5047 132.471 72.5485 132.777C72.5924 133.083 72.5361 133.395 72.388 133.666C71.4609 135.721 71.2138 138.018 71.6827 140.224C72.2537 143.006 72.6087 145.563 72.8029 147.101L80.9824 145.851C81.3449 145.814 81.7076 145.918 81.9957 146.141C82.2838 146.364 82.4754 146.689 82.5309 147.049C82.5864 147.409 82.5015 147.777 82.2939 148.076C82.0863 148.375 81.7716 148.583 81.415 148.658L81.388 148.629Z" fill="#FFEEBF"/>
<path d="M82.9679 158.251L67.5192 160.624C67.1467 160.676 66.7685 160.58 66.4664 160.356C66.1643 160.132 65.9627 159.798 65.9053 159.426L63.5378 143.966C63.2793 143.133 62.0677 138.522 64.0435 135.205C62.3523 132.551 57.8614 124.437 62.4287 119.375C69.2221 111.832 72.5403 105.277 72.5294 99.3249C72.5333 98.947 72.6871 98.5862 72.957 98.3217C73.227 98.0572 73.5909 97.9108 73.9688 97.9147C74.3467 97.9185 74.7076 98.0724 74.972 98.3423C75.2365 98.6122 75.3829 98.9762 75.3791 99.3541C75.3969 106.035 71.8583 113.234 64.546 121.312C61.329 124.868 65.173 131.987 66.9265 134.429C67.1133 134.688 67.2074 135.003 67.1938 135.322C67.1801 135.641 67.0594 135.946 66.8512 136.188C65.1773 138.123 65.9029 141.963 66.3036 143.254C66.3333 143.321 66.355 143.391 66.3682 143.462L68.5421 157.621L82.5874 155.464C82.7757 155.427 82.9694 155.429 83.157 155.469C83.3445 155.51 83.522 155.587 83.6787 155.698C83.8355 155.808 83.9682 155.95 84.069 156.113C84.1697 156.276 84.2365 156.458 84.2651 156.648C84.2937 156.837 84.2837 157.031 84.2356 157.216C84.1875 157.402 84.1024 157.576 83.9853 157.728C83.8682 157.88 83.7215 158.007 83.5542 158.1C83.3869 158.194 83.2023 158.253 83.0116 158.274L82.9679 158.251Z" fill="#FFEEBF"/>
<path d="M53.8301 169.181C53.4697 169.225 53.1062 169.129 52.8142 168.913C52.5222 168.697 52.3238 168.378 52.2596 168.021C52.1955 167.663 52.2704 167.295 52.4691 166.991C52.6678 166.687 52.9752 166.471 53.3283 166.387C56.4432 165.74 64.767 163.129 65.9247 158.824C66.9414 155.045 68.408 151.4 70.2929 147.97C70.3863 147.809 70.5105 147.668 70.6584 147.555C70.8062 147.442 70.9749 147.359 71.1547 147.312C71.3346 147.264 71.5221 147.252 71.7065 147.277C71.8909 147.301 72.0686 147.362 72.2296 147.456C72.3905 147.549 72.5314 147.673 72.6444 147.821C72.7573 147.969 72.84 148.138 72.8877 148.318C72.9355 148.497 72.9473 148.685 72.9226 148.869C72.8979 149.054 72.8371 149.231 72.7437 149.392C70.9991 152.618 69.6316 156.033 68.6683 159.572C67.8776 162.557 65.0801 165.051 60.3997 167.07C58.3031 167.963 56.128 168.659 53.9025 169.15L53.8301 169.181Z" fill="#FFEEBF"/>
<path d="M47.0115 128.478C43.6104 129.019 40.1538 129.118 36.7273 128.774C36.3547 128.723 36.0173 128.527 35.7881 128.229C35.5589 127.931 35.4562 127.554 35.5023 127.181C35.5255 126.996 35.5852 126.817 35.6781 126.655C35.7709 126.492 35.895 126.35 36.0431 126.236C36.1912 126.122 36.3605 126.039 36.5411 125.991C36.7216 125.943 36.91 125.931 37.0951 125.956C37.2767 125.982 55.6102 128.167 66.051 114.953C66.2884 114.667 66.628 114.486 66.9974 114.448C67.3667 114.409 67.7364 114.517 68.0274 114.747C68.3185 114.978 68.5078 115.313 68.5549 115.681C68.602 116.05 68.5031 116.422 68.2795 116.718C62.0954 124.547 53.6216 127.468 47.0115 128.478Z" fill="#FFEEBF"/>
<path d="M71.1264 80.2127C70.7605 80.2696 70.3868 80.1806 70.0858 79.9648C69.7848 79.749 69.5806 79.4237 69.517 79.0589C68.1162 71.2183 63.2447 68.1173 59.9177 66.9028C60.1623 67.455 60.3419 68.0338 60.4528 68.6275C60.5019 68.7858 60.4985 68.9512 60.5143 69.1199C60.5941 70.8517 60.1955 72.572 59.3622 74.0921C58.5288 75.6123 57.2929 76.8735 55.7899 77.7376C54.486 78.6268 52.9566 79.1277 51.3793 79.1822C49.802 79.2367 48.2417 78.8425 46.8795 78.0455C45.0945 76.8706 43.6069 75.297 42.5341 73.4488C41.4613 71.6005 40.8326 69.5283 40.6977 67.3956C40.5909 66.001 40.7706 64.5994 41.2257 63.2769C41.6809 61.9544 42.4019 60.7391 43.3443 59.7057C44.6591 58.3532 46.2284 57.2743 47.962 56.531C49.6956 55.7878 51.5591 55.3948 53.4452 55.3749C56.7496 55.287 60.0202 56.0589 62.9366 57.6148C65.8531 59.1707 68.3156 61.4574 70.0828 64.251C70.257 64.5699 70.3026 64.9435 70.21 65.295C70.1174 65.6465 69.8937 65.9491 69.5849 66.1408C69.2761 66.3325 68.9056 66.3987 68.5495 66.3257C68.1935 66.2528 67.8788 66.0462 67.6703 65.7485C66.141 63.3937 64.0333 61.4704 61.5486 60.1625C59.0639 58.8547 56.2853 58.2059 53.4784 58.2783C50.4436 58.3171 47.5451 59.5445 45.4053 61.6967C44.7188 62.4503 44.1947 63.3371 43.8655 64.3019C43.5364 65.2667 43.4092 66.2888 43.492 67.3049C43.5951 68.9868 44.0866 70.6219 44.9279 72.0819C45.7692 73.5419 46.9374 74.787 48.3408 75.7196C49.2579 76.2281 50.2996 76.4685 51.3468 76.4133C52.394 76.358 53.4045 76.0094 54.2631 75.4073C55.3095 74.8144 56.1762 73.9498 56.7716 72.9049C57.3671 71.86 57.669 70.6736 57.6456 69.4711C57.637 69.3653 57.6226 69.26 57.6026 69.1557C57.334 67.8639 56.6781 66.6846 55.7224 65.775C55.5275 65.5662 55.3995 65.3039 55.355 65.0217C55.3105 64.7396 55.3515 64.4506 55.4726 64.192C55.5938 63.9333 55.7896 63.7168 56.0348 63.5704C56.28 63.424 56.5635 63.3544 56.8487 63.3704C59.2444 63.6392 61.5584 64.4015 63.6448 65.6093C66.8675 67.459 70.9831 71.2147 72.3098 78.6398C72.3748 79.0107 72.29 79.3922 72.0741 79.7006C71.8581 80.009 71.5287 80.2193 71.158 80.2851L71.1264 80.2127Z" fill="#FFEEBF"/>
<path d="M29.2999 117.761L29.1666 117.803C28.9784 117.813 28.79 117.786 28.6123 117.723C28.4346 117.66 28.2712 117.563 28.1316 117.436C27.992 117.309 27.879 117.156 27.7991 116.986C27.7193 116.815 27.6741 116.63 27.6664 116.442C27.1302 105.647 32.0993 97.2003 42.0005 91.9906C46.7069 89.5737 51.808 88.0186 57.0623 87.3992C57.2542 87.3706 57.4499 87.3816 57.6374 87.4314C57.8249 87.4813 58.0001 87.569 58.1525 87.6891C58.3048 87.8093 58.4309 87.9593 58.5231 88.13C58.6152 88.3007 58.6715 88.4885 58.6884 88.6817C58.7053 88.875 58.6825 89.0697 58.6213 89.2538C58.5602 89.4379 58.462 89.6075 58.3328 89.7523C58.2037 89.897 58.0463 90.0138 57.8703 90.0955C57.6943 90.1771 57.5035 90.2219 57.3096 90.227C52.4089 90.83 47.6525 92.2905 43.2579 94.5416C34.3502 99.2146 30.0218 106.577 30.504 116.255C30.5293 116.612 30.4194 116.964 30.1963 117.244C29.9732 117.523 29.6531 117.708 29.2999 117.761Z" fill="#FFEEBF"/>
<path d="M46.4292 122.12C46.1333 122.161 45.8352 122.183 45.5366 122.187C42.4036 122.246 40.0876 120.051 38.9864 118.74C36.8469 116.12 35.5602 112.908 35.2992 109.535C35.0467 106.27 35.478 102.988 36.5654 99.8988C37.4455 97.26 38.96 93.575 41.9803 92.035C42.3138 91.8836 42.6927 91.8667 43.0383 91.9878C43.3839 92.1089 43.6694 92.3587 43.8354 92.685C44.0015 93.0114 44.0352 93.3893 43.9295 93.7399C43.8239 94.0905 43.5871 94.3868 43.2684 94.5672C41.69 95.3675 40.3948 97.4044 39.2645 100.797C38.2996 103.514 37.9114 106.403 38.1244 109.28C38.338 112.068 39.395 114.725 41.155 116.898C41.6714 117.594 42.3322 118.17 43.0922 118.587C43.8522 119.004 44.6933 119.251 45.558 119.313C46.1592 119.292 46.7488 119.141 47.2861 118.87C47.8233 118.599 48.2955 118.215 48.67 117.744C49.1238 117.209 49.4249 116.561 49.5413 115.869C49.6577 115.177 49.5852 114.467 49.3315 113.812C49.0691 113.247 48.6238 112.786 48.0675 112.505C47.5112 112.223 46.8763 112.138 46.2653 112.261C45.9874 112.362 45.7336 112.52 45.5202 112.724C45.3069 112.929 45.1387 113.176 45.0264 113.449C44.9215 113.668 44.8653 113.907 44.8617 114.149C44.8581 114.391 44.9071 114.632 45.0054 114.853C45.1639 115.187 45.1861 115.57 45.0673 115.92C44.9486 116.27 44.6982 116.56 44.3693 116.728C44.0404 116.897 43.6587 116.931 43.3053 116.823C42.9518 116.715 42.6543 116.473 42.4757 116.15C42.1868 115.556 42.0322 114.906 42.0231 114.246C42.014 113.585 42.1506 112.931 42.423 112.33C42.6995 111.676 43.1144 111.089 43.6393 110.611C44.1642 110.133 44.7866 109.774 45.4636 109.56C46.73 109.248 48.0653 109.387 49.2406 109.952C50.4159 110.517 51.3579 111.474 51.9051 112.658C52.3779 113.795 52.5306 115.04 52.3466 116.258C52.1626 117.476 51.649 118.62 50.8614 119.567C49.7492 120.935 48.1708 121.845 46.4292 122.12Z" fill="#FFEEBF"/>
<path d="M49.9845 127.693C49.6605 127.744 49.3291 127.68 49.0465 127.514C48.7638 127.348 48.5473 127.089 48.4336 126.781C48.3199 126.474 48.316 126.136 48.4225 125.826C48.529 125.516 48.7395 125.252 49.0182 125.08C50.9747 123.879 53.1269 122.426 54.0501 120.367C54.5328 119.195 54.764 117.935 54.7288 116.667C54.7732 115.561 54.6455 114.454 54.3503 113.387C53.8546 111.725 52.78 110.295 51.3213 109.357C49.8625 108.419 48.1159 108.034 46.3979 108.272C44.6798 108.51 43.1039 109.356 41.9556 110.656C40.8072 111.956 40.1624 113.624 40.1378 115.358C40.1525 115.555 40.1261 115.752 40.0604 115.938C39.9947 116.124 39.8911 116.294 39.7561 116.438C39.6212 116.581 39.4578 116.695 39.2765 116.773C39.0951 116.85 38.8997 116.888 38.7026 116.886C38.5055 116.884 38.3111 116.84 38.1316 116.759C37.9522 116.677 37.7917 116.559 37.6602 116.412C37.5288 116.266 37.4293 116.093 37.3681 115.906C37.307 115.718 37.2854 115.52 37.3048 115.324C37.3318 112.907 38.2257 110.579 39.8238 108.765C41.4219 106.951 43.6181 105.771 46.0129 105.439C48.4076 105.108 50.8419 105.647 52.8728 106.958C54.9037 108.27 56.3964 110.267 57.0793 112.586C57.4523 113.93 57.6196 115.322 57.5753 116.716C57.616 118.378 57.307 120.029 56.6684 121.564C55.4154 124.355 52.8515 126.101 50.537 127.531C50.365 127.62 50.1774 127.675 49.9845 127.693Z" fill="#FFEEBF"/>
<path d="M46.1536 92.6925C44.7941 92.9084 43.4034 92.816 42.0844 92.4222C40.7654 92.0283 39.5518 91.3431 38.5333 90.4171C37.4356 89.3777 36.6341 88.065 36.2111 86.6137C35.788 85.1623 35.7586 83.6246 36.1258 82.1582C36.3736 81.1765 36.8856 80.2816 37.6063 79.5706C38.4742 78.8445 39.51 78.3473 40.6192 78.1242C41.3941 77.8919 42.1968 77.7657 43.0055 77.7491C44.1479 77.7558 45.2607 78.1129 46.1938 78.772C47.1269 79.4311 47.8353 80.3606 48.2234 81.4351C48.6116 82.5095 48.6608 83.6771 48.3644 84.7804C48.0681 85.8837 47.4404 86.8695 46.5661 87.6048C45.9432 88.164 45.1631 88.5176 44.3321 88.6177C42.3937 88.8173 40.942 87.377 40.1552 86.6073C39.8874 86.3416 39.7362 85.9804 39.7347 85.6031C39.7333 85.2259 39.8818 84.8635 40.1475 84.5957C40.4133 84.328 40.7745 84.1767 41.1517 84.1753C41.529 84.1738 41.8914 84.3223 42.1591 84.5881C42.57 84.9995 43.4628 85.8459 44.0592 85.8252C44.3141 85.7777 44.5496 85.657 44.737 85.4779C45.162 85.1151 45.4662 84.6313 45.6092 84.0911C45.7522 83.5509 45.727 82.9799 45.5372 82.4544C45.3473 81.9288 45.0017 81.4736 44.5465 81.1495C44.0913 80.8254 43.5481 80.6478 42.9893 80.6404C42.439 80.6632 41.8937 80.7556 41.3667 80.9156C40.7113 81.0385 40.0924 81.3086 39.5567 81.7055C39.2214 82.057 38.9873 82.4926 38.8792 82.9662C38.6398 83.9309 38.6627 84.9421 38.9455 85.895C39.2283 86.8479 39.7608 87.7078 40.4878 88.3857C41.2501 89.0641 42.1628 89.5512 43.1507 89.8069C44.1385 90.0627 45.173 90.0796 46.1687 89.8563C46.5366 89.7736 46.9224 89.8405 47.2411 90.0422C47.5598 90.244 47.7853 90.564 47.868 90.932C47.9507 91.3 47.8838 91.6858 47.682 92.0044C47.4803 92.3231 47.1602 92.5486 46.7923 92.6313C46.5768 92.6434 46.3639 92.6638 46.1536 92.6925Z" fill="#FFEEBF"/>
<path d="M56.5497 58.2569C56.4291 58.276 56.3064 58.2771 56.1854 58.2603C55.008 58.1346 53.8684 57.7704 52.8362 57.19C51.8041 56.6096 50.9009 55.8251 50.1817 54.8843C49.4625 53.9436 48.9424 52.8663 48.653 51.718C48.3636 50.5697 48.311 49.3746 48.4985 48.2053C48.6982 46.8114 49.3314 45.5156 50.3086 44.5016C51.2626 43.635 52.4017 42.9973 53.6392 42.6369C54.6978 42.2362 55.828 42.0597 56.9584 42.1185C57.9893 42.2145 58.9713 42.6034 59.7884 43.2395C60.6054 43.8755 61.2235 44.732 61.5695 45.7079C61.9155 46.6838 61.9751 47.7383 61.7412 48.7469C61.5073 49.7556 60.9897 50.6762 60.2495 51.4002C59.8468 51.8162 59.3614 52.1432 58.8246 52.3602C58.2878 52.5771 57.7115 52.6791 57.1329 52.6596C56.4301 52.6259 55.7592 52.3566 55.2282 51.895C54.6972 51.4334 54.3372 50.8064 54.206 50.1152C53.9621 49.9234 53.789 49.6557 53.7142 49.3544C53.6284 48.9875 53.6918 48.6015 53.8904 48.2813C54.0891 47.961 54.4067 47.7327 54.7736 47.6465C55.003 47.5919 55.2413 47.5858 55.4732 47.6286C55.7052 47.6715 55.9256 47.7623 56.1204 47.8954C56.393 48.1181 56.6148 48.3965 56.7709 48.7119C56.9271 49.0274 57.014 49.3725 57.0258 49.7243C57.1036 49.8024 57.2059 49.8513 57.3154 49.8628C57.4985 49.8539 57.678 49.8084 57.8431 49.7289C58.0083 49.6494 58.1558 49.5376 58.277 49.4C58.6157 49.0496 58.8497 48.6115 58.9529 48.1352C59.056 47.6589 59.0241 47.1633 58.8607 46.7042C58.6974 46.245 58.4091 45.8406 58.0283 45.5365C57.6475 45.2324 57.1893 45.0406 56.7054 44.9828C55.9686 44.9651 55.2357 45.0962 54.5507 45.3683C53.7281 45.5939 52.9646 45.996 52.3132 46.5467C51.7678 47.1409 51.4163 47.8871 51.3056 48.6861C51.1791 49.4722 51.2142 50.2759 51.409 51.0479C51.6037 51.8199 51.9539 52.5442 52.4382 53.1762C52.9225 53.8082 53.5306 54.3349 54.2253 54.7238C54.9201 55.1128 55.6869 55.3559 56.4789 55.4383C56.8219 55.4747 57.14 55.6346 57.3739 55.8881C57.6078 56.1417 57.7415 56.4717 57.7502 56.8165C57.7589 57.1614 57.6419 57.4976 57.421 57.7626C57.2002 58.0276 56.8905 58.2033 56.5497 58.2569Z" fill="#FFEEBF"/>
<path d="M58.4517 44.8702C58.1116 44.9217 57.7644 44.8483 57.4743 44.6634C57.1842 44.4785 56.971 44.1947 56.8741 43.8646C56.7773 43.5346 56.8034 43.1806 56.9476 42.8683C57.0918 42.5559 57.3443 42.3065 57.6583 42.1661C58.0329 42.0027 58.37 41.7642 58.6489 41.4654C58.9277 41.1667 59.1424 40.8139 59.2797 40.429C59.417 40.0441 59.474 39.6351 59.4472 39.2273C59.4204 38.8195 59.3103 38.4215 59.1237 38.0579C58.9581 37.7663 58.7682 37.4891 58.5561 37.2293C58.0272 36.4407 57.2337 35.8673 56.319 35.6126C55.8966 35.5654 55.4692 35.5929 55.0563 35.6939C54.7798 35.7227 54.5149 35.8206 54.2861 35.9786C54.2365 36.0412 54.2019 36.1144 54.185 36.1925C54.168 36.2705 54.1692 36.3515 54.1884 36.429C54.2623 36.7267 54.4251 36.9948 54.6552 37.1976C54.8072 37.3207 54.9322 37.4739 55.0222 37.6476C55.1123 37.8212 55.1656 38.0116 55.1788 38.2068C55.1919 38.402 55.1646 38.5978 55.0986 38.782C55.0327 38.9661 54.9294 39.1347 54.7953 39.2771C54.6611 39.4196 54.4991 39.5328 54.3192 39.6097C54.1393 39.6866 53.9455 39.7256 53.7499 39.7242C53.5542 39.7228 53.361 39.6811 53.1823 39.6016C53.0035 39.5221 52.8431 39.4066 52.711 39.2623C52.0346 38.6455 51.5731 37.8285 51.3939 36.9308C51.2941 36.401 51.3246 35.8548 51.483 35.3395C51.6413 34.8241 51.9226 34.355 52.3027 33.9726C52.9186 33.4087 53.6893 33.0423 54.5155 32.9206C55.2596 32.748 56.0291 32.7136 56.7857 32.819C58.4046 33.1685 59.8329 34.1144 60.7864 35.4686C61.1152 35.8653 61.4065 36.2917 61.6566 36.7422C62.0263 37.4483 62.248 38.2225 62.308 39.0173C62.368 39.8121 62.265 40.6107 62.0054 41.3643C61.7458 42.1179 61.335 42.8106 60.7982 43.3998C60.2615 43.989 59.61 44.4624 58.8838 44.7909C58.7434 44.8342 58.5984 44.8608 58.4517 44.8702Z" fill="#FFEEBF"/>
<path d="M60.7808 88.749C60.4976 88.7954 60.2071 88.7538 59.9482 88.63C59.6893 88.5062 59.4746 88.3061 59.3329 88.0566C58.3527 86.3309 57.89 84.3595 58.0001 82.3779C58.0145 81.8741 58.1097 81.3758 58.282 80.9021C58.6157 80.0894 59.187 79.3964 59.9211 78.9138C60.939 78.1532 62.1856 77.7619 63.4557 77.8044C64.7257 77.847 65.9434 78.3209 66.908 79.148C67.5832 79.7888 68.0439 80.6224 68.2274 81.535C68.4108 82.4475 68.308 83.3944 67.9329 84.2463C67.5002 85.144 66.7464 85.8465 65.8205 86.215C64.8946 86.5835 63.8642 86.591 62.933 86.2362C62.7537 86.1689 62.5898 86.066 62.4512 85.9337C62.3126 85.8014 62.2021 85.6425 62.1265 85.4665C62.0508 85.2905 62.0115 85.101 62.0109 84.9094C62.0103 84.7178 62.0485 84.5281 62.123 84.3516C62.1976 84.1751 62.307 84.0155 62.4448 83.8824C62.5826 83.7493 62.7459 83.6454 62.9248 83.5769C63.1038 83.5085 63.2947 83.4769 63.4861 83.4841C63.6776 83.4912 63.8656 83.5371 64.0389 83.6187C64.2955 83.6884 64.5683 83.6671 64.811 83.5585C65.0536 83.4499 65.2513 83.2607 65.3703 83.0229C65.4872 82.7128 65.51 82.375 65.4357 82.0519C65.3615 81.7289 65.1935 81.4349 64.9529 81.2069C64.46 80.8475 63.8634 80.6583 63.2534 80.6679C62.6434 80.6776 62.0531 80.8856 61.5718 81.2605C61.3022 81.4326 61.0837 81.6739 60.9391 81.9592C60.8795 82.1582 60.8482 82.3647 60.8463 82.5725C60.7645 84.0047 61.0989 85.43 61.8091 86.6763C61.9023 86.8375 61.9626 87.0156 61.9868 87.2002C62.0109 87.3849 61.9982 87.5725 61.9496 87.7522C61.901 87.932 61.8173 88.1003 61.7034 88.2476C61.5895 88.395 61.4476 88.5183 61.2859 88.6106C61.1283 88.6897 60.9567 88.7367 60.7808 88.749Z" fill="#FFEEBF"/>
<path d="M54.7015 140.788C53.562 140.972 52.3935 140.824 51.3359 140.361C50.108 139.771 49.0729 138.844 48.351 137.689C47.8491 137.002 47.4998 136.215 47.3264 135.382C47.153 134.549 47.1595 133.689 47.3454 132.859C47.6176 131.867 48.2148 130.996 49.0412 130.385C49.8676 129.773 50.8753 129.457 51.9029 129.487C52.9304 129.517 53.9182 129.891 54.7079 130.549C55.4975 131.207 56.0433 132.111 56.2578 133.116C56.2965 133.299 56.2989 133.488 56.2647 133.672C56.2305 133.856 56.1605 134.031 56.0586 134.188C55.9567 134.344 55.8249 134.479 55.6707 134.585C55.5166 134.691 55.3431 134.765 55.1603 134.804C54.9774 134.843 54.7886 134.845 54.6048 134.811C54.421 134.777 54.2458 134.707 54.089 134.605C53.9323 134.503 53.7972 134.371 53.6914 134.217C53.5856 134.063 53.5112 133.89 53.4725 133.707C53.3921 133.323 53.185 132.978 52.8844 132.726C52.5837 132.475 52.2072 132.332 51.8154 132.32C51.4235 132.309 51.0393 132.43 50.7246 132.663C50.4099 132.897 50.1831 133.23 50.0807 133.608C50.0083 134.053 50.0288 134.509 50.1407 134.945C50.2527 135.382 50.4538 135.791 50.7313 136.147C51.163 136.846 51.7782 137.413 52.5098 137.787C53.1662 138.04 53.8824 138.095 54.5698 137.945C55.2571 137.795 55.8853 137.447 56.3766 136.943C56.8959 136.375 57.2787 135.696 57.4959 134.957C57.7131 134.219 57.7589 133.44 57.6299 132.682C57.3243 131.027 56.4902 129.517 55.253 128.377C54.7797 127.816 54.1128 127.452 53.3842 127.359C53.01 127.366 52.6478 127.226 52.3763 126.968C52.1048 126.711 51.9459 126.356 51.9341 125.982C51.928 125.796 51.9589 125.611 52.025 125.437C52.0911 125.263 52.1911 125.104 52.3192 124.969C52.4473 124.834 52.6009 124.726 52.7711 124.651C52.9414 124.576 53.1248 124.535 53.3108 124.532C54.0502 124.555 54.7771 124.728 55.4481 125.039C56.1191 125.351 56.7204 125.794 57.2159 126.343C58.9074 127.913 60.0376 129.995 60.4336 132.268C60.6309 133.465 60.5481 134.692 60.1916 135.852C59.8352 137.011 59.2148 138.073 58.3792 138.952C57.3787 139.938 56.0909 140.581 54.7015 140.788Z" fill="#FFEEBF"/>
<path d="M55.4674 164.326C54.5388 164.468 53.5895 164.299 52.7668 163.846C51.9441 163.392 51.294 162.68 50.9173 161.82C50.8195 161.652 50.757 161.466 50.7339 161.273C50.7108 161.08 50.7274 160.884 50.7829 160.698C50.8383 160.512 50.9313 160.339 51.0561 160.19C51.181 160.041 51.335 159.919 51.5087 159.832C51.6825 159.745 51.8722 159.695 52.0662 159.684C52.2602 159.673 52.4544 159.702 52.6367 159.769C52.8191 159.836 52.9858 159.94 53.1265 160.074C53.2672 160.208 53.3789 160.369 53.4548 160.548C53.5207 160.741 53.626 160.918 53.7641 161.068C53.9022 161.218 54.07 161.337 54.2568 161.418C54.4436 161.499 54.6453 161.541 54.849 161.54C55.0527 161.539 55.254 161.495 55.4399 161.412C56.0003 161.227 56.476 160.847 56.7814 160.342C57.0869 159.837 57.202 159.24 57.1061 158.657C56.7734 157.144 55.8829 156.452 54.4697 156.607C52.4537 156.822 50.1174 158.771 50.1078 160.948C50.1057 161.134 50.0669 161.318 49.9936 161.49C49.9203 161.662 49.8139 161.817 49.6805 161.947C49.5471 162.078 49.3893 162.181 49.2161 162.25C49.043 162.32 48.8578 162.354 48.6713 162.352C48.4847 162.35 48.3004 162.311 48.1288 162.238C47.9572 162.165 47.8018 162.058 47.6713 161.925C47.5409 161.792 47.438 161.634 47.3685 161.461C47.2991 161.288 47.2644 161.102 47.2665 160.916C47.3872 159.098 48.1471 157.381 49.4116 156.069C50.6761 154.758 52.3638 153.935 54.1762 153.748C57.0577 153.439 59.2448 155.071 59.8925 158.012C60.1292 159.27 59.9081 160.572 59.2691 161.681C58.6301 162.791 57.6154 163.635 56.4083 164.062C56.1029 164.177 55.7881 164.266 55.4674 164.326Z" fill="#FFEEBF"/>
<path d="M57.6996 157.129C57.3755 157.177 57.045 157.111 56.7639 156.943C56.4827 156.775 56.2682 156.515 56.1566 156.207C56.0449 155.899 56.043 155.562 56.1511 155.253C56.2592 154.944 56.4707 154.682 56.7499 154.51C57.5793 154.02 58.3016 153.367 58.8738 152.592C59.446 151.816 59.8564 150.934 60.0807 149.997C60.2488 149.207 60.1614 148.385 59.831 147.648C59.5007 146.911 58.9445 146.299 58.2431 145.9C56.5498 144.799 54.107 144.58 52.9057 145.418C52.665 145.584 51.9427 146.083 52.3095 147.677C52.4382 148.128 52.6633 148.547 52.9693 148.903C53.2754 149.259 53.655 149.544 54.082 149.739C54.3494 149.878 54.6453 149.954 54.9466 149.96C55.2479 149.966 55.5466 149.903 55.8196 149.775C56.0451 149.668 56.239 149.505 56.3821 149.3C56.5252 149.095 56.6126 148.857 56.6358 148.609C56.6106 148.415 56.6253 148.219 56.6792 148.032C56.733 147.845 56.8247 147.67 56.9487 147.52C57.0727 147.37 57.2262 147.246 57.3998 147.158C57.5734 147.069 57.7634 147.017 57.9579 147.005C58.1524 146.993 58.3473 147.021 58.5305 147.088C58.7137 147.154 58.8813 147.258 59.0229 147.391C59.1644 147.525 59.277 147.687 59.3535 147.866C59.43 148.045 59.4689 148.238 59.4677 148.433C59.4862 149.225 59.2805 150.007 58.8743 150.687C58.4681 151.367 57.8779 151.919 57.1718 152.279C56.515 152.623 55.7863 152.807 55.0448 152.817C54.3034 152.826 53.5702 152.66 52.9049 152.333C52.0797 151.955 51.3493 151.397 50.7667 150.701C50.1841 150.005 49.7641 149.188 49.5371 148.309C49.2511 147.366 49.2651 146.357 49.5772 145.423C49.8894 144.488 50.4842 143.673 51.2795 143.092C53.4437 141.589 57.1013 141.778 59.7908 143.529C60.9733 144.227 61.9072 145.279 62.461 146.536C63.0148 147.792 63.1608 149.191 62.8783 150.535C62.5804 151.864 62.0142 153.118 61.2145 154.221C60.4148 155.324 59.3984 156.251 58.2276 156.947C58.0649 157.041 57.8857 157.103 57.6996 157.129Z" fill="#FFEEBF"/>
<path d="M114.911 165.18L54.8774 174.374C54.5052 174.43 54.1257 174.337 53.8221 174.115C53.5185 173.892 53.3155 173.558 53.2577 173.186L52.5899 168.827C50.7001 168.153 47.0306 165.893 46.2774 158.491C45.4153 149.826 42.9339 136.649 42.9118 136.518L42.8627 136.36C42.8492 136.081 42.2993 129.511 36.8362 128.713C34.2397 128.322 31.8141 126.481 29.994 123.529C26.8153 118.377 24.8811 108.464 28.9603 96.1193C33.961 81.0039 54.5825 24.7436 59.0177 12.6625L58.8887 11.8348C58.8393 11.5235 58.8954 11.2045 59.0482 10.9287C59.2009 10.6529 59.4415 10.4361 59.7317 10.3128C59.9449 10.2195 60.1782 10.1816 60.41 10.2028C60.6264 10.1181 60.8591 10.0833 61.0909 10.1011C61.4069 10.1281 61.705 10.26 61.9374 10.4759C62.1699 10.6917 62.3235 10.9791 62.3739 11.2923L62.5158 12.1617C70.357 22.3606 106.863 69.8638 116.162 82.7889C123.75 93.3496 124.865 103.389 123.382 109.265C122.525 112.627 120.757 115.112 118.41 116.289C113.456 118.693 114.906 125.13 114.963 125.405C114.983 125.453 114.999 125.504 115.01 125.555C115.049 125.68 116.627 139.009 118.375 147.528C119.87 154.818 117.077 158.06 115.445 159.279L116.122 163.636C116.157 163.999 116.051 164.363 115.826 164.65C115.6 164.938 115.273 165.128 114.911 165.18ZM55.8284 171.375L113.055 162.614L112.465 158.769C112.417 158.458 112.474 158.14 112.627 157.864C112.779 157.589 113.019 157.372 113.308 157.247C113.45 157.203 117.061 155.389 115.558 148.073C113.889 139.75 112.295 127.018 112.16 125.937C111.854 124.4 111.794 122.825 111.981 121.27C112.112 119.668 112.659 118.127 113.567 116.801C114.476 115.475 115.714 114.408 117.161 113.707C118.747 112.932 120.005 111.099 120.618 108.57C121.947 103.317 120.871 94.2248 113.848 84.4569C104.9 72.0164 70.6248 27.3742 61.1797 15.0972C55.8461 29.64 36.496 82.4916 31.6838 97.037C27.9192 108.453 29.5992 117.459 32.436 122.068C33.8158 124.307 35.5366 125.673 37.2888 125.933C38.8829 126.163 40.3891 126.807 41.6581 127.799C42.9272 128.791 43.9151 130.097 44.524 131.588C45.167 133.02 45.5812 134.543 45.7514 136.103C45.9445 137.167 48.2744 149.797 49.1302 158.236C49.8938 165.672 53.8788 166.299 54.052 166.327C54.3602 166.36 54.6486 166.495 54.8711 166.71C55.0937 166.926 55.2376 167.21 55.2799 167.517L55.8284 171.375Z" fill="#FFEEBF"/>
<path d="M89.7282 102.711C88.5084 102.915 87.2579 102.837 86.0729 102.483C84.8879 102.128 83.7998 101.507 82.8922 100.667C81.9997 99.8051 81.347 98.7257 80.9984 97.535C80.6497 96.3444 80.6171 95.0834 80.9038 93.8763C81.2341 92.6313 81.9381 91.5174 82.921 90.6849C83.9039 89.8524 85.1184 89.3413 86.4008 89.2204C87.7348 89.15 89.0504 89.5558 90.113 90.3654C91.1755 91.1749 91.916 92.3356 92.2022 93.6404C92.3192 94.3332 92.2916 95.0427 92.1211 95.7244C91.9507 96.406 91.6411 97.045 91.2117 97.6012C90.8175 98.1413 90.3156 98.5939 89.7378 98.9304C89.1599 99.2669 88.5187 99.48 87.8544 99.5564C87.6636 99.5857 87.4689 99.5758 87.2821 99.5274C87.0953 99.4789 86.9203 99.393 86.7677 99.2748C86.6152 99.1565 86.4884 99.0085 86.3949 98.8396C86.3014 98.6708 86.2433 98.4847 86.224 98.2927C86.2048 98.1007 86.2249 97.9067 86.283 97.7227C86.3411 97.5387 86.436 97.3684 86.5621 97.2223C86.6881 97.0761 86.8426 96.9572 87.0161 96.8726C87.1896 96.7881 87.3784 96.7398 87.5712 96.7306C87.844 96.6904 88.1058 96.5948 88.3404 96.4498C88.575 96.3047 88.7774 96.1133 88.9353 95.8872C89.1283 95.642 89.2695 95.3601 89.3502 95.0587C89.431 94.7573 89.4497 94.4427 89.4051 94.1338C89.2462 93.5126 88.8776 92.9653 88.3617 92.5845C87.8458 92.2037 87.2141 92.0127 86.5736 92.0439C85.8868 92.1228 85.2398 92.4069 84.7169 92.8592C84.1941 93.3114 83.8198 93.9109 83.6429 94.5792C83.4891 95.3007 83.5232 96.0497 83.7419 96.7543C83.9605 97.4589 84.3564 98.0956 84.8916 98.6033C85.7808 99.385 86.9014 99.8543 88.0822 99.9397C89.2631 100.025 90.4395 99.722 91.4321 99.0765C92.4189 98.3496 93.1763 97.3548 93.6145 96.2102C94.0527 95.0655 94.1531 93.8192 93.9039 92.6191C93.6813 91.6728 93.311 90.7674 92.8066 89.9363C92.0368 88.5142 90.9128 87.315 89.5434 86.4551C88.5272 85.9033 87.4073 85.5692 86.2549 85.4739C85.1026 85.3786 83.943 85.5242 82.85 85.9015C80.5418 86.7159 78.5252 88.1931 77.0526 90.1483C76.0863 91.3614 74.5317 93.7985 75.1044 96.233C75.1817 96.5982 75.1122 96.9791 74.9111 97.2936C74.7099 97.608 74.3932 97.8307 74.0293 97.9137C73.6654 97.9966 73.2834 97.9332 72.9659 97.737C72.6483 97.5407 72.4207 97.2275 72.332 96.865C71.7389 94.2175 72.6181 91.2228 74.8344 88.4161C76.6478 86.0176 79.1338 84.2129 81.9759 83.2316C83.4504 82.7292 85.0137 82.5412 86.5653 82.6795C88.1168 82.8179 89.6222 83.2796 90.9845 84.035C92.784 85.1362 94.2641 86.6891 95.2776 88.5394C95.9307 89.6266 96.4062 90.8111 96.6861 92.0481C97.0594 93.8035 96.9115 95.6297 96.2603 97.302C95.6092 98.9743 94.4833 100.42 93.0212 101.461C92.0284 102.113 90.9042 102.54 89.7282 102.711Z" fill="#FFEEBF"/>
<path d="M91.4148 147.089L81.7708 148.565C81.5819 148.605 81.387 148.605 81.1979 148.567C81.0088 148.528 80.8295 148.452 80.671 148.342C80.5124 148.232 80.3779 148.091 80.2756 147.927C80.1734 147.763 80.1055 147.581 80.0761 147.39C80.0467 147.199 80.0564 147.004 80.1047 146.818C80.153 146.631 80.2387 146.456 80.3568 146.303C80.4749 146.15 80.6228 146.024 80.7916 145.93C80.9603 145.836 81.1463 145.778 81.3383 145.759L89.5179 144.508C89.2352 142.979 88.811 140.435 88.5279 137.609C88.3258 135.359 87.3945 133.236 85.8756 131.563C85.6525 131.35 85.5055 131.069 85.4571 130.764C85.4086 130.459 85.4614 130.147 85.6073 129.875C86.8051 127.612 87.1474 125.624 86.6194 123.952C86.0914 122.28 84.5355 120.681 82.0729 119.426C79.3719 117.995 76.9347 116.113 74.8661 113.862C74.6174 113.576 74.4926 113.203 74.5191 112.824C74.5457 112.446 74.7214 112.094 75.0075 111.845C75.2937 111.597 75.667 111.472 76.0452 111.498C76.4235 111.525 76.7757 111.701 77.0243 111.987C78.8476 113.961 80.983 115.622 83.3452 116.903C86.5122 118.515 88.5214 120.604 89.3079 123.109C89.9705 125.527 89.6939 128.105 88.5337 130.328C90.1069 132.353 91.0784 134.78 91.337 137.331C91.7552 141.622 92.56 145.364 92.5703 145.397C92.6108 145.586 92.6118 145.782 92.5732 145.971C92.5346 146.161 92.4572 146.341 92.3459 146.499C92.2393 146.656 92.1017 146.789 91.9415 146.89C91.7814 146.992 91.6021 147.06 91.4148 147.089Z" fill="#FFEEBF"/>
<path d="M98.5821 155.861L83.1308 158.226C82.9419 158.266 82.7469 158.266 82.5579 158.227C82.3688 158.189 82.1895 158.112 82.0309 158.002C81.8724 157.892 81.7379 157.751 81.6356 157.588C81.5333 157.424 81.4654 157.241 81.436 157.051C81.4066 156.86 81.4164 156.665 81.4647 156.478C81.5129 156.292 81.5987 156.117 81.7168 155.964C81.8349 155.811 81.9828 155.684 82.1515 155.591C82.3203 155.497 82.5063 155.439 82.6983 155.419L96.7878 153.258L94.6222 139.096C94.6097 139.025 94.6057 138.953 94.6101 138.881C94.603 137.504 94.1289 133.651 91.9579 132.306C91.6895 132.138 91.4848 131.886 91.3761 131.588C91.2673 131.291 91.2608 130.966 91.3575 130.665C92.2999 127.815 93.8293 119.851 89.7079 117.431C80.3179 111.896 74.7852 106.104 72.7965 99.7249C72.7707 99.6569 72.7491 99.5873 72.7319 99.5166L59.4024 12.406C59.3631 12.217 59.3627 12.0221 59.4012 11.833C59.4397 11.6439 59.5162 11.4646 59.6262 11.3061C59.7362 11.1475 59.8773 11.013 60.0409 10.9108C60.2046 10.8085 60.3873 10.7406 60.578 10.7112C60.7687 10.6818 60.9634 10.6915 61.1502 10.7398C61.3371 10.7881 61.5121 10.8739 61.6647 10.9919C61.8174 11.11 61.9443 11.2579 62.0379 11.4267C62.1316 11.5954 62.1899 11.7814 62.2093 11.9734L75.5078 98.9841C77.3048 104.628 82.4104 109.867 91.1163 114.993C96.9872 118.46 95.1309 127.549 94.3088 130.581C97.1909 133.157 97.3998 137.951 97.4024 138.754L99.7698 154.214C99.802 154.4 99.7966 154.591 99.754 154.776C99.7114 154.96 99.6326 155.134 99.522 155.287C99.4113 155.441 99.2713 155.57 99.1099 155.669C98.9485 155.768 98.7691 155.833 98.5821 155.861Z" fill="#FFEEBF"/>
<path d="M114.201 159.921L114.126 159.944C111.857 160.135 109.575 160.122 107.309 159.904C102.234 159.387 98.8209 157.806 97.1697 155.222C95.1849 152.134 92.8459 149.289 90.2003 146.744C89.9495 146.483 89.8074 146.137 89.8029 145.775C89.7985 145.414 89.932 145.064 90.1763 144.797C90.4206 144.531 90.7573 144.367 91.118 144.34C91.4786 144.313 91.836 144.424 92.1175 144.651C94.9311 147.366 97.4086 150.409 99.4968 153.715C101.891 157.456 110.615 157.462 113.776 157.139C114.144 157.103 114.511 157.212 114.8 157.442C115.09 157.672 115.278 158.006 115.325 158.372C115.372 158.739 115.275 159.109 115.053 159.405C114.832 159.702 114.504 159.9 114.139 159.958L114.201 159.921Z" fill="#FFEEBF"/>
<path d="M108.535 119.06C101.917 120.073 92.9601 119.819 84.7199 114.192C84.455 113.963 84.284 113.644 84.2399 113.296C84.1958 112.949 84.2816 112.597 84.4809 112.309C84.6801 112.021 84.9788 111.816 85.3195 111.734C85.6603 111.653 86.0192 111.7 86.3274 111.867C100.232 121.354 117.061 113.775 117.248 113.699C117.589 113.541 117.978 113.525 118.331 113.654C118.684 113.784 118.971 114.048 119.129 114.389C119.287 114.73 119.303 115.12 119.173 115.473C119.044 115.826 118.779 116.112 118.438 116.27C115.272 117.626 111.943 118.563 108.535 119.06Z" fill="#FFEEBF"/>
<path d="M71.0767 80.2196C70.8914 80.2429 70.7034 80.2295 70.5233 80.1802C70.3432 80.1308 70.1745 80.0464 70.0271 79.9319C69.8796 79.8174 69.7561 79.6749 69.6636 79.5126C69.5712 79.3504 69.5116 79.1715 69.4883 78.9862C68.5297 71.5108 71.337 66.6939 73.842 63.9345C75.4708 62.1549 77.4546 60.7365 79.6654 59.771C79.9302 59.6661 80.2206 59.6441 80.4982 59.708C80.7758 59.772 81.0274 59.9188 81.2196 60.1291C81.4147 60.3391 81.5417 60.6032 81.5841 60.8867C81.6264 61.1702 81.582 61.4599 81.4568 61.7178C80.8168 62.8748 80.5429 64.1987 80.6712 65.5147C80.7022 65.6146 80.7332 65.7146 80.7252 65.8358C81.1831 67.959 83.1969 69.8276 85.7357 70.4738C86.7335 70.7942 87.8016 70.8254 88.8164 70.5639C89.8312 70.3023 90.7512 69.7587 91.4698 68.996C92.5326 67.6897 93.2767 66.154 93.6434 64.5104C94.01 62.8668 93.9892 61.1604 93.5824 59.5263C93.3594 58.5296 92.9322 57.5899 92.3277 56.7666C91.7233 55.9433 90.9547 55.2543 90.0705 54.743C87.3741 53.3366 84.2333 53.0452 81.3242 53.9313C78.6234 54.7073 76.1672 56.1643 74.1914 58.1625C72.2156 60.1607 70.7864 62.633 70.0408 65.3424C69.9464 65.7068 69.7113 66.0188 69.3871 66.2101C69.063 66.4015 68.6762 66.4565 68.3115 66.3631C68.1305 66.3173 67.9604 66.2362 67.8109 66.1243C67.6614 66.0124 67.5356 65.872 67.4407 65.7112C67.3458 65.5504 67.2837 65.3724 67.2579 65.1875C67.2322 65.0026 67.2434 64.8144 67.2909 64.6338C68.1461 61.4318 69.8207 58.5078 72.1497 56.1499C74.4787 53.792 77.3818 52.0814 80.573 51.1868C82.3787 50.6415 84.2742 50.458 86.151 50.6468C88.0277 50.8356 89.8487 51.393 91.5096 52.287C92.7163 52.9942 93.7666 53.9394 94.5964 55.0653C95.4263 56.1912 96.0184 57.4741 96.3367 58.8361C96.8504 60.9113 96.8727 63.0777 96.4019 65.163C95.9311 67.2483 94.9801 69.195 93.6247 70.8482C92.5652 72.0173 91.1952 72.861 89.6745 73.2812C88.1537 73.7013 86.5448 73.6805 85.0354 73.2212C83.3429 72.8502 81.7856 72.0193 80.5351 70.8198C79.2846 69.6204 78.3894 68.0991 77.9482 66.4235C77.8965 66.2569 77.85 66.1069 77.8592 65.9305C77.7751 65.3296 77.7609 64.721 77.817 64.1168C75.0046 66.2683 71.2863 70.7102 72.2716 78.6249C72.3212 78.9943 72.2237 79.3683 72.0003 79.6666C71.7768 79.9648 71.4451 80.1634 71.0767 80.2196Z" fill="#FFEEBF"/>
<path d="M122.765 103.602C122.418 103.652 122.064 103.572 121.772 103.378C121.479 103.184 121.268 102.89 121.178 102.55C118.724 93.1096 112.318 87.3884 102.136 85.5424C97.2012 84.7029 92.1581 84.7227 87.2298 85.6009C87.0429 85.6511 86.8477 85.6625 86.6563 85.6346C86.4648 85.6066 86.2811 85.54 86.1163 85.4385C85.9515 85.3371 85.8091 85.2031 85.6979 85.0448C85.5867 84.8865 85.5089 84.7071 85.4695 84.5177C85.43 84.3282 85.4296 84.1328 85.4683 83.9432C85.507 83.7536 85.584 83.5739 85.6945 83.4151C85.8051 83.2563 85.9469 83.1217 86.1112 83.0196C86.2756 82.9176 86.4591 82.8501 86.6504 82.8214C91.9369 81.8577 97.3517 81.8316 102.647 82.7442C113.838 84.752 121.21 91.379 123.925 101.835C123.973 102.016 123.984 102.204 123.959 102.388C123.934 102.573 123.872 102.751 123.778 102.912C123.683 103.073 123.558 103.214 123.409 103.326C123.26 103.438 123.09 103.52 122.909 103.566L122.765 103.602Z" fill="#FFEEBF"/>
<path d="M107.182 112.777C105.463 113.015 103.716 112.619 102.269 111.661C101.234 110.992 100.403 110.053 99.8628 108.946C99.3228 107.839 99.0953 106.605 99.2046 105.378C99.3757 104.082 99.9922 102.885 100.949 101.994C101.905 101.102 103.142 100.571 104.447 100.491C105.159 100.496 105.862 100.655 106.506 100.958C107.15 101.261 107.721 101.701 108.179 102.246C108.619 102.739 108.944 103.323 109.133 103.956C109.321 104.589 109.368 105.255 109.27 105.908C109.184 106.257 108.97 106.56 108.669 106.757C108.369 106.954 108.005 107.03 107.651 106.97C107.297 106.91 106.979 106.718 106.761 106.433C106.542 106.148 106.44 105.791 106.474 105.433C106.502 105.192 106.479 104.947 106.407 104.714C106.335 104.482 106.215 104.267 106.055 104.084C105.869 103.855 105.636 103.668 105.372 103.537C105.107 103.407 104.818 103.335 104.523 103.326C103.902 103.389 103.321 103.661 102.874 104.096C102.427 104.532 102.141 105.106 102.061 105.725C102.016 106.424 102.16 107.122 102.478 107.747C102.795 108.372 103.275 108.899 103.866 109.275C104.367 109.609 104.934 109.833 105.528 109.931C106.122 110.028 106.73 109.998 107.312 109.841C108.112 109.519 108.834 109.028 109.428 108.403C110.021 107.777 110.474 107.031 110.754 106.215C111.783 103.613 111.996 100.759 111.366 98.0331C110.701 95.2305 109.467 92.5947 107.739 90.2896L107.509 89.9592C106.08 87.9731 104.605 85.928 102.589 85.5852C102.218 85.5226 101.886 85.3147 101.667 85.0075C101.448 84.7002 101.361 84.3186 101.423 83.9467C101.486 83.5748 101.694 83.243 102.001 83.0244C102.308 82.8057 102.69 82.718 103.062 82.7807C106.226 83.3241 108.133 85.9658 109.809 88.3047L110.045 88.6242C111.992 91.2407 113.383 94.2288 114.13 97.4038C114.883 100.7 114.615 104.148 113.361 107.288C112.696 108.855 111.146 111.629 108.133 112.518C107.823 112.629 107.505 112.715 107.182 112.777Z" fill="#FFEEBF"/>
<path d="M105.464 119.2C105.275 119.225 105.084 119.217 104.899 119.174C102.269 118.501 99.2944 117.597 97.3033 115.302C96.2431 114.032 95.4583 112.555 94.9988 110.966C94.5334 109.653 94.2754 108.275 94.2342 106.883C94.1972 104.469 95.0264 102.122 96.5714 100.268C98.1165 98.4129 100.275 97.1735 102.656 96.7739C105.036 96.3744 107.481 96.8413 109.547 98.0899C111.613 99.3386 113.163 101.286 113.916 103.58C113.991 103.76 114.028 103.955 114.025 104.151C114.022 104.346 113.978 104.539 113.897 104.718C113.816 104.896 113.699 105.055 113.553 105.186C113.407 105.317 113.236 105.416 113.05 105.477C112.864 105.539 112.667 105.561 112.472 105.543C112.277 105.525 112.088 105.467 111.917 105.372C111.745 105.278 111.595 105.149 111.476 104.994C111.356 104.838 111.271 104.66 111.223 104.47C110.681 102.822 109.567 101.422 108.082 100.525C106.597 99.6279 104.84 99.2923 103.129 99.5792C101.417 99.8661 99.8658 100.756 98.7546 102.089C97.6434 103.421 97.0463 105.108 97.0715 106.843C97.1142 107.948 97.3239 109.041 97.6936 110.084C98.036 111.3 98.6268 112.432 99.4287 113.409C100.93 115.099 103.412 115.827 105.638 116.406C105.954 116.487 106.233 116.675 106.427 116.938C106.621 117.202 106.719 117.524 106.703 117.85C106.688 118.177 106.56 118.488 106.342 118.731C106.124 118.975 105.828 119.136 105.505 119.187L105.464 119.2Z" fill="#FFEEBF"/>
<path d="M98.65 84.6615C98.45 84.7236 98.2294 84.7189 98.0139 84.731C97.649 84.744 97.2931 84.616 97.02 84.3738C96.7468 84.1315 96.5773 83.7934 96.5466 83.4296C96.5159 83.0657 96.6263 82.704 96.855 82.4194C97.0837 82.1347 97.4131 81.949 97.775 81.9006C98.7937 81.817 99.7779 81.4921 100.646 80.9526C101.514 80.4132 102.242 79.6749 102.768 78.7986C103.255 77.9331 103.503 76.9531 103.485 75.9599C103.468 74.9667 103.186 73.9961 102.668 73.1484C102.427 72.7239 102.072 72.3753 101.643 72.142C101.016 71.9254 100.347 71.8548 99.6882 71.9356C99.1377 71.9398 98.59 72.0146 98.0584 72.1582C97.5262 72.3308 97.0594 72.6617 96.7203 73.1067C96.3812 73.5517 96.1861 74.0896 96.1609 74.6485C96.1357 75.2074 96.2818 75.7607 96.5795 76.2344C96.8772 76.7081 97.3124 77.0796 97.8269 77.2993C98.0622 77.4083 98.3219 77.4536 98.5802 77.4309C99.1815 77.3083 99.7504 76.2275 100.02 75.7144C100.107 75.5471 100.225 75.3984 100.369 75.2772C100.513 75.1559 100.679 75.0644 100.859 75.008C101.038 74.9516 101.227 74.9313 101.414 74.9484C101.602 74.9655 101.784 75.0196 101.95 75.1076C102.116 75.1956 102.264 75.3158 102.383 75.4611C102.503 75.6064 102.592 75.7739 102.647 75.9541C102.701 76.1342 102.719 76.3234 102.7 76.5105C102.68 76.6977 102.624 76.8791 102.534 77.0444C102.02 78.0076 101.066 79.8199 99.1512 80.2131C98.3281 80.3593 97.4801 80.2531 96.7185 79.9084C95.6731 79.4664 94.7873 78.7164 94.1791 77.7582C93.5709 76.7999 93.2691 75.6791 93.3141 74.5451C93.359 73.411 93.7486 72.3176 94.4307 71.4105C95.1129 70.5034 96.0553 69.8258 97.1323 69.468C97.9098 69.2419 98.7141 69.1213 99.5238 69.1095C100.65 68.9929 101.787 69.1579 102.833 69.5897C103.741 70.0592 104.5 70.7726 105.025 71.6497C105.817 72.9362 106.252 74.4109 106.284 75.9216C106.316 77.4322 105.944 78.924 105.207 80.2429C104.509 81.4188 103.559 82.4251 102.425 83.1892C101.291 83.9533 100.002 84.4562 98.65 84.6615Z" fill="#FFEEBF"/>
<path d="M78.4206 54.9059C78.08 54.9557 77.7329 54.8803 77.4437 54.6936C77.1545 54.507 76.9429 54.2217 76.848 53.8908C76.7531 53.56 76.7815 53.2059 76.9279 52.8944C77.0742 52.5829 77.3286 52.335 77.6439 52.1967C78.3758 51.8804 79.0353 51.4176 79.5817 50.8369C80.1281 50.2562 80.5499 49.5698 80.8212 48.82C81.0925 48.0702 81.2074 47.2728 81.1591 46.4769C81.1107 45.681 80.8999 44.9034 80.5398 44.192C80.1997 43.454 79.6389 42.8398 78.9348 42.434C78.151 42.101 77.304 41.943 76.4529 41.9711C75.7156 41.9224 74.9759 42.0185 74.2755 42.2539C73.8315 42.4545 73.4524 42.775 73.1807 43.1794C72.909 43.5837 72.7556 44.0559 72.7377 44.5427C72.7198 45.0295 72.8381 45.5117 73.0793 45.9349C73.3206 46.3581 73.6752 46.7056 74.1032 46.9383C74.4201 47.1269 74.7985 47.1834 75.1567 47.0954C75.2636 47.0501 75.3486 46.9647 75.3934 46.8576C75.2972 46.5238 75.2737 46.1733 75.3247 45.8297C75.3757 45.4861 75.4999 45.1575 75.6889 44.8661C75.8368 44.6836 76.02 44.5329 76.2276 44.423C76.4352 44.313 76.6629 44.2462 76.897 44.2263C77.1641 44.2048 77.4319 44.2596 77.669 44.3845C77.9062 44.5093 78.1029 44.699 78.2363 44.9315C78.3697 45.1639 78.4343 45.4296 78.4225 45.6973C78.4107 45.9651 78.3229 46.2239 78.1696 46.4437C78.2525 47.1427 78.0982 47.8493 77.7314 48.4501C77.3646 49.0509 76.8065 49.511 76.1469 49.7567C75.5997 49.9433 75.0196 50.0133 74.4438 49.9624C73.868 49.9114 73.3092 49.7405 72.8034 49.4606C71.8812 48.9917 71.1123 48.2688 70.5873 47.3773C70.0624 46.4857 69.8032 45.4627 69.8405 44.4288C69.8777 43.3949 70.2098 42.3931 70.7975 41.5417C71.3853 40.6903 72.2042 40.0246 73.1578 39.6232C74.2192 39.2276 75.3512 39.0568 76.482 39.1214C77.7731 39.0906 79.0537 39.3591 80.2237 39.9059C81.4616 40.5774 82.4528 41.6266 83.0528 42.9007C83.5821 43.9588 83.8907 45.1134 83.9597 46.2944C84.0288 47.4754 83.8569 48.6581 83.4546 49.7707C83.0522 50.8832 82.4278 51.9022 81.6192 52.7658C80.8107 53.6294 79.8349 54.3195 78.7513 54.7942C78.645 54.8424 78.5342 54.8798 78.4206 54.9059Z" fill="#FFEEBF"/>
<path d="M72.5946 42.7014C72.4685 42.721 72.3404 42.7239 72.2136 42.71C71.4214 42.6175 70.6566 42.3634 69.9665 41.9634C69.2765 41.5634 68.6759 41.026 68.202 40.3844C67.728 39.7429 67.3909 39.0109 67.2113 38.2337C67.0318 37.4566 67.0137 36.6509 67.1582 35.8665C67.2625 35.3589 67.4142 34.8623 67.6113 34.3832C67.9156 33.2043 68.5857 32.1522 69.5255 31.3781C70.4653 30.604 71.6263 30.1477 72.8416 30.0749C73.6666 29.9495 74.5103 30.0687 75.2681 30.418C75.7363 30.6792 76.1356 31.0482 76.4329 31.4944C76.7302 31.9406 76.9169 32.4512 76.9777 32.9839C77.0797 33.9054 76.8813 34.8352 76.4119 35.6347C76.2268 35.9634 75.9188 36.2052 75.5555 36.3068C75.1921 36.4084 74.8034 36.3615 74.4746 36.1765C74.1459 35.9914 73.9041 35.6833 73.8025 35.32C73.7009 34.9567 73.7478 34.568 73.9329 34.2392C74.0999 33.976 74.1798 33.6667 74.161 33.3555C74.154 33.2759 74.1302 33.1987 74.0912 33.1289C74.0523 33.0592 73.999 32.9984 73.935 32.9507C73.6789 32.8756 73.4087 32.8624 73.1466 32.9122C72.7241 32.9352 72.3095 33.0359 71.9236 33.2095C71.1233 33.7223 70.5363 34.5081 70.2716 35.421C70.1378 35.7289 70.0385 36.0507 69.9756 36.3805C69.9044 36.7831 69.9152 37.1959 70.0074 37.5942C70.0996 37.9925 70.2713 38.3681 70.5122 38.6984C70.7591 39.0233 71.0684 39.2957 71.4218 39.4997C71.7752 39.7037 72.1657 39.8352 72.5706 39.8865C72.9065 39.9338 73.2144 40.0996 73.4388 40.3541C73.6631 40.6085 73.7891 40.9348 73.794 41.2739C73.7989 41.6131 73.6824 41.9429 73.4655 42.2037C73.2486 42.4645 72.9456 42.6392 72.6113 42.6962L72.5946 42.7014Z" fill="#FFEEBF"/>
<path d="M83.5121 85.2749C83.3369 85.3001 83.1585 85.2936 82.9855 85.2556C82.6179 85.1743 82.2975 84.9506 82.0947 84.6334C81.8918 84.3162 81.823 83.9315 81.9034 83.5637C82.2123 82.1642 82.1086 80.7052 81.6048 79.3635C81.5363 79.1646 81.4409 78.976 81.3212 78.8029C81.1033 78.5726 80.8244 78.409 80.5171 78.3309C79.9411 78.1222 79.3127 78.1074 78.7276 78.289C78.1425 78.4706 77.6328 78.8384 77.2761 79.3366C77.1124 79.6265 77.0384 79.9585 77.0634 80.2906C77.0884 80.6226 77.2113 80.9398 77.4165 81.202C77.6055 81.3892 77.8523 81.5069 78.1167 81.536C78.3812 81.5651 78.6477 81.5038 78.8728 81.362C79.1625 81.1352 79.5289 81.0296 79.895 81.0673C80.261 81.105 80.5981 81.2832 80.8356 81.5643C81.073 81.8454 81.1922 82.2076 81.1681 82.5748C81.1441 82.9419 80.9786 83.2855 80.7065 83.5332C79.923 84.1471 78.9386 84.4465 77.9459 84.3727C76.9533 84.2989 76.024 83.8573 75.3399 83.1342C74.7268 82.4332 74.3453 81.5598 74.2476 80.6337C74.1499 79.7076 74.3407 78.7739 74.794 77.9603C75.4671 76.8849 76.4854 76.0698 77.6822 75.6486C78.879 75.2275 80.1834 75.2252 81.3817 75.6421C82.2272 75.8871 82.9806 76.3783 83.5458 77.0531C83.8509 77.454 84.0912 77.9004 84.2577 78.3759C84.9519 80.2346 85.0965 82.254 84.6743 84.1927C84.6091 84.4677 84.4639 84.7172 84.2571 84.9098C84.0503 85.1024 83.7911 85.2295 83.5121 85.2749Z" fill="#FFEEBF"/>
<path d="M104.876 133.103C103.484 133.316 102.06 133.079 100.812 132.427C99.7503 131.838 98.8399 131.01 98.1522 130.01C97.4645 129.009 97.0183 127.863 96.8486 126.661C96.5543 124.373 97.0104 122.052 98.1483 120.046C98.4571 119.374 98.8983 118.771 99.4453 118.274C99.9924 117.776 100.634 117.394 101.332 117.149C101.516 117.081 101.711 117.052 101.907 117.063C102.102 117.074 102.293 117.126 102.468 117.214C102.643 117.302 102.797 117.426 102.922 117.577C103.047 117.728 103.139 117.903 103.193 118.091C103.247 118.279 103.261 118.476 103.236 118.67C103.21 118.864 103.144 119.051 103.043 119.218C102.942 119.386 102.807 119.531 102.647 119.644C102.487 119.757 102.306 119.836 102.114 119.875C101.449 120.187 100.922 120.734 100.636 121.412C99.7931 122.866 99.4514 124.558 99.6638 126.225C99.7651 126.989 100.04 127.719 100.469 128.359C100.897 128.999 101.467 129.532 102.133 129.916C102.751 130.26 103.456 130.413 104.16 130.357C104.864 130.301 105.536 130.038 106.091 129.602C106.666 129.024 107.073 128.301 107.269 127.51C107.426 127.089 107.494 126.641 107.47 126.193C107.445 125.745 107.329 125.306 107.127 124.905C106.916 124.574 106.6 124.323 106.229 124.194C105.858 124.065 105.454 124.065 105.083 124.194C104.712 124.323 104.396 124.573 104.184 124.904C103.973 125.236 103.88 125.628 103.92 126.019C103.956 126.393 103.842 126.766 103.603 127.056C103.364 127.346 103.02 127.529 102.646 127.565C102.272 127.601 101.899 127.487 101.609 127.248C101.319 127.01 101.136 126.665 101.1 126.291C100.997 125.266 101.243 124.236 101.799 123.368C102.354 122.5 103.185 121.844 104.159 121.507C105.133 121.17 106.192 121.171 107.165 121.511C108.138 121.85 108.968 122.507 109.521 123.377C109.946 124.105 110.212 124.915 110.3 125.754C110.389 126.592 110.298 127.44 110.035 128.241C109.693 129.559 108.983 130.752 107.988 131.68C107.113 132.451 106.031 132.945 104.876 133.103Z" fill="#FFEEBF"/>
<path d="M111.201 155.791C110.886 155.841 110.566 155.858 110.248 155.84C108.97 155.793 107.751 155.29 106.812 154.422C105.872 153.554 105.275 152.379 105.126 151.109C104.872 148.11 106.468 145.897 109.308 145.335C111.09 144.974 112.942 145.255 114.536 146.127C116.131 147 117.365 148.408 118.022 150.103C118.094 150.285 118.128 150.481 118.122 150.677C118.115 150.873 118.069 151.065 117.984 151.242C117.9 151.419 117.779 151.577 117.631 151.705C117.483 151.833 117.31 151.929 117.122 151.988C116.935 152.046 116.738 152.064 116.543 152.043C116.348 152.021 116.16 151.959 115.99 151.861C115.82 151.763 115.672 151.631 115.556 151.473C115.44 151.315 115.357 151.135 115.314 150.943C114.668 148.86 111.844 147.709 109.855 148.07C108.462 148.347 107.816 149.269 107.966 150.812C108.049 151.396 108.338 151.931 108.781 152.321C109.223 152.711 109.79 152.931 110.38 152.94C110.583 152.963 110.788 152.944 110.984 152.884C111.179 152.823 111.359 152.723 111.513 152.589C111.668 152.456 111.792 152.291 111.88 152.107C111.967 151.922 112.015 151.722 112.021 151.518C112.043 151.326 112.103 151.141 112.199 150.973C112.295 150.806 112.423 150.659 112.577 150.543C112.731 150.427 112.907 150.343 113.094 150.297C113.282 150.251 113.476 150.243 113.666 150.275C113.857 150.306 114.039 150.376 114.201 150.48C114.363 150.584 114.503 150.72 114.611 150.88C114.719 151.04 114.794 151.22 114.83 151.409C114.867 151.598 114.864 151.793 114.823 151.982C114.731 152.93 114.325 153.82 113.669 154.511C113.012 155.201 112.143 155.652 111.201 155.791Z" fill="#FFEEBF"/>
<path d="M106.909 149.598C106.727 149.625 106.542 149.617 106.363 149.576C105.037 149.261 103.79 148.679 102.697 147.865C101.604 147.052 100.689 146.023 100.008 144.843C99.3349 143.646 99.0537 142.268 99.2034 140.903C99.3531 139.538 99.9264 138.254 100.843 137.232C102.892 134.769 106.321 133.486 108.832 134.278C109.769 134.595 110.583 135.198 111.16 136.002C111.737 136.806 112.048 137.77 112.049 138.76C112.095 139.665 111.939 140.569 111.592 141.407C111.246 142.244 110.717 142.994 110.044 143.602C109.513 144.118 108.867 144.503 108.159 144.722C107.451 144.942 106.701 144.991 105.97 144.866C105.187 144.734 104.457 144.383 103.865 143.854C103.273 143.325 102.842 142.64 102.622 141.877C102.553 141.518 102.624 141.147 102.821 140.839C103.018 140.532 103.326 140.312 103.681 140.226C104.036 140.139 104.41 140.192 104.727 140.374C105.043 140.556 105.278 140.853 105.381 141.203C105.477 141.433 105.631 141.635 105.827 141.788C106.024 141.942 106.256 142.042 106.503 142.079C106.802 142.128 107.108 142.106 107.397 142.017C107.686 141.927 107.95 141.771 108.169 141.562C108.515 141.248 108.788 140.862 108.97 140.432C109.152 140.002 109.238 139.537 109.223 139.07C109.091 137.44 108.252 137.179 107.981 137.099C106.572 136.623 104.317 137.597 103.029 139.156C102.478 139.746 102.129 140.496 102.035 141.298C101.94 142.1 102.104 142.911 102.503 143.612C102.998 144.438 103.653 145.157 104.431 145.725C105.208 146.293 106.091 146.7 107.028 146.921C107.343 147.003 107.621 147.191 107.814 147.453C108.007 147.715 108.105 148.036 108.09 148.361C108.076 148.686 107.95 148.997 107.734 149.241C107.518 149.484 107.225 149.646 106.904 149.7L106.909 149.598Z" fill="#FFEEBF"/>
<path d="M94.8699 151.148L69.4868 155.033C69.2979 155.072 69.103 155.073 68.9139 155.034C68.7248 154.996 68.5455 154.919 68.387 154.809C68.2284 154.699 68.0939 154.558 67.9916 154.395C67.8894 154.231 67.8215 154.048 67.7921 153.857C67.7627 153.667 67.7724 153.472 67.8207 153.285C67.869 153.098 67.9547 152.923 68.0728 152.771C68.1909 152.618 68.3388 152.491 68.5076 152.398C68.6763 152.304 68.8623 152.246 69.0543 152.226L94.4457 148.339C94.634 148.302 94.8277 148.304 95.0153 148.344C95.2028 148.384 95.3803 148.462 95.537 148.573C95.6938 148.683 95.8265 148.824 95.9273 148.987C96.0281 149.151 96.0948 149.333 96.1234 149.522C96.1521 149.712 96.142 149.905 96.0939 150.091C96.0458 150.277 95.9607 150.451 95.8436 150.603C95.7265 150.755 95.5798 150.881 95.4125 150.975C95.2452 151.069 95.0606 151.128 94.8699 151.148Z" fill="#FFEEBF"/>
</svg>
