<svg width="198" height="271" viewBox="0 0 198 271" fill="none" xmlns="http://www.w3.org/2000/svg">
<path d="M74.2573 146.001C72.6221 145.364 71.1483 144.372 69.9418 143.097C68.1687 141.101 67.016 138.632 66.6245 135.991C66.2331 133.35 66.62 130.653 67.7379 128.228C68.5588 126.538 69.6414 124.989 70.9456 123.636C73.0261 121.289 75.6811 119.522 78.6501 118.51C80.878 117.858 83.2172 117.677 85.5188 117.98C87.8203 118.282 90.0336 119.061 92.0175 120.266C95.8173 122.637 98.8305 126.08 100.678 130.16C102.969 134.956 103.254 139.609 101.507 143.245C101.393 143.505 101.228 143.739 101.021 143.934C100.814 144.128 100.571 144.279 100.305 144.378C100.038 144.477 99.7551 144.521 99.4716 144.508C99.1881 144.495 98.9101 144.425 98.6541 144.302C98.3981 144.179 98.1694 144.007 97.9815 143.794C97.7937 143.581 97.6505 143.333 97.5606 143.063C97.4706 142.794 97.4357 142.51 97.4579 142.227C97.4801 141.944 97.559 141.668 97.6898 141.416C99.2974 138.094 97.8546 134.068 96.8592 131.971C95.3687 128.651 92.9336 125.844 89.8577 123.9C88.3943 122.988 86.7568 122.392 85.0497 122.149C83.3426 121.906 81.6037 122.022 79.944 122.489C77.6663 123.274 75.6349 124.644 74.0529 126.461C73.0436 127.498 72.2093 128.692 71.5825 129.997C70.8207 131.653 70.5521 133.493 70.8091 135.297C71.066 137.102 71.8375 138.794 73.0313 140.171C74.2564 141.438 75.8623 142.268 77.6038 142.536C79.3453 142.803 81.1265 142.493 82.6753 141.653C83.6111 141.08 84.3863 140.279 84.9286 139.324C85.4708 138.37 85.7625 137.294 85.7762 136.197C85.7419 135.169 85.3988 134.175 84.7915 133.345C84.1842 132.515 83.3409 131.887 82.3716 131.543C81.4509 131.288 80.4704 131.358 79.5951 131.741C78.7199 132.124 78.0032 132.797 77.5658 133.646C77.3993 134.078 77.3221 134.538 77.3391 135.001C77.356 135.463 77.4666 135.917 77.6643 136.335C77.8137 136.724 78.0412 137.077 78.3327 137.374C78.6242 137.67 78.9735 137.904 79.359 138.06C79.6354 138.138 79.8931 138.271 80.1163 138.452C80.3396 138.633 80.5239 138.857 80.6578 139.111C80.7918 139.365 80.8727 139.643 80.8956 139.929C80.9185 140.216 80.883 140.504 80.7911 140.776C80.6993 141.048 80.5531 141.298 80.3614 141.512C80.1697 141.726 79.9365 141.899 79.676 142.019C79.4155 142.14 79.1331 142.207 78.8461 142.215C78.5591 142.223 78.2733 142.173 78.0063 142.068C77.0689 141.732 76.2106 141.208 75.485 140.526C74.7593 139.845 74.1818 139.021 73.7884 138.106C73.3495 137.154 73.1118 136.12 73.0904 135.072C73.0689 134.023 73.2641 132.981 73.6637 132.011C74.5129 130.212 75.9734 128.773 77.7849 127.951C79.5964 127.129 81.6409 126.978 83.5539 127.523C85.3759 128.124 86.9701 129.269 88.122 130.803C89.274 132.338 89.9284 134.188 89.9972 136.105C90.0136 137.952 89.5497 139.771 88.651 141.384C87.7523 142.997 86.4497 144.349 84.8709 145.307C83.271 146.222 81.4835 146.76 79.6443 146.881C77.8051 147.001 75.9628 146.7 74.2573 146.001Z" fill="#FFEEBF"/>
<path d="M70.6617 215.156L57.1483 209.82C56.6103 209.599 56.1814 209.174 55.9549 208.638C55.8489 208.369 55.799 208.081 55.8085 207.792C55.8179 207.503 55.8865 207.219 56.01 206.957C56.01 206.957 58.4185 201.727 60.4622 195.653C61.6889 192.054 63.898 188.87 66.8397 186.46C65.8843 182.851 66.3373 179.014 68.1068 175.727C70.0728 172.354 73.6732 169.986 78.8118 168.694C82.6694 167.623 86.3216 165.916 89.6185 163.645C89.8436 163.481 90.0986 163.364 90.3691 163.299C90.6396 163.234 90.9202 163.223 91.1949 163.267C91.4695 163.311 91.7329 163.408 91.97 163.553C92.207 163.699 92.4131 163.89 92.5765 164.115C92.7398 164.34 92.8572 164.595 92.922 164.865C92.9868 165.136 92.9976 165.416 92.954 165.691C92.9103 165.966 92.813 166.229 92.6675 166.466C92.5221 166.703 92.3314 166.909 92.1063 167.073C88.3696 169.656 84.222 171.588 79.8398 172.785C75.859 173.798 73.1321 175.501 71.7468 177.861C70.3615 180.221 70.2652 183.119 71.27 186.791C71.3868 187.236 71.3564 187.707 71.1834 188.133C71.0104 188.559 70.704 188.918 70.3102 189.156C67.5757 191.104 65.5344 193.874 64.4831 197.062C63.1304 201.07 61.6688 204.625 60.7646 206.749L72.2247 211.278C72.7185 211.502 73.1071 211.908 73.3105 212.411C73.5139 212.914 73.5165 213.476 73.3177 213.981C73.119 214.485 72.7341 214.895 72.2424 215.124C71.7507 215.353 71.1898 215.385 70.6753 215.213L70.6617 215.156Z" fill="#FFEEBF"/>
<path d="M65.4773 228.718L43.8237 220.181C43.3051 219.969 42.8907 219.561 42.6704 219.046C42.45 218.531 42.4414 217.95 42.6464 217.429L51.199 195.765C51.4915 194.5 53.3923 187.659 58.4223 184.875C58.2377 180.192 58.5485 166.384 68.2212 163.299C82.6188 158.693 91.8055 152.75 96.2566 145.085C96.5451 144.602 97.0137 144.253 97.5593 144.115C98.105 143.978 98.683 144.062 99.1662 144.351C99.6494 144.639 99.9983 145.108 100.136 145.653C100.274 146.199 100.189 146.777 99.9005 147.26C94.9116 155.867 84.9584 162.474 69.4917 167.38C62.6858 169.54 62.2898 181.582 62.713 186.039C62.7589 186.513 62.6442 186.988 62.3872 187.388C62.1303 187.788 61.7461 188.09 61.2966 188.245C57.6916 189.479 55.7445 194.962 55.2912 196.924C55.2794 197.032 55.2548 197.138 55.218 197.241L47.3923 217.085L67.0782 224.848C67.3479 224.942 67.5958 225.089 67.8069 225.282C68.018 225.474 68.188 225.707 68.3067 225.967C68.4254 226.227 68.4903 226.508 68.4975 226.794C68.5047 227.079 68.454 227.363 68.3486 227.629C68.2431 227.894 68.0851 228.135 67.8839 228.338C67.6827 228.541 67.4426 228.701 67.178 228.809C66.9134 228.916 66.6298 228.969 66.3442 228.964C66.0586 228.959 65.777 228.897 65.5162 228.78L65.4773 228.718Z" fill="#FFEEBF"/>
<path d="M19.7976 220.922C19.3012 220.708 18.9056 220.312 18.6918 219.815C18.4781 219.319 18.4623 218.759 18.6479 218.251C18.8334 217.743 19.2062 217.326 19.6898 217.084C20.1733 216.842 20.7311 216.794 21.2487 216.951C25.7409 218.455 38.4069 221.342 43.1258 216.673C47.2695 212.573 51.89 208.986 56.8884 205.987C57.1293 205.85 57.3948 205.762 57.6697 205.727C57.9447 205.693 58.2237 205.713 58.4908 205.787C58.758 205.86 59.0081 205.986 59.2268 206.156C59.4455 206.326 59.6285 206.537 59.7654 206.778C59.9024 207.019 59.9905 207.285 60.0249 207.56C60.0592 207.835 60.039 208.114 59.9656 208.381C59.8921 208.648 59.7666 208.898 59.5965 209.117C59.4264 209.335 59.2148 209.518 58.9739 209.655C54.3099 212.496 49.9883 215.863 46.0947 219.692C42.8377 222.94 37.3681 224.049 29.8329 223.134C26.4658 222.71 23.1454 221.974 19.9145 220.936L19.7976 220.922Z" fill="#FFEEBF"/>
<path d="M41.5585 163.445C36.7779 161.588 32.2568 159.123 28.1071 156.11C27.6663 155.764 27.3792 155.259 27.3079 154.704C27.2367 154.148 27.3869 153.587 27.7263 153.142C27.8952 152.921 28.1063 152.735 28.3474 152.596C28.5885 152.457 28.8548 152.367 29.1308 152.332C29.4068 152.297 29.6871 152.316 29.9555 152.39C30.2238 152.464 30.4749 152.59 30.6942 152.761C30.9084 152.93 52.8536 169.495 76.1979 160.329C76.7174 160.14 77.2904 160.162 77.7943 160.389C78.2983 160.617 78.6931 161.033 78.8945 161.548C79.0959 162.063 79.0879 162.636 78.8722 163.145C78.6564 163.654 78.2501 164.059 77.74 164.272C63.9118 169.704 50.8193 167.105 41.5585 163.445Z" fill="#FFEEBF"/>
<path d="M108.791 119.449C108.278 119.248 107.864 118.853 107.639 118.35C107.413 117.846 107.395 117.275 107.587 116.758C111.667 105.621 107.727 97.9769 104.358 93.9184C104.258 94.8123 104.055 95.6916 103.752 96.5385C103.697 96.779 103.568 96.9893 103.462 97.2181C102.266 99.5057 100.462 101.42 98.2497 102.75C96.0372 104.08 93.5011 104.776 90.9195 104.76C88.5751 104.925 86.2318 104.422 84.162 103.309C82.0921 102.196 80.3806 100.518 79.2263 98.4708C77.8114 95.6202 77.0783 92.4799 77.0849 89.2975C77.0914 86.1151 77.8373 82.9778 79.2639 80.1331C80.1726 78.259 81.4553 76.5908 83.033 75.231C84.6107 73.8713 86.4499 72.8488 88.4375 72.2264C91.1435 71.473 93.9717 71.2625 96.7594 71.6069C99.547 71.9513 102.239 72.8439 104.68 74.2332C108.997 76.5993 112.625 80.0458 115.21 84.2354C117.794 88.4249 119.246 93.2138 119.424 98.1332C119.409 98.6743 119.187 99.189 118.804 99.5717C118.421 99.9543 117.906 100.176 117.365 100.191C116.824 100.206 116.298 100.013 115.895 99.6519C115.491 99.2909 115.242 98.7892 115.197 98.2498C114.996 94.0732 113.728 90.0179 111.513 86.4714C109.297 82.9249 106.21 80.0058 102.545 77.993C98.6117 75.7663 93.9624 75.1706 89.595 76.3339C88.1466 76.7883 86.8071 77.5358 85.6599 78.53C84.5126 79.5241 83.5822 80.7437 82.9264 82.1127C81.7972 84.3536 81.2028 86.8258 81.1897 89.3351C81.1766 91.8444 81.7452 94.3225 82.8509 96.5751C83.6492 97.9173 84.8089 99.0079 86.1974 99.7225C87.5859 100.437 89.1474 100.747 90.7036 100.616C92.4944 100.639 94.2581 100.177 95.8079 99.2793C97.3578 98.3818 98.6364 97.0821 99.5083 95.5178C99.5766 95.3751 99.6371 95.2288 99.6896 95.0796C100.313 93.2164 100.354 91.2074 99.8072 89.3202C99.7131 88.9054 99.7454 88.472 99.8998 88.0757C100.054 87.6794 100.324 87.3383 100.674 87.0965C101.023 86.8547 101.438 86.7231 101.863 86.7187C102.288 86.7143 102.705 86.8374 103.06 87.072C105.94 89.215 108.345 91.9317 110.123 95.0506C112.881 99.8479 115.358 107.767 111.494 118.314C111.299 118.84 110.904 119.267 110.395 119.501C109.885 119.736 109.304 119.759 108.778 119.566L108.791 119.449Z" fill="#FFEEBF"/>
<path d="M26.8171 136.372L26.6146 136.325C26.3646 136.197 26.1425 136.021 25.9611 135.807C25.7798 135.593 25.6429 135.344 25.5583 135.077C25.4738 134.809 25.4433 134.527 25.4687 134.248C25.494 133.968 25.5747 133.696 25.7061 133.448C33.1143 119.16 45.8437 112.022 62.4889 112.749C70.3565 113.17 78.085 114.997 85.3089 118.142C85.5772 118.249 85.8207 118.41 86.0244 118.615C86.2282 118.82 86.3879 119.064 86.4937 119.333C86.5995 119.602 86.6492 119.889 86.6397 120.178C86.6302 120.467 86.5617 120.75 86.4384 121.012C86.3152 121.273 86.1398 121.506 85.923 121.697C85.7062 121.888 85.4527 122.033 85.1779 122.122C84.9032 122.211 84.6131 122.244 84.3254 122.217C84.0378 122.19 83.7588 122.104 83.5054 121.965C76.7489 119.064 69.5346 117.375 62.1926 116.973C47.228 116.302 36.1367 122.525 29.4961 135.337C29.2612 135.815 28.8551 136.186 28.3587 136.378C27.8623 136.57 27.3119 136.567 26.8171 136.372Z" fill="#FFEEBF"/>
<path d="M45.5776 154.827C45.1666 154.657 44.7664 154.462 44.3792 154.244C40.3049 151.969 38.9723 147.408 38.5398 144.894C37.7531 139.919 38.5075 134.822 40.7018 130.288C42.8267 125.898 45.8437 122 49.5601 118.841C52.6719 116.107 57.3847 112.503 62.4254 112.788C62.9679 112.843 63.4681 113.106 63.8218 113.521C64.1755 113.936 64.3554 114.472 64.3241 115.016C64.2928 115.56 64.0527 116.072 63.6538 116.443C63.2549 116.815 62.728 117.019 62.1827 117.012C59.5518 116.857 56.3576 118.506 52.3585 122.021C49.0784 124.794 46.4116 128.219 44.5279 132.078C42.711 135.825 42.0774 140.036 42.7113 144.152C42.8532 145.435 43.2709 146.672 43.9358 147.778C44.6007 148.885 45.497 149.834 46.5633 150.562C47.3525 150.986 48.2242 151.234 49.1185 151.289C50.0128 151.343 50.9083 151.204 51.7433 150.879C52.7287 150.531 53.6018 149.923 54.2708 149.121C54.9397 148.318 55.3796 147.349 55.544 146.317C55.6307 145.393 55.4034 144.466 54.899 143.687C54.3945 142.908 53.6422 142.321 52.7635 142.021C52.3304 141.942 51.8855 141.955 51.4576 142.058C51.0296 142.161 50.6279 142.353 50.2784 142.62C49.9795 142.823 49.7281 143.088 49.5415 143.397C49.355 143.706 49.2378 144.052 49.198 144.411C49.1514 144.959 48.893 145.468 48.4776 145.829C48.0623 146.19 47.5227 146.375 46.9731 146.346C46.4235 146.316 45.9071 146.073 45.5334 145.669C45.1598 145.265 44.9581 144.731 44.9713 144.181C45.045 143.2 45.3339 142.248 45.8175 141.392C46.3011 140.536 46.9675 139.797 47.7692 139.227C48.6155 138.593 49.5892 138.15 50.6233 137.929C51.6573 137.707 52.7271 137.713 53.7588 137.945C55.6216 138.494 57.2353 139.674 58.3231 141.283C59.411 142.892 59.9052 144.829 59.7211 146.762C59.476 148.58 58.7383 150.296 57.588 151.725C56.4377 153.154 54.9185 154.24 53.1949 154.868C50.7376 155.793 48.0249 155.779 45.5776 154.827Z" fill="#FFEEBF"/>
<path d="M45.9698 164.665C45.5154 164.486 45.1366 164.156 44.8978 163.73C44.6589 163.304 44.5746 162.809 44.659 162.328C44.7435 161.847 44.9916 161.41 45.3613 161.091C45.7309 160.772 46.1995 160.591 46.6876 160.577C50.1054 160.501 53.9642 160.246 56.696 158.29C58.1964 157.145 59.4394 155.697 60.3448 154.04C61.232 152.65 61.8979 151.131 62.3188 149.536C62.9282 147.026 62.6184 144.381 61.4458 142.08C60.2731 139.778 58.3151 137.973 55.9262 136.991C53.5374 136.008 50.8757 135.914 48.4233 136.724C45.9709 137.535 43.8898 139.197 42.5571 141.41C42.4285 141.674 42.2465 141.908 42.0225 142.098C41.7986 142.287 41.5377 142.429 41.2563 142.512C40.9749 142.596 40.6793 142.62 40.3881 142.583C40.0969 142.546 39.8165 142.449 39.5648 142.298C39.313 142.147 39.0954 141.946 38.9258 141.706C38.7561 141.467 38.6381 141.195 38.5792 140.907C38.5203 140.62 38.5218 140.323 38.5837 140.036C38.6455 139.749 38.7664 139.478 38.9385 139.24C40.7869 136.151 43.6829 133.827 47.0996 132.693C50.5164 131.558 54.2269 131.688 57.5563 133.058C60.8857 134.428 63.6127 136.947 65.2413 140.158C66.8699 143.369 67.2919 147.058 66.4305 150.553C65.9023 152.562 65.0728 154.478 63.9702 156.238C62.7758 158.406 61.1391 160.299 59.1662 161.794C55.4605 164.445 50.8529 164.767 46.8022 164.871C46.5141 164.856 46.2315 164.786 45.9698 164.665Z" fill="#FFEEBF"/>
<path d="M67.3061 116.769C65.3952 116.026 63.6756 114.864 62.2743 113.368C60.873 111.872 59.8259 110.08 59.2104 108.125C58.5782 105.964 58.532 103.674 59.0766 101.49C59.6212 99.3054 60.737 97.3052 62.3095 95.6943C63.3647 94.6174 64.6948 93.8503 66.1553 93.4764C67.8164 93.1935 69.5219 93.3309 71.1162 93.8761C72.2872 94.1586 73.4145 94.5985 74.4673 95.1838C75.9318 96.0495 77.0955 97.3436 77.8013 98.8915C78.5071 100.439 78.721 102.167 78.4143 103.84C78.1076 105.513 77.2949 107.052 76.0859 108.249C74.877 109.446 73.3299 110.243 71.6536 110.533C70.4328 110.785 69.164 110.655 68.0199 110.16C65.3766 108.963 64.5898 106.021 64.155 104.441C64.0099 103.898 64.0863 103.32 64.3675 102.833C64.6487 102.347 65.1116 101.992 65.6543 101.847C66.197 101.702 66.7752 101.778 67.2616 102.06C67.7479 102.341 68.1027 102.804 68.2478 103.346C68.4676 104.184 68.9812 105.942 69.7639 106.363C70.1274 106.493 70.5209 106.515 70.8963 106.425C71.7152 106.277 72.4696 105.883 73.0588 105.295C73.648 104.708 74.044 103.954 74.194 103.136C74.344 102.317 74.241 101.473 73.8985 100.714C73.5561 99.9557 72.9905 99.3197 72.2773 98.891C71.5523 98.5074 70.7815 98.2173 69.9835 98.0276C69.0483 97.6941 68.0495 97.5773 67.0625 97.6859C66.3675 97.8865 65.7397 98.2712 65.2453 98.7993C64.2135 99.8607 63.4844 101.179 63.1333 102.617C62.7823 104.055 62.8221 105.56 63.2487 106.978C63.7203 108.422 64.5291 109.734 65.608 110.804C66.6868 111.874 68.0049 112.672 69.4532 113.131C69.9886 113.301 70.4347 113.677 70.6933 114.175C70.9519 114.674 71.0019 115.255 70.8322 115.79C70.6625 116.326 70.287 116.772 69.7885 117.03C69.2899 117.289 68.709 117.339 68.1736 117.169C67.8873 117.023 67.5982 116.889 67.3061 116.769Z" fill="#FFEEBF"/>
<path d="M106.514 80.2692C106.344 80.2033 106.185 80.1127 106.042 80.0003C104.622 78.9552 103.429 77.6318 102.537 76.1108C101.645 74.5898 101.071 72.903 100.852 71.1533C100.633 69.4036 100.772 67.6275 101.261 65.9333C101.75 64.2391 102.579 62.6622 103.698 61.2987C105 59.6554 106.787 58.4636 108.805 57.8923C110.682 57.4932 112.626 57.5275 114.488 57.9923C116.15 58.271 117.737 58.8918 119.147 59.8155C120.401 60.7124 121.372 61.9495 121.946 63.3806C122.52 64.8118 122.673 66.3772 122.386 67.8922C122.099 69.4072 121.384 70.8084 120.327 71.9304C119.269 73.0525 117.912 73.8485 116.417 74.2245C115.587 74.4575 114.717 74.5141 113.864 74.3904C113.011 74.2667 112.193 73.9655 111.463 73.5064C110.584 72.9358 109.923 72.086 109.587 71.0939C109.25 70.1017 109.257 69.0251 109.607 68.0375C109.437 67.6077 109.415 67.1335 109.545 66.6899C109.71 66.1535 110.081 65.7045 110.577 65.4416C111.073 65.1787 111.652 65.1233 112.189 65.2876C112.525 65.3894 112.836 65.5604 113.102 65.7895C113.369 66.0186 113.584 66.3009 113.735 66.6181C113.918 67.1091 113.995 67.6337 113.959 68.1566C113.923 68.6795 113.776 69.1888 113.527 69.6502C113.569 69.8089 113.664 69.9485 113.796 70.0456C114.038 70.1715 114.303 70.2476 114.575 70.2693C114.847 70.2909 115.121 70.2577 115.38 70.1717C116.079 69.9749 116.709 69.587 117.199 69.0517C117.689 68.5164 118.019 67.8549 118.154 67.1417C118.288 66.4285 118.22 65.6919 117.959 65.015C117.697 64.3381 117.252 63.7478 116.672 63.3104C115.738 62.7347 114.697 62.3536 113.611 62.1897C112.384 61.8628 111.1 61.8073 109.849 62.027C108.702 62.3821 107.69 63.0784 106.948 64.0232C106.195 64.9395 105.638 65.9997 105.309 67.1389C104.98 68.2782 104.888 69.4725 105.036 70.6489C105.185 71.8252 105.572 72.9589 106.174 73.9805C106.776 75.0021 107.58 75.8901 108.537 76.5902C108.951 76.8944 109.24 77.3387 109.351 77.8404C109.462 78.342 109.386 78.8668 109.139 79.317C108.891 79.7671 108.488 80.1119 108.005 80.2871C107.522 80.4623 106.992 80.4559 106.514 80.2692Z" fill="#FFEEBF"/>
<path d="M119.002 64.4763C118.525 64.2875 118.134 63.9325 117.899 63.477C117.665 63.0215 117.604 62.4965 117.727 61.9992C117.85 61.502 118.149 61.0662 118.569 60.7726C118.988 60.479 119.5 60.3476 120.01 60.4026C120.614 60.4733 121.227 60.4195 121.81 60.2444C122.392 60.0693 122.933 59.7766 123.399 59.3844C123.864 58.9923 124.244 58.5089 124.516 57.9642C124.787 57.4195 124.944 56.8249 124.977 56.2172C124.982 55.7178 124.946 55.2188 124.868 54.7254C124.78 53.3142 124.189 51.9813 123.203 50.9674C122.695 50.5898 122.125 50.3045 121.518 50.1247C121.141 49.9542 120.727 49.8815 120.314 49.9131C120.203 49.9564 120.104 50.0246 120.023 50.1124C119.943 50.2001 119.884 50.3051 119.85 50.4192C119.722 50.8576 119.73 51.3246 119.874 51.7581C119.977 52.0305 120.023 52.3213 120.009 52.6123C119.994 52.9033 119.92 53.1882 119.79 53.4492C119.661 53.7101 119.479 53.9415 119.256 54.1289C119.033 54.3163 118.773 54.4557 118.494 54.5383C118.215 54.6209 117.921 54.645 117.632 54.609C117.343 54.573 117.064 54.4778 116.814 54.3292C116.563 54.1806 116.346 53.9819 116.176 53.7456C116.005 53.5092 115.886 53.2402 115.824 52.9555C115.417 51.6546 115.436 50.2575 115.879 48.9682C116.148 48.2118 116.597 47.5322 117.187 46.988C117.778 46.4438 118.491 46.0514 119.267 45.8446C120.483 45.5813 121.749 45.6882 122.903 46.1514C123.99 46.4877 125.005 47.0207 125.9 47.7239C127.72 49.388 128.848 51.6763 129.058 54.1337C129.184 54.8908 129.238 55.6578 129.222 56.4249C129.168 57.6106 128.872 58.7728 128.353 59.8402C127.834 60.9076 127.103 61.8578 126.203 62.6325C125.304 63.4071 124.256 63.9899 123.123 64.3452C121.991 64.7004 120.798 64.8207 119.617 64.6985C119.404 64.6489 119.197 64.5743 119.002 64.4763Z" fill="#FFEEBF"/>
<path d="M89.0728 122.666C88.6738 122.513 88.3311 122.242 88.091 121.888C87.8509 121.535 87.7248 121.116 87.7297 120.689C87.7634 117.734 88.6472 114.851 90.2754 112.384C90.672 111.747 91.1682 111.177 91.7453 110.697C92.7842 109.902 94.039 109.439 95.3454 109.369C97.2255 109.154 99.1227 109.586 100.725 110.594C102.326 111.601 103.537 113.124 104.158 114.912C104.545 116.243 104.513 117.661 104.064 118.972C103.615 120.284 102.773 121.425 101.651 122.239C100.421 123.069 98.9243 123.408 97.4569 123.187C95.9894 122.967 94.6582 122.203 93.7266 121.048C93.5464 120.827 93.4127 120.572 93.3336 120.297C93.2546 120.023 93.2317 119.736 93.2665 119.453C93.3012 119.17 93.3928 118.896 93.5358 118.65C93.6787 118.403 93.8701 118.187 94.0984 118.016C94.3268 117.845 94.5873 117.722 94.8644 117.654C95.1415 117.586 95.4295 117.575 95.711 117.621C95.9926 117.667 96.2619 117.77 96.5028 117.923C96.7437 118.076 96.9512 118.276 97.1129 118.511C97.3907 118.793 97.7576 118.97 98.1512 119.012C98.5449 119.055 98.941 118.96 99.2725 118.743C99.6556 118.432 99.9383 118.014 100.085 117.543C100.232 117.072 100.236 116.568 100.098 116.094C99.7335 115.262 99.1081 114.571 98.3161 114.126C97.5241 113.68 96.6087 113.505 95.7083 113.626C95.2324 113.645 94.7704 113.792 94.3703 114.05C94.1442 114.262 93.9491 114.504 93.7908 114.77C92.6111 116.551 91.972 118.635 91.9506 120.771C91.9495 121.048 91.8935 121.323 91.786 121.578C91.6785 121.834 91.5216 122.066 91.3242 122.261C91.1268 122.455 90.8928 122.609 90.6358 122.713C90.3787 122.817 90.1036 122.869 89.8263 122.867C89.5644 122.85 89.3082 122.782 89.0728 122.666Z" fill="#FFEEBF"/>
<path d="M42.2176 185.051C40.6137 184.433 39.2216 183.366 38.2079 181.977C37.0713 180.297 36.435 178.328 36.3732 176.3C36.2431 175.04 36.3837 173.766 36.7855 172.564C37.1874 171.363 37.8413 170.261 38.7034 169.332C39.7972 168.261 41.219 167.589 42.7407 167.422C44.2624 167.256 45.796 167.605 47.0955 168.414C48.3951 169.223 49.3852 170.445 49.9073 171.884C50.4294 173.323 50.4532 174.896 49.9748 176.35C49.8874 176.614 49.7489 176.859 49.567 177.07C49.3852 177.281 49.1636 177.453 48.9149 177.579C48.6662 177.704 48.3953 177.779 48.1177 177.799C47.84 177.82 47.5611 177.785 47.2967 177.698C47.0324 177.61 46.7878 177.472 46.577 177.29C46.3662 177.108 46.1933 176.887 46.0682 176.638C45.943 176.389 45.8681 176.118 45.8476 175.841C45.8272 175.563 45.8616 175.284 45.9489 175.02C46.1335 174.466 46.1261 173.866 45.9281 173.317C45.7301 172.768 45.3529 172.302 44.8575 171.993C44.362 171.684 43.777 171.552 43.1969 171.616C42.6167 171.681 42.0752 171.939 41.6596 172.349C41.2326 172.867 40.9174 173.468 40.7337 174.114C40.5501 174.76 40.5019 175.436 40.5923 176.102C40.6231 177.325 40.9889 178.516 41.6497 179.546C42.304 180.364 43.1841 180.973 44.1808 181.295C45.1775 181.618 46.2469 181.641 47.2567 181.362C48.351 181.021 49.3531 180.434 50.1865 179.647C51.0199 178.86 51.6628 177.893 52.0662 176.82C52.914 174.463 52.9742 171.894 52.2378 169.5C52.0503 168.422 51.465 167.454 50.5979 166.788C50.1107 166.517 49.75 166.064 49.5941 165.529C49.4382 164.994 49.4997 164.419 49.7653 163.929C49.8969 163.685 50.0757 163.47 50.2912 163.295C50.5067 163.121 50.7547 162.992 51.0207 162.914C51.2867 162.837 51.5654 162.813 51.8407 162.844C52.116 162.875 52.3823 162.961 52.6243 163.096C53.5576 163.681 54.3633 164.448 54.9929 165.352C55.6226 166.256 56.0633 167.278 56.2887 168.356C57.2867 171.645 57.1792 175.17 55.9829 178.392C55.3386 180.08 54.3119 181.595 52.9833 182.82C51.6547 184.044 50.0604 184.944 48.3255 185.449C46.2988 185.966 44.16 185.827 42.2176 185.051Z" fill="#FFEEBF"/>
<path d="M25.5446 215.903C24.244 215.388 23.1496 214.459 22.4313 213.259C21.713 212.058 21.4109 210.655 21.5719 209.265C21.5719 208.976 21.6313 208.69 21.7463 208.424C21.8612 208.159 22.0294 207.919 22.2404 207.721C22.4515 207.523 22.7008 207.371 22.9731 207.273C23.2454 207.175 23.5349 207.134 23.8237 207.152C24.1125 207.171 24.3944 207.248 24.6522 207.38C24.9099 207.511 25.1379 207.694 25.3221 207.917C25.5064 208.14 25.643 208.399 25.7234 208.677C25.8039 208.955 25.8265 209.246 25.7899 209.533C25.7301 209.831 25.7329 210.137 25.7982 210.434C25.8635 210.73 25.9898 211.009 26.1691 211.254C26.3485 211.499 26.5768 211.703 26.8396 211.855C27.1025 212.006 27.394 212.101 27.6956 212.134C28.5556 212.316 29.4521 212.184 30.224 211.764C30.9958 211.343 31.5921 210.661 31.9056 209.84C32.6132 207.643 31.9866 206.085 30.0521 205.225C27.2979 203.989 22.8303 204.743 21.1849 207.536C21.0422 207.774 20.854 207.982 20.631 208.148C20.408 208.314 20.1545 208.434 19.885 208.502C19.6156 208.569 19.3354 208.583 19.0605 208.543C18.7857 208.502 18.5215 208.408 18.283 208.265C18.0446 208.123 17.8366 207.934 17.6709 207.711C17.5052 207.488 17.3851 207.235 17.3173 206.965C17.2496 206.696 17.2356 206.416 17.2761 206.141C17.3167 205.866 17.411 205.602 17.5536 205.363C19.0729 203.115 21.3382 201.477 23.949 200.738C26.5598 200 29.3476 200.208 31.8195 201.327C35.7586 203.09 37.3476 206.831 35.9743 211.1C35.3348 212.896 34.074 214.405 32.4196 215.353C30.7652 216.3 28.8264 216.625 26.9534 216.269C26.4741 216.188 26.0027 216.066 25.5446 215.903Z" fill="#FFEEBF"/>
<path d="M33.8164 208.321C33.3639 208.139 32.9881 207.807 32.7525 207.38C32.5168 206.953 32.4359 206.457 32.5233 205.978C32.6106 205.498 32.861 205.063 33.232 204.746C33.603 204.429 34.0719 204.251 34.5595 204.24C35.9946 204.231 37.4131 203.934 38.7309 203.365C40.0487 202.797 41.2387 201.97 42.2304 200.933C43.039 200.043 43.5436 198.919 43.6713 197.724C43.7989 196.529 43.5429 195.324 42.9402 194.283C41.5876 191.598 38.6097 189.483 36.4353 189.66C36.0011 189.693 34.6982 189.792 33.9741 192.118C33.8009 192.795 33.7767 193.502 33.9033 194.19C34.0298 194.877 34.3041 195.529 34.7071 196.101C34.9467 196.48 35.2706 196.799 35.6535 197.034C36.0363 197.268 36.468 197.411 36.915 197.451C37.2854 197.483 37.6576 197.417 37.9952 197.261C38.3327 197.106 38.6239 196.865 38.8403 196.563C38.9528 196.295 39.1191 196.054 39.3288 195.853C39.5385 195.652 39.7873 195.497 40.0596 195.397C40.3318 195.296 40.6218 195.253 40.9116 195.269C41.2013 195.286 41.4846 195.361 41.7438 195.492C42.0031 195.622 42.2327 195.805 42.4186 196.027C42.6044 196.25 42.7424 196.509 42.8241 196.788C42.9058 197.066 42.9293 197.358 42.8933 197.646C42.8573 197.934 42.7625 198.212 42.6147 198.461C42.0443 199.494 41.1935 200.345 40.1606 200.915C39.1276 201.486 37.9545 201.753 36.7764 201.686C35.6734 201.636 34.5976 201.326 33.6367 200.782C32.6759 200.238 31.857 199.475 31.2468 198.554C30.4691 197.449 29.9477 196.184 29.7205 194.851C29.4934 193.518 29.5661 192.152 29.9336 190.851C30.273 189.423 31.0477 188.137 32.1504 187.168C33.2532 186.2 34.6295 185.599 36.089 185.447C40.0004 185.137 44.5633 188.125 46.71 192.395C47.7071 194.18 48.1195 196.234 47.889 198.266C47.6586 200.298 46.7969 202.207 45.4252 203.724C44.0448 205.21 42.3756 206.399 40.5197 207.217C38.6639 208.035 36.6605 208.466 34.6323 208.483C34.3524 208.482 34.0754 208.427 33.8164 208.321Z" fill="#FFEEBF"/>
<path d="M101.37 261.598L17.2459 228.385C16.7246 228.179 16.3062 227.775 16.0826 227.261C15.859 226.747 15.8483 226.165 16.053 225.643L18.4647 219.534C16.5394 217.249 13.5139 211.59 18.0982 201.503C23.4902 189.709 30.1841 170.896 30.2533 170.712L30.3089 170.472C30.5008 170.103 34.7225 161.238 28.2937 156.113C25.2468 153.662 23.508 149.474 23.381 144.311C23.1568 135.299 28.1055 121.096 42.6146 108.276C60.3874 92.5835 129.122 35.6815 143.891 23.4679L144.346 22.3064C144.516 21.8688 144.828 21.5006 145.231 21.2604C145.635 21.0203 146.107 20.9219 146.572 20.9809C146.917 21.0208 147.245 21.1472 147.528 21.3483C147.87 21.4017 148.195 21.5316 148.48 21.7283C148.866 22.0001 149.151 22.3934 149.288 22.8455C149.425 23.2976 149.407 23.7825 149.237 24.2232L148.767 25.448C151.202 44.4504 162.525 132.946 164.791 156.549C166.629 175.827 160.532 189.577 154.215 196.024C150.591 199.707 146.452 201.577 142.55 201.329C134.374 200.706 131.409 210.074 131.277 210.47C131.266 210.547 131.249 210.624 131.225 210.698C131.181 210.888 123.212 229.219 119.07 241.489C115.523 251.989 109.497 254.063 106.485 254.407L104.086 260.519C103.858 261.013 103.449 261.401 102.944 261.602C102.438 261.803 101.874 261.802 101.37 261.598ZM20.7191 225.241L100.908 256.905L103.033 251.516C103.205 251.08 103.517 250.713 103.92 250.473C104.322 250.233 104.794 250.134 105.259 250.19C105.474 250.24 111.481 250.615 115.036 240.077C119.133 228.117 126.634 210.544 127.272 209.051C128.032 206.846 129.136 204.774 130.544 202.914C131.914 200.951 133.773 199.38 135.936 198.355C138.1 197.33 140.493 196.888 142.88 197.072C145.502 197.264 148.496 195.849 151.181 193.057C156.832 187.296 162.268 174.792 160.563 156.959C158.386 134.242 147.786 51.1008 144.846 28.2218C127.074 42.9281 62.5323 96.3991 45.4296 111.5C32.0221 123.362 27.4272 136.206 27.6186 144.264C27.7138 148.179 28.9028 151.227 30.9616 152.876C32.8391 154.369 34.294 156.326 35.1823 158.555C36.0705 160.783 36.3614 163.204 36.026 165.579C35.7792 167.903 35.169 170.174 34.2177 172.308C33.6681 173.821 27.1896 191.817 21.9593 203.315C17.3634 213.453 22.0194 217.249 22.2209 217.415C22.5929 217.688 22.8626 218.078 22.9871 218.523C23.1115 218.967 23.0836 219.44 22.9076 219.867L20.7191 225.241Z" fill="#FFEEBF"/>
<path d="M115.838 162.343C114.115 161.691 112.565 160.652 111.307 159.308C110.048 157.963 109.114 156.347 108.577 154.586C108.076 152.807 108.046 150.929 108.491 149.136C108.935 147.343 109.839 145.696 111.114 144.359C112.473 143.005 114.214 142.1 116.103 141.767C117.992 141.433 119.938 141.687 121.678 142.493C123.447 143.404 124.835 144.913 125.594 146.751C126.354 148.59 126.436 150.638 125.825 152.531C125.456 153.51 124.888 154.402 124.157 155.151C123.426 155.9 122.549 156.49 121.579 156.884C120.667 157.283 119.682 157.488 118.686 157.488C117.69 157.487 116.705 157.28 115.794 156.88C115.526 156.774 115.283 156.616 115.079 156.413C114.875 156.211 114.715 155.969 114.607 155.702C114.5 155.436 114.447 155.15 114.454 154.863C114.46 154.576 114.525 154.293 114.644 154.031C114.764 153.77 114.935 153.535 115.148 153.342C115.361 153.149 115.611 153.001 115.882 152.908C116.154 152.814 116.442 152.777 116.729 152.799C117.015 152.82 117.294 152.9 117.549 153.032C117.93 153.185 118.339 153.259 118.749 153.248C119.16 153.238 119.564 153.143 119.937 152.971C120.369 152.8 120.762 152.544 121.092 152.216C121.422 151.889 121.682 151.498 121.857 151.068C122.118 150.149 122.055 149.169 121.677 148.292C121.299 147.415 120.629 146.695 119.782 146.255C118.839 145.841 117.794 145.721 116.782 145.911C115.77 146.1 114.839 146.591 114.11 147.318C113.371 148.131 112.853 149.12 112.605 150.19C112.358 151.26 112.39 152.376 112.697 153.431C113.255 155.104 114.344 156.548 115.799 157.544C117.254 158.54 118.995 159.032 120.756 158.947C122.571 158.752 124.291 158.04 125.714 156.897C127.136 155.753 128.2 154.225 128.78 152.494C129.204 151.11 129.407 149.667 129.381 148.22C129.458 145.813 128.912 143.427 127.795 141.294C126.902 139.822 125.712 138.552 124.301 137.564C122.89 136.577 121.289 135.895 119.6 135.56C116.02 134.876 112.318 135.263 108.956 136.674C106.803 137.509 102.975 139.478 101.885 143.039C101.711 143.567 101.336 144.005 100.841 144.259C100.346 144.512 99.7719 144.561 99.2415 144.395C98.7111 144.229 98.2674 143.86 98.0061 143.37C97.7448 142.879 97.687 142.305 97.845 141.772C99.0681 137.922 102.446 134.729 107.403 132.781C111.535 131.056 116.086 130.6 120.479 131.47C122.752 131.93 124.905 132.861 126.797 134.203C128.689 135.545 130.279 137.268 131.465 139.262C132.953 142.028 133.692 145.136 133.608 148.277C133.632 150.165 133.355 152.046 132.787 153.847C131.951 156.385 130.39 158.623 128.298 160.286C126.206 161.949 123.673 162.964 121.012 163.206C119.245 163.301 117.478 163.006 115.838 162.343Z" fill="#FFEEBF"/>
<path d="M84.7162 220.697L71.2028 215.361C70.9303 215.27 70.6792 215.124 70.4649 214.933C70.2505 214.741 70.0773 214.508 69.9559 214.248C69.8344 213.987 69.7672 213.705 69.7584 213.418C69.7496 213.13 69.7994 212.844 69.9047 212.577C70.0099 212.31 70.1685 212.067 70.3708 211.862C70.573 211.658 70.8147 211.497 71.0811 211.39C71.3475 211.282 71.633 211.23 71.9203 211.236C72.2076 211.242 72.4907 211.307 72.7522 211.426L84.2123 215.954C84.9958 213.775 86.3591 210.183 88.1148 206.336C89.5431 203.289 89.9376 199.86 89.2385 196.569C89.1117 196.127 89.1332 195.656 89.2997 195.227C89.4661 194.798 89.7684 194.436 90.1603 194.195C93.3984 192.184 95.33 189.883 95.9052 187.336C96.4805 184.789 95.6791 181.564 93.4523 178.103C91.0518 174.235 89.3282 169.986 88.3558 165.539C88.2506 164.984 88.3701 164.41 88.688 163.944C89.0058 163.477 89.4961 163.156 90.0508 163.05C90.6055 162.945 91.1793 163.065 91.646 163.383C92.1126 163.701 92.4339 164.191 92.5391 164.746C93.4033 168.653 94.9042 172.392 96.9817 175.812C99.8469 180.261 100.864 184.456 99.9964 188.268C99.035 191.875 96.7445 194.985 93.5849 196.973C94.0895 200.759 93.5184 204.61 91.937 208.086C89.2557 213.919 87.4839 219.336 87.4722 219.387C87.3823 219.661 87.2369 219.913 87.045 220.128C86.853 220.343 86.6188 220.516 86.3569 220.636C86.1021 220.758 85.8251 220.826 85.5429 220.836C85.2607 220.847 84.9793 220.799 84.7162 220.697Z" fill="#FFEEBF"/>
<path d="M87.3561 237.361L65.7055 228.811C65.433 228.72 65.1819 228.574 64.9675 228.383C64.7532 228.192 64.58 227.959 64.4585 227.698C64.3371 227.438 64.2699 227.155 64.2611 226.868C64.2523 226.581 64.302 226.295 64.4073 226.028C64.5126 225.76 64.6712 225.517 64.8734 225.313C65.0757 225.109 65.3174 224.948 65.5838 224.84C65.8502 224.732 66.1357 224.68 66.423 224.686C66.7103 224.692 66.9933 224.757 67.2549 224.876L87.0011 232.666L94.8395 212.824C94.8768 212.723 94.9258 212.627 94.9856 212.538C96.0095 210.761 98.2906 205.448 96.5068 202.089C96.2874 201.672 96.2133 201.194 96.2964 200.73C96.3794 200.267 96.6148 199.844 96.9652 199.529C100.316 196.57 108.258 187.472 104.772 181.266C96.8454 167.102 94.0728 155.501 96.3006 145.803C96.3184 145.696 96.3428 145.59 96.3737 145.486L144.579 23.4278C144.67 23.1553 144.816 22.9042 145.007 22.6899C145.199 22.4755 145.432 22.3023 145.692 22.1809C145.953 22.0594 146.235 21.9923 146.522 21.9835C146.81 21.9746 147.095 22.0244 147.363 22.1296C147.63 22.2349 147.873 22.3935 148.078 22.5958C148.282 22.798 148.442 23.0397 148.55 23.3061C148.658 23.5725 148.71 23.858 148.704 24.1453C148.698 24.4326 148.633 24.7156 148.514 24.9772L100.344 146.884C98.4213 155.493 101.059 166.062 108.412 179.188C113.364 188.052 104.157 198.351 100.825 201.634C102.6 207.111 99.2716 213.435 98.6725 214.47L90.1198 236.133C90.0213 236.397 89.8712 236.638 89.6782 236.843C89.4852 237.049 89.2533 237.213 88.9959 237.327C88.7385 237.442 88.4609 237.504 88.1794 237.509C87.8978 237.515 87.6179 237.465 87.3561 237.361Z" fill="#FFEEBF"/>
<path d="M104.404 254.3L104.29 254.273C101.228 252.817 98.3029 251.088 95.5506 249.107C89.4108 244.635 86.2057 240.041 86.0202 235.478C85.7836 230.017 84.9094 224.602 83.4155 219.343C83.2883 218.82 83.3653 218.268 83.6309 217.799C83.8965 217.331 84.3306 216.981 84.8449 216.821C85.3592 216.662 85.9151 216.704 86.3994 216.939C86.8837 217.175 87.2601 217.586 87.4518 218.09C89.0344 223.693 89.9385 229.466 90.1448 235.285C90.4174 241.894 101.636 248.447 105.944 250.402C106.445 250.632 106.836 251.047 107.035 251.561C107.234 252.074 107.226 252.644 107.012 253.151C106.797 253.658 106.394 254.062 105.887 254.277C105.381 254.491 104.81 254.5 104.297 254.302L104.404 254.3Z" fill="#FFEEBF"/>
<path d="M127.77 197.487C118.496 193.824 107.164 186.779 100.786 173.359C100.617 172.865 100.637 172.326 100.841 171.846C101.045 171.366 101.419 170.977 101.891 170.756C102.364 170.535 102.902 170.496 103.401 170.647C103.901 170.797 104.327 171.127 104.598 171.573C115.368 194.208 142.702 197.085 142.999 197.127C143.556 197.179 144.07 197.451 144.427 197.882C144.783 198.314 144.954 198.869 144.901 199.426C144.849 199.983 144.577 200.497 144.145 200.853C143.714 201.21 143.159 201.381 142.602 201.328C137.512 200.696 132.526 199.405 127.77 197.487Z" fill="#FFEEBF"/>
<path d="M108.718 119.419C108.462 119.31 108.23 119.151 108.035 118.953C107.841 118.754 107.687 118.519 107.583 118.261C107.48 118.003 107.428 117.727 107.43 117.449C107.433 117.171 107.491 116.896 107.6 116.64C111.975 106.305 119.2 102.215 124.492 100.544C127.923 99.4769 131.539 99.1407 135.107 99.5573C135.527 99.6209 135.917 99.8105 136.226 100.101C136.535 100.392 136.748 100.769 136.838 101.184C136.931 101.6 136.897 102.035 136.738 102.432C136.58 102.828 136.306 103.168 135.951 103.406C134.26 104.414 132.914 105.911 132.092 107.7C132.057 107.852 132.022 108.004 131.921 108.154C130.917 111.229 132.105 115.143 134.886 117.879C135.93 119.04 137.28 119.882 138.782 120.306C140.284 120.731 141.875 120.722 143.371 120.28C145.719 119.397 147.828 117.98 149.533 116.141C151.237 114.301 152.491 112.091 153.193 109.683C153.654 108.234 153.81 106.705 153.65 105.192C153.49 103.679 153.018 102.216 152.264 100.895C149.851 97.0633 146.029 94.3321 141.622 93.2896C137.566 92.2616 133.313 92.2933 129.272 93.3814C125.231 94.4695 121.538 96.5777 118.546 99.5037C118.152 99.9015 117.615 100.127 117.055 100.13C116.494 100.132 115.955 99.913 115.556 99.5193C115.358 99.3247 115.2 99.0926 115.091 98.8365C114.983 98.5805 114.926 98.3055 114.925 98.0274C114.923 97.7494 114.977 97.4738 115.083 97.2166C115.188 96.9594 115.344 96.7258 115.541 96.529C119.043 93.0516 123.391 90.5466 128.156 89.2606C132.921 87.9747 137.938 87.9522 142.715 89.1955C145.447 89.8487 148.023 91.0347 150.295 92.6856C152.568 94.3364 154.492 96.4196 155.958 98.8157C156.98 100.631 157.622 102.635 157.845 104.705C158.067 106.776 157.867 108.871 157.254 110.862C156.358 113.917 154.762 116.72 152.592 119.05C150.422 121.379 147.738 123.17 144.754 124.279C142.514 124.988 140.119 125.046 137.847 124.446C135.576 123.845 133.522 122.611 131.925 120.888C130.026 119.141 128.646 116.904 127.937 114.423C127.228 111.942 127.218 109.313 127.907 106.827C127.966 106.574 128.018 106.346 128.163 106.126C128.505 105.29 128.944 104.496 129.469 103.761C124.237 104.419 116.121 107.343 111.451 118.264C111.238 118.776 110.832 119.184 110.321 119.4C109.809 119.616 109.234 119.623 108.718 119.419Z" fill="#FFEEBF"/>
<path d="M157.671 188.277C157.187 188.081 156.792 187.713 156.561 187.244C156.33 186.776 156.279 186.238 156.419 185.735C160.344 171.748 156.395 159.583 144.683 149.57C138.964 144.787 132.462 141.029 125.463 138.462C125.185 138.386 124.926 138.254 124.7 138.075C124.475 137.895 124.289 137.672 124.153 137.418C124.017 137.163 123.934 136.884 123.91 136.597C123.886 136.31 123.92 136.021 124.012 135.748C124.103 135.474 124.249 135.223 124.441 135.008C124.633 134.793 124.867 134.62 125.128 134.498C125.39 134.377 125.673 134.31 125.961 134.302C126.249 134.294 126.536 134.345 126.803 134.452C134.327 137.178 141.312 141.207 147.439 146.353C160.329 157.332 164.841 171.388 160.489 186.875C160.415 187.143 160.288 187.393 160.117 187.612C159.946 187.831 159.733 188.014 159.491 188.15C159.249 188.286 158.982 188.373 158.706 188.406C158.43 188.438 158.151 188.416 157.883 188.34L157.671 188.277Z" fill="#FFEEBF"/>
<path d="M130.739 188.387C128.348 187.405 126.399 185.584 125.255 183.267C124.427 181.63 124.062 179.798 124.198 177.969C124.334 176.139 124.967 174.382 126.028 172.885C127.22 171.346 128.911 170.269 130.81 169.84C132.71 169.41 134.699 169.655 136.438 170.531C137.35 171.072 138.134 171.804 138.736 172.678C139.338 173.551 139.742 174.544 139.922 175.589C140.118 176.553 140.098 177.548 139.866 178.504C139.634 179.459 139.194 180.352 138.578 181.119C138.206 181.503 137.702 181.732 137.168 181.76C136.634 181.788 136.109 181.613 135.699 181.27C135.289 180.927 135.023 180.442 134.956 179.911C134.889 179.381 135.025 178.844 135.337 178.41C135.555 178.12 135.71 177.788 135.791 177.435C135.873 177.082 135.88 176.715 135.811 176.359C135.744 175.925 135.584 175.511 135.342 175.144C135.1 174.778 134.782 174.468 134.409 174.235C133.563 173.851 132.611 173.765 131.71 173.99C130.808 174.215 130.009 174.738 129.443 175.474C128.86 176.34 128.521 177.346 128.461 178.388C128.401 179.43 128.622 180.468 129.101 181.395C129.494 182.201 130.055 182.914 130.746 183.485C131.438 184.057 132.243 184.474 133.109 184.708C134.38 184.894 135.676 184.805 136.909 184.446C138.143 184.086 139.284 183.466 140.256 182.627C143.532 180.051 145.948 176.54 147.182 172.561C148.429 168.456 148.819 164.139 148.326 159.878L148.278 159.281C147.929 155.653 147.566 151.916 145.231 149.963C144.8 149.604 144.529 149.087 144.478 148.528C144.427 147.969 144.601 147.412 144.96 146.981C145.32 146.549 145.836 146.278 146.395 146.228C146.955 146.177 147.511 146.35 147.943 146.71C151.606 149.783 152.077 154.612 152.478 158.878L152.542 159.466C153.084 164.293 152.631 169.18 151.21 173.825C149.706 178.63 146.774 182.863 142.805 185.962C140.775 187.48 136.699 189.884 132.157 188.768C131.675 188.679 131.201 188.551 130.739 188.387Z" fill="#FFEEBF"/>
<path d="M123.716 195.363C123.454 195.255 123.215 195.1 123.008 194.906C120.131 192.068 116.982 188.674 116.143 184.227C115.732 181.797 115.83 179.309 116.431 176.92C116.818 174.882 117.519 172.916 118.511 171.094C120.274 167.961 123.102 165.564 126.48 164.338C129.859 163.111 133.566 163.136 136.928 164.408C140.29 165.68 143.085 168.115 144.806 171.271C146.527 174.427 147.059 178.095 146.307 181.611C146.269 181.9 146.171 182.178 146.02 182.427C145.869 182.677 145.668 182.892 145.43 183.06C145.191 183.229 144.921 183.346 144.635 183.405C144.35 183.464 144.055 183.463 143.77 183.402C143.484 183.342 143.214 183.223 142.977 183.054C142.74 182.884 142.54 182.667 142.391 182.417C142.241 182.167 142.145 181.888 142.108 181.599C142.071 181.31 142.094 181.016 142.176 180.736C142.715 178.209 142.331 175.573 141.094 173.305C139.857 171.036 137.848 169.286 135.432 168.372C133.016 167.457 130.352 167.438 127.922 168.319C125.493 169.199 123.46 170.921 122.191 173.171C121.416 174.625 120.866 176.188 120.56 177.807C120.088 179.629 119.998 181.529 120.297 183.387C120.961 186.687 123.608 189.485 126.036 191.899C126.382 192.242 126.6 192.693 126.652 193.177C126.704 193.661 126.588 194.148 126.323 194.557C126.058 194.965 125.66 195.27 125.197 195.419C124.734 195.569 124.233 195.554 123.779 195.378L123.716 195.363Z" fill="#FFEEBF"/>
<path d="M140.856 145.819C140.553 145.748 140.272 145.577 139.986 145.431C139.507 145.174 139.145 144.742 138.975 144.225C138.806 143.709 138.841 143.147 139.075 142.656C139.308 142.165 139.722 141.782 140.229 141.588C140.737 141.393 141.3 141.401 141.802 141.61C143.175 142.267 144.685 142.588 146.207 142.545C147.728 142.502 149.218 142.098 150.552 141.366C151.828 140.618 152.882 139.543 153.605 138.252C154.327 136.962 154.692 135.501 154.662 134.022C154.671 133.295 154.475 132.581 154.099 131.959C153.454 131.21 152.647 130.617 151.739 130.227C151.028 129.819 150.267 129.505 149.476 129.291C148.662 129.113 147.813 129.189 147.043 129.507C146.273 129.825 145.618 130.37 145.166 131.071C144.715 131.771 144.488 132.592 144.515 133.425C144.543 134.257 144.824 135.062 145.321 135.73C145.542 136.047 145.842 136.3 146.191 136.465C147.057 136.758 148.599 135.795 149.332 135.337C149.568 135.186 149.832 135.084 150.108 135.036C150.384 134.988 150.667 134.995 150.94 135.057C151.213 135.119 151.471 135.235 151.699 135.398C151.928 135.56 152.121 135.766 152.269 136.004C152.417 136.242 152.516 136.507 152.561 136.784C152.606 137.06 152.595 137.343 152.53 137.616C152.465 137.888 152.346 138.145 152.181 138.371C152.015 138.597 151.807 138.789 151.567 138.934C150.183 139.787 147.597 141.403 144.839 140.472C143.67 140.043 142.659 139.27 141.938 138.255C140.924 136.902 140.348 135.273 140.284 133.584C140.221 131.895 140.673 130.227 141.582 128.802C142.491 127.377 143.812 126.262 145.37 125.607C146.928 124.952 148.649 124.787 150.303 125.135C151.472 125.428 152.598 125.876 153.648 126.468C155.184 127.163 156.523 128.228 157.545 129.569C158.361 130.854 158.802 132.341 158.819 133.863C158.873 136.112 158.326 138.336 157.234 140.303C156.142 142.27 154.544 143.91 152.606 145.054C150.826 146.043 148.849 146.624 146.817 146.757C144.785 146.889 142.749 146.569 140.856 145.819Z" fill="#FFEEBF"/>
<path d="M137.156 92.3644C136.681 92.1729 136.291 91.8155 136.059 91.3584C135.827 90.9013 135.769 90.3756 135.895 89.8788C136.021 89.382 136.323 88.9479 136.745 88.6569C137.167 88.3659 137.68 88.2379 138.189 88.2966C139.368 88.4388 140.564 88.3382 141.702 88.0012C142.841 87.6641 143.899 87.0976 144.81 86.3365C145.722 85.5755 146.468 84.636 147.003 83.5759C147.537 82.5157 147.85 81.3573 147.92 80.172C148.036 78.9674 147.776 77.7566 147.174 76.7064C146.416 75.69 145.445 74.8513 144.329 74.2489C143.417 73.6331 142.393 73.2018 141.316 72.9792C140.594 72.9042 139.866 73.032 139.213 73.3484C138.56 73.6647 138.009 74.157 137.62 74.7698C137.232 75.3826 137.023 76.0916 137.015 76.817C137.008 77.5424 137.204 78.2555 137.58 78.8758C137.846 79.3563 138.29 79.7128 138.817 79.8684C138.989 79.8903 139.162 79.8442 139.3 79.74C139.427 79.2385 139.659 78.77 139.983 78.3663C140.306 77.9625 140.712 77.6329 141.174 77.3998C141.501 77.2761 141.85 77.2197 142.2 77.234C142.549 77.2483 142.892 77.3331 143.208 77.4832C143.568 77.6559 143.871 77.9273 144.083 78.2659C144.294 78.6044 144.405 78.996 144.402 79.3951C144.399 79.7943 144.283 80.1844 144.067 80.5199C143.851 80.8555 143.544 81.1227 143.182 81.2903C142.764 82.2517 142.035 83.045 141.113 83.5426C140.19 84.0403 139.127 84.2136 138.094 84.0347C137.251 83.8642 136.452 83.5191 135.749 83.0216C135.047 82.524 134.456 81.8849 134.015 81.1455C133.181 79.8503 132.734 78.3436 132.728 76.8029C132.721 75.2622 133.155 73.7518 133.979 72.4497C134.803 71.1476 135.981 70.1081 137.376 69.4538C138.771 68.7994 140.324 68.5575 141.852 68.7565C143.514 69.044 145.098 69.6734 146.504 70.605C148.188 71.5339 149.634 72.8401 150.729 74.4212C151.818 76.2138 152.306 78.3071 152.122 80.3962C152.009 82.1544 151.539 83.8712 150.742 85.4422C149.945 87.0133 148.837 88.4058 147.484 89.535C146.132 90.6643 144.564 91.5067 142.876 92.011C141.188 92.5154 139.415 92.6711 137.665 92.4687C137.493 92.4511 137.322 92.4161 137.156 92.3644Z" fill="#FFEEBF"/>
<path d="M138.819 72.2957C138.642 72.2264 138.475 72.134 138.323 72.0209C137.373 71.3077 136.58 70.407 135.992 69.3747C135.405 68.3424 135.035 67.2005 134.907 66.0197C134.779 64.8389 134.894 63.6443 135.246 62.5099C135.598 61.3755 136.179 60.3254 136.954 59.4248C137.469 58.8501 138.036 58.3251 138.649 57.8566C139.925 56.5684 141.577 55.7177 143.366 55.427C145.156 55.1362 146.992 55.4203 148.61 56.2384C149.765 56.696 150.761 57.4823 151.474 58.5002C151.88 59.1875 152.117 59.9617 152.165 60.7587C152.212 61.5557 152.069 62.3526 151.748 63.0835C151.188 64.3454 150.235 65.3926 149.031 66.069C148.547 66.353 147.969 66.4329 147.425 66.2911C146.882 66.1492 146.417 65.7972 146.133 65.3125C145.849 64.8278 145.769 64.2502 145.911 63.7066C146.053 63.1631 146.405 62.6981 146.889 62.4141C147.302 62.2007 147.636 61.8628 147.846 61.4484C147.896 61.3407 147.924 61.2236 147.926 61.1046C147.928 60.9856 147.905 60.8676 147.859 60.7581C147.586 60.4694 147.248 60.2497 146.873 60.1171C146.313 59.8297 145.704 59.6483 145.077 59.582C143.663 59.6414 142.318 60.2118 141.293 61.1874C140.89 61.4832 140.521 61.8227 140.192 62.1998C139.799 62.6642 139.503 63.2034 139.323 63.7849C139.142 64.3665 139.081 64.9784 139.144 65.5841C139.218 66.1872 139.411 66.7696 139.713 67.2972C140.014 67.8247 140.418 68.2869 140.9 68.6566C141.297 68.9695 141.568 69.4138 141.666 69.9094C141.764 70.405 141.681 70.9193 141.433 71.3593C141.185 71.7993 140.788 72.1361 140.313 72.3089C139.838 72.4817 139.318 72.479 138.845 72.3015L138.819 72.2957Z" fill="#FFEEBF"/>
<path d="M120.926 135.253C120.681 135.154 120.457 135.012 120.263 134.833C119.851 134.453 119.607 133.924 119.584 133.364C119.561 132.804 119.761 132.258 120.14 131.845C121.587 130.276 122.549 128.321 122.907 126.218C122.968 125.91 122.987 125.596 122.963 125.284C122.855 124.824 122.619 124.404 122.283 124.073C121.698 123.373 120.901 122.882 120.012 122.677C119.123 122.471 118.191 122.562 117.359 122.935C116.931 123.186 116.587 123.557 116.37 124.003C116.153 124.449 116.073 124.949 116.14 125.44C116.243 125.823 116.472 126.16 116.79 126.395C117.109 126.631 117.497 126.752 117.893 126.739C118.436 126.665 118.987 126.803 119.429 127.127C119.872 127.45 120.172 127.932 120.266 128.472C120.361 129.011 120.243 129.567 119.936 130.021C119.63 130.475 119.159 130.793 118.623 130.908C117.155 131.11 115.664 130.756 114.442 129.916C113.221 129.077 112.357 127.811 112.019 126.368C111.756 125.006 111.921 123.597 112.49 122.332C113.059 121.067 114.005 120.009 115.198 119.303C116.871 118.424 118.793 118.14 120.648 118.496C122.504 118.852 124.183 119.828 125.412 121.263C126.316 122.213 126.916 123.41 127.137 124.702C127.229 125.446 127.203 126.201 127.061 126.937C126.559 129.849 125.23 132.555 123.233 134.733C122.943 135.037 122.569 135.25 122.158 135.342C121.747 135.435 121.319 135.404 120.926 135.253Z" fill="#FFEEBF"/>
<path d="M112.527 212.804C110.576 212.034 108.922 210.662 107.806 208.886C106.883 207.332 106.332 205.584 106.198 203.781C106.064 201.978 106.35 200.169 107.034 198.495C108.372 195.332 110.699 192.688 113.668 190.961C114.57 190.329 115.589 189.884 116.666 189.654C117.744 189.424 118.856 189.414 119.937 189.623C120.224 189.674 120.498 189.783 120.741 189.943C120.984 190.104 121.191 190.314 121.35 190.559C121.508 190.803 121.614 191.078 121.662 191.366C121.709 191.653 121.696 191.948 121.624 192.23C121.553 192.513 121.423 192.777 121.245 193.008C121.066 193.238 120.842 193.429 120.586 193.568C120.33 193.708 120.048 193.793 119.757 193.818C119.467 193.844 119.174 193.809 118.898 193.716C117.808 193.618 116.72 193.928 115.844 194.584C113.668 195.823 111.96 197.742 110.982 200.047C110.54 201.105 110.346 202.25 110.417 203.395C110.488 204.539 110.821 205.652 111.39 206.648C111.926 207.553 112.718 208.279 113.666 208.735C114.614 209.191 115.675 209.357 116.717 209.212C117.89 208.9 118.956 208.275 119.801 207.405C120.319 206.982 120.743 206.456 121.048 205.861C121.353 205.266 121.532 204.615 121.574 203.948C121.551 203.363 121.331 202.804 120.951 202.36C120.571 201.915 120.051 201.612 119.478 201.5C118.904 201.387 118.308 201.471 117.788 201.739C117.268 202.007 116.854 202.442 116.612 202.975C116.378 203.483 115.951 203.877 115.427 204.071C114.902 204.265 114.321 204.242 113.813 204.008C113.305 203.774 112.911 203.347 112.717 202.823C112.523 202.298 112.546 201.717 112.78 201.209C113.417 199.813 114.506 198.673 115.872 197.972C117.237 197.272 118.799 197.053 120.305 197.35C121.81 197.647 123.171 198.443 124.169 199.609C125.166 200.776 125.74 202.244 125.8 203.778C125.8 205.033 125.534 206.275 125.018 207.42C124.503 208.565 123.751 209.588 122.811 210.42C121.383 211.859 119.574 212.861 117.597 213.309C115.894 213.644 114.131 213.468 112.527 212.804Z" fill="#FFEEBF"/>
<path d="M103.645 246.738C103.202 246.566 102.779 246.347 102.382 246.086C100.773 245.066 99.583 243.505 99.0257 241.684C98.4683 239.863 98.5809 237.902 99.343 236.157C101.265 232.108 104.98 230.46 109.054 231.868C111.617 232.74 113.788 234.49 115.185 236.809C116.582 239.127 117.113 241.865 116.686 244.538C116.643 244.827 116.54 245.104 116.385 245.351C116.229 245.598 116.025 245.811 115.783 245.975C115.542 246.139 115.269 246.252 114.982 246.306C114.695 246.359 114.4 246.353 114.115 246.288C113.831 246.222 113.563 246.098 113.328 245.924C113.094 245.749 112.898 245.529 112.753 245.275C112.609 245.021 112.518 244.741 112.486 244.45C112.455 244.16 112.485 243.866 112.572 243.588C113.304 240.423 110.536 236.824 107.706 235.797C105.706 235.108 104.183 235.809 103.219 237.906C102.888 238.72 102.858 239.625 103.134 240.459C103.411 241.293 103.976 242 104.728 242.455C104.971 242.637 105.25 242.766 105.546 242.835C105.842 242.904 106.15 242.91 106.448 242.854C106.747 242.797 107.031 242.68 107.282 242.508C107.533 242.336 107.745 242.114 107.906 241.856C108.078 241.626 108.294 241.433 108.543 241.289C108.792 241.145 109.067 241.054 109.352 241.019C109.637 240.985 109.926 241.01 110.202 241.091C110.477 241.172 110.734 241.308 110.955 241.492C111.176 241.675 111.357 241.901 111.488 242.157C111.619 242.413 111.697 242.692 111.716 242.979C111.735 243.265 111.696 243.553 111.601 243.824C111.506 244.095 111.357 244.344 111.162 244.555C110.333 245.706 109.142 246.546 107.78 246.942C106.417 247.338 104.961 247.266 103.645 246.738Z" fill="#FFEEBF"/>
<path d="M102.765 235.548C102.511 235.446 102.279 235.297 102.08 235.109C100.611 233.71 99.4424 232.025 98.6472 230.159C97.8519 228.292 97.4463 226.283 97.4551 224.254C97.4877 222.209 98.1594 220.226 99.3761 218.582C100.593 216.938 102.294 215.717 104.24 215.089C108.723 213.458 114.097 214.38 116.733 217.282C117.7 218.394 118.295 219.78 118.435 221.247C118.574 222.714 118.25 224.188 117.509 225.461C116.889 226.661 116.01 227.707 114.936 228.524C113.861 229.341 112.619 229.909 111.297 230.186C110.226 230.452 109.107 230.462 108.031 230.213C106.956 229.965 105.954 229.465 105.108 228.756C104.2 227.998 103.524 227 103.159 225.875C102.794 224.75 102.754 223.545 103.044 222.399C103.224 221.886 103.594 221.461 104.078 221.214C104.562 220.966 105.123 220.915 105.645 221.069C106.166 221.224 106.608 221.573 106.878 222.045C107.149 222.517 107.228 223.074 107.099 223.603C107.049 223.97 107.095 224.345 107.233 224.69C107.371 225.034 107.595 225.338 107.884 225.571C108.232 225.858 108.641 226.06 109.081 226.161C109.52 226.263 109.977 226.261 110.415 226.156C111.096 226.011 111.737 225.72 112.294 225.303C112.851 224.886 113.31 224.353 113.64 223.741C114.694 221.544 113.81 220.58 113.521 220.273C112.067 218.604 108.435 218.165 105.608 219.205C104.457 219.55 103.446 220.254 102.722 221.214C101.999 222.174 101.602 223.34 101.588 224.542C101.605 225.976 101.91 227.392 102.483 228.706C103.056 230.02 103.887 231.206 104.927 232.194C105.271 232.536 105.487 232.985 105.539 233.468C105.591 233.95 105.476 234.435 105.214 234.843C104.951 235.25 104.556 235.555 104.095 235.707C103.635 235.858 103.136 235.847 102.682 235.675L102.765 235.548Z" fill="#FFEEBF"/>
<path d="M86.118 228.515L50.551 214.47C50.2785 214.378 50.0274 214.233 49.813 214.041C49.5986 213.85 49.4255 213.617 49.304 213.357C49.1826 213.096 49.1154 212.814 49.1066 212.526C49.0978 212.239 49.1475 211.953 49.2528 211.686C49.3581 211.419 49.5167 211.175 49.7189 210.971C49.9212 210.767 50.1628 210.606 50.4292 210.499C50.6956 210.391 50.9812 210.338 51.2685 210.345C51.5558 210.351 51.8388 210.415 52.1003 210.534L87.68 224.583C87.9497 224.677 88.1976 224.825 88.4087 225.017C88.6198 225.209 88.7898 225.443 88.9085 225.702C89.0272 225.962 89.0921 226.243 89.0993 226.529C89.1065 226.814 89.0558 227.098 88.9504 227.364C88.8449 227.629 88.6869 227.871 88.4857 228.074C88.2845 228.276 88.0444 228.436 87.7798 228.544C87.5152 228.651 87.2316 228.704 86.946 228.699C86.6604 228.694 86.3788 228.632 86.118 228.515Z" fill="#FFEEBF"/>
</svg>
