<svg width="801" height="320" viewBox="0 0 801 320" fill="none" xmlns="http://www.w3.org/2000/svg">
<g opacity="0.05" filter="url(#filter0_d_1262_18768)">
<path d="M225.581 113.774C228.977 113.653 228.004 115.012 226.51 116.549C224.298 118.76 222.085 120.971 219.983 123.27C208.611 135.586 200.867 150.123 193.543 165.025C184.848 182.846 176.352 200.766 165.997 217.725C159.282 228.725 152.003 239.271 141.858 247.485C138.595 250.127 137.256 252.184 138.971 257.236C142.356 267.185 141.936 277.875 141.338 288.378C139.867 314.501 134.203 340.005 130.165 365.763C125.74 394.086 127.344 421.481 143.717 446.344C148.003 453.011 153.411 458.887 159.702 463.711C161.793 465.281 162.247 466.806 161.539 469.305C154.824 492.996 159.636 515.062 171.318 536.077C181.407 554.219 196.431 568.137 211.144 582.299C225.526 596.239 239.974 610.168 252.209 626.154C258.26 634.058 263.725 642.316 267.398 651.636C268.04 653.272 268.504 654.599 270.717 654.665C290.951 655.306 308.917 663.509 326.617 672.11C344.317 680.711 361.465 690.373 379.132 698.996C401.257 709.797 424.378 715.39 449.148 710.548C459.12 708.662 468.615 704.81 477.081 699.217C478.807 698.111 480.057 697.127 482.358 698.642C509.053 716.33 537.406 715.799 566.435 705.706C585.242 699.151 602.168 688.471 619.879 679.528C637.79 670.485 655.744 661.552 675.458 657.009C680.99 655.737 687.87 656.81 691.919 653.825C695.758 650.995 696.345 644.119 699.287 639.398C710.084 621.854 724.366 607.338 738.792 592.823C751.503 580.066 765.343 568.425 776.804 554.429C793 534.618 803.067 512.486 801.983 486.285C801.839 482.969 801.983 479.431 800.721 476.491C797.779 469.426 800.29 465.347 805.733 460.406C824.805 443.06 832.162 420.375 833.135 395.181C833.91 375.149 829.23 355.769 826.011 336.224C822.581 315.363 819.252 294.502 820.015 273.21C820.28 265.837 822.128 258.717 823.079 251.454L824.584 249.939C826.796 250.603 826.597 251.996 826.066 253.831C820.535 273.232 822.36 292.833 825.07 312.334C827.947 333.062 832.173 353.614 834.717 374.364C837.826 399.669 835.326 424.278 821.542 446.675C817.006 454.051 811.313 460.65 804.682 466.22C802.868 467.757 801.706 469.095 802.314 471.748C809.771 504.195 799.162 531.799 779.182 556.772C768.695 569.884 755.884 580.762 743.981 592.525C728.283 608.002 712.585 623.567 701.057 642.67C700.268 643.689 699.655 644.832 699.243 646.053C697.263 656.379 690.703 659.01 680.713 660.082C663.765 661.906 648.31 669.49 633.143 677.063C615.708 685.752 598.639 695.204 581.06 703.595C556.335 715.412 530.547 720.42 503.377 712.947C496.107 710.92 489.169 707.852 482.779 703.838C481.042 702.732 479.725 701.771 477.402 703.197C451.692 718.939 424.522 719.083 396.644 710.349C377.705 704.424 360.956 693.888 343.543 684.923C326.13 675.957 308.496 667.002 289.468 661.519C282.72 659.573 275.883 658.203 268.814 658.59C266.867 658.711 265.927 658.291 265.208 656.301C258.05 636.59 244.288 621.434 230.106 606.73C215.248 591.541 199.661 577.191 185.246 561.747C168.84 544.17 157.877 523.618 155.377 499.22C154.408 490.061 155.059 480.803 157.302 471.87C158.032 469.006 157.678 467.359 155.344 465.336C136.216 448.809 127.388 427.185 125.032 402.488C123.018 381.373 127.488 360.799 131.172 340.193C134.856 319.586 138.163 299.289 138.119 278.406C138.119 270.303 137.356 262.233 134.535 254.549C133.76 252.449 133.351 250.625 135.398 249.177C148.319 240.001 156.749 227.066 164.703 213.8C176.297 194.454 185.379 173.704 195.723 153.639C203.478 138.736 212.538 124.752 225.581 113.774Z" fill="#FFF6DF"/>
<path d="M557.429 23.1006C556.599 25.19 554.918 25.599 552.948 25.3116C530.414 21.7408 507.79 18.1921 487.457 7.07076C482.335 4.27383 479.193 4.05273 474.038 7.13709C458.55 16.4454 440.85 19.6293 423.304 23.0564C400.758 27.4784 377.704 28.7608 355.324 34.1114C350.335 35.3054 345.445 36.8752 340.511 38.2681L338.453 36.5546C353.078 30.0211 368.831 28.4734 384.408 26.2181C409.509 22.581 434.754 19.6404 458.838 11.0727C465.608 8.66269 472.113 5.74415 477.777 1.12314C479.193 0.0176322 480.211 -0.535121 482.025 0.714101C499.637 12.8747 520.125 16.6555 540.547 20.6132C546.123 21.6524 551.798 22.2715 557.429 23.1006Z" fill="#FFF6DF"/>
<path d="M746.759 130.101C735.995 117.576 724.047 106.598 708.581 99.9985C699.864 96.284 690.881 93.7634 681.367 93.5534C678.225 93.4871 677.03 92.3705 675.902 89.5736C664.209 60.7751 641.795 44.5463 612.689 36.0781C597.013 31.5124 580.895 29.6662 564.876 27.0904C563.77 26.9024 561.159 28.1959 561.38 25.1447C570.452 24.0392 579.18 26.5929 587.997 27.8974C596.236 29.2107 604.386 31.0272 612.402 33.3365C641.773 41.3846 664.397 57.536 677.174 85.7375C678.856 89.452 680.725 90.7454 684.664 91.1766C711.424 94.073 732.023 107.604 748.13 128.631L746.759 130.101Z" fill="#FFF6DF"/>
<path d="M746.758 130.103L748.174 128.633C759.137 141.446 766.007 156.657 773.253 171.637C784.316 194.543 795.567 217.361 811.187 237.658L809.837 239.117C798.399 226.039 790.29 210.838 782.369 195.56C776.129 183.554 770.388 171.327 764.414 159.167C759.381 148.987 753.473 139.263 746.758 130.103Z" fill="#FFF6DF"/>
<path d="M338.456 36.5215L340.513 38.235C325.534 44.3374 311.75 52.2749 300.842 64.5018C294.333 71.7801 289.171 80.1577 285.598 89.2431C284.912 90.9566 284.746 92.8359 282.146 92.7033C276.217 92.3937 270.508 94.1294 264.667 94.7816L263.074 93.2118C267.864 91.1335 273.031 90.7134 278.075 90.437C280.929 90.2822 282.058 89.3315 283.153 86.7336C293.961 61.6607 313.277 45.8409 338.456 36.5215Z" fill="#FFF6DF"/>
<path d="M263.071 93.2119L264.664 94.7817C252.252 99.0158 240.536 104.532 230.502 113.188C229.12 114.371 227.25 115.676 227.184 112.083C237.693 102.985 249.243 95.9425 263.071 93.2119Z" fill="#FFF6DF"/>
<path d="M532.262 703.075C511.852 702.964 496.862 698.587 483.863 688.14C482.093 686.725 480.456 684.724 477.458 687.112C454.458 705.441 428.782 705.706 402.01 697.857C384.807 692.805 369.673 683.364 353.92 675.216C332.613 664.161 311.561 652.133 287.754 647.579C277.797 645.688 273.018 641.089 268.228 632.842C256.114 611.981 238.359 595.719 221.256 578.971C207.748 565.705 193.455 553.168 183.056 537.083C173.1 521.606 167.259 504.968 168.166 486.296C168.473 479.717 169.836 473.23 172.204 467.083C173.509 463.689 173.199 461.621 169.991 459.433C149.16 445.492 140.708 424.819 138.263 400.708C136.338 381.793 140.133 363.552 143.374 345.201C147.965 319.221 153.165 293.142 150.111 266.71C149.005 257.225 152.003 251.885 157.789 245.429C172.735 228.725 182.47 208.615 192.426 188.738C202.526 168.585 211.067 147.536 226.422 130.423C238.757 116.693 253.249 106.599 271.779 103.095C277.1 102.078 282.422 102.719 287.743 102.531C289.834 102.454 291.382 102.531 292.168 99.7342C301.107 68.2162 324.659 52.7391 354.119 44.0609C368.501 39.8047 383.579 38.5334 398.37 36.3223C425.828 32.1325 453.628 29.225 478.586 15.5057C480.655 14.4002 481.982 14.9971 483.586 15.8594C501.807 25.5547 521.731 29.4461 541.754 33.0169C566.092 37.3615 591.005 38.2128 614.536 46.3603C636.739 54.0989 656.11 66.1378 665.082 88.9555C668.92 98.7171 672.671 102.664 683.977 103.415C711.899 105.251 730.65 122.917 745.441 145.082C755.862 160.681 762.887 178.137 771.328 194.83C780.045 212.042 788.885 229.178 801.275 244.157C801.507 244.445 801.662 244.832 801.95 245.02C812.924 252.04 812.537 262.498 810.534 273.42C808.786 282.972 810.534 292.49 811.408 301.909C813.743 327.015 820.203 351.568 822.692 376.63C824.905 398.364 823.035 419.889 811.198 439.312C806.045 447.849 799.002 455.091 790.61 460.483C788.143 462.075 786.982 463.744 788.044 466.806C797.945 495.549 790.002 520.799 772.722 544.103C762.699 557.613 750.088 568.701 738.073 580.353C721.833 596.095 704.73 611.307 693.413 631.129C687.528 641.432 680.824 646.606 669.075 649.071C644.859 654.167 623.585 667.013 601.836 678.356C585.618 686.813 569.754 696.044 551.578 700.024C543.967 701.726 536.267 703.208 532.262 703.075ZM528.224 694.231C535.814 694.452 543.148 692.949 550.483 691.235C567.685 687.2 582.719 678.29 598.141 670.23C620.897 658.402 643.321 645.666 668.544 639.796C676.288 637.994 680.89 634.655 684.895 627.812C696.699 607.592 713.879 591.806 730.352 575.5C741.846 564.124 754.192 553.522 764.148 540.698C781.13 518.82 789.449 494.941 778.95 467.514C776.738 461.743 777.446 458.283 783.088 454.834C805.434 441.17 813.555 419.811 814.373 394.783C815.28 367.267 806.806 340.956 803.963 313.915C802.403 299.002 800.169 284.155 801.883 269.02C802.315 265.239 804.527 260.696 800.954 257.048C788.586 244.434 779.669 229.41 771.295 214.11C760.774 194.808 752.488 174.312 741.359 155.352C731.602 138.77 719.134 124.818 701.113 116.659C690.791 111.961 679.95 110.922 668.887 111.53C664.816 111.751 663.013 110.424 662.006 106.5C660.772 101.352 659.054 96.333 656.873 91.5092C647.16 71.1679 629.581 60.555 609.027 53.922C586.957 46.8578 563.725 45.8518 541.101 41.872C521.62 38.4449 502.238 34.6862 484.239 26.0633C483.224 25.4867 482.073 25.1928 480.905 25.2123C479.738 25.2317 478.597 25.5638 477.601 26.1738C469.722 30.032 461.461 33.059 452.954 35.2058C425.894 42.6237 397.872 44.5031 370.403 49.5774C336.275 55.8566 308.452 70.195 299.038 107.152C298.186 110.469 296.46 111.298 293.219 111.265C286.437 111.198 279.612 110.657 272.874 111.994C252.287 116.096 237.806 129.019 225.979 145.303C213.412 162.615 205.679 182.603 195.933 201.463C185.822 221.074 175.334 240.41 159.935 256.55C159.375 257.013 158.945 257.612 158.685 258.29C158.425 258.968 158.345 259.701 158.453 260.419C159.878 270.383 160.249 280.47 159.559 290.511C158.585 309.382 155.333 327.9 152.191 346.45C149.326 363.353 145.697 380.101 146.914 397.502C148.607 421.602 157.413 441.534 178.554 454.701C183.167 457.586 184.273 460.56 182.06 465.833C172.701 488.286 176.673 509.479 188.941 529.71C199.385 546.933 214.53 559.956 228.657 573.863C247.541 592.447 266.724 610.754 279.545 634.379C280.014 635.257 280.694 636.004 281.525 636.552C282.356 637.101 283.31 637.433 284.302 637.519C301.615 640.559 317.678 647.214 333.288 654.908C353.002 664.626 372.362 675.084 392.12 684.679C405.367 691.12 419.961 694.308 434.689 693.977C450.044 693.678 463.64 687.764 475.3 677.836C478.885 674.774 481.374 674.752 484.98 677.836C497.348 688.482 511.619 694.552 528.224 694.231Z" fill="#FFF6DF"/>
<path d="M689.242 243.096C689.706 256.075 693.977 267.417 698.092 278.815C702.805 291.904 709.155 304.43 711.024 318.492C712.639 330.885 711.157 342.669 704.951 353.658C703.844 355.582 702.738 357.129 704.132 359.639C713.137 375.934 712.153 392.804 706.455 409.785C701.842 423.515 695.393 436.582 691.355 450.533C689.142 458.272 686.93 466.099 687.892 474.324C687.988 474.67 688.014 475.031 687.967 475.387C687.921 475.742 687.804 476.085 687.622 476.395C687.44 476.704 687.198 476.974 686.91 477.188C686.622 477.402 686.294 477.556 685.945 477.64C677.637 480.957 671.796 487.358 665.855 493.648C655.102 505.035 646.849 518.5 635.897 529.71C624.403 541.483 610.918 548.968 593.969 548.824C592.244 548.824 590.794 549.023 589.843 550.836C578.88 571.642 559.974 578.883 538.092 581.447C525.642 582.731 513.299 584.889 501.153 587.904C493.619 589.882 486.451 592.602 480.134 597.201C473.856 593.061 466.937 589.987 459.657 588.103C444.999 584.355 429.909 583.205 415.074 580.607C395.781 577.224 379.308 569.331 369.451 551.3C369.136 550.652 368.624 550.121 367.988 549.781C367.352 549.442 366.625 549.312 365.911 549.41C346.142 549.332 331.307 539.538 318.928 525.21C308.839 513.525 300.022 500.768 288.892 489.945C283.704 484.893 275.263 482.206 272.298 477.055C269.334 471.903 271.336 463.324 269.4 456.426C265.484 442.43 259.443 429.219 254.1 415.754C248.325 401.261 245.803 386.514 249.963 371.07C251.456 365.542 256.523 360.811 256.357 355.593C256.191 350.54 252.264 345.544 251.224 340.115C248.724 327.082 250.903 314.545 255.24 302.219C260.417 287.527 266.822 273.255 270.185 257.943C271.579 251.62 269.809 244.169 272.254 239.15C274.522 234.518 282.211 232.517 286.713 228.006C296.791 217.957 305.044 206.449 313.551 195.128C321.041 185.179 329.426 176.257 340.666 170.465C347.997 166.539 356.201 164.527 364.517 164.616C366.73 164.616 368.732 164.815 370.159 162.339C380.912 143.8 398.48 136.526 418.514 133.397C432.896 131.186 447.366 129.859 461.405 125.857C467.268 124.188 472.976 122.187 477.999 118.672C479.105 117.865 480.079 116.737 481.782 118.03C494.095 127.328 509.019 128.478 523.433 131.064C534.817 133.11 546.466 133.729 557.54 137.498C570.671 141.92 581.612 149.272 588.947 161.3C589.976 162.991 590.916 163.964 593.228 163.821C612.035 162.571 626.682 170.896 638.995 184.073C650.057 195.902 658.576 209.854 669.749 221.661C674.949 227.188 680.259 232.627 687.262 235.745C691.886 237.735 688.478 241.14 689.242 243.096ZM611.902 361.474V360.368H530.779C528.058 360.368 525.414 359.76 525.004 364.105C523.898 376.089 517.913 385.607 508.554 392.948C506.142 394.838 505.866 396.131 507.392 398.718C534.998 445.783 562.533 492.878 589.998 540.002C590.458 540.979 591.214 541.785 592.16 542.307C593.105 542.829 594.192 543.04 595.264 542.909C605.44 542.54 615.293 539.242 623.64 533.413C631.538 528.051 637.258 520.589 642.999 513.171C651.219 502.547 659.483 491.968 669.262 482.693C673.013 479.133 678.92 477.298 681.188 473.329C683.578 469.139 682.449 463.004 683.644 457.774C687.383 441.391 694.463 426.223 700.526 410.691C706.588 395.159 706.168 380.301 699.253 365.288C697.86 362.27 696.167 361.396 692.992 361.408C665.955 361.573 638.951 361.474 611.902 361.474ZM479.968 124.807C479.16 125.216 478.331 125.603 477.534 126.056C469.868 130.302 461.526 132.689 453.019 134.182C440.905 136.393 428.681 138.062 416.512 140.052C399.741 142.805 386.167 150.731 376.377 164.849C374.706 167.27 374.518 169.204 376.056 171.846C403.344 218.875 430.565 265.955 457.721 313.086C459.38 315.96 460.697 316.237 463.673 314.976C468.67 312.802 474.054 311.654 479.505 311.601C484.956 311.548 490.361 312.59 495.4 314.667C499.405 316.27 500.854 315.529 502.879 312.025C528.19 268.084 553.602 224.203 579.112 180.381C586.358 167.9 586.226 166.617 575.959 156.06L575.572 155.673C564.731 144.342 550.659 140.892 535.746 138.803C517.227 136.216 498.31 134.989 481.417 125.614C481.008 125.327 480.521 125.095 479.968 124.807ZM347.425 361.197V360.368C320.388 360.368 293.351 360.468 266.324 360.269C262.154 360.269 260.151 361.64 258.581 365.376C252.408 380.234 252.629 394.915 258.459 409.829C264.455 425.184 271.347 440.208 275.606 456.26C277.221 462.351 275.606 469.714 278.693 474.379C281.923 479.31 288.793 482.007 293.34 486.595C304.624 497.993 313.883 511.093 324.028 523.442C331.606 532.673 340.954 539.151 352.558 542.235C365.966 545.795 367.427 545.187 374.33 533.391L375.171 531.976C400.571 488.323 426.004 444.674 451.47 401.029C453.417 397.712 453.915 395.833 450.22 393.102C441.237 386.469 436.248 377.05 434.732 366.117C434.157 362.115 433.095 361.065 429.102 361.098C401.865 361.286 374.651 361.197 347.425 361.197ZM610.564 354.841V355.106C637.236 355.106 663.908 355.106 690.58 355.184C693.899 355.184 695.835 354.299 697.594 351.347C706.61 336.302 706.809 320.847 700.614 304.839C694.419 288.831 685.978 273.255 683.589 256.197C682.084 245.451 678.057 238.508 669.539 231.997C658.277 223.286 650.478 211.125 641.639 200.07C635.565 192.475 629.636 184.692 621.582 178.955C614.026 173.56 605.696 170.686 596.271 171.216C593.206 171.404 591.403 172.72 589.832 175.417C562.588 222.239 535.248 269.006 507.813 315.717C506.131 318.591 505.91 320.139 508.919 322.35C513.445 325.698 517.216 329.96 519.987 334.858C522.758 339.756 524.467 345.182 525.004 350.784C525.436 354.808 527.56 354.83 530.536 354.819C557.219 354.76 583.895 354.767 610.564 354.841ZM585.849 547C585.307 545.894 584.887 544.877 584.345 543.949C556.828 496.633 529.322 449.31 501.828 401.98C500.489 399.68 499.461 398.995 496.739 400.167C491.509 402.49 485.855 403.707 480.131 403.739C474.408 403.771 468.74 402.619 463.485 400.355C460.376 399.061 459.126 399.647 457.544 402.444C430.706 449.929 403.786 497.363 376.786 544.745C375.104 547.696 375.58 549.642 377.439 552.118C386.253 564.141 399.385 572.283 414.078 574.836C430.495 577.987 447.267 578.916 463.451 583.614C468.894 585.195 491.108 585.217 496.507 583.681C510.722 579.623 525.38 578.153 539.917 575.942C557.617 573.344 572.463 565.871 583.216 551.212C584.179 549.907 584.964 548.47 585.849 547ZM348.509 353.061V354.432C375.558 354.432 402.617 354.432 429.666 354.509C432.985 354.509 434.179 353.912 434.666 350.209C435.306 344.71 437.068 339.401 439.842 334.609C442.616 329.818 446.344 325.645 450.796 322.35C453.705 320.139 453.683 318.602 452.001 315.717C424.713 268.902 397.462 222.04 370.248 175.13C368.787 172.609 367.305 171.57 364.174 171.813C351.004 172.665 338.568 178.175 329.094 187.357C322.457 193.57 317.39 201.054 311.781 208.096C303.882 218.046 296.349 228.482 285.872 235.8C280.098 239.835 276.613 243.848 277.188 251.1C277.387 253.554 276.27 256.119 275.684 258.618C271.9 274.603 264.676 289.34 259.089 304.684C253.503 320.028 253.558 334.875 261.413 349.457C262.751 351.967 264.234 353.172 267.342 353.16C294.424 353.006 321.45 353.061 348.509 353.061ZM441.016 357.77C441.016 379.162 458.772 396.916 479.946 396.728C487.671 396.748 495.229 394.476 501.661 390.201C508.093 385.925 513.111 379.838 516.079 372.711C519.047 365.583 519.832 357.736 518.334 350.162C516.835 342.589 513.122 335.63 507.663 330.167C502.204 324.704 495.246 320.983 487.669 319.475C480.093 317.967 472.239 318.74 465.102 321.696C457.965 324.652 451.867 329.658 447.579 336.08C443.291 342.501 441.007 350.05 441.016 357.77Z" fill="#FFF6DF"/>
<path d="M337.492 123.072C337.492 116.439 335.589 111.895 334.317 107.263C333.399 103.946 334.771 102.775 337.194 101.227C339.793 99.5687 341.043 100.696 342.659 102.498C346.066 106.279 349.65 109.916 354.285 114.803C353.732 108.656 351.94 104.389 350.447 100.144C348.953 95.8984 349.34 93.0573 354.662 92.1729C357.261 101.426 359.85 110.767 362.527 120.087C363.302 122.773 361.487 123.503 359.784 124.675C357.737 126.079 356.465 125.305 355.104 123.812C351.697 120.197 348.223 116.671 344.749 113.133C343.776 112.149 343.079 110.557 341.121 111.232C342.559 116.759 343.842 122.364 345.546 127.814C346.442 130.755 345.988 132.358 343.178 134.049C340.369 135.741 339.295 133.972 337.824 132.369C332.359 126.421 326.85 120.518 321.44 114.526C320.533 113.52 318.121 112.315 320.633 110.69C322.281 109.585 324.051 107.727 326.252 110.392C329.516 114.405 333.089 118.163 337.492 123.072ZM337.725 123.072C337.846 122.939 338.067 122.806 338.079 122.674C338.09 122.541 337.868 122.386 337.747 122.254L337.348 122.84L337.725 123.072Z" fill="#FFF6DF"/>
<path d="M210.736 282.32C214.929 283.624 219.1 285.039 223.337 286.211C225.549 286.819 226.324 287.77 225.649 290.102C224.919 292.623 223.547 292.579 221.511 291.904C214.022 289.417 206.499 287.04 199.01 284.575C197.251 284 194.33 283.912 195.813 280.894C196.996 278.506 195.691 274.05 200.758 274.415C206.156 274.802 211.566 274.924 218.071 275.211C213.469 270.789 208.822 268.324 204.353 265.759C199.408 262.918 202.848 259.789 203.534 256.915C204.475 253.013 207.13 255.699 208.789 256.186C216.002 258.308 223.171 260.74 230.295 262.995C232.364 263.648 234.068 264.178 233.116 267.097C232.165 270.015 230.561 269.54 228.514 268.744C224.155 267.042 219.586 266.334 213.502 265.295C218.535 268.401 222.264 270.623 225.903 273.033C227.883 274.316 230.594 274.791 229.399 278.683C228.204 282.574 225.516 280.993 223.27 281.214C222.538 281.189 221.814 281.051 221.124 280.805C219.918 279.622 218.569 279.987 217.219 280.473L211.61 280.208C209.84 279.777 208.048 279.235 206.189 280.485C206.729 281.152 207.429 281.67 208.225 281.991C209.02 282.312 209.885 282.425 210.736 282.32Z" fill="#FFF6DF"/>
<path d="M755.696 303.899C751.271 304.673 746.968 305.424 742.709 306.11C740.496 306.475 738.106 307.768 737.354 303.899C736.602 300.03 739.567 300.693 741.359 300.339C748.561 298.935 755.807 297.697 763.064 296.58C764.624 296.337 766.847 294.48 767.821 297.122C768.695 299.499 768.994 301.964 766.372 304.031C762.478 307.083 758.882 310.521 755.198 313.848C754.446 314.534 753.24 314.954 753.362 316.778C758.252 317.11 762.865 315.352 767.611 314.766C769.525 314.534 770.996 314.003 771.505 316.866C772.014 319.73 770.841 320.338 768.474 320.736C760.874 321.985 753.296 323.433 745.684 324.682C744.136 324.937 742.023 326.562 741.082 323.732C740.319 321.443 739.766 319.31 742.189 317.32C745.629 314.578 748.826 311.582 752.079 308.553C753.373 307.304 755.287 306.585 755.696 303.899Z" fill="#FFF6DF"/>
<path d="M725.705 224.479C721.435 226.557 717.143 228.592 712.928 230.758C711.224 231.632 710.063 232.019 709.012 229.808C708.082 227.829 707.828 226.635 710.118 225.463C717.01 222.014 723.747 218.266 730.65 214.828C732.177 214.076 733.814 211.512 735.806 213.8C737.797 216.088 738.118 218.344 736.171 221.207C732.852 226.038 730.119 231.245 726.657 237.104C732.31 236.076 736.171 232.87 740.529 230.858C742.366 230.007 743.848 228.647 745.32 231.599C746.636 234.23 745.519 235.103 743.45 236.153C736.569 239.636 729.799 243.328 722.884 246.733C721.568 247.374 719.986 249.895 718.249 247.352C716.966 245.451 715.572 243.593 717.309 240.907C720.628 235.822 723.449 230.482 726.48 225.253C726.557 224.833 726.635 224.413 726.723 223.993L725.705 224.479Z" fill="#FFF6DF"/>
<path d="M511.43 87.4189C512.016 80.9627 512.469 75.9658 512.945 70.9689C513.144 68.9569 513.045 66.8896 516.209 67.1328C519.162 67.365 519.196 68.9016 518.941 71.2232C518.134 78.6964 517.636 86.2028 516.729 93.665C516.529 95.3343 517.625 98.1865 514.417 98.3855C511.728 98.5624 509.626 97.7996 508.343 94.881C505.858 89.2211 502.855 83.8032 499.371 78.6964C498.848 83.5828 498.331 88.4728 497.822 93.3665C497.634 95.2237 497.668 96.882 494.78 96.683C491.893 96.484 491.683 95.0026 491.926 92.7032C492.711 85.042 493.353 77.3698 494.139 69.7087C494.304 68.0393 493.663 65.5851 496.351 65.4746C498.696 65.3861 500.854 65.6736 502.104 68.5479C504.77 74.4955 507.867 80.2441 511.43 87.4189Z" fill="#FFF6DF"/>
<path d="M706.102 173.217C706.19 181.199 700.57 188.395 693.645 191.159C687.616 193.558 683.312 192.265 678.157 186.461C670.502 177.86 670.502 177.86 679.263 170.121C683.401 166.495 687.516 162.858 691.676 159.265C692.561 158.503 693.7 156.8 694.818 158.16C699.176 163.422 705.327 167.535 706.102 173.217ZM700.227 174.51C699.984 171.304 697.672 168.441 694.906 166.551C692.76 165.091 691.432 168.275 689.873 169.502C686.864 171.879 684.153 174.643 681.133 176.998C679.153 178.534 679.208 179.784 680.812 181.42C683.191 183.874 685.06 187.179 689.375 186.041C693.689 184.902 699.906 178.534 700.227 174.51Z" fill="#FFF6DF"/>
<path d="M441.812 93.4439C445.408 92.9685 448.694 92.5705 451.968 92.0952C454.037 91.7967 455.973 91.2661 456.393 94.4278C456.814 97.5895 454.601 97.1031 452.942 97.3353C448.03 98.0539 442.985 98.2971 438.206 99.3915C434.08 100.331 432.675 99.093 432.265 95.069C431.528 87.7579 430.573 80.4726 429.4 73.2131C428.913 70.2062 429.466 68.7911 432.719 68.5147C438.25 67.973 443.66 67.166 449.114 66.3701C450.795 66.1268 452.012 66.0826 452.178 68.2384C452.3 69.9961 452.51 71.4664 449.966 71.6986C446.315 72.0302 442.698 72.8041 439.047 73.1468C436.005 73.4011 436.281 75.1146 436.447 77.3367C436.624 79.8462 437.62 80.3989 439.932 79.9678C442.996 79.3819 446.127 79.1386 449.202 78.608C451.072 78.2874 452.289 78.3427 452.72 80.6753C453.152 83.0079 452.256 83.6491 450.231 83.8702C447.134 84.2129 444.058 84.8762 440.95 85.0642C437.841 85.2521 437.498 86.9767 437.985 89.4862C438.472 91.9957 438.361 94.6378 441.812 93.4439Z" fill="#FFF6DF"/>
<path d="M567.531 78.2207C563.859 80.4317 560.894 82.6428 557.73 84.1905C554.566 85.7382 553.714 87.717 555.042 91.122C557.088 96.3952 558.726 101.834 560.65 107.539C555.407 107.837 552.01 106.433 551.369 100.839C551.179 99.0145 550.669 97.2371 549.864 95.5882C549.035 93.9742 549.975 90.6577 547.287 90.9893C545.986 91.0963 544.748 91.5922 543.734 92.4125C542.72 93.2329 541.976 94.3395 541.6 95.5882C541.131 96.9751 540.761 98.3938 540.494 99.8334C540.206 102.409 538.835 102.719 536.677 102.144C534.52 101.569 533.469 101.038 534.199 98.4183C536.467 90.315 538.481 82.1342 540.516 73.9645C541.058 71.7535 542.054 70.9133 544.41 71.6098C546.534 72.2289 547.574 73.1022 546.877 75.4791C546.003 78.4197 545.34 81.4156 544.521 84.6658C552.42 83.0628 557.088 72.4942 567.531 78.2207Z" fill="#FFF6DF"/>
<path d="M314.88 151.77C313.028 151.819 311.208 151.281 309.68 150.234C308.474 149.393 306.074 148.73 307.645 146.674C308.662 145.336 309.769 142.871 312.468 144.518C315.853 146.585 318.807 145.524 321.373 142.926C322.911 141.356 323.586 139.344 322.38 137.399C321.174 135.453 319.205 135.895 317.391 136.536C314.625 137.509 311.937 138.747 309.116 139.521C305.244 140.627 301.704 139.787 299.447 136.205C297.19 132.623 297.799 128.875 300.553 125.559C304.447 120.849 310.333 118.417 314.559 120.031C316.108 120.639 318.895 121.247 317.999 123.348C317.258 125.094 315.521 127.637 312.413 126.089C311.603 125.669 310.686 125.5 309.78 125.603C308.599 125.816 307.487 126.307 306.535 127.036C305.582 127.765 304.817 128.71 304.304 129.793C303.977 130.253 303.845 130.823 303.936 131.379C304.027 131.936 304.334 132.434 304.79 132.767C306.782 134.027 308.662 132.866 310.543 132.225C313.087 131.179 315.7 130.311 318.364 129.627C319.942 129.308 321.575 129.41 323.1 129.923C324.625 130.437 325.988 131.343 327.05 132.551C328.113 133.758 328.838 135.225 329.152 136.802C329.467 138.379 329.359 140.011 328.841 141.533C327.259 146.541 320.057 151.792 314.88 151.77Z" fill="#FFF6DF"/>
<path d="M590.972 87.707C596.924 87.707 603.374 91.709 604.491 96.33C604.978 98.3531 605.73 101.316 603.285 101.858C602.697 101.993 602.087 101.997 601.497 101.87C600.907 101.743 600.352 101.488 599.872 101.123C599.392 100.758 598.998 100.292 598.718 99.758C598.438 99.2239 598.279 98.6348 598.252 98.0325C597.986 94.6164 595.187 93.7873 592.388 93.2014C591.05 92.914 589.756 93.0577 589.07 94.4175C588.773 95.0001 588.7 95.6706 588.863 96.3034C589.026 96.9363 589.414 97.4881 589.955 97.8556C592.3 99.9118 594.767 101.835 597.079 103.925C600.829 107.319 601.714 111.376 599.192 115.831C596.769 120.098 592.908 121.093 588.306 120.12C581.138 118.595 576.137 113.985 576.137 108.479C576.137 106.91 575.529 104.279 578.35 104.444C580.098 104.555 582.675 104.699 582.476 107.761C582.356 108.879 582.579 110.007 583.117 110.994C583.654 111.982 584.481 112.782 585.485 113.288C588.14 114.737 591.172 116.119 593.362 112.946C595.552 109.773 592.322 108.524 590.53 106.81C588.384 105.085 586.338 103.239 584.401 101.283C583.243 100.072 582.51 98.5193 582.31 96.8569C582.111 95.1945 582.456 93.5123 583.295 92.0627C583.964 90.6303 585.063 89.4415 586.438 88.661C587.814 87.8805 589.399 87.5471 590.972 87.707Z" fill="#FFF6DF"/>
<path d="M486.761 64.2254C486.365 65.0063 485.929 65.7664 485.455 66.5028C482.623 70.0404 477.003 72.8042 477.225 76.8945C477.446 80.9849 481.86 84.5336 484.283 88.4139C485.621 90.5254 487.657 92.2721 488.055 94.9806C483.298 96.4288 479.747 95.5002 477.756 90.6691C477.184 89.3102 476.408 88.0464 475.455 86.9215C474.028 85.2411 473.674 81.2392 471.207 82.2341C469.751 82.8647 468.537 83.9445 467.74 85.3153C466.944 86.686 466.608 88.2756 466.781 89.8511C466.97 92.2611 468.751 96.1524 463.463 95.9534C461.648 95.8761 460.841 95.5555 460.808 93.5656C460.638 84.7215 460.395 75.9033 460.077 67.1108C459.989 64.546 461.737 64.7229 463.396 64.546C465.321 64.347 466.56 64.7671 466.472 67.1219C466.35 70.3499 466.472 73.578 466.472 77.7347C472.534 73.4011 474.802 66.8565 480.643 64.3249C482.203 63.6285 484.393 64.2254 486.761 64.2254Z" fill="#FFF6DF"/>
<path d="M278.526 153.86C277.698 153.681 276.838 153.727 276.034 153.994C275.231 154.26 274.513 154.737 273.957 155.374C272.452 156.955 270.516 158.835 272.109 161.09C273.702 163.345 275.782 161.598 277.497 160.747C280.13 159.454 282.541 157.663 285.241 156.635C291.58 154.225 297.708 158.724 297.631 165.479C297.531 173.217 287.575 180.867 280.65 178.369C279.156 177.838 276.379 177.595 277.419 175.052C278.127 173.306 279.222 170.874 282.331 172.189C286.413 173.925 288.969 171.548 290.905 168.353C291.391 167.669 291.636 166.843 291.602 166.005C291.568 165.167 291.256 164.363 290.717 163.721C289.444 162.107 287.785 162.394 286.236 163.179C283.46 164.583 280.827 166.297 277.995 167.601C274.111 169.381 270.383 169.027 267.529 165.556C264.675 162.085 265.084 158.337 267.529 154.877C270.217 151.074 273.403 147.636 278.514 147.481C280.804 147.404 284.145 147.614 284.046 150.455C284.027 151.097 283.849 151.725 283.528 152.282C283.206 152.838 282.751 153.306 282.204 153.644C281.657 153.982 281.034 154.178 280.392 154.216C279.75 154.253 279.109 154.131 278.526 153.86Z" fill="#FFF6DF"/>
<path d="M242.718 205.597C240.218 204.027 238.06 202.424 235.682 201.241C232.784 199.793 232.629 198.168 234.421 195.659C235.527 194.089 236.368 194.034 237.917 195.006C245.207 199.605 252.531 204.16 259.932 208.593C262.221 209.975 261.613 211.202 260.551 213.015C259.312 215.116 258.128 215.414 256.214 213.911C254.931 212.893 253.261 212.341 252.044 211.257C248.515 208.129 246.767 209.267 244.245 212.993C241.092 217.647 241.612 219.913 246.512 222.478C248.448 223.484 253.825 223.517 250.849 228.625C249.743 230.493 248.858 231.333 246.623 229.885C239.543 225.308 232.341 220.908 225.117 216.553C222.905 215.259 223.07 214.032 224.254 212.131C225.438 210.229 226.467 209.422 228.447 211.025C229.429 211.873 230.552 212.543 231.766 213.004C233.481 213.623 234.996 216.663 236.755 214.817C239.067 212.33 240.527 209.035 242.718 205.597Z" fill="#FFF6DF"/>
<path d="M219.672 304.994C220.612 304.684 221.575 304.994 221.353 306.53C221.088 308.41 221.785 311.494 219.252 311.594C212.614 311.859 212.924 316.48 212.039 321.024C211.386 324.451 212.271 326.297 215.357 327.347C218.931 328.563 218.422 331.482 217.282 333.615C215.711 336.534 213.886 333.615 212.525 332.852C205.445 329.005 198.509 324.915 191.506 320.924C189.592 319.819 187.645 319.034 188.32 316.027C188.895 313.473 189.681 311.914 192.579 311.306C201.485 309.427 210.368 307.183 219.672 304.994ZM206.651 322.604C206.651 319.465 208.554 315.905 207.049 315.198C204.018 313.783 200.522 315.651 196.938 316.734C199.648 319.465 202.923 320.57 206.651 322.604Z" fill="#FFF6DF"/>
<path d="M263.494 208.217C258.416 199.528 253.537 190.96 248.404 182.514C246.999 180.192 247.431 178.622 248.957 176.622C250.484 174.621 252.011 174.543 254.179 175.218C262.41 177.771 270.684 180.148 278.915 182.702C280.187 183.1 282.964 182.702 281.935 185.222C281.238 186.925 280.431 189.534 277.322 188.926C275.276 188.517 273.063 186.339 271.171 188.075C268.771 190.286 266.99 193.16 264.921 195.725C263.815 197.073 264.6 198.256 265.43 199.174C268.549 202.667 267.244 205.376 263.494 208.217ZM256.679 182.635L255.993 182.016L255.86 183.343C257.122 185.554 258.372 187.765 259.666 189.921C260.197 190.816 260.85 192.132 262.022 190.805C263.195 189.479 264.987 187.666 265.175 185.93C265.363 184.194 262.797 184.316 261.381 183.818C259.965 183.321 258.25 183.022 256.679 182.635Z" fill="#FFF6DF"/>
<path d="M689.43 198.467C699.519 196.145 709.343 193.934 719.177 191.591C721.235 191.104 722.22 192.022 723.16 193.57C724.1 195.117 725.505 196.355 724.067 198.467C718.27 206.913 712.584 215.448 706.842 223.971C703.147 221.086 702.417 218.532 705.338 214.607C708.391 210.517 703.125 208.394 701.897 205.244C701.068 203.099 699.43 201.927 697.096 203.033C693.003 204.912 690.945 202.911 689.43 198.467ZM716.323 199.163L715.416 198.18C712.374 199.163 708.635 199.407 706.566 201.397C705.349 202.557 708.579 205.354 710.261 207.808C712.462 204.658 714.387 201.905 716.323 199.163Z" fill="#FFF6DF"/>
<path d="M230.46 232.804C234.663 232.804 238.889 232.627 243.071 232.903C244.332 232.992 247.109 231.997 246.788 234.517C246.534 236.474 246.213 239.382 242.695 239.326C240.792 239.326 238.27 237.911 237.02 239.857C235.195 242.812 233.71 245.965 232.595 249.254C231.942 251.078 233.955 252.139 235.139 253.112C237.352 254.947 236.776 256.683 235.803 258.905C234.697 261.315 233.9 261.016 232.385 259.413C225.957 252.626 219.519 245.838 212.958 239.183C211.21 237.403 212.051 235.921 212.748 234.241C213.445 232.561 214.474 231.19 216.786 231.389C221.344 231.765 225.924 231.92 230.493 232.163L230.46 232.804ZM219.552 237.502C222.871 240.918 224.663 244.567 228.07 245.02C229.353 245.186 230.747 241.217 231.035 238.387L219.552 237.502Z" fill="#FFF6DF"/>
<path d="M395.503 109.242C392.251 111.873 389.33 113.199 386.653 109.12C384.872 106.412 382.637 107.009 380.535 108.346C377.759 110.115 372.449 109.253 373.101 114.747C373.654 119.335 370.955 120.275 366.773 120.905C366.773 110.646 366.773 100.608 366.773 90.5808C366.773 88.3698 367.88 87.3969 369.771 86.6231C371.663 85.8492 373.09 85.6281 374.639 87.3196C381.465 94.6601 388.456 101.879 395.503 109.242ZM372.537 93.7646C372.537 97.5123 372.537 99.9997 372.537 102.487C372.537 104.974 373.157 105.571 375.756 104.698C379.827 103.371 380.956 101.879 377.228 98.7726C375.574 97.1785 374.008 95.4956 372.537 93.7315V93.7646Z" fill="#FFF6DF"/>
<path d="M643.651 120.031C643.704 121.696 643.322 123.345 642.542 124.817C641.763 126.289 640.613 127.533 639.206 128.426C637.799 129.318 636.184 129.829 634.519 129.908C632.854 129.987 631.198 129.631 629.712 128.875C629.19 128.688 628.701 128.419 628.263 128.079C623.318 123.425 620.221 125.448 617.875 130.81C616.913 133.021 615.807 134.447 612.93 132.545C610.308 130.81 611.182 129.516 612.366 127.659C616.636 121.026 620.907 114.393 625 107.594C626.394 105.295 627.566 104.51 630 106.29C633.109 108.567 636.472 110.502 639.691 112.635C640.953 113.401 641.986 114.492 642.682 115.792C643.379 117.093 643.714 118.557 643.651 120.031ZM632.744 123.889C633.885 123.89 634.983 123.45 635.808 122.661C636.633 121.872 637.12 120.795 637.169 119.655C637.401 117.654 631.947 112.381 630.044 112.967C627.179 113.851 625.343 117.256 625.619 119.169C626.206 122.253 630.011 123.038 632.744 123.889Z" fill="#FFF6DF"/>
<path d="M420.306 101.956C420.693 103.349 418.845 103.482 417.285 104.045C414.774 104.963 414.022 103.537 413.546 101.525C412.163 95.6435 410.46 89.8286 409.453 83.8367C408.811 80.0117 407.24 79.5695 403.922 80.5202C402.329 80.9403 399.762 83.3503 398.811 79.271C397.97 75.6228 400.658 75.9545 402.627 75.457C407.771 74.1414 412.938 72.8922 418.115 71.6762C419.974 71.234 421.976 70.1395 422.916 73.2349C423.934 76.5514 421.511 76.6288 419.675 76.8168C415.25 77.27 414.431 79.2599 415.659 83.3393C417.407 89.11 418.613 95.0466 420.306 101.956Z" fill="#FFF6DF"/>
<path d="M753.683 255.113C756.327 255.036 755.763 257.324 756.437 258.629C757.444 260.53 756.028 261.105 754.49 261.625C748.76 263.559 743.129 265.792 737.332 267.462C733.88 268.457 732.741 269.761 734.389 273.221C735.562 275.676 736.126 278.417 737.055 280.96C737.741 282.861 737.376 283.89 735.307 284.686C732.918 285.592 732.498 284.232 731.989 282.607C730.307 277.577 728.604 272.558 726.933 267.528C726.557 266.423 725.495 264.941 727.353 264.278C736.115 261.171 744.954 258.153 753.683 255.113Z" fill="#FFF6DF"/>
<path d="M663.464 164.395C662.892 165.216 662.268 165.999 661.594 166.739C660.488 167.845 659.625 166.883 658.795 166.175C654.625 162.582 650.498 158.923 646.25 155.419C644.436 153.926 644.27 152.821 645.907 150.997C651.527 144.695 656.97 138.283 662.501 131.816C663.895 130.158 664.913 130.047 666.429 131.584C667.734 132.911 669.416 133.795 667.435 136.006C663.386 140.505 659.78 145.447 655.499 149.703C652.313 152.865 653.009 154.7 656.229 156.911C658.155 158.322 659.975 159.874 661.672 161.554C662.391 162.218 663.574 162.715 663.464 164.395Z" fill="#FFF6DF"/>
<path d="M736.556 295.674C734.808 296.193 734.808 294.48 734.443 293.087C734.078 291.694 733.049 289.826 735.55 289.162C744.212 286.951 752.885 284.663 761.536 282.375C763.461 281.855 764.291 282.773 764.556 284.453C764.788 285.934 766.005 287.869 763.527 288.543C754.755 290.931 745.904 293.209 736.556 295.674Z" fill="#FFF6DF"/>
<path d="M309.281 157.895C309.171 159.587 307.633 160.106 306.659 161.212C305.321 162.627 304.447 161.776 303.54 160.714C297.732 154.081 291.924 147.448 286.06 140.815C284.401 138.947 285.529 137.908 286.923 136.802C288.03 135.918 289.014 134.448 290.541 136.194C296.596 143.115 302.647 150.039 308.695 156.967C308.919 157.257 309.115 157.568 309.281 157.895Z" fill="#FFF6DF"/>
<path d="M657.657 125.459C657.27 126.079 656.838 126.875 656.307 127.593C651.384 134.226 646.417 140.859 641.527 147.492C640.321 149.139 639.403 150.289 637.235 148.498C635.387 146.984 634.525 145.978 636.317 143.678C641.394 137.156 646.196 130.412 651.174 123.779C651.937 122.773 652.524 120.75 654.493 122.154C655.643 123.038 657.081 123.635 657.657 125.459Z" fill="#FFF6DF"/>
<path d="M522.902 96.484C524.307 88.3917 525.801 80.0893 527.15 71.7649C527.604 68.979 529.219 69.4101 531.177 69.6865C533.135 69.9629 533.921 70.8804 533.534 73.003C532.007 81.309 530.55 89.6225 529.164 97.9432C528.766 100.353 527.648 100.784 525.38 100.442C522.924 100.044 522.25 98.9161 522.902 96.484Z" fill="#FFF6DF"/>
<path d="M619.913 101.591C619.537 102.332 619.238 102.995 618.895 103.636C615.145 110.734 611.328 117.787 607.655 124.917C606.549 127.051 605.653 127.935 603.142 126.542C600.631 125.149 600.929 123.9 602.036 121.789C605.963 114.592 609.702 107.284 613.541 100.032C614.205 98.7942 614.78 97.0806 616.727 98.3851C618.032 99.2253 620.046 99.4685 619.913 101.591Z" fill="#FFF6DF"/>
<path d="M210.734 282.319C209.876 282.416 209.007 282.291 208.211 281.956C207.415 281.621 206.718 281.088 206.188 280.406C208.046 279.157 209.838 279.699 211.608 280.13C210.9 280.694 209.96 281.158 210.734 282.319Z" fill="#FFF6DF"/>
<path d="M217.219 280.396C218.568 279.91 219.918 279.545 221.124 280.728C220.522 281.094 219.819 281.259 219.117 281.2C218.415 281.14 217.75 280.859 217.219 280.396Z" fill="#FFF6DF"/>
<path d="M337.713 123.037L337.348 122.816L337.746 122.23C337.868 122.363 338.078 122.507 338.078 122.651C338.078 122.794 337.845 122.916 337.713 123.037Z" fill="#FFF6DF"/>
<path d="M725.703 224.48L726.809 223.993C726.721 224.413 726.643 224.833 726.566 225.253L725.703 224.48Z" fill="#FFF6DF"/>
<path d="M255.859 183.343L255.992 182.017L256.678 182.636C256.434 182.903 256.16 183.141 255.859 183.343Z" fill="#FFF6DF"/>
<path d="M473.009 233.61C473.009 219.836 472.821 206.05 473.131 192.287C473.231 187.964 471.837 187.124 467.865 187.246C460.121 187.5 452.377 187.047 444.711 187.146C441.857 187.146 440.994 186.394 440.905 183.465C440.562 172.056 440.441 171.99 452.046 172.078C472.633 172.233 493.221 172.587 513.798 172.62C518.787 172.62 521.088 173.526 520.258 179.363C519.064 187.699 519.495 187.71 511.154 187.566C504.903 187.467 498.631 187.787 492.347 187.467C488.486 187.257 487.922 188.871 487.856 192.231C487.723 219.792 487.314 247.352 487.28 274.912C487.28 279.434 486.174 280.86 481.55 280.694C472.047 280.351 472.047 280.628 472.047 271.076V233.599L473.009 233.61Z" fill="#FFF6DF"/>
<path d="M614.956 247.164C607.477 253.576 600.32 259.888 592.93 265.958C590.374 268.047 591.547 269.562 592.764 271.485C601.245 285.039 609.704 298.607 618.142 312.19C623.253 320.404 621.737 324.273 612.334 326.993C599.789 330.63 587.199 334.079 574.72 337.882C569.189 339.584 565.328 338.545 562.208 333.327C555.128 321.498 547.749 309.846 540.26 298.283C538.379 295.375 538.844 294.104 541.654 292.335C550.714 286.608 550.637 286.498 556.257 295.43C561.157 303.169 566.213 310.907 570.837 318.823C572.707 322.029 574.543 322.559 577.917 321.432C584.169 319.244 590.536 317.399 596.99 315.904C601.813 314.799 601.293 313.218 599.081 309.791C591.126 297.42 583.438 284.884 575.694 272.392C572.121 266.61 572.453 263.835 577.475 259.468C588.316 250.071 599.202 240.73 610.132 231.444C615.774 226.657 619.668 227.199 623.784 233.323C637.844 254.294 651.75 275.244 665.933 296.094C668.267 299.521 667.304 300.881 664.284 302.826C655.877 308.276 655.965 308.354 650.412 300.118L614.956 247.164Z" fill="#FFF6DF"/>
<path d="M287.644 307.481C287.512 305.336 288.551 303.578 289.448 301.765C302.236 275.97 315.021 250.142 327.802 224.28C331.497 216.84 335.679 215.801 342.184 220.853C367.838 240.896 393.393 261.072 419.125 281.026C422.366 283.547 421.968 285.083 419.678 287.891C413.35 295.63 413.45 295.796 405.595 289.649C384.451 273.089 363.336 256.506 342.25 239.901C339.175 237.469 337.77 237.414 336.121 241.217C333.632 246.943 330.8 252.526 327.769 257.976C325.966 261.204 326.154 262.796 329.749 264.609C342.383 270.977 354.751 277.875 367.362 284.265C370.947 286.078 371.102 287.582 369.309 290.898C364.431 299.908 364.597 299.963 355.824 295.32C344.761 289.472 333.632 283.801 322.691 277.754C319.571 276.018 318.443 276.582 317.071 279.633C314.228 285.99 311.208 292.313 307.79 298.427C305.666 302.196 306.905 303.18 310.489 304.22C337.172 311.958 363.767 319.929 390.495 327.435C395.13 328.74 395.606 330.354 394.245 334.51C391.324 343.354 391.523 343.476 382.397 340.812C353.265 332.299 324.133 323.776 295.001 315.241C290.985 313.937 287.954 312.113 287.644 307.481Z" fill="#FFF6DF"/>
</g>
<defs>
<filter id="filter0_d_1262_18768" x="0.53125" y="-124" width="959.379" height="964.474" filterUnits="userSpaceOnUse" color-interpolation-filters="sRGB">
<feFlood flood-opacity="0" result="BackgroundImageFix"/>
<feColorMatrix in="SourceAlpha" type="matrix" values="0 0 0 0 0 0 0 0 0 0 0 0 0 0 0 0 0 0 127 0" result="hardAlpha"/>
<feOffset/>
<feGaussianBlur stdDeviation="62"/>
<feComposite in2="hardAlpha" operator="out"/>
<feColorMatrix type="matrix" values="0 0 0 0 0.984314 0 0 0 0 0.690196 0 0 0 0 0.231373 0 0 0 1 0"/>
<feBlend mode="normal" in2="BackgroundImageFix" result="effect1_dropShadow_1262_18768"/>
<feBlend mode="normal" in="SourceGraphic" in2="effect1_dropShadow_1262_18768" result="shape"/>
</filter>
</defs>
</svg>
