<svg width="73" height="73" viewBox="0 0 73 73" fill="none" xmlns="http://www.w3.org/2000/svg">
<path d="M60.7727 38.5201C60.7727 41.7911 63.398 44.4428 66.6364 44.4428C69.8748 44.4428 72.5 41.7911 72.5 38.5201C72.5 35.2491 69.8748 32.5975 66.6364 32.5975C63.398 32.5975 60.7727 35.2491 60.7727 38.5201Z" fill="#FFEEBF"/>
<path d="M32.6818 5.92264C32.6818 9.19363 35.3071 11.8453 38.5455 11.8453C41.7839 11.8453 44.4091 9.19363 44.4091 5.92264C44.4091 2.65166 41.7839 0 38.5455 0C35.3071 0 32.6818 2.65166 32.6818 5.92264Z" fill="#FFEEBF"/>
<path d="M28.9545 67.0774C28.9545 70.3483 31.5798 73 34.8182 73C38.0566 73 40.6818 70.3483 40.6818 67.0774C40.6818 63.8064 38.0566 61.1547 34.8182 61.1547C31.5798 61.1547 28.9545 63.8064 28.9545 67.0774Z" fill="#FFEEBF"/>
<path d="M0.5 34.6635C0.5 37.9345 3.12524 40.5862 6.36364 40.5862C9.60204 40.5862 12.2273 37.9345 12.2273 34.6635C12.2273 31.3925 9.60204 28.7409 6.36364 28.7409C3.12524 28.7409 0.5 31.3925 0.5 34.6635Z" fill="#FFEEBF"/>
<path d="M47.8178 63.2207L33.0905 51.5591C29.8823 49.2788 27.8113 48.7493 23.6818 49.1141L28.5451 44.1213C31.6878 42.1021 33.5553 42.1258 36.8178 44.1213L52.8178 56.1503C56.4545 60.3283 53.409 65.4245 47.8178 63.2207Z" fill="#FFEEBF"/>
<path d="M33.0905 51.5591L26.136 58.6295C22.0964 61.6474 16.9545 57.3899 20.2269 52.661L23.6818 49.1141C27.8113 48.7493 29.8823 49.2788 33.0905 51.5591Z" fill="#FFEEBF"/>
<path d="M10.1296 47.8733L21.675 32.9978C23.9326 29.7573 24.4568 27.6655 24.0957 23.4944L29.0387 28.4066C31.0377 31.581 31.0143 33.4672 29.0387 36.7626L17.1296 52.9236C12.9932 56.5969 7.94771 53.5207 10.1296 47.8733Z" fill="#FFEEBF"/>
<path d="M21.675 32.9978L14.675 25.9733C11.6872 21.893 15.9023 16.6994 20.5841 20.0047L24.0957 23.4944C24.4568 27.6655 23.9326 29.7573 21.675 32.9978Z" fill="#FFEEBF"/>
<path d="M25.3241 9.80584L40.0514 21.4675C43.2596 23.7477 45.3306 24.2772 49.4601 23.9125L44.5969 28.9052C41.4541 30.9244 39.5867 30.9008 36.3241 28.9052L20.3241 16.8763C16.6874 12.6982 19.733 7.60202 25.3241 9.80584Z" fill="#FFEEBF"/>
<path d="M40.0514 21.4675L47.006 14.397C51.0456 11.3791 56.1874 15.6366 52.915 20.3656L49.4601 23.9125C45.3306 24.2772 43.2596 23.7477 40.0514 21.4675Z" fill="#FFEEBF"/>
<path d="M63.0124 25.1533L51.4669 40.0287C49.2094 43.2692 48.6852 45.3611 49.0463 49.5321L44.1033 44.6199C42.1042 41.4456 42.1276 39.5593 44.1033 36.264L56.0124 20.1029C60.1488 16.4296 65.1942 19.5058 63.0124 25.1533Z" fill="#FFEEBF"/>
<path d="M51.4669 40.0287L58.4669 47.0533C61.4548 51.1335 57.2397 56.3271 52.5578 53.0218L49.0463 49.5321C48.6852 45.3611 49.2094 43.2692 51.4669 40.0287Z" fill="#FFEEBF"/>
</svg>
