<svg width="47" height="47" viewBox="0 0 47 47" fill="none" xmlns="http://www.w3.org/2000/svg">
<path d="M39.0623 24.8006C39.0623 26.9066 40.7395 28.6138 42.8085 28.6138C44.8775 28.6138 46.5547 26.9066 46.5547 24.8006C46.5547 22.6947 44.8775 20.9874 42.8085 20.9874C40.7395 20.9874 39.0623 22.6947 39.0623 24.8006Z" fill="#FDFDFD"/>
<path d="M21.1153 3.81321C21.1153 5.91918 22.7925 7.62642 24.8615 7.62642C26.9305 7.62642 28.6077 5.91918 28.6077 3.81321C28.6077 1.70723 26.9305 0 24.8615 0C22.7925 0 21.1153 1.70723 21.1153 3.81321Z" fill="#FDFDFD"/>
<path d="M18.734 43.1868C18.734 45.2928 20.4112 47 22.4802 47C24.5492 47 26.2264 45.2928 26.2264 43.1868C26.2264 41.0808 24.5492 39.3736 22.4802 39.3736C20.4112 39.3736 18.734 41.0808 18.734 43.1868Z" fill="#FDFDFD"/>
<path d="M0.554688 22.3176C0.554688 24.4236 2.23192 26.1308 4.3009 26.1308C6.36988 26.1308 8.04711 24.4236 8.04711 22.3176C8.04711 20.2116 6.36988 18.5044 4.3009 18.5044C2.23192 18.5044 0.554688 20.2116 0.554688 22.3176Z" fill="#FDFDFD"/>
<path d="M30.7855 40.7037L21.3764 33.1956C19.3267 31.7274 18.0036 31.3866 15.3653 31.6214L18.4724 28.4069C20.4802 27.1069 21.6733 27.1221 23.7577 28.4069L33.98 36.1515C36.3034 38.8415 34.3577 42.1226 30.7855 40.7037Z" fill="#FDFDFD"/>
<path d="M21.3764 33.1956L16.9332 37.7478C14.3524 39.6908 11.0673 36.9497 13.158 33.905L15.3653 31.6214C18.0036 31.3866 19.3267 31.7274 21.3764 33.1956Z" fill="#FDFDFD"/>
<path d="M6.70692 30.8225L14.0832 21.2452C15.5255 19.1588 15.8604 17.812 15.6297 15.1265L18.7877 18.2892C20.0649 20.333 20.05 21.5474 18.7877 23.6691L11.1791 34.0741C8.53643 36.4391 5.31295 34.4586 6.70692 30.8225Z" fill="#FDFDFD"/>
<path d="M14.0832 21.2452L9.61096 16.7225C7.70205 14.0955 10.395 10.7517 13.3862 12.8798L15.6297 15.1265C15.8604 17.812 15.5255 19.1588 14.0832 21.2452Z" fill="#FDFDFD"/>
<path d="M16.4146 6.31335L25.8236 13.8215C27.8733 15.2896 29.1965 15.6305 31.8348 15.3957L28.7277 18.6102C26.7198 19.9102 25.5267 19.895 23.4423 18.6102L13.2201 10.8655C10.8966 8.17558 12.8424 4.89445 16.4146 6.31335Z" fill="#FDFDFD"/>
<path d="M25.8236 13.8215L30.2668 9.26932C32.8477 7.32628 36.1328 10.0674 34.0421 13.1121L31.8348 15.3957C29.1965 15.6305 27.8733 15.2896 25.8236 13.8215Z" fill="#FDFDFD"/>
<path d="M40.4932 16.1946L33.1169 25.7719C31.6746 27.8583 31.3397 29.2051 31.5704 31.8906L28.4123 28.7279C27.1352 26.6841 27.1501 25.4697 28.4123 23.348L36.0209 12.943C38.6636 10.578 41.8871 12.5585 40.4932 16.1946Z" fill="#FDFDFD"/>
<path d="M33.1169 25.7719L37.5891 30.2946C39.498 32.9216 36.8051 36.2654 33.8139 34.1373L31.5704 31.8906C31.3397 29.2051 31.6746 27.8583 33.1169 25.7719Z" fill="#FDFDFD"/>
</svg>
