<svg width="457" height="456" viewBox="0 0 457 456" fill="none" xmlns="http://www.w3.org/2000/svg">
<path d="M157.068 107.536C157.068 116.667 149.666 124.07 140.534 124.07C131.403 124.07 124 116.667 124 107.536C124 98.4042 131.403 91.0017 140.534 91.0017C149.666 91.0017 157.068 98.4042 157.068 107.536Z" fill="#1F6523"/>
<path d="M236.278 16.5341C236.278 25.6656 228.876 33.0682 219.744 33.0682C210.612 33.0682 203.21 25.6656 203.21 16.5341C203.21 7.40257 210.612 0 219.744 0C228.876 0 236.278 7.40257 236.278 16.5341Z" fill="#1F6523"/>
<path d="M246.788 187.258C246.788 196.39 239.386 203.792 230.254 203.792C221.123 203.792 213.72 196.39 213.72 187.258C213.72 178.127 221.123 170.724 230.254 170.724C239.386 170.724 246.788 178.127 246.788 187.258Z" fill="#1F6523"/>
<path d="M327.023 96.7694C327.023 105.901 319.621 113.303 310.489 113.303C301.358 113.303 293.955 105.901 293.955 96.7694C293.955 87.6378 301.358 80.2353 310.489 80.2353C319.621 80.2353 327.023 87.6378 327.023 96.7694Z" fill="#1F6523"/>
<path d="M193.598 176.492L235.126 143.936C244.172 137.571 250.012 136.092 261.656 137.111L247.943 123.173C239.081 117.536 233.815 117.602 224.616 123.173L179.499 156.753C169.244 168.417 177.832 182.644 193.598 176.492Z" fill="#FFC700"/>
<path d="M235.126 143.936L254.736 163.675C266.127 172.1 280.625 160.214 271.398 147.012L261.656 137.111C250.012 136.092 244.172 137.571 235.126 143.936Z" fill="#EF9344"/>
<path d="M299.87 133.647L267.315 92.1192C260.949 83.0729 259.471 77.2331 260.489 65.5888L246.551 79.3021C240.914 88.1639 240.98 93.4297 246.551 102.629L280.132 147.746C291.796 158 306.023 149.413 299.87 133.647Z" fill="#FFC700"/>
<path d="M267.315 92.1192L287.053 72.509C295.478 61.1182 283.593 46.6195 270.391 55.8468L260.489 65.5888C259.471 77.2331 260.949 83.0729 267.315 92.1192Z" fill="#EF9344"/>
<path d="M257.025 27.3747L215.498 59.9302C206.451 66.296 200.611 67.7742 188.967 66.7559L202.68 80.694C211.542 86.331 216.808 86.2649 226.008 80.694L271.124 47.1131C281.379 35.4494 272.791 21.2224 257.025 27.3747Z" fill="#FFC700"/>
<path d="M215.498 59.9302L195.887 40.1919C184.497 31.7668 169.998 43.6524 179.225 56.8541L188.967 66.7559C200.611 67.7742 206.451 66.296 215.498 59.9302Z" fill="#EF9344"/>
<path d="M150.753 70.2198L183.308 111.747C189.674 120.794 191.152 126.633 190.134 138.278L204.072 124.564C209.709 115.703 209.643 110.437 204.072 101.237L170.491 56.1209C158.828 45.8662 144.601 54.4539 150.753 70.2198Z" fill="#FFC700"/>
<path d="M183.308 111.747L163.57 131.358C155.145 142.748 167.031 157.247 180.232 148.02L190.134 138.278C191.152 126.633 189.674 120.794 183.308 111.747Z" fill="#EF9344"/>
<path d="M33.0682 232.536C33.0682 241.667 25.6656 249.07 16.5341 249.07C7.40257 249.07 0 241.667 0 232.536C0 223.404 7.40257 216.002 16.5341 216.002C25.6656 216.002 33.0682 223.404 33.0682 232.536Z" fill="#CD9E1D"/>
<path d="M112.278 141.534C112.278 150.666 104.876 158.068 95.744 158.068C86.6125 158.068 79.2099 150.666 79.2099 141.534C79.2099 132.403 86.6125 125 95.744 125C104.876 125 112.278 132.403 112.278 141.534Z" fill="#CD9E1D"/>
<path d="M122.788 312.258C122.788 321.39 115.386 328.792 106.254 328.792C97.1225 328.792 89.72 321.39 89.72 312.258C89.72 303.127 97.1225 295.724 106.254 295.724C115.386 295.724 122.788 303.127 122.788 312.258Z" fill="#CD9E1D"/>
<path d="M203.023 221.769C203.023 230.901 195.621 238.303 186.489 238.303C177.358 238.303 169.955 230.901 169.955 221.769C169.955 212.638 177.358 205.235 186.489 205.235C195.621 205.235 203.023 212.638 203.023 221.769Z" fill="#CD9E1D"/>
<path d="M69.5981 301.492L111.126 268.936C120.172 262.571 126.012 261.092 137.656 262.111L123.943 248.173C115.081 242.536 109.815 242.602 100.616 248.173L55.4992 281.753C45.2445 293.417 53.8322 307.644 69.5981 301.492Z" fill="#1F6523"/>
<path d="M111.126 268.936L130.736 288.675C142.127 297.1 156.625 285.214 147.398 272.012L137.656 262.111C126.012 261.092 120.172 262.571 111.126 268.936Z" fill="#073309"/>
<path d="M175.87 258.647L143.315 217.119C136.949 208.073 135.471 202.233 136.489 190.589L122.551 204.302C116.914 213.164 116.98 218.43 122.551 227.629L156.132 272.746C167.796 283 182.023 274.413 175.87 258.647Z" fill="#1F6523"/>
<path d="M143.315 217.119L163.053 197.509C171.478 186.118 159.593 171.619 146.391 180.847L136.489 190.589C135.471 202.233 136.949 208.073 143.315 217.119Z" fill="#073309"/>
<path d="M133.025 152.375L91.4976 184.93C82.4512 191.296 76.6114 192.774 64.9671 191.756L78.6804 205.694C87.5422 211.331 92.808 211.265 102.008 205.694L147.124 172.113C157.379 160.449 148.791 146.222 133.025 152.375Z" fill="#1F6523"/>
<path d="M91.4976 184.93L71.8874 165.192C60.4965 156.767 45.9978 168.652 55.2251 181.854L64.9671 191.756C76.6114 192.774 82.4512 191.296 91.4976 184.93Z" fill="#073309"/>
<path d="M26.7529 195.22L59.3084 236.747C65.6742 245.794 67.1523 251.633 66.1341 263.278L80.0722 249.564C85.7091 240.703 85.6431 235.437 80.0722 226.237L46.4913 181.121C34.8276 170.866 20.6005 179.454 26.7529 195.22Z" fill="#1F6523"/>
<path d="M59.3084 236.747L39.57 256.358C31.145 267.748 43.0305 282.247 56.2323 273.02L66.1341 263.278C67.1523 251.633 65.6742 245.794 59.3084 236.747Z" fill="#073309"/>
<path d="M286.068 232.536C286.068 241.667 278.666 249.07 269.534 249.07C260.403 249.07 253 241.667 253 232.536C253 223.404 260.403 216.002 269.534 216.002C278.666 216.002 286.068 223.404 286.068 232.536Z" fill="#1F6523"/>
<path d="M365.278 141.534C365.278 150.666 357.876 158.068 348.744 158.068C339.612 158.068 332.21 150.666 332.21 141.534C332.21 132.403 339.612 125 348.744 125C357.876 125 365.278 132.403 365.278 141.534Z" fill="#1F6523"/>
<path d="M375.788 312.258C375.788 321.39 368.386 328.792 359.254 328.792C350.123 328.792 342.72 321.39 342.72 312.258C342.72 303.127 350.123 295.724 359.254 295.724C368.386 295.724 375.788 303.127 375.788 312.258Z" fill="#1F6523"/>
<path d="M456.023 221.769C456.023 230.901 448.621 238.303 439.489 238.303C430.358 238.303 422.955 230.901 422.955 221.769C422.955 212.638 430.358 205.235 439.489 205.235C448.621 205.235 456.023 212.638 456.023 221.769Z" fill="#1F6523"/>
<path d="M322.598 301.492L364.126 268.936C373.172 262.571 379.012 261.092 390.656 262.111L376.943 248.173C368.081 242.536 362.815 242.602 353.616 248.173L308.499 281.753C298.244 293.417 306.832 307.644 322.598 301.492Z" fill="#1F6523"/>
<path d="M364.126 268.936L383.736 288.675C395.127 297.1 409.625 285.214 400.398 272.012L390.656 262.111C379.012 261.092 373.172 262.571 364.126 268.936Z" fill="#073309"/>
<path d="M428.87 258.647L396.315 217.119C389.949 208.073 388.471 202.233 389.489 190.589L375.551 204.302C369.914 213.164 369.98 218.43 375.551 227.629L409.132 272.746C420.796 283 435.023 274.413 428.87 258.647Z" fill="#1F6523"/>
<path d="M396.315 217.119L416.053 197.509C424.478 186.118 412.593 171.619 399.391 180.847L389.489 190.589C388.471 202.233 389.949 208.073 396.315 217.119Z" fill="#073309"/>
<path d="M386.025 152.375L344.498 184.93C335.451 191.296 329.611 192.774 317.967 191.756L331.68 205.694C340.542 211.331 345.808 211.265 355.008 205.694L400.124 172.113C410.379 160.449 401.791 146.222 386.025 152.375Z" fill="#1F6523"/>
<path d="M344.498 184.93L324.887 165.192C313.497 156.767 298.998 168.652 308.225 181.854L317.967 191.756C329.611 192.774 335.451 191.296 344.498 184.93Z" fill="#073309"/>
<path d="M279.753 195.22L312.308 236.747C318.674 245.794 320.152 251.633 319.134 263.278L333.072 249.564C338.709 240.703 338.643 235.437 333.072 226.237L299.491 181.121C287.828 170.866 273.601 179.454 279.753 195.22Z" fill="#1F6523"/>
<path d="M312.308 236.747L292.57 256.358C284.145 267.748 296.031 282.247 309.232 273.02L319.134 263.278C320.152 251.633 318.674 245.794 312.308 236.747Z" fill="#073309"/>
<path d="M157.068 359.536C157.068 368.667 149.666 376.07 140.534 376.07C131.403 376.07 124 368.667 124 359.536C124 350.404 131.403 343.002 140.534 343.002C149.666 343.002 157.068 350.404 157.068 359.536Z" fill="#E7C055"/>
<path d="M236.278 268.534C236.278 277.666 228.876 285.068 219.744 285.068C210.612 285.068 203.21 277.666 203.21 268.534C203.21 259.403 210.612 252 219.744 252C228.876 252 236.278 259.403 236.278 268.534Z" fill="#E7C055"/>
<path d="M246.788 439.258C246.788 448.39 239.386 455.792 230.254 455.792C221.123 455.792 213.72 448.39 213.72 439.258C213.72 430.127 221.123 422.724 230.254 422.724C239.386 422.724 246.788 430.127 246.788 439.258Z" fill="#E7C055"/>
<path d="M327.023 348.769C327.023 357.901 319.621 365.303 310.489 365.303C301.358 365.303 293.955 357.901 293.955 348.769C293.955 339.638 301.358 332.235 310.489 332.235C319.621 332.235 327.023 339.638 327.023 348.769Z" fill="#E7C055"/>
<path d="M193.598 428.492L235.126 395.936C244.172 389.571 250.012 388.092 261.656 389.111L247.943 375.173C239.081 369.536 233.815 369.602 224.616 375.173L179.499 408.753C169.244 420.417 177.832 434.644 193.598 428.492Z" fill="#FFC700"/>
<path d="M235.126 395.936L254.736 415.675C266.127 424.1 280.625 412.214 271.398 399.012L261.656 389.111C250.012 388.092 244.172 389.571 235.126 395.936Z" fill="#EF9344"/>
<path d="M299.87 385.647L267.315 344.119C260.949 335.073 259.471 329.233 260.489 317.589L246.551 331.302C240.914 340.164 240.98 345.43 246.551 354.629L280.132 399.746C291.796 410 306.023 401.413 299.87 385.647Z" fill="#FFC700"/>
<path d="M267.315 344.119L287.053 324.509C295.478 313.118 283.593 298.619 270.391 307.847L260.489 317.589C259.471 329.233 260.949 335.073 267.315 344.119Z" fill="#EF9344"/>
<path d="M257.025 279.375L215.498 311.93C206.451 318.296 200.611 319.774 188.967 318.756L202.68 332.694C211.542 338.331 216.808 338.265 226.008 332.694L271.124 299.113C281.379 287.449 272.791 273.222 257.025 279.375Z" fill="#FFC700"/>
<path d="M215.498 311.93L195.887 292.192C184.497 283.767 169.998 295.652 179.225 308.854L188.967 318.756C200.611 319.774 206.451 318.296 215.498 311.93Z" fill="#EF9344"/>
<path d="M150.753 322.22L183.308 363.747C189.674 372.794 191.152 378.633 190.134 390.278L204.072 376.564C209.709 367.703 209.643 362.437 204.072 353.237L170.491 308.121C158.828 297.866 144.601 306.454 150.753 322.22Z" fill="#FFC700"/>
<path d="M183.308 363.747L163.57 383.358C155.145 394.748 167.031 409.247 180.232 400.02L190.134 390.278C191.152 378.633 189.674 372.794 183.308 363.747Z" fill="#EF9344"/>
</svg>
