<svg width="825" height="98" viewBox="0 0 825 98" fill="none" xmlns="http://www.w3.org/2000/svg">
<path d="M4.10866 15.3742L4.08983 15.555L4.08984 15.7368L7.58984 15.7366C4.08984 15.7368 4.08984 15.7371 4.08984 15.7377L4.08984 15.7402L4.08984 15.7502L4.08985 15.7898L4.08986 15.9464L4.0899 16.5575L4.09006 18.8779L4.09061 27.1671L4.09219 52.3854C4.09329 70.7729 4.09421 89.272 4.09355 89.7478C4.09174 91.0591 4.72761 92.0372 5.35048 92.6209C5.91906 93.1537 6.53673 93.4325 6.94863 93.5819C7.78639 93.8858 8.66572 93.9713 9.36115 93.9713C10.0664 93.9713 10.9257 93.8831 11.7445 93.602C12.1505 93.4627 12.7158 93.2189 13.2562 92.7774C13.8149 92.3209 14.5104 91.5071 14.6998 90.2912C14.7446 90.0036 14.7517 89.6568 14.7531 89.5866C14.7532 89.5816 14.7533 89.578 14.7534 89.576C14.7581 89.402 14.7622 89.1753 14.7658 88.9075C14.7731 88.3688 14.7792 87.6165 14.7842 86.6872C14.7873 86.1263 14.79 85.4982 14.7924 84.8098C16.5579 87.7515 19.6766 89.9017 23.502 91.3791C28.3896 93.3163 34.2967 94.2113 41.0978 94.2109C45.7018 94.2107 49.7979 93.8116 53.3385 92.9617L53.3624 92.9559L53.3862 92.9499C55.1486 92.5005 56.7828 91.9284 58.0538 91.1308C59.2664 90.3699 60.9175 88.8858 60.9174 86.4859L60.917 78.7839C60.962 78.5926 61.0021 78.3511 61.0102 78.0765C61.0267 77.5131 60.8851 75.8296 59.1948 74.9009C57.9024 74.1908 56.706 74.5527 56.4989 74.6154L56.4916 74.6176C55.8921 74.7984 55.4729 75.1128 55.4701 75.1148C55.353 75.1964 55.2597 75.2714 55.2126 75.3098C55.1132 75.3909 55.0145 75.4778 54.9504 75.5345C54.8978 75.581 54.8426 75.6302 54.7843 75.6822C54.52 75.918 54.1923 76.2103 53.7591 76.5622C52.6915 77.4298 51.2153 78.4611 49.5897 79.0717C45.6138 80.4938 41.9912 81.1629 38.6971 81.163C36.4245 81.1632 35.2348 80.8007 34.7052 80.4907C34.484 80.3612 34.426 80.2699 34.4116 80.2462C34.398 80.224 34.3501 80.1412 34.3266 79.9335L34.327 79.8944L34.3333 79.3132C34.3387 78.8043 34.3466 78.0579 34.3563 77.1079C34.3758 75.2078 34.4028 72.4929 34.4327 69.233C34.4926 62.7136 34.5645 54.0125 34.6123 45.289C34.66 36.5684 34.6837 27.814 34.6472 21.1923C34.6289 17.8853 34.5955 15.0885 34.5417 13.0874C34.515 12.0934 34.4823 11.2567 34.4407 10.6393C34.4206 10.3403 34.3943 10.0276 34.3556 9.75132C34.3377 9.62303 34.305 9.41204 34.2448 9.17952C34.2155 9.0666 34.1583 8.86316 34.0567 8.62598L34.0563 8.62496C33.9919 8.47462 33.7367 7.87864 33.1341 7.34825C32.7872 7.04286 32.6768 6.93867 32.6277 6.89224L32.6228 6.88768L32.6148 6.88007C32.5788 6.84603 32.5041 6.77543 32.4103 6.69424C32.3194 6.61552 32.2283 6.54189 32.1438 6.47433L31.7497 6.15907L31.2826 5.968C29.701 5.32108 27.9494 4.76338 26.042 4.28516C24.9052 3.9764 23.845 3.74608 22.8884 3.62401C22.2015 3.53635 21.4444 3.48731 20.6874 3.55698C20.2997 3.51244 19.9243 3.49998 19.5892 3.5C16.5802 3.50015 13.6974 4.21855 10.9806 5.61592L10.9591 5.627L10.9377 5.63838C7.02642 7.7191 4.56302 11.0101 4.10866 15.3742ZM54.5346 76.1487L54.5329 76.1512C54.5429 76.1357 54.5487 76.1274 54.5487 76.1276C54.5488 76.1278 54.5444 76.1345 54.5346 76.1487Z" fill="#0F7215" stroke="#07390A" stroke-width="7"/>
<path d="M116.28 8.54883C114.861 8.54888 112.713 8.45911 109.79 8.26867C106.881 8.07489 104.521 7.97332 102.744 7.97339L90.2641 7.97391C84.6284 7.97414 80.1199 8.29239 76.9124 9.02149L76.8866 9.02736L76.8609 9.03362C71.4601 10.3476 67.2231 13.1868 65.7816 18.1849L65.6445 18.6602L65.6445 19.1549L65.6469 75.9869C65.647 79.4615 66.4355 82.6439 68.2307 85.3257C70.032 88.0165 72.6602 89.924 75.8565 91.1562L75.8591 91.1572C79.8243 92.6821 85.7487 93.3096 93.2356 93.3098C93.2383 93.3098 93.2409 93.3098 93.2436 93.3098L113.867 93.4049L113.875 93.4049H113.884C117.731 93.4048 121.094 92.9911 123.663 91.8937C127.318 90.4476 129.796 87.6287 131.109 83.854L131.303 83.2955L131.303 82.7042L131.301 24.1442C131.301 20.0154 130.72 16.3465 129.121 13.5998C127.354 10.5629 124.493 8.93249 120.984 8.93263L119.78 8.93268L119.78 8.54868L116.28 8.54883ZM99.2444 15.5961L99.2444 16.3175L102.744 16.3174C105.232 16.3173 107.107 16.3809 108.414 16.4957C108.801 16.5297 109.114 16.5662 109.361 16.602C109.405 16.7389 109.456 16.917 109.507 17.1448C109.745 18.1888 109.901 19.7829 109.901 22.0331L109.903 79.7731C109.327 81.1938 108.53 82.1267 107.574 82.7532C106.471 83.4756 104.864 83.9785 102.518 84.0056C96.6875 84.0679 92.9882 83.2941 90.9162 82.1453C88.5454 80.8179 87.047 78.4258 87.0468 73.874L87.0446 20.1036C87.4503 19.1185 88.4534 18.0407 90.8917 17.1277C92.9111 16.3715 95.6679 15.8366 99.2444 15.5961ZM109.981 16.7236C109.981 16.7238 109.971 16.7211 109.954 16.7149C109.973 16.7203 109.982 16.7234 109.981 16.7236Z" fill="#0F7215" stroke="#07390A" stroke-width="7"/>
<path d="M188.218 47.0566C194.065 49.0046 199.287 52.5098 203.859 57.4862C204.683 58.3809 205.389 59.7975 205.99 61.1372C206.663 62.6382 207.439 64.6061 208.316 67.0091M188.218 47.0566L208.316 67.0091M188.218 47.0566L199.798 37.0943L203.92 33.5482L204.95 32.6617L205.208 32.44L205.252 32.4023L205.277 32.3823L205.475 32.2222C205.648 32.0822 205.902 31.8772 206.224 31.6165C206.868 31.095 207.786 30.3504 208.883 29.457C211.077 27.6709 213.99 25.2869 216.862 22.9006C219.727 20.5204 222.578 18.1153 224.634 16.2951C225.649 15.3968 226.533 14.586 227.134 13.9731C227.396 13.7065 227.77 13.313 228.055 12.8981C228.136 12.7793 228.255 12.5953 228.368 12.3635C228.46 12.1752 228.671 11.7144 228.731 11.0898C228.796 10.4032 228.687 9.13821 227.603 8.14173C226.655 7.26952 225.585 7.20426 225.186 7.20426C215.079 7.2042 202.863 7.2047 190.928 7.20519C185.065 7.20543 179.27 7.20567 173.826 7.20583C171.209 7.20591 168.654 7.59229 166.651 8.83756C165.3 9.67718 164.346 10.8157 163.793 12.1451C163.394 11.1768 162.804 10.2263 161.905 9.51231C159.795 7.79807 156.675 7.39836 153.666 7.39845L146.946 7.39865C140.161 7.39886 136.295 13.4065 136.633 13.1009C136.3 13.402 135.242 14.4874 135.472 16.2276C135.689 17.8681 136.878 18.6422 137.187 18.828C137.862 19.2355 138.57 19.3495 138.755 19.3793C138.763 19.3805 138.769 19.3816 138.775 19.3825C139.359 19.4786 140.088 19.5162 140.754 19.5353C142.166 19.5758 144.075 19.5482 145.94 19.4978C147.823 19.4469 149.728 19.3709 151.158 19.3078C151.168 19.3073 151.179 19.3069 151.189 19.3064C151.211 19.869 151.223 20.4366 151.223 20.9785L151.225 82.4185C151.225 85.898 152.676 88.8628 155.644 90.765C158.332 92.4878 161.914 93.1117 165.895 93.118L165.908 93.1185L166.12 93.1257C166.306 93.132 166.577 93.1411 166.922 93.1524C167.613 93.1749 168.598 93.206 169.779 93.2406C172.14 93.3097 175.291 93.3927 178.441 93.4481C181.58 93.5033 184.756 93.5318 187.153 93.4892C188.336 93.4682 189.407 93.4288 190.208 93.3567C190.58 93.3232 191.051 93.27 191.485 93.1655C191.66 93.1233 192.114 93.0094 192.595 92.7349C192.803 92.6163 194.839 91.4132 194.35 88.9388C194.116 87.7518 193.399 87.0126 193.048 86.6938C192.646 86.3281 192.22 86.0652 191.905 85.8891C191.268 85.5335 190.524 85.2295 189.908 84.9907C189.409 84.7976 188.96 84.6317 188.554 84.4817C187.761 84.1884 187.133 83.9563 186.626 83.7029L186.596 83.6879L186.565 83.6734C185.609 83.2178 184.952 82.8458 184.529 82.5651L184.528 61.8698C184.531 61.8722 184.533 61.8745 184.536 61.8769L184.615 61.9482L184.685 62.0042C184.681 62.0016 184.68 62.0004 184.679 62.0006C184.677 62.0032 184.868 62.1936 185.228 62.7841C185.613 63.4149 186.078 64.3122 186.62 65.5177C187.704 67.9255 188.99 71.3218 190.478 75.7552L190.481 75.7634C191.922 80.02 193.376 83.496 194.868 86.085C196.258 88.4951 198.079 90.8607 200.582 91.7592L200.599 91.7651L200.615 91.7707C203.457 92.759 206.001 93.4777 207.821 93.5002L207.826 93.5005L208.021 93.5087C208.192 93.5158 208.44 93.5261 208.754 93.5389C209.382 93.5644 210.273 93.5997 211.328 93.6389C213.436 93.7172 216.206 93.8115 218.835 93.8744C221.437 93.9367 223.987 93.9706 225.614 93.9204C226.024 93.9077 226.42 93.8885 226.766 93.8577L226.782 93.8563C227.003 93.8366 227.602 93.7835 228.17 93.5775C228.34 93.5159 228.7 93.3743 229.087 93.0933C229.432 92.8433 230.268 92.1391 230.499 90.848C230.754 89.4255 230.098 88.3772 229.679 87.8971C229.285 87.4463 228.869 87.2017 228.692 87.1037C228.104 86.7773 227.441 86.6357 227.196 86.5834L227.172 86.5783C225.053 86.1233 223.367 85.9126 221.997 85.7415C221.747 85.7103 221.508 85.6804 221.278 85.6506C219.805 85.4592 218.691 85.2679 217.346 84.7858L217.335 84.782C217.187 84.7294 216.661 84.4555 215.819 83.4328C215.008 82.4467 214.082 80.983 213.064 78.9495M208.316 67.0091C210.488 72.9496 212.063 76.8844 213.064 78.9495M208.316 67.0091C208.316 67.0084 208.316 67.0077 208.315 67.007L213.064 78.9495M184.527 17.3763C184.824 16.8785 185.072 16.5399 185.262 16.3227L203.4 16.4426L184.527 34.4125L184.527 17.3763ZM185.493 16.0931C185.493 16.0935 185.487 16.0982 185.475 16.1058C185.487 16.0965 185.493 16.0927 185.493 16.0931ZM225.856 93.4598C225.855 93.4601 225.836 93.4555 225.803 93.4451C225.841 93.4544 225.857 93.4595 225.856 93.4598ZM226.269 86.871C226.271 86.8712 226.256 86.8737 226.224 86.8774C226.252 86.8726 226.268 86.8707 226.269 86.871Z" fill="#0F7215" stroke="#07390A" stroke-width="7"/>
<path d="M239.318 76.9683L246.018 73.1398L246.102 73.0916L246.189 73.0482C247.144 72.5706 248.146 72.3906 249.098 72.3906C250.845 72.3906 252.553 73.119 254.018 73.951C255.567 74.8305 257.275 76.0786 259.12 77.6217L259.139 77.6381L259.159 77.6548C260.733 79.0115 262.037 80.1169 263.074 80.9765C264.712 77.7429 266.185 72.9556 267.347 66.3554L267.349 66.3433L267.351 66.3311C267.964 62.988 268.478 56.7245 268.857 47.3625C267.459 46.4561 265.431 45.4211 262.66 44.2849C260.844 43.5545 258.458 43.0092 256.15 42.5236C255.925 42.4762 255.699 42.429 255.473 42.3819C254.606 42.2011 253.753 42.023 253.048 41.8535C252.599 41.7454 252.134 41.6231 251.712 41.4832C251.37 41.37 250.728 41.144 250.142 40.7273C249.585 40.3313 248.724 39.4782 248.579 38.0769C248.443 36.7524 249.042 35.7994 249.38 35.3715C249.991 34.596 250.811 34.1722 251.131 34.0095C252.002 33.5674 253.145 33.1827 254.207 32.8781C256.303 32.2766 259.159 31.6864 261.001 31.6864C261.941 31.6864 262.867 31.7905 263.774 32.0066C265.966 32.1882 268.286 32.7643 270.707 33.6588C270.998 29.7591 271.309 26.4589 271.639 23.7676C272.081 20.173 272.598 17.276 273.311 15.5303C274.845 11.7406 277.472 8.94486 281.232 7.60193L282.397 10.8652L281.232 7.60192C283.618 6.7497 286.939 6.43792 290.857 6.43785L303.913 6.43762C306.92 6.43757 309.423 7.83229 310.96 10.4402C312.327 12.7598 312.789 15.7881 312.789 19.0575L312.79 59.8048C318.879 62.8116 322.795 64.4162 324.798 64.894C324.89 64.8922 324.994 64.8903 325.109 64.8883C325.533 64.8807 326.093 64.8715 326.623 64.8653C327.139 64.8594 327.671 64.8557 328.019 64.861C328.107 64.8623 328.209 64.8646 328.307 64.8691C328.355 64.8713 328.425 64.875 328.504 64.8817L328.508 64.8821C328.555 64.886 328.752 64.9027 328.987 64.9539L328.994 64.9554C329.069 64.9712 329.5 65.0625 329.973 65.3298C330.177 65.4454 330.912 65.8746 331.38 66.8102C332.028 68.1033 331.754 69.456 331.141 70.3537C330.685 71.0208 330.123 71.3426 329.954 71.4371C329.717 71.5695 329.514 71.6458 329.41 71.6826C329.197 71.7578 329.022 71.7959 328.956 71.8098C328.724 71.8588 328.504 71.8793 328.444 71.8849L328.436 71.8856C328.337 71.895 328.082 71.9295 327.712 71.9797C326.022 72.2088 321.917 72.7653 319.082 72.7654L316.202 72.7654C315.087 72.7654 313.99 72.7166 312.912 72.6178C312.961 74.4798 313.015 76.7623 313.053 79.0475C313.097 81.708 313.12 84.4072 313.086 86.4562C313.069 87.4681 313.038 88.3909 312.98 89.0902C312.953 89.4168 312.91 89.8275 312.828 90.2109C312.793 90.3723 312.707 90.7514 312.508 91.1661C312.411 91.3679 312.195 91.7789 311.786 92.1836C311.352 92.6146 310.506 93.2131 309.292 93.2135C308.958 93.2137 305.866 93.2137 302.631 93.2137H302.089C298.663 93.2137 295.24 93.2137 294.892 93.2138C293.335 93.2143 292.423 92.257 292.112 91.8632C291.777 91.4389 291.615 91.0342 291.552 90.8663C291.412 90.4941 291.351 90.1522 291.324 89.9916C291.26 89.612 291.223 89.1775 291.197 88.7808C291.143 87.9496 291.113 86.8223 291.096 85.5442C291.063 82.9683 291.085 79.5594 291.129 76.1807C291.172 72.795 291.238 69.4121 291.293 66.8774C291.312 65.9576 291.331 65.1488 291.346 64.4916C290.996 64.2085 290.609 63.8843 290.188 63.5233C288.908 62.4262 287.216 60.9049 285.124 58.9738L285.117 58.9672L285.11 58.9606C283.919 57.8494 282.85 56.9123 281.898 56.1392C281.627 59.607 281.329 63.419 281.007 67.575C280.78 71.748 279.516 76.4283 277.387 81.5515M239.318 76.9683L274.154 80.2102M239.318 76.9683C239.315 76.9702 239.311 76.9721 239.308 76.974M239.318 76.9683L233.96 82.4854M277.387 81.5515C277.387 81.5521 277.386 81.5527 277.386 81.5533L274.154 80.2102M277.387 81.5515C277.387 81.5508 277.388 81.55 277.388 81.5493L274.154 80.2102M277.387 81.5515C276 84.8998 274.427 87.696 272.579 89.7067C270.699 91.7524 268.302 93.2143 265.418 93.2143L258.698 93.2144C256.995 93.2145 255.288 92.6781 253.68 91.9214C252.043 91.1511 250.296 90.051 248.455 88.687L248.426 88.6653L248.397 88.643C246.793 87.402 245.496 86.5533 244.486 86.0292C243.985 85.7694 243.6 85.6129 243.319 85.5249C243.063 85.4449 242.949 85.439 242.949 85.4387C242.949 85.4387 242.951 85.4387 242.954 85.4387C242.955 85.4387 242.842 85.4401 242.587 85.513C242.336 85.5851 241.995 85.7131 241.556 85.9265C240.669 86.3579 239.534 87.0625 238.133 88.1059L238.125 88.1119L238.117 88.1178C234.578 90.7216 231.225 92.5653 228.142 93.2319L225.719 86.7422C227.429 85.8047 229.471 84.3614 231.859 82.3413M274.154 80.2102C271.562 86.4704 268.688 89.638 265.533 89.7129L265.418 89.855L265.014 90.3565L263.569 89.7143L258.698 89.7144C256.714 89.7145 253.994 88.4345 250.538 85.8746C247.971 83.8887 245.899 82.6543 244.321 82.1714L242.954 82.9527L242.771 83.0576L242.76 83.0634L242.75 83.0692C241.178 83.9536 239.353 85.2307 237.267 86.9436C237.264 86.9461 237.261 86.9486 237.258 86.9511C236.973 87.1851 236.684 87.4272 236.389 87.6776L236.383 87.6827C233.78 89.8855 231.343 91.6415 229.085 92.8798L227.402 89.811L226.663 86.39C228.097 86.0799 230.098 85.1623 232.723 83.3648L231.855 82.3441C231.857 82.3432 231.858 82.3422 231.859 82.3413M231.859 82.3413C234.518 80.081 237.005 78.2708 239.308 76.974M231.859 82.3413C231.86 82.3406 231.861 82.3398 231.861 82.339L232.727 83.362C233.124 83.0902 233.535 82.7983 233.96 82.4854M233.96 82.4854C235.564 81.2917 237.082 80.3185 238.496 79.631C239.097 79.3389 239.727 79.0742 240.377 78.8689L239.298 76.9799L239.308 76.974M233.96 82.4854L239.308 76.974M287.489 18.519C287.745 17.8688 288.646 16.8167 291.105 15.7227C291.279 16.6329 291.389 17.8554 291.389 19.4418L291.39 44.6296C291.034 44.3259 290.669 44.0208 290.296 43.7144L290.285 43.7047L290.273 43.6951C288.032 41.8856 285.866 40.3785 283.835 39.4068C284.421 29.789 285.686 22.9214 287.472 18.5606L287.48 18.5399L287.489 18.519ZM253.81 34.8008C253.81 34.8006 253.821 34.8046 253.84 34.8129C253.819 34.8051 253.809 34.8009 253.81 34.8008ZM254.225 40.2932C254.224 40.293 254.243 40.2807 254.288 40.2573C254.25 40.2818 254.227 40.2935 254.225 40.2932ZM278.858 50.1621C278.765 51.3326 278.669 52.5531 278.569 53.8237L282.225 51.9875C280.888 51.0428 279.765 50.4344 278.858 50.1621ZM327.776 64.9168C327.774 64.9169 327.773 64.9171 327.771 64.9173C327.804 64.9134 327.81 64.9136 327.776 64.9168Z" fill="#0F7215" stroke="#07390A" stroke-width="7"/>
<path d="M370.135 23.5543C370.172 22.7858 370.06 22.4503 370.025 22.3674C369.959 22.3105 369.762 22.1729 369.294 22.0152C368.426 21.7225 367.012 21.5027 364.892 21.5027C362.816 21.5027 361.246 21.8322 360.074 22.3531L360.002 22.3853L359.928 22.4141C359.571 22.5538 358.783 23.0882 357.819 24.903C356.991 26.5157 356.584 28.2007 356.584 30.0028C356.585 31.9707 357.028 33.2558 357.642 34.1205C358.238 34.9594 359.214 35.7148 360.874 36.2402C364.686 37.2565 368.53 38.2728 372.405 39.2892L372.444 39.2995L372.483 39.3108C378.282 40.9771 383.211 43.0877 387.174 45.7064L387.177 45.7086C392.531 49.2542 396.583 53.8156 399.243 59.3779L370.135 23.5543ZM370.135 23.5543C370.134 23.562 370.133 23.5697 370.133 23.5773M374.105 82.9163C370.653 83.1538 366.832 82.2948 362.57 80.0808L362.561 80.0758L362.551 80.0709C357.556 77.5154 356.201 74.9948 356.201 72.8188C356.201 72.2369 356.304 71.5952 356.553 70.8826C356.631 70.8517 356.715 70.819 356.805 70.7845C357.597 70.4822 358.718 70.097 360.194 69.6259C361.508 69.2092 362.503 68.8838 363.149 68.6568C363.442 68.5537 363.774 68.433 364.038 68.3145C364.111 68.2819 364.229 68.2274 364.362 68.1543C364.364 68.1533 364.366 68.1519 364.369 68.1503C364.439 68.1122 364.819 67.9066 365.188 67.5371L365.19 67.5353C365.33 67.3949 365.969 66.7562 366.164 65.672C366.28 65.026 366.225 64.2721 365.877 63.5437C365.547 62.8511 365.063 62.4129 364.692 62.159C364.038 61.7113 363.409 61.6117 363.246 61.5861C362.995 61.5468 362.791 61.5427 362.685 61.5427L343.485 61.5429C341.778 61.5429 340.212 61.6622 338.861 61.9622C337.594 62.2439 336.138 62.7658 335.016 63.8584C334.039 64.7804 333.469 66.0749 333.101 67.0601C332.671 68.2135 332.279 69.6408 331.91 71.2843L331.842 71.5848L331.828 71.8924L335.325 72.0509C331.828 71.8924 331.828 71.8926 331.828 71.8928L331.828 71.8935L331.828 71.8961L331.828 71.9059L331.826 71.9435L331.82 72.0877C331.814 72.2135 331.806 72.3973 331.796 72.631C331.777 73.0982 331.75 73.7653 331.72 74.5669C331.659 76.1686 331.587 78.3147 331.538 80.4808C331.49 82.6359 331.465 84.8549 331.503 86.5856C331.521 87.4388 331.556 88.2506 331.623 88.9015C331.655 89.2128 331.706 89.6012 331.798 89.979C331.842 90.1615 331.924 90.4598 332.073 90.7882C332.172 91.0038 332.549 91.8183 333.467 92.3931C334.316 92.9249 335.273 93.0899 335.74 93.1591C336.353 93.2498 337.009 93.2868 337.624 93.2868C338.244 93.2868 338.9 93.2493 339.521 93.1645C340.072 93.0891 340.864 92.9424 341.598 92.6017C342.79 92.0486 343.3 91.0585 343.465 90.7061C343.677 90.2527 343.787 89.8164 343.848 89.519C343.976 88.9057 344.03 88.2278 344.058 87.627C344.074 87.2519 344.083 86.8513 344.084 86.4362C344.681 86.874 345.309 87.2947 345.964 87.6994L345.974 87.706C352.178 91.5126 359.055 93.4068 366.525 93.4067C368.816 93.4067 370.95 93.1575 372.878 92.5956C372.879 92.5953 372.88 92.595 372.881 92.5947L372.106 89.9388C373.184 89.9784 374.257 89.9453 375.326 89.8368L375.834 89.7853L376.305 89.591C379.357 88.3347 381.881 86.4193 383.842 83.8925C385.156 83.0855 386.456 82.2101 387.741 81.2666C394.269 76.4666 397.533 71.5385 397.533 66.4825C397.533 64.7545 397.149 63.0585 396.381 61.3945L374.105 82.9163ZM370.052 22.3953C370.052 22.3955 370.047 22.3905 370.038 22.3796C370.049 22.3896 370.053 22.395 370.052 22.3953Z" fill="#0F7215" stroke="#07390A" stroke-width="7"/>
<path d="M410.027 11.3016C410.027 11.3015 410.027 11.3042 410.028 11.3101C410.027 11.3046 410.027 11.3016 410.027 11.3016ZM408.713 13.9711C409.091 14.0192 409.588 14.0296 410.071 14.0242C410.071 14.0958 410.071 14.1688 410.071 14.2431L410.071 84.7072C410.071 86.1412 410.166 87.5294 410.478 88.6837C410.975 90.5531 412.321 91.7355 413.768 92.3604C415.1 92.9356 416.621 93.1032 418.083 93.1032L438.819 93.1032H440.429L441.477 91.881C441.769 91.5399 443.181 89.8152 442.21 87.6297C441.763 86.6243 441.004 86.0681 440.486 85.7877C439.971 85.5087 439.473 85.3773 439.122 85.3071L438.721 85.2269L438.312 85.2414L431.511 85.4814C431.487 85.2758 431.471 85.02 431.471 84.7072L431.471 14.0512C431.471 12.0426 431.421 11.1452 431.39 10.589C431.383 10.4624 431.377 10.3534 431.372 10.2531C431.274 7.96339 429.449 6.89277 429.035 6.65374C428.698 6.45917 428.366 6.30877 428.148 6.21203C428.021 6.15612 427.935 6.11881 427.864 6.08836C427.773 6.04896 427.709 6.02105 427.618 5.97922C427.184 5.77812 426.79 5.70495 426.681 5.68474L426.675 5.68361C426.502 5.65125 426.339 5.63099 426.214 5.61758C425.96 5.59032 425.676 5.57224 425.4 5.55896C424.837 5.53194 424.116 5.5164 423.317 5.50807C421.71 5.49131 419.65 5.50256 417.614 5.52444C415.573 5.54638 413.534 5.57925 411.962 5.60658C411.409 5.61619 410.911 5.62515 410.493 5.63269C410.317 5.63585 410.155 5.63877 410.009 5.64138C409.76 5.64581 409.558 5.64934 409.406 5.65175L409.224 5.65444C409.173 5.65508 409.155 5.65515 409.155 5.65515C407.888 5.65517 406.743 6.22943 405.992 7.17275C405.315 8.0246 405.09 8.9968 405.09 9.79119C405.09 11.2452 406.027 13.6291 408.713 13.9711Z" fill="#0F7215" stroke="#07390A" stroke-width="7"/>
<path d="M539.219 47.0588C545.066 49.0071 550.288 52.5126 554.859 57.4891C555.684 58.3839 556.39 59.8005 556.99 61.1402C557.663 62.6411 558.44 64.6087 559.316 67.0114L539.219 47.0588ZM539.219 47.0588L539.238 47.043L539.313 46.978L539.389 46.9131L539.464 46.8484L539.539 46.7839L539.614 46.7194L539.689 46.6552L539.763 46.591L539.838 46.527L539.912 46.4632L539.986 46.3995L540.06 46.3359L540.133 46.2725L540.207 46.2093L540.28 46.1461L540.354 46.0831L540.427 46.0203L540.499 45.9576L540.572 45.8951L540.645 45.8327L540.717 45.7704L540.789 45.7083L540.861 45.6463L540.933 45.5845L541.005 45.5228L541.076 45.4613L541.148 45.3999L541.219 45.3386L541.29 45.2775L541.361 45.2166L541.432 45.1558L541.502 45.0951L541.572 45.0346L541.643 44.9742L541.713 44.9139L541.783 44.8538L541.852 44.7939L541.922 44.7341L541.991 44.6744L542.06 44.6149L542.129 44.5555L542.198 44.4963L542.267 44.4372L542.335 44.3783L542.404 44.3195L542.472 44.2608L542.54 44.2023L542.608 44.144L542.675 44.0857L542.743 44.0277L542.81 43.9697L542.877 43.912L542.944 43.8543L543.011 43.7968L543.078 43.7395L543.145 43.6823L543.211 43.6252L543.277 43.5683L543.343 43.5115L543.409 43.4549L543.475 43.3984L543.54 43.342L543.605 43.2858L543.671 43.2298L543.736 43.1739L543.8 43.1181L543.865 43.0625L543.929 43.007L543.994 42.9517L544.058 42.8965L544.122 42.8414L544.186 42.7865L544.249 42.7318L544.313 42.6772L544.376 42.6227L544.439 42.5684L544.502 42.5142L544.565 42.4602L544.628 42.4063L544.69 42.3525L544.753 42.2989L544.815 42.2455L544.877 42.1922L544.939 42.139L545 42.086L545.062 42.0331L545.123 41.9803L545.184 41.9278L545.245 41.8753L545.306 41.823L545.366 41.7708L545.427 41.7188L545.487 41.667L545.547 41.6152L545.607 41.5637L545.667 41.5122L545.727 41.4609L545.786 41.4098L545.846 41.3588L545.905 41.3079L545.964 41.2572L546.022 41.2066L546.081 41.1562L546.139 41.1059L546.198 41.0558L546.256 41.0058L546.314 40.9559L546.372 40.9062L546.429 40.8567L546.487 40.8072L546.544 40.758L546.601 40.7088L546.658 40.6599L546.715 40.611L546.771 40.5623L546.828 40.5138L546.884 40.4654L546.94 40.4171L546.996 40.369L547.052 40.321L547.107 40.2732L547.163 40.2255L547.218 40.1779L547.273 40.1306L547.328 40.0833L547.383 40.0362L547.438 39.9892L547.492 39.9424L547.546 39.8957L547.6 39.8492L547.654 39.8028L547.708 39.7566L547.762 39.7105L547.815 39.6645L547.868 39.6187L547.921 39.573L547.974 39.5275L548.027 39.4821L548.08 39.4369L548.132 39.3918L548.184 39.3469L548.236 39.3021L548.288 39.2574L548.34 39.2129L548.392 39.1685L548.443 39.1243L548.494 39.0802L548.545 39.0363L548.596 38.9925L548.647 38.9489L548.698 38.9054L548.748 38.862L548.798 38.8188L548.848 38.7757L548.898 38.7328L548.948 38.69L548.997 38.6474L549.047 38.6049L549.096 38.5625L549.145 38.5203L549.194 38.4783L549.243 38.4364L549.291 38.3946L549.34 38.353L549.388 38.3115L549.436 38.2701L549.484 38.229L549.532 38.1879L549.579 38.147L549.626 38.1062L549.674 38.0656L549.721 38.0252L549.768 37.9848L549.814 37.9446L549.861 37.9046L549.907 37.8647L549.953 37.825L550 37.7854L550.045 37.7459L550.091 37.7066L550.137 37.6674L550.182 37.6284L550.227 37.5895L550.272 37.5507L550.317 37.5121L550.362 37.4737L550.406 37.4354L550.451 37.3972L550.495 37.3592L550.539 37.3213L550.583 37.2836L550.626 37.246L550.67 37.2086L550.713 37.1713L550.757 37.1341L550.8 37.0971L550.842 37.0603L550.885 37.0235L550.928 36.987L550.97 36.9505L551.012 36.9142L551.054 36.8781L551.096 36.8421L551.138 36.8062L551.179 36.7705L551.221 36.735L551.262 36.6995L551.303 36.6643L551.344 36.6291L551.384 36.5941L551.425 36.5593L551.465 36.5246L551.505 36.49L551.545 36.4556L551.585 36.4214L551.625 36.3872L551.664 36.3533L551.704 36.3194L551.743 36.2857L551.782 36.2522L551.821 36.2188L551.859 36.1855L551.898 36.1524L551.936 36.1194L551.974 36.0866L552.012 36.0539L552.05 36.0214L552.088 35.989L552.125 35.9568L552.163 35.9247L552.2 35.8927L552.237 35.8609L552.273 35.8292L552.31 35.7977L552.347 35.7663L552.383 35.7351L552.419 35.704L552.455 35.673L552.491 35.6422L552.526 35.6116L552.562 35.581L552.597 35.5507L552.632 35.5204L552.667 35.4904L552.702 35.4604L552.737 35.4306L552.771 35.401L552.806 35.3715L552.84 35.3421L552.874 35.3129L552.907 35.2838L552.941 35.2549L552.975 35.2261L553.008 35.1975L553.041 35.169L553.074 35.1406L553.107 35.1124L553.139 35.0843L553.172 35.0564L553.204 35.0287L553.236 35.001L553.268 34.9735L553.3 34.9462L553.332 34.919L553.363 34.8919L553.394 34.865L553.425 34.8383L553.456 34.8117L553.487 34.7852L553.518 34.7588L553.548 34.7327L553.578 34.7066L553.609 34.6807L553.639 34.655L553.668 34.6293L553.698 34.6039L553.727 34.5786L553.757 34.5534L553.786 34.5283L553.815 34.5035L553.843 34.4787L553.872 34.4541L553.9 34.4297L553.929 34.4053L553.957 34.3812L553.985 34.3572L554.012 34.3333L554.04 34.3095L554.067 34.286L554.095 34.2625L554.122 34.2392L554.149 34.216L554.175 34.193L554.202 34.1702L554.228 34.1474L554.255 34.1249L554.281 34.1024L554.307 34.0801L554.332 34.058L554.358 34.036L554.383 34.0141L554.409 33.9924L554.434 33.9708L554.459 33.9494L554.483 33.9281L554.508 33.907L554.532 33.886L554.557 33.8651L554.581 33.8444L554.605 33.8239L554.628 33.8035L554.652 33.7832L554.675 33.7631L554.699 33.7431L554.722 33.7232L554.745 33.7035L554.767 33.684L554.79 33.6646L554.812 33.6453L554.834 33.6262L554.856 33.6072L554.878 33.5884L554.9 33.5697L554.922 33.5512L554.943 33.5328L554.964 33.5145L554.985 33.4964L555.006 33.4785L555.027 33.4606L555.047 33.443L555.068 33.4254L555.088 33.4081L555.108 33.3908L555.128 33.3737L555.148 33.3568L555.167 33.34L555.187 33.3233L555.206 33.3068L555.225 33.2904L555.244 33.2742L555.262 33.2581L555.281 33.2421L555.299 33.2263L555.317 33.2107L555.335 33.1952L555.353 33.1798L555.371 33.1646L555.389 33.1495L555.406 33.1346L555.423 33.1198L555.44 33.1051L555.457 33.0906L555.474 33.0763L555.49 33.0621L555.507 33.048L555.523 33.0341L555.539 33.0203L555.555 33.0067L555.57 32.9932L555.586 32.9798L555.601 32.9666L555.616 32.9536L555.631 32.9406L555.646 32.9279L555.661 32.9153L555.675 32.9028L555.69 32.8904L555.704 32.8782L555.718 32.8662L555.732 32.8543L555.745 32.8425L555.759 32.8309L555.772 32.8194L555.785 32.8081L555.798 32.7969L555.811 32.7859L555.824 32.775L555.836 32.7643L555.849 32.7537L555.861 32.7432L555.873 32.7329L555.885 32.7227L555.896 32.7127L555.908 32.7028L555.919 32.6931L555.93 32.6835L555.941 32.674L555.952 32.6647L555.963 32.6555L555.973 32.6465L555.984 32.6376L555.994 32.6289L556.004 32.6203L556.014 32.6119L556.023 32.6036L556.033 32.5954L556.042 32.5874L556.051 32.5796L556.06 32.5719L556.069 32.5643L556.078 32.5568L556.086 32.5496L556.094 32.5424L556.102 32.5354L556.11 32.5286L556.118 32.5219L556.126 32.5153L556.133 32.5089L556.141 32.5026L556.148 32.4965L556.155 32.4905L556.161 32.4846L556.168 32.4789L556.175 32.4734L556.181 32.468L556.187 32.4627L556.193 32.4576L556.199 32.4526L556.204 32.4478L556.21 32.4431L556.215 32.4385L556.22 32.4341L556.225 32.4299L556.23 32.4258L556.235 32.4218L556.239 32.418L556.243 32.4143L556.247 32.4108L556.251 32.4074L556.255 32.4041L556.259 32.401L556.262 32.3981L556.265 32.3952L556.268 32.3926L556.27 32.3913L556.271 32.3901L556.274 32.3877L556.277 32.3854L556.279 32.3833L556.32 32.3499L556.513 32.1887C556.682 32.0476 556.93 31.8409 557.245 31.578C557.876 31.0521 558.775 30.3013 559.851 29.4011C562.002 27.6009 564.863 25.2016 567.697 22.8078C570.528 20.4168 573.345 18.0207 575.402 16.2308C576.424 15.3409 577.287 14.5767 577.876 14.0309C578.153 13.7735 578.441 13.4994 578.659 13.2635C578.661 13.2613 578.663 13.2585 578.667 13.255C578.73 13.1874 579.016 12.8811 579.245 12.4786C579.317 12.3533 579.466 12.0778 579.575 11.7007C579.658 11.4135 579.903 10.4642 579.444 9.36417C578.861 7.968 577.642 7.40573 576.813 7.25986C576.522 7.20876 576.258 7.20022 576.035 7.2106C575.983 7.20872 575.938 7.20822 575.902 7.20822L524.83 7.20739C522.212 7.20735 519.657 7.5936 517.654 8.83877C516.303 9.67833 515.349 10.8168 514.796 12.1462C514.397 11.1778 513.807 10.2273 512.908 9.51328C510.798 7.79896 507.678 7.39911 504.67 7.39906L497.95 7.39895C494.34 7.39889 491.427 9.11195 489.628 10.6068C488.712 11.3682 487.959 12.1749 487.441 12.8852C487.214 13.1956 486.886 13.6839 486.67 14.2567C486.669 14.2591 486.668 14.2615 486.667 14.2641C486.595 14.4549 486.298 15.241 486.465 16.2286C486.567 16.8333 486.88 17.6944 487.696 18.374C488.505 19.0478 489.394 19.1986 489.98 19.1988C490.285 19.1989 493.886 19.199 497.409 19.199L502.18 19.1991C502.209 19.7991 502.225 20.4052 502.225 20.979L502.224 82.419C502.224 85.8985 503.676 88.8633 506.643 90.7657C509.339 92.4938 512.935 93.1165 516.93 93.1193L516.978 93.12L517.193 93.1231L518.007 93.1347C518.708 93.1445 519.709 93.158 520.907 93.1731C523.303 93.2032 526.492 93.2393 529.662 93.2635C532.828 93.2876 535.991 93.2998 538.328 93.2816C539.488 93.2726 540.483 93.2558 541.181 93.227C541.507 93.2136 541.868 93.1939 542.168 93.1575C542.171 93.1572 542.175 93.1568 542.179 93.1563C542.264 93.1464 542.674 93.0989 543.109 92.9395C543.246 92.8893 543.527 92.7782 543.843 92.5705C544.094 92.4058 544.82 91.8909 545.204 90.8705C545.694 89.5688 545.316 88.3524 544.776 87.5951C544.344 86.9906 543.835 86.6847 543.65 86.5795C543.178 86.31 542.106 85.8139 541.126 85.3601L540.927 85.2677C539.77 84.732 538.528 84.1566 537.626 83.7051L537.595 83.6901L537.565 83.6756C536.608 83.2199 535.951 82.8479 535.528 82.5672L535.529 61.8719C535.531 61.8742 535.534 61.8766 535.536 61.8789L535.615 61.9502L535.685 62.0064C535.682 62.0037 535.68 62.0024 535.68 62.0026C535.677 62.0052 535.868 62.1957 536.229 62.7862C536.613 63.417 537.078 64.3144 537.621 65.5199C538.704 67.9277 539.99 71.324 541.478 75.7576L541.481 75.7657C542.922 80.0224 544.376 83.4984 545.868 86.0875C547.257 88.4977 549.078 90.8633 551.582 91.762L551.598 91.7679L551.614 91.7736C554.479 92.77 557.041 93.4924 558.864 93.5038L558.885 93.5042L559.036 93.5074L559.608 93.519C560.1 93.5288 560.803 93.5424 561.649 93.5575C563.34 93.5877 565.603 93.6239 567.89 93.6481C570.172 93.6723 572.496 93.6846 574.301 93.6663C575.198 93.6571 576.002 93.6401 576.619 93.6107C576.921 93.5963 577.23 93.5766 577.502 93.5467C577.634 93.5322 577.815 93.5093 578.009 93.4707C578.011 93.4702 578.015 93.4695 578.019 93.4687C578.116 93.4503 578.656 93.3473 579.211 93.0209C579.426 92.8945 580.272 92.3855 580.719 91.2786C581.336 89.7515 580.746 88.3908 580.138 87.6724C579.662 87.11 579.131 86.8412 578.961 86.7573C578.724 86.6405 578.514 86.5679 578.386 86.5271C577.942 86.3851 577.433 86.3026 577.118 86.254C576.572 86.1697 575.829 86.0782 575.054 85.9825C574.789 85.9499 574.52 85.9168 574.254 85.8833C571.926 85.5905 569.608 85.242 568.345 84.7894L568.335 84.7856C568.186 84.733 567.661 84.4591 566.819 83.4363C566.008 82.4502 565.082 80.9863 564.064 78.9527C563.063 76.8876 561.488 72.9528 559.317 67.0123L539.219 47.0588ZM535.529 17.3784C535.829 16.8766 536.079 16.5365 536.269 16.3196H536.673L539.813 16.3196L549.401 16.3196C551.483 16.3196 553.575 16.3197 555.5 16.3197C552.766 18.8804 549.391 21.9969 545.987 25.1214C542.254 28.5478 538.496 31.9751 535.529 34.6742L535.529 17.3784ZM536.495 16.0952C536.495 16.0956 536.49 16.1003 536.478 16.1079C536.49 16.0986 536.495 16.0948 536.495 16.0952ZM493.054 17.0713C493.054 17.0714 493.059 17.0637 493.069 17.0478C493.06 17.0633 493.055 17.0712 493.054 17.0713ZM577.063 14.0423L577.065 14.0417C577.059 14.044 577.058 14.0445 577.063 14.0423Z" fill="#0F7215" stroke="#07390A" stroke-width="7"/>
<path d="M590.323 76.9687L597.022 73.1405L597.107 73.0923L597.194 73.0489C598.148 72.5714 599.151 72.3914 600.103 72.3915C601.85 72.3915 603.558 73.1201 605.023 73.9521C606.572 74.8316 608.279 76.0798 610.124 77.623L610.144 77.6394L610.163 77.6561C611.738 79.0129 613.041 80.1184 614.078 80.978C615.716 77.7445 617.19 72.9572 618.352 66.3571L618.354 66.345L618.356 66.3328C618.969 62.9897 619.483 56.7263 619.863 47.3643C618.465 46.4579 616.437 45.4227 613.666 44.2864C611.837 43.5508 608.905 42.8461 606.314 42.2768C605.847 42.1742 605.381 42.0739 604.943 41.9794C604.249 41.8299 603.623 41.6951 603.167 41.589C602.847 41.5145 602.369 41.4009 601.992 41.2628C601.893 41.2266 601.664 41.1402 601.405 40.9955C601.28 40.9253 601.034 40.7791 600.767 40.5422C600.556 40.3549 599.961 39.7903 599.701 38.8149C599.363 37.5477 599.778 36.3606 600.46 35.5861C600.991 34.9846 601.582 34.7294 601.795 34.6438C602.11 34.517 602.4 34.455 602.585 34.4245C602.604 34.4187 602.627 34.4113 602.655 34.4021C602.821 34.3472 603.055 34.2612 603.376 34.1373C603.582 34.0578 603.847 33.9536 604.141 33.8375C604.639 33.6416 605.221 33.4119 605.753 33.2111C606.659 32.8686 607.69 32.5021 608.707 32.2187C609.679 31.9477 610.86 31.6878 612.008 31.6878C612.947 31.6878 613.874 31.792 614.78 32.0082C616.973 32.1898 619.292 32.766 621.713 33.6607C622.005 29.761 622.316 26.4608 622.646 23.7695C623.088 20.1754 623.605 17.2786 624.319 15.5329C625.853 11.743 628.479 8.94712 632.239 7.6043L633.417 10.9004L632.239 7.60429C634.626 6.75218 637.946 6.44056 641.865 6.44067L654.921 6.44106C657.928 6.44114 660.43 7.83598 661.968 10.4439C663.335 12.7636 663.796 15.792 663.796 19.0613L663.795 59.8087C669.978 62.8619 673.92 64.4695 675.894 64.9196C675.907 64.9201 675.922 64.9206 675.936 64.9211C676.144 64.928 676.438 64.9364 676.775 64.942C677.471 64.9535 678.273 64.9515 678.891 64.9127L678.902 64.9119C678.979 64.907 679.241 64.89 679.508 64.9062L679.513 64.9065C679.577 64.9103 679.85 64.9266 680.18 65.0112L680.181 65.0114C680.308 65.0438 680.797 65.1692 681.319 65.5329C681.897 65.9363 683.152 67.176 682.742 69.1257C682.462 70.4569 681.531 71.1245 681.373 71.238L681.364 71.2447C681.077 71.4517 680.824 71.5675 680.723 71.6121C680.498 71.7114 680.31 71.7652 680.252 71.7816C679.936 71.8717 679.52 71.9325 679.339 71.959L679.311 71.9632C678.736 72.0478 677.822 72.1638 676.782 72.2802C674.745 72.5079 671.935 72.7696 670.087 72.7695L667.207 72.7694C666.05 72.7694 664.912 72.7167 663.795 72.6102L663.794 78.4408C663.794 83.5226 663.794 88.8255 663.794 89.716C663.795 91.1415 663.039 92.1233 662.461 92.6381C661.918 93.1221 661.335 93.3906 660.954 93.5399C660.17 93.8473 659.282 94.0136 658.517 94.1177C656.919 94.3352 654.922 94.399 653.034 94.3662C651.135 94.3332 649.176 94.1993 647.633 93.9713C646.888 93.8613 646.083 93.7074 645.393 93.4744C645.071 93.3656 644.555 93.1688 644.052 92.817C643.666 92.5478 642.395 91.5585 642.394 89.7189C642.394 89.0758 642.394 82.3298 642.394 75.7474L642.395 66.7752L642.395 64.5297C642.034 64.2383 641.632 63.9022 641.193 63.5261C639.913 62.429 638.221 60.9076 636.129 58.9763L636.122 58.9698L636.115 58.9632C634.924 57.8519 633.855 56.9147 632.904 56.1416C632.632 59.6095 632.335 63.4215 632.012 67.5776C631.785 71.7506 630.52 76.4307 628.391 81.5539M590.323 76.9687L625.159 80.2122M590.323 76.9687C590.319 76.9706 590.316 76.9725 590.312 76.9744M590.323 76.9687L584.964 82.4857M628.391 81.5539C628.391 81.5544 628.391 81.5549 628.391 81.5555L625.159 80.2122M628.391 81.5539C628.392 81.553 628.392 81.5523 628.392 81.5515L625.159 80.2122M628.391 81.5539C627.004 84.902 625.431 87.6981 623.583 89.7087C621.703 91.7543 619.306 93.216 616.422 93.2159L609.702 93.2157C607.999 93.2157 606.292 92.6792 604.684 91.9225C603.047 91.1521 601.3 90.052 599.459 88.6879L599.43 88.6661L599.401 88.6438C597.797 87.4027 596.5 86.554 595.49 86.0299C594.99 85.7701 594.604 85.6135 594.323 85.5255C594.067 85.4455 593.953 85.4396 593.953 85.4393C593.953 85.4392 593.955 85.4393 593.958 85.4393C593.959 85.4393 593.846 85.4406 593.592 85.5136C593.34 85.5856 593 85.7136 592.561 85.927C591.673 86.3584 590.538 87.0629 589.137 88.1063L589.129 88.1122L589.121 88.1182C585.582 90.7218 582.229 92.5653 579.146 93.2318L576.723 86.7419C578.433 85.8046 580.475 84.3614 582.863 82.3416M625.159 80.2122C622.566 86.4724 619.692 89.6398 616.537 89.7146L616.422 89.8567L616.018 90.3582L614.572 89.7159L609.702 89.7157C607.718 89.7157 604.998 88.4356 601.542 85.8755C598.975 83.8895 596.903 82.655 595.326 82.1721L593.958 82.9533L593.775 83.0581L593.765 83.064L593.754 83.0698C592.182 83.9541 590.357 85.2311 588.271 86.9439C588.268 86.9464 588.265 86.9489 588.262 86.9514C587.977 87.1854 587.688 87.4275 587.393 87.6779L587.387 87.6829C584.784 89.8857 582.347 91.6416 580.089 92.8797L578.406 89.8108L577.667 86.3899C579.101 86.0797 581.103 85.1622 583.727 83.3649L582.86 82.3442C582.861 82.3433 582.862 82.3425 582.863 82.3416M582.863 82.3416C585.522 80.0813 588.009 78.2711 590.312 76.9744M582.863 82.3416C582.864 82.3408 582.865 82.3399 582.866 82.3391L583.731 83.3621C584.128 83.0904 584.539 82.7986 584.964 82.4857M584.964 82.4857C586.568 81.292 588.086 80.3188 589.5 79.6314C590.101 79.3393 590.732 79.0746 591.381 78.8693L590.302 76.9803L590.312 76.9744M584.964 82.4857L590.312 76.9744M638.496 18.5217C638.753 17.8715 639.653 16.8195 642.112 15.7256C642.287 16.6357 642.396 17.8583 642.396 19.4447L642.396 44.6324C642.04 44.3287 641.675 44.0236 641.302 43.7172L641.291 43.7075L641.279 43.6979C639.039 41.8883 636.872 40.3811 634.841 39.4093C635.427 29.7915 636.693 22.924 638.479 18.5633L638.488 18.5425L638.496 18.5217ZM603.575 41.3527C603.6 41.3498 603.626 41.3467 603.651 41.3433C603.615 41.3484 603.59 41.351 603.579 41.3522C603.577 41.3524 603.576 41.3526 603.575 41.3527ZM629.863 50.1643C629.771 51.3348 629.675 52.5554 629.575 53.826L633.23 51.9899C631.893 51.0452 630.771 50.4367 629.863 50.1643ZM679.379 71.8964C679.378 71.8966 679.367 71.8973 679.348 71.8978C679.37 71.8965 679.38 71.8962 679.379 71.8964ZM602.524 34.4426C602.524 34.4426 602.527 34.4417 602.533 34.4402C602.527 34.442 602.524 34.4427 602.524 34.4426Z" fill="#0F7215" stroke="#07390A" stroke-width="7"/>
<path d="M684.886 12.8008C684.883 12.802 684.882 12.8025 684.882 12.8025C684.882 12.8025 684.883 12.8019 684.886 12.8008ZM687.737 18.4008C687.737 18.4009 687.741 18.3979 687.748 18.3916C687.741 18.3976 687.738 18.4007 687.737 18.4008ZM685.224 19.6627C686.407 19.7767 687.426 19.3476 687.908 19.1154C688.029 20.1579 688.129 21.4417 688.203 22.9817L688.2 87.219C688.2 88.3046 688.403 89.5476 689.103 90.6853C689.846 91.8933 690.959 92.6704 692.192 93.0558L692.288 93.086L692.387 93.1106C693.081 93.2843 693.841 93.3112 694.436 93.3112C695.099 93.3112 695.879 93.2731 696.753 93.2062L710.755 92.2477L710.809 92.244L710.864 92.2386C712.372 92.0878 713.435 91.2407 714.085 90.4818C714.722 89.7391 715.165 88.8605 715.494 88.04L715.744 87.4142L715.744 86.7401L715.747 17.8171C716.394 17.9602 717.034 18.1373 717.668 18.3486L717.692 18.3567L717.717 18.3645C720.083 19.1149 720.48 19.8263 720.485 19.8366L720.497 19.865L720.511 19.8931C720.862 20.6299 721.295 22.3524 721.611 25.474L721.608 85.8764L721.608 86.6854L721.963 87.4123C724.114 91.817 728.486 93.5047 733.46 93.5049C736.841 93.505 740.294 92.6011 743.779 90.9657L743.818 90.9472L743.857 90.9278C746.351 89.6808 747.683 86.9852 748.501 84.4613L748.672 83.9349L748.672 83.3815L748.675 21.4361C748.727 20.2512 749.04 18.9657 749.693 17.5595L749.834 17.2575L749.853 17.1803C749.905 17.0749 749.982 16.9226 750.092 16.7152C750.156 16.5944 750.228 16.4608 750.307 16.3143C753.217 16.4825 754.233 17.4962 754.67 18.4194C754.674 18.4273 754.683 18.4502 754.698 18.4908C754.717 18.5445 754.742 18.6197 754.772 18.7197C754.832 18.9223 754.9 19.1941 754.975 19.5462C755.115 20.2097 755.259 21.0774 755.403 22.1682L755.403 22.6866L755.402 24.7933L755.402 32.3229L755.4 55.265C755.399 72.0081 755.398 88.9353 755.4 89.6293C755.403 91.115 756.242 92.0723 756.725 92.497C757.216 92.9289 757.733 93.1787 758.063 93.318C758.748 93.6082 759.522 93.7883 760.192 93.9106C761.591 94.1659 763.343 94.3087 765.047 94.3424C766.749 94.376 768.577 94.3042 770.121 94.068C770.879 93.9519 771.709 93.7756 772.465 93.4855C773.032 93.2679 774.418 92.6781 775.166 91.2199C775.385 90.7933 775.476 90.4033 775.506 90.2713C775.551 90.0796 775.58 89.8976 775.601 89.7513C775.644 89.4559 775.675 89.123 775.701 88.7876C775.752 88.107 775.793 87.2156 775.827 86.1722C775.894 84.0748 775.936 81.2101 775.958 77.8593C776.004 71.1497 775.974 62.3931 775.914 53.7104C775.855 45.0243 775.765 36.3983 775.69 29.9449C775.652 26.7179 775.618 24.0335 775.594 22.1557C775.582 21.2168 775.572 20.4795 775.565 19.9768L775.557 19.4028L775.555 19.2555L775.555 19.2182L775.555 19.2087L775.555 19.2063C775.555 19.2058 775.555 19.2055 772.055 19.2545L775.555 19.2055L775.553 19.0875L775.543 18.9699C775.41 17.335 775.238 15.9044 775.017 14.7073C774.81 13.5866 774.521 12.4436 774.057 11.4958C772.882 9.00759 770.65 7.48975 768.146 6.61445C765.656 5.74362 762.584 5.38614 759.095 5.38599C755.626 5.38584 752.528 5.72328 749.878 6.48026L749.853 6.48723L749.829 6.49456L736.802 10.4211C734.426 11.0993 732.591 13.1066 731.172 15.1337L731.124 15.2016L731.08 15.2718L730.895 15.565C730.743 14.9119 730.594 14.2561 730.448 13.5975L730.361 13.206L730.187 12.8443C729.258 10.9052 727.987 9.22176 726.27 8.02741C724.524 6.81261 722.523 6.24842 720.407 6.24833C718.479 6.24825 716.536 6.71396 714.617 7.50491L701.789 11.3717C700.471 11.7324 699.531 12.5812 698.916 13.2941C698.633 13.6224 698.369 13.9804 698.121 14.359C697.93 12.9545 697.665 11.5666 697.206 10.5339L697.173 10.4612L697.138 10.3901C696.76 9.63491 696.19 8.83951 695.33 8.23187C694.432 7.59841 693.406 7.30317 692.375 7.30313C691.451 7.30309 690.649 7.58045 690.085 7.82963C689.485 8.09464 688.899 8.4434 688.346 8.81879C687.241 9.56879 685.99 10.6144 684.62 11.8838L684.53 11.9673L684.446 12.057C684.29 12.2229 684.177 12.3079 683.968 12.4647C683.824 12.5731 683.635 12.7157 683.354 12.943C683.231 13.0425 683.002 13.2312 682.777 13.4723C682.774 13.4757 682.77 13.4796 682.766 13.4841C682.632 13.6269 681.975 14.3244 681.788 15.4326C681.667 16.1553 681.752 17.0203 682.223 17.8304C682.657 18.5769 683.251 18.9898 683.643 19.2012C684.338 19.5756 685.008 19.6419 685.224 19.6627Z" fill="#0F7215" stroke="#07390A" stroke-width="7"/>
<path d="M804.526 10.0011C804.527 6.50112 804.527 6.50112 804.526 6.50112H804.526L804.524 6.50112L804.515 6.50112L804.481 6.50112L804.35 6.5011L803.848 6.50105L802.049 6.50086L796.503 6.50035C792.413 6.50003 788.163 6.49981 787.532 6.50025C785.166 6.50189 783.09 8.28692 783.09 10.7806C783.09 11.959 783.608 13.2583 784.791 14.104C785.976 14.9502 787.312 14.9857 788.315 14.756C788.349 14.7481 788.395 14.7404 788.45 14.7332C788.45 14.8479 788.45 14.9663 788.45 15.0883L788.446 85.5523C788.446 86.9875 788.541 88.3769 788.854 89.5318C789.351 91.3995 790.696 92.5811 792.142 93.2057C793.474 93.781 794.996 93.9486 796.458 93.9487L817.194 93.9498L818.804 93.9499L819.851 92.7277C820.144 92.3867 821.556 90.662 820.584 88.4765C820.138 87.4711 819.379 86.9148 818.861 86.6343C818.346 86.3554 817.848 86.224 817.497 86.1538L817.096 86.0735L816.687 86.0879L809.886 86.3276C809.862 86.1221 809.846 85.8662 809.846 85.5534L809.85 14.8974C809.85 13.7056 809.842 12.7726 809.825 12.1173C809.816 11.7971 809.805 11.4977 809.786 11.2516C809.778 11.1383 809.763 10.9639 809.733 10.7775C809.72 10.6916 809.689 10.5152 809.629 10.3048C809.598 10.1997 809.542 10.0193 809.445 9.80692C809.367 9.63692 809.157 9.20287 808.729 8.77451L808.531 8.57616L808.303 8.41193L807.008 7.47587L806.684 7.24185L806.603 7.18335L806.582 7.16872L806.577 7.16507L806.576 7.16415L806.576 7.16392L806.576 7.16387L806.576 7.16385L804.526 10.0011ZM804.526 10.0011L804.527 6.50112L805.658 6.50125L806.576 7.16385L804.526 10.0011ZM788.406 12.1467C788.406 12.1466 788.406 12.1493 788.407 12.1552C788.406 12.1497 788.406 12.1468 788.406 12.1467Z" fill="#0F7215" stroke="#07390A" stroke-width="7"/>
</svg>
