<svg width="562" height="323" viewBox="0 0 562 323" fill="none" xmlns="http://www.w3.org/2000/svg">
<g opacity="0.9">
<path d="M214.369 -48.7008C203.23 -50.7807 190.397 -49.2821 180.972 -40.0124C169.548 -28.7791 167.372 -11.8181 166.283 2.23403C162.698 48.5638 176.135 93.347 202.054 127.625C216.382 146.574 234.6 162.472 255.905 173.538C266.907 179.254 279.444 183.826 292.842 183.018C301.252 182.509 311.039 179.904 317.641 173.262C321.554 169.324 324.129 163.965 323.466 158.809C323.436 158.574 323.368 158.361 323.321 158.134C317.915 170.485 301.476 175.228 291.34 168.305C273.578 156.174 282.177 130.026 286.302 110.901C295.93 66.2633 289.432 18.7769 263.987 -14.6377C252.046 -30.3203 234.969 -44.8568 214.369 -48.7008ZM244.34 -42.2795C262.828 -29.5844 276.554 -11.1736 285.134 9.82705C294.857 33.6185 298.27 60.6194 295.876 87.7655C294.512 103.24 289.68 118.284 287.336 133.682C285.8 143.774 286.316 154.779 293.485 161.515C300.556 168.159 316.4 166.358 318.907 153.53C318.988 153.122 319.135 152.766 319.319 152.442C314.991 149.822 308.521 150.887 305.776 157.712C304.408 161.112 299.599 159.793 300.754 156.382C303.563 148.095 312.628 143.095 320.45 145.283C328.92 147.647 331.524 157.63 328.895 166.144C321.23 190.981 287.651 191.65 270.051 186.284C224.511 172.403 189.837 131.283 173.017 88.2458C164.299 65.9389 159.677 41.5885 159.822 16.4757C159.95 -5.69649 162.026 -38.2412 186.772 -50.9965C206.964 -61.4064 229.156 -52.7061 244.34 -42.2795Z" fill="#FFEEBF"/>
<path d="M206.705 -33.8942C203.455 -33.7583 200.607 -32.9146 198.073 -31.5807C198.777 -31.0783 199.349 -30.463 199.668 -29.7376C211.743 -23.5744 219.157 -10.1479 223.627 2.99342C224.194 2.86596 224.787 3.02724 225.12 3.65142C228.349 9.71994 237.156 5.17776 238.556 -0.945142C239.238 -3.91174 238.778 -7.0989 236.946 -9.2224C236.106 -10.196 234.274 -11.7434 232.634 -10.8393C231.49 -10.2095 230.955 -8.34896 231.943 -7.65151C233.845 -6.30457 232.133 -2.99702 229.725 -3.54107C224.482 -4.72884 226.058 -12.2705 230.434 -14.9255C236.557 -18.6392 242.142 -12.7478 243.313 -7.6341C244.628 -1.90445 242.359 5.77207 236.261 9.04645C232.646 10.9872 228.451 10.9152 225.508 9.06664C225.574 9.29745 225.646 9.53116 225.707 9.76221C228.101 18.5244 229.334 27.6153 230.143 36.8218C235.173 45.5221 248.992 47.4818 255.125 35.6254C257.692 30.6649 257.897 23.9612 253.366 21.1358C251.614 20.0421 248.627 19.2105 246.604 21.0489C243.814 23.587 245.592 28.3983 245.455 31.3409C245.377 32.9899 242.737 34.1393 241.869 32.7818C237.924 26.6025 240.696 15.0436 250.212 14.9884C258.77 14.94 262.957 23.3149 261.411 31.2603C259.769 39.7003 252.627 47.5221 243.951 48.6011C238.778 49.2422 233.885 47.515 230.713 44.1747C231.303 53.0076 231.662 61.9006 232.353 70.6912C232.506 72.6394 232.69 74.5753 232.896 76.4979C238.05 83.6629 249.203 87.5154 257.236 78.9617C260.503 75.4859 262.611 70.5065 261.738 66.1716C261.2 63.5111 259.25 60.8015 256.546 60.1132C252.134 58.9929 249.053 63.3306 250.424 67.0336C251.233 69.2237 248.416 70.977 246.832 69.5473C241.596 64.815 248.586 55.5928 255.014 55.1591C263.906 54.5557 268.056 64.0522 265.993 71.9411C261.87 87.7154 243.322 92.2957 233.882 84.0282C235.078 92.0143 236.832 99.7619 239.204 107.265C240.627 107.051 241.967 108.585 240.798 110.028C240.647 110.216 240.473 110.405 240.311 110.596C240.535 111.241 240.725 111.902 240.96 112.543C245.077 116.103 251.161 119.736 256.838 118.067C261.138 116.804 264.593 112.606 264.764 108.265C264.858 105.848 263.988 103.153 261.531 102.427C257.766 101.314 254.575 105.952 257.911 108.216C259.695 109.428 258.066 112.491 255.872 111.992C249.309 110.494 250.684 101.083 257.006 98.3235C264.502 95.0543 270.172 101.573 269.416 108.563C268.624 115.857 261.76 122.553 254.462 122.893C249.686 123.119 246.13 121.247 243.298 118.45C244.677 121.7 246.148 124.914 247.831 128.05C248.984 130.204 250.223 132.273 251.495 134.304C252.544 133.558 254.125 134.218 253.862 135.531C253.757 136.066 253.568 136.604 253.327 137.144C258.531 144.892 264.579 151.796 271.212 158.192C264.775 139.007 271.735 111.443 272.98 92.159C275.345 55.5718 271.922 17.8411 249.644 -9.23994C240.145 -20.7901 223.736 -34.6046 206.705 -33.8942ZM181.562 -4.55584C185.312 -6.15222 188.884 -7.5855 192.337 -10.4466C196.08 -13.5473 199.051 -17.2357 201.256 -21.3886C199.663 -22.9563 198.018 -24.5153 196.318 -26.1072C195.57 -26.8085 195.633 -27.6916 196.084 -28.4421C195.994 -28.5542 195.907 -28.6699 195.803 -28.7776C195.517 -29.0711 195.198 -29.3106 194.857 -29.5183C187.867 -24.0122 183.906 -14.1351 181.562 -4.55584ZM180.517 0.166986C179.693 4.32959 179.14 8.2774 178.738 11.5964C177.888 18.5968 177.644 25.5521 177.893 32.4186C194.819 25.5111 205.638 15.9579 216.01 0.367321C216.135 0.182997 216.283 0.0538133 216.433 -0.0738006C216.06 -0.950633 215.687 -1.82747 215.28 -2.6869C214.275 -4.82951 213.156 -6.79699 211.959 -8.66028C205.903 2.64113 192.094 11.8556 180.486 15.1472C179.303 15.4824 178.804 13.7745 179.955 13.1978C186.129 10.1 191.918 6.87621 197.294 2.27073C202.144 -1.88463 205.688 -6.92181 210.026 -11.493C207.994 -14.262 205.761 -16.7943 203.37 -19.2569C199.152 -10.0863 190.289 -0.977186 180.517 0.166986ZM179.471 48.745C197.353 44.6784 207.761 33.8552 219.624 19.5926C220.355 18.7118 221.481 18.5927 222.208 18.9966C221.179 13.948 219.872 8.99269 218.145 4.23283C210.423 19.2611 193.915 31.6519 177.972 34.6092C178.222 39.3747 178.736 44.0911 179.471 48.745ZM183.16 65.3577C189.864 61.8612 196.558 59.2006 202.844 54.6351C210.025 49.4209 215.809 43.1294 221.088 36.0206C222.328 34.3501 224.352 34.9852 224.697 36.3701C224.387 33.0987 224.033 29.8372 223.561 26.6025C223.293 24.7695 222.986 22.9443 222.65 21.1295C215.739 37.5044 196.207 48.5884 179.949 51.6084C180.786 56.27 181.874 60.8518 183.16 65.3577ZM187.785 78.8553C187.812 78.8467 187.828 78.8305 187.857 78.8234C194.874 76.953 201.575 74.4254 208.011 70.5273C214.542 66.5739 219.417 61.3563 225.207 56.4923C225.482 56.2605 225.765 56.1367 226.048 56.0597C225.69 49.56 225.325 43.0608 224.719 36.6189C224.762 37.0535 224.674 37.5341 224.332 38.0446C215.38 51.3823 199.543 64.9627 183.815 67.517C184.984 71.3665 186.319 75.1474 187.785 78.8553ZM196.084 96.3037C202.56 94.2064 208.653 91.5019 214.283 87.2089C219.135 83.5078 222.351 78.4022 226.972 74.6391C227.064 74.5623 227.162 74.5202 227.258 74.4649C226.865 69.9201 226.574 65.3548 226.314 60.7805C217.466 71.9696 201.656 79.2264 188.759 81.2541C190.919 86.4438 193.374 91.4673 196.084 96.3037ZM198.129 99.8599C200.2 103.309 202.413 106.588 204.711 109.767C209.253 107.868 213.687 105.844 217.94 103.127C222.249 100.37 225.796 96.5956 229.855 93.6093C229.567 92.1518 229.277 90.6962 229.037 89.2369C228.519 86.0707 228.129 82.8736 227.782 79.6667C222.002 89.5488 207.705 96.764 197.484 98.737C197.701 99.1089 197.906 99.49 198.129 99.8599ZM214.695 122.107C218.43 120.133 222.594 119.195 226.35 117.104C229.406 115.404 232.02 113.301 234.566 111.036C233.107 106.756 231.837 102.413 230.813 98.0251C224.64 104.575 214.381 109.467 206.148 111.762C208.855 115.376 211.72 118.805 214.695 122.107ZM226.751 134.153C227.133 134.204 227.449 134.458 227.548 134.864C227.697 134.998 227.852 135.128 228.001 135.262C228.831 134.84 230.504 133.959 230.655 133.839C231.96 132.802 233.262 131.762 234.573 130.731C236.559 129.169 238.555 127.345 240.734 126.033C238.972 122.408 237.369 118.696 235.947 114.913C230.357 119.693 222.742 123.919 216.467 124.035C219.757 127.565 223.194 130.927 226.751 134.153ZM239.088 144.432C239.096 144.415 239.094 144.402 239.102 144.381C239.489 143.512 240.54 143.243 241.058 143.847C243.165 143.18 245.543 141.082 246.939 139.711C247.261 139.393 247.546 139.048 247.829 138.706C245.838 135.591 243.977 132.378 242.264 129.075C240.53 130.604 238.544 131.867 236.686 133.222C234.773 134.615 232.695 136.513 230.508 137.471C233.297 139.872 236.174 142.172 239.088 144.432ZM279.153 171.058C278.58 170.517 278.035 169.959 277.519 169.381C266.596 162.228 257.333 152.696 249.84 141.742C247.317 144.072 244.091 145.866 241.509 146.31C253.371 155.267 266.122 163.251 279.153 171.058ZM277.296 103.214C275.104 126.658 266.161 159.761 289.545 171.98C291.649 173.08 290.092 175.978 288.049 176.353C288.788 176.789 289.528 177.227 290.269 177.665C291.188 178.211 290.298 179.958 289.236 179.576C224.867 156.528 169.529 95.8862 173.062 21.2439C173.773 6.26014 176.201 -11.7911 185.279 -25.4819C194.787 -39.8214 208.888 -40.7996 222.039 -35.8659C253.456 -24.0834 270.951 7.37523 276.465 40.0862C279.902 60.4814 279.286 81.9353 277.296 103.214Z" fill="#FFEEBF"/>
<path d="M220.583 28.7627C253.997 54.2077 301.484 60.7056 346.122 51.0784C365.248 46.9511 391.394 38.3544 403.525 56.1161C410.448 66.2525 405.705 82.6909 393.355 88.0966C393.582 88.1438 393.794 88.212 394.029 88.242C399.186 88.9048 404.544 86.3298 408.482 82.4168C415.125 75.8149 417.73 66.0283 418.238 57.6177C419.046 44.2203 414.474 31.6825 408.759 20.6814C397.693 -0.62389 381.795 -18.8424 362.845 -33.1695C328.567 -59.0888 283.784 -72.5261 237.454 -68.9407C223.402 -67.8524 206.441 -65.6755 195.208 -54.2521C185.938 -44.8266 184.44 -31.9943 186.52 -20.8547C190.365 -0.256524 204.9 16.822 220.583 28.7627ZM184.224 -48.4516C196.981 -73.2001 229.524 -75.2737 251.696 -75.402C276.809 -75.5472 301.159 -70.9246 323.466 -62.2074C366.504 -45.3883 407.623 -10.713 421.504 34.8267C426.871 52.4266 426.201 86.0063 401.365 93.6707C392.851 96.2997 382.868 93.6962 380.503 85.2258C378.318 77.4023 383.316 68.3394 391.602 65.5296C395.014 64.3751 396.333 69.1842 392.933 70.5517C386.107 73.2969 385.043 79.7666 387.662 84.095C387.986 83.9115 388.342 83.7641 388.751 83.683C401.58 81.1742 403.379 65.3325 396.736 58.2609C389.999 51.0924 378.995 50.5762 368.902 52.1124C353.504 54.4561 338.463 59.2863 322.986 60.652C295.84 63.0456 268.839 59.6333 245.047 49.91C224.049 41.328 205.636 27.6036 192.941 9.11566C182.514 -6.06751 173.816 -28.2622 184.224 -48.4516Z" fill="#FFEEBF"/>
<path d="M151.114 -54.9685C142.25 -59.842 131.102 -61.926 120.945 -56.0641C108.635 -48.9589 102.718 -34.1893 98.4163 -21.757C84.2385 19.2268 84.7418 63.3763 98.2676 101.365C105.745 122.365 117.228 141.645 132.472 157.382C140.342 165.508 149.778 173.01 161.236 175.874C168.43 177.671 177.283 177.939 184.434 173.696C188.672 171.182 192.127 167.019 192.812 162.174C192.843 161.952 192.836 161.741 192.851 161.524C185.333 171.256 170.371 171.138 163.518 162.15C151.512 146.403 165.04 125.038 173.116 108.828C191.968 70.9993 197.949 26.2606 184.613 -10.8163C178.354 -28.2185 167.501 -45.962 151.114 -54.9685ZM174.757 -41.1137C187.239 -24.6602 194.34 -4.30787 196.494 17.0068C198.933 41.1555 195.294 66.5167 186.741 90.4503C181.864 104.097 174.178 116.418 168.496 129.73C164.774 138.456 162.554 148.555 166.959 156.58C171.301 164.491 185.051 167.112 190.252 156.171C190.418 155.824 190.629 155.539 190.862 155.297C187.854 151.763 182.159 150.992 178.206 156.433C176.235 159.146 172.512 156.66 174.305 153.883C178.663 147.134 187.489 145.041 193.538 149.119C200.086 153.533 199.868 163.268 195.609 170.272C183.18 190.7 154.791 182.296 141.289 172.717C106.356 147.931 87.1152 101.398 83.3499 57.9208C81.3974 35.3862 83.3785 12.1 89.5526 -10.5974C95.0051 -30.6368 104.591 -59.5427 128.468 -64.4536C147.948 -68.4574 164.507 -54.6281 174.757 -41.1137Z" fill="#FFEEBF"/>
<path d="M222.022 -38.4048C262.602 -24.3675 311.945 -31.7212 353.906 -53.1216C371.885 -62.2891 395.634 -77.5468 412.758 -64.6036C422.532 -57.2151 422.403 -40.7498 411.564 -32.3074C411.802 -32.3278 412.036 -32.3245 412.279 -32.362C417.625 -33.2008 422.265 -37.0739 425.106 -41.7818C429.899 -49.7259 429.756 -59.4644 427.903 -67.3518C424.948 -79.9135 416.854 -90.1698 408.046 -98.6931C390.987 -115.198 369.966 -127.505 346.98 -135.372C305.402 -149.605 256.819 -149.399 211.465 -133.086C197.71 -128.14 181.352 -121.373 173.32 -107.702C166.693 -96.4215 168.794 -84.1878 174.006 -74.5151C183.636 -56.6344 202.978 -44.9958 222.022 -38.4048ZM163.956 -99.2768C169.773 -125.641 201.752 -136.69 223.9 -143.034C248.99 -150.223 274.653 -152.804 299.422 -151.044C347.208 -147.647 398.093 -127.273 424.771 -89.2504C435.082 -74.5566 443.841 -43.4544 421.144 -29.4228C413.363 -24.615 402.645 -24.208 397.899 -31.3387C393.514 -37.9258 395.969 -47.675 403.473 -52.5882C406.561 -54.6098 409.231 -50.5538 406.213 -48.3402C400.156 -43.8946 400.906 -37.6402 404.745 -34.3911C405.014 -34.6509 405.332 -34.8874 405.718 -35.0771C417.847 -40.988 415.2 -56.077 406.567 -60.7197C397.812 -65.4305 386.657 -62.8127 376.99 -58.5662C362.239 -52.0817 348.547 -43.4117 333.444 -37.8088C306.953 -27.9815 278.978 -23.5412 252.442 -25.8093C229.019 -27.8128 206.741 -35.2778 188.847 -48.732C174.15 -59.7812 159.212 -77.7662 163.956 -99.2768Z" fill="#FFEEBF"/>
<path d="M223.398 -53.1237C256.752 -40.2206 295.468 -47.6667 331.412 -60.1166C350.359 -66.6795 375.987 -80.8275 396.989 -80.2908C388.726 -84.5993 380.119 -88.2266 370.907 -90.8437C370.434 -90.4708 369.948 -90.1437 369.443 -89.8971C368.203 -89.2872 367.097 -90.5592 367.55 -91.7323C365.16 -92.3344 362.741 -92.8927 360.262 -93.3498C356.652 -94.0165 353.024 -94.4715 349.385 -94.8255C352.977 -93.0034 355.847 -90.2561 356.966 -85.7984C358.674 -78.9812 353.901 -70.783 346.825 -68.0081C340.044 -65.3479 331.929 -68.7349 333.097 -76.5548C334.08 -83.1488 343.112 -87.0592 346.454 -81.4363C347.568 -79.5587 344.961 -77.1974 343.249 -78.4994C340.046 -80.9356 336.3 -76.6941 338.471 -73.541C339.89 -71.4848 342.828 -71.4397 345.221 -72.2056C349.517 -73.5805 352.745 -77.9403 352.804 -82.2535C352.879 -87.9491 347.537 -92.5286 342.818 -95.3188C342.109 -95.3549 341.395 -95.3455 340.684 -95.3697C340.541 -95.1674 340.399 -94.9535 340.255 -94.7628C339.138 -93.2815 337.228 -94.0834 337.042 -95.453C328.869 -95.5306 320.623 -94.9684 312.298 -93.8277C323.222 -87.4585 323.848 -69.0982 309.221 -60.8739C301.905 -56.7591 291.238 -57.9125 289.343 -66.2662C287.974 -72.3059 295.237 -81.3305 301.442 -77.8384C303.319 -76.782 302.357 -73.6968 299.937 -73.8275C295.845 -74.0488 292.373 -69.9938 294.733 -66.248C296.179 -63.9532 299.44 -62.9157 302.251 -63.1705C306.833 -63.5822 311.226 -66.9215 313.788 -70.9046C320.089 -80.7038 313.101 -89.8902 304.485 -92.6201C302.503 -92.271 300.515 -91.8948 298.524 -91.49C289.532 -89.6585 280.533 -87.4892 271.529 -85.5516C275.762 -83.5716 278.866 -79.55 279.676 -74.6093C281.033 -66.3189 275.211 -57.5478 267.226 -53.6657C259.711 -50.0126 250.155 -51.5128 247.801 -59.4077C245.184 -68.1807 255.97 -73.9786 263.263 -72.0825C264.863 -71.666 264.455 -68.9112 262.827 -68.377C259.921 -67.4257 254.607 -67.7098 252.854 -64.4293C251.581 -62.05 253.252 -59.5342 254.837 -58.2297C258.939 -54.8509 265.586 -56.9219 269.828 -60.678C279.969 -69.6532 274.13 -81.8246 264.01 -84.0109C254.571 -82.1707 245.13 -80.753 235.69 -80.4961C235.442 -80.4884 235.187 -80.4884 234.936 -80.4838C237.612 -78.2938 238.863 -74.4519 237.938 -70.581C236.372 -64.0472 229.328 -59.8014 223.226 -59.4045C217.781 -59.0463 210.318 -62.5335 212.315 -69.2118C213.74 -73.9854 220.847 -77.5541 223.505 -73.0614C224.728 -70.9995 221.898 -68.4936 220.017 -69.8671C219.04 -70.5787 217.33 -69.5644 217.02 -68.3346C216.576 -66.5726 218.64 -65.3191 219.851 -64.8197C222.489 -63.7292 225.806 -64.2007 228.585 -65.6606C234.317 -68.6716 236.39 -78.051 229.409 -79.3214C228.692 -79.4521 228.364 -79.953 228.332 -80.5102C213.926 -80.9348 198.412 -83.989 188.854 -93.3738C188.037 -93.464 187.259 -93.8175 186.561 -94.3253C185.937 -91.6167 185.893 -88.7575 186.67 -85.7284C190.742 -69.8513 209.173 -58.6269 223.398 -53.1237ZM187.723 -97.8657C188.025 -97.6101 188.353 -97.3831 188.727 -97.2029C188.866 -97.136 189.003 -97.089 189.143 -97.0355C189.768 -97.6631 190.635 -97.9691 191.545 -97.4764C193.616 -96.3588 195.636 -95.2843 197.652 -94.2545C201.19 -97.4524 204.045 -101.224 206.098 -105.54C207.992 -109.522 208.423 -113.214 208.965 -117.116C200.036 -112.264 191.269 -105.844 187.723 -97.8657ZM200.38 -92.9117C203.514 -91.4008 206.676 -90.0557 210.018 -88.9623C213.374 -94.2415 217.418 -98.9187 220.213 -104.55C223.313 -110.791 224.913 -117.027 226.278 -123.578C226.534 -124.801 228.379 -124.82 228.378 -123.637C228.345 -112.027 223.002 -96.7281 213.395 -87.9782C215.596 -87.3994 217.879 -86.9232 220.304 -86.5992C221.278 -86.4669 222.26 -86.3702 223.242 -86.2701C223.327 -86.4433 223.415 -86.6182 223.566 -86.7843C236.253 -100.712 242.773 -113.354 244.933 -130.875C237.991 -129.176 231.101 -126.999 224.335 -124.251C221.127 -122.947 217.33 -121.329 213.398 -119.404C214.998 -110.086 208.37 -99.3679 200.38 -92.9117ZM247.147 -131.418C248.665 -115.911 240.904 -97.2337 228.032 -85.9051C233.282 -85.6497 238.606 -85.8407 243.948 -86.3102C243.338 -86.8661 243.142 -87.9393 243.818 -88.8578C254.756 -103.782 262.664 -116.404 261.712 -134.008C256.849 -133.377 251.986 -132.526 247.147 -131.418ZM264.711 -134.373C266.254 -118.557 260.65 -97.4638 246.205 -86.5035C248.114 -86.7021 250.027 -86.9343 251.936 -87.2013C255.306 -87.6781 258.668 -88.2664 262.03 -88.898C260.547 -88.8268 259.344 -90.5126 260.666 -92.1222C266.298 -98.979 270.966 -106.069 274.17 -114.145C276.971 -121.213 277.755 -128.122 279.37 -135.276C274.502 -135.196 269.61 -134.911 264.711 -134.373ZM281.715 -135.28C283.576 -120.085 274.434 -101.691 263.601 -89.7052C263.189 -89.2465 262.731 -89.0317 262.286 -88.948C268.901 -90.1984 275.506 -91.6886 282.112 -93.1855C282.111 -93.4676 282.154 -93.763 282.307 -94.0813C285.55 -100.775 289.399 -106.728 291.522 -113.851C293.615 -120.872 294.261 -127.749 294.162 -134.735C294.162 -134.764 294.175 -134.783 294.176 -134.811C290.051 -135.119 285.896 -135.287 281.715 -135.28ZM296.849 -134.589C298.441 -122.145 295.619 -105.552 286.91 -94.2673C291.559 -95.3101 296.211 -96.3248 300.866 -97.2394C300.895 -97.3434 300.909 -97.4446 300.96 -97.5518C303.428 -102.863 307.634 -107.256 309.975 -112.763C312.689 -119.152 313.686 -125.52 313.965 -132.07C308.364 -133.209 302.648 -134.057 296.849 -134.589ZM316.792 -131.466C317.689 -121.502 314.483 -106.315 306.221 -98.2175C309.527 -98.8001 312.834 -99.3359 316.149 -99.7486C317.676 -99.9382 319.214 -100.08 320.753 -100.225C322.602 -104.799 325.382 -109.125 326.929 -113.867C328.455 -118.544 329.237 -123.195 329.859 -127.909C326.031 -129.131 322.13 -130.248 318.097 -131.187C317.665 -131.288 317.225 -131.368 316.792 -131.466ZM332.261 -127.147C332.275 -118.923 330.262 -108.105 325.44 -100.583C330.117 -100.874 334.82 -100.924 339.513 -100.782C341.063 -103.763 342.435 -106.759 343.279 -110.049C344.315 -114.093 344.084 -118.192 345.01 -122.185C340.872 -123.995 336.636 -125.669 332.261 -127.147ZM347.437 -121.096C349.083 -115.283 346.993 -107.09 343.783 -100.6C347.965 -100.354 352.13 -99.9173 356.252 -99.3173C356.951 -101.691 358.215 -104.039 359.221 -106.307C359.884 -107.803 360.561 -109.293 361.232 -110.787C361.31 -110.958 361.72 -112.746 361.912 -113.63C361.737 -113.729 361.561 -113.834 361.386 -113.933C360.952 -113.91 360.608 -114.131 360.447 -114.469C356.224 -116.839 351.894 -119.057 347.437 -121.096ZM364.826 -111.943C364.48 -109.659 363.168 -107.215 362.309 -105.062C361.474 -102.972 360.768 -100.788 359.726 -98.7611C363.509 -98.1118 367.248 -97.3024 370.923 -96.3431C371.188 -96.7011 371.452 -97.0591 371.679 -97.4444C372.66 -99.1147 374.09 -101.894 374.166 -104.021C373.416 -104.328 373.391 -105.372 374.155 -105.971C374.171 -105.984 374.186 -105.986 374.2 -105.997C371.122 -108.047 368.009 -110.048 364.826 -111.943ZM376.759 -104.298C377.039 -101.795 376.149 -98.324 374.526 -95.3451C387.592 -91.5226 399.733 -85.6715 409.954 -77.6269C410.678 -77.313 411.392 -76.9699 412.093 -76.5926C400.623 -86.3966 389.053 -95.8945 376.759 -104.298ZM280.285 -42.287C246.007 -38.1751 209.617 -45.446 189.003 -71.0578C180.374 -81.7802 177.392 -95.0381 189.07 -107.816C200.22 -120.017 217.601 -127.323 232.392 -132.183C306.09 -156.398 382.307 -122.486 423.449 -69.7049C424.128 -68.8316 422.63 -67.5235 421.828 -68.2176C421.18 -68.7758 420.537 -69.3326 419.89 -69.8892C420.087 -67.9041 417.626 -65.6586 415.936 -67.2845C397.141 -85.3807 366.528 -67.8527 343.685 -59.2488C322.952 -51.4423 301.658 -44.8516 280.285 -42.287Z" fill="#FFEEBF"/>
<path d="M195.948 3.57005C195.653 4.51644 194.783 5.08149 193.884 5.21932C191.844 5.53244 189.269 4.69145 189.167 2.61438C188.816 2.24872 188.552 1.78324 188.374 1.26322C188.192 0.7251 188.518 -0.161695 188.991 -0.569723C192.374 -3.49092 197.211 -0.495397 195.948 3.57005Z" fill="#FFEEBF"/>
<path d="M210.634 17.8915C208.257 17.99 206.418 16.1625 206.334 13.862C206.085 13.1016 206.232 12.1876 207.064 11.4399C208.021 10.583 209.045 10.3627 209.969 10.542C210.009 10.5174 210.037 10.4803 210.079 10.4539C211.318 9.66374 212.819 9.4811 214.037 9.94672C215.438 10.481 215.983 11.6445 215.699 13.2097C215.27 15.587 213.069 17.7906 210.634 17.8915Z" fill="#FFEEBF"/>
<path d="M232.668 19.9445C231.358 20.7214 229.891 21.0102 228.57 20.7874C228.431 20.8892 228.3 20.9989 228.146 21.0934C227.425 21.5342 226.577 21.4495 226.048 20.9563C225.263 20.2292 224.471 19.5161 223.73 18.7458C223.044 18.035 223.129 16.818 223.925 15.9978C225.063 14.8257 226.199 13.6553 227.335 12.485C228.04 11.7581 229.001 11.6692 229.779 11.9826C232.043 12.8943 233.59 15.0701 233.793 17.5908C233.865 18.4725 233.55 19.4203 232.668 19.9445Z" fill="#FFEEBF"/>
<path d="M256.479 10.2758C255.917 11.096 255.176 11.762 254.363 12.2478C254.416 12.7935 254.108 13.4385 253.428 13.7194C246.211 16.6814 240.279 9.14791 245.003 2.54976C247.156 -0.457047 250.847 -1.69509 253.852 -0.392135C255.921 0.503553 257.407 2.53997 257.413 4.89609C257.983 6.53383 257.647 8.56539 256.479 10.2758Z" fill="#FFEEBF"/>
<path d="M28.0745 -44.6835C12.6681 -0.372644 18.461 47.3047 38.593 84.003C47.2188 99.7277 61.7719 119.699 48.2227 140.181C40.4903 151.872 23.9627 155.922 15.8328 147.182C15.8465 147.418 15.8343 147.651 15.8656 147.888C16.5347 153.042 20.2746 156.717 24.9095 158.373C32.7301 161.169 42.5157 158.552 50.4942 154.688C63.2017 148.533 73.7611 137.802 82.6041 126.793C99.7267 105.474 112.762 81.2422 121.405 56.1665C137.038 10.8025 138.399 -37.9283 123.483 -79.322C118.961 -91.8784 112.694 -106.586 99.2279 -111.18C88.114 -114.972 75.7636 -109.753 65.8818 -102.066C47.6179 -87.8542 35.3046 -65.4791 28.0745 -44.6835ZM91.0699 -118.442C117.354 -119.297 127.417 -89.9922 133.072 -69.3632C139.477 -45.9972 141.242 -20.8842 138.675 4.43381C133.722 53.2782 111.624 109.543 72.5837 145.987C57.4966 160.07 25.9854 176.762 12.6294 157.533C8.05141 150.942 7.9882 140.283 15.3011 133.706C22.0584 127.631 31.7672 127.622 36.4587 133.909C38.3889 136.496 34.23 140.209 32.1026 137.739C27.8376 132.786 21.532 135.127 18.1449 139.805C18.3988 140.012 18.6256 140.268 18.8028 140.609C24.3471 151.289 39.5833 144.799 44.5244 134.952C49.5358 124.965 47.269 114.427 43.3153 105.8C37.282 92.6358 29.0176 81.0882 23.879 67.3468C14.8673 43.2428 11.311 16.28 14.4461 -10.9406C17.2122 -34.9682 25.4258 -59.2316 39.5118 -80.6148C51.0813 -98.1784 69.6252 -117.745 91.0699 -118.442Z" fill="#FFEEBF"/>
<path d="M42.8031 -47.0402C28.7708 -10.2721 34.9966 26.7109 46.3391 59.64C52.3169 76.9965 65.6947 99.1376 64.4776 120.363C69.0707 110.973 72.991 101.411 75.9155 91.4947C75.556 91.1154 75.2445 90.7099 75.0124 90.2656C74.441 89.1757 75.7511 87.7409 76.9151 87.8985C77.5984 85.345 78.2357 82.7751 78.7775 80.1697C79.563 76.3763 80.1337 72.6169 80.6101 68.8738C78.6629 72.9437 75.8126 76.5233 71.2989 78.7772C64.3999 82.2225 56.3222 79.5122 53.7636 73.1123C51.3119 66.9796 54.9755 57.9703 62.7894 57.1572C69.3787 56.4717 73.0134 64.5477 67.2587 69.3299C65.3383 70.9261 63.0517 68.908 64.4144 66.8565C66.9633 63.0233 62.8258 60.3376 59.5906 63.3204C57.4777 65.265 57.3403 68.2294 58.0299 70.4356C59.2731 74.401 63.547 76.5359 67.8735 75.4978C73.5915 74.1281 78.3619 67.5997 81.3168 62.1543C81.3741 61.433 81.3876 60.7183 81.4355 60.0002C81.2386 59.9072 81.0271 59.8195 80.838 59.7218C79.388 58.9774 80.2563 56.856 81.6371 56.3199C81.9779 48.093 81.6807 39.9586 80.805 31.8883C74.0556 44.4728 55.6004 49.7646 47.8131 37.1663C43.9183 30.8652 45.4209 19.8618 53.8708 15.8381C59.9785 12.9285 68.8059 17.9316 65.0999 25.0477C63.9783 27.201 60.9108 27.0173 61.12 24.5546C61.4746 20.3909 57.5151 17.9324 53.6783 21.2549C51.3267 23.2886 50.1806 26.8253 50.3453 29.5845C50.6107 34.0819 53.8231 37.6429 57.7392 39.2035C67.3742 43.0435 76.8232 33.6944 79.8422 24.3509C79.5562 22.4487 79.2444 20.5473 78.9005 18.6501C77.3505 10.0883 75.4661 1.60225 73.8089 -6.94583C71.6836 -2.19284 67.5473 1.94345 62.5584 4.01168C54.193 7.48015 45.5731 3.86253 41.9324 -3.16963C38.5067 -9.78711 40.3217 -19.7657 48.3243 -24.1338C57.218 -28.9877 62.6923 -19.6311 60.5515 -11.8267C60.0819 -10.1133 57.3293 -9.82317 56.8463 -11.3226C55.9846 -13.9988 56.4415 -19.4056 53.2036 -20.3353C50.8565 -21.0086 48.2765 -18.6935 46.914 -16.7699C43.3902 -11.7935 45.255 -5.64448 48.889 -2.33681C57.5743 5.56695 69.984 -3.38906 72.5078 -14.1045C70.9636 -23.1146 69.8448 -32.2354 69.891 -41.6483C69.892 -41.8956 69.9005 -42.1534 69.9015 -42.4006C67.6167 -39.1589 63.7189 -36.9256 59.8622 -36.8749C53.3523 -36.7861 49.3173 -42.7819 49.1142 -48.8066C48.9315 -54.1848 52.6731 -62.5614 59.3167 -62.2539C64.0626 -62.0343 67.4143 -55.8042 62.8191 -51.9945C60.7061 -50.2431 58.2837 -52.4496 59.7215 -54.6854C60.4695 -55.848 59.5068 -57.3072 58.2824 -57.3047C56.527 -57.3042 55.2017 -54.9128 54.6614 -53.5714C53.4815 -50.6459 53.8477 -47.4337 55.2227 -45.0153C58.0619 -40.0244 67.4146 -40.3252 68.9133 -47.656C69.0674 -48.4086 69.5812 -48.8663 70.1415 -49.04C71.0348 -63.611 74.6028 -79.9651 84.3328 -91.9456C84.45 -92.789 84.8295 -93.658 85.3617 -94.4895C82.6633 -94.4282 79.7936 -93.7467 76.7265 -92.1975C60.6526 -84.0784 48.7863 -62.7206 42.8031 -47.0402ZM88.8801 -94.2237C88.6131 -93.8538 88.3749 -93.466 88.181 -93.0446C88.1097 -92.8892 88.0571 -92.7367 87.9995 -92.5856C88.6107 -92.1184 88.8896 -91.325 88.366 -90.2871C87.1761 -87.9221 86.0309 -85.6204 84.9336 -83.3356C88.0293 -80.5961 91.7253 -78.6846 95.992 -77.7209C99.93 -76.8305 103.622 -77.3337 107.522 -77.7801C102.94 -85.5137 96.7768 -92.6882 88.8801 -94.2237ZM83.4954 -80.2547C81.878 -76.7233 80.4253 -73.2072 79.2215 -69.5752C84.4106 -67.5452 88.9782 -64.6723 94.5431 -63.2955C100.708 -61.7679 106.92 -61.7452 113.454 -62.0362C114.672 -62.0917 114.632 -60.2433 113.445 -59.9445C101.787 -57.0302 86.5975 -58.5076 78.1224 -65.9358C77.4691 -63.5775 76.9172 -61.1646 76.5131 -58.6471C76.3521 -57.6352 76.2213 -56.6254 76.0921 -55.6141C76.2611 -55.571 76.4349 -55.5267 76.5942 -55.4178C90.1715 -46.2157 102.654 -42.8792 120.177 -45.1597C118.695 -51.6974 116.732 -58.0638 114.191 -64.1599C112.985 -67.0498 111.483 -70.4512 109.675 -73.9109C100.27 -69.9387 89.7205 -73.8712 83.4954 -80.2547ZM120.651 -43.0742C105.031 -37.6131 86.5304 -40.6638 75.5672 -50.7096C75.1435 -45.3765 75.1613 -40.0768 75.4621 -34.8323C76.0405 -35.5852 77.1213 -36.0551 78.0249 -35.6121C92.656 -28.4144 105.075 -23.6805 122.782 -29.109C122.305 -33.8315 121.607 -38.498 120.651 -43.0742ZM123.051 -26.1888C107.121 -20.6203 86.1216 -20.895 75.5822 -32.6146C75.7208 -30.7489 75.8915 -28.8872 76.0998 -27.0382C76.4672 -23.7743 76.951 -20.5488 77.4774 -17.3347C77.4541 -18.8045 79.1847 -20.4416 80.759 -19.5222C87.4616 -15.608 94.4297 -12.72 102.435 -11.5547C109.443 -10.5369 116.354 -11.5028 123.484 -11.6978C123.56 -16.5651 123.433 -21.4061 123.051 -26.1888ZM123.412 -9.34449C108.094 -3.61771 89.9218 -8.12494 78.2374 -15.9595C77.7878 -16.258 77.5879 -16.6629 77.5182 -17.0888C78.5617 -10.7635 79.8458 -4.51054 81.1333 1.74217C81.4158 1.66849 81.7119 1.63722 82.0257 1.70994C88.6434 3.26522 94.4957 5.62025 101.581 5.94454C108.561 6.2613 115.445 5.16526 122.464 3.29305C122.491 3.28441 122.511 3.29308 122.539 3.28599C122.984 -0.932892 123.284 -5.1482 123.412 -9.34449ZM122.23 6.02718C109.683 10.7838 93.1167 12.1641 82.0638 6.28517C82.9627 10.6885 83.8304 15.101 84.5986 19.5445C84.7023 19.5468 84.8037 19.5359 84.9091 19.5582C90.1621 20.689 94.4374 23.7949 99.8909 24.7469C106.218 25.8514 112.582 25.2353 119.149 23.8513C120.473 17.9393 121.509 11.9845 122.23 6.02718ZM118.45 26.8441C108.418 30.275 93.2721 30.9137 85.4088 24.6723C85.8852 27.8429 86.3181 31.029 86.6248 34.2508C86.7666 35.7361 86.8592 37.2456 86.954 38.753C91.4884 39.4491 95.7419 41.1429 100.453 41.4911C105.099 41.8352 109.744 41.4389 114.457 40.8679C115.808 36.7153 117.056 32.5123 118.128 28.2234C118.243 27.7659 118.339 27.3047 118.45 26.8441ZM113.615 43.4715C105.358 45.5755 94.559 46.3001 87.1623 43.3699C87.3032 47.9919 87.2012 52.7008 86.9071 57.4492C89.8505 58.2493 92.8132 58.865 96.0906 58.8762C100.12 58.8899 104.241 57.6171 108.219 57.5328C110.172 52.918 111.988 48.2401 113.615 43.4715ZM107.048 60.2467C101.16 63.3763 92.9994 63.3576 86.5875 61.7804C86.2062 66.0456 85.634 70.3365 84.8957 74.6282C87.2576 74.7288 89.5744 75.4013 91.8183 75.835C93.2994 76.1212 94.7759 76.4215 96.2537 76.7173C96.4224 76.7512 98.2043 76.7085 99.0843 76.6764C99.1921 76.4751 99.3008 76.2729 99.407 76.0701C99.3997 75.6411 99.6325 75.2399 99.9744 74.9946C102.49 70.1502 104.86 65.2404 107.048 60.2467ZM97.2977 80.0309C95.015 80.2626 92.6037 79.5661 90.4693 79.2505C88.3983 78.9432 86.2266 78.7896 84.2272 78.2579C83.4521 82.2218 82.5169 86.1805 81.4372 90.1154C81.7869 90.2894 82.1388 90.4644 82.5194 90.5949C84.1647 91.1565 86.9096 91.8872 89.0419 91.4225C89.373 90.5896 90.4235 90.2995 91 90.9138C91.0118 90.927 91.014 90.9403 91.0257 90.9535C93.1826 87.341 95.2927 83.7098 97.2977 80.0309ZM89.2354 93.9532C86.7125 94.8708 83.2555 94.8585 80.3186 93.9864C76.0577 108.075 69.7919 121.751 61.384 134.058C61.0459 134.864 60.678 135.668 60.278 136.467C70.4915 122.46 80.4016 108.432 89.2354 93.9532ZM30.086 12.8318C27.0626 -20.5426 35.5377 -58.9291 61.9219 -86.13C72.9655 -97.5165 86.3731 -103.876 98.828 -95.3972C110.719 -87.2985 117.493 -71.7017 121.896 -58.0846C143.831 9.76776 107.32 94.9077 52.9942 149.62C52.0964 150.524 50.8312 149.352 51.5528 148.368C52.1349 147.577 52.715 146.788 53.2941 145.997C51.295 146.7 49.1182 144.799 50.8079 142.689C69.5831 119.223 52.9715 92.9372 45.0705 72.183C37.8997 53.3482 31.9705 33.6426 30.086 12.8318Z" fill="#FFEEBF"/>
</g>
</svg>
