<svg width="477" height="349" viewBox="0 0 477 349" fill="none" xmlns="http://www.w3.org/2000/svg">
<g filter="url(#filter0_d_1324_3225)">
<path d="M296.584 253.253C293.345 252.79 290.25 251.63 287.523 249.854C283.463 247.027 280.331 243.1 278.511 238.553C276.691 234.007 276.261 229.039 277.274 224.256C278.056 220.906 279.373 217.697 281.175 214.749C283.97 209.708 288.052 205.465 293.022 202.438C296.797 200.358 300.972 199.072 305.281 198.663C309.59 198.254 313.939 198.73 318.05 200.061C325.95 202.723 332.871 207.619 337.941 214.132C344.119 221.737 346.59 229.913 344.943 237.115C344.844 237.625 344.642 238.111 344.348 238.543C344.055 238.975 343.675 239.344 343.233 239.63C342.791 239.915 342.295 240.111 341.774 240.204C341.253 240.298 340.719 240.287 340.202 240.174C339.686 240.061 339.197 239.847 338.767 239.545C338.336 239.243 337.972 238.86 337.695 238.417C337.419 237.974 337.236 237.481 337.157 236.968C337.079 236.454 337.106 235.93 337.238 235.427C338.765 228.844 334.452 222.26 331.763 218.933C327.661 213.629 322.057 209.628 315.651 207.429C312.609 206.406 309.383 206.018 306.179 206.288C302.975 206.558 299.864 207.481 297.044 208.998C293.235 211.336 290.119 214.614 288.007 218.505C286.609 220.769 285.594 223.242 285.003 225.825C284.314 229.091 284.599 232.482 285.823 235.593C287.048 238.703 289.16 241.402 291.908 243.366C294.666 245.118 297.933 245.937 301.21 245.697C304.486 245.456 307.593 244.17 310.055 242.035C311.514 240.627 312.586 238.879 313.171 236.955C313.756 235.031 313.834 232.992 313.398 231.03C312.904 229.212 311.863 227.582 310.411 226.352C308.959 225.123 307.163 224.351 305.257 224.138C303.477 224.062 301.725 224.59 300.295 225.634C298.866 226.677 297.846 228.171 297.408 229.866C297.286 230.704 297.34 231.557 297.565 232.374C297.789 233.191 298.181 233.955 298.716 234.619C299.15 235.25 299.712 235.786 300.367 236.195C301.021 236.603 301.754 236.876 302.52 236.996C303.055 237.021 303.579 237.152 304.06 237.382C304.542 237.612 304.971 237.936 305.321 238.333C305.671 238.731 305.935 239.194 306.097 239.695C306.259 240.196 306.315 240.724 306.262 241.246C306.21 241.769 306.049 242.276 305.791 242.736C305.532 243.196 305.181 243.6 304.758 243.923C304.336 244.246 303.85 244.481 303.332 244.614C302.814 244.747 302.274 244.775 301.744 244.697C299.9 244.485 298.12 243.903 296.516 242.987C294.911 242.071 293.515 240.841 292.417 239.373C291.219 237.855 290.353 236.111 289.874 234.251C289.395 232.39 289.312 230.452 289.63 228.558C290.418 225.002 292.468 221.836 295.415 219.624C298.361 217.413 302.013 216.3 305.718 216.484C309.281 216.806 312.658 218.189 315.396 220.45C318.133 222.711 320.099 225.739 321.03 229.129C321.835 232.414 321.756 235.848 320.8 239.094C319.845 242.34 318.045 245.286 315.578 247.644C313.056 249.934 310.033 251.63 306.742 252.602C303.45 253.574 299.976 253.796 296.584 253.253Z" fill="#FFEEBF"/>
<path d="M319.09 378.01L292.294 374.064C291.224 373.891 290.266 373.31 289.629 372.448C289.324 372.012 289.112 371.52 289.008 371C288.904 370.481 288.909 369.947 289.024 369.43C289.024 369.43 291.204 359.115 292.367 347.445C293.085 340.523 295.762 333.937 300.096 328.43C296.844 322.391 296.056 315.364 297.891 308.775C300.047 301.953 305.596 296.249 314.39 291.828C320.95 288.329 326.87 283.783 331.907 278.376C332.247 277.992 332.662 277.678 333.126 277.451C333.59 277.224 334.095 277.089 334.613 277.053C335.13 277.018 335.65 277.083 336.142 277.245C336.633 277.406 337.088 277.662 337.479 277.996C337.871 278.329 338.191 278.736 338.422 279.191C338.654 279.647 338.791 280.142 338.827 280.65C338.863 281.158 338.797 281.667 338.632 282.15C338.468 282.632 338.207 283.078 337.867 283.462C332.162 289.607 325.436 294.758 317.976 298.697C311.168 302.143 306.928 306.303 305.402 311.08C303.875 315.857 304.917 321.062 308.285 327.195C308.684 327.94 308.826 328.791 308.691 329.623C308.556 330.454 308.15 331.219 307.534 331.805C303.383 336.405 300.837 342.183 300.265 348.3C299.49 356.001 298.327 362.941 297.576 367.1L320.302 370.452C321.293 370.649 322.17 371.212 322.751 372.025C323.332 372.838 323.572 373.838 323.423 374.82C323.274 375.801 322.746 376.69 321.949 377.301C321.152 377.912 320.146 378.2 319.139 378.105L319.09 378.01Z" fill="#FFEEBF"/>
<path d="M315.36 404.321L272.428 398.022C271.397 397.859 270.473 397.303 269.856 396.475C269.239 395.648 268.979 394.615 269.133 393.602L275.578 351.462C275.578 349.085 276.159 336.108 284.13 329.072C281.828 320.801 276.595 296.059 292.876 286.576C317.104 272.434 331.302 258.055 336.172 242.558C336.493 241.578 337.198 240.763 338.132 240.293C339.065 239.823 340.151 239.736 341.15 240.051C342.15 240.366 342.98 241.057 343.46 241.973C343.939 242.889 344.028 243.955 343.706 244.935C338.255 262.333 322.943 278.21 296.898 293.326C285.438 299.981 289.775 321.609 292.416 329.381C292.698 330.206 292.689 331.1 292.39 331.919C292.091 332.739 291.52 333.435 290.769 333.897C284.736 337.581 283.5 348.158 283.5 351.842C283.524 352.039 283.524 352.239 283.5 352.436L277.613 391.035L316.644 396.763C317.173 396.819 317.686 396.98 318.15 397.236C318.615 397.492 319.022 397.838 319.346 398.252C319.671 398.666 319.907 399.141 320.04 399.647C320.173 400.153 320.2 400.68 320.12 401.197C320.04 401.713 319.854 402.209 319.574 402.653C319.293 403.098 318.924 403.482 318.488 403.782C318.053 404.083 317.56 404.294 317.039 404.403C316.518 404.512 315.98 404.516 315.457 404.416L315.36 404.321Z" fill="#FFEEBF"/>
<path d="M244.492 297.817C235.026 296.477 225.775 293.945 216.97 290.283C216.024 289.849 215.29 289.067 214.927 288.106C214.564 287.145 214.602 286.083 215.031 285.149C215.245 284.685 215.551 284.268 215.931 283.921C216.311 283.574 216.757 283.304 217.243 283.127C217.73 282.95 218.248 282.87 218.766 282.891C219.285 282.911 219.794 283.033 220.265 283.248C220.725 283.462 267.557 303.949 306.128 277.995C306.993 277.444 308.043 277.246 309.054 277.444C310.066 277.643 310.958 278.221 311.54 279.056C312.122 279.891 312.348 280.916 312.17 281.913C311.992 282.909 311.423 283.798 310.586 284.389C287.739 299.766 262.857 300.527 244.492 297.817Z" fill="#FFEEBF"/>
<path d="M348.187 191.696C347.169 191.548 346.251 191.015 345.63 190.21C345.01 189.406 344.736 188.394 344.867 187.394C347.605 165.86 337.236 153.858 329.41 148.011C329.604 149.645 329.604 151.296 329.41 152.931C329.41 153.382 329.265 153.81 329.168 154.262C327.954 158.832 325.481 162.987 322.019 166.27C318.557 169.553 314.241 171.837 309.543 172.872C305.353 174.133 300.883 174.201 296.655 173.069C292.426 171.938 288.611 169.652 285.654 166.478C281.886 161.98 279.236 156.684 277.911 151.008C276.587 145.332 276.625 139.433 278.023 133.774C278.887 130.059 280.517 126.557 282.813 123.483C285.109 120.409 288.022 117.829 291.372 115.901C295.973 113.443 301.024 111.903 306.234 111.368C311.444 110.834 316.71 111.316 321.73 112.787C330.567 115.227 338.607 119.876 345.063 126.28C351.518 132.683 356.168 140.622 358.556 149.318C358.756 150.289 358.569 151.298 358.034 152.137C357.499 152.977 356.657 153.584 355.68 153.834C354.703 154.083 353.666 153.956 352.781 153.479C351.897 153.001 351.232 152.21 350.924 151.267C348.806 143.904 344.798 137.198 339.284 131.788C333.77 126.379 326.933 122.447 319.428 120.369C311.346 118.02 302.648 118.873 295.2 122.746C292.759 124.152 290.639 126.037 288.972 128.281C287.304 130.526 286.126 133.083 285.509 135.794C284.398 140.254 284.356 144.906 285.386 149.384C286.416 153.863 288.49 158.046 291.445 161.606C293.459 163.67 296.024 165.136 298.847 165.838C301.671 166.54 304.638 166.449 307.411 165.575C310.675 164.877 313.685 163.327 316.125 161.089C318.564 158.851 320.342 156.007 321.269 152.859C321.333 152.577 321.382 152.291 321.415 152.004C321.766 148.425 320.997 144.827 319.21 141.689C318.865 140.988 318.741 140.202 318.856 139.432C318.97 138.662 319.316 137.943 319.85 137.368C320.385 136.792 321.082 136.387 321.853 136.204C322.624 136.021 323.433 136.069 324.177 136.341C330.31 138.975 335.821 142.827 340.361 147.654C347.387 155.07 355.213 168.166 352.62 188.558C352.487 189.576 351.948 190.5 351.122 191.128C350.295 191.756 349.248 192.037 348.211 191.91L348.187 191.696Z" fill="#FFEEBF"/>
<path d="M206.332 255.63H205.944C205.437 255.505 204.959 255.283 204.54 254.975C204.12 254.668 203.767 254.282 203.501 253.84C203.235 253.397 203.061 252.908 202.99 252.399C202.919 251.89 202.951 251.372 203.086 250.876C210.548 222.355 230.681 204.387 261.233 198.825C275.706 196.336 290.517 196.408 304.964 199.039C305.496 199.119 306.006 199.306 306.463 199.587C306.919 199.868 307.312 200.238 307.617 200.674C307.922 201.109 308.133 201.601 308.237 202.12C308.341 202.639 308.336 203.173 308.221 203.689C308.107 204.206 307.886 204.694 307.573 205.124C307.259 205.553 306.859 205.916 306.397 206.188C305.935 206.46 305.422 206.637 304.888 206.707C304.354 206.778 303.811 206.74 303.292 206.597C289.797 204.209 275.978 204.169 262.468 206.478C234.994 211.446 217.453 227.108 210.766 252.682C210.539 253.63 209.958 254.46 209.136 255.006C208.315 255.552 207.313 255.775 206.332 255.63Z" fill="#FFEEBF"/>
<path d="M248.178 280.8C247.359 280.667 246.55 280.484 245.755 280.254C237.396 277.877 233.059 270.295 231.218 265.993C227.699 257.448 226.93 248.051 229.013 239.064C231.031 230.364 234.877 222.172 240.304 215.012C244.81 208.856 251.86 200.49 261.14 198.921C262.149 198.796 263.168 199.058 263.985 199.653C264.802 200.247 265.354 201.127 265.525 202.11C265.697 203.094 265.475 204.104 264.907 204.931C264.338 205.758 263.466 206.338 262.472 206.55C257.627 207.358 252.514 211.613 246.724 219.527C241.928 225.821 238.52 233.025 236.718 240.681C234.99 248.108 235.606 255.876 238.487 262.951C239.283 265.18 240.562 267.213 242.234 268.911C243.907 270.61 245.935 271.933 248.178 272.791C249.79 273.222 251.478 273.305 253.126 273.034C254.774 272.763 256.343 272.145 257.723 271.222C259.368 270.196 260.699 268.753 261.578 267.047C262.456 265.34 262.849 263.432 262.714 261.525C262.484 259.842 261.682 258.283 260.438 257.102C259.194 255.92 257.58 255.184 255.858 255.013C255.038 255.05 254.235 255.256 253.5 255.616C252.766 255.976 252.117 256.483 251.594 257.104C251.136 257.588 250.79 258.164 250.581 258.792C250.372 259.42 250.304 260.085 250.382 260.741C250.528 261.737 250.272 262.751 249.669 263.566C249.066 264.381 248.163 264.933 247.152 265.106C246.141 265.279 245.1 265.059 244.252 264.493C243.403 263.926 242.812 263.058 242.605 262.072C242.327 260.293 242.453 258.477 242.972 256.751C243.491 255.026 244.392 253.434 245.61 252.089C246.881 250.61 248.464 249.419 250.25 248.599C252.036 247.778 253.983 247.347 255.955 247.336C259.57 247.547 262.998 248.987 265.651 251.406C268.303 253.826 270.014 257.076 270.492 260.598C270.809 263.939 270.19 267.302 268.699 270.323C267.209 273.343 264.905 275.906 262.036 277.734C257.96 280.397 253.024 281.489 248.178 280.8Z" fill="#FFEEBF"/>
<path d="M253.022 298.174C252.121 298.043 251.294 297.61 250.681 296.95C250.068 296.289 249.707 295.441 249.658 294.549C249.61 293.656 249.877 292.775 250.415 292.054C250.953 291.333 251.728 290.817 252.61 290.593C258.788 289.048 265.693 287.004 269.836 282.393C272.081 279.732 273.732 276.639 274.681 273.313C275.71 270.47 276.282 267.487 276.377 264.472C276.43 259.746 274.757 255.159 271.66 251.539C268.562 247.92 264.246 245.508 259.493 244.741C254.74 243.974 249.863 244.902 245.747 247.357C241.632 249.813 238.548 253.633 237.055 258.126C236.932 258.649 236.7 259.142 236.373 259.572C236.046 260.003 235.631 260.362 235.154 260.627C234.678 260.891 234.151 261.056 233.607 261.111C233.062 261.165 232.512 261.108 231.991 260.942C231.47 260.777 230.99 260.507 230.581 260.15C230.172 259.793 229.844 259.357 229.616 258.868C229.388 258.38 229.266 257.85 229.258 257.314C229.25 256.777 229.356 256.244 229.569 255.749C231.63 249.48 235.917 244.146 241.649 240.716C247.381 237.285 254.178 235.988 260.803 237.058C267.429 238.129 273.442 241.497 277.75 246.55C282.057 251.603 284.373 258.004 284.275 264.591C284.159 268.388 283.456 272.147 282.192 275.738C280.932 280.095 278.753 284.144 275.796 287.622C270.175 293.872 261.937 296.344 254.621 298.198C254.091 298.291 253.548 298.283 253.022 298.174Z" fill="#FFEEBF"/>
<path d="M271.678 204.006C267.894 203.471 264.281 202.107 261.107 200.018C257.932 197.928 255.277 195.165 253.337 191.933C251.281 188.341 250.236 184.278 250.308 180.16C250.381 176.042 251.568 172.017 253.749 168.498C255.214 166.143 257.309 164.228 259.806 162.96C262.706 161.771 265.863 161.314 268.989 161.629C271.235 161.65 273.468 161.97 275.627 162.579C278.652 163.519 281.31 165.347 283.242 167.816C285.175 170.284 286.289 173.275 286.434 176.384C286.579 179.493 285.749 182.571 284.055 185.203C282.36 187.835 279.884 189.893 276.96 191.101C274.847 192.053 272.487 192.343 270.2 191.933C264.894 190.887 262.229 185.967 260.775 183.329C260.284 182.421 260.18 181.359 260.487 180.376C260.793 179.393 261.485 178.57 262.411 178.088C263.336 177.606 264.419 177.504 265.421 177.805C266.422 178.105 267.261 178.784 267.753 179.692C268.504 181.094 270.176 184.018 271.775 184.446C272.49 184.528 273.214 184.404 273.858 184.089C275.284 183.488 276.49 182.475 277.314 181.185C278.137 179.894 278.541 178.388 278.47 176.868C278.399 175.347 277.856 173.883 276.916 172.672C275.975 171.461 274.68 170.561 273.204 170.09C271.726 169.705 270.203 169.505 268.674 169.496C266.834 169.287 264.97 169.49 263.222 170.09C262.044 170.734 261.064 171.678 260.388 172.823C258.959 175.14 258.187 177.79 258.153 180.498C258.119 183.206 258.824 185.874 260.194 188.225C261.657 190.605 263.678 192.61 266.087 194.073C268.497 195.536 271.227 196.416 274.052 196.638C275.096 196.72 276.065 197.206 276.744 197.988C277.423 198.77 277.758 199.785 277.674 200.81C277.591 201.834 277.096 202.784 276.298 203.45C275.501 204.117 274.466 204.445 273.422 204.363C272.841 204.22 272.259 204.102 271.678 204.006Z" fill="#FFEEBF"/>
<path d="M327.596 122.792C327.26 122.745 326.934 122.649 326.627 122.507C323.607 121.229 320.884 119.361 318.624 117.018C316.364 114.674 314.614 111.903 313.48 108.875C312.347 105.846 311.854 102.623 312.031 99.401C312.209 96.1794 313.053 93.0269 314.513 90.1357C316.19 86.6697 318.936 83.8092 322.363 81.9596C325.607 80.4749 329.153 79.7352 332.732 79.7968C335.87 79.6087 339.013 80.0619 341.963 81.1278C344.619 82.2099 346.903 84.015 348.547 86.3297C350.191 88.6444 351.125 91.3722 351.24 94.191C351.355 97.0099 350.645 99.802 349.194 102.238C347.743 104.674 345.613 106.651 343.053 107.938C341.643 108.695 340.086 109.154 338.484 109.285C336.881 109.416 335.269 109.216 333.75 108.698C331.913 108.043 330.355 106.801 329.327 105.171C328.298 103.541 327.859 101.619 328.08 99.7141C327.591 99.0178 327.352 98.1815 327.402 97.3373C327.476 96.3132 327.962 95.36 328.753 94.687C329.543 94.0141 330.574 93.6766 331.618 93.7484C332.271 93.7915 332.908 93.968 333.488 94.2668C334.068 94.5656 334.578 94.98 334.985 95.4834C335.525 96.283 335.884 97.1866 336.039 98.1335C336.194 99.0804 336.14 100.049 335.882 100.974C336.024 101.24 336.255 101.449 336.536 101.568C337.029 101.693 337.542 101.719 338.046 101.646C338.549 101.572 339.033 101.4 339.467 101.14C340.654 100.502 341.636 99.5508 342.301 98.3947C342.967 97.2386 343.29 95.9231 343.235 94.5964C343.179 93.2698 342.747 91.9846 341.988 90.8858C341.228 89.7869 340.17 88.918 338.934 88.3769C336.995 87.7357 334.943 87.4851 332.902 87.6401C330.534 87.563 328.178 87.9929 325.997 88.8998C324.061 90.0056 322.514 91.6637 321.563 93.6534C320.58 95.5968 320.012 97.7164 319.893 99.8826C319.775 102.049 320.107 104.216 320.872 106.252C321.636 108.288 322.816 110.149 324.338 111.722C325.861 113.295 327.695 114.547 329.728 115.401C330.608 115.773 331.32 116.445 331.732 117.294C332.143 118.143 332.227 119.109 331.966 120.014C331.705 120.918 331.118 121.699 330.314 122.21C329.51 122.721 328.544 122.928 327.596 122.792Z" fill="#FFEEBF"/>
<path d="M343.657 89.4947C342.713 89.3543 341.852 88.8828 341.235 88.1674C340.617 87.4521 340.285 86.5415 340.3 85.6043C340.315 84.6672 340.675 83.7672 341.315 83.0709C341.955 82.3747 342.83 81.9294 343.778 81.8178C344.906 81.6948 345.997 81.3465 346.982 80.7942C347.968 80.242 348.828 79.4975 349.509 78.6067C350.19 77.7159 350.678 76.6977 350.942 75.6149C351.207 74.532 351.242 73.4075 351.047 72.3107C350.847 71.4181 350.572 70.5435 350.223 69.6962C349.469 67.2171 347.836 65.0842 345.62 63.683C344.538 63.219 343.382 62.9455 342.203 62.8749C341.446 62.7265 340.663 62.7674 339.926 62.9938C339.743 63.1168 339.591 63.2793 339.482 63.4688C339.373 63.6583 339.309 63.8698 339.296 64.0871C339.247 64.9213 339.458 65.7504 339.902 66.4639C340.204 66.9071 340.409 67.4066 340.505 67.9312C340.601 68.4558 340.586 68.9943 340.46 69.5129C340.334 70.0314 340.101 70.5189 339.774 70.9448C339.447 71.3708 339.035 71.726 338.562 71.9884C338.089 72.2507 337.566 72.4144 337.025 72.4694C336.485 72.5243 335.938 72.4693 335.421 72.3077C334.903 72.1461 334.425 71.8814 334.016 71.5302C333.607 71.179 333.277 70.7489 333.045 70.2667C331.759 68.1155 331.207 65.6171 331.471 63.1364C331.642 61.6771 332.172 60.2807 333.017 59.0675C333.861 57.8542 334.993 56.8606 336.316 56.1724C338.414 55.2024 340.76 54.8713 343.051 55.2217C345.167 55.3735 347.237 55.9052 349.157 56.7904C353.164 59.0071 356.173 62.6216 357.588 66.9155C358.134 68.2133 358.555 69.558 358.848 70.9322C359.248 73.0681 359.198 75.2616 358.703 77.3782C358.208 79.4948 357.278 81.49 355.969 83.2414C354.66 84.9927 353 86.4634 351.092 87.5632C349.183 88.663 347.065 89.3688 344.869 89.6373C344.46 89.6367 344.054 89.5889 343.657 89.4947Z" fill="#FFEEBF"/>
<path d="M313.713 205.551C312.924 205.443 312.187 205.1 311.603 204.569C311.018 204.038 310.613 203.344 310.442 202.58C309.263 197.298 309.658 191.795 311.581 186.727C312.034 185.428 312.697 184.208 313.544 183.115C315.098 181.269 317.183 179.927 319.528 179.264C322.854 178.107 326.483 178.095 329.817 179.231C333.15 180.368 335.99 182.584 337.868 185.515C339.132 187.728 339.668 190.269 339.403 192.792C339.139 195.314 338.087 197.695 336.391 199.609C334.504 201.596 331.926 202.815 329.167 203.027C326.408 203.238 323.668 202.425 321.49 200.75C321.07 200.43 320.72 200.03 320.461 199.574C320.202 199.118 320.04 198.615 319.984 198.096C319.929 197.577 319.98 197.052 320.136 196.553C320.293 196.054 320.55 195.591 320.893 195.192C321.236 194.793 321.658 194.466 322.133 194.231C322.608 193.996 323.126 193.857 323.657 193.824C324.188 193.79 324.721 193.862 325.223 194.035C325.725 194.209 326.186 194.48 326.578 194.832C327.201 195.221 327.943 195.385 328.676 195.299C329.409 195.212 330.089 194.879 330.6 194.357C331.166 193.644 331.504 192.783 331.573 191.883C331.642 190.982 331.438 190.082 330.988 189.294C329.976 187.961 328.549 186.987 326.923 186.519C325.297 186.052 323.56 186.117 321.975 186.704C321.118 186.934 320.34 187.385 319.722 188.011C319.4 188.481 319.147 188.993 318.971 189.532C317.575 193.193 317.289 197.171 318.147 200.988C318.261 201.483 318.275 201.995 318.187 202.495C318.099 202.995 317.911 203.473 317.634 203.901C317.357 204.33 316.997 204.7 316.573 204.991C316.15 205.283 315.672 205.489 315.167 205.599C314.684 205.677 314.19 205.661 313.713 205.551Z" fill="#FFEEBF"/>
<path d="M254.768 336.059C251.594 335.618 248.616 334.29 246.191 332.233C243.42 329.705 241.437 326.458 240.473 322.868C239.708 320.675 239.428 318.347 239.654 316.039C239.88 313.731 240.605 311.498 241.782 309.487C243.32 307.127 245.621 305.343 248.316 304.419C251.011 303.496 253.944 303.486 256.646 304.393C259.347 305.3 261.659 307.071 263.212 309.421C264.765 311.771 265.469 314.565 265.21 317.354C265.162 317.861 265.013 318.354 264.771 318.805C264.529 319.256 264.199 319.655 263.8 319.981C263.401 320.306 262.94 320.552 262.444 320.702C261.948 320.853 261.427 320.907 260.91 320.86C260.393 320.813 259.89 320.667 259.431 320.43C258.971 320.192 258.564 319.868 258.232 319.477C257.9 319.085 257.65 318.633 257.497 318.146C257.343 317.66 257.288 317.148 257.336 316.641C257.439 315.578 257.173 314.512 256.583 313.615C255.993 312.717 255.112 312.041 254.082 311.695C253.052 311.349 251.933 311.354 250.906 311.708C249.879 312.062 249.003 312.745 248.42 313.647C247.862 314.746 247.541 315.947 247.479 317.174C247.416 318.401 247.613 319.628 248.057 320.777C248.626 322.945 249.791 324.917 251.424 326.481C252.957 327.67 254.811 328.392 256.758 328.556C258.705 328.721 260.658 328.322 262.375 327.408C264.221 326.349 265.795 324.89 266.979 323.144C268.163 321.398 268.925 319.409 269.208 317.33C269.758 312.779 268.789 308.176 266.446 304.211C265.652 302.367 264.183 300.883 262.327 300.051C261.328 299.769 260.482 299.112 259.974 298.222C259.466 297.332 259.337 296.281 259.613 295.298C259.75 294.809 259.985 294.352 260.303 293.953C260.622 293.554 261.018 293.221 261.469 292.973C261.92 292.725 262.416 292.568 262.929 292.51C263.443 292.452 263.963 292.495 264.459 292.636C266.401 293.294 268.187 294.331 269.71 295.682C271.234 297.034 272.464 298.674 273.326 300.503C276.521 305.954 277.806 312.283 276.985 318.519C276.523 321.793 275.293 324.918 273.393 327.648C271.493 330.378 268.974 332.639 266.034 334.253C262.568 336.011 258.623 336.643 254.768 336.059Z" fill="#FFEEBF"/>
<path d="M249.267 381.004C248.368 380.866 247.545 380.428 246.938 379.764C246.33 379.099 245.975 378.25 245.933 377.359C245.89 376.467 246.162 375.589 246.703 374.871C247.245 374.154 248.022 373.642 248.903 373.422C251.507 372.815 253.96 371.701 256.116 370.145C258.272 368.589 260.087 366.624 261.453 364.367C262.549 362.448 262.994 360.237 262.724 358.053C262.454 355.87 261.483 353.827 259.951 352.221C256.365 347.991 250.066 345.448 246.19 346.66C245.414 346.897 243.088 347.61 242.749 352.055C242.719 353.334 242.972 354.604 243.491 355.777C244.009 356.951 244.781 358 245.753 358.853C246.348 359.43 247.071 359.866 247.865 360.126C248.659 360.385 249.503 360.462 250.333 360.35C251.019 360.254 251.668 359.984 252.216 359.567C252.764 359.151 253.192 358.601 253.458 357.973C253.55 357.45 253.751 356.951 254.048 356.507C254.345 356.063 254.731 355.684 255.184 355.393C255.637 355.102 256.145 354.905 256.679 354.815C257.212 354.724 257.759 354.743 258.284 354.868C258.81 354.994 259.304 355.224 259.735 355.545C260.167 355.866 260.526 356.27 260.792 356.733C261.057 357.196 261.222 357.707 261.278 358.235C261.333 358.763 261.278 359.297 261.114 359.803C260.511 361.88 259.322 363.746 257.685 365.189C256.047 366.631 254.028 367.59 251.859 367.956C249.834 368.321 247.749 368.212 245.774 367.638C243.8 367.064 241.991 366.041 240.496 364.652C238.619 363.001 237.14 360.961 236.168 358.679C235.195 356.397 234.754 353.931 234.875 351.461C234.893 348.776 235.76 346.163 237.357 343.983C238.954 341.803 241.203 340.164 243.791 339.292C250.769 337.129 260.314 340.575 266.008 347.302C268.57 350.074 270.181 353.564 270.616 357.282C271.05 361 270.286 364.757 268.431 368.027C266.546 371.245 264.012 374.051 260.984 376.274C257.955 378.498 254.495 380.091 250.817 380.957C250.308 381.07 249.782 381.086 249.267 381.004Z" fill="#FFEEBF"/>
<path d="M394.392 448.147L227.583 423.595C226.549 423.443 225.619 422.894 224.997 422.07C224.374 421.246 224.111 420.213 224.263 419.198L226.081 407.315C221.623 404.035 213.748 395.193 217.843 375.323C222.689 352.079 226.953 315.785 227.001 315.429V314.977C227.195 314.24 231.144 296.7 217.31 290.211C210.744 287.098 205.826 280.348 203.427 271.197C199.236 255.225 202.264 227.869 223.246 199.039C248.952 163.744 349.958 33.9961 371.666 6.14043L372.005 3.88247C372.13 3.03233 372.542 2.24771 373.174 1.65338C373.806 1.05905 374.623 0.689168 375.494 0.602561C376.136 0.531797 376.786 0.621742 377.384 0.864007C378.027 0.818348 378.673 0.91583 379.273 1.14921C380.09 1.47463 380.772 2.05851 381.211 2.80789C381.65 3.55727 381.82 4.42915 381.696 5.28483L381.357 7.66159C393.762 40.5323 451.497 193.62 465.525 234.761C476.96 268.369 471.654 295.393 462.884 309.487C457.844 317.544 451.109 322.583 443.913 323.748C428.795 326.005 427.342 343.926 427.269 344.687C427.281 344.829 427.281 344.972 427.269 345.115C427.269 345.471 420.485 381.432 418.111 405.009C416.076 425.188 405.997 431.367 400.667 433.221L398.874 445.105C398.668 446.08 398.088 446.94 397.253 447.506C396.419 448.073 395.394 448.302 394.392 448.147ZM232.574 416.56L391.581 439.971L393.18 429.49C393.309 428.641 393.722 427.859 394.354 427.265C394.985 426.672 395.799 426.3 396.669 426.21C397.081 426.21 408.153 424.404 410.188 404.153C412.611 381.146 418.862 346.731 419.395 343.807C419.849 339.563 420.985 335.415 422.762 331.52C424.428 327.456 427.146 323.889 430.647 321.171C434.148 318.453 438.312 316.679 442.726 316.023C447.572 315.286 452.417 311.531 456.124 305.446C463.974 292.85 468.602 268.321 458.014 237.233C444.519 197.636 390.346 53.7946 375.397 14.2214C349.279 47.7576 254.451 169.662 229.715 203.626C210.332 230.293 207.377 255.083 211.108 269.367C212.925 276.307 216.365 281.251 220.799 283.343C224.837 285.23 228.303 288.121 230.853 291.727C233.402 295.333 234.948 299.529 235.336 303.902C235.863 308.145 235.708 312.444 234.875 316.641C234.512 319.564 230.296 354.313 225.62 376.963C221.526 396.928 231.58 401.777 232.016 401.991C232.807 402.324 233.461 402.909 233.874 403.649C234.286 404.39 234.434 405.246 234.294 406.079L232.574 416.56Z" fill="#FFEEBF"/>
<path d="M379.008 265.256C375.604 264.802 372.352 263.589 369.5 261.71C366.648 259.832 364.273 257.337 362.557 254.417C360.899 251.454 360.056 248.119 360.112 244.739C360.167 241.359 361.118 238.051 362.872 235.142C364.773 232.169 367.557 229.839 370.85 228.466C374.142 227.093 377.784 226.744 381.286 227.465C384.882 228.359 388.038 230.477 390.19 233.442C392.342 236.406 393.351 240.024 393.036 243.651C392.776 245.548 392.119 247.372 391.106 249.008C390.092 250.644 388.745 252.057 387.149 253.158C385.658 254.245 383.955 255.017 382.145 255.426C380.335 255.835 378.459 255.872 376.634 255.535C376.104 255.457 375.595 255.274 375.14 254.997C374.684 254.72 374.291 254.355 373.983 253.924C373.676 253.493 373.461 253.006 373.352 252.491C373.243 251.976 373.242 251.445 373.349 250.93C373.456 250.415 373.669 249.926 373.975 249.494C374.281 249.062 374.673 248.696 375.127 248.417C375.582 248.139 376.089 247.954 376.619 247.874C377.149 247.794 377.69 247.821 378.209 247.953C378.965 248.068 379.738 248.031 380.48 247.843C381.222 247.655 381.916 247.32 382.521 246.859C383.235 246.377 383.841 245.758 384.304 245.039C384.766 244.32 385.074 243.516 385.21 242.676C385.3 240.931 384.773 239.21 383.718 237.802C382.663 236.395 381.145 235.388 379.42 234.952C377.533 234.602 375.583 234.819 373.824 235.574C372.065 236.329 370.579 237.586 369.559 239.182C368.558 240.936 368.032 242.912 368.032 244.922C368.032 246.932 368.558 248.909 369.559 250.662C371.275 253.414 373.861 255.54 376.923 256.716C379.985 257.892 383.355 258.053 386.519 257.175C389.735 256.08 392.563 254.103 394.667 251.478C396.771 248.853 398.064 245.691 398.39 242.367C398.579 239.725 398.342 237.07 397.688 234.5C396.817 230.178 394.822 226.15 391.897 222.807C389.656 220.55 386.96 218.777 383.982 217.598C381.004 216.42 377.808 215.862 374.599 215.961C367.806 216.217 361.24 218.433 355.725 222.331C352.164 224.708 346.034 229.794 345.549 236.592C345.454 237.604 344.956 238.54 344.164 239.195C343.371 239.851 342.348 240.175 341.314 240.097C340.281 240.019 339.32 239.545 338.639 238.778C337.958 238.011 337.612 237.013 337.675 235.998C338.281 228.63 343.078 221.547 351.267 216.033C358.051 211.256 366.131 208.567 374.478 208.308C378.802 208.192 383.104 208.965 387.105 210.577C391.107 212.19 394.72 214.607 397.712 217.673C401.579 221.991 404.227 227.227 405.392 232.86C406.23 236.217 406.516 239.683 406.24 243.128C405.786 247.997 403.89 252.63 400.787 256.456C397.683 260.281 393.507 263.134 388.772 264.661C385.601 265.558 382.268 265.761 379.008 265.256Z" fill="#FFEEBF"/>
<path d="M346.953 382.097L320.157 378.152C319.623 378.102 319.106 377.945 318.636 377.693C318.166 377.44 317.754 377.096 317.424 376.682C317.094 376.267 316.853 375.792 316.716 375.283C316.58 374.775 316.55 374.244 316.629 373.725C316.708 373.205 316.894 372.706 317.176 372.259C317.458 371.811 317.829 371.425 318.268 371.123C318.707 370.822 319.204 370.611 319.729 370.503C320.253 370.396 320.795 370.394 321.32 370.499L344.046 373.85C344.554 369.643 345.524 362.679 347.098 355.097C348.415 349.079 347.691 342.803 345.039 337.224C344.623 336.488 344.464 335.639 344.587 334.807C344.709 333.974 345.106 333.204 345.717 332.613C350.757 327.693 353.301 322.797 353.276 318.02C353.252 313.243 350.442 307.824 344.942 302.571C338.956 296.665 334.04 289.8 330.405 282.273C329.981 281.328 329.957 280.256 330.339 279.293C330.721 278.33 331.477 277.556 332.44 277.139C333.404 276.723 334.497 276.7 335.479 277.074C336.46 277.449 337.25 278.19 337.674 279.136C340.885 285.745 345.182 291.792 350.393 297.033C357.468 303.783 361.078 310.842 361.102 317.996C360.87 324.822 358.013 331.309 353.107 336.155C355.613 342.695 356.193 349.795 354.779 356.642C352.356 368.146 351.411 378.532 351.411 378.627C351.363 379.152 351.204 379.662 350.946 380.124C350.687 380.586 350.334 380.991 349.909 381.313C349.497 381.635 349.022 381.871 348.514 382.006C348.005 382.141 347.474 382.172 346.953 382.097Z" fill="#FFEEBF"/>
<path d="M358.753 410.714L315.821 404.392C315.288 404.342 314.77 404.186 314.3 403.933C313.83 403.68 313.418 403.336 313.088 402.922C312.758 402.507 312.517 402.032 312.38 401.523C312.244 401.015 312.214 400.485 312.293 399.965C312.372 399.445 312.558 398.946 312.84 398.499C313.122 398.052 313.494 397.665 313.932 397.363C314.371 397.062 314.868 396.851 315.393 396.743C315.917 396.636 316.459 396.634 316.984 396.739L356.136 402.491L362.048 363.892C362.073 363.697 362.122 363.505 362.193 363.322C363.308 359.733 365.222 349.322 360.57 344.07C359.996 343.417 359.661 342.595 359.617 341.734C359.573 340.873 359.823 340.022 360.328 339.316C365.173 332.661 375.785 313.172 366.845 303.546C346.494 281.561 336.584 262.024 336.56 243.818C336.547 243.62 336.547 243.422 336.56 243.224L372.902 5.78491C372.953 5.26159 373.113 4.75395 373.37 4.29298C373.628 3.83201 373.979 3.42736 374.401 3.10358C374.823 2.77981 375.308 2.54374 375.826 2.40973C376.345 2.27572 376.885 2.24655 377.415 2.32407C377.945 2.40158 378.454 2.58414 378.91 2.8606C379.365 3.13705 379.759 3.50162 380.067 3.93213C380.374 4.36263 380.589 4.85007 380.699 5.36473C380.808 5.87939 380.81 6.41046 380.703 6.92571L344.361 244.079C344.483 260.218 353.713 277.972 372.587 298.341C385.307 312.102 372.902 334.254 368.226 341.479C373.75 350.511 370.358 363.155 369.704 365.247L363.259 407.387C363.191 407.898 363.02 408.39 362.755 408.835C362.49 409.28 362.138 409.669 361.718 409.979C361.299 410.289 360.82 410.514 360.311 410.64C359.802 410.766 359.272 410.791 358.753 410.714Z" fill="#FFEEBF"/>
<path d="M415.444 322.988C397.055 320.278 373.505 312.387 356.279 291.092C355.765 290.281 355.575 289.312 355.744 288.372C355.913 287.432 356.43 286.586 357.196 285.997C357.961 285.408 358.922 285.117 359.893 285.18C360.864 285.243 361.777 285.655 362.457 286.338C391.531 322.251 442.409 316.119 442.967 316.071C444.001 315.936 445.048 316.209 445.877 316.831C446.707 317.453 447.25 318.372 447.388 319.387C447.526 320.402 447.248 321.429 446.614 322.242C445.98 323.056 445.043 323.589 444.008 323.725C434.495 324.694 424.893 324.447 415.444 322.988Z" fill="#FFEEBF"/>
<path d="M348.04 191.671C347.53 191.582 347.042 191.395 346.605 191.121C346.168 190.847 345.79 190.492 345.493 190.075C345.196 189.657 344.985 189.187 344.874 188.69C344.762 188.193 344.751 187.68 344.842 187.179C348.452 166.953 359.863 156.685 368.779 151.527C374.564 148.211 380.994 146.122 387.653 145.395C388.442 145.336 389.23 145.513 389.914 145.904C390.598 146.294 391.144 146.88 391.481 147.582C391.825 148.286 391.945 149.076 391.824 149.848C391.703 150.62 391.347 151.338 390.802 151.908C388.153 154.401 386.336 157.625 385.593 161.153C385.593 161.438 385.593 161.724 385.472 162.033C384.939 167.927 388.743 174.416 394.945 178.147C397.328 179.786 400.136 180.73 403.043 180.869C405.95 181.008 408.838 180.336 411.372 178.931C415.266 176.39 418.504 172.995 420.829 169.014C423.155 165.033 424.504 160.576 424.77 155.996C424.999 153.222 424.639 150.432 423.713 147.801C422.787 145.171 421.316 142.757 419.391 140.713C413.397 134.876 405.305 131.582 396.859 131.539C389.057 131.377 381.342 133.185 374.457 136.79C367.571 140.394 361.745 145.673 357.538 152.122C356.987 152.993 356.107 153.616 355.089 153.852C354.072 154.088 353.001 153.919 352.11 153.381C351.668 153.116 351.283 152.767 350.979 152.356C350.675 151.944 350.456 151.477 350.337 150.982C350.218 150.487 350.199 149.973 350.283 149.471C350.367 148.969 350.552 148.489 350.826 148.057C355.73 140.416 362.579 134.159 370.698 129.904C378.816 125.649 387.925 123.542 397.126 123.79C402.364 123.83 407.543 124.883 412.366 126.889C417.189 128.896 421.56 131.817 425.23 135.484C427.849 138.299 429.857 141.606 431.131 145.206C432.406 148.806 432.92 152.622 432.644 156.423C432.298 162.238 430.574 167.894 427.609 172.94C424.644 177.986 420.519 182.284 415.563 185.491C411.791 187.678 407.462 188.767 403.083 188.633C398.703 188.498 394.452 187.145 390.827 184.731C386.642 182.399 383.196 178.979 380.866 174.848C378.536 170.717 377.414 166.036 377.622 161.32C377.622 160.844 377.622 160.416 377.792 159.965C378.064 158.333 378.527 156.738 379.173 155.211C369.942 158.539 356.423 167.095 352.522 188.486C352.35 189.487 351.783 190.382 350.945 190.977C350.107 191.573 349.064 191.822 348.04 191.671Z" fill="#FFEEBF"/>
<path d="M465.911 294.253C464.948 294.102 464.076 293.61 463.459 292.869C462.843 292.129 462.525 291.191 462.567 290.236C463.827 263.688 451.544 243.628 426.056 230.603C413.656 224.434 400.263 220.413 386.468 218.719C385.931 218.699 385.403 218.571 384.919 218.344C384.434 218.116 384.001 217.795 383.648 217.398C383.294 217.001 383.027 216.537 382.862 216.035C382.697 215.533 382.639 215.004 382.69 214.479C382.741 213.954 382.901 213.445 383.16 212.983C383.418 212.521 383.77 212.116 384.194 211.792C384.618 211.468 385.105 211.232 385.625 211.099C386.145 210.966 386.687 210.939 387.219 211.019C402.034 212.78 416.419 217.084 429.714 223.734C457.746 237.995 471.847 261.192 470.441 290.593C470.42 291.101 470.296 291.599 470.076 292.06C469.857 292.52 469.547 292.934 469.164 293.276C468.781 293.619 468.333 293.884 467.846 294.055C467.358 294.227 466.84 294.302 466.323 294.277L465.911 294.253Z" fill="#FFEEBF"/>
<path d="M417.019 305.542C412.263 304.776 407.956 302.334 404.905 298.674C402.713 296.097 401.279 292.982 400.758 289.665C400.237 286.348 400.649 282.954 401.949 279.85C403.47 276.614 406.09 273.999 409.361 272.451C412.632 270.903 416.35 270.519 419.877 271.365C421.762 271.953 423.494 272.935 424.954 274.244C426.414 275.553 427.567 277.158 428.333 278.946C429.092 280.584 429.475 282.366 429.454 284.165C429.433 285.964 429.009 287.736 428.212 289.357C427.697 290.195 426.878 290.811 425.919 291.081C424.961 291.351 423.933 291.255 423.044 290.813C422.154 290.37 421.468 289.614 421.123 288.696C420.779 287.778 420.801 286.766 421.186 285.863C421.46 285.257 421.601 284.601 421.601 283.938C421.601 283.275 421.46 282.619 421.186 282.012C420.881 281.266 420.417 280.593 419.823 280.04C419.229 279.486 418.52 279.064 417.745 278.804C416.047 278.468 414.282 278.705 412.738 279.477C411.194 280.25 409.962 281.512 409.241 283.058C408.547 284.841 408.353 286.775 408.681 288.657C409.009 290.538 409.847 292.299 411.107 293.754C412.16 295.029 413.478 296.068 414.974 296.802C416.47 297.535 418.109 297.947 419.781 298.008C422.168 297.816 424.486 297.123 426.576 295.975C428.667 294.826 430.48 293.25 431.894 291.353C436.765 285.413 439.681 278.16 440.253 270.556C440.796 262.727 439.691 254.871 437.007 247.478L436.667 246.432C434.511 240.11 432.282 233.598 427.219 231.078C426.284 230.615 425.575 229.806 425.247 228.83C424.92 227.854 425.002 226.79 425.474 225.873C425.946 224.956 426.771 224.261 427.766 223.94C428.761 223.619 429.845 223.699 430.78 224.162C438.727 228.131 441.61 236.545 444.13 243.984L444.493 245.006C447.505 253.387 448.734 262.285 448.103 271.151C447.387 280.336 443.838 289.09 437.927 296.249C434.875 299.791 428.478 305.756 419.756 305.638C418.843 305.677 417.927 305.645 417.019 305.542Z" fill="#FFEEBF"/>
<path d="M407.187 320.872C406.666 320.787 406.165 320.61 405.709 320.349C399.288 316.475 392.141 311.722 388.749 304.14C386.982 299.979 386.116 295.503 386.205 290.996C386.051 287.204 386.501 283.411 387.538 279.754C389.426 273.444 393.557 268.006 399.182 264.428C404.807 260.849 411.553 259.367 418.196 260.249C424.84 261.132 430.941 264.321 435.393 269.238C439.845 274.155 442.353 280.475 442.462 287.051C442.514 287.582 442.453 288.118 442.283 288.625C442.113 289.132 441.839 289.599 441.477 289.997C441.114 290.395 440.672 290.715 440.178 290.938C439.684 291.16 439.148 291.28 438.604 291.29C438.06 291.3 437.52 291.2 437.018 290.995C436.515 290.791 436.061 290.487 435.684 290.102C435.307 289.717 435.015 289.26 434.827 288.76C434.638 288.259 434.557 287.726 434.588 287.193C434.507 282.467 432.703 277.926 429.502 274.392C426.302 270.858 421.917 268.566 417.142 267.931C412.367 267.296 407.518 268.36 403.474 270.93C399.43 273.5 396.458 277.406 395.097 281.941C394.3 284.852 393.957 287.865 394.079 290.877C393.986 294.319 394.621 297.742 395.945 300.931C398.537 306.54 404.521 310.438 409.949 313.742C410.721 314.21 411.305 314.925 411.604 315.766C411.902 316.607 411.895 317.524 411.585 318.361C411.275 319.198 410.68 319.905 409.901 320.362C409.122 320.82 408.206 321 407.308 320.872H407.187Z" fill="#FFEEBF"/>
<path d="M417.53 225.493C416.948 225.493 416.367 225.302 415.785 225.16C414.807 224.899 413.968 224.279 413.443 223.428C412.918 222.577 412.746 221.56 412.964 220.588C413.182 219.617 413.773 218.765 414.614 218.209C415.455 217.653 416.482 217.435 417.481 217.602C420.252 218.207 423.13 218.156 425.877 217.453C428.624 216.751 431.161 215.416 433.278 213.561C435.284 211.703 436.747 209.353 437.518 206.754C438.289 204.155 438.339 201.402 437.663 198.778C437.373 197.478 436.719 196.285 435.773 195.331C434.288 194.261 432.572 193.538 430.758 193.216C429.294 192.782 427.78 192.535 426.252 192.479C424.698 192.499 423.188 192.983 421.922 193.867C420.656 194.751 419.696 195.993 419.169 197.427C418.642 198.861 418.574 200.419 418.974 201.892C419.374 203.365 420.222 204.683 421.406 205.67C421.941 206.144 422.592 206.472 423.296 206.621C424.992 206.787 427.391 204.434 428.529 203.317C428.895 202.951 429.332 202.66 429.813 202.461C430.294 202.261 430.811 202.158 431.334 202.156C431.856 202.154 432.374 202.254 432.857 202.45C433.34 202.645 433.779 202.933 434.147 203.297C434.516 203.66 434.808 204.091 435.005 204.566C435.203 205.04 435.302 205.549 435.298 206.061C435.294 206.574 435.186 207.081 434.98 207.552C434.775 208.024 434.476 208.45 434.102 208.808C431.945 210.899 427.924 214.845 422.521 214.322C420.217 214.038 418.055 213.076 416.318 211.565C413.909 209.57 412.177 206.903 411.353 203.919C410.528 200.934 410.65 197.774 411.703 194.859C412.755 191.945 414.689 189.414 417.245 187.604C419.801 185.795 422.858 184.793 426.01 184.731C428.258 184.771 430.491 185.106 432.648 185.729C435.73 186.335 438.611 187.683 441.031 189.651C443.053 191.606 444.479 194.075 445.15 196.781C446.193 200.769 446.132 204.957 444.974 208.914C443.815 212.871 441.601 216.452 438.56 219.289C435.741 221.785 432.392 223.637 428.756 224.71C425.119 225.782 421.285 226.05 417.53 225.493Z" fill="#FFEEBF"/>
<path d="M388.358 131.729C387.413 131.584 386.555 131.108 385.941 130.388C385.328 129.669 385.001 128.756 385.022 127.818C385.043 126.881 385.409 125.982 386.054 125.29C386.698 124.597 387.577 124.158 388.527 124.053C390.729 123.82 392.859 123.149 394.787 122.079C396.714 121.009 398.398 119.563 399.735 117.831C401.071 116.099 402.033 114.117 402.559 112.007C403.086 109.897 403.167 107.703 402.797 105.561C402.503 103.366 401.521 101.315 399.987 99.6908C398.182 98.1913 396.065 97.0963 393.785 96.4821C391.869 95.76 389.828 95.4128 387.776 95.46C386.433 95.6235 385.164 96.1514 384.11 96.9842C383.057 97.817 382.261 98.9218 381.813 100.174C381.365 101.426 381.282 102.777 381.574 104.073C381.865 105.369 382.52 106.559 383.464 107.51C384.149 108.257 385.106 108.71 386.129 108.77C386.45 108.738 386.745 108.585 386.952 108.342C386.972 107.396 387.198 106.465 387.616 105.612C388.034 104.759 388.634 104.004 389.375 103.399C389.918 103.043 390.528 102.799 391.169 102.68C391.81 102.562 392.469 102.572 393.106 102.709C393.833 102.869 394.498 103.228 395.024 103.744C395.55 104.261 395.916 104.913 396.079 105.626C396.241 106.338 396.194 107.082 395.942 107.769C395.69 108.456 395.245 109.059 394.657 109.507C394.301 111.393 393.311 113.107 391.843 114.374C390.376 115.641 388.517 116.388 386.565 116.494C384.96 116.538 383.363 116.252 381.878 115.654C380.393 115.057 379.051 114.161 377.94 113.024C375.879 111.059 374.435 108.558 373.776 105.814C373.118 103.07 373.272 100.199 374.222 97.5383C375.172 94.878 376.877 92.5394 379.137 90.7984C381.397 89.0574 384.117 87.9864 386.977 87.7118C390.118 87.5396 393.261 88.009 396.207 89.0903C399.657 90.0526 402.833 91.7854 405.487 94.1528C408.218 96.8998 409.983 100.43 410.526 104.23C411.059 107.411 410.927 110.665 410.139 113.794C409.35 116.922 407.92 119.861 405.937 122.431C403.954 125.001 401.459 127.149 398.604 128.743C395.748 130.338 392.592 131.346 389.327 131.706C389.005 131.745 388.681 131.753 388.358 131.729Z" fill="#FFEEBF"/>
<path d="M382.955 95.2694C382.604 95.2188 382.262 95.1229 381.937 94.9842C379.912 94.104 378.092 92.8252 376.591 91.2271C375.09 89.629 373.939 87.7456 373.21 85.6936C372.481 83.6415 372.189 81.4644 372.353 79.2972C372.516 77.13 373.131 75.0188 374.16 73.0943C374.854 71.8578 375.666 70.6881 376.583 69.6004C378.36 66.7784 381.004 64.5818 384.134 63.3262C387.264 62.0707 390.719 61.8209 394.003 62.6127C396.294 62.9525 398.434 63.9441 400.157 65.4648C401.184 66.5226 401.939 67.8051 402.36 69.2063C402.782 70.6074 402.857 72.0868 402.579 73.5221C402.092 76.0024 400.8 78.2616 398.897 79.9631C398.135 80.6691 397.119 81.0494 396.072 81.0205C395.025 80.9915 394.032 80.5556 393.312 79.8086C392.593 79.0616 392.205 78.0648 392.234 77.0374C392.264 76.01 392.708 75.0362 393.47 74.3302C394.13 73.78 394.596 73.0398 394.802 72.2148C394.849 72.002 394.85 71.7819 394.804 71.5689C394.758 71.3559 394.666 71.1549 394.536 70.9789C393.918 70.5767 393.213 70.3242 392.476 70.2421C391.337 69.9608 390.154 69.8882 388.988 70.0282C386.443 70.7166 384.239 72.2874 382.785 74.449C382.177 75.1422 381.649 75.8995 381.21 76.7069C380.69 77.697 380.379 78.7799 380.296 79.8908C380.212 81.0017 380.359 82.1177 380.726 83.1717C381.113 84.2165 381.71 85.175 382.479 85.9912C383.249 86.8073 384.176 87.4648 385.208 87.9253C386.06 88.3196 386.74 88.9997 387.126 89.843C387.512 90.6862 387.577 91.6369 387.311 92.5235C387.045 93.4101 386.465 94.1741 385.675 94.6777C384.885 95.1812 383.937 95.3911 383.003 95.2694H382.955Z" fill="#FFEEBF"/>
<path d="M376.873 214.868C376.387 214.793 375.92 214.632 375.492 214.393C374.584 213.885 373.918 213.044 373.641 212.055C373.364 211.065 373.498 210.009 374.014 209.117C375.986 205.724 376.911 201.844 376.679 197.946C376.661 197.373 376.564 196.805 376.388 196.258C376 195.483 375.395 194.832 374.644 194.381C373.288 193.372 371.633 192.827 369.932 192.827C368.23 192.827 366.575 193.372 365.219 194.381C364.547 195.003 364.077 195.807 363.87 196.691C363.663 197.576 363.728 198.5 364.057 199.348C364.404 199.988 364.961 200.494 365.639 200.783C366.316 201.072 367.074 201.127 367.788 200.94C368.743 200.584 369.802 200.605 370.742 200.999C371.681 201.393 372.429 202.128 372.828 203.052C373.226 203.975 373.244 205.014 372.878 205.95C372.512 206.886 371.79 207.646 370.865 208.071C368.281 209.036 365.423 209.02 362.851 208.026C360.279 207.033 358.177 205.133 356.958 202.699C355.909 200.38 355.616 197.8 356.119 195.311C356.622 192.822 357.896 190.546 359.768 188.795C362.439 186.54 365.811 185.242 369.332 185.112C372.853 184.982 376.315 186.03 379.151 188.082C381.192 189.402 382.786 191.289 383.73 193.501C384.209 194.791 384.479 196.146 384.529 197.518C384.841 202.915 383.562 208.287 380.846 212.991C380.447 213.654 379.857 214.186 379.15 214.52C378.443 214.854 377.65 214.975 376.873 214.868Z" fill="#FFEEBF"/>
<path d="M394.173 356.572C390.305 356.003 386.723 354.238 383.949 351.533C381.619 349.142 379.885 346.254 378.884 343.095C377.884 339.936 377.644 336.592 378.183 333.327C379.285 327.137 382.405 321.466 387.075 317.165C388.447 315.666 390.113 314.453 391.974 313.6C393.835 312.746 395.852 312.269 397.904 312.197C398.447 312.169 398.99 312.25 399.5 312.437C400.009 312.624 400.473 312.912 400.864 313.283C401.254 313.654 401.563 314.1 401.769 314.593C401.976 315.086 402.077 315.616 402.065 316.149C402.053 316.683 401.93 317.208 401.701 317.692C401.473 318.176 401.146 318.609 400.739 318.963C400.333 319.317 399.856 319.585 399.339 319.75C398.822 319.915 398.276 319.974 397.735 319.922C395.713 320.196 393.866 321.195 392.55 322.727C389.116 325.831 386.818 329.956 386.009 334.468C385.649 336.536 385.779 338.657 386.388 340.669C386.997 342.68 388.069 344.526 389.522 346.066C390.877 347.458 392.62 348.426 394.534 348.849C396.448 349.272 398.447 349.131 400.279 348.443C402.279 347.404 403.953 345.851 405.124 343.951C405.887 342.983 406.437 341.872 406.742 340.686C407.046 339.5 407.097 338.265 406.893 337.058C406.606 336.026 405.973 335.119 405.095 334.483C404.217 333.848 403.146 333.522 402.056 333.558C400.966 333.593 399.92 333.989 399.087 334.68C398.255 335.372 397.684 336.319 397.468 337.367C397.256 338.37 396.647 339.248 395.775 339.81C394.902 340.372 393.838 340.57 392.817 340.362C391.795 340.154 390.899 339.557 390.327 338.701C389.754 337.845 389.552 336.801 389.764 335.799C390.336 333.048 391.836 330.566 394.023 328.755C396.21 326.945 398.956 325.91 401.816 325.819C404.677 325.729 407.485 326.587 409.787 328.256C412.088 329.924 413.749 332.305 414.501 335.014C415.028 337.253 415.066 339.575 414.611 341.829C414.155 344.082 413.218 346.215 411.86 348.087C409.869 351.24 407.003 353.771 403.598 355.383C400.644 356.682 397.366 357.095 394.173 356.572Z" fill="#FFEEBF"/>
</g>
<g filter="url(#filter1_d_1324_3225)">
<path d="M137.33 329.169C139.779 328.819 142.119 327.942 144.181 326.599C147.251 324.461 149.619 321.492 150.996 318.054C152.372 314.616 152.697 310.86 151.931 307.244C151.339 304.71 150.344 302.284 148.981 300.055C146.868 296.242 143.781 293.034 140.023 290.745C137.169 289.173 134.012 288.2 130.754 287.891C127.495 287.581 124.207 287.942 121.098 288.948C115.124 290.961 109.891 294.663 106.058 299.588C101.386 305.339 99.5175 311.521 100.763 316.966C100.838 317.352 100.991 317.719 101.213 318.046C101.435 318.373 101.722 318.652 102.056 318.868C102.39 319.084 102.766 319.232 103.159 319.302C103.553 319.373 103.957 319.365 104.348 319.28C104.738 319.194 105.108 319.033 105.433 318.804C105.759 318.576 106.035 318.286 106.244 317.951C106.453 317.616 106.591 317.243 106.65 316.855C106.71 316.467 106.689 316.071 106.589 315.69C105.435 310.712 108.696 305.734 110.729 303.218C113.831 299.208 118.068 296.182 122.912 294.52C125.212 293.746 127.652 293.452 130.074 293.656C132.497 293.861 134.85 294.559 136.982 295.706C139.862 297.474 142.218 299.953 143.815 302.894C144.872 304.607 145.64 306.476 146.087 308.43C146.608 310.899 146.392 313.463 145.466 315.815C144.54 318.168 142.943 320.208 140.865 321.693C138.78 323.018 136.31 323.637 133.832 323.456C131.354 323.274 129.005 322.301 127.144 320.687C126.04 319.622 125.229 318.301 124.787 316.846C124.345 315.39 124.286 313.849 124.616 312.366C124.989 310.991 125.776 309.758 126.874 308.828C127.972 307.899 129.33 307.315 130.771 307.154C132.117 307.097 133.442 307.496 134.523 308.285C135.604 309.074 136.376 310.204 136.707 311.485C136.799 312.119 136.758 312.764 136.588 313.382C136.418 314 136.122 314.577 135.718 315.079C135.389 315.556 134.964 315.961 134.469 316.271C133.975 316.58 133.421 316.786 132.841 316.877C132.437 316.895 132.041 316.995 131.676 317.169C131.312 317.342 130.988 317.587 130.723 317.888C130.459 318.188 130.259 318.539 130.137 318.917C130.014 319.296 129.972 319.695 130.011 320.091C130.051 320.486 130.173 320.869 130.368 321.217C130.564 321.565 130.829 321.87 131.149 322.114C131.468 322.358 131.835 322.536 132.227 322.637C132.619 322.737 133.027 322.759 133.428 322.699C134.822 322.539 136.168 322.1 137.381 321.407C138.595 320.714 139.65 319.784 140.481 318.674C141.386 317.526 142.041 316.208 142.403 314.801C142.766 313.394 142.829 311.928 142.588 310.497C141.992 307.807 140.442 305.413 138.214 303.741C135.986 302.069 133.225 301.227 130.423 301.367C127.729 301.61 125.175 302.656 123.105 304.365C121.035 306.075 119.548 308.365 118.845 310.928C118.236 313.412 118.296 316.008 119.019 318.463C119.741 320.917 121.102 323.145 122.967 324.928C124.875 326.66 127.16 327.942 129.649 328.677C132.138 329.412 134.765 329.58 137.33 329.169Z" fill="#FFEEBF"/>
<path d="M120.31 423.504L140.572 420.521C141.382 420.39 142.106 419.95 142.587 419.299C142.818 418.969 142.978 418.596 143.057 418.204C143.136 417.811 143.132 417.407 143.045 417.016C143.045 417.016 141.396 409.216 140.517 400.392C139.974 395.159 137.95 390.179 134.673 386.015C137.132 381.448 137.728 376.134 136.34 371.152C134.71 365.994 130.514 361.681 123.864 358.338C118.904 355.692 114.428 352.255 110.619 348.166C110.362 347.876 110.048 347.638 109.697 347.466C109.346 347.295 108.964 347.193 108.573 347.166C108.182 347.139 107.789 347.189 107.417 347.311C107.045 347.433 106.701 347.626 106.405 347.878C106.11 348.131 105.867 348.438 105.692 348.783C105.517 349.127 105.413 349.502 105.386 349.886C105.359 350.269 105.409 350.655 105.534 351.02C105.658 351.384 105.855 351.722 106.112 352.012C110.426 356.658 115.512 360.553 121.153 363.532C126.301 366.138 129.507 369.283 130.661 372.895C131.815 376.508 131.027 380.443 128.481 385.08C128.179 385.644 128.071 386.288 128.174 386.916C128.276 387.545 128.583 388.124 129.049 388.567C132.187 392.044 134.113 396.414 134.545 401.039C135.131 406.862 136.01 412.11 136.578 415.255L119.394 417.789C118.644 417.938 117.982 418.364 117.542 418.978C117.103 419.593 116.921 420.35 117.034 421.092C117.147 421.834 117.546 422.506 118.149 422.968C118.751 423.43 119.512 423.648 120.274 423.576L120.31 423.504Z" fill="#FFEEBF"/>
<path d="M123.13 443.399L155.593 438.636C156.373 438.513 157.072 438.092 157.538 437.467C158.004 436.841 158.201 436.06 158.085 435.294L153.211 403.43C153.211 401.632 152.772 391.82 146.745 386.5C148.485 380.246 152.442 361.537 140.131 354.366C121.811 343.673 111.076 332.8 107.393 321.082C107.151 320.341 106.617 319.725 105.911 319.37C105.205 319.014 104.384 318.948 103.629 319.186C102.873 319.425 102.245 319.948 101.883 320.64C101.52 321.333 101.453 322.138 101.696 322.88C105.818 336.035 117.396 348.04 137.09 359.47C145.755 364.502 142.476 380.857 140.479 386.734C140.266 387.357 140.273 388.033 140.499 388.653C140.725 389.272 141.157 389.799 141.725 390.148C146.287 392.934 147.221 400.931 147.221 403.717C147.203 403.866 147.203 404.017 147.221 404.166L151.673 433.353L122.159 437.684C121.759 437.727 121.371 437.849 121.02 438.042C120.669 438.236 120.361 438.497 120.116 438.81C119.87 439.123 119.692 439.482 119.591 439.865C119.491 440.247 119.47 440.646 119.531 441.037C119.591 441.427 119.732 441.802 119.944 442.138C120.156 442.474 120.435 442.764 120.764 442.992C121.094 443.219 121.467 443.379 121.861 443.461C122.255 443.544 122.662 443.547 123.057 443.471L123.13 443.399Z" fill="#FFEEBF"/>
<path d="M176.715 362.867C183.873 361.853 190.868 359.938 197.526 357.169C198.242 356.841 198.797 356.25 199.071 355.523C199.345 354.797 199.317 353.994 198.992 353.288C198.83 352.937 198.599 352.621 198.312 352.359C198.025 352.096 197.687 351.892 197.319 351.758C196.951 351.625 196.56 351.564 196.168 351.58C195.776 351.595 195.391 351.687 195.035 351.85C194.687 352.011 159.274 367.503 130.109 347.878C129.455 347.461 128.661 347.312 127.897 347.462C127.132 347.611 126.457 348.049 126.017 348.68C125.577 349.312 125.406 350.087 125.541 350.84C125.675 351.594 126.105 352.266 126.738 352.712C144.014 364.34 162.829 364.915 176.715 362.867Z" fill="#FFEEBF"/>
<path d="M98.3069 282.623C99.0763 282.511 99.7703 282.108 100.24 281.5C100.709 280.891 100.916 280.127 100.817 279.37C98.7465 263.087 106.587 254.012 112.505 249.591C112.358 250.826 112.358 252.075 112.505 253.311C112.505 253.652 112.615 253.976 112.688 254.317C113.606 257.773 115.476 260.915 118.093 263.397C120.711 265.879 123.975 267.607 127.527 268.389C130.696 269.343 134.075 269.394 137.273 268.539C140.47 267.683 143.354 265.955 145.59 263.555C148.44 260.153 150.444 256.149 151.445 251.857C152.447 247.565 152.418 243.104 151.361 238.825C150.708 236.016 149.475 233.368 147.739 231.044C146.003 228.72 143.8 226.768 141.267 225.311C137.788 223.452 133.969 222.287 130.029 221.883C126.09 221.479 122.108 221.844 118.312 222.956C111.63 224.801 105.55 228.316 100.669 233.159C95.7876 238.001 92.2719 244.003 90.466 250.579C90.3149 251.313 90.4562 252.076 90.8607 252.711C91.2651 253.346 91.9021 253.805 92.6408 253.993C93.3795 254.182 94.1637 254.086 94.8325 253.725C95.5013 253.364 96.0037 252.766 96.2367 252.053C97.8385 246.485 100.869 241.414 105.039 237.324C109.208 233.234 114.378 230.261 120.053 228.689C126.164 226.913 132.741 227.558 138.372 230.486C140.218 231.55 141.821 232.975 143.082 234.672C144.343 236.37 145.234 238.303 145.7 240.353C146.54 243.725 146.572 247.243 145.793 250.629C145.015 254.015 143.447 257.179 141.212 259.87C139.689 261.431 137.749 262.54 135.615 263.071C133.48 263.601 131.236 263.532 129.139 262.872C126.671 262.344 124.395 261.172 122.55 259.48C120.706 257.787 119.362 255.637 118.66 253.257C118.612 253.043 118.575 252.827 118.55 252.61C118.285 249.904 118.867 247.183 120.217 244.81C120.478 244.28 120.572 243.686 120.485 243.104C120.399 242.521 120.137 241.978 119.733 241.543C119.329 241.108 118.802 240.801 118.219 240.663C117.636 240.525 117.024 240.561 116.462 240.766C111.824 242.758 107.657 245.671 104.224 249.321C98.9114 254.928 92.9941 264.831 94.9543 280.251C95.0549 281.02 95.4624 281.719 96.0874 282.194C96.7125 282.669 97.5041 282.881 98.2886 282.785L98.3069 282.623Z" fill="#FFEEBF"/>
<path d="M205.57 330.966H205.863C206.247 330.872 206.608 330.704 206.925 330.472C207.243 330.239 207.51 329.947 207.711 329.613C207.912 329.279 208.043 328.908 208.097 328.523C208.151 328.139 208.126 327.747 208.025 327.372C202.382 305.806 187.158 292.219 164.057 288.014C153.113 286.131 141.914 286.186 130.99 288.175C130.587 288.236 130.201 288.377 129.856 288.59C129.511 288.802 129.214 289.082 128.984 289.411C128.753 289.741 128.593 290.113 128.515 290.505C128.436 290.897 128.44 291.301 128.527 291.692C128.613 292.082 128.78 292.451 129.017 292.776C129.254 293.101 129.557 293.375 129.906 293.581C130.255 293.787 130.643 293.921 131.047 293.974C131.451 294.027 131.862 293.999 132.254 293.89C142.458 292.085 152.907 292.054 163.123 293.801C183.898 297.557 197.161 309.4 202.217 328.738C202.389 329.455 202.829 330.082 203.45 330.495C204.071 330.908 204.828 331.076 205.57 330.966Z" fill="#FFEEBF"/>
<path d="M173.935 349.999C174.554 349.898 175.166 349.76 175.767 349.586C182.088 347.789 185.367 342.056 186.759 338.803C189.42 332.341 190.002 325.236 188.426 318.441C186.9 311.862 183.993 305.668 179.889 300.253C176.482 295.599 171.151 289.272 164.134 288.086C163.371 287.992 162.601 288.19 161.983 288.639C161.365 289.089 160.948 289.754 160.818 290.498C160.688 291.242 160.856 292.006 161.286 292.631C161.716 293.256 162.375 293.695 163.127 293.855C166.79 294.466 170.656 297.683 175.034 303.668C178.661 308.426 181.238 313.874 182.601 319.663C183.907 325.279 183.441 331.153 181.263 336.502C180.661 338.188 179.694 339.725 178.429 341.009C177.164 342.294 175.631 343.294 173.935 343.943C172.716 344.269 171.44 344.332 170.194 344.127C168.947 343.922 167.761 343.455 166.717 342.757C165.474 341.981 164.467 340.89 163.803 339.599C163.138 338.309 162.842 336.866 162.943 335.424C163.118 334.151 163.724 332.973 164.665 332.08C165.605 331.186 166.825 330.63 168.128 330.5C168.748 330.528 169.355 330.684 169.91 330.956C170.466 331.229 170.957 331.612 171.352 332.081C171.699 332.447 171.96 332.883 172.118 333.358C172.276 333.832 172.327 334.335 172.268 334.831C172.158 335.585 172.352 336.351 172.808 336.967C173.264 337.583 173.946 338.001 174.711 338.132C175.476 338.263 176.262 338.097 176.904 337.668C177.546 337.24 177.992 336.583 178.149 335.838C178.359 334.493 178.264 333.119 177.872 331.815C177.479 330.51 176.798 329.306 175.877 328.289C174.916 327.171 173.718 326.271 172.368 325.65C171.017 325.03 169.546 324.704 168.055 324.695C165.321 324.855 162.729 325.943 160.723 327.773C158.718 329.603 157.424 332.06 157.063 334.723C156.822 337.25 157.291 339.793 158.418 342.077C159.545 344.361 161.287 346.299 163.456 347.681C166.539 349.694 170.27 350.52 173.935 349.999Z" fill="#FFEEBF"/>
<path d="M170.265 363.137C170.947 363.037 171.572 362.71 172.035 362.21C172.499 361.711 172.772 361.069 172.808 360.395C172.845 359.72 172.643 359.054 172.236 358.509C171.83 357.964 171.243 357.573 170.577 357.403C165.905 356.235 160.684 354.69 157.552 351.203C155.854 349.192 154.606 346.853 153.888 344.338C153.11 342.188 152.677 339.933 152.605 337.652C152.565 334.079 153.83 330.61 156.172 327.873C158.514 325.137 161.778 323.313 165.372 322.733C168.966 322.153 172.653 322.855 175.766 324.711C178.878 326.568 181.21 329.456 182.338 332.854C182.431 333.25 182.607 333.622 182.854 333.948C183.102 334.273 183.416 334.545 183.776 334.745C184.136 334.945 184.534 335.07 184.946 335.111C185.358 335.152 185.774 335.109 186.168 334.984C186.562 334.858 186.924 334.654 187.234 334.384C187.543 334.115 187.791 333.784 187.964 333.415C188.136 333.046 188.228 332.646 188.234 332.24C188.24 331.834 188.16 331.431 187.999 331.057C186.44 326.317 183.199 322.283 178.865 319.689C174.53 317.095 169.391 316.114 164.381 316.924C159.372 317.733 154.825 320.28 151.567 324.101C148.31 327.921 146.559 332.762 146.633 337.742C146.721 340.614 147.252 343.456 148.208 346.171C149.161 349.466 150.809 352.527 153.045 355.157C157.295 359.884 163.524 361.753 169.056 363.154C169.457 363.225 169.867 363.219 170.265 363.137Z" fill="#FFEEBF"/>
<path d="M156.159 291.932C159.02 291.526 161.752 290.496 164.152 288.915C166.553 287.335 168.561 285.246 170.027 282.802C171.582 280.086 172.372 277.014 172.318 273.9C172.263 270.786 171.365 267.743 169.716 265.082C168.608 263.301 167.024 261.853 165.136 260.894C162.943 259.995 160.556 259.649 158.192 259.888C156.494 259.904 154.805 260.146 153.173 260.607C150.886 261.317 148.876 262.699 147.415 264.566C145.953 266.432 145.111 268.694 145.001 271.045C144.891 273.396 145.519 275.724 146.8 277.713C148.082 279.703 149.954 281.26 152.165 282.173C153.763 282.893 155.547 283.112 157.276 282.802C161.289 282.011 163.304 278.291 164.403 276.296C164.775 275.61 164.853 274.807 164.621 274.063C164.389 273.32 163.866 272.698 163.166 272.333C162.467 271.969 161.648 271.892 160.89 272.119C160.133 272.347 159.498 272.86 159.127 273.546C158.559 274.607 157.295 276.817 156.086 277.141C155.545 277.203 154.998 277.109 154.51 276.871C153.432 276.417 152.521 275.651 151.898 274.675C151.275 273.699 150.97 272.561 151.023 271.411C151.077 270.26 151.487 269.154 152.198 268.238C152.91 267.323 153.889 266.641 155.005 266.286C156.123 265.995 157.274 265.844 158.431 265.836C159.822 265.678 161.231 265.832 162.553 266.286C163.444 266.773 164.184 267.487 164.696 268.352C165.777 270.105 166.36 272.108 166.386 274.156C166.412 276.203 165.879 278.221 164.843 279.998C163.736 281.798 162.208 283.314 160.386 284.42C158.564 285.527 156.5 286.192 154.364 286.36C153.574 286.422 152.842 286.789 152.328 287.381C151.815 287.972 151.562 288.74 151.625 289.514C151.688 290.289 152.062 291.007 152.665 291.511C153.268 292.015 154.05 292.263 154.84 292.201C155.28 292.093 155.719 292.003 156.159 291.932Z" fill="#FFEEBF"/>
<path d="M113.88 230.522C114.134 230.486 114.381 230.413 114.613 230.306C116.896 229.34 118.955 227.927 120.664 226.155C122.373 224.383 123.697 222.288 124.554 219.998C125.411 217.708 125.783 215.27 125.649 212.834C125.515 210.398 124.876 208.015 123.773 205.828C122.505 203.208 120.428 201.045 117.837 199.646C115.384 198.523 112.703 197.964 109.996 198.011C107.624 197.868 105.247 198.211 103.016 199.017C101.008 199.835 99.2808 201.2 98.0378 202.95C96.7948 204.701 96.0883 206.763 96.0016 208.895C95.9149 211.026 96.4517 213.138 97.5486 214.979C98.6455 216.821 100.257 218.317 102.192 219.289C103.259 219.862 104.436 220.209 105.647 220.308C106.859 220.407 108.078 220.256 109.227 219.864C110.615 219.369 111.793 218.429 112.571 217.197C113.349 215.965 113.681 214.511 113.514 213.071C113.884 212.545 114.064 211.912 114.027 211.274C113.97 210.5 113.603 209.779 113.005 209.27C112.408 208.761 111.628 208.506 110.839 208.56C110.345 208.593 109.863 208.726 109.424 208.952C108.986 209.178 108.6 209.491 108.292 209.872C107.884 210.477 107.613 211.16 107.496 211.876C107.379 212.592 107.419 213.324 107.615 214.024C107.507 214.225 107.333 214.383 107.12 214.473C106.747 214.567 106.359 214.587 105.978 214.532C105.597 214.476 105.232 214.346 104.903 214.149C104.006 213.667 103.264 212.948 102.761 212.073C102.257 211.199 102.013 210.205 102.055 209.201C102.097 208.198 102.423 207.226 102.998 206.396C103.572 205.565 104.372 204.908 105.306 204.499C106.773 204.014 108.325 203.824 109.868 203.941C111.658 203.883 113.44 204.208 115.089 204.894C116.553 205.73 117.722 206.984 118.442 208.488C119.185 209.958 119.614 211.561 119.704 213.199C119.794 214.837 119.542 216.475 118.965 218.015C118.387 219.554 117.495 220.961 116.343 222.151C115.192 223.34 113.805 224.287 112.268 224.933C111.603 225.214 111.064 225.722 110.753 226.364C110.441 227.006 110.378 227.737 110.576 228.421C110.773 229.104 111.217 229.695 111.825 230.081C112.433 230.468 113.163 230.624 113.88 230.522Z" fill="#FFEEBF"/>
<path d="M101.737 205.344C102.451 205.238 103.102 204.881 103.568 204.34C104.035 203.799 104.286 203.111 104.275 202.402C104.264 201.693 103.991 201.013 103.508 200.486C103.024 199.96 102.362 199.623 101.645 199.539C100.792 199.446 99.9673 199.182 99.2221 198.765C98.4768 198.347 97.8267 197.784 97.3117 197.111C96.7968 196.437 96.4279 195.667 96.2279 194.848C96.028 194.03 96.0011 193.179 96.149 192.35C96.2998 191.675 96.5081 191.014 96.7718 190.373C97.3417 188.499 98.5764 186.886 100.253 185.826C101.07 185.475 101.945 185.269 102.836 185.215C103.408 185.103 104.001 185.134 104.558 185.305C104.696 185.398 104.811 185.521 104.894 185.664C104.976 185.808 105.024 185.967 105.034 186.132C105.071 186.763 104.911 187.389 104.576 187.929C104.348 188.264 104.193 188.642 104.12 189.039C104.047 189.435 104.059 189.842 104.154 190.234C104.249 190.627 104.426 190.995 104.673 191.317C104.92 191.639 105.232 191.908 105.589 192.106C105.947 192.305 106.343 192.429 106.751 192.47C107.16 192.512 107.573 192.47 107.964 192.348C108.356 192.226 108.718 192.025 109.027 191.76C109.336 191.494 109.586 191.169 109.761 190.804C110.734 189.178 111.151 187.289 110.951 185.413C110.822 184.31 110.421 183.254 109.782 182.336C109.144 181.419 108.288 180.668 107.287 180.147C105.701 179.414 103.927 179.163 102.195 179.428C100.595 179.543 99.0298 179.945 97.5779 180.614C94.5482 182.291 92.2723 185.024 91.2026 188.27C90.7901 189.252 90.4712 190.269 90.25 191.308C89.9477 192.923 89.985 194.581 90.3593 196.182C90.7336 197.782 91.4372 199.291 92.4269 200.615C93.4166 201.94 94.6716 203.052 96.1149 203.883C97.5583 204.715 99.1595 205.249 100.821 205.452C101.129 205.451 101.437 205.415 101.737 205.344Z" fill="#FFEEBF"/>
<path d="M124.379 293.1C124.976 293.018 125.533 292.759 125.975 292.357C126.417 291.956 126.724 291.431 126.853 290.853C127.744 286.859 127.446 282.698 125.992 278.866C125.649 277.883 125.148 276.961 124.508 276.134C123.333 274.739 121.755 273.724 119.983 273.223C117.468 272.348 114.724 272.339 112.203 273.198C109.682 274.057 107.535 275.733 106.114 277.949C105.159 279.622 104.754 281.544 104.954 283.452C105.154 285.359 105.949 287.16 107.232 288.607C108.658 290.109 110.608 291.031 112.694 291.191C114.78 291.35 116.852 290.736 118.499 289.469C118.817 289.227 119.081 288.925 119.277 288.58C119.473 288.235 119.595 287.855 119.637 287.462C119.68 287.07 119.64 286.673 119.522 286.296C119.404 285.918 119.21 285.568 118.95 285.267C118.691 284.965 118.372 284.718 118.013 284.54C117.654 284.362 117.262 284.257 116.86 284.232C116.459 284.207 116.056 284.261 115.676 284.392C115.297 284.523 114.948 284.728 114.652 284.994C114.18 285.288 113.62 285.413 113.066 285.347C112.511 285.282 111.997 285.03 111.61 284.635C111.183 284.096 110.927 283.445 110.875 282.764C110.823 282.083 110.977 281.402 111.317 280.807C112.082 279.799 113.161 279.062 114.391 278.709C115.62 278.355 116.934 278.404 118.132 278.848C118.78 279.022 119.368 279.363 119.836 279.836C120.08 280.192 120.271 280.579 120.404 280.987C121.459 283.755 121.676 286.763 121.027 289.649C120.94 290.023 120.93 290.41 120.997 290.788C121.063 291.167 121.205 291.528 121.415 291.852C121.624 292.176 121.897 292.456 122.217 292.676C122.537 292.897 122.898 293.053 123.28 293.136C123.645 293.195 124.019 293.183 124.379 293.1Z" fill="#FFEEBF"/>
<path d="M63.3718 476.538L189.504 457.974C190.286 457.858 190.989 457.443 191.46 456.82C191.93 456.197 192.129 455.416 192.014 454.649L190.64 445.663C194.011 443.183 199.965 436.497 196.869 421.473C193.205 403.896 189.98 376.453 189.944 376.184V375.842C189.797 375.285 186.811 362.022 197.272 357.115C202.236 354.761 205.955 349.657 207.769 342.738C210.938 330.661 208.648 309.975 192.783 288.175C173.346 261.487 96.9704 163.379 80.5558 142.316L80.2994 140.608C80.2047 139.965 79.8935 139.372 79.4155 138.923C78.9375 138.473 78.32 138.194 77.6613 138.128C77.1756 138.075 76.684 138.143 76.2323 138.326C75.7456 138.291 75.2571 138.365 74.8034 138.541C74.1862 138.788 73.6706 139.229 73.3386 139.796C73.0067 140.362 72.8774 141.022 72.9714 141.669L73.2279 143.466C63.8481 168.321 20.1918 284.078 9.58463 315.187C0.937637 340.599 4.94969 361.033 11.5815 371.691C15.392 377.783 20.4849 381.593 25.9259 382.474C37.3575 384.181 38.4568 397.732 38.5117 398.307C38.5027 398.415 38.5027 398.523 38.5117 398.63C38.5117 398.9 43.6413 426.091 45.4366 443.919C46.9755 459.178 54.5965 463.85 58.6269 465.252L59.9826 474.238C60.138 474.975 60.5767 475.625 61.2078 476.054C61.8388 476.482 62.6138 476.656 63.3718 476.538ZM185.73 452.654L65.4969 470.356L64.2878 462.431C64.19 461.789 63.878 461.197 63.4006 460.748C62.9231 460.3 62.3073 460.019 61.6497 459.95C61.3383 459.95 52.9661 458.585 51.4272 443.272C49.5952 425.876 44.8687 399.852 44.4657 397.642C44.1224 394.432 43.2629 391.296 41.9192 388.35C40.6598 385.278 38.6048 382.58 35.9573 380.525C33.3098 378.47 30.1616 377.129 26.8236 376.633C23.1597 376.076 19.4957 373.236 16.6927 368.635C10.7571 359.11 7.25801 340.563 15.2638 317.056C25.468 287.115 66.4312 178.349 77.7345 148.426C97.4834 173.784 169.187 265.962 187.892 291.644C202.548 311.808 204.783 330.553 201.962 341.354C200.588 346.602 197.986 350.34 194.634 351.921C191.58 353.349 188.959 355.534 187.032 358.261C185.104 360.988 183.935 364.161 183.642 367.467C183.243 370.676 183.36 373.927 183.99 377.1C184.265 379.311 187.452 405.585 190.988 422.713C194.084 437.809 186.481 441.475 186.152 441.637C185.554 441.889 185.059 442.331 184.747 442.891C184.435 443.452 184.323 444.098 184.43 444.728L185.73 452.654Z" fill="#FFEEBF"/>
<path d="M75.0063 338.245C77.5801 337.902 80.0396 336.985 82.1959 335.564C84.3522 334.144 86.1481 332.257 87.4455 330.05C88.6993 327.809 89.3366 325.287 89.2949 322.731C89.2531 320.176 88.5337 317.675 87.2074 315.475C85.7702 313.227 83.6649 311.465 81.1753 310.427C78.6858 309.389 75.9316 309.125 73.2843 309.67C70.5649 310.346 68.1787 311.947 66.5513 314.189C64.924 316.431 64.1612 319.166 64.3991 321.909C64.5957 323.343 65.0927 324.722 65.8588 325.96C66.6249 327.197 67.6436 328.265 68.8509 329.097C69.9778 329.919 71.266 330.503 72.6344 330.813C74.0029 331.122 75.4218 331.15 76.8017 330.895C77.2025 330.836 77.5869 330.697 77.9314 330.488C78.276 330.279 78.5735 330.003 78.8058 329.677C79.0382 329.351 79.2005 328.982 79.2829 328.593C79.3653 328.204 79.366 327.802 79.2851 327.413C79.2042 327.023 79.0433 326.654 78.8122 326.327C78.5811 326 78.2847 325.723 77.9409 325.513C77.5972 325.302 77.2133 325.162 76.8127 325.102C76.4121 325.042 76.0033 325.062 75.6109 325.161C75.0386 325.249 74.4541 325.221 73.8934 325.079C73.3326 324.936 72.8074 324.683 72.3499 324.335C71.8102 323.97 71.3517 323.502 71.0022 322.958C70.6526 322.414 70.4193 321.807 70.3164 321.172C70.2485 319.852 70.6472 318.55 71.445 317.486C72.2428 316.422 73.3909 315.66 74.6949 315.331C76.1215 315.067 77.5962 315.231 78.9264 315.801C80.2565 316.372 81.3804 317.323 82.1511 318.53C82.9085 319.856 83.3062 321.35 83.3062 322.87C83.3062 324.39 82.9085 325.884 82.1511 327.21C80.8539 329.291 78.8986 330.899 76.5832 331.788C74.2679 332.677 71.7196 332.799 69.3272 332.135C66.8955 331.307 64.7571 329.812 63.1658 327.827C61.5746 325.843 60.5975 323.451 60.3504 320.938C60.208 318.94 60.3873 316.933 60.8817 314.989C61.5404 311.721 63.0486 308.675 65.2601 306.147C66.9549 304.441 68.9932 303.1 71.2451 302.209C73.4971 301.318 75.9135 300.896 78.3406 300.971C83.4771 301.165 88.4413 302.84 92.6117 305.788C95.3048 307.585 99.9397 311.431 100.306 316.571C100.378 317.337 100.755 318.044 101.354 318.54C101.953 319.035 102.727 319.28 103.509 319.221C104.29 319.162 105.017 318.804 105.531 318.224C106.046 317.644 106.308 316.889 106.26 316.122C105.802 310.55 102.175 305.195 95.9826 301.025C90.8527 297.413 84.7434 295.38 78.4321 295.184C75.1621 295.096 71.9095 295.681 68.8836 296.9C65.8577 298.12 63.1257 299.947 60.8634 302.265C57.9394 305.531 55.9373 309.49 55.056 313.749C54.4228 316.287 54.2063 318.908 54.4148 321.513C54.7584 325.195 56.1918 328.698 58.5386 331.591C60.8854 334.484 64.0433 336.641 67.6234 337.796C70.0212 338.474 72.5415 338.627 75.0063 338.245Z" fill="#FFEEBF"/>
<path d="M99.245 426.595L119.507 423.611C119.91 423.573 120.301 423.455 120.657 423.264C121.012 423.073 121.324 422.813 121.574 422.5C121.823 422.186 122.005 421.827 122.108 421.442C122.212 421.058 122.234 420.657 122.174 420.264C122.115 419.87 121.974 419.493 121.761 419.155C121.548 418.817 121.267 418.525 120.935 418.297C120.603 418.069 120.227 417.909 119.831 417.828C119.434 417.747 119.025 417.746 118.627 417.825L101.443 420.359C101.059 417.178 100.326 411.912 99.1351 406.179C98.1399 401.628 98.6867 396.882 100.692 392.664C101.007 392.108 101.127 391.466 101.034 390.836C100.942 390.206 100.641 389.624 100.179 389.177C96.3688 385.457 94.4452 381.755 94.4635 378.143C94.4819 374.53 96.607 370.433 100.766 366.461C105.292 361.995 109.009 356.805 111.758 351.113C112.078 350.398 112.096 349.587 111.808 348.859C111.519 348.131 110.947 347.546 110.219 347.231C109.49 346.916 108.663 346.899 107.921 347.182C107.179 347.465 106.582 348.026 106.262 348.741C103.833 353.738 100.584 358.31 96.6436 362.274C91.2942 367.378 88.5645 372.715 88.5462 378.125C88.722 383.286 90.8818 388.191 94.5918 391.855C92.6966 396.8 92.2585 402.169 93.3277 407.347C95.1597 416.045 95.8742 423.899 95.8742 423.971C95.9107 424.368 96.0304 424.753 96.2259 425.103C96.4214 425.452 96.6883 425.758 97.01 426.002C97.3215 426.245 97.6805 426.423 98.0649 426.525C98.4493 426.627 98.8509 426.651 99.245 426.595Z" fill="#FFEEBF"/>
<path d="M90.3213 448.233L122.784 443.453C123.188 443.415 123.579 443.297 123.934 443.105C124.289 442.914 124.601 442.654 124.851 442.341C125.1 442.028 125.282 441.668 125.386 441.284C125.489 440.899 125.511 440.498 125.452 440.105C125.392 439.712 125.251 439.335 125.038 438.997C124.825 438.658 124.544 438.366 124.212 438.138C123.88 437.91 123.505 437.75 123.108 437.669C122.711 437.588 122.302 437.587 121.905 437.666L92.2999 442.015L87.8298 412.829C87.8106 412.681 87.7737 412.536 87.7199 412.397C86.8772 409.684 85.4299 401.812 88.9473 397.84C89.3812 397.347 89.6348 396.725 89.6679 396.074C89.7011 395.423 89.512 394.78 89.1306 394.246C85.4666 389.214 77.4424 374.477 84.2025 367.198C99.5912 350.574 107.084 335.801 107.102 322.035C107.112 321.885 107.112 321.735 107.102 321.586L79.6225 142.047C79.5837 141.651 79.4632 141.267 79.2684 140.919C79.0735 140.57 78.8084 140.264 78.4891 140.019C78.1698 139.774 77.8031 139.596 77.4112 139.495C77.0194 139.393 76.6106 139.371 76.2098 139.43C75.809 139.488 75.4246 139.626 75.0799 139.835C74.7352 140.045 74.4375 140.32 74.2049 140.646C73.9723 140.971 73.8097 141.34 73.7269 141.729C73.6442 142.118 73.643 142.52 73.7235 142.909L101.203 322.233C101.112 334.436 94.1319 347.861 79.8607 363.262C70.2427 373.668 79.6225 390.418 83.1583 395.881C78.9813 402.711 81.5461 412.272 82.0407 413.853L86.9138 445.717C86.9654 446.104 87.095 446.476 87.2951 446.813C87.4951 447.149 87.7616 447.443 88.0789 447.677C88.3962 447.912 88.758 448.082 89.143 448.177C89.5281 448.273 89.9286 448.292 90.3213 448.233Z" fill="#FFEEBF"/>
<path d="M98.4185 282.604C98.8047 282.537 99.1736 282.396 99.5041 282.189C99.8346 281.982 100.12 281.713 100.345 281.397C100.569 281.082 100.728 280.726 100.813 280.35C100.897 279.975 100.905 279.586 100.837 279.207C98.1071 263.913 89.4785 256.15 82.7367 252.25C78.3624 249.742 73.5007 248.163 68.4655 247.613C67.8691 247.568 67.2728 247.702 66.7558 247.997C66.2388 248.293 65.8256 248.735 65.571 249.266C65.3105 249.799 65.22 250.396 65.3115 250.98C65.4031 251.563 65.6723 252.106 66.084 252.537C68.0877 254.423 69.4611 256.861 70.0227 259.528C70.0227 259.744 70.0228 259.96 70.1144 260.193C70.5174 264.65 67.6412 269.557 62.9513 272.378C61.1494 273.618 59.0264 274.331 56.8282 274.436C54.63 274.541 52.4465 274.033 50.5304 272.971C47.5859 271.05 45.1375 268.482 43.3792 265.472C41.6208 262.462 40.6007 259.092 40.3995 255.628C40.2264 253.531 40.4985 251.421 41.1985 249.432C41.8985 247.443 43.0113 245.618 44.4665 244.072C48.9995 239.659 55.1175 237.168 61.504 237.135C67.404 237.013 73.2371 238.381 78.4436 241.106C83.6502 243.831 88.0555 247.823 91.2372 252.699C91.6534 253.358 92.319 253.829 93.0883 254.007C93.8575 254.186 94.6676 254.058 95.3408 253.651C95.6754 253.451 95.9662 253.187 96.1964 252.876C96.4266 252.565 96.5916 252.211 96.6819 251.837C96.7722 251.463 96.7859 251.075 96.7224 250.695C96.6589 250.316 96.5193 249.952 96.3118 249.626C92.6036 243.848 87.4251 239.117 81.2862 235.899C75.1473 232.682 68.2599 231.088 61.3025 231.276C57.3414 231.306 53.4253 232.102 49.7786 233.62C46.1318 235.137 42.8263 237.346 40.0514 240.119C38.0712 242.247 36.553 244.748 35.5893 247.47C34.6256 250.192 34.2365 253.078 34.4456 255.952C34.7069 260.349 36.0104 264.625 38.2525 268.441C40.4947 272.256 43.6136 275.506 47.361 277.931C50.2137 279.585 53.4867 280.409 56.7984 280.307C60.1101 280.205 63.3241 279.182 66.0656 277.356C69.2295 275.593 71.8359 273.007 73.5976 269.884C75.3593 266.76 76.2079 263.22 76.05 259.654C76.05 259.295 76.05 258.971 75.9217 258.63C75.7164 257.396 75.366 256.19 74.8775 255.035C81.8574 257.551 92.0799 264.021 95.0294 280.196C95.1599 280.953 95.5882 281.629 96.222 282.08C96.8559 282.53 97.6446 282.719 98.4185 282.604Z" fill="#FFEEBF"/>
<path d="M9.29341 360.171C10.0212 360.057 10.6809 359.685 11.147 359.125C11.6132 358.565 11.8532 357.856 11.8216 357.134C10.8689 337.06 20.1571 321.891 39.4296 312.043C48.8056 307.378 58.9328 304.338 69.3643 303.057C69.7703 303.041 70.1689 302.945 70.5355 302.773C70.9022 302.601 71.2292 302.357 71.4966 302.057C71.764 301.757 71.9662 301.407 72.0907 301.027C72.2152 300.648 72.2595 300.247 72.2208 299.851C72.1821 299.454 72.0612 299.069 71.8656 298.719C71.67 298.37 71.4038 298.063 71.0832 297.818C70.7626 297.574 70.3945 297.395 70.0013 297.295C69.608 297.194 69.1981 297.174 68.7964 297.234C57.5935 298.565 46.7167 301.82 36.6633 306.849C15.4672 317.632 4.80505 335.172 5.8676 357.404C5.88404 357.788 5.97783 358.165 6.14356 358.513C6.3093 358.861 6.54371 359.174 6.83324 359.433C7.12278 359.692 7.46167 359.892 7.83047 360.022C8.19927 360.152 8.59063 360.209 8.98195 360.189L9.29341 360.171Z" fill="#FFEEBF"/>
<path d="M46.2578 368.708C49.8538 368.128 53.1108 366.281 55.4177 363.514C57.0751 361.565 58.1592 359.21 58.553 356.702C58.9469 354.194 58.6356 351.628 57.6527 349.28C56.5028 346.834 54.5214 344.856 52.0481 343.686C49.5748 342.515 46.7636 342.225 44.096 342.864C42.6709 343.309 41.3611 344.052 40.2572 345.042C39.1534 346.032 38.2817 347.245 37.7024 348.597C37.1282 349.836 36.8387 351.183 36.8545 352.543C36.8704 353.903 37.1911 355.244 37.794 356.469C38.1832 357.103 38.8025 357.568 39.5274 357.773C40.2523 357.977 41.0292 357.905 41.7019 357.57C42.3746 357.236 42.8934 356.664 43.154 355.969C43.4146 355.275 43.3977 354.51 43.1068 353.827C42.8998 353.369 42.7928 352.873 42.7928 352.371C42.7928 351.87 42.8998 351.374 43.1068 350.916C43.3369 350.351 43.6885 349.843 44.1374 349.424C44.5864 349.005 45.1222 348.686 45.7082 348.489C46.9928 348.235 48.3273 348.415 49.4947 348.999C50.6621 349.583 51.5938 350.537 52.1384 351.706C52.6639 353.055 52.8102 354.517 52.5621 355.94C52.3139 357.362 51.6804 358.694 50.7278 359.794C49.9317 360.758 48.9347 361.544 47.8035 362.098C46.6723 362.653 45.4332 362.964 44.1693 363.011C42.3639 362.866 40.6113 362.341 39.0307 361.473C37.4502 360.605 36.0787 359.413 35.0094 357.979C31.3262 353.487 29.122 348.002 28.689 342.253C28.2785 336.333 29.1141 330.393 31.1439 324.803L31.4004 324.012C33.0309 319.231 34.7163 314.307 38.5451 312.402C39.2521 312.052 39.7882 311.44 40.0356 310.702C40.2829 309.964 40.2213 309.16 39.8642 308.466C39.507 307.773 38.8837 307.247 38.1313 307.004C37.3789 306.761 36.559 306.822 35.8521 307.172C29.8432 310.173 27.6631 316.535 25.7578 322.161L25.483 322.933C23.2052 329.271 22.2762 335.999 22.7534 342.702C23.2947 349.648 25.9784 356.268 30.4477 361.681C32.756 364.359 37.5925 368.87 44.1876 368.78C44.8785 368.809 45.5707 368.785 46.2578 368.708Z" fill="#FFEEBF"/>
<path d="M53.6986 380.3C54.0925 380.235 54.4712 380.101 54.8162 379.904C59.671 376.975 65.0753 373.38 67.6401 367.647C68.9761 364.501 69.6311 361.117 69.5637 357.709C69.68 354.841 69.3401 351.973 68.5561 349.208C67.1282 344.437 64.0044 340.325 59.7512 337.619C55.498 334.913 50.3972 333.792 45.3737 334.46C40.3503 335.127 35.737 337.538 32.3707 341.257C29.0043 344.975 27.1077 349.753 27.0249 354.726C26.9861 355.127 27.0322 355.532 27.1605 355.916C27.2887 356.299 27.4963 356.652 27.7703 356.953C28.0442 357.254 28.3785 357.497 28.7524 357.665C29.1262 357.833 29.5314 357.924 29.9426 357.931C30.3538 357.939 30.7621 357.863 31.142 357.708C31.5219 357.553 31.8651 357.323 32.1502 357.033C32.4353 356.742 32.656 356.396 32.7986 356.018C32.9412 355.639 33.0026 355.236 32.9789 354.833C33.0402 351.26 34.4046 347.825 36.8247 345.154C39.2448 342.482 42.5605 340.748 46.171 340.268C49.7815 339.788 53.448 340.592 56.5059 342.536C59.5639 344.479 61.8111 347.433 62.8403 350.862C63.4428 353.063 63.7022 355.341 63.6097 357.619C63.6801 360.221 63.1998 362.81 62.1991 365.221C60.2389 369.462 55.7139 372.41 51.6102 374.908C51.0261 375.262 50.5842 375.802 50.3588 376.439C50.1334 377.075 50.1383 377.768 50.3727 378.401C50.6072 379.034 51.0568 379.568 51.6459 379.914C52.235 380.26 52.9276 380.396 53.6071 380.3H53.6986Z" fill="#FFEEBF"/>
<path d="M45.8777 308.178C46.3174 308.178 46.757 308.034 47.1967 307.927C47.9367 307.729 48.5709 307.26 48.968 306.617C49.3651 305.973 49.4947 305.205 49.3298 304.47C49.165 303.735 48.7184 303.091 48.0825 302.671C47.4467 302.25 46.6703 302.086 45.9143 302.212C43.8191 302.669 41.6429 302.631 39.5659 302.099C37.4888 301.568 35.5705 300.559 33.9698 299.156C32.4533 297.751 31.3465 295.974 30.7636 294.009C30.1807 292.044 30.1429 289.962 30.6539 287.978C30.8731 286.995 31.3681 286.093 32.0828 285.372C33.2064 284.563 34.5034 284.016 35.8751 283.772C36.9819 283.445 38.1271 283.257 39.2825 283.215C40.4574 283.23 41.5997 283.596 42.5568 284.265C43.5138 284.933 44.2401 285.872 44.6384 286.957C45.0367 288.041 45.0881 289.219 44.7858 290.333C44.4835 291.447 43.8418 292.443 42.9465 293.19C42.5424 293.548 42.0497 293.796 41.5175 293.909C40.2352 294.034 38.4215 292.255 37.5604 291.41C37.2838 291.134 36.9539 290.914 36.5898 290.763C36.2258 290.612 35.8349 290.534 35.4398 290.532C35.0447 290.531 34.6532 290.606 34.288 290.754C33.9228 290.902 33.5913 291.12 33.3125 291.395C33.0337 291.669 32.8132 291.996 32.6639 292.355C32.5145 292.713 32.4393 293.098 32.4425 293.485C32.4457 293.873 32.5273 294.256 32.6825 294.613C32.8378 294.969 33.0636 295.292 33.3469 295.562C34.9774 297.143 38.0185 300.127 42.1038 299.731C43.8457 299.517 45.4805 298.79 46.7937 297.647C48.6153 296.139 49.9251 294.122 50.5487 291.865C51.1722 289.609 51.0799 287.219 50.2839 285.015C49.4879 282.811 48.0261 280.897 46.0934 279.529C44.1606 278.161 41.8487 277.403 39.4657 277.356C37.7656 277.386 36.0773 277.64 34.4461 278.111C32.1154 278.569 29.9372 279.588 28.1074 281.077C26.5784 282.555 25.4999 284.422 24.993 286.468C24.2043 289.483 24.2502 292.65 25.1262 295.642C26.0022 298.634 27.6765 301.343 29.976 303.488C32.1075 305.375 34.6395 306.775 37.3894 307.586C40.1393 308.397 43.0385 308.6 45.8777 308.178Z" fill="#FFEEBF"/>
<path d="M67.9326 237.28C68.6468 237.17 69.2959 236.809 69.7598 236.265C70.2236 235.721 70.4706 235.031 70.455 234.322C70.4393 233.613 70.1621 232.934 69.6746 232.41C69.1872 231.887 68.5227 231.554 67.8044 231.475C66.1395 231.299 64.5287 230.791 63.0714 229.982C61.614 229.173 60.3407 228.08 59.3299 226.77C58.3192 225.461 57.5923 223.962 57.194 222.366C56.7958 220.771 56.7344 219.112 57.014 217.492C57.2369 215.833 57.9794 214.282 59.1391 213.053C60.5039 211.92 62.1044 211.092 63.829 210.627C65.2775 210.081 66.821 209.819 68.3723 209.854C69.3876 209.978 70.3475 210.377 71.1441 211.007C71.9407 211.637 72.5423 212.472 72.8812 213.419C73.2201 214.366 73.2828 215.387 73.0624 216.367C72.8419 217.347 72.3469 218.247 71.6332 218.966C71.1151 219.531 70.3912 219.873 69.618 219.919C69.3753 219.895 69.1518 219.779 68.9952 219.595C68.9805 218.88 68.8094 218.176 68.4933 217.531C68.1772 216.886 67.7236 216.315 67.1632 215.857C66.7529 215.588 66.2915 215.404 65.8068 215.314C65.322 215.225 64.8237 215.232 64.3419 215.336C63.7927 215.457 63.2897 215.728 62.8918 216.118C62.4938 216.509 62.2173 217.002 62.0944 217.541C61.9715 218.08 62.0073 218.642 62.1976 219.162C62.388 219.681 62.725 220.137 63.1695 220.476C63.4382 221.902 64.1875 223.198 65.2971 224.156C66.4067 225.114 67.8123 225.679 69.2883 225.76C70.5018 225.793 71.709 225.576 72.8322 225.124C73.9554 224.673 74.9698 223.995 75.8102 223.136C77.368 221.65 78.4602 219.758 78.9583 217.683C79.4563 215.609 79.3394 213.438 78.6212 211.426C77.903 209.414 76.6136 207.646 74.9048 206.33C73.1961 205.013 71.1392 204.203 68.9768 203.996C66.6017 203.865 64.225 204.22 61.997 205.038C59.3883 205.766 56.9868 207.076 54.9805 208.866C52.9155 210.943 51.5805 213.613 51.1699 216.486C50.7668 218.891 50.8665 221.351 51.463 223.717C52.0595 226.083 53.1404 228.305 54.6398 230.249C56.1392 232.192 58.0259 233.816 60.1851 235.021C62.3443 236.227 64.7309 236.989 67.1998 237.262C67.4428 237.292 67.6884 237.298 67.9326 237.28Z" fill="#FFEEBF"/>
<path d="M72.0163 209.71C72.2813 209.672 72.5401 209.599 72.7857 209.495C74.3172 208.829 75.6931 207.862 76.8282 206.654C77.9632 205.445 78.8334 204.021 79.3847 202.469C79.9359 200.918 80.1566 199.272 80.0331 197.633C79.9095 195.994 79.4444 194.398 78.6664 192.943C78.1414 192.008 77.528 191.123 76.8344 190.301C75.4904 188.167 73.4914 186.506 71.1247 185.556C68.758 184.607 66.1454 184.418 63.6624 185.017C61.9297 185.274 60.3118 186.024 59.0092 187.174C58.2326 187.973 57.6614 188.943 57.3428 190.003C57.0242 191.062 56.9674 192.181 57.1772 193.266C57.546 195.141 58.5227 196.85 59.9618 198.136C60.5376 198.67 61.3059 198.958 62.0978 198.936C62.8898 198.914 63.6404 198.584 64.1845 198.02C64.7287 197.455 65.0219 196.701 64.9996 195.924C64.9772 195.147 64.6412 194.411 64.0655 193.877C63.5665 193.461 63.214 192.901 63.0579 192.278C63.0225 192.117 63.0221 191.95 63.0568 191.789C63.0916 191.628 63.1606 191.476 63.2594 191.343C63.7261 191.039 64.2599 190.848 64.8166 190.786C65.6783 190.573 66.5726 190.518 67.4546 190.624C69.3789 191.145 71.0453 192.332 72.1445 193.967C72.6045 194.491 73.0039 195.064 73.3353 195.674C73.7288 196.423 73.964 197.242 74.027 198.082C74.09 198.922 73.9793 199.766 73.7017 200.563C73.4086 201.353 72.9579 202.077 72.376 202.694C71.7941 203.312 71.0926 203.809 70.3125 204.157C69.6683 204.455 69.1539 204.969 68.8622 205.607C68.5706 206.245 68.5209 206.964 68.7222 207.634C68.9234 208.304 69.3624 208.882 69.9597 209.263C70.5571 209.644 71.2735 209.802 71.9797 209.71H72.0163Z" fill="#FFEEBF"/>
<path d="M76.6136 300.145C76.9808 300.088 77.3346 299.966 77.6578 299.785C78.3446 299.401 78.8479 298.765 79.0574 298.017C79.2669 297.269 79.1654 296.47 78.7753 295.796C77.2846 293.231 76.5846 290.296 76.7601 287.349C76.7736 286.916 76.8476 286.486 76.98 286.073C77.2738 285.487 77.7312 284.994 78.299 284.653C79.3243 283.891 80.5756 283.478 81.8622 283.478C83.1488 283.478 84.4001 283.891 85.4254 284.653C85.9342 285.124 86.2893 285.732 86.4458 286.4C86.6023 287.069 86.5533 287.768 86.3048 288.409C86.0423 288.893 85.6206 289.275 85.1083 289.494C84.596 289.713 84.0233 289.755 83.4835 289.613C82.7612 289.344 81.9606 289.36 81.2499 289.657C80.5392 289.955 79.9739 290.512 79.6726 291.21C79.3714 291.908 79.3577 292.693 79.6345 293.401C79.9113 294.109 80.457 294.684 81.1569 295.005C83.1105 295.735 85.2713 295.723 87.2163 294.971C89.1613 294.22 90.7505 292.784 91.6725 290.943C92.4658 289.19 92.6874 287.238 92.307 285.356C91.9266 283.474 90.9628 281.754 89.5474 280.43C87.528 278.725 84.9782 277.743 82.3156 277.645C79.653 277.547 77.0354 278.339 74.8915 279.891C73.3481 280.889 72.1427 282.315 71.429 283.988C71.0665 284.963 70.8625 285.988 70.8245 287.025C70.5889 291.107 71.5555 295.168 73.6091 298.725C73.9109 299.226 74.3574 299.629 74.8921 299.881C75.4268 300.134 76.0258 300.226 76.6136 300.145Z" fill="#FFEEBF"/>
</g>
<defs>
<filter id="filter0_d_1324_3225" x="197.805" y="0.579102" width="278.258" height="455.616" filterUnits="userSpaceOnUse" color-interpolation-filters="sRGB">
<feFlood flood-opacity="0" result="BackgroundImageFix"/>
<feColorMatrix in="SourceAlpha" type="matrix" values="0 0 0 0 0 0 0 0 0 0 0 0 0 0 0 0 0 0 127 0" result="hardAlpha"/>
<feOffset dy="4"/>
<feGaussianBlur stdDeviation="2"/>
<feComposite in2="hardAlpha" operator="out"/>
<feColorMatrix type="matrix" values="0 0 0 0 0 0 0 0 0 0 0 0 0 0 0 0 0 0 0.1 0"/>
<feBlend mode="normal" in2="BackgroundImageFix" result="effect1_dropShadow_1324_3225"/>
<feBlend mode="normal" in="SourceGraphic" in2="effect1_dropShadow_1324_3225" result="shape"/>
</filter>
<filter id="filter1_d_1324_3225" x="0.640625" y="138.11" width="212.355" height="346.464" filterUnits="userSpaceOnUse" color-interpolation-filters="sRGB">
<feFlood flood-opacity="0" result="BackgroundImageFix"/>
<feColorMatrix in="SourceAlpha" type="matrix" values="0 0 0 0 0 0 0 0 0 0 0 0 0 0 0 0 0 0 127 0" result="hardAlpha"/>
<feOffset dy="4"/>
<feGaussianBlur stdDeviation="2"/>
<feComposite in2="hardAlpha" operator="out"/>
<feColorMatrix type="matrix" values="0 0 0 0 0 0 0 0 0 0 0 0 0 0 0 0 0 0 0.1 0"/>
<feBlend mode="normal" in2="BackgroundImageFix" result="effect1_dropShadow_1324_3225"/>
<feBlend mode="normal" in="SourceGraphic" in2="effect1_dropShadow_1324_3225" result="shape"/>
</filter>
</defs>
</svg>
