<svg width="1366" height="214" viewBox="0 0 1366 214" fill="none" xmlns="http://www.w3.org/2000/svg">
<path fill-rule="evenodd" clip-rule="evenodd" d="M273.027 251.659L-78.9845 237.856C-81.1663 237.771 -83.1289 237.462 -84.4419 236.999C-85.755 236.535 -86.3113 235.955 -85.9889 235.384V235.384C-84.1072 232.106 -86.0182 227.971 -89.6206 226.826C-98.0161 224.157 -106.132 219.243 -99.5377 210.718C-89.8172 198.296 -81.2055 179.244 -80.2909 177.22L-80.2312 177.088L-80.2168 177.057V177.057C-80.2134 177.05 -80.2116 177.042 -80.2116 177.034V176.956C-80.2116 176.851 -80.1749 176.755 -80.1078 176.675C-79.1531 175.528 -73.372 167.14 -97.1619 163.363C-98.5701 163.216 -99.9732 163.064 -101.371 162.909C-102.401 162.784 -103.311 162.606 -104.057 162.389C-116.213 160.476 -125.319 156.895 -129.958 152.18C-138.803 143.2 -132.413 127.821 -88.1364 111.613C-34.3799 91.9492 175.425 20.1394 223.788 3.60493C224.677 3.30129 225.324 2.71525 225.785 1.89765V1.89765C226.049 1.41971 226.917 0.978606 228.252 0.644479C229.586 0.310352 231.309 0.102405 233.147 0.0537156C234.503 0.0139331 235.875 0.0644991 237.135 0.200698C238.494 0.175029 239.857 0.229832 241.123 0.361035C242.846 0.543983 244.285 0.872239 245.211 1.29353C246.137 1.71483 246.498 2.20499 246.236 2.68604V2.68604C245.827 3.44913 245.984 4.34958 246.691 4.84885C275.134 24.9302 393.953 108.894 423.136 131.696C437.903 143.257 439.441 153.433 434.17 161.405C433.835 161.912 433.617 162.486 433.51 163.084V163.084C433.464 163.369 433.202 163.65 432.74 163.908V163.908C432.211 164.204 431.685 164.514 431.259 164.944C427.795 168.43 422.994 171.381 417.563 173.706C406.929 178.235 392.715 181.068 377.531 181.723C346.044 182.976 342.645 192.805 342.414 193.473V193.473C342.409 193.487 342.409 193.502 342.412 193.517C342.425 193.564 342.428 193.612 342.422 193.66C342.416 193.711 342.397 193.759 342.37 193.803C342.266 193.975 341.94 194.459 341.442 195.201C338.147 200.102 327.305 216.23 323.08 227.407C319.532 236.778 304.402 240.779 292.906 242.475C288.76 243.086 285.037 245.442 282.972 249.089V249.089C282.648 249.661 282.282 250.234 281.692 250.526C281.072 250.832 280.175 251.098 279.066 251.299C277.305 251.617 275.142 251.746 273.027 251.659ZM404.355 137.474C407.661 138.587 410.034 135.235 407.287 133.085V133.085C402.198 129.108 394.37 123.26 384.763 116.209C383.391 115.203 381.023 116.02 379.765 117.165V117.165C377.32 119.389 372.647 121.403 366.23 122.998C361.406 124.136 355.847 125.035 349.825 125.656C349.779 125.661 349.778 125.731 349.824 125.737V125.737C351.581 125.971 353.22 126.232 354.754 126.517C375.164 129.551 391.75 133.227 404.355 137.474ZM348.256 94.1634C350.059 92.971 352.464 92.7647 354.217 94.0285C355.129 94.6854 356.035 95.339 356.936 95.989C360.2 98.3436 357.773 104.341 353.755 104.131V104.131C349.202 103.78 344.491 103.592 339.746 103.569C333.095 103.604 326.643 104.167 321.249 105.185C315.855 106.202 311.776 107.625 309.554 109.263C307.333 110.902 307.075 112.679 308.815 114.357C310.556 116.034 314.211 117.534 319.295 118.655C322.96 119.505 327.522 120.045 332.383 120.205C343.699 120.497 352.144 118.314 356.719 117.132L356.822 117.105C357.613 116.904 358.243 116.664 358.676 116.399C359.11 116.134 359.337 115.849 359.346 115.561C359.355 115.273 359.145 114.987 358.728 114.72C358.312 114.453 357.696 114.211 356.918 114.007C356.14 113.802 355.215 113.641 354.196 113.531C353.177 113.42 352.084 113.364 350.981 113.365C349.879 113.367 348.788 113.425 347.772 113.537C346.756 113.649 345.835 113.813 345.063 114.018C342.66 114.646 337.598 115.969 334.02 115.876C332.534 115.792 331.159 115.607 330.032 115.341C327.533 114.786 325.742 114.045 324.898 113.217C324.055 112.389 324.198 111.513 325.31 110.707C326.422 109.901 328.448 109.203 331.119 108.705C333.79 108.208 336.978 107.936 340.257 107.925C343.482 107.957 346.678 108.096 349.767 108.34C353.595 108.52 357.214 108.927 360.35 109.529C362.345 110.065 363.726 110.736 364.338 111.466C365.764 112.941 365.658 114.489 364.032 115.95C362.405 117.411 359.316 118.732 355.084 119.777C350.616 120.82 345.263 121.57 339.466 121.965C333.67 122.36 327.596 122.389 321.749 122.049V122.049C319.187 121.935 316.614 121.99 314.059 121.757C296.742 120.177 278.823 119.063 260.58 118.437C259.614 118.318 258.636 118.206 257.646 118.1C257.233 118.055 256.819 118.012 256.403 117.97C253.763 117.703 252.791 113.351 252.229 110.758V110.758C252.123 109.987 251.554 109.225 250.542 108.5C248.55 107.256 245.186 106.195 240.879 105.453C234.895 104.299 227.59 103.711 220.159 103.783C212.729 103.856 205.613 104.586 199.977 105.854C196.027 106.838 193.337 108.118 192.275 109.517C191.214 110.916 191.832 112.367 194.046 113.671C196.619 115.039 201.054 116.107 206.483 116.666C211.911 117.224 217.941 117.233 223.393 116.691C225.346 116.452 226.869 116.024 227.642 115.498C228.414 114.972 228.376 114.388 227.536 113.869C226.695 113.35 225.117 112.936 223.134 112.715C221.15 112.493 218.916 112.482 216.9 112.682C215.394 112.787 213.795 112.756 212.366 112.593C211.778 112.526 211.233 112.439 210.744 112.334C209.568 112.082 207.839 111.197 208.633 110.293V110.293C209.07 109.796 210.061 109.344 211.481 108.994C214.342 108.427 217.834 108.12 221.425 108.12C225.015 108.12 228.508 108.427 231.369 108.994C232.378 109.156 233.263 109.363 233.984 109.605C234.713 109.849 235.574 110.234 235.664 110.998V110.998V110.998C236.815 116.148 228.231 116.816 222.958 116.986C208.229 117.46 194.143 118.892 182.018 121.166V121.166C179.621 121.597 177.754 119.016 178.969 116.905L186.328 104.111C186.762 103.355 187.292 102.655 187.952 102.086C198.098 93.3295 220.1 89.239 237.133 87.3631C238.08 87.2589 238.61 88.7287 238.082 89.521V89.521C238.016 89.6205 237.947 89.6774 237.862 89.7608C237.729 89.8903 237.677 90.0179 237.657 90.1491C237.63 90.3194 237.626 90.4927 237.61 90.6643C237.358 93.2287 239.73 95.7659 244.488 98.0132C249.404 100.335 256.678 102.258 265.508 103.569C273.159 104.926 282.129 105.687 291.371 105.763C300.613 105.838 309.747 105.226 317.709 103.997C328.167 102.193 336.871 99.7772 343.129 96.9402C345.101 96.046 346.813 95.1178 348.256 94.1634ZM339.845 129.358C341.841 129.63 343.8 129.907 345.72 130.19C354.058 131.87 358.214 135.106 362.248 138.257L362.964 138.845C368.629 143.001 370.961 147.418 369.815 151.819V151.819C369.332 153.53 367.244 153.895 365.607 153.204C363.833 152.456 361.808 151.744 359.544 151.078C350.149 148.314 337.275 146.521 323.255 146.025C309.236 145.528 295 146.362 283.13 148.374C271.261 150.385 262.543 153.442 258.558 156.99C258.454 157.087 258.353 157.185 258.256 157.282C255.06 160.466 255.404 166.146 258.846 169.061C259.501 169.615 260.257 170.162 261.114 170.699V170.699C261.74 171.072 261.398 172.282 260.676 172.189C240.996 169.658 221.736 165.988 205.642 160.692C205.403 160.628 205.15 160.568 204.885 160.513C182.906 152.919 170.75 145.987 168.033 139.524C167.356 137.914 167.908 136.133 168.779 134.618L169.33 133.661C169.517 133.336 169.827 133.078 169.952 132.725V132.725C169.995 132.563 170.06 132.403 170.144 132.246L170.228 132.099C172.39 128.591 184.326 125.97 191.426 124.707C203.065 122.516 216.919 121.27 231.254 121.126C236.964 121.079 242.653 121.295 248.063 121.76C249.73 121.904 251.374 122.259 253.034 122.466V122.466C254.011 122.588 255.07 122.659 256.15 122.675C260.429 123.284 264.344 124.059 267.759 124.975C273.931 126.854 278.14 129.119 279.978 131.549C281.358 132.993 281.858 134.486 281.461 135.972C280.771 137.84 278.044 139.618 273.604 141.094C269.163 142.569 263.195 143.681 256.408 144.296C249.732 144.79 242.62 144.699 236.158 144.038C229.697 143.377 224.24 142.182 220.619 140.635C218.506 139.649 217.396 138.538 217.396 137.408C217.396 136.278 218.506 135.167 220.619 134.181C222.77 133.284 225.907 132.577 229.619 132.152C233.331 131.728 237.447 131.606 241.428 131.803C245.067 132.048 248.271 132.614 250.498 133.405C251.277 133.682 251.919 133.98 252.417 134.293C253.741 135.125 253.178 136.875 251.734 137.473V137.473C250.758 137.878 249.479 138.226 247.972 138.497C246.696 138.756 245.23 138.944 243.665 139.05C242.1 139.156 240.469 139.177 238.872 139.112C237.777 139.038 236.636 139.022 235.518 139.067C234.4 139.112 233.328 139.216 232.369 139.373C231.41 139.529 230.582 139.735 229.938 139.978C229.293 140.221 228.844 140.496 228.618 140.785C228.392 141.075 228.394 141.374 228.624 141.663C228.854 141.952 229.307 142.227 229.955 142.469C230.604 142.711 231.434 142.916 232.396 143.072C233.357 143.227 234.43 143.33 235.548 143.374C239.4 143.564 243.359 143.543 247.178 143.313C250.997 143.083 254.593 142.649 257.738 142.038C261.107 141.419 263.95 140.625 266.088 139.705C266.193 139.66 266.296 139.614 266.398 139.568C269.321 138.251 270.652 134.567 267.979 132.795C267.003 132.148 265.723 131.529 264.155 130.954C259.614 129.287 252.954 128.096 245.365 127.594C237.977 127.188 230.29 127.385 223.343 128.156C216.395 128.928 210.519 130.238 206.508 131.91C202.807 133.545 200.799 135.405 200.682 137.305C200.566 139.205 202.345 141.08 205.844 142.746C209.465 144.387 214.476 145.79 220.494 146.846C226.512 147.902 233.376 148.584 240.559 148.839C247.438 149.123 254.472 149.009 261.163 148.505C271.155 147.646 279.968 146.043 286.517 143.892C293.067 141.741 297.067 139.137 298.026 136.399C298.608 134.462 298.004 132.514 296.236 130.627V130.627C294.881 128.882 296.018 124.824 298.221 124.998C312.533 126.127 326.463 127.584 339.845 129.358ZM305.85 176.098C306.591 176.217 307.336 176.332 308.085 176.373C338.984 178.043 364.835 177.657 372.921 177.475C373.619 177.44 374.321 177.408 375.025 177.38C385.251 176.966 395.476 174.855 403.299 171.434C407.916 169.46 412.004 166.965 415.017 164.015C416.434 162.627 417.256 160.671 416.877 158.723C415.14 149.806 402.205 142.334 378.249 136.381C377.951 136.307 377.754 136.691 377.995 136.881V136.881L378.762 137.455C385.119 142.167 387.712 147.17 386.38 152.153C384.869 157.318 377.38 162.239 364.907 166.264C358.465 168.255 344.967 171.608 326.561 171.542C324.633 171.564 322.701 171.546 320.784 171.488C310.748 171.057 301.659 169.684 295.22 167.627C290.595 166.178 287.569 164.427 286.47 162.562C285.371 160.697 286.24 158.789 288.983 157.044C292.192 155.225 297.722 153.755 304.624 152.884C311.527 152.014 319.372 151.798 326.817 152.274C330.794 152.604 334.45 153.157 337.53 153.893C340.611 154.629 343.044 155.531 344.66 156.536C346.263 157.457 347.071 158.458 347.027 159.47C346.982 160.481 346.087 161.478 344.405 162.389C343.318 162.86 341.59 163.206 339.567 163.358C337.544 163.51 335.376 163.456 333.499 163.207C331.621 162.959 330.173 162.534 329.446 162.017C328.719 161.501 328.766 160.932 329.578 160.425C330.156 160.084 330.454 159.715 330.454 159.342C330.454 158.969 330.156 158.601 329.578 158.26C328.936 157.84 327.954 157.462 326.702 157.151C325.449 156.839 323.953 156.602 322.318 156.456C318.733 156.267 315.008 156.401 311.75 156.835C308.492 157.269 305.892 157.978 304.372 158.848C302.906 159.85 302.497 160.937 303.19 161.995C303.883 163.053 305.651 164.043 308.309 164.861C310.531 165.577 313.313 166.162 316.47 166.574C319.627 166.987 323.085 167.218 326.612 167.252C331.651 167.145 336.542 166.755 340.953 166.109C345.364 165.464 349.192 164.578 352.176 163.511C354.195 162.855 356.054 162.171 357.748 161.462C357.805 161.438 357.835 161.377 357.833 161.316V161.316L357.833 161.305C357.833 161.3 357.833 161.296 357.833 161.292L357.833 161.281L357.834 161.269C357.834 161.262 357.835 161.254 357.835 161.247L357.837 161.232L357.838 161.226C357.839 161.218 357.84 161.211 357.841 161.203L357.844 161.186V161.186C357.846 161.177 357.847 161.168 357.846 161.159C357.663 158.507 353.856 155.959 347.114 153.975C340.36 151.989 331.106 150.7 321.03 150.343C310.954 149.986 300.722 150.584 292.187 152.029C283.653 153.474 277.382 155.67 274.509 158.219V158.219C271.805 160.852 272.072 165.644 275.027 167.992C275.411 168.296 275.835 168.598 276.299 168.896C281.769 172.049 294.398 174.24 305.85 176.098V176.098ZM-62.6238 170.566V170.566C-63.1466 168.996 -62.2307 166.224 -60.5789 166.319C-54.8624 166.651 -49.0956 166.926 -43.2904 167.145C-33.9225 167.513 -23.751 167.768 -13.0308 167.819C-10.5701 167.831 -8.11983 168.216 -5.66606 168.401V168.401C-1.75014 168.868 1.35173 169.703 3.02556 170.739C7.97118 172.968 10.0164 175.556 8.85406 178.115C8.25824 179.284 6.64987 180.401 4.15137 181.383C1.65288 182.365 -1.66983 183.185 -5.56378 183.78C-9.18816 184.294 -13.3098 184.519 -17.4177 184.426C-21.5256 184.333 -25.4392 183.928 -28.6733 183.259C-30.7279 182.735 -32.4313 182.129 -33.7267 181.467C-35.2098 180.709 -37.3123 179.663 -36.9994 178.027V178.027C-36.8674 177.337 -36.1912 176.662 -35.0131 176.044C-33.7827 175.537 -31.9347 175.153 -29.7673 174.954C-27.5999 174.755 -25.2392 174.752 -23.0658 174.947C-20.8923 175.141 -19.0328 175.521 -17.7869 176.026C-16.5411 176.53 -15.9814 177.13 -16.1983 177.727C-16.299 178.012 -16.1838 178.3 -15.8593 178.574C-15.5348 178.847 -15.0074 179.101 -14.3071 179.321C-13.6068 179.542 -12.7474 179.724 -11.778 179.857C-10.8085 179.991 -9.748 180.073 -8.65696 180.099C-7.56592 180.125 -6.46576 180.095 -5.41922 180.01C-4.37268 179.926 -3.4003 179.788 -2.55759 179.605C-1.71489 179.422 -1.01843 179.197 -0.507858 178.944C0.00271606 178.691 0.317383 178.413 0.418091 178.128C0.963989 176.56 -0.520691 174.99 -3.79785 173.668C-7.07503 172.347 -11.9548 171.352 -17.6549 170.842C-23.355 170.332 -29.5452 170.337 -35.233 170.856C-40.9207 171.375 -45.7766 172.379 -49.0219 173.705C-51.505 174.836 -53.0357 176.091 -53.5119 177.389C-53.988 178.686 -53.3985 179.995 -51.7829 181.228C-49.7486 183.246 -45.5645 185.072 -39.7168 186.493C-34.5994 187.649 -28.316 188.396 -21.6177 188.644C-13.4815 188.972 -5.15659 188.617 2.1564 187.629C8.36166 186.721 13.6777 185.45 17.6873 183.915C21.697 182.38 24.291 180.624 25.2659 178.783C26.9984 175.277 24.2867 171.719 17.5457 168.655V168.655C17.0032 168.348 17.1848 167.398 17.8076 167.377C21.413 167.253 25.049 167.101 28.708 166.918C31.6452 166.772 34.3717 172.852 34.8353 175.756C35.0388 177.031 35.5213 178.265 36.1465 179.413C37.5449 181.981 36.5732 185.631 33.8394 186.667C27.1723 189.195 24.3292 192.279 23.135 194.512C22.2257 196.212 21.7914 198.183 20.8315 199.855L16.7035 207.046C11.7326 215.705 3.78006 222.265 -6.13742 223.422C-25.3382 225.662 -53.9377 225.814 -69.5014 225.558C-70.3795 225.544 -71.2377 225.47 -72.0995 225.301C-76.0146 224.533 -83.3062 222.564 -84.8842 218.326C-85.1345 217.653 -84.6292 217.002 -83.9432 216.792V216.792C-83.2348 216.574 -82.6974 216.322 -82.3617 216.05C-78.5272 212.87 -62.0642 211.079 -50.4072 211.68C-47.0556 211.85 -44.4422 212.188 -42.5773 212.691C-39.2224 213.595 -40.404 217.344 -43.783 218.153C-43.8395 218.167 -43.8965 218.18 -43.9539 218.194C-46.541 218.794 -49.8628 219.133 -53.3214 219.15C-54.5068 219.187 -55.7089 219.159 -56.851 219.068C-57.9931 218.978 -59.05 218.825 -59.9545 218.622C-60.8589 218.418 -61.5909 218.167 -62.1038 217.885V217.885C-62.842 217.48 -63.1194 216.546 -63.8761 216.176C-63.8994 216.165 -63.9231 216.154 -63.9472 216.142C-64.502 215.882 -65.2548 215.655 -66.159 215.474C-67.0632 215.293 -68.0997 215.162 -69.2046 215.09C-70.3094 215.018 -71.4592 215.006 -72.5828 215.054C-73.7065 215.103 -74.7802 215.211 -75.7376 215.372C-76.6951 215.533 -77.516 215.744 -78.1497 215.991C-78.7834 216.239 -79.2164 216.517 -79.422 216.81V216.81C-79.7913 217.336 -79.2419 218.022 -78.8065 218.494C-77.7707 219.619 -75.606 220.656 -72.5111 221.496C-68.6932 222.533 -63.673 223.211 -58.2297 223.426C-56.3289 223.482 -54.413 223.496 -52.5034 223.466C-45.0051 223.389 -37.8584 222.615 -32.3545 221.282C-26.8506 219.949 -23.3523 218.145 -22.4917 216.197V216.197C-22.0872 214.943 -21.3438 213.163 -20.035 213.012C-15.9577 212.544 -12.0875 211.954 -8.50319 211.253C-2.11185 210.004 3.23581 208.426 7.21219 206.617C11.1277 204.779 12.7404 202.666 11.8233 200.576C10.9062 198.486 7.50549 196.524 2.09946 194.965C-9.91545 191.184 -30.0596 189.246 -44.7842 190.462C-50.2464 190.952 -54.9909 191.874 -58.3615 193.1C-59.152 193.387 -59.8578 193.688 -60.4756 193.999C-63.3015 195.425 -63.86 199.348 -61.2391 201.123C-61.1209 201.203 -60.9984 201.282 -60.8717 201.361C-58.8198 202.644 -55.6994 203.791 -51.7375 204.719C-48.5821 205.5 -44.7658 206.076 -40.5991 206.398C-36.4324 206.721 -32.033 206.782 -27.7588 206.577C-23.1818 206.371 -18.9199 205.832 -15.4645 205.021C-12.009 204.21 -9.50056 203.161 -8.22827 201.994C-7.88308 201.709 -7.76538 201.409 -7.88243 201.112C-7.99949 200.815 -8.34879 200.528 -8.90871 200.268C-9.46863 200.007 -10.2272 199.78 -11.1373 199.6C-12.0474 199.419 -13.0896 199.29 -14.1993 199.219C-15.309 199.149 -16.4623 199.138 -17.5878 199.189C-18.7134 199.24 -19.787 199.35 -20.7421 199.514C-21.6972 199.678 -22.5134 199.891 -23.1399 200.14V200.14C-24.0663 200.509 -24.8192 201.264 -25.7731 201.554C-26.1419 201.667 -26.5546 201.769 -27.0057 201.861C-28.162 202.095 -29.5316 202.247 -30.9799 202.301C-32.7297 202.364 -34.5116 202.321 -36.1873 202.175C-37.863 202.029 -39.3876 201.784 -40.6429 201.459C-42.6945 200.98 -44.3238 200.39 -45.4183 199.73V199.73C-46.9847 198.786 -46.7512 196.535 -45.1001 195.748C-43.3152 194.898 -40.8041 194.693 -39.7227 194.604C-31.5423 193.923 -18.2492 195.353 -10.6824 197.731C-7.4498 198.634 -5.40031 199.782 -4.83044 201.01C-4.26057 202.237 -5.19991 203.48 -7.51249 204.559C-10.3958 205.828 -14.2262 206.933 -18.7758 207.808C-19.5788 207.962 -20.4012 208.109 -21.2415 208.247C-27.7336 209.319 -34.3542 208.496 -40.9003 207.829C-42.8308 207.633 -44.8948 207.477 -47.084 207.365C-57.554 206.816 -68.4291 207.253 -77.7857 208.598V208.598C-79.06 208.781 -79.9754 207.325 -79.2572 206.257C-71.3834 194.544 -64.8358 180.406 -63.712 177.979V177.979C-63.6345 177.812 -63.5387 177.654 -63.4324 177.503C-61.8194 175.215 -61.5463 172.876 -62.6238 170.566ZM-35.3799 229.679C-45.171 229.941 -55.0151 230.027 -64.8431 229.937C-65.5628 229.93 -66.2339 230.3 -66.6114 230.913V230.913C-67.4346 232.249 -66.5134 233.977 -64.9451 234.039L265.845 247.014C266.614 247.044 267.335 246.644 267.718 245.977V245.977C268.475 244.654 267.587 242.994 266.067 242.884C257.079 242.231 248.253 241.432 239.642 240.489C226.357 239.011 215.673 237.346 207.64 235.51C197.612 233.217 187.467 230.209 177.188 229.806L108.51 227.111C107.858 227.121 107.203 227.11 106.558 227.079C106.487 227.076 106.418 227.065 106.349 227.047L106.279 227.029C106.26 227.024 106.24 227.02 106.22 227.019V227.019L30.8801 224.075C24.0517 223.808 17.2456 224.819 10.5143 225.997C-0.434538 227.913 -15.7961 229.133 -35.3799 229.679ZM300.45 231.9C300.974 232.295 301.126 233.097 300.571 233.447C293.351 237.995 282.233 239.068 278.831 239.28C267.156 238.612 245.943 236.934 229.385 234.328C216.698 232.332 212.417 219.877 218.81 208.739L220.326 206.099C220.723 205.407 221.246 204.802 221.791 204.219C221.858 204.147 221.927 204.072 221.998 203.993C225.999 199.506 227.102 187.724 232.06 184.323C234.407 182.713 236.411 180.978 237.601 179.205C238.901 177.269 241.487 174.478 243.794 174.822C248.338 175.498 252.916 176.114 257.5 176.672C258.192 176.757 258.255 177.828 257.586 178.022V178.022C247.733 180.44 241.149 183.629 238.823 187.109C237.685 188.944 238.191 190.824 240.303 192.6C242.414 194.376 246.073 196 250.991 197.344C256.845 198.864 264.404 199.857 272.567 200.176C279.303 200.471 286.222 200.238 292.455 199.508C299.64 198.602 305.688 197.179 309.89 195.406C312.755 194.354 314.734 193.155 315.695 191.888C316.655 190.621 316.576 189.315 315.462 188.057C313.877 186.534 310.372 185.195 305.515 184.257C300.657 183.319 294.732 182.837 288.695 182.888C282.659 182.939 276.865 183.52 272.25 184.538C267.634 185.556 264.468 186.952 263.262 188.498C262.814 189.062 263.241 189.648 264.45 190.13C265.658 190.611 267.548 190.947 269.704 191.064C271.86 191.181 274.105 191.069 275.946 190.753C277.787 190.437 279.073 189.944 279.52 189.38C279.976 188.79 281.18 188.258 282.937 187.869C284.694 187.481 286.901 187.258 289.202 187.238C291.502 187.218 293.761 187.402 295.614 187.759C296.283 187.888 296.885 188.037 297.409 188.202C298.838 188.651 300.128 190.167 299.089 191.246V191.246C298.447 191.912 297.285 192.537 295.676 193.081C293.205 194.149 289.671 195.022 285.451 195.607C281.584 195.993 277.367 196.072 273.328 195.835C269.29 195.597 265.61 195.053 262.75 194.27C259.685 193.405 257.423 192.366 256.137 191.236C254.852 190.105 254.578 188.913 255.337 187.75C257.045 185.214 261.895 182.894 269.141 181.149C271.918 180.288 275.815 179.727 280.082 179.572C281.224 179.601 282.377 179.568 283.468 179.476V179.476C284.165 179.416 284.866 179.394 285.563 179.448C296.644 180.313 307.415 180.902 317.457 181.296C322.298 181.495 327.158 181.654 332.029 181.773C333.864 181.818 334.435 185.092 332.897 186.092V186.092C330.854 187.285 329.212 188.52 327.985 189.784C326.17 191.653 325.046 194.075 323.609 196.248C320.105 201.549 313.29 212.203 308.78 221.487C307.927 223.244 305.912 224.126 304.026 223.617V223.617C296.616 221.617 286.738 220.366 276.139 220.085C273.142 220.002 270.274 220.013 267.562 220.113C261.169 220.347 254.637 220.648 248.579 218.591C248.431 218.54 248.285 218.49 248.14 218.439C244.777 217.255 242.356 215.906 241.02 214.473C240.007 213.266 240.497 212.005 242.419 210.875C244.342 209.745 247.595 208.806 251.706 208.193C261.624 206.496 275.94 206.095 282.995 207.432C284.376 207.672 288.619 208.434 286.523 210.879C285.8 211.569 284.511 212.21 282.745 212.757C280.979 213.304 278.779 213.743 276.298 214.046C274.71 214.253 272.96 214.361 271.185 214.361C269.411 214.361 267.66 214.253 266.072 214.046C264.757 213.88 263.628 213.627 262.795 213.314V213.314C261.643 212.88 261.157 211.528 260.018 211.059C259.748 210.948 259.439 210.843 259.092 210.746C257.636 210.336 255.632 210.088 253.496 210.053C251.36 210.019 249.256 210.201 247.618 210.561V210.561C245.462 211.035 244.684 213.387 246.547 214.572C247.019 214.873 247.578 215.165 248.224 215.445C250.621 216.488 254.096 217.332 258.25 217.881C262.122 218.396 266.406 218.664 270.751 218.664C275.096 218.664 279.379 218.396 283.251 217.881C288.072 217.297 292.334 216.44 295.73 215.372C299.126 214.305 301.57 213.053 302.884 211.707C304.597 210.259 304.532 208.708 302.698 207.27C300.864 205.832 297.354 204.58 292.659 203.69C279.979 201.392 258.557 201.713 242.81 204.385C235.904 205.465 230.465 207.084 227.256 209.013C224.046 210.942 223.228 213.085 224.915 215.141C226.679 217.177 230.015 219.097 234.719 220.783C236.866 221.553 239.278 222.267 241.919 222.917C243.373 223.274 243.665 225.486 242.702 226.633V226.633C241.326 228.558 242.631 230.549 246.382 232.245C250.133 233.941 256.081 235.23 263.153 235.879C264.905 236.049 266.722 236.17 268.572 236.24C274.09 236.464 279.735 236.199 284.609 235.487C289.483 234.775 293.305 233.657 295.465 232.311C296.023 232.055 296.375 231.771 296.5 231.477C296.625 231.184 296.52 230.886 296.192 230.604C295.864 230.321 295.319 230.059 294.59 229.833C293.862 229.607 292.965 229.422 291.955 229.29C290.944 229.157 289.842 229.08 288.713 229.062C287.585 229.045 286.455 229.087 285.391 229.187C284.328 229.288 283.354 229.443 282.528 229.645C281.702 229.847 281.041 230.09 280.587 230.361C280.2 230.657 279.582 230.928 278.772 231.159C277.962 231.389 276.978 231.572 275.882 231.698C274.786 231.824 273.602 231.888 272.405 231.888C271.209 231.888 270.025 231.823 268.93 231.697C265.644 231.416 262.85 230.837 261.051 230.066C259.251 229.294 258.564 228.38 259.114 227.488C260.954 225.163 266.169 224.107 274.452 224.334C285.067 224.672 297.349 227.122 299.638 230.053C300.068 230.604 299.892 231.479 300.45 231.9V231.9V231.9ZM153.896 120.098C157.002 121.116 160.474 119.936 162.102 117.102L168.545 105.888C168.562 105.858 168.557 105.821 168.535 105.795V105.795C168.3 105.516 168.277 105.227 168.468 104.945V104.945C168.662 104.657 168.841 104.345 168.957 104.018C172.814 93.1585 154.041 86.7943 138.417 83.4446C137.362 83.2183 136.375 84.4008 136.012 85.417V85.417C135.949 85.5929 135.91 85.7978 135.807 85.9534C135.743 86.049 135.655 86.1441 135.566 86.2401L135.563 86.2432C135.536 86.2732 135.508 86.3034 135.481 86.3336C135.449 86.3686 135.419 86.4037 135.39 86.4391C132.829 89.0088 127.61 91.3445 120.305 93.19C113 95.0356 103.891 96.3197 93.9773 96.9015C85.1342 97.6104 75.7029 97.6489 66.7793 97.0127C57.8558 96.3764 49.8062 95.0915 43.5658 93.3071C35.6145 90.778 30.0207 87.8007 27.2258 84.6099V84.6099C25.4132 82.5407 22.1641 80.2095 19.5651 81.111C15.4586 82.5354 11.4084 83.9415 7.42653 85.3251C5.03654 86.1556 5.86362 90.5133 8.39288 90.5813V90.5813C13.1335 90.5932 17.846 90.7729 22.4018 91.1157C28.7846 91.6442 34.3935 92.6716 38.4716 94.0594C42.5498 95.4472 44.9008 97.1286 45.2073 98.8766C45.5139 100.625 43.7612 102.355 40.1859 103.835C36.6107 105.314 31.3849 106.471 25.2138 107.15C20.7557 107.685 15.775 107.849 10.9492 107.618C-0.141937 107.035 -5.76496 104.316 -8.85169 102.823L-8.93924 102.781C-9.97657 102.27 -10.1957 101.673 -9.54853 101.121C-8.90133 100.568 -7.44075 100.105 -5.48814 99.8344C-3.53552 99.5633 -1.25084 99.506 0.863373 99.6751C2.97757 99.8443 4.74811 100.226 5.78543 100.736C7.37038 101.525 10.8981 103.168 14.2725 103.409C15.7815 103.455 17.3094 103.385 18.6694 103.208C21.6786 102.87 24.2221 102.301 25.9606 101.575C27.6992 100.85 28.5502 100.003 28.4002 99.1483C28.2502 98.2933 27.1064 97.4705 25.1212 96.7898C23.136 96.109 20.4038 95.6026 17.2891 95.3381C14.1689 95.1216 10.9564 95.0094 7.72821 95.0041C3.84634 94.8865 -0.0870209 95.0007 -3.77542 95.3381C-6.26273 95.7001 -8.32954 96.231 -9.7573 96.8747C-12.7731 98.1773 -14.4013 99.667 -14.4732 101.189C-14.5452 102.712 -13.0582 104.212 -10.1663 105.533C-7.07774 106.872 -2.81454 107.999 2.27074 108.821C7.35602 109.644 13.1174 110.138 19.0785 110.263V110.263C21.5258 110.315 23.9719 110.553 26.4197 110.527C44.9613 110.332 63.5607 110.656 81.8976 111.498C82.9191 111.46 83.9449 111.427 84.9744 111.401C85.4859 111.388 85.9976 111.377 86.5094 111.367C90.5702 111.289 94.9473 107.025 98.2714 104.691V104.691C99.2272 103.961 100.625 103.275 102.413 102.66C105.692 101.623 110.094 100.868 115.041 100.496C122.06 99.845 129.718 99.8385 136.753 100.477C143.788 101.116 149.781 102.362 153.744 104.01C156.411 105.254 157.542 106.683 156.983 108.101C156.425 109.519 154.205 110.858 150.626 111.934C146.645 113.05 141.205 113.736 135.382 113.855C129.559 113.973 123.778 113.517 119.182 112.575C118.295 112.395 117.557 112.17 117.011 111.914C116.464 111.657 116.122 111.375 116.005 111.083C115.887 110.791 115.996 110.496 116.325 110.215C116.655 109.935 117.198 109.675 117.922 109.45C118.646 109.226 119.536 109.042 120.538 108.91C121.54 108.778 122.635 108.7 123.755 108.681C124.876 108.662 126 108.703 127.059 108.8C128.118 108.897 129.091 109.05 129.919 109.248C131.234 109.466 132.798 109.559 134.345 109.51C135.892 109.461 137.327 109.274 138.406 108.981C139.6 108.58 140.314 108.096 140.459 107.59C140.605 107.084 140.175 106.577 139.224 106.135C137.089 105.385 134.079 104.837 130.647 104.575C127.216 104.312 123.55 104.348 120.205 104.678C118.397 104.808 116.755 105.061 115.45 105.413C114.77 105.677 114.237 105.965 113.865 106.268C111.241 108.102 110.476 110.077 111.62 112.004C111.684 112.11 111.797 112.177 111.92 112.187V112.187C128.592 113.684 143.197 116.436 153.896 120.098V120.098ZM218.982 84.9024C212.987 85.8263 206.457 87.0419 200.095 88.6374C198 89.1628 196.23 86.8966 197.306 85.0246V85.0246C197.585 84.5396 198.025 84.1665 198.552 83.9778C207.079 80.9221 218.152 78.4035 230.963 76.617C245.494 74.5907 261.773 73.5742 278.239 73.6649C296.062 73.6891 313.136 75.5412 325.787 78.8226C329.848 79.9719 332.954 81.3289 334.907 82.8077C336.861 84.2865 337.62 85.855 337.137 87.4144C336.576 89.9896 333.729 92.4953 328.821 94.7333C323.914 96.9713 317.081 98.8801 308.864 100.309C303.516 101.098 297.422 101.476 291.288 101.398C285.153 101.32 279.228 100.789 274.199 99.8677C261.478 97.8288 253.539 94.3257 254.135 91.0882C254.169 90.9039 254.36 90.7343 254.431 90.5605V90.5605C254.503 90.3808 254.528 90.2302 254.656 90.0849C256.33 88.1912 260.081 86.464 265.457 85.1161C266.605 84.7957 267.357 84.3921 267.612 83.9581C267.868 83.5241 267.615 83.0801 266.888 82.6843C266.178 82.2894 265.024 81.9604 263.582 81.7408C262.139 81.5213 260.475 81.4216 258.81 81.4549C244.758 81.8638 231.19 83.0382 218.982 84.9024ZM174.912 88.6831C176.397 89.451 178.259 88.9791 179.092 87.5297L180.246 85.5219C180.419 85.2207 180.297 84.8531 180.064 84.5957V84.5957C179.812 84.3174 179.773 84.0288 179.951 83.7466C179.962 83.7292 179.973 83.7118 179.986 83.6945V83.6945C180.001 83.6742 179.998 83.6459 179.978 83.6304C175.26 79.9334 167.311 76.5681 156.738 73.8048C145.102 70.7636 130.675 68.5532 114.837 67.3849C97.7825 66.0642 79.4262 66.5439 63.71 68.7211C58.5585 69.512 54.0845 70.5713 50.5663 71.8333C47.048 73.0953 44.5608 74.5329 43.2591 76.0568C40.915 78.5641 40.8261 81.1792 42.9994 83.697C45.1728 86.2147 49.5492 88.5665 55.7852 90.5679C60.0357 91.7281 65.4488 92.5526 71.4065 92.9472C77.3642 93.3417 83.6264 93.2905 89.4781 92.7993C96.3651 92.4071 102.718 91.5357 107.866 90.2773C113.014 89.0189 116.765 87.4204 118.723 85.6507C118.858 85.492 118.961 85.3314 119.03 85.1697C119.77 83.158 118.147 81.1351 114.377 79.3706C113.649 78.9767 113.388 78.5348 113.629 78.1019C113.87 77.669 114.601 77.2648 115.729 76.9414C116.856 76.618 118.328 76.3902 119.955 76.2873C121.582 76.1845 123.29 76.2112 124.858 76.3642C137.802 77.8448 149.43 80.0105 159.011 82.7245C164.477 84.2614 170.173 86.2325 174.912 88.6831ZM246.931 17.5877C242.798 14.6658 237.048 15.9343 234.524 20.3221L212.762 58.1563C208.736 65.1538 215.035 73.8622 223.03 72.7459V72.7459C233.953 71.2207 245.726 70.1864 257.857 69.6732C258.727 69.5594 259.673 69.4853 260.655 69.4563C265.301 69.3258 269.797 68.9482 273.864 68.3467C277.931 67.7452 281.485 66.9326 284.305 65.9588C287.126 64.985 289.155 63.8707 290.266 62.6844C291.378 61.4981 291.549 60.2649 290.769 59.0607C290.147 57.8266 288.074 56.6735 284.838 55.7603C281.029 54.9174 276.563 54.3017 271.75 53.9564C267.707 53.5505 263.399 53.3553 259.07 53.3818C256.237 53.4737 253.557 53.7705 251.334 54.2387C249.111 54.7069 247.432 55.328 246.487 56.0321C245.541 56.7361 245.366 57.4952 245.981 58.2238C246.596 58.9524 247.978 59.6217 249.969 60.1564C251.415 60.5763 253.436 60.8306 255.593 60.8645V60.8645C256.656 60.8366 257.492 59.8637 258.388 59.2918C258.495 59.2235 258.61 59.1559 258.732 59.0892C259.614 58.6097 260.88 58.1853 262.444 57.8448C263.589 57.645 264.877 57.5077 266.23 57.4411C267.583 57.3745 268.973 57.38 270.318 57.4573C271.851 57.547 273.254 57.7488 274.365 58.0391C275.476 58.3294 276.247 58.6962 276.59 59.0968C276.934 59.4975 276.834 59.9153 276.302 60.3017V60.3017C274.795 61.3978 272.936 62.1637 271.224 62.9007C270.263 63.3145 269.062 63.6908 267.652 64.0151C264.556 64.7274 260.633 65.1473 256.514 65.2072C253.127 65.2318 249.758 65.071 246.623 64.735C243.489 64.399 240.658 63.8953 238.312 63.2563C233.965 62.1516 230.916 60.7451 229.527 59.2026C228.137 57.6601 228.463 56.0459 230.467 54.5502C231.631 53.6818 233.332 52.8744 235.488 52.1583C236.026 51.9796 236.012 51.1569 235.467 51.0023V51.0023C232.299 50.1039 229.871 49.045 228.332 47.8914C226.794 46.7377 226.178 45.5138 226.523 44.2954C226.868 43.077 228.166 41.8901 230.337 40.8082C231.802 40.1131 233.514 39.4555 235.45 38.844C239.2 37.2575 244.779 36.0225 251.384 35.3167V35.3167C257.117 34.704 259.737 26.6467 255.031 23.3161C252.174 21.2944 249.466 19.3793 246.931 17.5877ZM257.383 49.0259C256.252 49.0548 255.131 49.0995 254.025 49.1594C253.9 49.1662 253.775 49.1613 253.651 49.146V49.146C251.474 48.8872 249.516 48.5175 247.892 48.0587C246.268 47.5998 245.01 47.061 244.192 46.4736C243.418 45.8811 243.109 45.2537 243.284 44.6291C243.46 44.0046 244.117 43.3958 245.215 42.8392C246.14 42.3853 247.254 41.9595 248.538 41.5698C251.606 40.3545 256.256 39.4715 261.627 39.0845C264.088 39.0058 266.584 39.0466 268.989 39.2047C270.288 39.2433 271.543 39.3489 272.681 39.5147C273.117 39.5783 273.623 39.6079 273.9 39.9506V39.9506C273.997 40.0704 273.996 40.1941 273.897 40.3138C273.461 40.7776 272.478 41.1937 271.085 41.503C269.478 41.8999 268.541 42.4474 268.478 43.025C268.416 43.6026 269.234 44.163 270.753 44.5829C272.272 45.0028 274.366 45.2479 276.576 45.2642C278.787 45.2805 280.931 45.0667 282.538 44.6698C282.769 44.6147 282.996 44.5586 283.219 44.5014C283.994 44.3026 284.802 44.4219 285.454 44.8852V44.8852C287.787 46.5427 286.046 50.7249 283.203 50.3979C281.15 50.1617 279.032 49.9621 276.862 49.8009C270.644 49.1929 264.011 48.9291 257.383 49.0259ZM310.484 62.6974C309.281 61.8399 307.276 62.616 306.26 63.6888V63.6888C304.596 65.4478 301.579 67.1 297.395 68.5449V68.5449C296.727 68.7754 296.856 69.858 297.561 69.9018C302.133 70.1853 306.616 70.5693 310.962 71.0511V71.0511C314.362 71.4279 316.237 66.8016 313.453 64.8151C312.462 64.1083 311.472 63.4023 310.484 62.6974ZM204.77 204.292L200.138 212.35C197.898 216.246 193.127 217.614 189.198 215.433V215.433C185.65 213.464 183.655 209.044 185.741 205.564C186.727 203.918 187.948 202.094 189.433 200.216V200.216C192.774 195.906 194.168 186.585 198.72 183.582C201.16 181.972 202.552 180.251 202.777 178.49C202.726 174.468 195.108 170.499 180.178 166.704C170.615 164.142 162.51 161.237 156.102 158.079C155.895 157.977 155.829 157.717 155.769 157.494V157.494C155.693 157.209 155.403 156.93 154.915 156.674C154.427 156.418 153.751 156.189 152.925 156.002C152.099 155.814 151.14 155.67 150.102 155.58C149.685 155.543 149.258 155.515 148.826 155.497L148.704 155.484C146.633 155.273 144.327 155.286 142.293 155.52C140.259 155.754 138.664 156.19 137.859 156.731V156.731C137.466 156.995 137.083 157.336 136.625 157.455C127.036 159.955 116.119 162.085 104.201 163.778C85.6415 166.264 73.9334 169.47 69.383 173.305V173.305C65.4315 177.085 65.0509 187.453 60.8785 190.987C59.3247 192.304 58.2643 193.663 57.726 195.045C56.3232 198.795 54.2188 202.297 52.6732 204.608C51.7375 206.008 50.2872 206.964 48.6593 207.393C48.0711 207.548 47.4855 207.703 46.9026 207.86C41.0619 209.426 36.0105 203.099 39.0151 197.851V197.851V197.851C39.1092 197.644 39.0098 197.401 39.0359 197.175C39.3037 194.856 42.2643 189.396 54.3533 187.429C55.9394 187.169 57.1449 186.778 57.7756 186.317C58.4063 185.856 58.4254 185.354 57.8299 184.89C52.257 180.521 43.1053 168.361 67.2885 164.62C85.1805 161.854 100.672 159.042 113.827 156.17C138.702 150.74 168.057 154.934 192.126 163.236C198.87 165.563 206.457 167.938 214.893 170.366C233.759 175.777 211.366 186.734 201.14 190.475C200.076 190.872 199.548 191.351 199.64 191.835C199.733 192.319 200.441 192.781 201.651 193.148C211.468 196.101 207.429 201.953 205.077 203.971C204.927 204.074 204.824 204.182 204.77 204.292ZM109.673 222.758L181.198 225.557C183.118 225.632 183.976 223.303 182.383 222.229V222.229C182.081 222.025 181.706 221.897 181.341 221.883L40.8866 216.373C40.6514 216.363 40.4061 216.4 40.1826 216.474V216.474C38.1445 217.15 38.5946 220.02 40.7405 220.104L107.582 222.717C108.281 222.708 108.984 222.721 109.673 222.758ZM61.6505 212.788C60.1102 212.728 59.8603 210.612 61.3509 210.219V210.219C61.4807 210.185 61.6188 210.169 61.7529 210.175L114.063 212.227C114.1 212.228 114.137 212.238 114.17 212.255V212.255C114.204 212.273 114.242 212.283 114.28 212.284C114.757 212.295 115.234 212.295 115.706 212.285C115.926 212.295 116.148 212.303 116.372 212.309L168.279 214.345C168.472 214.352 168.669 214.404 168.842 214.489V214.489C170.153 215.135 169.637 217.023 168.176 216.966L61.6505 212.788ZM151.929 134.809C151.717 135.178 151.372 135.445 150.981 135.613C150.643 135.758 150.368 135.914 150.166 136.079C142.037 142.97 121.59 149.469 88.0933 155.819C87.6378 155.869 87.1972 155.93 86.7773 156.001C65.9964 159.727 44.0792 161.75 22.9441 162.696C22.2677 162.726 22.1089 161.605 22.758 161.413V161.413C28.9984 159.458 33.597 157.182 36.2556 154.732C38.9243 152.713 40.4068 150.6 40.6526 148.465C40.8581 144.763 35.9713 141.164 26.8811 138.323C17.791 135.482 5.10132 133.589 -8.87952 132.987C-22.8604 132.385 -37.2035 133.115 -49.3 135.043C-52.5567 135.562 -55.5924 136.159 -58.3748 136.823C-59.5906 137.113 -60.5238 135.965 -59.7016 135.024V135.024C-55.8984 130.72 -48.7073 126.67 -38.5861 123.132C-26.3667 118.682 -15.5788 116.29 -5.35339 115.836C-4.92986 115.812 -4.51683 115.779 -4.1174 115.739C8.24491 115.193 20.726 114.895 33.2172 114.845C35.6926 114.835 36.3357 119.373 34.1046 120.445V120.445C30.3016 122.102 27.5236 123.906 25.8732 125.79C23.7349 128.478 24.6417 131.271 28.4828 133.827C32.3239 136.383 38.9325 138.591 47.5 140.181C53.2559 141.179 59.7861 141.831 66.6216 142.091C73.7805 142.397 81.1118 142.272 88.0577 141.725C95.0036 141.179 101.381 140.226 106.705 138.938C111.91 137.612 115.708 135.956 117.724 134.131C119.741 132.306 119.908 130.376 118.209 128.529C116.246 126.623 112.097 124.921 106.32 123.65C100.543 122.379 93.4159 121.601 85.8966 121.42C78.0777 121.317 70.3721 121.942 64.1542 123.186C57.9363 124.429 53.6105 126.209 51.9481 128.208C51.2753 129.273 51.4502 130.362 52.4619 131.408C53.4736 132.455 55.3002 133.435 57.8277 134.288C60.1464 135.113 63.0908 135.805 66.4774 136.32C69.864 136.835 73.6201 137.162 77.5117 137.281C78.6293 137.325 79.7694 137.309 80.8627 137.234C81.956 137.16 82.9798 137.027 83.8716 136.846C84.7634 136.665 85.5046 136.438 86.0503 136.179C86.596 135.92 86.9346 135.635 87.0457 135.341C87.1568 135.048 87.038 134.751 86.6964 134.469C86.3549 134.188 85.7979 133.927 85.0591 133.704C84.3203 133.48 83.4153 133.298 82.399 133.169C81.3828 133.04 80.2766 132.966 79.1477 132.952C77.5312 132.884 75.9847 132.731 74.604 132.501C73.2233 132.271 72.0378 131.97 71.1208 131.616C69.9923 131.242 69.1657 130.813 68.6911 130.353V130.353C67.9411 129.628 68.7172 128.526 69.6463 128.051C70.7828 127.469 72.4221 126.959 74.4536 126.564C77.4706 125.978 81.1685 125.681 84.9251 125.723C88.9467 125.843 92.7367 126.277 95.8009 126.968C98.8652 127.659 101.062 128.576 102.104 129.598C103.024 130.701 102.859 131.847 101.625 132.929C100.391 134.011 98.1285 134.993 95.0483 135.785C89.8537 136.985 83.2981 137.708 76.3831 137.843C69.468 137.978 62.574 137.518 56.7541 136.533C50.9561 135.429 46.4982 133.912 43.914 132.163C41.3297 130.414 40.7287 128.508 42.1828 126.672C43.4305 125.219 45.5716 123.829 48.5226 122.556C52.979 120.369 59.5551 118.526 67.593 117.211C71.9029 116.594 76.5357 116.151 81.3318 115.896C82.2591 115.947 83.2142 115.957 84.156 115.924C85.1447 115.889 86.1003 115.808 86.9779 115.686C93.7036 115.538 100.473 115.758 106.859 116.33C120.376 117.566 132.202 119.815 140.858 122.797C146.533 124.667 155.634 128.369 152.413 132.07C152.135 132.353 152.076 132.647 152.242 132.936V132.936C152.435 133.272 152.581 133.674 152.388 134.01L151.929 134.809ZM168.933 70.7078C178.579 73.257 189.301 69.7608 194.271 61.1095L213.213 28.1391C216.609 22.2281 210.869 15.2649 204.419 17.4739C196.13 20.3131 186.899 23.4768 176.968 26.8825C174.688 27.6643 175.187 31.3485 177.58 31.6424V31.6424C186.035 32.8885 192.386 34.9206 195.372 37.3346C196.523 38.0642 197.413 38.8202 198.03 39.5927C198.874 40.7935 198.77 42.0267 197.725 43.2166C196.681 44.4066 194.717 45.5282 191.955 46.5128C189.193 47.4974 185.69 48.3242 181.662 48.9425V48.9425C180.767 49.08 180.506 50.393 181.119 51.0603C181.601 51.5854 181.888 52.1238 181.971 52.6684C182.213 54.2531 180.715 55.8228 177.654 57.1922C174.593 58.5616 170.096 59.6735 164.695 60.3966C161.718 60.8224 158.434 61.0804 155.052 61.1541C151.67 61.2277 148.267 61.1153 145.062 60.8242C141.187 60.4559 137.899 59.7573 135.729 58.841C134.837 58.4646 134.156 58.0605 133.694 57.6408C132.845 56.8684 131.42 55.5582 131.667 54.4372V54.4372C131.824 53.8614 132.849 53.3255 134.517 52.9472C136.185 52.5689 138.36 52.3791 140.563 52.4195C141.942 52.4437 143.287 52.543 144.511 52.7109C145.735 52.8789 146.811 53.1119 147.67 53.3949C148.809 53.8444 149.567 54.3524 149.893 54.8848C149.96 54.9942 150.009 55.1042 150.039 55.2144C150.221 55.8842 150.252 56.7381 150.942 56.8156V56.8156C151.982 56.8857 153.066 56.9006 154.128 56.8593C155.191 56.818 156.211 56.7213 157.128 56.5751C159.633 56.2162 161.704 55.6816 163.108 55.0316C164.513 54.3817 165.195 53.6421 165.078 52.8963C164.961 52.1504 164.05 51.4279 162.446 50.8102C160.843 50.1924 158.612 49.7039 156.003 49.3997C151.91 49.0392 147.58 48.8984 143.273 48.9855C138.276 48.9421 133.304 49.1838 128.701 49.6937C124.616 50.3153 121.352 51.2475 119.345 52.3661C117.271 53.4587 116.073 54.6503 115.822 55.8681C115.571 57.086 116.273 58.3044 117.886 59.4488C119.499 60.5933 121.988 61.6397 125.202 62.5241C128.415 63.4085 132.285 64.1122 136.575 64.5923V64.5923C138.471 64.8057 140.342 65.2317 142.231 65.4963C152.038 66.8697 161.046 68.6235 168.933 70.7078V70.7078ZM111.768 167.64C116.056 167.037 120.23 166.383 124.276 165.681C137.369 163.41 150.872 164.749 163.64 168.431C165.276 168.903 166.954 169.365 168.675 169.818C180.281 172.771 186.212 175.817 186.263 178.503C186.314 181.189 180.945 183.941 170.311 186.707C169.021 187.039 168.183 187.472 167.925 187.94C167.666 188.408 168.002 188.886 168.879 189.299C174.477 192.436 176.003 195.964 173.225 199.348V199.348C168.621 205.253 161.892 209.698 154.41 209.404L118.826 208.006C118.043 207.965 117.244 207.953 116.451 207.971L80.7325 206.568C75.4955 206.362 72.5407 200.429 74.3935 195.526V195.526C75.599 192.087 80.9724 188.839 89.7317 186.253C91.0313 185.924 91.888 185.493 92.1737 185.026C92.4594 184.559 92.1587 184.08 91.3166 183.661C84.2099 180.214 82.0114 177.287 85.2325 174.601C88.4535 171.916 97.4007 169.577 111.768 167.64ZM142.66 44.575C139.988 44.5664 139.085 39.885 141.612 39.0171V39.0171C142.21 38.8117 142.845 38.8828 143.42 39.1464C143.473 39.1705 143.526 39.1946 143.58 39.2186C144.069 39.4897 144.766 39.7315 145.628 39.9289C146.491 40.1264 147.5 40.2752 148.593 40.366C149.685 40.4569 150.838 40.4878 151.978 40.4569C153.119 40.426 154.223 40.334 155.221 40.1865C156.219 40.039 157.09 39.8393 157.779 39.5998C158.468 39.3604 158.961 39.0863 159.227 38.7948C159.492 38.5033 159.524 38.2006 159.322 37.9056C159.119 37.6107 158.686 37.3299 158.049 37.0807C157.113 36.6796 156.667 36.2135 156.771 35.7445C156.798 35.6223 156.932 35.5034 157.163 35.3969C157.393 35.2903 157.714 35.199 158.1 35.1299C159.655 35.0026 161.308 34.9796 162.906 35.063C165.392 35.1027 167.833 35.2565 170.115 35.5173C173.38 36.0671 176.044 36.8171 177.897 37.6939C179.272 38.3446 180.59 39.2022 181.567 40.3677V40.3677C181.98 40.9843 181.905 41.6165 181.347 42.2253C180.789 42.834 179.76 43.4065 178.322 43.9073C176.885 44.4081 175.071 44.8266 172.991 45.1371C170.911 45.4476 168.61 45.6434 166.229 45.7125V45.7125C165.844 45.7246 165.459 45.7075 165.077 45.6547C164.206 45.5341 163.31 45.4238 162.394 45.3243C156.169 44.7251 149.536 44.4703 142.915 44.576C142.83 44.5757 142.745 44.5753 142.66 44.575ZM99.2308 55.5974V55.5974C99.3819 54.8665 98.6102 53.8056 97.9045 54.0486C94.0037 55.3919 90.0897 56.7402 86.1712 58.0906C83.9801 58.8457 84.6771 62.3881 86.9938 62.3248V62.3248C91.9565 62.1892 96.9434 62.17 101.896 62.2659C102.56 62.2787 102.829 61.3086 102.288 60.9234V60.9234C99.8964 59.2206 98.8562 57.4085 99.2308 55.5974ZM-74.4853 114.191C-64.9092 110.689 -50.3556 105.522 -32.6326 99.3038C-31.8606 99.033 -30.9739 100.183 -31.0277 101V101C-31.1805 103.315 -28.9742 105.599 -24.6353 107.618V107.618C-22.7096 108.473 -23.1202 112.38 -25.2215 112.533C-43.2339 113.846 -59.2508 115.772 -73.1461 118.282C-76.0083 118.799 -77.2162 115.192 -74.4853 114.191V114.191ZM-113.751 151.151C-115.472 149.395 -116.519 147.358 -116.677 145.089C-116.776 143.669 -115.416 142.83 -114.466 141.77V141.77C-104.636 131.754 -83.6893 124.443 -52.2837 119.984C-51.9145 119.932 -51.7844 120.465 -52.1348 120.593V120.593C-63.5873 124.618 -71.7018 129.224 -75.9601 134.115C-80.3566 139.167 -78.733 144.45 -71.3075 149.254C-67.4218 151.673 -58.2701 155.935 -40.6311 157.271C-38.9525 157.401 -37.245 157.504 -35.5184 157.579C-25.2905 157.966 -14.8758 157.352 -6.27364 155.855C-0.220093 154.827 4.64246 153.386 7.7876 151.688C10.9327 149.99 12.2406 148.1 11.5697 146.221C10.5626 144.241 6.9509 142.414 1.35385 141.054C-4.24316 139.693 -11.4768 138.884 -19.1066 138.765C-23.2684 138.772 -27.3754 139.014 -31.1443 139.475C-34.9133 139.937 -38.2546 140.606 -40.9379 141.438C-43.5077 142.194 -45.4082 143.089 -46.504 144.059C-47.5997 145.029 -47.8639 146.05 -47.2777 147.05C-46.8405 147.604 -45.5943 148.092 -43.8033 148.411C-42.0123 148.729 -39.8172 148.853 -37.6832 148.755C-35.5493 148.658 -33.6441 148.348 -32.3715 147.889C-31.0989 147.431 -30.5589 146.862 -30.8658 146.301C-31.0312 145.932 -30.8883 145.559 -30.447 145.206C-30.0056 144.853 -29.2763 144.529 -28.3095 144.257C-27.2062 143.908 -25.8357 143.623 -24.2861 143.42C-22.7364 143.218 -21.0418 143.102 -19.3111 143.081C-15.676 143.178 -12.2714 143.591 -9.64634 144.256C-9.20232 144.368 -8.78499 144.486 -8.39566 144.61C-5.7153 145.462 -4.74268 148.554 -7.24047 149.846V149.846C-9.09415 150.806 -11.9042 151.617 -15.3743 152.194C-18.2884 152.713 -21.5984 153.06 -25.0761 153.213C-28.5538 153.365 -32.1164 153.318 -35.5184 153.076C-40.2519 152.594 -44.5304 151.85 -48.0604 150.895C-51.5904 149.94 -54.2884 148.797 -55.9693 147.544C-57.1693 146.759 -58.1831 145.958 -59.0093 145.147C-59.0928 145.065 -59.0837 144.93 -59.0052 144.843V144.843C-58.9975 144.834 -58.9901 144.827 -58.9811 144.82C-55.8263 142.299 -49.3252 140.155 -40.6517 138.777C-31.9659 137.396 -21.6758 136.875 -11.6451 137.306C-1.61429 137.737 7.49384 139.093 14.0298 141.128C20.5658 143.163 24.0975 145.742 23.9851 148.398C23.7839 150.094 22.5766 151.771 20.4062 153.369C18.4024 155.239 14.9188 156.978 10.1808 158.473C1.43802 161.066 -13.1333 162.215 -26.1707 163.083C-26.5301 163.108 -26.8811 163.138 -27.2217 163.174C-57.6621 162.486 -81.6444 160.289 -90.6115 159.367C-91.4933 159.241 -92.3899 159.121 -93.3002 159.007C-102.656 157.832 -109.917 155.052 -113.751 151.151Z" fill="url(#paint0_linear_1276_116557)"/>
<path fill-rule="evenodd" clip-rule="evenodd" d="M1105.24 251.659L1457.25 237.856C1459.43 237.771 1461.39 237.462 1462.71 236.999C1464.02 236.535 1464.58 235.955 1464.25 235.384V235.384C1462.37 232.106 1464.28 227.971 1467.89 226.826C1476.28 224.157 1484.4 219.243 1477.8 210.718C1468.08 198.296 1459.47 179.244 1458.56 177.22L1458.5 177.088L1458.48 177.057V177.057C1458.48 177.05 1458.48 177.042 1458.48 177.034V176.956C1458.48 176.851 1458.44 176.755 1458.37 176.675C1457.42 175.528 1451.64 167.14 1475.43 163.363C1476.84 163.216 1478.24 163.064 1479.64 162.909C1480.67 162.784 1481.58 162.606 1482.32 162.389C1494.48 160.476 1503.58 156.895 1508.22 152.18C1517.07 143.2 1510.68 127.821 1466.4 111.613C1412.65 91.9492 1202.84 20.1394 1154.48 3.60493C1153.59 3.30129 1152.94 2.71525 1152.48 1.89765V1.89765C1152.22 1.41971 1151.35 0.978606 1150.01 0.644479C1148.68 0.310352 1146.96 0.102405 1145.12 0.0537156C1143.76 0.0139331 1142.39 0.0644991 1141.13 0.200698C1139.77 0.175029 1138.41 0.229832 1137.14 0.361035C1135.42 0.543983 1133.98 0.872239 1133.05 1.29353C1132.13 1.71483 1131.77 2.20499 1132.03 2.68604V2.68604C1132.44 3.44913 1132.28 4.34958 1131.57 4.84885C1103.13 24.9302 984.312 108.894 955.13 131.696C940.362 143.257 938.824 153.433 944.096 161.405C944.431 161.912 944.649 162.486 944.756 163.084V163.084C944.802 163.369 945.063 163.65 945.526 163.908V163.908C946.054 164.204 946.58 164.514 947.007 164.944C950.471 168.43 955.272 171.381 960.702 173.706C971.337 178.235 985.55 181.068 1000.73 181.723C1032.22 182.976 1035.62 192.805 1035.85 193.473V193.473C1035.86 193.487 1035.86 193.502 1035.85 193.517C1035.84 193.564 1035.84 193.612 1035.84 193.66C1035.85 193.711 1035.87 193.759 1035.9 193.803C1036 193.975 1036.33 194.459 1036.82 195.201C1040.12 200.102 1050.96 216.23 1055.19 227.407C1058.73 236.778 1073.86 240.779 1085.36 242.475C1089.51 243.086 1093.23 245.442 1095.29 249.089V249.089C1095.62 249.661 1095.98 250.234 1096.57 250.526C1097.19 250.832 1098.09 251.098 1099.2 251.299C1100.96 251.617 1103.12 251.746 1105.24 251.659ZM973.91 137.474C970.604 138.587 968.231 135.235 970.979 133.085V133.085C976.067 129.108 983.896 123.26 993.503 116.209C994.874 115.203 997.243 116.02 998.501 117.165V117.165C1000.95 119.389 1005.62 121.403 1012.04 122.998C1016.86 124.136 1022.42 125.035 1028.44 125.656C1028.49 125.661 1028.49 125.731 1028.44 125.737V125.737C1026.68 125.971 1025.05 126.232 1023.51 126.517C1003.1 129.551 986.516 133.227 973.91 137.474ZM1030.01 94.1634C1028.21 92.971 1025.8 92.7647 1024.05 94.0285C1023.14 94.6854 1022.23 95.339 1021.33 95.989C1018.07 98.3436 1020.49 104.341 1024.51 104.131V104.131C1029.06 103.78 1033.78 103.592 1038.52 103.569C1045.17 103.604 1051.62 104.167 1057.02 105.185C1062.41 106.202 1066.49 107.625 1068.71 109.263C1070.93 110.902 1071.19 112.679 1069.45 114.357C1067.71 116.034 1064.05 117.534 1058.97 118.655C1055.31 119.505 1050.74 120.045 1045.88 120.205C1034.57 120.497 1026.12 118.314 1021.55 117.132L1021.44 117.105C1020.65 116.904 1020.02 116.664 1019.59 116.399C1019.16 116.134 1018.93 115.849 1018.92 115.561C1018.91 115.273 1019.12 114.987 1019.54 114.72C1019.95 114.453 1020.57 114.211 1021.35 114.007C1022.13 113.802 1023.05 113.641 1024.07 113.531C1025.09 113.42 1026.18 113.364 1027.28 113.365C1028.39 113.367 1029.48 113.425 1030.49 113.537C1031.51 113.649 1032.43 113.813 1033.2 114.018C1035.61 114.646 1040.67 115.969 1044.25 115.876C1045.73 115.792 1047.11 115.607 1048.23 115.341C1050.73 114.786 1052.52 114.045 1053.37 113.217C1054.21 112.389 1054.07 111.513 1052.96 110.707C1051.84 109.901 1049.82 109.203 1047.15 108.705C1044.48 108.208 1041.29 107.936 1038.01 107.925C1034.78 107.957 1031.59 108.096 1028.5 108.34C1024.67 108.52 1021.05 108.927 1017.92 109.529C1015.92 110.065 1014.54 110.736 1013.93 111.466C1012.5 112.941 1012.61 114.489 1014.23 115.95C1015.86 117.411 1018.95 118.732 1023.18 119.777C1027.65 120.82 1033 121.57 1038.8 121.965C1044.6 122.36 1050.67 122.389 1056.52 122.049V122.049C1059.08 121.935 1061.65 121.99 1064.21 121.757C1081.52 120.177 1099.44 119.063 1117.69 118.437C1118.65 118.318 1119.63 118.206 1120.62 118.1C1121.03 118.055 1121.45 118.012 1121.86 117.97C1124.5 117.703 1125.47 113.351 1126.04 110.758V110.758C1126.14 109.987 1126.71 109.225 1127.72 108.5C1129.72 107.256 1133.08 106.195 1137.39 105.453C1143.37 104.299 1150.68 103.711 1158.11 103.783C1165.54 103.856 1172.65 104.586 1178.29 105.854C1182.24 106.838 1184.93 108.118 1185.99 109.517C1187.05 110.916 1186.43 112.367 1184.22 113.671C1181.65 115.039 1177.21 116.107 1171.78 116.666C1166.35 117.224 1160.32 117.233 1154.87 116.691C1152.92 116.452 1151.4 116.024 1150.62 115.498C1149.85 114.972 1149.89 114.388 1150.73 113.869C1151.57 113.35 1153.15 112.936 1155.13 112.715C1157.12 112.493 1159.35 112.482 1161.37 112.682C1162.87 112.787 1164.47 112.756 1165.9 112.593C1166.49 112.526 1167.03 112.439 1167.52 112.334C1168.7 112.082 1170.43 111.197 1169.63 110.293V110.293C1169.2 109.796 1168.2 109.344 1166.79 108.994C1163.92 108.427 1160.43 108.12 1156.84 108.12C1153.25 108.12 1149.76 108.427 1146.9 108.994C1145.89 109.156 1145 109.363 1144.28 109.605C1143.55 109.849 1142.69 110.234 1142.6 110.998V110.998V110.998C1141.45 116.148 1150.03 116.816 1155.31 116.986C1170.04 117.46 1184.12 118.892 1196.25 121.166V121.166C1198.64 121.597 1200.51 119.016 1199.3 116.905L1191.94 104.111C1191.5 103.355 1190.97 102.655 1190.31 102.086C1180.17 93.3295 1158.17 89.239 1141.13 87.3631C1140.19 87.2589 1139.66 88.7287 1140.18 89.521V89.521C1140.25 89.6205 1140.32 89.6774 1140.4 89.7608C1140.54 89.8903 1140.59 90.0179 1140.61 90.1491C1140.64 90.3194 1140.64 90.4927 1140.66 90.6643C1140.91 93.2287 1138.54 95.7659 1133.78 98.0132C1128.86 100.335 1121.59 102.258 1112.76 103.569C1105.11 104.926 1096.14 105.687 1086.89 105.763C1077.65 105.838 1068.52 105.226 1060.56 103.997C1050.1 102.193 1041.39 99.7772 1035.14 96.9402C1033.16 96.046 1031.45 95.1178 1030.01 94.1634ZM1038.42 129.358C1036.42 129.63 1034.47 129.907 1032.55 130.19C1024.21 131.87 1020.05 135.106 1016.02 138.257L1015.3 138.845C1009.64 143.001 1007.3 147.418 1008.45 151.819V151.819C1008.93 153.531 1011.02 153.896 1012.66 153.205C1014.44 152.456 1016.46 151.744 1018.73 151.078C1028.12 148.314 1040.99 146.521 1055.01 146.025C1069.03 145.528 1083.27 146.362 1095.14 148.374C1107.01 150.385 1115.73 153.442 1119.71 156.99C1119.82 157.087 1119.92 157.185 1120.01 157.282C1123.21 160.466 1122.87 166.146 1119.42 169.061C1118.77 169.615 1118.01 170.162 1117.16 170.699V170.699C1116.53 171.072 1116.87 172.282 1117.59 172.189C1137.27 169.657 1156.53 165.988 1172.62 160.692C1172.86 160.628 1173.12 160.568 1173.38 160.513C1195.36 152.919 1207.52 145.987 1210.23 139.524C1210.91 137.914 1210.36 136.133 1209.49 134.618L1208.94 133.661C1208.75 133.336 1208.44 133.078 1208.31 132.725V132.725C1208.27 132.563 1208.21 132.403 1208.12 132.246L1208.04 132.099C1205.88 128.591 1193.94 125.97 1186.84 124.707C1175.2 122.516 1161.35 121.27 1147.01 121.126C1141.3 121.079 1135.61 121.295 1130.2 121.76C1128.54 121.904 1126.89 122.259 1125.23 122.466V122.466C1124.25 122.588 1123.2 122.659 1122.12 122.675C1117.84 123.284 1113.92 124.059 1110.51 124.975C1104.34 126.854 1100.13 129.119 1098.29 131.549C1096.91 132.993 1096.41 134.486 1096.8 135.972C1097.49 137.84 1100.22 139.618 1104.66 141.094C1109.1 142.569 1115.07 143.681 1121.86 144.296C1128.53 144.79 1135.65 144.699 1142.11 144.038C1148.57 143.377 1154.03 142.182 1157.65 140.635C1159.76 139.649 1160.87 138.538 1160.87 137.408C1160.87 136.278 1159.76 135.167 1157.65 134.181C1155.5 133.284 1152.36 132.577 1148.65 132.152C1144.93 131.728 1140.82 131.606 1136.84 131.803C1133.2 132.048 1129.99 132.614 1127.77 133.405C1126.99 133.682 1126.35 133.98 1125.85 134.293C1124.52 135.125 1125.09 136.875 1126.53 137.473V137.473C1127.51 137.878 1128.79 138.226 1130.29 138.497C1131.57 138.756 1133.04 138.944 1134.6 139.05C1136.17 139.156 1137.8 139.177 1139.39 139.112C1140.49 139.038 1141.63 139.022 1142.75 139.067C1143.87 139.112 1144.94 139.216 1145.9 139.373C1146.86 139.529 1147.68 139.735 1148.33 139.978C1148.97 140.221 1149.42 140.496 1149.65 140.785C1149.87 141.075 1149.87 141.374 1149.64 141.663C1149.41 141.952 1148.96 142.227 1148.31 142.469C1147.66 142.711 1146.83 142.916 1145.87 143.072C1144.91 143.227 1143.84 143.33 1142.72 143.374C1138.87 143.564 1134.91 143.543 1131.09 143.313C1127.27 143.083 1123.67 142.649 1120.53 142.038C1117.16 141.419 1114.32 140.625 1112.18 139.705C1112.07 139.66 1111.97 139.614 1111.87 139.568C1108.94 138.251 1107.61 134.567 1110.29 132.795C1111.26 132.148 1112.54 131.529 1114.11 130.954C1118.65 129.287 1125.31 128.096 1132.9 127.594C1140.29 127.188 1147.98 127.385 1154.92 128.156C1161.87 128.928 1167.75 130.238 1171.76 131.91C1175.46 133.545 1177.47 135.405 1177.58 137.305C1177.7 139.205 1175.92 141.08 1172.42 142.746C1168.8 144.387 1163.79 145.79 1157.77 146.846C1151.75 147.902 1144.89 148.584 1137.71 148.839C1130.83 149.123 1123.79 149.009 1117.1 148.505C1107.11 147.646 1098.3 146.043 1091.75 143.892C1085.2 141.741 1081.2 139.137 1080.24 136.399C1079.66 134.462 1080.26 132.514 1082.03 130.627V130.627C1083.38 128.882 1082.25 124.824 1080.04 124.998C1065.73 126.127 1051.8 127.584 1038.42 129.358ZM1072.42 176.098C1071.68 176.217 1070.93 176.332 1070.19 176.372C1039.29 178.043 1013.43 177.657 1005.34 177.475C1004.65 177.44 1003.94 177.408 1003.24 177.38C993.015 176.966 982.789 174.855 974.967 171.434C970.35 169.46 966.261 166.965 963.249 164.015C961.831 162.627 961.009 160.671 961.389 158.723C963.126 149.806 976.061 142.334 1000.02 136.381C1000.31 136.307 1000.51 136.691 1000.27 136.881V136.881L999.503 137.455C993.146 142.167 990.554 147.17 991.885 152.153C993.396 157.318 1000.89 162.239 1013.36 166.264C1019.8 168.255 1033.3 171.608 1051.7 171.542C1053.63 171.564 1055.56 171.546 1057.48 171.488C1067.52 171.057 1076.61 169.684 1083.05 167.627C1087.67 166.178 1090.7 164.427 1091.8 162.562C1092.89 160.697 1092.03 158.789 1089.28 157.044C1086.07 155.225 1080.54 153.755 1073.64 152.884C1066.74 152.014 1058.89 151.798 1051.45 152.274C1047.47 152.604 1043.82 153.157 1040.74 153.893C1037.65 154.629 1035.22 155.531 1033.61 156.536C1032 157.457 1031.19 158.458 1031.24 159.47C1031.28 160.481 1032.18 161.478 1033.86 162.389C1034.95 162.86 1036.68 163.206 1038.7 163.358C1040.72 163.51 1042.89 163.456 1044.77 163.207C1046.64 162.959 1048.09 162.534 1048.82 162.017C1049.55 161.501 1049.5 160.932 1048.69 160.425C1048.11 160.084 1047.81 159.715 1047.81 159.342C1047.81 158.969 1048.11 158.601 1048.69 158.26C1049.33 157.84 1050.31 157.462 1051.56 157.151C1052.82 156.839 1054.31 156.602 1055.95 156.456C1059.53 156.267 1063.26 156.401 1066.52 156.835C1069.77 157.269 1072.37 157.978 1073.89 158.848C1075.36 159.85 1075.77 160.937 1075.08 161.995C1074.38 163.053 1072.62 164.043 1069.96 164.861C1067.73 165.577 1064.95 166.162 1061.8 166.574C1058.64 166.987 1055.18 167.218 1051.65 167.252C1046.61 167.145 1041.72 166.755 1037.31 166.109C1032.9 165.464 1029.07 164.578 1026.09 163.511C1024.11 162.869 1022.29 162.199 1020.62 161.506C1020.51 161.458 1020.45 161.332 1020.43 161.209V161.209C1020.43 161.185 1020.42 161.16 1020.43 161.136C1020.63 158.492 1024.43 155.953 1031.16 153.975C1037.91 151.989 1047.16 150.7 1057.24 150.343C1067.32 149.986 1077.55 150.584 1086.08 152.029C1094.62 153.474 1100.89 155.67 1103.76 158.219V158.219C1106.46 160.852 1106.2 165.644 1103.24 167.992C1102.86 168.296 1102.43 168.598 1101.97 168.896C1096.5 172.049 1083.87 174.24 1072.42 176.098V176.098ZM1440.89 170.566V170.566C1441.41 168.996 1440.5 166.224 1438.84 166.319C1433.13 166.651 1427.36 166.926 1421.56 167.145C1412.19 167.513 1402.02 167.768 1391.3 167.819C1388.84 167.831 1386.39 168.216 1383.93 168.401V168.401C1380.02 168.868 1376.91 169.703 1375.24 170.739C1370.29 172.968 1368.25 175.556 1369.41 178.115C1370.01 179.284 1371.62 180.401 1374.11 181.383C1376.61 182.365 1379.94 183.185 1383.83 183.78C1387.45 184.294 1391.58 184.519 1395.68 184.426C1399.79 184.333 1403.7 183.928 1406.94 183.259C1408.99 182.735 1410.7 182.129 1411.99 181.467C1413.48 180.709 1415.58 179.663 1415.26 178.027V178.027C1415.13 177.337 1414.46 176.662 1413.28 176.044C1412.05 175.537 1410.2 175.153 1408.03 174.954C1405.87 174.755 1403.5 174.752 1401.33 174.947C1399.16 175.141 1397.3 175.521 1396.05 176.026C1394.81 176.53 1394.25 177.13 1394.46 177.727C1394.56 178.012 1394.45 178.3 1394.12 178.574C1393.8 178.847 1393.27 179.101 1392.57 179.321C1391.87 179.542 1391.01 179.724 1390.04 179.857C1389.07 179.991 1388.01 180.073 1386.92 180.099C1385.83 180.125 1384.73 180.095 1383.68 180.01C1382.64 179.926 1381.67 179.788 1380.82 179.605C1379.98 179.422 1379.28 179.197 1378.77 178.944C1378.26 178.691 1377.95 178.413 1377.85 178.128C1377.3 176.56 1378.79 174.99 1382.06 173.668C1385.34 172.347 1390.22 171.352 1395.92 170.842C1401.62 170.332 1407.81 170.337 1413.5 170.856C1419.19 171.375 1424.04 172.379 1427.29 173.705C1429.77 174.836 1431.3 176.091 1431.78 177.389C1432.25 178.686 1431.66 179.995 1430.05 181.228C1428.01 183.246 1423.83 185.072 1417.98 186.493C1412.87 187.649 1406.58 188.396 1399.88 188.644C1391.75 188.972 1383.42 188.617 1376.11 187.629C1369.9 186.721 1364.59 185.45 1360.58 183.915C1356.57 182.38 1353.97 180.624 1353 178.783C1351.27 175.277 1353.98 171.719 1360.72 168.655V168.655C1361.26 168.348 1361.08 167.398 1360.46 167.377C1356.85 167.253 1353.22 167.101 1349.56 166.918C1346.62 166.772 1343.89 172.852 1343.43 175.756C1343.23 177.031 1342.74 178.265 1342.12 179.413C1340.72 181.981 1341.69 185.631 1344.43 186.667C1351.09 189.195 1353.94 192.279 1355.13 194.512C1356.04 196.212 1356.47 198.183 1357.43 199.855L1361.56 207.046C1366.53 215.705 1374.49 222.265 1384.4 223.422C1403.6 225.662 1432.2 225.814 1447.77 225.558C1448.65 225.544 1449.5 225.47 1450.37 225.301C1454.28 224.533 1461.57 222.564 1463.15 218.326C1463.4 217.653 1462.89 217.002 1462.21 216.792V216.792C1461.5 216.574 1460.96 216.322 1460.63 216.05C1456.79 212.87 1440.33 211.079 1428.67 211.68C1425.32 211.85 1422.71 212.188 1420.84 212.691C1417.49 213.595 1418.67 217.344 1422.05 218.153C1422.11 218.167 1422.16 218.18 1422.22 218.194C1424.81 218.794 1428.13 219.133 1431.59 219.15C1432.77 219.187 1433.97 219.159 1435.12 219.068C1436.26 218.978 1437.32 218.825 1438.22 218.622C1439.12 218.418 1439.86 218.167 1440.37 217.885V217.885C1441.11 217.48 1441.39 216.546 1442.14 216.176C1442.17 216.165 1442.19 216.154 1442.21 216.142C1442.77 215.882 1443.52 215.655 1444.42 215.474C1445.33 215.293 1446.37 215.162 1447.47 215.09C1448.58 215.018 1449.72 215.006 1450.85 215.054C1451.97 215.103 1453.05 215.211 1454 215.372C1454.96 215.533 1455.78 215.744 1456.42 215.991C1457.05 216.239 1457.48 216.517 1457.69 216.81V216.81C1458.06 217.336 1457.51 218.022 1457.07 218.494C1456.04 219.619 1453.87 220.656 1450.78 221.496C1446.96 222.533 1441.94 223.211 1436.5 223.426C1434.59 223.482 1432.68 223.496 1430.77 223.466C1423.27 223.389 1416.12 222.615 1410.62 221.282C1405.12 219.949 1401.62 218.145 1400.76 216.197V216.197C1400.35 214.943 1399.61 213.163 1398.3 213.012C1394.22 212.544 1390.35 211.954 1386.77 211.253C1380.38 210.004 1375.03 208.426 1371.05 206.617C1367.14 204.779 1365.53 202.666 1366.44 200.576C1367.36 198.486 1370.76 196.524 1376.17 194.965C1388.18 191.184 1408.33 189.246 1423.05 190.462C1428.51 190.952 1433.26 191.874 1436.63 193.1C1437.42 193.387 1438.12 193.688 1438.74 193.999C1441.57 195.425 1442.13 199.348 1439.5 201.123C1439.39 201.203 1439.26 201.282 1439.14 201.361C1437.09 202.644 1433.97 203.791 1430 204.719C1426.85 205.5 1423.03 206.076 1418.86 206.398C1414.7 206.721 1410.3 206.782 1406.02 206.577C1401.45 206.371 1397.19 205.832 1393.73 205.021C1390.27 204.21 1387.77 203.161 1386.49 201.994C1386.15 201.709 1386.03 201.409 1386.15 201.112C1386.27 200.815 1386.61 200.528 1387.17 200.268C1387.73 200.007 1388.49 199.78 1389.4 199.6C1390.31 199.419 1391.36 199.29 1392.46 199.219C1393.57 199.149 1394.73 199.138 1395.85 199.189C1396.98 199.24 1398.05 199.35 1399.01 199.514C1399.96 199.678 1400.78 199.891 1401.41 200.14V200.14C1402.33 200.509 1403.08 201.264 1404.04 201.554C1404.41 201.667 1404.82 201.769 1405.27 201.861C1406.43 202.095 1407.8 202.247 1409.25 202.301C1411 202.364 1412.78 202.321 1414.45 202.175C1416.13 202.029 1417.65 201.784 1418.91 201.459C1420.96 200.98 1422.59 200.39 1423.68 199.73V199.73C1425.25 198.786 1425.02 196.535 1423.37 195.748C1421.58 194.898 1419.07 194.693 1417.99 194.604C1409.81 193.923 1396.51 195.353 1388.95 197.731C1385.72 198.634 1383.67 199.782 1383.1 201.01C1382.53 202.237 1383.47 203.48 1385.78 204.559C1388.66 205.828 1392.49 206.933 1397.04 207.808C1397.84 207.962 1398.67 208.109 1399.51 208.247C1406 209.319 1412.62 208.496 1419.17 207.829C1421.1 207.633 1423.16 207.477 1425.35 207.365C1435.82 206.816 1446.69 207.253 1456.05 208.598V208.598C1457.33 208.781 1458.24 207.325 1457.52 206.257C1449.65 194.544 1443.1 180.406 1441.98 177.979V177.979C1441.9 177.812 1441.8 177.654 1441.7 177.503C1440.09 175.215 1439.81 172.876 1440.89 170.566ZM1413.65 229.679C1423.44 229.941 1433.28 230.027 1443.11 229.937C1443.83 229.93 1444.5 230.3 1444.88 230.913V230.913C1445.7 232.249 1444.78 233.977 1443.21 234.039L1112.42 247.014C1111.65 247.044 1110.93 246.644 1110.55 245.977V245.977C1109.79 244.654 1110.68 242.994 1112.2 242.884C1121.19 242.231 1130.01 241.432 1138.62 240.489C1151.91 239.011 1162.59 237.346 1170.63 235.51C1180.65 233.217 1190.8 230.209 1201.08 229.806L1269.76 227.111C1270.41 227.121 1271.06 227.11 1271.71 227.079C1271.78 227.076 1271.85 227.065 1271.92 227.047L1271.99 227.029C1272.01 227.024 1272.03 227.02 1272.05 227.019V227.019L1347.39 224.075C1354.21 223.808 1361.02 224.819 1367.75 225.997C1378.7 227.913 1394.06 229.133 1413.65 229.679ZM1077.82 231.9C1077.29 232.295 1077.14 233.097 1077.69 233.447C1084.91 237.995 1096.03 239.068 1099.43 239.28C1111.11 238.612 1132.32 236.934 1148.88 234.328C1161.57 232.332 1165.85 219.877 1159.46 208.739L1157.94 206.099C1157.54 205.407 1157.02 204.802 1156.47 204.219C1156.41 204.147 1156.34 204.072 1156.27 203.993C1152.27 199.506 1151.16 187.724 1146.21 184.323C1143.86 182.713 1141.85 180.978 1140.66 179.205C1139.36 177.269 1136.78 174.478 1134.47 174.822C1129.93 175.498 1125.35 176.114 1120.77 176.672C1120.07 176.757 1120.01 177.828 1120.68 178.022V178.022C1130.53 180.44 1137.12 183.629 1139.44 187.109C1140.58 188.944 1140.07 190.824 1137.96 192.6C1135.85 194.376 1132.19 196 1127.27 197.344C1121.42 198.864 1113.86 199.857 1105.7 200.176C1098.96 200.471 1092.04 200.238 1085.81 199.508C1078.63 198.602 1072.58 197.179 1068.38 195.406C1065.51 194.354 1063.53 193.155 1062.57 191.888C1061.61 190.621 1061.69 189.315 1062.8 188.057C1064.39 186.534 1067.89 185.195 1072.75 184.257C1077.61 183.319 1083.53 182.837 1089.57 182.888C1095.61 182.939 1101.4 183.52 1106.02 184.538C1110.63 185.556 1113.8 186.952 1115 188.498C1115.45 189.062 1115.02 189.648 1113.82 190.13C1112.61 190.611 1110.72 190.947 1108.56 191.064C1106.41 191.181 1104.16 191.069 1102.32 190.753C1100.48 190.437 1099.19 189.944 1098.75 189.38C1098.29 188.79 1097.09 188.258 1095.33 187.869C1093.57 187.481 1091.36 187.258 1089.06 187.238C1086.76 187.218 1084.5 187.402 1082.65 187.759C1081.98 187.888 1081.38 188.037 1080.86 188.202C1079.43 188.651 1078.14 190.167 1079.18 191.246V191.246C1079.82 191.912 1080.98 192.537 1082.59 193.081C1085.06 194.149 1088.59 195.022 1092.81 195.607C1096.68 195.993 1100.9 196.072 1104.94 195.835C1108.98 195.597 1112.66 195.053 1115.52 194.27C1118.58 193.405 1120.84 192.366 1122.13 191.236C1123.41 190.105 1123.69 188.913 1122.93 187.75C1121.22 185.214 1116.37 182.894 1109.12 181.149C1106.35 180.288 1102.45 179.727 1098.18 179.572C1097.04 179.601 1095.89 179.568 1094.8 179.476V179.476C1094.1 179.416 1093.4 179.394 1092.7 179.448C1081.62 180.313 1070.85 180.902 1060.81 181.296C1055.97 181.495 1051.11 181.654 1046.24 181.773C1044.4 181.818 1043.83 185.092 1045.37 186.092V186.092C1047.41 187.285 1049.05 188.52 1050.28 189.784C1052.1 191.653 1053.22 194.075 1054.66 196.248C1058.16 201.549 1064.98 212.203 1069.49 221.487C1070.34 223.244 1072.35 224.126 1074.24 223.617V223.617C1081.65 221.617 1091.53 220.366 1102.13 220.085C1105.12 220.002 1107.99 220.013 1110.7 220.113C1117.1 220.347 1123.63 220.648 1129.69 218.591C1129.83 218.54 1129.98 218.49 1130.13 218.439C1133.49 217.255 1135.91 215.906 1137.25 214.473C1138.26 213.266 1137.77 212.005 1135.85 210.875C1133.92 209.745 1130.67 208.806 1126.56 208.193C1116.64 206.496 1102.33 206.095 1095.27 207.432C1093.89 207.672 1089.65 208.434 1091.74 210.879C1092.47 211.569 1093.75 212.21 1095.52 212.757C1097.29 213.304 1099.49 213.743 1101.97 214.046C1103.56 214.253 1105.31 214.361 1107.08 214.361C1108.86 214.361 1110.61 214.253 1112.19 214.046C1113.51 213.88 1114.64 213.627 1115.47 213.314V213.314C1116.62 212.88 1117.11 211.528 1118.25 211.059C1118.52 210.948 1118.83 210.843 1119.17 210.746C1120.63 210.336 1122.63 210.088 1124.77 210.053C1126.91 210.019 1129.01 210.201 1130.65 210.561V210.561C1132.8 211.035 1133.58 213.387 1131.72 214.572C1131.25 214.873 1130.69 215.165 1130.04 215.445C1127.64 216.488 1124.17 217.332 1120.02 217.881C1116.14 218.396 1111.86 218.664 1107.52 218.664C1103.17 218.664 1098.89 218.396 1095.01 217.881C1090.19 217.297 1085.93 216.44 1082.54 215.372C1079.14 214.305 1076.7 213.053 1075.38 211.707C1073.67 210.259 1073.73 208.708 1075.57 207.27C1077.4 205.832 1080.91 204.58 1085.61 203.69C1098.29 201.392 1119.71 201.713 1135.46 204.385C1142.36 205.465 1147.8 207.084 1151.01 209.013C1154.22 210.942 1155.04 213.085 1153.35 215.141C1151.59 217.177 1148.25 219.097 1143.55 220.783C1141.4 221.553 1138.99 222.267 1136.35 222.917C1134.89 223.274 1134.6 225.486 1135.56 226.633V226.633C1136.94 228.558 1135.63 230.549 1131.88 232.245C1128.13 233.941 1122.18 235.23 1115.11 235.879C1113.36 236.049 1111.54 236.17 1109.69 236.24C1104.18 236.464 1098.53 236.199 1093.66 235.487C1088.78 234.775 1084.96 233.657 1082.8 232.311C1082.24 232.055 1081.89 231.771 1081.77 231.477C1081.64 231.184 1081.75 230.886 1082.07 230.604C1082.4 230.321 1082.95 230.059 1083.68 229.833C1084.4 229.607 1085.3 229.422 1086.31 229.29C1087.32 229.157 1088.42 229.08 1089.55 229.062C1090.68 229.045 1091.81 229.087 1092.87 229.187C1093.94 229.288 1094.91 229.443 1095.74 229.645C1096.56 229.847 1097.22 230.09 1097.68 230.361C1098.07 230.657 1098.68 230.928 1099.49 231.159C1100.3 231.389 1101.29 231.572 1102.38 231.698C1103.48 231.824 1104.66 231.888 1105.86 231.888C1107.06 231.888 1108.24 231.823 1109.34 231.697C1112.62 231.416 1115.42 230.837 1117.21 230.066C1119.01 229.294 1119.7 228.38 1119.15 227.488C1117.31 225.163 1112.1 224.107 1103.81 224.334C1093.2 224.672 1080.92 227.122 1078.63 230.053C1078.2 230.604 1078.37 231.479 1077.82 231.9V231.9V231.9ZM1224.37 120.098C1221.26 121.116 1217.79 119.936 1216.16 117.102L1209.72 105.888C1209.7 105.858 1209.71 105.821 1209.73 105.795V105.795C1209.97 105.516 1209.99 105.227 1209.8 104.945V104.945C1209.6 104.657 1209.42 104.345 1209.31 104.018C1205.45 93.1585 1224.23 86.7943 1239.85 83.4446C1240.9 83.2183 1241.89 84.4008 1242.25 85.417V85.417C1242.32 85.5929 1242.36 85.7978 1242.46 85.9534C1242.52 86.049 1242.61 86.1441 1242.7 86.2401L1242.7 86.2432C1242.73 86.2732 1242.76 86.3034 1242.78 86.3336C1242.82 86.3686 1242.85 86.4037 1242.88 86.4391C1245.44 89.0088 1250.66 91.3445 1257.96 93.19C1265.27 95.0356 1274.37 96.3197 1284.29 96.9015C1293.13 97.6104 1302.56 97.6489 1311.49 97.0127C1320.41 96.3764 1328.46 95.0915 1334.7 93.3071C1342.65 90.778 1348.24 87.8007 1351.04 84.6099V84.6099C1352.85 82.5407 1356.1 80.2095 1358.7 81.111C1362.81 82.5354 1366.86 83.9415 1370.84 85.3251C1373.23 86.1556 1372.4 90.5133 1369.87 90.5813V90.5813C1365.13 90.5932 1360.42 90.7729 1355.86 91.1157C1349.48 91.6442 1343.87 92.6716 1339.79 94.0594C1335.72 95.4472 1333.36 97.1286 1333.06 98.8766C1332.75 100.625 1334.5 102.355 1338.08 103.835C1341.65 105.314 1346.88 106.471 1353.05 107.15C1357.51 107.685 1362.49 107.849 1367.32 107.618C1378.41 107.035 1384.03 104.316 1387.12 102.823L1387.2 102.781C1388.24 102.27 1388.46 101.673 1387.81 101.121C1387.17 100.568 1385.71 100.105 1383.75 99.8344C1381.8 99.5633 1379.52 99.506 1377.4 99.6751C1375.29 99.8443 1373.52 100.226 1372.48 100.736C1370.9 101.525 1367.37 103.168 1363.99 103.409C1362.48 103.455 1360.96 103.385 1359.6 103.208C1356.59 102.87 1354.04 102.301 1352.3 101.575C1350.57 100.85 1349.72 100.003 1349.87 99.1483C1350.02 98.2933 1351.16 97.4705 1353.14 96.7898C1355.13 96.109 1357.86 95.6026 1360.98 95.3381C1364.1 95.1216 1367.31 95.0094 1370.54 95.0041C1374.42 94.8865 1378.35 95.0007 1382.04 95.3381C1384.53 95.7001 1386.6 96.231 1388.02 96.8747C1391.04 98.1773 1392.67 99.667 1392.74 101.189C1392.81 102.712 1391.32 104.212 1388.43 105.533C1385.34 106.872 1381.08 107.999 1375.99 108.821C1370.91 109.644 1365.15 110.138 1359.19 110.263V110.263C1356.74 110.315 1354.29 110.553 1351.85 110.527C1333.3 110.332 1314.7 110.656 1296.37 111.498C1295.35 111.46 1294.32 111.427 1293.29 111.401C1292.78 111.388 1292.27 111.377 1291.76 111.367C1287.7 111.289 1283.32 107.025 1279.99 104.691V104.691C1279.04 103.961 1277.64 103.275 1275.85 102.66C1272.57 101.623 1268.17 100.868 1263.22 100.496C1256.21 99.845 1248.55 99.8385 1241.51 100.477C1234.48 101.116 1228.48 102.362 1224.52 104.01C1221.86 105.254 1220.72 106.683 1221.28 108.101C1221.84 109.519 1224.06 110.858 1227.64 111.934C1231.62 113.05 1237.06 113.736 1242.88 113.855C1248.71 113.973 1254.49 113.517 1259.08 112.575C1259.97 112.395 1260.71 112.17 1261.26 111.914C1261.8 111.657 1262.14 111.375 1262.26 111.083C1262.38 110.791 1262.27 110.496 1261.94 110.215C1261.61 109.935 1261.07 109.675 1260.34 109.45C1259.62 109.226 1258.73 109.042 1257.73 108.91C1256.73 108.778 1255.63 108.7 1254.51 108.681C1253.39 108.662 1252.27 108.703 1251.21 108.8C1250.15 108.897 1249.17 109.05 1248.35 109.248C1247.03 109.466 1245.47 109.559 1243.92 109.51C1242.37 109.461 1240.94 109.274 1239.86 108.981C1238.67 108.58 1237.95 108.096 1237.81 107.59C1237.66 107.084 1238.09 106.577 1239.04 106.135C1241.18 105.385 1244.19 104.837 1247.62 104.575C1251.05 104.312 1254.72 104.348 1258.06 104.678C1259.87 104.808 1261.51 105.061 1262.82 105.413C1263.5 105.677 1264.03 105.965 1264.4 106.268C1267.02 108.102 1267.79 110.077 1266.65 112.004C1266.58 112.11 1266.47 112.177 1266.35 112.187V112.187C1249.67 113.684 1235.07 116.436 1224.37 120.098V120.098ZM1159.28 84.9024C1165.28 85.8263 1171.81 87.0419 1178.17 88.6374C1180.27 89.1628 1182.04 86.8966 1180.96 85.0246V85.0246C1180.68 84.5396 1180.24 84.1665 1179.71 83.9778C1171.19 80.9221 1160.11 78.4035 1147.3 76.617C1132.77 74.5907 1116.49 73.5742 1100.03 73.6649C1082.2 73.6891 1065.13 75.5412 1052.48 78.8226C1048.42 79.9719 1045.31 81.3289 1043.36 82.8077C1041.4 84.2865 1040.65 85.855 1041.13 87.4144C1041.69 89.9896 1044.54 92.4953 1049.44 94.7333C1054.35 96.9713 1061.18 98.8801 1069.4 100.309C1074.75 101.098 1080.84 101.476 1086.98 101.398C1093.11 101.32 1099.04 100.789 1104.07 99.8677C1116.79 97.8288 1124.73 94.3257 1124.13 91.0882C1124.1 90.9039 1123.91 90.7343 1123.84 90.5605V90.5605C1123.76 90.3808 1123.74 90.2302 1123.61 90.0849C1121.94 88.1912 1118.18 86.464 1112.81 85.1161C1111.66 84.7957 1110.91 84.3921 1110.65 83.9581C1110.4 83.5241 1110.65 83.0801 1111.38 82.6843C1112.09 82.2894 1113.24 81.9604 1114.68 81.7408C1116.13 81.5213 1117.79 81.4216 1119.46 81.4549C1133.51 81.8638 1147.08 83.0382 1159.28 84.9024ZM1203.35 88.6831C1201.87 89.451 1200.01 88.9791 1199.17 87.5297L1198.02 85.5219C1197.85 85.2207 1197.97 84.8531 1198.2 84.5957V84.5957C1198.45 84.3174 1198.49 84.0288 1198.31 83.7466C1198.3 83.7292 1198.29 83.7118 1198.28 83.6945V83.6945C1198.26 83.6742 1198.27 83.6459 1198.29 83.6304C1203.01 79.9334 1210.95 76.5681 1221.53 73.8048C1233.16 70.7636 1247.59 68.5532 1263.43 67.3849C1280.48 66.0642 1298.84 66.5439 1314.56 68.7211C1319.71 69.512 1324.18 70.5713 1327.7 71.8333C1331.22 73.0953 1333.7 74.5329 1335.01 76.0568C1337.35 78.5641 1337.44 81.1792 1335.27 83.697C1333.09 86.2147 1328.72 88.5665 1322.48 90.5679C1318.23 91.7281 1312.82 92.5526 1306.86 92.9472C1300.9 93.3417 1294.64 93.2905 1288.79 92.7993C1281.9 92.4071 1275.55 91.5357 1270.4 90.2773C1265.25 89.0189 1261.5 87.4204 1259.54 85.6507C1259.41 85.492 1259.3 85.3314 1259.24 85.1697C1258.5 83.158 1260.12 81.1351 1263.89 79.3706C1264.62 78.9767 1264.88 78.5348 1264.64 78.1019C1264.4 77.669 1263.66 77.2648 1262.54 76.9414C1261.41 76.618 1259.94 76.3902 1258.31 76.2873C1256.68 76.1845 1254.98 76.2112 1253.41 76.3642C1240.46 77.8448 1228.84 80.0105 1219.25 82.7245C1213.79 84.2614 1208.09 86.2325 1203.35 88.6831ZM1131.33 17.5877C1135.47 14.6658 1141.22 15.9343 1143.74 20.3221L1165.5 58.1563C1169.53 65.1538 1163.23 73.8622 1155.24 72.7459V72.7459C1144.31 71.2207 1132.54 70.1864 1120.41 69.6732C1119.54 69.5594 1118.59 69.4853 1117.61 69.4563C1112.96 69.3258 1108.47 68.9482 1104.4 68.3467C1100.33 67.7452 1096.78 66.9326 1093.96 65.9588C1091.14 64.985 1089.11 63.8707 1088 62.6844C1086.89 61.4981 1086.72 60.2649 1087.5 59.0607C1088.12 57.8266 1090.19 56.6735 1093.43 55.7603C1097.24 54.9174 1101.7 54.3017 1106.52 53.9564C1110.56 53.5505 1114.87 53.3553 1119.2 53.3818C1122.03 53.4737 1124.71 53.7705 1126.93 54.2387C1129.15 54.7069 1130.83 55.328 1131.78 56.0321C1132.72 56.7361 1132.9 57.4952 1132.28 58.2238C1131.67 58.9524 1130.29 59.6217 1128.3 60.1564C1126.85 60.5763 1124.83 60.8306 1122.67 60.8645V60.8645C1121.61 60.8366 1120.77 59.8637 1119.88 59.2918C1119.77 59.2235 1119.66 59.1559 1119.53 59.0892C1118.65 58.6097 1117.39 58.1853 1115.82 57.8448C1114.68 57.645 1113.39 57.5077 1112.04 57.4411C1110.68 57.3745 1109.29 57.38 1107.95 57.4573C1106.41 57.547 1105.01 57.7488 1103.9 58.0391C1102.79 58.3294 1102.02 58.6962 1101.68 59.0968C1101.33 59.4975 1101.43 59.9153 1101.96 60.3017V60.3017C1103.47 61.3978 1105.33 62.1637 1107.04 62.9007C1108 63.3145 1109.2 63.6908 1110.61 64.0151C1113.71 64.7274 1117.63 65.1473 1121.75 65.2072C1125.14 65.2318 1128.51 65.071 1131.64 64.735C1134.78 64.399 1137.61 63.8953 1139.95 63.2563C1144.3 62.1516 1147.35 60.7451 1148.74 59.2026C1150.13 57.6601 1149.8 56.0459 1147.8 54.5502C1146.63 53.6818 1144.93 52.8744 1142.78 52.1583C1142.24 51.9796 1142.25 51.1569 1142.8 51.0023V51.0023C1145.97 50.1039 1148.39 49.045 1149.93 47.8914C1151.47 46.7377 1152.09 45.5138 1151.74 44.2954C1151.4 43.077 1150.1 41.8901 1147.93 40.8082C1146.46 40.1131 1144.75 39.4555 1142.82 38.844C1139.07 37.2575 1133.49 36.0225 1126.88 35.3167V35.3167C1121.15 34.704 1118.53 26.6467 1123.23 23.3161C1126.09 21.2944 1128.8 19.3793 1131.33 17.5877ZM1120.88 49.0259C1122.01 49.0548 1123.13 49.0995 1124.24 49.1594C1124.37 49.1662 1124.49 49.1613 1124.61 49.146V49.146C1126.79 48.8872 1128.75 48.5175 1130.37 48.0587C1132 47.5998 1133.26 47.061 1134.07 46.4736C1134.85 45.8811 1135.16 45.2537 1134.98 44.6291C1134.81 44.0046 1134.15 43.3958 1133.05 42.8392C1132.13 42.3853 1131.01 41.9595 1129.73 41.5698C1126.66 40.3545 1122.01 39.4715 1116.64 39.0845C1114.18 39.0058 1111.68 39.0466 1109.28 39.2047C1107.98 39.2433 1106.72 39.3489 1105.59 39.5147C1105.15 39.5783 1104.64 39.6079 1104.37 39.9506V39.9506C1104.27 40.0704 1104.27 40.1941 1104.37 40.3138C1104.8 40.7776 1105.79 41.1937 1107.18 41.503C1108.79 41.8999 1109.72 42.4474 1109.79 43.025C1109.85 43.6026 1109.03 44.163 1107.51 44.5829C1105.99 45.0028 1103.9 45.2479 1101.69 45.2642C1099.48 45.2805 1097.33 45.0667 1095.73 44.6698C1095.5 44.6147 1095.27 44.5586 1095.05 44.5014C1094.27 44.3026 1093.46 44.4219 1092.81 44.8852V44.8852C1090.48 46.5427 1092.22 50.7249 1095.06 50.3979C1097.12 50.1617 1099.23 49.9621 1101.4 49.8009C1107.62 49.1929 1114.25 48.9291 1120.88 49.0259ZM1067.78 62.6974C1068.98 61.8399 1070.99 62.616 1072.01 63.6888V63.6888C1073.67 65.4478 1076.69 67.1 1080.87 68.5449V68.5449C1081.54 68.7754 1081.41 69.858 1080.7 69.9018C1076.13 70.1853 1071.65 70.5693 1067.3 71.0511V71.0511C1063.9 71.4279 1062.03 66.8016 1064.81 64.8151C1065.8 64.1083 1066.79 63.4023 1067.78 62.6974ZM1173.5 204.292L1178.13 212.35C1180.37 216.246 1185.14 217.614 1189.07 215.433V215.433C1192.62 213.464 1194.61 209.044 1192.52 205.564C1191.54 203.918 1190.32 202.094 1188.83 200.216V200.216C1185.49 195.906 1184.1 186.585 1179.55 183.582C1177.11 181.972 1175.71 180.251 1175.49 178.49C1175.54 174.468 1183.16 170.499 1198.09 166.704C1207.65 164.142 1215.76 161.237 1222.16 158.079C1222.37 157.977 1222.44 157.717 1222.5 157.494V157.494C1222.57 157.209 1222.86 156.93 1223.35 156.674C1223.84 156.418 1224.51 156.189 1225.34 156.002C1226.17 155.814 1227.13 155.67 1228.16 155.58C1228.58 155.543 1229.01 155.515 1229.44 155.497L1229.56 155.484C1231.63 155.273 1233.94 155.286 1235.97 155.52C1238.01 155.754 1239.6 156.19 1240.41 156.731V156.731C1240.8 156.995 1241.18 157.336 1241.64 157.455C1251.23 159.955 1262.15 162.085 1274.06 163.778C1292.62 166.264 1304.33 169.47 1308.88 173.305V173.305C1312.83 177.085 1313.21 187.453 1317.39 190.987C1318.94 192.304 1320 193.663 1320.54 195.045C1321.94 198.795 1324.05 202.297 1325.59 204.608C1326.53 206.008 1327.98 206.964 1329.61 207.393C1330.19 207.548 1330.78 207.703 1331.36 207.86C1337.2 209.426 1342.26 203.099 1339.25 197.851V197.851V197.851C1339.16 197.644 1339.26 197.401 1339.23 197.175C1338.96 194.856 1336 189.396 1323.91 187.429C1322.33 187.169 1321.12 186.778 1320.49 186.317C1319.86 185.856 1319.84 185.354 1320.44 184.89C1326.01 180.521 1335.16 168.361 1310.98 164.62C1293.09 161.854 1277.59 159.042 1264.44 156.17C1239.56 150.74 1210.21 154.934 1186.14 163.236C1179.4 165.563 1171.81 167.938 1163.37 170.366C1144.51 175.777 1166.9 186.734 1177.13 190.475C1178.19 190.872 1178.72 191.351 1178.63 191.835C1178.53 192.319 1177.82 192.781 1176.61 193.148C1166.8 196.101 1170.84 201.953 1173.19 203.971C1173.34 204.074 1173.44 204.182 1173.5 204.292ZM1268.59 222.758L1197.07 225.557C1195.15 225.632 1194.29 223.303 1195.88 222.229V222.229C1196.19 222.025 1196.56 221.897 1196.92 221.883L1337.38 216.373C1337.61 216.363 1337.86 216.4 1338.08 216.474V216.474C1340.12 217.15 1339.67 220.02 1337.53 220.104L1270.68 222.717C1269.98 222.708 1269.28 222.721 1268.59 222.758ZM1316.62 212.788C1318.16 212.728 1318.41 210.612 1316.91 210.219V210.219C1316.78 210.185 1316.65 210.169 1316.51 210.175L1264.2 212.227C1264.17 212.228 1264.13 212.238 1264.1 212.255V212.255C1264.06 212.273 1264.02 212.283 1263.99 212.284C1263.51 212.295 1263.03 212.295 1262.56 212.285C1262.34 212.295 1262.12 212.303 1261.89 212.309L1209.99 214.345C1209.79 214.352 1209.6 214.404 1209.42 214.489V214.489C1208.11 215.135 1208.63 217.023 1210.09 216.966L1316.62 212.788ZM1226.34 134.809C1226.55 135.178 1226.89 135.445 1227.28 135.613C1227.62 135.758 1227.9 135.914 1228.1 136.079C1236.23 142.97 1256.68 149.469 1290.17 155.819C1290.63 155.869 1291.07 155.93 1291.49 156.001C1312.27 159.727 1334.19 161.75 1355.32 162.696C1356 162.726 1356.16 161.605 1355.51 161.413V161.413C1349.27 159.458 1344.67 157.182 1342.01 154.732C1339.34 152.713 1337.86 150.6 1337.61 148.465C1337.41 144.763 1342.29 141.164 1351.38 138.323C1360.47 135.482 1373.16 133.589 1387.15 132.987C1401.13 132.385 1415.47 133.115 1427.57 135.043C1430.82 135.562 1433.86 136.159 1436.64 136.823C1437.86 137.113 1438.79 135.965 1437.97 135.024V135.024C1434.16 130.72 1426.97 126.67 1416.85 123.132C1404.63 118.682 1393.84 116.29 1383.62 115.836C1383.2 115.812 1382.78 115.779 1382.38 115.739C1370.02 115.193 1357.54 114.895 1345.05 114.845C1342.57 114.835 1341.93 119.373 1344.16 120.445V120.445C1347.96 122.102 1350.74 123.906 1352.39 125.79C1354.53 128.478 1353.62 131.271 1349.78 133.827C1345.94 136.383 1339.33 138.591 1330.77 140.181C1325.01 141.179 1318.48 141.831 1311.64 142.091C1304.49 142.397 1297.15 142.272 1290.21 141.725C1283.26 141.179 1276.88 140.226 1271.56 138.938C1266.36 137.612 1262.56 135.956 1260.54 134.131C1258.52 132.306 1258.36 130.376 1260.06 128.529C1262.02 126.623 1266.17 124.921 1271.95 123.65C1277.72 122.379 1284.85 121.601 1292.37 121.42C1300.19 121.317 1307.89 121.942 1314.11 123.186C1320.33 124.429 1324.66 126.209 1326.32 128.208C1326.99 129.273 1326.82 130.362 1325.8 131.408C1324.79 132.455 1322.97 133.435 1320.44 134.288C1318.12 135.113 1315.17 135.805 1311.79 136.32C1308.4 136.835 1304.65 137.162 1300.75 137.281C1299.64 137.325 1298.5 137.309 1297.4 137.234C1296.31 137.16 1295.29 137.027 1294.39 136.846C1293.5 136.665 1292.76 136.438 1292.22 136.179C1291.67 135.92 1291.33 135.635 1291.22 135.341C1291.11 135.048 1291.23 134.751 1291.57 134.469C1291.91 134.188 1292.47 133.927 1293.21 133.704C1293.95 133.48 1294.85 133.298 1295.87 133.169C1296.88 133.04 1297.99 132.966 1299.12 132.952C1300.73 132.884 1302.28 132.731 1303.66 132.501C1305.04 132.271 1306.23 131.97 1307.14 131.616C1308.27 131.242 1309.1 130.813 1309.57 130.353V130.353C1310.32 129.628 1309.55 128.526 1308.62 128.051C1307.48 127.469 1305.84 126.959 1303.81 126.564C1300.79 125.978 1297.1 125.681 1293.34 125.723C1289.32 125.843 1285.53 126.277 1282.46 126.968C1279.4 127.659 1277.2 128.576 1276.16 129.598C1275.24 130.701 1275.41 131.847 1276.64 132.929C1277.87 134.011 1280.14 134.993 1283.22 135.785C1288.41 136.985 1294.97 137.708 1301.88 137.843C1308.8 137.978 1315.69 137.518 1321.51 136.533C1327.31 135.429 1331.77 133.912 1334.35 132.163C1336.94 130.414 1337.54 128.508 1336.08 126.672C1334.84 125.219 1332.69 123.829 1329.74 122.556C1325.29 120.369 1318.71 118.526 1310.67 117.211C1306.36 116.594 1301.73 116.151 1296.93 115.896C1296.01 115.947 1295.05 115.957 1294.11 115.924C1293.12 115.889 1292.17 115.808 1291.29 115.686C1284.56 115.538 1277.79 115.758 1271.41 116.33C1257.89 117.566 1246.06 119.815 1237.41 122.797C1231.73 124.667 1222.63 128.369 1225.85 132.07C1226.13 132.353 1226.19 132.647 1226.02 132.936V132.936C1225.83 133.272 1225.68 133.674 1225.88 134.01L1226.34 134.809ZM1209.33 70.7078C1199.69 73.257 1188.96 69.7608 1183.99 61.1095L1165.05 28.1391C1161.66 22.2281 1167.4 15.2649 1173.85 17.4739C1182.14 20.3131 1191.37 23.4768 1201.3 26.8825C1203.58 27.6643 1203.08 31.3485 1200.69 31.6424V31.6424C1192.23 32.8885 1185.88 34.9206 1182.89 37.3346C1181.74 38.0642 1180.85 38.8202 1180.24 39.5927C1179.39 40.7935 1179.5 42.0267 1180.54 43.2166C1181.59 44.4066 1183.55 45.5282 1186.31 46.5128C1189.07 47.4974 1192.58 48.3242 1196.6 48.9425V48.9425C1197.5 49.08 1197.76 50.393 1197.15 51.0603C1196.66 51.5854 1196.38 52.1238 1196.29 52.6684C1196.05 54.2531 1197.55 55.8228 1200.61 57.1922C1203.67 58.5616 1208.17 59.6735 1213.57 60.3966C1216.55 60.8224 1219.83 61.0804 1223.21 61.1541C1226.6 61.2277 1230 61.1153 1233.2 60.8242C1237.08 60.4559 1240.37 59.7573 1242.54 58.841C1243.43 58.4646 1244.11 58.0605 1244.57 57.6408C1245.42 56.8684 1246.85 55.5582 1246.6 54.4372V54.4372C1246.44 53.8614 1245.42 53.3255 1243.75 52.9472C1242.08 52.5689 1239.91 52.3791 1237.7 52.4195C1236.32 52.4437 1234.98 52.543 1233.75 52.7109C1232.53 52.8789 1231.46 53.1119 1230.6 53.3949C1229.46 53.8444 1228.7 54.3524 1228.37 54.8848C1228.31 54.9942 1228.26 55.1042 1228.23 55.2144C1228.04 55.8842 1228.01 56.7381 1227.32 56.8156V56.8156C1226.28 56.8857 1225.2 56.9006 1224.14 56.8593C1223.07 56.818 1222.05 56.7213 1221.14 56.5751C1218.63 56.2162 1216.56 55.6816 1215.16 55.0316C1213.75 54.3817 1213.07 53.6421 1213.19 52.8963C1213.3 52.1504 1214.22 51.4279 1215.82 50.8102C1217.42 50.1924 1219.65 49.7039 1222.26 49.3997C1226.36 49.0392 1230.69 48.8984 1234.99 48.9855C1239.99 48.9421 1244.96 49.1838 1249.56 49.6937C1253.65 50.3153 1256.91 51.2475 1258.92 52.3661C1260.99 53.4587 1262.19 54.6503 1262.44 55.8681C1262.69 57.086 1261.99 58.3044 1260.38 59.4488C1258.77 60.5933 1256.28 61.6397 1253.06 62.5241C1249.85 63.4085 1245.98 64.1122 1241.69 64.5923V64.5923C1239.79 64.8057 1237.92 65.2317 1236.03 65.4963C1226.23 66.8697 1217.22 68.6235 1209.33 70.7078V70.7078ZM1266.5 167.64C1262.21 167.037 1258.04 166.383 1253.99 165.681C1240.9 163.41 1227.39 164.749 1214.63 168.431C1212.99 168.903 1211.31 169.365 1209.59 169.818C1197.98 172.771 1192.05 175.817 1192 178.503C1191.95 181.189 1197.32 183.941 1207.95 186.707C1209.24 187.039 1210.08 187.472 1210.34 187.94C1210.6 188.408 1210.26 188.886 1209.39 189.299C1203.79 192.436 1202.26 195.964 1205.04 199.348V199.348C1209.64 205.253 1216.37 209.698 1223.86 209.404L1259.44 208.006C1260.22 207.965 1261.02 207.953 1261.81 207.971L1297.53 206.568C1302.77 206.362 1305.72 200.429 1303.87 195.526V195.526C1302.67 192.087 1297.29 188.839 1288.53 186.253C1287.23 185.924 1286.38 185.493 1286.09 185.026C1285.81 184.559 1286.11 184.08 1286.95 183.661C1294.06 180.214 1296.25 177.287 1293.03 174.601C1289.81 171.916 1280.86 169.577 1266.5 167.64ZM1235.61 44.575C1238.28 44.5664 1239.18 39.885 1236.65 39.0171V39.0171C1236.06 38.8117 1235.42 38.8828 1234.85 39.1464C1234.79 39.1705 1234.74 39.1946 1234.69 39.2186C1234.2 39.4897 1233.5 39.7315 1232.64 39.9289C1231.77 40.1264 1230.77 40.2752 1229.67 40.366C1228.58 40.4569 1227.43 40.4878 1226.29 40.4569C1225.15 40.426 1224.04 40.334 1223.04 40.1865C1222.05 40.039 1221.18 39.8393 1220.49 39.5998C1219.8 39.3604 1219.3 39.0863 1219.04 38.7948C1218.77 38.5033 1218.74 38.2006 1218.94 37.9056C1219.15 37.6107 1219.58 37.3299 1220.22 37.0807C1221.15 36.6796 1221.6 36.2135 1221.49 35.7445C1221.47 35.6223 1221.33 35.5034 1221.1 35.3969C1220.87 35.2903 1220.55 35.199 1220.17 35.1299C1218.61 35.0026 1216.96 34.9796 1215.36 35.063C1212.87 35.1027 1210.43 35.2565 1208.15 35.5173C1204.89 36.0671 1202.22 36.8171 1200.37 37.6939C1198.99 38.3446 1197.68 39.2022 1196.7 40.3677V40.3677C1196.29 40.9843 1196.36 41.6165 1196.92 42.2253C1197.48 42.834 1198.51 43.4065 1199.94 43.9073C1201.38 44.4081 1203.19 44.8266 1205.27 45.1371C1207.35 45.4476 1209.66 45.6434 1212.04 45.7125V45.7125C1212.42 45.7246 1212.81 45.7075 1213.19 45.6547C1214.06 45.5341 1214.96 45.4238 1215.87 45.3243C1222.1 44.7251 1228.73 44.4703 1235.35 44.576C1235.44 44.5757 1235.52 44.5753 1235.61 44.575ZM1279.03 55.5974V55.5974C1278.88 54.8665 1279.66 53.8056 1280.36 54.0486C1284.26 55.3919 1288.18 56.7402 1292.09 58.0906C1294.29 58.8457 1293.59 62.3881 1291.27 62.3248V62.3248C1286.31 62.1892 1281.32 62.17 1276.37 62.2659C1275.71 62.2787 1275.44 61.3086 1275.98 60.9234V60.9234C1278.37 59.2206 1279.41 57.4085 1279.03 55.5974ZM1452.75 114.191C1443.17 110.689 1428.62 105.522 1410.9 99.3038C1410.13 99.033 1409.24 100.183 1409.29 101V101C1409.45 103.315 1407.24 105.599 1402.9 107.618V107.618C1400.98 108.473 1401.39 112.38 1403.49 112.533C1421.5 113.846 1437.52 115.772 1451.41 118.282C1454.27 118.799 1455.48 115.192 1452.75 114.191V114.191ZM1492.02 151.151C1493.74 149.395 1494.78 147.358 1494.94 145.089C1495.04 143.669 1493.68 142.83 1492.73 141.77V141.77C1482.9 131.754 1461.95 124.443 1430.55 119.984C1430.18 119.932 1430.05 120.465 1430.4 120.593V120.593C1441.85 124.618 1449.97 129.224 1454.23 134.115C1458.62 139.167 1457 144.45 1449.57 149.254C1445.69 151.673 1436.54 155.935 1418.9 157.271C1417.22 157.401 1415.51 157.504 1413.78 157.579C1403.56 157.966 1393.14 157.352 1384.54 155.855C1378.49 154.827 1373.62 153.386 1370.48 151.688C1367.33 149.99 1366.03 148.1 1366.7 146.221C1367.7 144.241 1371.31 142.414 1376.91 141.054C1382.51 139.693 1389.74 138.884 1397.37 138.765C1401.53 138.772 1405.64 139.014 1409.41 139.475C1413.18 139.937 1416.52 140.606 1419.2 141.438C1421.77 142.194 1423.67 143.089 1424.77 144.059C1425.87 145.029 1426.13 146.05 1425.54 147.05C1425.11 147.604 1423.86 148.092 1422.07 148.411C1420.28 148.729 1418.08 148.853 1415.95 148.755C1413.81 148.658 1411.91 148.348 1410.64 147.889C1409.36 147.431 1408.82 146.862 1409.13 146.301C1409.3 145.932 1409.15 145.559 1408.71 145.206C1408.27 144.853 1407.54 144.529 1406.58 144.257C1405.47 143.908 1404.1 143.623 1402.55 143.42C1401 143.218 1399.31 143.102 1397.58 143.081C1393.94 143.178 1390.54 143.591 1387.91 144.256C1387.47 144.368 1387.05 144.486 1386.66 144.61C1383.98 145.462 1383.01 148.554 1385.51 149.846V149.846C1387.36 150.806 1390.17 151.617 1393.64 152.194C1396.55 152.713 1399.86 153.06 1403.34 153.213C1406.82 153.365 1410.38 153.318 1413.78 153.076C1418.52 152.594 1422.8 151.85 1426.33 150.895C1429.86 149.94 1432.55 148.797 1434.23 147.544C1435.43 146.759 1436.45 145.958 1437.27 145.147C1437.36 145.065 1437.35 144.93 1437.27 144.843V144.843C1437.26 144.834 1437.26 144.827 1437.25 144.82C1434.09 142.299 1427.59 140.155 1418.92 138.777C1410.23 137.396 1399.94 136.875 1389.91 137.306C1379.88 137.737 1370.77 139.093 1364.24 141.128C1357.7 143.163 1354.17 145.742 1354.28 148.398C1354.48 150.094 1355.69 151.771 1357.86 153.369C1359.86 155.239 1363.35 156.978 1368.08 158.473C1376.83 161.066 1391.4 162.215 1404.44 163.083C1404.8 163.108 1405.15 163.138 1405.49 163.174C1435.93 162.486 1459.91 160.289 1468.88 159.367C1469.76 159.241 1470.66 159.121 1471.57 159.007C1480.92 157.832 1488.18 155.052 1492.02 151.151Z" fill="url(#paint1_linear_1276_116557)"/>
<defs>
<linearGradient id="paint0_linear_1276_116557" x1="226.898" y1="8.65501" x2="206.821" y2="255.915" gradientUnits="userSpaceOnUse">
<stop stop-color="#B5AA8D" stop-opacity="0.15"/>
<stop offset="1" stop-color="#FFEEBF"/>
</linearGradient>
<linearGradient id="paint1_linear_1276_116557" x1="1151.37" y1="8.65501" x2="1171.44" y2="255.915" gradientUnits="userSpaceOnUse">
<stop stop-color="#B5AA8D" stop-opacity="0.15"/>
<stop offset="1" stop-color="#FFEEBF"/>
</linearGradient>
</defs>
</svg>
