<svg width="365" height="249" viewBox="0 0 365 249" fill="none" xmlns="http://www.w3.org/2000/svg">
<g filter="url(#filter0_d_1276_115860)">
<path d="M364.977 162.587C361.273 161.621 358.059 160.662 354.79 159.986C353.198 159.661 351.485 159.703 349.85 159.854C345.465 160.264 342.697 162.985 340.683 166.653C340.001 167.896 339.531 169.289 338.662 170.375C338.083 171.093 336.998 171.715 336.093 171.787C334.7 171.896 333.186 171.727 331.871 171.262C327.112 169.579 324.103 170.556 320.315 176.421C317.432 180.879 315.201 185.754 312.287 190.194C310.382 193.102 307.734 195.516 305.52 198.23C303.59 200.589 301.401 202.858 300.044 205.531C298.44 208.698 296.6 211.256 293.59 213.325C289.833 215.914 286.606 219.256 283.084 222.188C280.961 223.956 278.784 225.687 276.492 227.22C272.119 230.134 267.614 232.849 263.217 235.726C258.7 238.683 253.712 239.787 248.935 237.355C243.338 234.502 237.409 233.766 231.42 232.861C230.262 232.686 229.05 232.269 228.061 231.648C223.157 228.601 218.471 225.15 213.387 222.453C210.793 221.078 207.53 220.451 204.551 220.396C192.368 220.155 180.166 220.559 167.995 220.143C160.233 219.877 152.392 219.377 145.01 216.324C141.928 215.045 140.601 213.024 140.951 209.742C141.078 208.535 140.649 207.28 140.746 206.067C141.337 198.689 142.121 191.322 142.591 183.932C142.815 180.421 142.706 176.849 142.314 173.356C142.157 171.944 140.993 170.556 140.046 169.35C138.207 167.003 136.066 164.879 134.292 162.49C131.952 159.341 131.054 159.124 127.284 160.107C122.441 161.374 117.477 162.158 112.622 163.377C111.03 163.775 109.546 164.777 108.117 165.67C100.565 170.375 92.6404 174.623 85.6803 180.095C82.2304 182.804 79.2269 182.755 75.6081 182.58C69.2873 182.279 62.9484 181.869 56.7302 183.491C50.6989 185.066 46.0669 182.599 42.044 178.496C41.3384 177.772 40.9524 176.493 40.88 175.437C40.3251 166.985 40.0235 158.508 39.3179 150.068C39.0585 146.991 39.8125 144.397 40.9885 141.682C41.9596 139.45 41.9777 137.115 41.4168 134.557C40.6267 130.925 40.3613 127.088 40.488 123.359C40.7051 116.94 37.6472 112.373 33.0635 108.481C31.1274 106.84 28.1962 108.011 26.6341 110.828C24.9393 113.881 23.1179 116.867 21.3929 119.824C18.4678 118.816 15.814 117.905 13.6608 117.163C14.1132 114.412 14.6017 111.993 14.8792 109.555C15.0601 107.938 14.9033 106.279 14.9817 104.644C15.0299 103.558 14.8309 102.032 15.4401 101.495C16.8092 100.288 18.5462 98.9309 20.247 98.768C28.0454 98.0079 30.3856 89.7786 27.6594 83.8722C25.4641 79.1181 24.0829 74.0563 23.3652 68.8617C23.0757 66.7682 23.5823 64.5541 23.2084 62.4847C22.6897 59.5828 21.1879 56.9161 21.6282 53.7427C21.8031 52.4757 20.7054 51.076 20.4581 49.6884C19.7464 45.6342 18.9925 41.5739 18.5824 37.4774C17.6897 28.5966 15.0239 20.4699 9.30024 13.4715C6.50172 10.0446 3.8178 6.52733 1.10975 3.0281C0.735813 2.54545 0.536784 1.9361 0 0.874268C3.66702 1.12163 6.79724 1.19403 9.89129 1.57411C17.9491 2.55752 25.9647 3.75811 34.1431 3.54695C40.3794 3.38405 46.6278 4.04166 52.8762 4.03563C58.9618 4.02356 65.0473 3.53489 71.1329 3.42629C84.4198 3.191 97.7368 2.23777 110.807 6.07485C114.16 7.05825 117.013 8.58463 119.709 10.5937C121.989 12.295 124.148 14.1592 126.379 15.9209C129.268 18.1954 132.688 19.0582 136.247 19.2633C142.833 19.6373 149.449 20.2889 156.017 19.9873C161.753 19.7218 167.428 18.2618 173.146 17.4352C175.576 17.0853 178.043 17.0069 180.492 16.8078C185.576 16.3794 190.667 16.0355 195.739 15.5107C205.437 14.5031 215.063 14.3765 224.665 16.5906C229.484 17.7007 234.442 18.1954 239.315 19.0823C241.004 19.39 242.807 19.7278 244.255 20.5785C248.404 23.0099 253.006 23.2633 257.554 23.6313C265.69 24.2949 273.838 24.9103 281.992 25.1576C289.182 25.3809 296.395 25.1456 303.59 24.9646C306.612 24.8922 309.193 23.5287 311.57 21.6283C313.18 20.3372 315.056 19.384 316.823 18.292C324.893 13.2784 334.386 10.7566 341.545 4.15026C342.589 3.18496 343.686 2.26189 344.826 1.41725C345.176 1.16385 345.773 1.13972 346.237 1.20608C346.424 1.23022 346.732 1.82749 346.66 2.05072C344.693 8.02956 346.243 13.7309 347.697 19.5348C348.541 22.9013 348.372 26.5091 349.036 29.9359C349.422 31.9329 350.622 33.7609 351.292 35.7217C351.647 36.7534 351.672 37.9057 351.804 39.0098C352.07 41.1696 352.299 43.3295 352.564 45.4893C353.077 49.6462 354.036 53.803 354.048 57.9599C354.084 67.4681 355.918 76.5238 359.187 85.4227C360.851 89.9536 362.015 94.7379 362.751 99.5101C363.276 102.925 362.522 106.521 362.685 110.014C362.829 113.236 363.517 116.427 363.801 119.649C363.921 121.03 363.433 122.46 363.553 123.842C363.734 126.002 364.416 128.131 364.494 130.291C364.753 137.284 364.868 144.288 364.983 151.287C365.025 155.015 364.977 158.762 364.977 162.587Z" fill="#0F7215"/>
</g>
<path fill-rule="evenodd" clip-rule="evenodd" d="M252.978 62.5052C262.32 62.5052 269.899 70.0845 269.899 79.4261C269.899 86.9337 264.999 93.3095 258.236 95.5159L252.992 106.018L247.749 95.5159C240.972 93.3095 236.086 86.9337 236.086 79.4261C236.072 70.0702 243.637 62.5052 252.978 62.5052ZM252.978 74.5834C250.313 74.5834 248.15 76.7468 248.15 79.4117C248.15 82.0767 250.313 84.2401 252.978 84.2401C255.643 84.2401 257.807 82.0767 257.807 79.4117C257.807 76.7468 255.657 74.5834 252.978 74.5834Z" fill="#FFEEBF"/>
<defs>
<filter id="filter0_d_1276_115860" x="0" y="0.874268" width="365" height="247.814" filterUnits="userSpaceOnUse" color-interpolation-filters="sRGB">
<feFlood flood-opacity="0" result="BackgroundImageFix"/>
<feColorMatrix in="SourceAlpha" type="matrix" values="0 0 0 0 0 0 0 0 0 0 0 0 0 0 0 0 0 0 127 0" result="hardAlpha"/>
<feOffset dy="10"/>
<feComposite in2="hardAlpha" operator="out"/>
<feColorMatrix type="matrix" values="0 0 0 0 0.027451 0 0 0 0 0.223529 0 0 0 0 0.0392157 0 0 0 1 0"/>
<feBlend mode="normal" in2="BackgroundImageFix" result="effect1_dropShadow_1276_115860"/>
<feBlend mode="normal" in="SourceGraphic" in2="effect1_dropShadow_1276_115860" result="shape"/>
</filter>
</defs>
</svg>
