<svg width="375" height="738" viewBox="0 0 375 738" fill="none" xmlns="http://www.w3.org/2000/svg">
<g opacity="0.05" filter="url(#filter0_d_1262_20629)">
<path d="M120.98 151.774C124.374 151.653 123.401 153.012 121.908 154.549C119.697 156.76 117.486 158.971 115.386 161.27C104.021 173.586 96.2826 188.123 88.9642 203.025C80.2749 220.846 71.7846 238.766 61.4371 255.725C54.7267 266.725 47.4524 277.271 37.3149 285.485C34.0537 288.127 32.716 290.184 34.4296 295.236C37.8124 305.185 37.3923 315.875 36.7954 326.378C35.325 352.501 29.6648 378.005 25.6297 403.763C21.2077 432.086 22.8107 459.481 39.1722 484.344C43.4555 491.011 48.86 496.887 55.1468 501.711C57.2362 503.281 57.6894 504.806 56.9819 507.305C50.2715 530.996 55.0804 553.062 66.7546 574.077C76.8368 592.219 91.8495 606.137 106.553 620.299C120.924 634.239 135.362 648.168 147.589 664.154C153.636 672.058 159.097 680.316 162.768 689.636C163.409 691.272 163.873 692.599 166.084 692.665C186.304 693.306 204.257 701.509 221.945 710.11C239.634 718.711 256.769 728.373 274.424 736.996C296.534 747.797 319.639 753.39 344.391 748.548C354.356 746.662 363.845 742.81 372.305 737.217C374.03 736.111 375.279 735.127 377.579 736.642C404.254 754.33 432.589 753.799 461.597 743.706C480.391 737.151 497.305 726.471 515.004 717.528C532.902 708.485 550.844 699.552 570.545 695.009C576.072 693.737 582.948 694.81 586.994 691.825C590.831 688.995 591.416 682.119 594.357 677.398C605.147 659.854 619.419 645.338 633.835 630.823C646.537 618.066 660.367 606.425 671.82 592.429C688.005 572.618 698.065 550.486 696.981 524.285C696.838 520.969 696.981 517.431 695.721 514.491C692.78 507.426 695.29 503.347 700.729 498.406C719.788 481.06 727.139 458.375 728.112 433.181C728.886 413.149 724.21 393.769 720.993 374.224C717.566 353.363 714.238 332.502 715.001 311.21C715.266 303.837 717.112 296.717 718.063 289.454L719.567 287.939C721.778 288.603 721.579 289.996 721.048 291.831C715.521 311.232 717.345 330.833 720.053 350.334C722.927 371.062 727.151 391.614 729.693 412.364C732.8 437.669 730.301 462.278 716.527 484.675C711.994 492.051 706.306 498.65 699.679 504.22C697.866 505.757 696.705 507.095 697.313 509.748C704.764 542.195 694.162 569.799 674.197 594.772C663.717 607.884 650.915 618.762 639.02 630.525C623.332 646.002 607.645 661.567 596.126 680.67C595.338 681.689 594.725 682.832 594.313 684.053C592.334 694.379 585.778 697.01 575.796 698.082C558.859 699.906 543.415 707.49 528.259 715.063C510.836 723.752 493.778 733.204 476.212 741.595C451.504 753.412 425.734 758.42 398.583 750.947C391.318 748.92 384.384 745.852 377.999 741.838C376.263 740.732 374.947 739.771 372.626 741.197C346.934 756.939 319.783 757.083 291.924 748.349C272.998 742.424 256.26 731.888 238.86 722.923C221.459 713.957 203.837 705.002 184.823 699.519C178.079 697.573 171.247 696.203 164.183 696.59C162.237 696.711 161.297 696.291 160.579 694.301C153.426 674.59 139.674 659.434 125.501 644.73C110.654 629.541 95.0776 615.191 80.6729 599.747C64.2782 582.17 53.3227 561.618 50.8242 537.22C49.8558 528.061 50.507 518.803 52.7478 509.87C53.4774 507.006 53.1237 505.359 50.7911 503.336C31.6769 486.809 22.8549 465.185 20.5002 440.488C18.4882 419.373 22.9544 398.799 26.6358 378.193C30.3171 357.586 33.6226 337.289 33.5783 316.406C33.5783 308.303 32.8155 300.233 29.9965 292.549C29.2226 290.449 28.8136 288.625 30.8588 287.177C43.7711 278.001 52.1951 265.066 60.1436 251.8C71.7293 232.454 80.8055 211.704 91.142 191.639C98.8916 176.736 107.946 162.752 120.98 151.774Z" fill="#FFF6DF"/>
<path d="M452.597 61.1006C451.768 63.19 450.088 63.599 448.12 63.3116C425.601 59.7408 402.993 56.1921 382.674 45.0708C377.556 42.2738 374.416 42.0527 369.264 45.1371C353.787 54.4454 336.099 57.6293 318.566 61.0564C296.036 65.4784 272.997 66.7608 250.632 72.1114C245.647 73.3054 240.76 74.8752 235.83 76.2681L233.773 74.5546C248.388 68.0211 264.131 66.4734 279.696 64.2181C304.78 60.581 330.008 57.6404 354.075 49.0727C360.84 46.6627 367.341 43.7442 373.001 39.1231C374.416 38.0176 375.433 37.4649 377.246 38.7141C394.846 50.8747 415.32 54.6555 435.727 58.6132C441.299 59.6524 446.97 60.2715 452.597 61.1006Z" fill="#FFF6DF"/>
<path d="M233.774 74.5215L235.831 76.235C220.862 82.3374 207.088 90.2749 196.187 102.502C189.682 109.78 184.524 118.158 180.953 127.243C180.268 128.957 180.102 130.836 177.504 130.703C171.579 130.394 165.874 132.129 160.037 132.782L158.445 131.212C163.232 129.133 168.395 128.713 173.436 128.437C176.288 128.282 177.416 127.332 178.51 124.734C189.311 99.6607 208.613 83.8409 233.774 74.5215Z" fill="#FFF6DF"/>
<path d="M158.445 131.212L160.037 132.782C147.633 137.016 135.925 142.532 125.899 151.188C124.517 152.371 122.648 153.676 122.582 150.083C133.084 140.985 144.626 133.943 158.445 131.212Z" fill="#FFF6DF"/>
<path d="M427.45 741.075C407.053 740.964 392.073 736.587 379.084 726.14C377.315 724.725 375.679 722.724 372.683 725.112C349.699 743.441 324.041 743.706 297.287 735.857C280.097 730.805 264.973 721.364 249.231 713.216C227.939 702.161 206.901 690.133 183.111 685.579C173.161 683.688 168.385 679.089 163.598 670.842C151.493 649.981 133.75 633.719 116.659 616.971C103.16 603.705 88.8773 591.168 78.4856 575.083C68.536 559.606 62.699 542.968 63.6055 524.296C63.9124 517.717 65.2748 511.23 67.6406 505.083C68.9451 501.689 68.6355 499.621 65.4296 497.433C44.6129 483.492 36.1668 462.819 33.7237 438.708C31.8001 419.793 35.592 401.552 38.8311 383.201C43.4189 357.221 48.6148 331.142 45.5636 304.71C44.4581 295.225 47.454 289.885 53.2358 283.429C68.1712 266.725 77.8997 246.615 87.8492 226.738C97.9425 206.585 106.477 185.536 121.821 168.423C134.148 154.693 148.63 144.599 167.147 141.095C172.465 140.078 177.782 140.719 183.1 140.531C185.189 140.454 186.737 140.531 187.522 137.734C196.454 106.216 219.99 90.7391 249.43 82.0609C263.801 77.8047 278.87 76.5334 293.65 74.3223C321.089 70.1325 348.87 67.225 373.81 53.5057C375.878 52.4002 377.204 52.9971 378.807 53.8594C397.015 63.5547 416.925 67.4461 436.935 71.0169C461.256 75.3615 486.152 76.2128 509.666 84.3603C531.853 92.0989 551.211 104.138 560.177 126.955C564.013 136.717 567.76 140.664 579.059 141.415C606.962 143.251 625.7 160.917 640.48 183.082C650.894 198.681 657.914 216.137 666.349 232.83C675.061 250.042 683.894 267.178 696.275 282.157C696.507 282.445 696.662 282.832 696.95 283.02C707.916 290.04 707.529 300.498 705.528 311.42C703.782 320.972 705.528 330.49 706.402 339.909C708.734 365.015 715.191 389.568 717.678 414.63C719.889 436.364 718.021 457.889 706.192 477.312C701.042 485.849 694.004 493.091 685.618 498.483C683.153 500.075 681.992 501.744 683.054 504.806C692.948 533.549 685.01 558.799 667.742 582.103C657.726 595.613 645.124 606.701 633.118 618.353C616.889 634.095 599.798 649.307 588.489 669.129C582.607 679.432 575.908 684.606 564.167 687.071C539.968 692.167 518.709 705.013 496.975 716.356C480.768 724.813 464.915 734.044 446.752 738.024C439.146 739.726 431.451 741.208 427.45 741.075ZM423.414 732.231C430.998 732.452 438.328 730.949 445.657 729.235C462.848 725.2 477.872 716.29 493.282 708.23C516.023 696.402 538.431 683.666 563.637 677.796C571.375 675.994 575.974 672.655 579.976 665.812C591.772 645.592 608.94 629.806 625.401 613.5C636.888 602.124 649.225 591.522 659.175 578.698C676.144 556.82 684.457 532.941 673.966 505.514C671.755 499.743 672.463 496.283 678.101 492.834C700.432 479.17 708.546 457.811 709.365 432.783C710.271 405.267 701.803 378.956 698.962 351.915C697.403 337.002 695.17 322.155 696.883 307.02C697.315 303.239 699.526 298.696 695.955 295.048C683.595 282.434 674.685 267.41 666.316 252.11C655.803 232.808 647.523 212.312 636.401 193.352C626.651 176.77 614.192 162.818 596.183 154.659C585.868 149.961 575.035 148.922 563.979 149.53C559.911 149.751 558.109 148.424 557.103 144.5C555.87 139.352 554.153 134.333 551.974 129.509C542.267 109.168 524.701 98.555 504.161 91.922C482.106 84.8578 458.89 83.8518 436.283 79.872C416.815 76.4449 397.446 72.6862 379.46 64.0633C378.445 63.4867 377.295 63.1928 376.128 63.2123C374.961 63.2317 373.821 63.5638 372.826 64.1738C364.952 68.032 356.698 71.059 348.196 73.2058C321.155 80.6237 293.153 82.5031 265.703 87.5774C231.598 93.8566 203.795 108.195 194.387 145.152C193.536 148.469 191.811 149.298 188.572 149.265C181.795 149.198 174.974 148.657 168.242 149.994C147.668 154.096 133.197 167.019 121.379 183.303C108.821 200.615 101.093 220.603 91.3537 239.463C81.2493 259.074 70.7691 278.41 55.3805 294.55C54.8211 295.013 54.3907 295.612 54.1312 296.29C53.8716 296.968 53.7917 297.701 53.8991 298.419C55.3236 308.383 55.6942 318.47 55.0046 328.511C54.0318 347.382 50.7816 365.9 47.642 384.45C44.7787 401.353 41.1527 418.101 42.3687 435.502C44.0601 459.602 52.86 479.534 73.9862 492.701C78.5961 495.586 79.7016 498.56 77.4906 503.833C68.138 526.286 72.1068 547.479 84.3669 567.71C94.8028 584.933 109.937 597.956 124.055 611.863C142.926 630.447 162.095 648.754 174.908 672.379C175.376 673.257 176.056 674.004 176.886 674.552C177.716 675.101 178.67 675.433 179.661 675.519C196.963 678.559 213.015 685.214 228.613 692.908C248.313 702.626 267.66 713.084 287.404 722.679C300.642 729.12 315.226 732.308 329.944 731.977C345.288 731.678 358.875 725.764 370.527 715.836C374.109 712.774 376.596 712.752 380.2 715.836C392.56 726.482 406.821 732.552 423.414 732.231Z" fill="#FFF6DF"/>
<path d="M584.318 281.096C584.783 294.075 589.05 305.417 593.162 316.815C597.872 329.904 604.217 342.43 606.086 356.492C607.7 368.885 606.218 380.669 600.016 391.658C598.911 393.582 597.805 395.129 599.198 397.639C608.197 413.934 607.213 430.804 601.52 447.785C596.91 461.515 590.465 474.582 586.43 488.533C584.219 496.272 582.008 504.099 582.97 512.324C583.066 512.67 583.091 513.031 583.045 513.387C582.999 513.742 582.881 514.085 582.7 514.395C582.518 514.704 582.276 514.974 581.988 515.188C581.7 515.402 581.372 515.556 581.024 515.64C572.721 518.957 566.884 525.358 560.948 531.648C550.202 543.035 541.955 556.5 531.011 567.71C519.525 579.483 506.048 586.968 489.112 586.824C487.388 586.824 485.939 587.023 484.989 588.836C474.033 609.642 455.14 616.883 433.273 619.447C420.833 620.731 408.498 622.889 396.36 625.904C388.832 627.882 381.668 630.602 375.356 635.201C369.082 631.061 362.168 627.987 354.893 626.103C340.245 622.355 325.166 621.205 310.341 618.607C291.061 615.224 274.6 607.331 264.75 589.3C264.435 588.652 263.923 588.121 263.288 587.781C262.652 587.442 261.926 587.312 261.212 587.41C241.457 587.332 226.632 577.538 214.261 563.21C204.179 551.525 195.368 538.768 184.247 527.945C179.062 522.893 170.627 520.206 167.664 515.055C164.701 509.903 166.702 501.324 164.768 494.426C160.854 480.43 154.818 467.219 149.479 453.754C143.708 439.261 141.187 424.514 145.344 409.07C146.836 403.542 151.9 398.811 151.734 393.593C151.568 388.54 147.643 383.544 146.604 378.115C144.106 365.082 146.284 352.545 150.617 340.219C155.791 325.527 162.192 311.255 165.553 295.943C166.946 289.62 165.177 282.169 167.62 277.15C169.886 272.518 177.57 270.517 182.069 266.006C192.14 255.957 200.387 244.449 208.889 233.128C216.373 223.179 224.753 214.257 235.984 208.465C243.31 204.539 251.508 202.527 259.819 202.616C262.03 202.616 264.031 202.815 265.457 200.339C276.203 181.8 293.758 174.526 313.779 171.397C328.15 169.186 342.61 167.859 356.639 163.857C362.499 162.188 368.203 160.187 373.222 156.672C374.327 155.865 375.3 154.737 377.003 156.03C389.307 165.328 404.22 166.478 418.625 169.064C430.001 171.11 441.642 171.729 452.708 175.498C465.83 179.92 476.764 187.272 484.093 199.3C485.121 200.991 486.061 201.964 488.371 201.821C507.165 200.571 521.802 208.896 534.106 222.073C545.161 233.902 553.674 247.854 564.839 259.661C570.035 265.188 575.342 270.627 582.339 273.745C586.96 275.735 583.555 279.14 584.318 281.096ZM507.032 399.474V398.368H425.966C423.246 398.368 420.604 397.76 420.195 402.105C419.089 414.089 413.109 423.607 403.756 430.948C401.346 432.838 401.07 434.131 402.595 436.718C430.181 483.783 457.697 530.878 485.143 578.002C485.603 578.979 486.359 579.785 487.304 580.307C488.249 580.829 489.334 581.04 490.406 580.909C500.575 580.54 510.421 577.242 518.762 571.413C526.655 566.051 532.371 558.589 538.108 551.171C546.322 540.547 554.58 529.968 564.353 520.693C568.1 517.133 574.004 515.298 576.27 511.329C578.658 507.139 577.53 501.004 578.724 495.774C582.461 479.391 589.536 464.223 595.594 448.691C601.653 433.159 601.232 418.301 594.323 403.288C592.93 400.27 591.239 399.396 588.066 399.408C561.047 399.573 534.062 399.474 507.032 399.474ZM375.19 162.807C374.383 163.216 373.554 163.603 372.758 164.056C365.096 168.302 356.761 170.689 348.26 172.182C336.154 174.393 323.938 176.062 311.778 178.052C295.018 180.805 281.454 188.731 271.67 202.849C270.001 205.27 269.813 207.204 271.35 209.846C298.619 256.875 325.822 303.955 352.958 351.086C354.616 353.96 355.932 354.237 358.906 352.976C363.9 350.802 369.28 349.654 374.727 349.601C380.174 349.548 385.576 350.59 390.612 352.667C394.613 354.27 396.062 353.529 398.085 350.025C423.379 306.084 448.772 262.203 474.265 218.381C481.506 205.9 481.374 204.617 471.114 194.06L470.728 193.673C459.894 182.342 445.832 178.892 430.929 176.803C412.423 174.216 393.519 172.989 376.638 163.614C376.229 163.327 375.742 163.095 375.19 162.807ZM242.739 399.197V398.368C215.721 398.368 188.702 398.468 161.694 398.269C157.527 398.269 155.526 399.64 153.956 403.376C147.787 418.234 148.008 432.915 153.834 447.829C159.826 463.184 166.713 478.208 170.97 494.26C172.584 500.351 170.97 507.714 174.054 512.379C177.282 517.31 184.147 520.007 188.691 524.595C199.967 535.993 209.22 549.093 219.358 561.442C226.93 570.673 236.272 577.151 247.869 580.235C261.267 583.795 262.727 583.187 269.625 571.391L270.465 569.976C295.848 526.323 321.263 482.674 346.712 439.029C348.658 435.712 349.155 433.833 345.463 431.102C336.486 424.469 331.5 415.05 329.986 404.117C329.411 400.115 328.349 399.065 324.359 399.098C297.141 399.286 269.946 399.197 242.739 399.197ZM505.695 392.841V393.106C532.348 393.106 559.002 393.106 585.656 393.184C588.972 393.184 590.907 392.299 592.665 389.347C601.675 374.302 601.874 358.847 595.683 342.839C589.492 326.831 581.057 311.255 578.669 294.197C577.166 283.451 573.142 276.508 564.629 269.997C553.375 261.286 545.581 249.125 536.748 238.07C530.679 230.475 524.754 222.692 516.706 216.955C509.155 211.56 500.83 208.686 491.412 209.216C488.349 209.404 486.547 210.72 484.978 213.417C457.753 260.239 430.432 307.006 403.015 353.717C401.335 356.591 401.114 358.139 404.121 360.35C408.643 363.698 412.411 367.96 415.181 372.858C417.95 377.756 419.658 383.182 420.195 388.784C420.626 392.808 422.749 392.83 425.722 392.819C452.387 392.76 479.045 392.767 505.695 392.841ZM480.998 585C480.456 583.894 480.036 582.877 479.494 581.949C451.997 534.633 424.51 487.31 397.035 439.98C395.697 437.68 394.669 436.995 391.949 438.167C386.723 440.49 381.072 441.707 375.353 441.739C369.634 441.771 363.97 440.619 358.718 438.355C355.611 437.061 354.362 437.647 352.781 440.444C325.962 487.929 299.061 535.363 272.079 582.745C270.399 585.696 270.874 587.642 272.731 590.118C281.54 602.141 294.663 610.283 309.346 612.836C325.752 615.987 342.511 616.916 358.685 621.614C364.124 623.195 386.322 623.217 391.717 621.681C405.923 617.623 420.571 616.153 435.097 613.942C452.785 611.344 467.621 603.871 478.367 589.212C479.328 587.907 480.113 586.47 480.998 585ZM243.822 391.061V392.432C270.852 392.432 297.893 392.432 324.922 392.509C328.239 392.509 329.433 391.912 329.919 388.209C330.559 382.71 332.319 377.401 335.092 372.609C337.864 367.818 341.589 363.645 346.038 360.35C348.945 358.139 348.923 356.602 347.243 353.717C319.973 306.902 292.741 260.04 265.546 213.13C264.086 210.609 262.605 209.57 259.476 209.813C246.316 210.665 233.888 216.175 224.421 225.357C217.788 231.57 212.725 239.054 207.12 246.096C199.226 256.046 191.698 266.482 181.229 273.8C175.458 277.835 171.976 281.848 172.551 289.1C172.75 291.554 171.633 294.119 171.047 296.618C167.266 312.603 160.047 327.34 154.464 342.684C148.882 358.028 148.937 372.875 156.786 387.457C158.124 389.967 159.605 391.172 162.712 391.16C189.774 391.006 216.782 391.061 243.822 391.061ZM336.265 395.77C336.265 417.162 354.008 434.916 375.168 434.728C382.888 434.748 390.44 432.476 396.868 428.201C403.296 423.925 408.31 417.838 411.276 410.711C414.242 403.583 415.026 395.736 413.529 388.162C412.032 380.589 408.32 373.63 402.865 368.167C397.41 362.704 390.457 358.983 382.886 357.475C375.314 355.967 367.466 356.74 360.334 359.696C353.202 362.652 347.108 367.658 342.823 374.08C338.539 380.501 336.256 388.05 336.265 395.77Z" fill="#FFF6DF"/>
<path d="M232.812 161.072C232.812 154.439 230.91 149.895 229.639 145.263C228.721 141.946 230.092 140.775 232.513 139.227C235.111 137.569 236.36 138.696 237.974 140.498C241.379 144.279 244.961 147.916 249.593 152.803C249.041 146.656 247.25 142.389 245.757 138.144C244.265 133.898 244.652 131.057 249.969 130.173C252.567 139.426 255.154 148.767 257.829 158.087C258.603 160.773 256.79 161.503 255.088 162.675C253.043 164.079 251.771 163.305 250.411 161.812C247.006 158.197 243.535 154.671 240.064 151.133C239.091 150.149 238.395 148.557 236.438 149.232C237.875 154.759 239.157 160.364 240.86 165.814C241.755 168.755 241.302 170.358 238.494 172.049C235.686 173.741 234.614 171.972 233.143 170.369C227.682 164.421 222.177 158.518 216.771 152.526C215.864 151.52 213.454 150.315 215.964 148.69C217.611 147.585 219.38 145.727 221.58 148.392C224.841 152.405 228.412 156.163 232.812 161.072ZM233.044 161.072C233.166 160.939 233.387 160.806 233.398 160.674C233.409 160.541 233.188 160.386 233.066 160.254L232.668 160.84L233.044 161.072Z" fill="#FFF6DF"/>
<path d="M106.144 320.319C110.333 321.624 114.501 323.039 118.735 324.211C120.946 324.819 121.72 325.769 121.046 328.102C120.316 330.623 118.945 330.578 116.911 329.904C109.427 327.417 101.909 325.04 94.4252 322.574C92.6674 322 89.7489 321.911 91.2303 318.893C92.4131 316.505 91.1087 312.05 96.1719 312.415C101.567 312.802 106.973 312.923 113.473 313.211C108.874 308.789 104.231 306.323 99.7648 303.759C94.8232 300.918 98.2613 297.789 98.9467 294.915C99.8864 291.012 102.54 293.699 104.198 294.185C111.406 296.308 118.569 298.74 125.689 300.995C127.756 301.647 129.459 302.178 128.508 305.096C127.557 308.015 125.954 307.54 123.909 306.744C119.553 305.041 114.988 304.334 108.907 303.294C113.937 306.401 117.663 308.623 121.3 311.033C123.279 312.315 125.987 312.791 124.793 316.682C123.599 320.573 120.913 318.993 118.669 319.214C117.937 319.188 117.214 319.05 116.524 318.805C115.319 317.622 113.971 317.987 112.622 318.473L107.017 318.208C105.248 317.777 103.457 317.235 101.6 318.484C102.139 319.151 102.839 319.67 103.634 319.991C104.429 320.312 105.293 320.425 106.144 320.319Z" fill="#FFF6DF"/>
<path d="M210.98 633.1C205.751 629.64 201.892 625.362 197.437 624.599C192.706 623.814 189.699 629.872 185.476 632.172C184.822 632.404 184.135 632.534 183.442 632.559C183.32 632.061 183.121 631.74 183.209 631.53C188.527 618.187 188.527 618.187 177.394 610.15C176.543 609.531 175.78 608.801 173.945 607.265C178.953 606.999 182.789 606.557 186.692 606.679C189.854 606.778 191.258 605.739 191.888 602.566C192.706 598.476 194.187 594.518 195.503 590.085C198.001 593.965 198.941 598.122 200.146 602.058C201.141 605.308 202.7 606.48 206.016 606.159C209.808 605.861 213.633 606.093 218.42 606.093C214.816 609.022 211.787 611.775 208.47 614.119C205.894 615.932 205.441 617.789 206.635 620.652C208.172 624.322 209.277 628.17 210.98 633.1Z" fill="#FFF6DF"/>
<path d="M98.9249 417.527C101.093 414.504 103.835 411.939 106.995 409.976C108.366 409.125 109.892 406.14 111.273 408.031C112.655 409.921 113.385 413.182 110.511 415.415C108.045 417.317 105.668 419.351 103.27 421.352C101.346 422.955 99.6987 424.945 100.605 427.487C101.711 430.561 104.419 428.118 106.299 428.648C108.885 429.367 113.23 425.42 113.871 431.512C114.103 433.612 113.573 434.485 111.395 434.673C102.978 435.373 94.5766 436.151 86.1895 437.006C83.7573 437.26 82.8729 436.265 82.7182 434.021C82.4529 429.997 82.088 425.973 81.8338 421.949C81.5242 417.25 82.1654 412.994 87.5271 411.391C92.8888 409.788 96.2827 412.176 98.9249 417.527ZM87.0075 423.795C88.0246 426.271 85.6809 431.368 92.2919 430.24C98.2726 429.212 94.8345 425.398 94.8566 422.789C94.8566 419.97 94.0828 416.996 90.2577 417.538C86.8859 417.98 86.897 420.799 87.0075 423.795Z" fill="#FFF6DF"/>
<path d="M308.916 690.156C302.107 689.923 296.159 688.044 293.24 681.588C290.322 675.132 291.427 668.543 295.772 662.883C301.952 654.846 317.219 656.449 320.911 665.448C321.497 666.874 323.365 669.129 320.624 669.991C318.877 670.533 316.323 671.097 315.096 668.101C312.974 662.949 308.629 662.385 304.041 663.933C299.674 665.403 296.878 673.717 298.746 678.857C300.493 683.644 304.362 684.805 308.983 684.285C310.829 684.086 312.753 683.733 312.952 681.289C313.162 678.658 310.873 679.266 309.502 678.736C308.132 678.205 306.186 678.216 306.893 675.585C307.546 673.142 308.806 672.777 310.873 673.507C311.237 673.604 311.606 673.677 311.979 673.728C321.519 675.784 322.382 677.343 318.38 686.397C316.478 690.653 312.244 689.592 308.916 690.156Z" fill="#FFF6DF"/>
<path d="M95.3858 381.255C96.3255 379.453 93.4733 375.816 97.6632 374.865C103.423 373.549 108.818 375.44 110.399 379.199C113.361 386.252 113.715 393.216 108.442 399.396C104.318 404.227 95.6954 405.51 88.9518 402.713C79.555 398.821 76.6807 384.229 84.1428 377.739C85.6131 376.468 87.7689 374.047 89.6482 376.258C90.8201 377.695 91.2844 380.359 88.6754 382.504C87.8118 383.185 87.0932 384.033 86.5621 384.996C86.0309 385.959 85.6978 387.019 85.5824 388.113C85.467 389.207 85.5717 390.313 85.8902 391.366C86.2088 392.419 86.7348 393.398 87.4372 394.245C90.5769 398.081 99.5093 398.744 103.754 395.461C106.994 392.951 107.845 387.059 105.645 383.411C105.374 382.835 104.935 382.354 104.387 382.031C103.839 381.708 103.207 381.557 102.572 381.598C101.168 381.653 100.869 382.57 100.604 383.742C100.173 385.688 101.709 389.104 97.431 388.463C93.1527 387.822 96.226 384.627 95.419 382.769C95.3338 382.269 95.3227 381.759 95.3858 381.255Z" fill="#FFF6DF"/>
<path d="M273.562 646.72C282.351 646.808 289.515 653.651 289.305 661.755C289.051 671.627 282.296 679.299 273.916 679.244C265.238 679.177 258.13 672.765 258.063 664.938C257.975 655.354 265.426 646.642 273.562 646.72ZM274.502 652.524C269.439 652.524 264.553 658.582 264.553 665.027C264.539 667.245 265.389 669.381 266.922 670.984C268.455 672.586 270.55 673.531 272.767 673.617C278.007 673.749 283.147 667.293 283.003 660.76C282.966 658.541 282.049 656.428 280.456 654.884C278.862 653.34 276.721 652.491 274.502 652.524Z" fill="#FFF6DF"/>
<path d="M153.339 571.346C146.109 567.687 136.016 573.093 131.66 562.093C136.082 562.613 139.94 562.867 143.754 563.597C146.673 564.161 148.033 563.387 148.961 560.49C150.785 554.753 153.041 549.159 155.207 543.267C159.729 546.716 160.923 550.386 157.938 555.084C157.134 556.527 156.503 558.06 156.059 559.65C155.506 561.32 153.45 563.641 154.82 564.537C155.899 565.25 157.154 565.654 158.447 565.702C159.739 565.751 161.02 565.443 162.15 564.813C163.57 563.967 164.896 562.974 166.108 561.85C167.965 560.092 169.115 560.645 170.53 562.513C171.945 564.382 172.221 565.454 170.121 566.935C163.296 571.91 156.556 576.999 149.901 582.203C147.911 583.761 146.916 583.363 145.545 581.517C144.174 579.671 143.898 578.477 145.988 577.029C148.42 575.359 150.741 573.381 153.339 571.346Z" fill="#FFF6DF"/>
<path d="M337.062 131.444C340.654 130.969 343.938 130.571 347.21 130.095C349.277 129.797 351.212 129.266 351.632 132.428C352.052 135.59 349.841 135.103 348.183 135.335C343.275 136.054 338.233 136.297 333.458 137.392C329.334 138.331 327.93 137.093 327.521 133.069C326.784 125.758 325.83 118.473 324.658 111.213C324.171 108.206 324.724 106.791 327.974 106.515C333.502 105.973 338.908 105.166 344.358 104.37C346.038 104.127 347.254 104.083 347.42 106.238C347.542 107.996 347.752 109.466 345.209 109.699C341.561 110.03 337.946 110.804 334.298 111.147C331.258 111.401 331.534 113.115 331.7 115.337C331.877 117.846 332.872 118.399 335.182 117.968C338.244 117.382 341.373 117.139 344.446 116.608C346.315 116.287 347.531 116.343 347.962 118.675C348.393 121.008 347.498 121.649 345.474 121.87C342.379 122.213 339.306 122.876 336.199 123.064C333.093 123.252 332.75 124.977 333.237 127.486C333.723 129.996 333.612 132.638 337.062 131.444Z" fill="#FFF6DF"/>
<path d="M210.216 189.77C208.365 189.819 206.546 189.281 205.02 188.234C203.815 187.393 201.416 186.73 202.986 184.674C204.003 183.336 205.108 180.871 207.806 182.518C211.188 184.585 214.14 183.524 216.705 180.926C218.242 179.356 218.916 177.344 217.711 175.399C216.506 173.453 214.538 173.895 212.725 174.536C209.961 175.509 207.275 176.747 204.456 177.521C200.587 178.627 197.049 177.787 194.794 174.205C192.539 170.623 193.147 166.875 195.899 163.559C199.791 158.849 205.672 156.417 209.895 158.031C211.443 158.639 214.229 159.247 213.333 161.348C212.592 163.094 210.857 165.637 207.75 164.089C206.941 163.669 206.025 163.5 205.119 163.603C203.94 163.816 202.828 164.307 201.876 165.036C200.925 165.765 200.16 166.71 199.647 167.793C199.321 168.253 199.189 168.823 199.28 169.379C199.371 169.936 199.678 170.434 200.133 170.767C202.123 172.027 204.003 170.866 205.882 170.225C208.424 169.179 211.036 168.311 213.698 167.627C215.274 167.308 216.906 167.41 218.43 167.923C219.954 168.437 221.316 169.343 222.378 170.551C223.44 171.758 224.164 173.225 224.478 174.802C224.793 176.379 224.685 178.011 224.167 179.533C222.586 184.541 215.389 189.792 210.216 189.77Z" fill="#FFF6DF"/>
<path d="M127.955 556.179C126.661 556.29 126.407 555.24 125.976 554.51C122.947 549.491 119.973 544.428 116.955 539.387C116.004 537.817 115.606 536.645 117.64 535.341C120.039 533.804 120.813 535.164 121.786 536.877C123.323 539.586 125.103 542.184 126.484 544.969C127.789 547.578 129.038 548.386 131.924 546.694C135.052 544.848 133.493 543.311 132.355 541.432C130.829 538.933 129.425 536.347 127.855 533.87C126.65 531.969 127.358 530.996 129.082 529.946C130.807 528.895 131.658 529.647 132.487 531.117C133.737 533.329 135.141 535.54 136.401 537.751C137.838 540.293 138.612 542.847 142.746 540.337C146.726 537.916 145.378 536.048 143.686 533.428C141.995 530.808 140.701 528.376 139.131 525.9C138.026 524.175 137.44 522.848 139.817 521.477C141.951 520.25 142.669 521.279 143.598 522.87C146.549 527.945 149.59 532.964 152.619 537.994C153.525 539.497 154.244 540.813 152.121 542.051C144.504 546.473 136.943 550.995 129.359 555.483C128.894 555.77 128.342 555.969 127.955 556.179Z" fill="#FFF6DF"/>
<path d="M381.977 102.225C381.581 103.006 381.145 103.766 380.672 104.503C377.842 108.04 372.226 110.804 372.447 114.895C372.668 118.985 377.079 122.534 379.5 126.414C380.838 128.525 382.872 130.272 383.27 132.981C378.516 134.429 374.968 133.5 372.978 128.669C372.407 127.31 371.631 126.046 370.678 124.921C369.252 123.241 368.898 119.239 366.433 120.234C364.979 120.865 363.765 121.945 362.969 123.315C362.174 124.686 361.838 126.276 362.011 127.851C362.199 130.261 363.979 134.152 358.695 133.953C356.882 133.876 356.075 133.555 356.041 131.566C355.872 122.722 355.629 113.903 355.312 105.111C355.223 102.546 356.97 102.723 358.628 102.546C360.552 102.347 361.79 102.767 361.702 105.122C361.58 108.35 361.702 111.578 361.702 115.735C367.76 111.401 370.026 104.857 375.863 102.325C377.422 101.628 379.611 102.225 381.977 102.225Z" fill="#FFF6DF"/>
<path d="M173.888 191.86C173.061 191.681 172.201 191.727 171.398 191.994C170.595 192.26 169.878 192.737 169.322 193.374C167.818 194.955 165.884 196.835 167.476 199.09C169.068 201.345 171.146 199.598 172.859 198.747C175.491 197.454 177.901 195.663 180.598 194.635C186.933 192.225 193.057 196.724 192.98 203.479C192.88 211.217 182.931 218.867 176.01 216.369C174.518 215.838 171.743 215.595 172.782 213.052C173.49 211.306 174.584 208.874 177.691 210.189C181.77 211.925 184.324 209.548 186.258 206.353C186.744 205.669 186.989 204.843 186.955 204.005C186.921 203.167 186.61 202.363 186.07 201.721C184.799 200.107 183.141 200.394 181.593 201.179C178.818 202.583 176.187 204.297 173.357 205.601C169.477 207.381 165.751 207.027 162.899 203.556C160.047 200.085 160.456 196.337 162.899 192.877C165.585 189.074 168.769 185.636 173.877 185.481C176.165 185.404 179.504 185.614 179.404 188.455C179.385 189.097 179.207 189.725 178.886 190.282C178.565 190.838 178.11 191.306 177.563 191.644C177.017 191.982 176.394 192.178 175.753 192.216C175.111 192.253 174.47 192.131 173.888 191.86Z" fill="#FFF6DF"/>
<path d="M138.103 243.597C135.604 242.027 133.449 240.424 131.072 239.241C128.175 237.793 128.021 236.168 129.812 233.659C130.917 232.089 131.757 232.034 133.305 233.006C140.59 237.605 147.909 242.16 155.305 246.593C157.593 247.975 156.985 249.202 155.924 251.015C154.686 253.116 153.503 253.414 151.59 251.911C150.308 250.893 148.638 250.341 147.422 249.257C143.896 246.129 142.149 247.267 139.629 250.993C136.478 255.647 136.997 257.913 141.895 260.478C143.829 261.484 149.202 261.517 146.228 266.625C145.123 268.493 144.238 269.333 142.005 267.885C134.93 263.308 127.733 258.908 120.514 254.553C118.303 253.259 118.469 252.032 119.652 250.131C120.835 248.229 121.863 247.422 123.842 249.025C124.824 249.873 125.946 250.543 127.158 251.004C128.872 251.623 130.386 254.663 132.144 252.817C134.455 250.33 135.914 247.035 138.103 243.597Z" fill="#FFF6DF"/>
<path d="M115.662 471.951C120.957 472.039 124.506 475.61 126.341 482.044C128.01 488.003 126.717 492.602 122.14 495C115.773 498.317 108.686 499.854 101.965 502.286C99.6322 503.137 99.2784 501.578 98.6483 499.887C98.0181 498.195 97.8744 496.836 100.096 496.117C105.513 494.37 110.864 492.436 116.281 490.678C120.316 489.362 121.997 486.82 120.703 482.685C119.41 478.551 116.281 477.81 112.412 479.192C107.05 481.093 101.622 482.796 96.2383 484.631C94.5247 485.217 93.4745 484.951 93.0654 482.973C92.7559 481.48 91.1087 479.656 93.585 478.838C101.036 476.284 108.31 473.134 115.662 471.951Z" fill="#FFF6DF"/>
<path d="M115.076 342.994C116.016 342.684 116.977 342.994 116.756 344.53C116.491 346.41 117.187 349.494 114.656 349.594C108.023 349.859 108.332 354.48 107.448 359.024C106.796 362.451 107.68 364.297 110.764 365.347C114.335 366.563 113.827 369.482 112.688 371.615C111.118 374.534 109.294 371.615 107.934 370.852C100.859 367.005 93.9276 362.915 86.9297 358.924C85.0172 357.819 83.0715 357.034 83.7458 354.027C84.3207 351.473 85.1056 349.914 88.002 349.306C96.9014 347.427 105.779 345.183 115.076 342.994ZM102.064 360.604C102.064 357.465 103.966 353.905 102.462 353.198C99.433 351.783 95.9396 353.651 92.3577 354.734C95.0662 357.465 98.3385 358.57 102.064 360.604Z" fill="#FFF6DF"/>
<path d="M113.861 437.062C115.873 440.909 116.315 443.761 112.037 446.06C107.239 448.636 111.208 452.572 111.197 455.866C111.197 458.254 112.181 460.288 115.077 460.133C119.787 459.89 120.262 462.997 120.384 467.22C109.97 465.528 99.7106 463.903 89.4294 462.168C87.0084 461.759 87.3842 459.448 86.8646 457.746C86.1571 455.535 87.5943 454.429 89.2304 453.39C97.3891 448.117 105.448 442.689 113.861 437.062ZM95.8745 456.795C97.588 458.287 99.7106 458.11 101.645 458.199C103.027 458.265 105.249 459.879 105.736 457.37C106.066 455.557 105.703 453.687 104.719 452.13C103.248 450.206 101.866 452.516 100.628 453.235C98.9478 454.219 96.9137 454.86 95.8745 456.795Z" fill="#FFF6DF"/>
<path d="M158.865 246.217C153.791 237.528 148.916 228.96 143.786 220.514C142.382 218.192 142.814 216.622 144.339 214.622C145.865 212.621 147.39 212.543 149.557 213.218C157.782 215.771 166.051 218.148 174.276 220.702C175.548 221.1 178.322 220.702 177.294 223.222C176.598 224.925 175.791 227.534 172.684 226.926C170.639 226.517 168.428 224.339 166.538 226.075C164.139 228.286 162.359 231.16 160.292 233.725C159.186 235.073 159.971 236.256 160.8 237.174C163.918 240.667 162.613 243.376 158.865 246.217ZM152.056 220.635L151.37 220.016L151.237 221.343C152.498 223.554 153.747 225.765 155.04 227.921C155.571 228.816 156.223 230.132 157.395 228.805C158.567 227.479 160.358 225.666 160.546 223.93C160.734 222.194 158.169 222.316 156.754 221.818C155.339 221.321 153.625 221.022 152.056 220.635Z" fill="#FFF6DF"/>
<path d="M125.853 270.804C130.054 270.804 134.277 270.627 138.456 270.903C139.716 270.992 142.491 269.997 142.17 272.517C141.916 274.474 141.595 277.382 138.08 277.326C136.178 277.326 133.658 275.911 132.409 277.857C130.585 280.812 129.101 283.965 127.987 287.254C127.334 289.078 129.346 290.139 130.529 291.112C132.74 292.947 132.165 294.683 131.193 296.905C130.087 299.315 129.291 299.016 127.777 297.413C121.354 290.626 114.92 283.838 108.364 277.183C106.617 275.403 107.457 273.921 108.154 272.241C108.85 270.561 109.878 269.19 112.189 269.389C116.744 269.765 121.32 269.92 125.886 270.163L125.853 270.804ZM114.953 275.502C118.269 278.918 120.06 282.567 123.465 283.02C124.748 283.186 126.14 279.217 126.428 276.387L114.953 275.502Z" fill="#FFF6DF"/>
<path d="M381.657 697.231C377.456 698.336 374.405 698.336 373.52 693.428C372.824 689.57 369.585 690.045 366.943 690.344C364.068 690.664 360.033 688.21 358.762 693.251C358.545 694.142 358.21 695.001 357.767 695.805C356.363 698.27 354.03 697.01 352.328 696.689C349.575 696.158 351.742 694.301 352.129 693.373C355.523 685.07 359.127 676.79 362.576 668.565C363.283 666.863 364.035 665.58 366.136 666.056C367.938 666.465 370.182 665.547 371.144 668.267C374.548 677.918 378.108 687.502 381.657 697.231ZM370.547 684.694C369.198 680.869 368.07 677.63 366.688 673.639C365.251 677.774 362.2 680.891 363.283 684.418C363.814 686.054 367.584 685.137 370.547 684.694Z" fill="#FFF6DF"/>
<path d="M290.784 147.242C287.534 149.873 284.615 151.199 281.94 147.12C280.16 144.412 277.927 145.009 275.827 146.346C273.052 148.115 267.745 147.253 268.398 152.747C268.95 157.335 266.253 158.275 262.074 158.905C262.074 148.646 262.074 138.608 262.074 128.581C262.074 126.37 263.18 125.397 265.07 124.623C266.961 123.849 268.387 123.628 269.934 125.32C276.755 132.66 283.742 139.879 290.784 147.242ZM267.834 131.765C267.834 135.512 267.834 138 267.834 140.487C267.834 142.974 268.453 143.571 271.051 142.698C275.119 141.371 276.247 139.879 272.521 136.773C270.869 135.178 269.304 133.496 267.834 131.731V131.765Z" fill="#FFF6DF"/>
<path d="M238.009 630.282C243.15 630.89 244.985 633.388 244.974 638.352C244.974 647.196 245.394 647.351 252.801 642.376C256.537 639.866 259.611 639.236 262.839 643.006C260.628 645.626 257.477 646.82 254.614 648.301C248.578 651.408 243.327 655.067 241.105 661.91C240.32 664.32 239.048 665.437 236.218 663.867C233.388 662.297 234.151 660.761 235.477 659.069C240.419 652.823 239.579 645.692 238.794 638.562C238.54 635.842 238.285 633.112 238.009 630.282Z" fill="#FFF6DF"/>
<path d="M327.744 663.215C337.616 661.778 335.759 671.672 339.816 675.774C345.089 673.386 345.343 662.828 355.238 666.819C351.811 671.031 348.936 675.254 345.365 678.77C341.209 682.871 341.54 688.067 340.822 693.031C340.512 695.242 339.816 695.993 337.737 695.518C336.223 695.186 333.758 695.407 334.554 692.931C337.87 682.429 331.945 674.226 328.097 665.492C327.889 664.999 327.722 664.489 327.6 663.967C327.556 663.801 327.666 663.613 327.744 663.215Z" fill="#FFF6DF"/>
<path d="M315.572 139.956C315.959 141.349 314.113 141.482 312.554 142.045C310.044 142.963 309.293 141.537 308.817 139.525C307.435 133.644 305.733 127.829 304.727 121.837C304.086 118.012 302.516 117.569 299.199 118.52C297.607 118.94 295.043 121.35 294.092 117.271C293.252 113.623 295.938 113.954 297.906 113.457C303.046 112.141 308.209 110.892 313.383 109.676C315.24 109.234 317.241 108.14 318.181 111.235C319.198 114.551 316.777 114.629 314.942 114.817C310.52 115.27 309.702 117.26 310.929 121.339C312.675 127.11 313.88 133.047 315.572 139.956Z" fill="#FFF6DF"/>
<path d="M129.515 496.814C131.339 496.571 131.726 497.92 132.19 499.025C134.401 503.834 136.491 508.721 138.823 513.452C140.006 515.785 139.155 516.614 137.132 517.521C129.614 520.892 122.13 524.33 114.701 527.89C112.49 528.918 111.55 528.553 110.6 526.298C109.649 524.043 109.704 522.982 112.004 522.02C117.708 519.544 123.291 516.769 129.006 514.281C131.814 513.076 132.533 511.695 130.908 508.909C129.437 506.399 128.575 503.536 127.149 500.993C125.546 498.097 127.89 497.732 129.515 496.814Z" fill="#FFF6DF"/>
<path d="M204.62 195.895C204.509 197.587 202.973 198.106 202 199.212C200.662 200.627 199.789 199.776 198.882 198.714C193.078 192.081 187.275 185.448 181.415 178.815C179.757 176.947 180.885 175.908 182.278 174.802C183.383 173.918 184.367 172.448 185.893 174.194C191.943 181.115 197.991 188.039 204.034 194.967C204.258 195.257 204.454 195.568 204.62 195.895Z" fill="#FFF6DF"/>
<path d="M106.145 320.319C105.287 320.416 104.419 320.291 103.624 319.956C102.828 319.621 102.132 319.088 101.602 318.406C103.459 317.157 105.25 317.699 107.019 318.13C106.311 318.694 105.371 319.158 106.145 320.319Z" fill="#FFF6DF"/>
<path d="M112.621 318.396C113.97 317.91 115.319 317.545 116.524 318.728C115.922 319.094 115.22 319.259 114.518 319.2C113.817 319.14 113.152 318.859 112.621 318.396Z" fill="#FFF6DF"/>
<path d="M233.033 161.037L232.668 160.816L233.066 160.23C233.188 160.363 233.398 160.507 233.398 160.651C233.398 160.794 233.165 160.916 233.033 161.037Z" fill="#FFF6DF"/>
<path d="M151.238 221.343L151.371 220.017L152.056 220.636C151.813 220.903 151.538 221.141 151.238 221.343Z" fill="#FFF6DF"/>
<path d="M368.237 271.61C368.237 257.836 368.049 244.05 368.359 230.287C368.458 225.964 367.065 225.124 363.096 225.246C355.358 225.5 347.619 225.047 339.958 225.146C337.106 225.146 336.244 224.394 336.155 221.465C335.813 210.056 335.691 209.99 347.288 210.078C367.861 210.233 388.435 210.587 408.997 210.62C413.983 210.62 416.282 211.526 415.453 217.363C414.259 225.699 414.69 225.71 406.355 225.566C400.109 225.467 393.841 225.787 387.561 225.467C383.703 225.257 383.139 226.871 383.073 230.231C382.94 257.792 382.531 285.352 382.498 312.912C382.498 317.434 381.393 318.86 376.772 318.694C367.275 318.351 367.275 318.628 367.275 309.076V271.599L368.237 271.61Z" fill="#FFF6DF"/>
<path d="M197.294 446.369C217.502 449.41 237.678 452.317 257.798 455.578C261.557 456.186 263.326 455.302 265.105 452.019C272.026 439.283 279.366 426.769 286.309 414.044C287.89 411.148 289.029 410.551 292.08 412.253C301.665 417.626 301.731 417.483 296.259 427.134C289.839 438.469 283.431 449.815 277.034 461.172C276.061 462.897 274.768 464.489 275.652 466.799C276.934 470.116 277.697 472.68 282.285 469.485C290.842 463.472 299.973 458.298 308.817 452.615C311.117 451.134 312.266 451.112 313.936 453.622C320.314 463.239 320.414 463.162 310.498 469.386C283.413 486.367 256.328 503.303 229.32 520.438C225.871 522.649 224.113 522.948 221.814 518.957C216.939 510.489 216.684 510.61 224.81 505.47C236.771 497.919 248.777 490.446 260.694 482.818C262.331 481.768 265.669 481.314 264.332 478.307C262.994 475.3 262.894 471.21 257.842 470.514C238.197 467.805 218.641 464.444 198.974 461.902C193.391 461.172 191.589 459.37 193.17 454.075C193.594 452.477 193.846 450.839 193.922 449.188C194.01 446.911 194.884 445.706 197.294 446.369Z" fill="#FFF6DF"/>
<path d="M381.184 569.401C392.814 569.855 392.814 569.855 391.929 581.319C391.178 590.981 390.194 592.374 380.521 594.883C370.372 597.548 360.478 597.017 352.938 588.869C345.399 580.722 345.045 570.496 348.461 560.425C353.447 545.755 374.142 540.305 386.103 550.254C387.426 551.249 388.516 552.521 389.298 553.98C390.282 556.191 393.543 559.242 390.404 560.778C387.762 562.05 383.329 564.725 380.521 559.463C378.166 555.041 373.888 554.035 369.156 554.466C366.838 554.582 364.605 555.378 362.735 556.754C360.866 558.13 359.442 560.025 358.643 562.205C356.619 567.194 356.392 572.732 358.001 577.87C360.821 587.123 372.373 590.605 380.112 584.768C382.168 583.209 381.869 581.208 381.637 579.307C381.317 576.764 379.072 578.058 377.646 577.682C375.292 577.074 371.831 579.307 370.759 575.371C369.488 570.695 370.903 569.037 375.789 569.092C377.525 569.092 379.36 569.28 381.184 569.401Z" fill="#FFF6DF"/>
<path d="M325.121 590.726C321.511 590.527 317.943 589.855 314.509 588.725C306.704 586.017 302.79 580.423 303.785 572.264C305.034 562.071 307.102 551.978 308.207 541.774C308.793 536.446 311.877 538.812 314.398 538.834C317.538 538.834 319.052 539.939 318.4 543.499C316.731 552.896 315.15 562.293 313.978 571.767C313.281 577.405 315.846 580.301 321.374 581.473C327.156 582.689 330.671 580.71 331.843 574.84C333.634 565.841 335.281 556.798 336.375 547.711C336.995 542.637 339.393 542.913 343.296 543.422C347.917 544.018 347.11 546.451 346.535 549.535C344.777 559.098 343.462 568.749 341.516 578.278C339.858 586.647 334.363 590.726 325.121 590.726Z" fill="#FFF6DF"/>
<path d="M340.479 532.489C341.585 522.075 342.867 511.672 343.796 501.247C344.061 498.129 345.255 497.709 347.942 498.041C354.862 498.892 361.816 499.655 368.769 500.175C371.655 500.396 371.909 501.733 371.732 504.121C371.555 506.509 371.168 507.946 368.217 507.438C363.872 506.774 359.45 506.564 355.083 505.923C352.353 505.525 351.302 506.575 351.667 509.118C351.977 511.23 349.147 514.524 353.757 515.099C357.073 515.497 360.334 515.939 363.629 516.105C366.603 516.249 367.575 517.277 367.399 520.472C367.166 524.651 364.568 523.379 362.413 523.313C358.588 523.213 354.11 520.803 351.148 522.793C347.975 524.938 349.976 530.001 349.014 533.682C348.351 536.214 349.434 539.475 344.382 538.878C339.33 538.281 340.048 535.661 340.479 532.489Z" fill="#FFF6DF"/>
<path d="M183 345.481C182.867 343.336 183.906 341.578 184.802 339.765C197.581 313.97 210.357 288.142 223.13 262.28C226.822 254.84 231.001 253.801 237.501 258.853C263.138 278.896 288.675 299.072 314.389 319.026C317.628 321.547 317.23 323.083 314.942 325.891C308.618 333.63 308.718 333.796 300.869 327.649C279.739 311.089 258.638 294.506 237.568 277.901C234.494 275.469 233.09 275.414 231.443 279.217C228.956 284.943 226.126 290.526 223.096 295.976C221.295 299.204 221.482 300.796 225.075 302.609C237.7 308.977 250.06 315.875 262.663 322.265C266.244 324.078 266.399 325.582 264.608 328.898C259.733 337.908 259.899 337.963 251.132 333.32C240.077 327.472 228.956 321.801 218.022 315.754C214.905 314.018 213.777 314.582 212.406 317.633C209.565 323.99 206.547 330.313 203.131 336.427C201.008 340.196 202.247 341.18 205.828 342.22C232.493 349.958 259.07 357.929 285.779 365.435C290.411 366.74 290.886 368.354 289.526 372.51C286.608 381.354 286.807 381.476 277.686 378.812C248.575 370.299 219.463 361.776 190.351 353.241C186.338 351.937 183.309 350.113 183 345.481Z" fill="#FFF6DF"/>
</g>
<defs>
<filter id="filter0_d_1262_20629" x="-104" y="-86" width="958.883" height="964.474" filterUnits="userSpaceOnUse" color-interpolation-filters="sRGB">
<feFlood flood-opacity="0" result="BackgroundImageFix"/>
<feColorMatrix in="SourceAlpha" type="matrix" values="0 0 0 0 0 0 0 0 0 0 0 0 0 0 0 0 0 0 127 0" result="hardAlpha"/>
<feOffset/>
<feGaussianBlur stdDeviation="62"/>
<feComposite in2="hardAlpha" operator="out"/>
<feColorMatrix type="matrix" values="0 0 0 0 0.984314 0 0 0 0 0.690196 0 0 0 0 0.231373 0 0 0 1 0"/>
<feBlend mode="normal" in2="BackgroundImageFix" result="effect1_dropShadow_1262_20629"/>
<feBlend mode="normal" in="SourceGraphic" in2="effect1_dropShadow_1262_20629" result="shape"/>
</filter>
</defs>
</svg>
