<svg width="251" height="564" viewBox="0 0 251 564" fill="none" xmlns="http://www.w3.org/2000/svg">
<g filter="url(#filter0_d_1276_115954)">
<path d="M119.382 313.557C115.439 312.983 111.672 311.543 108.351 309.34C103.409 305.831 99.5964 300.957 97.3806 295.316C95.1647 289.674 94.6415 283.508 95.8751 277.574C96.8272 273.416 98.4298 269.434 100.624 265.776C104.026 259.519 108.996 254.255 115.047 250.498C119.642 247.916 124.724 246.321 129.97 245.813C135.216 245.305 140.51 245.896 145.515 247.548C155.132 250.852 163.558 256.927 169.73 265.009C177.251 274.448 180.259 284.594 178.254 293.531C178.134 294.164 177.888 294.766 177.53 295.302C177.172 295.839 176.711 296.297 176.172 296.652C175.634 297.006 175.03 297.248 174.396 297.364C173.762 297.48 173.111 297.468 172.483 297.327C171.854 297.187 171.259 296.921 170.735 296.547C170.211 296.172 169.767 295.696 169.43 295.146C169.094 294.597 168.871 293.985 168.776 293.348C168.68 292.711 168.714 292.061 168.874 291.436C170.732 283.266 165.482 275.096 162.209 270.967C157.215 264.386 150.393 259.421 142.595 256.692C138.891 255.423 134.964 254.94 131.063 255.275C127.163 255.611 123.375 256.756 119.943 258.638C115.306 261.54 111.512 265.608 108.941 270.436C107.239 273.247 106.004 276.315 105.284 279.521C104.445 283.573 104.792 287.781 106.283 291.642C107.773 295.502 110.345 298.851 113.69 301.288C117.047 303.463 121.024 304.478 125.014 304.18C129.003 303.882 132.785 302.286 135.781 299.636C137.558 297.889 138.864 295.72 139.575 293.332C140.287 290.944 140.382 288.415 139.852 285.98C139.25 283.724 137.983 281.701 136.215 280.175C134.448 278.649 132.261 277.692 129.941 277.427C127.774 277.333 125.641 277.988 123.901 279.283C122.16 280.578 120.919 282.432 120.385 284.535C120.237 285.575 120.302 286.634 120.576 287.648C120.85 288.662 121.327 289.609 121.978 290.434C122.507 291.216 123.191 291.881 123.987 292.389C124.784 292.896 125.676 293.234 126.608 293.383C127.26 293.414 127.898 293.577 128.484 293.862C129.07 294.148 129.592 294.549 130.019 295.043C130.445 295.536 130.766 296.111 130.963 296.732C131.16 297.354 131.229 298.009 131.165 298.658C131.101 299.307 130.905 299.936 130.591 300.507C130.276 301.078 129.848 301.579 129.334 301.979C128.819 302.38 128.229 302.671 127.598 302.836C126.967 303.001 126.309 303.036 125.665 302.939C123.42 302.677 121.253 301.955 119.299 300.818C117.345 299.681 115.647 298.155 114.309 296.333C112.851 294.449 111.797 292.285 111.214 289.976C110.63 287.667 110.529 285.262 110.917 282.912C111.876 278.499 114.372 274.57 117.959 271.826C121.546 269.081 125.991 267.7 130.502 267.929C134.84 268.328 138.951 270.045 142.284 272.85C145.616 275.656 148.01 279.414 149.142 283.62C150.123 287.697 150.026 291.958 148.863 295.986C147.699 300.014 145.509 303.671 142.506 306.597C139.435 309.439 135.756 311.543 131.749 312.749C127.742 313.955 123.512 314.232 119.382 313.557Z" fill="#FFEEBF"/>
<path d="M146.783 468.375L114.162 463.479C112.858 463.264 111.692 462.543 110.917 461.474C110.545 460.933 110.288 460.321 110.161 459.677C110.034 459.033 110.041 458.369 110.18 457.728C110.18 457.728 112.834 444.927 114.25 430.445C115.124 421.856 118.383 413.683 123.659 406.85C119.7 399.354 118.741 390.634 120.975 382.457C123.6 373.992 130.354 366.914 141.061 361.428C149.047 357.086 156.254 351.444 162.385 344.734C162.8 344.257 163.304 343.867 163.869 343.586C164.434 343.304 165.05 343.137 165.68 343.093C166.309 343.049 166.942 343.13 167.541 343.33C168.139 343.531 168.693 343.848 169.169 344.262C169.646 344.676 170.036 345.181 170.317 345.746C170.599 346.311 170.766 346.926 170.81 347.556C170.854 348.186 170.773 348.818 170.573 349.417C170.372 350.016 170.056 350.569 169.641 351.046C162.696 358.671 154.508 365.063 145.426 369.952C137.138 374.228 131.976 379.39 130.118 385.318C128.26 391.247 129.528 397.706 133.628 405.316C134.114 406.24 134.287 407.297 134.123 408.329C133.958 409.36 133.464 410.311 132.714 411.038C127.661 416.745 124.561 423.916 123.865 431.507C122.922 441.063 121.506 449.676 120.592 454.837L148.257 458.996C149.465 459.241 150.532 459.94 151.239 460.948C151.946 461.957 152.239 463.198 152.057 464.417C151.876 465.635 151.233 466.737 150.263 467.496C149.292 468.254 148.068 468.611 146.842 468.493L146.783 468.375Z" fill="#FFEEBF"/>
<path d="M142.238 501.026L89.974 493.21C88.7184 493.006 87.5934 492.317 86.8426 491.29C86.0919 490.263 85.7757 488.982 85.9627 487.724L93.8083 435.43C93.8083 432.48 94.5162 416.376 104.22 407.646C101.418 397.382 95.0471 366.678 114.867 354.909C144.362 337.36 161.646 319.516 167.574 300.285C167.965 299.069 168.824 298.058 169.961 297.474C171.097 296.891 172.419 296.783 173.636 297.174C174.852 297.565 175.863 298.423 176.447 299.56C177.03 300.697 177.138 302.019 176.747 303.235C170.111 324.825 151.47 344.527 119.764 363.286C105.813 371.544 111.092 398.385 114.307 408.029C114.651 409.053 114.64 410.162 114.276 411.179C113.912 412.196 113.216 413.06 112.301 413.633C104.957 418.205 103.453 431.33 103.453 435.902C103.482 436.147 103.482 436.394 103.453 436.639L96.2858 484.538L143.802 491.647C144.446 491.717 145.07 491.917 145.636 492.235C146.201 492.552 146.696 492.981 147.092 493.495C147.487 494.009 147.774 494.598 147.936 495.226C148.098 495.854 148.131 496.508 148.034 497.149C147.936 497.79 147.71 498.405 147.368 498.956C147.027 499.508 146.578 499.984 146.047 500.358C145.517 500.731 144.916 500.993 144.282 501.128C143.648 501.263 142.993 501.269 142.356 501.144L142.238 501.026Z" fill="#FFEEBF"/>
<path d="M37.2107 507.131C36.0032 506.911 34.9256 506.237 34.1988 505.248C33.4721 504.258 33.1512 503.029 33.3021 501.81C33.4529 500.592 34.0641 499.478 35.0102 498.696C35.9563 497.914 37.1657 497.523 38.3906 497.604C49.0971 498.637 78.5917 498.548 86.6438 485.806C93.7144 474.619 102.102 464.321 111.626 455.132C112.089 454.706 112.631 454.375 113.221 454.159C113.812 453.942 114.44 453.844 115.068 453.87C115.697 453.896 116.314 454.046 116.885 454.31C117.456 454.575 117.969 454.949 118.395 455.412C118.821 455.875 119.152 456.417 119.368 457.008C119.585 457.599 119.683 458.226 119.657 458.855C119.631 459.483 119.481 460.101 119.216 460.671C118.952 461.242 118.577 461.755 118.115 462.181C109.249 470.848 101.411 480.508 94.7548 490.968C89.2098 499.816 77.6774 505.066 60.541 506.895C52.8757 507.678 45.1543 507.747 37.4762 507.101L37.2107 507.131Z" fill="#FFEEBF"/>
<path d="M55.9693 368.86C44.4451 367.197 33.1835 364.054 22.4634 359.51C21.3117 358.971 20.4185 358.001 19.9769 356.808C19.5353 355.616 19.5809 354.298 20.1038 353.139C20.3645 352.564 20.7367 352.045 21.199 351.615C21.6612 351.184 22.2043 350.849 22.7968 350.63C23.3893 350.41 24.0194 350.311 24.6507 350.336C25.282 350.362 25.902 350.513 26.4747 350.779C27.0351 351.045 84.0482 376.469 131.004 344.261C132.056 343.577 133.335 343.332 134.566 343.578C135.797 343.824 136.883 344.542 137.592 345.578C138.301 346.614 138.576 347.886 138.359 349.123C138.142 350.36 137.45 351.462 136.431 352.195C108.617 371.278 78.3262 372.222 55.9693 368.86Z" fill="#FFEEBF"/>
<path d="M182.204 237.167C180.966 236.984 179.848 236.322 179.093 235.324C178.337 234.326 178.003 233.071 178.164 231.829C181.497 205.107 168.873 190.212 159.346 182.956C159.583 184.984 159.583 187.033 159.346 189.062C159.346 189.622 159.169 190.153 159.051 190.713C157.574 196.385 154.563 201.541 150.349 205.615C146.134 209.689 140.879 212.523 135.16 213.808C130.059 215.372 124.618 215.457 119.47 214.053C114.322 212.649 109.679 209.812 106.079 205.873C101.492 200.291 98.2648 193.719 96.6524 186.676C95.0401 179.633 95.0865 172.311 96.7879 165.289C97.8403 160.679 99.825 156.333 102.62 152.518C105.415 148.704 108.961 145.502 113.04 143.109C118.64 140.059 124.789 138.147 131.132 137.484C137.475 136.821 143.886 137.42 149.996 139.245C160.755 142.272 170.543 148.042 178.402 155.989C186.26 163.935 191.921 173.787 194.828 184.578C195.071 185.783 194.844 187.035 194.193 188.077C193.541 189.119 192.516 189.873 191.327 190.182C190.137 190.492 188.875 190.334 187.798 189.742C186.721 189.149 185.912 188.167 185.537 186.997C182.958 177.86 178.079 169.538 171.366 162.825C164.653 156.112 156.331 151.233 147.194 148.654C137.356 145.739 126.766 146.798 117.7 151.603C114.728 153.349 112.147 155.687 110.117 158.473C108.088 161.259 106.653 164.432 105.902 167.796C104.55 173.33 104.498 179.103 105.752 184.66C107.006 190.218 109.531 195.409 113.128 199.827C115.58 202.388 118.703 204.208 122.14 205.079C125.577 205.95 129.189 205.837 132.565 204.753C136.538 203.887 140.203 201.963 143.173 199.186C146.143 196.408 148.307 192.879 149.436 188.973C149.514 188.623 149.573 188.268 149.613 187.911C150.04 183.471 149.104 179.005 146.929 175.111C146.509 174.241 146.358 173.266 146.497 172.31C146.636 171.354 147.058 170.462 147.709 169.749C148.359 169.035 149.208 168.532 150.147 168.305C151.085 168.078 152.07 168.137 152.975 168.474C160.442 171.743 167.151 176.523 172.678 182.514C181.231 191.716 190.758 207.968 187.602 233.274C187.44 234.537 186.784 235.684 185.778 236.463C184.771 237.243 183.497 237.591 182.234 237.433L182.204 237.167Z" fill="#FFEEBF"/>
<path d="M9.5159 316.507H9.04397C8.42567 316.352 7.84427 316.076 7.33359 315.695C6.82291 315.314 6.39317 314.835 6.06931 314.286C5.74545 313.737 5.53397 313.129 5.44715 312.498C5.36034 311.866 5.39993 311.224 5.56363 310.608C14.648 275.214 39.158 252.916 76.3507 246.015C93.9703 242.926 112.001 243.016 129.589 246.28C130.237 246.38 130.858 246.612 131.413 246.96C131.969 247.309 132.447 247.768 132.818 248.309C133.19 248.849 133.447 249.46 133.573 250.104C133.7 250.747 133.693 251.41 133.554 252.051C133.415 252.692 133.146 253.298 132.764 253.831C132.383 254.364 131.896 254.814 131.333 255.152C130.771 255.49 130.146 255.709 129.496 255.796C128.846 255.884 128.185 255.837 127.553 255.659C111.124 252.696 94.3016 252.646 77.8549 255.512C44.408 261.676 23.0539 281.113 14.9134 312.849C14.6379 314.026 13.9295 315.055 12.9294 315.733C11.9292 316.411 10.7105 316.687 9.5159 316.507Z" fill="#FFEEBF"/>
<path d="M60.4522 347.743C59.4561 347.577 58.4712 347.35 57.5027 347.064C47.3271 344.115 42.0476 334.706 39.806 329.367C35.5223 318.763 34.5857 307.102 37.1219 295.95C39.5785 285.153 44.2597 274.987 50.8665 266.102C56.3525 258.462 64.9354 248.08 76.2318 246.134C77.4602 245.979 78.7008 246.304 79.6954 247.042C80.69 247.779 81.3618 248.871 81.5709 250.092C81.7799 251.312 81.5102 252.566 80.8178 253.592C80.1255 254.619 79.0638 255.338 77.854 255.601C71.9551 256.604 65.7317 261.884 58.6825 271.706C52.8437 279.515 48.6952 288.455 46.5013 297.956C44.3972 307.173 45.1481 316.812 48.6544 325.592C49.6241 328.358 51.1805 330.881 53.2169 332.989C55.2533 335.096 57.7215 336.739 60.4522 337.803C62.4148 338.338 64.47 338.441 66.4762 338.105C68.4825 337.769 70.392 337.002 72.0731 335.856C74.0749 334.583 75.696 332.793 76.7654 330.675C77.8347 328.557 78.3127 326.19 78.149 323.823C77.8681 321.734 76.8918 319.8 75.3775 318.334C73.8631 316.868 71.899 315.954 69.802 315.741C68.8036 315.788 67.826 316.043 66.932 316.49C66.038 316.937 65.2474 317.566 64.611 318.337C64.0532 318.937 63.6325 319.652 63.3779 320.431C63.1232 321.21 63.0408 322.035 63.1362 322.849C63.3133 324.086 63.0018 325.344 62.2676 326.355C61.5335 327.366 60.4344 328.052 59.2034 328.267C57.9723 328.481 56.706 328.208 55.6728 327.505C54.6396 326.803 53.9207 325.725 53.6684 324.501C53.3303 322.294 53.4827 320.04 54.1148 317.899C54.7469 315.758 55.8433 313.782 57.3258 312.113C58.8738 310.278 60.8013 308.8 62.9756 307.782C65.1498 306.763 67.5191 306.229 69.92 306.214C74.3215 306.477 78.4945 308.263 81.7233 311.266C84.9522 314.269 87.0357 318.301 87.6167 322.672C88.0038 326.819 87.2493 330.992 85.4349 334.74C83.6205 338.489 80.8153 341.669 77.3231 343.938C72.3607 347.242 66.3526 348.597 60.4522 347.743Z" fill="#FFEEBF"/>
<path d="M66.3514 369.303C65.2548 369.14 64.2482 368.603 63.5021 367.783C62.756 366.963 62.3162 365.91 62.2572 364.803C62.1982 363.696 62.5236 362.603 63.1784 361.708C63.8331 360.814 64.7769 360.173 65.85 359.894C73.3711 357.977 81.7771 355.44 86.8207 349.719C89.554 346.417 91.5636 342.579 92.7196 338.452C93.9717 334.923 94.6682 331.222 94.7842 327.48C94.849 321.616 92.8117 315.922 89.0412 311.431C85.2706 306.939 80.0163 303.946 74.2297 302.994C68.443 302.042 62.5068 303.194 57.4961 306.241C52.4854 309.288 48.7316 314.029 46.9145 319.604C46.7649 320.254 46.4819 320.865 46.0835 321.399C45.6852 321.933 45.1801 322.379 44.6004 322.708C44.0206 323.036 43.3789 323.241 42.716 323.308C42.053 323.376 41.3832 323.305 40.7492 323.099C40.1152 322.894 39.5308 322.559 39.033 322.116C38.5352 321.673 38.135 321.132 37.8577 320.526C37.5805 319.92 37.4322 319.263 37.4224 318.596C37.4126 317.93 37.5413 317.269 37.8006 316.655C40.3102 308.876 45.5287 302.256 52.507 297.999C59.4853 293.742 67.7597 292.132 75.8251 293.461C83.8904 294.789 91.2109 298.969 96.4549 305.239C101.699 311.51 104.518 319.454 104.399 327.627C104.258 332.34 103.402 337.004 101.863 341.46C100.329 346.867 97.6763 351.891 94.0763 356.207C87.2336 363.964 77.2054 367.032 68.2981 369.332C67.6533 369.448 66.9924 369.438 66.3514 369.303Z" fill="#FFEEBF"/>
<path d="M89.0624 252.444C84.4559 251.78 80.0578 250.088 76.1931 247.494C72.3285 244.901 69.0961 241.472 66.735 237.461C64.2319 233.005 62.9591 227.963 63.0473 222.852C63.1354 217.742 64.5812 212.747 67.2364 208.38C69.0201 205.458 71.5703 203.081 74.61 201.507C78.1399 200.032 81.9829 199.465 85.7885 199.856C88.5233 199.882 91.2419 200.279 93.87 201.035C97.5522 202.202 100.788 204.47 103.141 207.533C105.493 210.597 106.849 214.308 107.026 218.166C107.203 222.025 106.192 225.845 104.129 229.11C102.067 232.376 99.0523 234.931 95.4922 236.429C92.9204 237.61 90.0471 237.971 87.2632 237.461C80.8039 236.163 77.5595 230.058 75.7898 226.784C75.1914 225.658 75.065 224.34 75.4383 223.12C75.8117 221.9 76.6543 220.879 77.7807 220.281C78.9071 219.682 80.2251 219.556 81.4448 219.929C82.6645 220.302 83.6859 221.145 84.2843 222.271C85.1986 224.012 87.2337 227.639 89.1804 228.17C90.0509 228.272 90.9323 228.119 91.7169 227.728C93.4528 226.982 94.9201 225.725 95.9231 224.124C96.926 222.523 97.417 220.654 97.3304 218.766C97.2439 216.879 96.5841 215.063 95.4388 213.56C94.2936 212.057 92.7174 210.94 90.9206 210.356C89.1206 209.878 87.2673 209.63 85.405 209.618C83.1656 209.359 80.8965 209.611 78.7687 210.356C77.3339 211.155 76.1415 212.327 75.3179 213.748C73.5781 216.623 72.6388 219.911 72.5973 223.272C72.5558 226.632 73.4136 229.943 75.0819 232.86C76.8637 235.814 79.3231 238.302 82.2567 240.118C85.1903 241.933 88.514 243.024 91.9529 243.301C93.224 243.403 94.4027 244.005 95.2296 244.976C96.0566 245.947 96.464 247.206 96.3623 248.477C96.2606 249.749 95.6581 250.927 94.6874 251.754C93.7166 252.581 92.4572 252.989 91.186 252.887C90.4781 252.71 89.7703 252.562 89.0624 252.444Z" fill="#FFEEBF"/>
<path d="M157.135 151.661C156.727 151.602 156.329 151.483 155.956 151.308C152.279 149.722 148.965 147.404 146.213 144.495C143.462 141.587 141.331 138.149 139.951 134.39C138.572 130.632 137.971 126.632 138.188 122.634C138.404 118.636 139.431 114.724 141.208 111.136C143.25 106.835 146.593 103.285 150.765 100.99C154.714 99.1472 159.031 98.2293 163.388 98.3057C167.208 98.0723 171.035 98.6347 174.626 99.9574C177.859 101.3 180.64 103.54 182.641 106.413C184.642 109.285 185.78 112.67 185.919 116.168C186.059 119.666 185.195 123.131 183.429 126.154C181.663 129.177 179.069 131.631 175.953 133.227C174.236 134.167 172.341 134.737 170.39 134.899C168.439 135.062 166.476 134.814 164.627 134.171C162.392 133.358 160.495 131.816 159.243 129.794C157.991 127.771 157.456 125.386 157.725 123.022C157.13 122.158 156.839 121.12 156.899 120.073C156.99 118.802 157.582 117.619 158.544 116.784C159.506 115.949 160.761 115.53 162.032 115.619C162.827 115.672 163.603 115.892 164.309 116.262C165.015 116.633 165.636 117.147 166.131 117.772C166.788 118.764 167.226 119.886 167.414 121.061C167.602 122.236 167.537 123.438 167.223 124.585C167.395 124.915 167.677 125.176 168.019 125.323C168.619 125.478 169.244 125.51 169.857 125.419C170.47 125.328 171.059 125.115 171.588 124.792C173.032 124 174.227 122.82 175.038 121.385C175.848 119.95 176.241 118.318 176.174 116.671C176.107 115.025 175.581 113.43 174.656 112.067C173.731 110.703 172.444 109.625 170.939 108.953C168.577 108.158 166.079 107.847 163.595 108.039C160.712 107.943 157.844 108.477 155.189 109.602C152.832 110.974 150.949 113.032 149.791 115.501C148.595 117.913 147.903 120.543 147.759 123.231C147.614 125.92 148.019 128.609 148.95 131.135C149.88 133.661 151.316 135.971 153.17 137.924C155.024 139.876 157.256 141.429 159.731 142.489C160.802 142.95 161.669 143.785 162.17 144.838C162.672 145.891 162.773 147.091 162.455 148.213C162.138 149.335 161.423 150.304 160.444 150.938C159.466 151.573 158.29 151.83 157.135 151.661Z" fill="#FFEEBF"/>
<path d="M176.691 110.34C175.541 110.166 174.494 109.581 173.742 108.693C172.991 107.806 172.586 106.676 172.604 105.513C172.622 104.35 173.061 103.233 173.84 102.369C174.619 101.505 175.684 100.952 176.839 100.814C178.212 100.661 179.54 100.229 180.74 99.5435C181.939 98.8582 182.986 97.9343 183.815 96.8289C184.644 95.7235 185.238 94.4599 185.56 93.1161C185.882 91.7724 185.925 90.3769 185.687 89.0158C185.444 87.9081 185.109 86.8228 184.684 85.7714C183.767 82.6949 181.779 80.048 179.08 78.3092C177.764 77.7334 176.356 77.394 174.922 77.3064C174 77.1222 173.046 77.173 172.149 77.4539C171.926 77.6066 171.741 77.8082 171.608 78.0433C171.475 78.2785 171.398 78.541 171.382 78.8107C171.323 79.8459 171.58 80.8747 172.12 81.7601C172.487 82.3101 172.737 82.93 172.854 83.581C172.971 84.2321 172.952 84.9003 172.799 85.5438C172.646 86.1873 172.362 86.7922 171.964 87.3208C171.566 87.8494 171.064 88.2902 170.488 88.6158C169.912 88.9413 169.276 89.1445 168.618 89.2127C167.96 89.2809 167.295 89.2126 166.664 89.0121C166.034 88.8116 165.452 88.4831 164.954 88.0473C164.457 87.6115 164.055 87.0777 163.773 86.4793C162.206 83.8098 161.535 80.7093 161.856 77.6309C162.064 75.82 162.71 74.0871 163.738 72.5815C164.766 71.0759 166.144 69.8429 167.755 68.9889C170.308 67.7852 173.164 67.3743 175.954 67.8091C178.53 67.9974 181.049 68.6573 183.387 69.7558C188.264 72.5066 191.929 76.992 193.651 82.3205C194.315 83.9311 194.828 85.5998 195.184 87.3051C195.671 89.9557 195.611 92.6777 195.008 95.3044C194.406 97.931 193.273 100.407 191.68 102.58C190.086 104.754 188.066 106.579 185.742 107.943C183.418 109.308 180.84 110.184 178.166 110.517C177.669 110.517 177.174 110.457 176.691 110.34Z" fill="#FFEEBF"/>
<path d="M140.237 254.362C139.276 254.227 138.379 253.802 137.667 253.143C136.956 252.484 136.463 251.622 136.255 250.675C134.819 244.12 135.3 237.29 137.641 231.002C138.193 229.389 138.999 227.876 140.03 226.519C141.922 224.229 144.461 222.563 147.315 221.74C151.365 220.304 155.782 220.29 159.841 221.7C163.899 223.11 167.357 225.86 169.643 229.498C171.181 232.243 171.834 235.397 171.511 238.528C171.189 241.658 169.909 244.613 167.844 246.988C165.547 249.453 162.409 250.966 159.05 251.228C155.691 251.491 152.356 250.483 149.705 248.404C149.193 248.006 148.767 247.51 148.452 246.944C148.137 246.378 147.939 245.754 147.871 245.11C147.803 244.466 147.866 243.814 148.056 243.195C148.246 242.576 148.56 242.002 148.977 241.506C149.395 241.011 149.908 240.605 150.487 240.314C151.065 240.022 151.696 239.85 152.343 239.808C152.989 239.766 153.637 239.856 154.248 240.071C154.859 240.286 155.421 240.622 155.898 241.06C156.657 241.542 157.559 241.746 158.452 241.639C159.344 241.531 160.172 241.118 160.795 240.47C161.483 239.585 161.895 238.517 161.979 237.4C162.063 236.282 161.815 235.165 161.266 234.187C160.035 232.533 158.298 231.324 156.318 230.744C154.339 230.164 152.224 230.244 150.294 230.972C149.251 231.258 148.304 231.818 147.551 232.594C147.159 233.178 146.852 233.813 146.637 234.482C144.938 239.025 144.59 243.962 145.634 248.699C145.774 249.313 145.79 249.948 145.683 250.568C145.576 251.189 145.347 251.782 145.01 252.314C144.673 252.845 144.234 253.305 143.718 253.667C143.203 254.028 142.621 254.285 142.006 254.421C141.418 254.518 140.817 254.498 140.237 254.362Z" fill="#FFEEBF"/>
<path d="M68.476 416.317C64.6118 415.769 60.987 414.121 58.0349 411.568C54.6614 408.431 52.2477 404.402 51.0741 399.947C50.1421 397.225 49.802 394.336 50.0767 391.472C50.3514 388.609 51.2344 385.837 52.6669 383.342C54.5391 380.413 57.3404 378.199 60.6215 377.052C63.9027 375.906 67.4738 375.895 70.7621 377.021C74.0504 378.146 76.8655 380.343 78.756 383.26C80.6466 386.176 81.5031 389.643 81.1882 393.104C81.1301 393.734 80.9485 394.346 80.654 394.905C80.3595 395.464 79.9577 395.96 79.4715 396.364C78.9854 396.768 78.4244 397.072 77.8207 397.259C77.217 397.446 76.5823 397.513 75.9529 397.455C75.3235 397.397 74.7117 397.215 74.1524 396.921C73.5931 396.626 73.0974 396.224 72.6934 395.738C72.2894 395.252 71.9851 394.691 71.798 394.087C71.6108 393.484 71.5443 392.849 71.6024 392.22C71.7275 390.9 71.4047 389.577 70.6859 388.464C69.9672 387.35 68.8945 386.511 67.6406 386.082C66.3868 385.653 65.025 385.658 63.7746 386.097C62.5242 386.537 61.4582 387.384 60.7484 388.503C60.0688 389.868 59.6787 391.358 59.6025 392.881C59.5264 394.404 59.7659 395.926 60.306 397.352C60.9995 400.042 62.4175 402.49 64.4057 404.43C66.2714 405.906 68.5291 406.801 70.8989 407.006C73.2687 407.21 75.6465 406.715 77.7373 405.581C79.9837 404.266 81.9005 402.457 83.3419 400.289C84.7832 398.122 85.711 395.655 86.0548 393.075C86.7253 387.427 85.5454 381.714 82.6924 376.794C81.7268 374.506 79.9373 372.664 77.6783 371.632C76.462 371.282 75.433 370.466 74.8145 369.362C74.1961 368.257 74.0381 366.954 74.3749 365.733C74.5416 365.127 74.8271 364.559 75.2148 364.064C75.6026 363.569 76.0848 363.156 76.6336 362.848C77.1825 362.541 77.7869 362.346 78.4118 362.274C79.0367 362.202 79.6696 362.255 80.2738 362.43C82.6376 363.247 84.8121 364.533 86.667 366.21C88.5219 367.888 90.0191 369.923 91.0689 372.193C94.9576 378.958 96.522 386.811 95.5226 394.55C94.9602 398.613 93.4637 402.491 91.1506 405.878C88.8375 409.266 85.7707 412.072 82.191 414.075C77.9722 416.256 73.1697 417.041 68.476 416.317Z" fill="#FFEEBF"/>
<path d="M47.3554 493.091C44.2152 492.618 41.3191 491.121 39.1166 488.833C36.9141 486.545 35.5282 483.594 35.1741 480.438C35.0262 479.798 35.0112 479.135 35.1298 478.488C35.2484 477.842 35.4982 477.227 35.8638 476.681C36.2294 476.135 36.7029 475.67 37.2553 475.314C37.8076 474.959 38.427 474.72 39.0752 474.613C39.7234 474.506 40.3867 474.533 41.0241 474.692C41.6615 474.851 42.2594 475.14 42.781 475.539C43.3027 475.939 43.7369 476.441 44.057 477.014C44.377 477.588 44.5761 478.221 44.6419 478.875C44.6615 479.563 44.8245 480.24 45.1204 480.862C45.4163 481.484 45.8386 482.038 46.3604 482.487C46.8821 482.937 47.4919 483.273 48.1507 483.474C48.8096 483.674 49.5031 483.735 50.1869 483.653C52.1821 483.616 54.0984 482.867 55.5908 481.543C57.0833 480.218 58.0537 478.404 58.3274 476.427C58.7698 471.206 56.5872 468.08 51.8681 467.166C45.1433 465.838 35.646 469.791 33.4339 476.81C33.2402 477.411 32.9302 477.967 32.5216 478.448C32.1129 478.928 31.6136 479.324 31.0521 479.611C30.4906 479.899 29.878 480.073 29.2493 480.124C28.6205 480.175 27.9879 480.101 27.3875 479.907C26.7871 479.714 26.2308 479.404 25.7503 478.995C25.2697 478.586 24.8744 478.087 24.5868 477.526C24.2992 476.964 24.125 476.352 24.0742 475.723C24.0234 475.094 24.0969 474.461 24.2906 473.861C26.5022 468.111 30.676 463.329 36.0737 460.361C41.4715 457.392 47.7452 456.428 53.7852 457.639C63.4004 459.527 68.8275 466.989 67.9721 477.135C67.4757 481.435 65.4575 485.416 62.2824 488.359C59.1073 491.301 54.9845 493.011 50.6588 493.18C49.5571 493.246 48.4519 493.217 47.3554 493.091Z" fill="#FFEEBF"/>
<path d="M61.7821 472.091C60.688 471.92 59.6867 471.376 58.9472 470.552C58.2077 469.727 57.7754 468.673 57.7234 467.567C57.6714 466.461 58.0028 465.371 58.6617 464.481C59.3206 463.591 60.2665 462.955 61.3397 462.682C64.5095 461.929 67.4955 460.546 70.1202 458.615C72.7448 456.685 74.9545 454.246 76.6179 451.445C77.952 449.064 78.4938 446.32 78.1651 443.61C77.8363 440.901 76.654 438.366 74.7892 436.373C70.424 431.123 62.7554 427.967 58.0362 429.471C57.0924 429.766 54.2609 430.651 53.848 436.167C53.8111 437.753 54.1191 439.329 54.7505 440.786C55.3819 442.242 56.3218 443.544 57.5054 444.602C58.2295 445.319 59.109 445.859 60.0757 446.182C61.0424 446.504 62.0704 446.599 63.0798 446.46C63.9154 446.341 64.7054 446.006 65.3725 445.489C66.0396 444.972 66.5606 444.29 66.8846 443.511C66.9967 442.861 67.2411 442.242 67.6026 441.691C67.9641 441.14 68.4349 440.67 68.9859 440.308C69.5369 439.947 70.1562 439.703 70.8055 439.591C71.4548 439.479 72.1202 439.502 72.7603 439.658C73.4005 439.814 74.0017 440.1 74.5267 440.498C75.0518 440.896 75.4894 441.398 75.8124 441.972C76.1354 442.546 76.3369 443.181 76.4044 443.836C76.472 444.491 76.4041 445.154 76.2049 445.782C75.471 448.358 74.0239 450.675 72.0305 452.465C70.0371 454.255 67.5785 455.445 64.938 455.898C62.4723 456.352 59.9344 456.217 57.5306 455.505C55.1269 454.792 52.9254 453.523 51.105 451.799C48.8195 449.75 47.0193 447.218 45.8356 444.386C44.6519 441.555 44.1144 438.495 44.2622 435.429C44.2834 432.098 45.3392 428.855 47.2837 426.15C49.2282 423.444 51.9652 421.41 55.1163 420.328C63.6108 417.644 75.2316 421.921 82.1629 430.268C85.2815 433.708 87.2434 438.04 87.7724 442.653C88.3015 447.266 87.3712 451.93 85.1123 455.987C82.8184 459.98 79.7334 463.463 76.0463 466.222C72.3593 468.981 68.1477 470.958 63.6697 472.032C63.0501 472.173 62.4092 472.193 61.7821 472.091Z" fill="#FFEEBF"/>
<path d="M238.452 555.413L35.3816 524.945C34.123 524.756 32.9908 524.075 32.2334 523.052C31.4759 522.029 31.1549 520.748 31.3409 519.489L33.553 504.741C28.126 500.671 18.5402 489.699 23.5248 465.041C29.4237 436.196 34.6148 391.157 34.6738 390.715V390.155C34.9097 389.24 39.7173 367.473 22.8759 359.421C14.8829 355.557 8.89547 347.181 5.9755 335.825C0.872927 316.005 4.55974 282.057 30.1021 246.28C61.3959 202.48 184.359 41.4691 210.786 6.90137L211.199 4.09934C211.352 3.04435 211.852 2.07068 212.622 1.33314C213.392 0.595601 214.386 0.136588 215.446 0.0291121C216.228 -0.0587024 217.02 0.0529152 217.747 0.353555C218.531 0.296894 219.317 0.417865 220.047 0.707476C221.041 1.11131 221.871 1.83589 222.406 2.76584C222.94 3.69578 223.148 4.77774 222.997 5.8396L222.584 8.78907C237.685 49.5801 307.971 239.555 325.048 290.61C338.97 332.316 332.511 365.851 321.833 383.341C315.699 393.34 307.499 399.593 298.739 401.038C280.335 403.84 278.565 426.079 278.476 427.023C278.491 427.2 278.491 427.377 278.476 427.554C278.476 427.996 270.218 472.622 267.327 501.88C264.85 526.921 252.58 534.59 246.091 536.89L243.909 551.638C243.659 552.848 242.952 553.915 241.936 554.618C240.92 555.321 239.673 555.605 238.452 555.413ZM41.4575 516.215L235.031 545.267L236.977 532.26C237.135 531.207 237.637 530.236 238.406 529.499C239.174 528.763 240.166 528.302 241.225 528.189C241.726 528.189 255.205 525.948 257.683 500.818C260.632 472.268 268.242 429.559 268.891 425.932C269.443 420.664 270.827 415.517 272.99 410.683C275.018 405.64 278.327 401.213 282.589 397.841C286.851 394.468 291.92 392.266 297.294 391.452C303.193 390.538 309.092 385.878 313.604 378.327C323.161 362.695 328.794 332.257 315.905 293.678C299.477 244.54 233.527 66.0381 215.328 16.9295C183.533 58.5464 68.0912 209.824 37.9772 251.972C14.3815 285.065 10.7831 315.828 15.3253 333.554C17.5374 342.167 21.7256 348.302 27.1231 350.897C32.0395 353.24 36.2586 356.827 39.3625 361.301C42.4665 365.776 44.3478 370.985 44.8199 376.41C45.4619 381.677 45.2728 387.011 44.2595 392.219C43.8171 395.847 38.6851 438.968 32.9926 467.077C28.008 491.852 40.2483 497.869 40.7792 498.134C41.7416 498.549 42.5376 499.273 43.0401 500.193C43.5426 501.112 43.7227 502.174 43.5517 503.207L41.4575 516.215Z" fill="#FFEEBF"/>
<path d="M219.721 328.452C215.578 327.889 211.618 326.384 208.146 324.053C204.675 321.721 201.783 318.625 199.694 315.002C197.676 311.325 196.65 307.186 196.717 302.992C196.784 298.797 197.943 294.693 200.078 291.082C202.392 287.393 205.781 284.501 209.789 282.798C213.798 281.094 218.232 280.661 222.494 281.556C226.872 282.665 230.714 285.293 233.334 288.972C235.954 292.651 237.182 297.141 236.799 301.641C236.482 303.996 235.682 306.259 234.449 308.29C233.215 310.32 231.575 312.073 229.632 313.439C227.817 314.788 225.743 315.747 223.54 316.254C221.337 316.762 219.053 316.808 216.831 316.389C216.186 316.292 215.567 316.065 215.012 315.721C214.457 315.378 213.978 314.925 213.604 314.39C213.23 313.856 212.969 313.251 212.836 312.612C212.704 311.973 212.702 311.314 212.833 310.674C212.963 310.035 213.222 309.429 213.594 308.893C213.966 308.357 214.443 307.902 214.997 307.556C215.55 307.211 216.168 306.981 216.813 306.882C217.458 306.783 218.116 306.816 218.748 306.98C219.669 307.123 220.61 307.077 221.513 306.844C222.416 306.61 223.262 306.195 223.998 305.623C224.867 305.025 225.605 304.256 226.168 303.364C226.731 302.471 227.106 301.474 227.272 300.432C227.381 298.267 226.739 296.13 225.455 294.383C224.171 292.637 222.322 291.387 220.223 290.846C217.926 290.413 215.552 290.682 213.41 291.618C211.269 292.555 209.459 294.116 208.218 296.096C206.999 298.272 206.359 300.725 206.359 303.219C206.359 305.714 206.999 308.166 208.218 310.342C210.307 313.757 213.455 316.396 217.183 317.855C220.91 319.314 225.013 319.514 228.865 318.424C232.78 317.065 236.222 314.612 238.784 311.355C241.346 308.098 242.919 304.174 243.317 300.049C243.546 296.77 243.258 293.475 242.462 290.286C241.401 284.922 238.973 279.924 235.413 275.775C232.684 272.975 229.402 270.774 225.777 269.311C222.151 267.849 218.261 267.157 214.353 267.28C206.084 267.597 198.091 270.347 191.377 275.185C187.041 278.134 179.579 284.446 178.989 292.881C178.873 294.138 178.267 295.299 177.302 296.112C176.338 296.926 175.092 297.328 173.833 297.231C172.575 297.135 171.405 296.547 170.576 295.595C169.748 294.643 169.326 293.404 169.404 292.144C170.141 283.001 175.981 274.211 185.95 267.369C194.209 261.441 204.045 258.104 214.206 257.783C219.471 257.638 224.707 258.597 229.579 260.599C234.45 262.6 238.849 265.6 242.491 269.404C247.199 274.763 250.422 281.26 251.841 288.251C252.86 292.416 253.209 296.717 252.873 300.992C252.32 307.035 250.012 312.784 246.234 317.532C242.456 322.279 237.372 325.819 231.608 327.715C227.747 328.828 223.69 329.08 219.721 328.452Z" fill="#FFEEBF"/>
<path d="M180.703 473.448L148.082 468.552C147.432 468.489 146.802 468.295 146.23 467.982C145.658 467.668 145.156 467.241 144.754 466.727C144.352 466.213 144.059 465.623 143.893 464.992C143.727 464.361 143.691 463.703 143.787 463.057C143.883 462.412 144.11 461.793 144.453 461.238C144.796 460.683 145.248 460.204 145.782 459.829C146.317 459.455 146.922 459.193 147.56 459.06C148.199 458.927 148.858 458.925 149.497 459.055L177.163 463.213C177.783 457.993 178.963 449.351 180.88 439.942C182.482 432.473 181.602 424.685 178.373 417.762C177.866 416.849 177.673 415.795 177.822 414.762C177.971 413.729 178.455 412.773 179.198 412.04C185.333 405.935 188.43 399.859 188.401 393.93C188.371 388.002 184.95 381.277 178.255 374.759C170.967 367.43 164.982 358.911 160.558 349.57C160.042 348.397 160.013 347.067 160.477 345.872C160.942 344.677 161.862 343.716 163.035 343.2C164.209 342.683 165.539 342.654 166.734 343.119C167.929 343.584 168.89 344.504 169.406 345.677C173.316 353.879 178.547 361.382 184.891 367.887C193.503 376.263 197.898 385.023 197.928 393.901C197.645 402.372 194.167 410.422 188.194 416.435C191.246 424.551 191.951 433.361 190.229 441.859C187.28 456.135 186.13 469.024 186.13 469.142C186.071 469.793 185.878 470.426 185.563 470.999C185.249 471.573 184.819 472.075 184.301 472.475C183.8 472.874 183.222 473.167 182.603 473.334C181.984 473.502 181.337 473.54 180.703 473.448Z" fill="#FFEEBF"/>
<path d="M195.065 508.96L142.8 501.115C142.151 501.052 141.521 500.858 140.949 500.545C140.377 500.231 139.875 499.804 139.473 499.29C139.071 498.776 138.778 498.185 138.612 497.555C138.446 496.924 138.409 496.266 138.506 495.62C138.602 494.975 138.828 494.356 139.171 493.801C139.515 493.246 139.967 492.767 140.501 492.392C141.035 492.018 141.64 491.756 142.279 491.623C142.918 491.49 143.577 491.488 144.216 491.617L191.879 498.755L199.076 450.856C199.107 450.614 199.166 450.376 199.253 450.148C200.61 445.694 202.94 432.776 197.277 426.257C196.579 425.447 196.17 424.427 196.117 423.358C196.063 422.29 196.368 421.234 196.982 420.358C202.881 412.1 215.8 387.914 204.916 375.969C180.141 348.686 168.077 324.442 168.048 301.849C168.032 301.603 168.032 301.357 168.048 301.112L212.29 6.46024C212.352 5.81081 212.546 5.18086 212.86 4.60881C213.174 4.03676 213.601 3.53461 214.115 3.13282C214.629 2.73103 215.219 2.43808 215.85 2.27178C216.481 2.10548 217.139 2.06928 217.784 2.16548C218.429 2.26167 219.048 2.48822 219.603 2.83128C220.158 3.17435 220.638 3.62677 221.012 4.16101C221.387 4.69525 221.648 5.30013 221.782 5.9388C221.915 6.57748 221.917 7.23651 221.787 7.87592L177.545 302.173C177.693 322.2 188.93 344.233 211.906 369.51C227.391 386.587 212.29 414.076 206.597 423.042C213.322 434.25 209.193 449.941 208.396 452.537L200.551 504.831C200.468 505.465 200.259 506.076 199.937 506.628C199.615 507.181 199.186 507.663 198.675 508.048C198.164 508.432 197.582 508.711 196.962 508.868C196.342 509.024 195.697 509.056 195.065 508.96Z" fill="#FFEEBF"/>
<path d="M241.431 537.718H241.165C233.647 536.061 226.293 533.731 219.192 530.757C203.324 524.003 193.886 515.479 191.143 505.48C187.827 493.519 183.125 481.987 177.133 471.119C176.584 470.026 176.472 468.765 176.82 467.593C177.168 466.421 177.949 465.425 179.005 464.809C180.061 464.192 181.313 464.002 182.505 464.275C183.696 464.549 184.739 465.266 185.421 466.282C191.786 477.868 196.737 490.177 200.168 502.943C204.15 517.425 232.317 526.185 242.847 528.309C244.071 528.561 245.148 529.28 245.851 530.313C246.554 531.346 246.827 532.613 246.612 533.844C246.398 535.075 245.712 536.174 244.701 536.908C243.689 537.642 242.432 537.954 241.195 537.777L241.431 537.718Z" fill="#FFEEBF"/>
<path d="M264.083 400.095C241.697 396.733 213.028 386.94 192.057 360.513C191.431 359.507 191.199 358.306 191.405 357.139C191.611 355.972 192.24 354.922 193.173 354.191C194.105 353.46 195.274 353.099 196.456 353.177C197.639 353.255 198.75 353.767 199.578 354.614C234.972 399.181 296.911 391.571 297.589 391.512C298.848 391.344 300.123 391.683 301.132 392.455C302.142 393.226 302.804 394.367 302.972 395.627C303.14 396.886 302.801 398.161 302.029 399.17C301.258 400.18 300.117 400.841 298.857 401.009C287.275 402.213 275.586 401.906 264.083 400.095Z" fill="#FFEEBF"/>
<path d="M182.03 237.137C181.408 237.026 180.814 236.794 180.282 236.455C179.75 236.115 179.29 235.673 178.929 235.156C178.567 234.638 178.311 234.054 178.175 233.438C178.039 232.821 178.026 232.184 178.137 231.562C182.531 206.462 196.423 193.72 207.277 187.32C214.32 183.205 222.147 180.613 230.254 179.71C231.214 179.637 232.174 179.857 233.006 180.342C233.839 180.826 234.504 181.552 234.914 182.424C235.333 183.298 235.479 184.278 235.332 185.236C235.184 186.194 234.751 187.085 234.088 187.792C230.862 190.887 228.651 194.887 227.747 199.265C227.747 199.619 227.747 199.973 227.599 200.357C226.95 207.671 231.581 215.723 239.131 220.354C242.033 222.388 245.45 223.559 248.99 223.732C252.529 223.904 256.044 223.07 259.129 221.327C263.869 218.174 267.811 213.961 270.642 209.021C273.473 204.081 275.115 198.549 275.439 192.865C275.718 189.423 275.28 185.961 274.153 182.696C273.026 179.432 271.234 176.437 268.892 173.9C261.594 166.657 251.744 162.569 241.462 162.515C231.963 162.315 222.572 164.559 214.189 169.031C205.807 173.504 198.714 180.056 193.592 188.057C192.922 189.139 191.85 189.912 190.612 190.205C189.373 190.498 188.069 190.288 186.985 189.621C186.446 189.292 185.978 188.859 185.608 188.348C185.237 187.837 184.971 187.257 184.826 186.643C184.681 186.029 184.658 185.392 184.761 184.769C184.863 184.146 185.088 183.549 185.422 183.014C191.392 173.531 199.729 165.767 209.613 160.486C219.496 155.206 230.585 152.591 241.786 152.9C248.163 152.948 254.468 154.255 260.339 156.745C266.21 159.236 271.532 162.86 276 167.411C279.188 170.904 281.632 175.009 283.184 179.476C284.735 183.943 285.362 188.679 285.025 193.396C284.604 200.612 282.506 207.63 278.896 213.892C275.286 220.154 270.265 225.487 264.231 229.468C259.639 232.181 254.369 233.533 249.037 233.366C243.706 233.199 238.531 231.52 234.117 228.524C229.024 225.63 224.827 221.386 221.991 216.26C219.155 211.134 217.789 205.325 218.043 199.472C218.043 198.882 218.043 198.351 218.249 197.791C218.58 195.766 219.144 193.786 219.931 191.892C208.693 196.021 192.235 206.639 187.486 233.184C187.276 234.427 186.587 235.537 185.566 236.276C184.546 237.015 183.276 237.324 182.03 237.137Z" fill="#FFEEBF"/>
<path d="M325.521 364.437C324.349 364.25 323.287 363.638 322.537 362.719C321.786 361.8 321.4 360.637 321.451 359.452C322.985 326.506 308.031 301.613 277.002 285.45C261.907 277.794 245.603 272.805 228.808 270.703C228.155 270.677 227.513 270.519 226.923 270.237C226.332 269.955 225.806 269.555 225.375 269.062C224.945 268.57 224.619 267.995 224.419 267.372C224.218 266.749 224.147 266.092 224.209 265.441C224.272 264.789 224.466 264.158 224.781 263.584C225.096 263.011 225.525 262.508 226.041 262.106C226.557 261.704 227.15 261.411 227.783 261.246C228.416 261.081 229.076 261.047 229.723 261.146C247.759 263.332 265.27 268.673 281.456 276.926C315.581 294.623 332.747 323.41 331.037 359.894C331.01 360.525 330.859 361.144 330.592 361.715C330.326 362.287 329.948 362.8 329.482 363.225C329.016 363.65 328.47 363.978 327.876 364.191C327.283 364.404 326.653 364.498 326.023 364.466L325.521 364.437Z" fill="#FFEEBF"/>
<path d="M265.999 378.446C260.21 377.495 254.966 374.464 251.252 369.922C248.584 366.724 246.838 362.859 246.204 358.743C245.57 354.627 246.071 350.415 247.654 346.563C249.505 342.548 252.695 339.302 256.677 337.381C260.659 335.46 265.185 334.983 269.48 336.033C271.774 336.763 273.883 337.982 275.66 339.607C277.437 341.231 278.841 343.222 279.773 345.442C280.698 347.474 281.164 349.685 281.138 351.917C281.113 354.15 280.597 356.35 279.626 358.36C278.999 359.401 278.002 360.165 276.835 360.5C275.668 360.835 274.417 360.717 273.334 360.168C272.251 359.619 271.416 358.68 270.996 357.541C270.577 356.401 270.604 355.145 271.072 354.025C271.406 353.272 271.578 352.459 271.578 351.636C271.578 350.813 271.406 349.999 271.072 349.247C270.702 348.321 270.136 347.486 269.413 346.798C268.69 346.111 267.828 345.588 266.884 345.265C264.816 344.848 262.668 345.142 260.788 346.101C258.909 347.059 257.408 348.625 256.532 350.544C255.686 352.757 255.45 355.157 255.85 357.492C256.249 359.827 257.269 362.011 258.803 363.817C260.084 365.399 261.69 366.689 263.511 367.599C265.332 368.51 267.327 369.02 269.362 369.096C272.269 368.859 275.09 367.998 277.635 366.573C280.179 365.148 282.388 363.192 284.109 360.838C290.039 353.466 293.588 344.465 294.285 335.03C294.946 325.314 293.6 315.565 290.332 306.391L289.92 305.093C287.294 297.248 284.581 289.166 278.417 286.04C277.278 285.465 276.415 284.461 276.017 283.25C275.619 282.038 275.718 280.718 276.293 279.58C276.868 278.442 277.872 277.579 279.083 277.181C280.294 276.782 281.614 276.882 282.752 277.457C292.427 282.382 295.936 292.823 299.004 302.055L299.446 303.323C303.114 313.724 304.609 324.766 303.841 335.768C302.969 347.166 298.649 358.03 291.453 366.914C287.737 371.309 279.95 378.712 269.332 378.564C268.22 378.613 267.106 378.573 265.999 378.446Z" fill="#FFEEBF"/>
<path d="M254.027 397.47C253.393 397.364 252.784 397.145 252.228 396.821C244.412 392.013 235.711 386.115 231.582 376.706C229.431 371.542 228.376 365.988 228.485 360.395C228.298 355.689 228.845 350.982 230.107 346.444C232.406 338.613 237.435 331.865 244.283 327.425C251.13 322.984 259.343 321.144 267.43 322.24C275.518 323.335 282.945 327.292 288.365 333.394C293.785 339.496 296.838 347.339 296.972 355.499C297.034 356.158 296.96 356.823 296.753 357.452C296.547 358.082 296.213 358.661 295.772 359.155C295.331 359.649 294.792 360.047 294.19 360.323C293.589 360.599 292.936 360.748 292.274 360.76C291.612 360.772 290.955 360.648 290.343 360.394C289.732 360.14 289.179 359.763 288.72 359.285C288.261 358.808 287.906 358.241 287.676 357.62C287.446 356.999 287.348 356.337 287.386 355.676C287.287 349.811 285.09 344.175 281.194 339.79C277.298 335.405 271.96 332.56 266.147 331.772C260.334 330.984 254.431 332.304 249.508 335.494C244.584 338.683 240.967 343.531 239.31 349.158C238.339 352.771 237.922 356.51 238.071 360.248C237.957 364.519 238.731 368.767 240.342 372.724C243.498 379.685 250.783 384.522 257.39 388.622C258.33 389.202 259.042 390.089 259.405 391.133C259.767 392.178 259.76 393.315 259.382 394.354C259.005 395.392 258.281 396.27 257.332 396.837C256.384 397.405 255.269 397.628 254.175 397.47H254.027Z" fill="#FFEEBF"/>
<path d="M231.107 162.752C229.957 162.571 228.912 161.98 228.165 161.087C227.418 160.195 227.021 159.062 227.046 157.898C227.071 156.735 227.517 155.62 228.302 154.761C229.087 153.901 230.157 153.356 231.313 153.225C233.994 152.937 236.587 152.103 238.933 150.776C241.28 149.448 243.33 147.654 244.957 145.505C246.584 143.355 247.754 140.896 248.396 138.277C249.037 135.659 249.136 132.936 248.686 130.278C248.327 127.554 247.131 125.009 245.264 122.993C243.067 121.132 240.49 119.774 237.714 119.011C235.382 118.115 232.897 117.684 230.399 117.743C228.764 117.946 227.219 118.601 225.936 119.634C224.654 120.668 223.685 122.039 223.14 123.593C222.594 125.147 222.493 126.823 222.848 128.431C223.203 130.039 224 131.517 225.149 132.697C225.983 133.624 227.149 134.185 228.393 134.26C228.784 134.221 229.144 134.03 229.396 133.729C229.42 132.555 229.695 131.4 230.204 130.341C230.713 129.283 231.443 128.346 232.346 127.594C233.006 127.153 233.749 126.85 234.529 126.703C235.31 126.556 236.112 126.568 236.888 126.739C237.772 126.937 238.582 127.382 239.222 128.023C239.863 128.664 240.308 129.474 240.506 130.358C240.704 131.242 240.647 132.165 240.34 133.018C240.034 133.87 239.491 134.618 238.775 135.174C238.343 137.515 237.136 139.642 235.35 141.214C233.563 142.787 231.3 143.714 228.924 143.846C226.97 143.9 225.027 143.545 223.219 142.803C221.41 142.062 219.777 140.95 218.424 139.54C215.916 137.101 214.158 133.996 213.356 130.592C212.554 127.187 212.742 123.623 213.898 120.322C215.055 117.021 217.131 114.119 219.882 111.958C222.633 109.798 225.944 108.469 229.426 108.128C233.249 107.914 237.076 108.497 240.663 109.838C244.863 111.033 248.729 113.183 251.959 116.121C255.284 119.53 257.433 123.911 258.094 128.627C258.743 132.573 258.583 136.611 257.622 140.494C256.662 144.377 254.922 148.024 252.508 151.213C250.094 154.403 247.056 157.067 243.58 159.046C240.104 161.025 236.261 162.275 232.287 162.722C231.895 162.772 231.5 162.781 231.107 162.752Z" fill="#FFEEBF"/>
<path d="M224.531 117.507C224.104 117.444 223.688 117.325 223.292 117.153C220.826 116.06 218.611 114.473 216.784 112.49C214.956 110.507 213.555 108.17 212.668 105.623C211.78 103.077 211.425 100.375 211.624 97.6859C211.823 94.9964 212.572 92.3765 213.824 89.9882C214.67 88.4539 215.657 87.0023 216.774 85.6525C218.938 82.1505 222.156 79.4246 225.966 77.8665C229.777 76.3085 233.983 75.9985 237.98 76.9811C240.77 77.4028 243.375 78.6333 245.472 80.5204C246.722 81.8331 247.642 83.4247 248.155 85.1634C248.668 86.9022 248.759 88.738 248.422 90.5191C247.828 93.5971 246.255 96.4007 243.938 98.5121C243.011 99.3883 241.774 99.8603 240.499 99.8243C239.224 99.7884 238.016 99.2474 237.14 98.3204C236.264 97.3935 235.792 96.1565 235.828 94.8815C235.864 93.6065 236.405 92.398 237.332 91.5219C238.135 90.8392 238.702 89.9206 238.954 88.8969C239.011 88.6328 239.011 88.3596 238.955 88.0953C238.899 87.831 238.788 87.5815 238.629 87.3632C237.878 86.8641 237.019 86.5507 236.122 86.4489C234.735 86.0997 233.295 86.0097 231.875 86.1834C228.777 87.0377 226.094 88.9869 224.324 91.6694C223.584 92.5297 222.941 93.4695 222.407 94.4714C221.774 95.7 221.395 97.0439 221.294 98.4225C221.192 99.8011 221.37 101.186 221.817 102.494C222.289 103.79 223.015 104.98 223.952 105.993C224.889 107.006 226.018 107.822 227.274 108.393C228.311 108.882 229.139 109.726 229.609 110.773C230.078 111.819 230.158 112.999 229.834 114.099C229.51 115.199 228.804 116.147 227.842 116.772C226.88 117.397 225.727 117.658 224.59 117.507H224.531Z" fill="#FFEEBF"/>
<path d="M217.128 265.924C216.537 265.83 215.967 265.63 215.447 265.334C214.341 264.703 213.531 263.659 213.194 262.432C212.857 261.204 213.02 259.893 213.648 258.786C216.048 254.576 217.175 249.761 216.892 244.923C216.871 244.213 216.751 243.508 216.538 242.829C216.065 241.867 215.329 241.059 214.415 240.499C212.764 239.248 210.749 238.571 208.678 238.571C206.607 238.571 204.592 239.248 202.941 240.499C202.122 241.272 201.551 242.27 201.299 243.367C201.047 244.464 201.126 245.611 201.526 246.664C201.948 247.458 202.627 248.085 203.452 248.444C204.277 248.803 205.199 248.872 206.068 248.64C207.231 248.198 208.52 248.224 209.664 248.712C210.808 249.201 211.718 250.114 212.203 251.26C212.688 252.405 212.71 253.694 212.265 254.856C211.819 256.017 210.94 256.961 209.814 257.488C206.668 258.686 203.19 258.666 200.058 257.433C196.927 256.2 194.368 253.843 192.884 250.822C191.606 247.944 191.25 244.742 191.862 241.653C192.475 238.565 194.026 235.741 196.305 233.568C199.556 230.77 203.661 229.158 207.948 228.997C212.235 228.837 216.449 230.136 219.901 232.683C222.386 234.321 224.326 236.662 225.475 239.408C226.059 241.008 226.387 242.69 226.449 244.393C226.828 251.09 225.272 257.756 221.965 263.594C221.479 264.416 220.761 265.077 219.9 265.491C219.039 265.906 218.075 266.056 217.128 265.924Z" fill="#FFEEBF"/>
<path d="M238.187 441.772C233.478 441.066 229.118 438.875 225.74 435.519C222.903 432.552 220.792 428.968 219.574 425.047C218.356 421.127 218.064 416.978 218.721 412.926C220.062 405.245 223.861 398.207 229.545 392.869C231.216 391.009 233.244 389.504 235.51 388.445C237.775 387.386 240.23 386.794 242.729 386.705C243.39 386.669 244.051 386.771 244.671 387.002C245.291 387.234 245.856 387.591 246.332 388.052C246.807 388.512 247.183 389.066 247.434 389.678C247.686 390.29 247.808 390.948 247.794 391.609C247.78 392.271 247.629 392.923 247.351 393.523C247.074 394.124 246.675 394.661 246.18 395.1C245.685 395.54 245.105 395.872 244.476 396.077C243.846 396.282 243.182 396.355 242.523 396.291C240.061 396.631 237.813 397.871 236.211 399.771C232.031 403.624 229.233 408.743 228.247 414.342C227.81 416.908 227.968 419.541 228.709 422.036C229.451 424.532 230.756 426.824 232.524 428.735C234.174 430.462 236.297 431.663 238.626 432.188C240.956 432.712 243.389 432.537 245.62 431.684C248.054 430.394 250.093 428.468 251.519 426.11C252.447 424.909 253.117 423.529 253.487 422.058C253.858 420.586 253.921 419.054 253.672 417.556C253.323 416.275 252.551 415.149 251.483 414.361C250.414 413.573 249.111 413.168 247.783 413.212C246.456 413.257 245.183 413.747 244.169 414.605C243.156 415.463 242.461 416.638 242.198 417.94C241.94 419.184 241.199 420.274 240.137 420.971C239.074 421.668 237.779 421.914 236.535 421.656C235.292 421.398 234.201 420.656 233.504 419.594C232.807 418.532 232.561 417.237 232.819 415.993C233.515 412.579 235.342 409.5 238.004 407.253C240.667 405.005 244.009 403.722 247.491 403.609C250.974 403.497 254.392 404.562 257.194 406.632C259.996 408.703 262.018 411.658 262.933 415.02C263.575 417.797 263.621 420.68 263.067 423.476C262.513 426.272 261.371 428.919 259.718 431.242C257.294 435.155 253.805 438.296 249.66 440.297C246.065 441.908 242.073 442.421 238.187 441.772Z" fill="#FFEEBF"/>
<path d="M235.888 521.378C234.821 521.224 233.773 520.957 232.762 520.581C228.683 519.148 225.251 516.302 223.087 512.559C220.923 508.815 220.17 504.421 220.964 500.171C223.147 490.231 230.52 484.686 240.254 485.719C246.368 486.337 252.067 489.099 256.342 493.514C260.616 497.929 263.192 503.714 263.613 509.845C263.665 510.506 263.58 511.171 263.363 511.797C263.145 512.424 262.801 512.998 262.351 513.485C261.9 513.972 261.354 514.361 260.747 514.626C260.139 514.892 259.484 515.029 258.821 515.029C258.157 515.029 257.502 514.892 256.894 514.626C256.287 514.361 255.741 513.972 255.291 513.485C254.84 512.998 254.496 512.424 254.278 511.797C254.061 511.171 253.976 510.506 254.028 509.845C254.028 502.471 246.064 495.924 239.28 495.098C234.502 494.596 231.494 496.927 230.432 502.059C230.115 504.028 230.511 506.045 231.55 507.749C232.588 509.452 234.199 510.729 236.095 511.349C236.727 511.628 237.409 511.771 238.1 511.772C238.79 511.772 239.473 511.629 240.105 511.352C240.737 511.075 241.305 510.669 241.772 510.161C242.24 509.653 242.596 509.053 242.82 508.4C243.082 507.803 243.463 507.265 243.939 506.82C244.416 506.375 244.978 506.031 245.591 505.81C246.205 505.589 246.857 505.495 247.508 505.534C248.159 505.572 248.795 505.743 249.378 506.036C249.96 506.328 250.478 506.736 250.898 507.235C251.318 507.733 251.633 508.312 251.822 508.936C252.011 509.56 252.072 510.216 252 510.864C251.928 511.512 251.724 512.139 251.403 512.706C250.156 515.676 247.952 518.144 245.14 519.715C242.328 521.287 239.071 521.872 235.888 521.378Z" fill="#FFEEBF"/>
<path d="M228.217 497.074C227.603 496.979 227.013 496.769 226.477 496.455C222.511 494.11 219.066 490.981 216.353 487.258C213.639 483.536 211.715 479.298 210.697 474.805C209.724 470.266 210.196 465.535 212.047 461.277C213.899 457.019 217.036 453.447 221.02 451.062C230.105 445.163 242.463 444.455 249.778 449.529C252.486 451.493 254.511 454.256 255.569 457.43C256.627 460.603 256.665 464.029 255.676 467.225C254.918 470.195 253.509 472.958 251.55 475.315C249.591 477.672 247.131 479.564 244.351 480.852C242.117 481.989 239.646 482.582 237.139 482.582C234.633 482.582 232.161 481.989 229.928 480.852C227.532 479.641 225.526 477.777 224.144 475.476C222.761 473.174 222.056 470.529 222.112 467.845C222.247 466.618 222.85 465.49 223.794 464.695C224.739 463.9 225.953 463.499 227.185 463.574C228.418 463.65 229.574 464.197 230.414 465.102C231.253 466.007 231.713 467.2 231.697 468.435C231.776 469.274 232.069 470.078 232.55 470.771C233.03 471.463 233.682 472.02 234.44 472.387C235.356 472.844 236.366 473.082 237.39 473.082C238.413 473.082 239.423 472.844 240.339 472.387C241.771 471.72 243.04 470.749 244.059 469.542C245.077 468.334 245.821 466.92 246.238 465.397C247.447 459.999 244.999 458.318 244.203 457.787C240.133 454.838 231.874 455.722 226.152 459.468C223.781 460.82 221.904 462.894 220.795 465.388C219.686 467.882 219.403 470.665 219.988 473.331C220.759 476.494 222.155 479.47 224.095 482.084C226.036 484.698 228.48 486.897 231.284 488.55C232.22 489.131 232.928 490.015 233.29 491.055C233.652 492.095 233.646 493.227 233.273 494.263C232.9 495.299 232.183 496.176 231.241 496.747C230.299 497.317 229.19 497.547 228.099 497.398L228.217 497.074Z" fill="#FFEEBF"/>
<path d="M187.812 490.024L101.953 477.135C101.303 477.073 100.673 476.879 100.101 476.565C99.5293 476.251 99.0271 475.824 98.6253 475.31C98.2235 474.796 97.9306 474.206 97.7643 473.575C97.598 472.944 97.5618 472.286 97.658 471.641C97.7542 470.995 97.9807 470.376 98.3238 469.821C98.6668 469.267 99.1193 468.787 99.6535 468.413C100.188 468.038 100.793 467.776 101.431 467.643C102.07 467.51 102.729 467.508 103.369 467.638L189.257 480.527C189.902 480.597 190.525 480.797 191.091 481.115C191.656 481.433 192.151 481.861 192.547 482.375C192.942 482.889 193.229 483.478 193.391 484.106C193.553 484.734 193.586 485.388 193.489 486.029C193.391 486.671 193.165 487.285 192.823 487.837C192.482 488.388 192.033 488.865 191.502 489.238C190.972 489.611 190.372 489.873 189.737 490.008C189.103 490.143 188.448 490.149 187.812 490.024Z" fill="#FFEEBF"/>
</g>
<defs>
<filter id="filter0_d_1276_115954" x="0" y="0" width="337.008" height="563.472" filterUnits="userSpaceOnUse" color-interpolation-filters="sRGB">
<feFlood flood-opacity="0" result="BackgroundImageFix"/>
<feColorMatrix in="SourceAlpha" type="matrix" values="0 0 0 0 0 0 0 0 0 0 0 0 0 0 0 0 0 0 127 0" result="hardAlpha"/>
<feOffset dy="4"/>
<feGaussianBlur stdDeviation="2"/>
<feComposite in2="hardAlpha" operator="out"/>
<feColorMatrix type="matrix" values="0 0 0 0 0 0 0 0 0 0 0 0 0 0 0 0 0 0 0.1 0"/>
<feBlend mode="normal" in2="BackgroundImageFix" result="effect1_dropShadow_1276_115954"/>
<feBlend mode="normal" in="SourceGraphic" in2="effect1_dropShadow_1276_115954" result="shape"/>
</filter>
</defs>
</svg>
