<svg width="251" height="564" viewBox="0 0 251 564" fill="none" xmlns="http://www.w3.org/2000/svg">
<g filter="url(#filter0_d_1276_116102)">
<path d="M131.625 313.557C135.569 312.983 139.336 311.543 142.657 309.34C147.599 305.831 151.411 300.957 153.627 295.316C155.843 289.674 156.366 283.508 155.133 277.574C154.181 273.416 152.578 269.434 150.384 265.776C146.982 259.519 142.012 254.255 135.961 250.498C131.366 247.916 126.284 246.321 121.038 245.813C115.792 245.305 110.498 245.896 105.493 247.548C95.8754 250.852 87.45 256.927 81.2781 265.009C73.757 274.448 70.7486 284.594 72.7542 293.531C72.8742 294.164 73.1203 294.766 73.4778 295.302C73.8354 295.839 74.2971 296.297 74.8354 296.652C75.3738 297.006 75.9778 297.248 76.6117 297.364C77.2456 297.48 77.8964 297.468 78.5253 297.327C79.1542 297.187 79.7485 296.921 80.2729 296.547C80.7972 296.172 81.2408 295.696 81.5774 295.146C81.914 294.597 82.1367 293.985 82.2322 293.348C82.3277 292.711 82.2942 292.061 82.1335 291.436C80.2753 283.266 85.5254 275.096 88.7993 270.967C93.7933 264.386 100.615 259.421 108.413 256.692C112.117 255.423 116.044 254.94 119.945 255.275C123.845 255.611 127.633 256.756 131.065 258.638C135.702 261.54 139.496 265.608 142.067 270.436C143.769 273.247 145.004 276.315 145.724 279.521C146.563 283.573 146.216 287.781 144.725 291.642C143.234 295.502 140.663 298.851 137.318 301.288C133.961 303.463 129.983 304.478 125.994 304.18C122.005 303.882 118.223 302.286 115.226 299.636C113.45 297.889 112.144 295.72 111.432 293.332C110.721 290.944 110.626 288.415 111.156 285.98C111.757 283.724 113.025 281.701 114.792 280.175C116.56 278.649 118.746 277.692 121.066 277.427C123.234 277.333 125.367 277.988 127.107 279.283C128.848 280.578 130.089 282.432 130.623 284.535C130.77 285.575 130.705 286.634 130.432 287.648C130.158 288.662 129.681 289.609 129.03 290.434C128.501 291.216 127.817 291.881 127.021 292.389C126.224 292.896 125.332 293.234 124.399 293.383C123.748 293.414 123.11 293.577 122.524 293.862C121.937 294.148 121.415 294.549 120.989 295.043C120.563 295.536 120.242 296.111 120.045 296.732C119.848 297.354 119.779 298.009 119.843 298.658C119.907 299.307 120.103 299.936 120.417 300.507C120.732 301.078 121.16 301.579 121.674 301.979C122.189 302.38 122.779 302.671 123.41 302.836C124.041 303.001 124.698 303.036 125.343 302.939C127.588 302.677 129.755 301.955 131.709 300.818C133.662 299.681 135.361 298.155 136.699 296.333C138.157 294.449 139.21 292.285 139.794 289.976C140.378 287.667 140.479 285.262 140.09 282.912C139.131 278.499 136.636 274.57 133.049 271.826C129.462 269.081 125.017 267.7 120.506 267.929C116.168 268.328 112.056 270.045 108.724 272.85C105.391 275.656 102.998 279.414 101.865 283.62C100.885 287.697 100.981 291.958 102.145 295.986C103.308 300.014 105.499 303.671 108.502 306.597C111.573 309.439 115.252 311.543 119.259 312.749C123.266 313.955 127.496 314.232 131.625 313.557Z" fill="#FFEEBF"/>
<path d="M104.225 468.375L136.846 463.479C138.15 463.264 139.316 462.543 140.091 461.474C140.463 460.933 140.72 460.321 140.847 459.677C140.974 459.033 140.967 458.369 140.828 457.728C140.828 457.728 138.173 444.927 136.758 430.445C135.884 421.856 132.625 413.683 127.349 406.85C131.307 399.354 132.267 390.634 130.033 382.457C127.408 373.992 120.654 366.914 109.947 361.428C101.961 357.086 94.7543 351.444 88.6224 344.734C88.208 344.257 87.7038 343.867 87.1385 343.586C86.5733 343.304 85.9582 343.137 85.3283 343.093C84.6983 343.049 84.0659 343.13 83.4672 343.33C82.8684 343.531 82.3151 343.848 81.8386 344.262C81.3622 344.676 80.9721 345.181 80.6906 345.746C80.409 346.311 80.2416 346.926 80.1977 347.556C80.1539 348.186 80.2346 348.818 80.4352 349.417C80.6357 350.016 80.9523 350.569 81.3667 351.046C88.312 358.671 96.4997 365.063 105.582 369.952C113.87 374.228 119.031 379.39 120.89 385.318C122.748 391.247 121.479 397.706 117.38 405.316C116.894 406.24 116.72 407.297 116.885 408.329C117.05 409.36 117.544 410.311 118.294 411.038C123.347 416.745 126.447 423.916 127.142 431.507C128.086 441.063 129.502 449.676 130.416 454.837L102.75 458.996C101.543 459.241 100.476 459.94 99.769 460.948C99.062 461.957 98.7691 463.198 98.9507 464.417C99.1323 465.635 99.7745 466.737 100.745 467.496C101.715 468.254 102.94 468.611 104.166 468.493L104.225 468.375Z" fill="#FFEEBF"/>
<path d="M108.769 501.026L161.034 493.21C162.289 493.006 163.414 492.317 164.165 491.29C164.916 490.263 165.232 488.982 165.045 487.724L157.2 435.43C157.2 432.48 156.492 416.376 146.788 407.646C149.59 397.382 155.961 366.678 136.14 354.909C106.646 337.36 89.3619 319.516 83.4334 300.285C83.0423 299.069 82.184 298.058 81.0473 297.474C79.9106 296.891 78.5887 296.783 77.3723 297.174C76.1559 297.565 75.1447 298.423 74.5612 299.56C73.9776 300.697 73.8695 302.019 74.2606 303.235C80.8969 324.825 99.5375 344.527 131.244 363.286C145.195 371.544 139.916 398.385 136.701 408.029C136.357 409.053 136.368 410.162 136.732 411.179C137.096 412.196 137.791 413.06 138.706 413.633C146.051 418.205 147.555 431.33 147.555 435.902C147.526 436.147 147.526 436.394 147.555 436.639L154.722 484.538L107.206 491.647C106.561 491.717 105.938 491.917 105.372 492.235C104.807 492.552 104.312 492.981 103.916 493.495C103.521 494.009 103.234 494.598 103.072 495.226C102.91 495.854 102.877 496.508 102.974 497.149C103.072 497.79 103.298 498.405 103.639 498.956C103.981 499.508 104.43 499.984 104.961 500.358C105.491 500.731 106.091 500.993 106.726 501.128C107.36 501.263 108.015 501.269 108.651 501.144L108.769 501.026Z" fill="#FFEEBF"/>
<path d="M213.797 507.131C215.005 506.911 216.082 506.237 216.809 505.248C217.536 504.258 217.857 503.029 217.706 501.81C217.555 500.592 216.944 499.478 215.998 498.696C215.052 497.914 213.842 497.523 212.617 497.604C201.911 498.637 172.416 498.548 164.364 485.806C157.293 474.619 148.906 464.321 139.382 455.132C138.919 454.706 138.377 454.375 137.786 454.159C137.196 453.942 136.568 453.844 135.94 453.87C135.311 453.896 134.694 454.046 134.123 454.31C133.552 454.575 133.039 454.949 132.613 455.412C132.187 455.875 131.856 456.417 131.64 457.008C131.423 457.599 131.325 458.226 131.351 458.855C131.377 459.483 131.527 460.101 131.791 460.671C132.056 461.242 132.43 461.755 132.893 462.181C141.759 470.848 149.597 480.508 156.253 490.968C161.798 499.816 173.33 505.066 190.467 506.895C198.132 507.678 205.854 507.747 213.532 507.101L213.797 507.131Z" fill="#FFEEBF"/>
<path d="M195.039 368.86C206.563 367.197 217.824 364.054 228.544 359.51C229.696 358.971 230.589 358.001 231.031 356.808C231.472 355.616 231.427 354.298 230.904 353.139C230.643 352.564 230.271 352.045 229.809 351.615C229.347 351.184 228.803 350.849 228.211 350.63C227.618 350.41 226.988 350.311 226.357 350.336C225.726 350.362 225.106 350.513 224.533 350.779C223.973 351.045 166.96 376.469 120.004 344.261C118.952 343.577 117.673 343.332 116.442 343.578C115.211 343.824 114.125 344.542 113.416 345.578C112.707 346.614 112.432 347.886 112.649 349.123C112.866 350.36 113.558 351.462 114.577 352.195C142.391 371.278 172.682 372.222 195.039 368.86Z" fill="#FFEEBF"/>
<path d="M68.8034 237.167C70.0421 236.984 71.1595 236.322 71.9152 235.324C72.6709 234.326 73.0044 233.071 72.8442 231.829C69.5113 205.107 82.135 190.212 91.6617 182.956C91.4251 184.984 91.4251 187.033 91.6617 189.062C91.6617 189.622 91.8387 190.153 91.9567 190.713C93.434 196.385 96.445 201.541 100.659 205.615C104.874 209.689 110.128 212.523 115.847 213.808C120.949 215.372 126.39 215.457 131.537 214.053C136.685 212.649 141.329 209.812 144.929 205.873C149.516 200.291 152.743 193.719 154.355 186.676C155.968 179.633 155.921 172.311 154.22 165.289C153.168 160.679 151.183 156.333 148.388 152.518C145.593 148.704 142.047 145.502 137.968 143.109C132.368 140.059 126.219 138.147 119.876 137.484C113.533 136.821 107.122 137.42 101.012 139.245C90.253 142.272 80.4651 148.042 72.6063 155.989C64.7475 163.935 59.0872 173.787 56.1797 184.578C55.9366 185.783 56.1639 187.035 56.8151 188.077C57.4663 189.119 58.4919 189.873 59.6812 190.182C60.8704 190.492 62.1331 190.334 63.2098 189.742C64.2865 189.149 65.0954 188.167 65.4705 186.997C68.0494 177.86 72.9285 169.538 79.6414 162.825C86.3544 156.112 94.6769 151.233 103.814 148.654C113.652 145.739 124.242 146.798 133.308 151.603C136.28 153.349 138.861 155.687 140.891 158.473C142.92 161.259 144.355 164.432 145.106 167.796C146.458 173.33 146.51 179.103 145.256 184.66C144.002 190.218 141.477 195.409 137.88 199.827C135.428 202.388 132.305 204.208 128.868 205.079C125.431 205.95 121.819 205.837 118.443 204.753C114.47 203.887 110.805 201.963 107.835 199.186C104.865 196.408 102.701 192.879 101.572 188.973C101.494 188.623 101.435 188.268 101.395 187.911C100.968 183.471 101.904 179.005 104.079 175.111C104.499 174.241 104.649 173.266 104.51 172.31C104.371 171.354 103.95 170.462 103.299 169.749C102.649 169.035 101.8 168.532 100.861 168.305C99.9224 168.078 98.9374 168.137 98.0326 168.474C90.5657 171.743 83.8571 176.523 78.3302 182.514C69.7767 191.716 60.25 207.968 63.4059 233.274C63.5678 234.537 64.2238 235.684 65.2301 236.463C66.2364 237.243 67.5109 237.591 68.7739 237.433L68.8034 237.167Z" fill="#FFEEBF"/>
<path d="M241.492 316.507H241.964C242.582 316.352 243.164 316.076 243.674 315.695C244.185 315.314 244.615 314.835 244.939 314.286C245.262 313.737 245.474 313.129 245.561 312.498C245.647 311.866 245.608 311.224 245.444 310.608C236.36 275.214 211.85 252.916 174.657 246.015C157.037 242.926 139.007 243.016 121.419 246.28C120.771 246.38 120.15 246.612 119.595 246.96C119.039 247.309 118.561 247.768 118.19 248.309C117.818 248.849 117.561 249.46 117.435 250.104C117.308 250.747 117.314 251.41 117.454 252.051C117.593 252.692 117.861 253.298 118.243 253.831C118.625 254.364 119.112 254.814 119.674 255.152C120.237 255.49 120.862 255.709 121.512 255.796C122.162 255.884 122.823 255.837 123.454 255.659C139.884 252.696 156.706 252.646 173.153 255.512C206.6 261.676 227.954 281.113 236.094 312.849C236.37 314.026 237.078 315.055 238.078 315.733C239.079 316.411 240.297 316.687 241.492 316.507Z" fill="#FFEEBF"/>
<path d="M190.556 347.743C191.552 347.577 192.537 347.35 193.505 347.064C203.681 344.115 208.96 334.706 211.202 329.367C215.486 318.763 216.422 307.102 213.886 295.95C211.429 285.153 206.748 274.987 200.141 266.102C194.655 258.462 186.072 248.08 174.776 246.134C173.548 245.979 172.307 246.304 171.312 247.042C170.318 247.779 169.646 248.871 169.437 250.092C169.228 251.312 169.498 252.566 170.19 253.592C170.882 254.619 171.944 255.338 173.154 255.601C179.053 256.604 185.276 261.884 192.325 271.706C198.164 279.515 202.313 288.455 204.507 297.956C206.611 307.173 205.86 316.812 202.353 325.592C201.384 328.358 199.827 330.881 197.791 332.989C195.755 335.096 193.286 336.739 190.556 337.803C188.593 338.338 186.538 338.441 184.532 338.105C182.525 337.769 180.616 337.002 178.935 335.856C176.933 334.583 175.312 332.793 174.242 330.675C173.173 328.557 172.695 326.19 172.859 323.823C173.14 321.734 174.116 319.8 175.63 318.334C177.145 316.868 179.109 315.954 181.206 315.741C182.204 315.788 183.182 316.043 184.076 316.49C184.97 316.937 185.76 317.566 186.397 318.337C186.955 318.937 187.375 319.652 187.63 320.431C187.885 321.21 187.967 322.035 187.872 322.849C187.694 324.086 188.006 325.344 188.74 326.355C189.474 327.366 190.573 328.052 191.804 328.267C193.036 328.481 194.302 328.208 195.335 327.505C196.368 326.803 197.087 325.725 197.339 324.501C197.678 322.294 197.525 320.04 196.893 317.899C196.261 315.758 195.165 313.782 193.682 312.113C192.134 310.278 190.207 308.8 188.032 307.782C185.858 306.763 183.489 306.229 181.088 306.214C176.686 306.477 172.513 308.263 169.284 311.266C166.056 314.269 163.972 318.301 163.391 322.672C163.004 326.819 163.759 330.992 165.573 334.74C167.387 338.489 170.192 341.669 173.685 343.938C178.647 347.242 184.655 348.597 190.556 347.743Z" fill="#FFEEBF"/>
<path d="M184.656 369.303C185.753 369.14 186.76 368.603 187.506 367.783C188.252 366.963 188.692 365.91 188.751 364.803C188.81 363.696 188.484 362.603 187.829 361.708C187.175 360.814 186.231 360.173 185.158 359.894C177.637 357.977 169.231 355.44 164.187 349.719C161.454 346.417 159.444 342.579 158.288 338.452C157.036 334.923 156.34 331.222 156.224 327.48C156.159 321.616 158.196 315.922 161.967 311.431C165.737 306.939 170.992 303.946 176.778 302.994C182.565 302.042 188.501 303.194 193.512 306.241C198.522 309.288 202.276 314.029 204.093 319.604C204.243 320.254 204.526 320.865 204.924 321.399C205.323 321.933 205.828 322.379 206.407 322.708C206.987 323.036 207.629 323.241 208.292 323.308C208.955 323.376 209.625 323.305 210.259 323.099C210.893 322.894 211.477 322.559 211.975 322.116C212.473 321.673 212.873 321.132 213.15 320.526C213.427 319.92 213.576 319.263 213.585 318.596C213.595 317.93 213.466 317.269 213.207 316.655C210.698 308.876 205.479 302.256 198.501 297.999C191.522 293.742 183.248 292.132 175.183 293.461C167.117 294.789 159.797 298.969 154.553 305.239C149.309 311.51 146.49 319.454 146.608 327.627C146.75 332.34 147.605 337.004 149.145 341.46C150.679 346.867 153.331 351.891 156.931 356.207C163.774 363.964 173.802 367.032 182.71 369.332C183.355 369.448 184.015 369.438 184.656 369.303Z" fill="#FFEEBF"/>
<path d="M161.945 252.444C166.552 251.78 170.95 250.088 174.815 247.494C178.679 244.901 181.912 241.472 184.273 237.461C186.776 233.005 188.049 227.963 187.961 222.852C187.872 217.742 186.427 212.747 183.771 208.38C181.988 205.458 179.437 203.081 176.398 201.507C172.868 200.032 169.025 199.465 165.219 199.856C162.485 199.882 159.766 200.279 157.138 201.035C153.456 202.202 150.22 204.47 147.867 207.533C145.515 210.597 144.158 214.308 143.982 218.166C143.805 222.025 144.816 225.845 146.878 229.11C148.941 232.376 151.956 234.931 155.516 236.429C158.087 237.61 160.961 237.971 163.745 237.461C170.204 236.163 173.448 230.058 175.218 226.784C175.816 225.658 175.943 224.34 175.569 223.12C175.196 221.9 174.354 220.879 173.227 220.281C172.101 219.682 170.783 219.556 169.563 219.929C168.343 220.302 167.322 221.145 166.724 222.271C165.809 224.012 163.774 227.639 161.827 228.17C160.957 228.272 160.076 228.119 159.291 227.728C157.555 226.982 156.088 225.725 155.085 224.124C154.082 222.523 153.591 220.654 153.677 218.766C153.764 216.879 154.424 215.063 155.569 213.56C156.714 212.057 158.29 210.94 160.087 210.356C161.887 209.878 163.74 209.63 165.603 209.618C167.842 209.359 170.111 209.611 172.239 210.356C173.674 211.155 174.866 212.327 175.69 213.748C177.43 216.623 178.369 219.911 178.41 223.272C178.452 226.632 177.594 229.943 175.926 232.86C174.144 235.814 171.685 238.302 168.751 240.118C165.817 241.933 162.494 243.024 159.055 243.301C157.784 243.403 156.605 244.005 155.778 244.976C154.951 245.947 154.544 247.206 154.645 248.477C154.747 249.749 155.35 250.927 156.32 251.754C157.291 252.581 158.551 252.989 159.822 252.887C160.53 252.71 161.238 252.562 161.945 252.444Z" fill="#FFEEBF"/>
<path d="M93.8724 151.661C94.281 151.602 94.6785 151.483 95.0522 151.308C98.7284 149.722 102.043 147.404 104.795 144.495C107.546 141.587 109.677 138.149 111.057 134.39C112.436 130.632 113.036 126.632 112.82 122.634C112.604 118.636 111.576 114.724 109.799 111.136C107.758 106.835 104.415 103.285 100.243 100.99C96.294 99.1472 91.9768 98.2293 87.6196 98.3057C83.7998 98.0723 79.9732 98.6347 76.3821 99.9574C73.1491 101.3 70.3678 103.54 68.3667 106.413C66.3655 109.285 65.228 112.67 65.0885 116.168C64.9489 119.666 65.8131 123.131 67.5791 126.154C69.3451 129.177 71.9391 131.631 75.0548 133.227C76.772 134.167 78.667 134.737 80.6178 134.899C82.5685 135.062 84.5318 134.814 86.3808 134.171C88.6163 133.358 90.513 131.816 91.765 129.794C93.0171 127.771 93.5517 125.386 93.2825 123.022C93.8781 122.158 94.1687 121.12 94.1084 120.073C94.0177 118.802 93.4262 117.619 92.464 116.784C91.5017 115.949 90.2473 115.53 88.9763 115.619C88.1806 115.672 87.4049 115.892 86.6989 116.262C85.9929 116.633 85.3721 117.147 84.8765 117.772C84.2194 118.764 83.7821 119.886 83.5939 121.061C83.4057 122.236 83.4709 123.438 83.7852 124.585C83.6123 124.915 83.3311 125.176 82.9889 125.323C82.3888 125.478 81.7637 125.51 81.1506 125.419C80.5376 125.328 79.9491 125.115 79.4201 124.792C77.9753 124 76.7805 122.82 75.9702 121.385C75.1599 119.95 74.7664 118.318 74.8338 116.671C74.9013 115.025 75.4271 113.43 76.352 112.067C77.2769 110.703 78.5642 109.625 80.0689 108.953C82.4306 108.158 84.9284 107.847 87.4131 108.039C90.2953 107.943 93.1639 108.477 95.8191 109.602C98.1758 110.974 100.059 113.032 101.217 115.501C102.413 117.913 103.104 120.543 103.249 123.231C103.394 125.92 102.989 128.609 102.058 131.135C101.128 133.661 99.6918 135.971 97.838 137.924C95.9842 139.876 93.7516 141.429 91.2769 142.489C90.2056 142.95 89.3387 143.785 88.8374 144.838C88.3362 145.891 88.235 147.091 88.5525 148.213C88.8701 149.335 89.5848 150.304 90.5635 150.938C91.5423 151.573 92.7183 151.83 93.8724 151.661Z" fill="#FFEEBF"/>
<path d="M74.3164 110.34C75.4664 110.166 76.5142 109.581 77.2657 108.693C78.0171 107.806 78.4213 106.676 78.4033 105.513C78.3853 104.35 77.9463 103.233 77.1677 102.369C76.3892 101.505 75.3238 100.952 74.169 100.814C72.7957 100.661 71.4681 100.229 70.2683 99.5435C69.0684 98.8582 68.0217 97.9343 67.1926 96.8289C66.3636 95.7235 65.7697 94.4599 65.4477 93.1161C65.1258 91.7724 65.0825 90.3769 65.3206 89.0158C65.5634 87.9081 65.8988 86.8228 66.3234 85.7714C67.2409 82.6949 69.2286 80.048 71.9274 78.3092C73.244 77.7334 74.6518 77.394 76.0861 77.3064C77.008 77.1222 77.9615 77.173 78.8586 77.4539C79.0815 77.6066 79.2665 77.8082 79.3995 78.0433C79.5324 78.2785 79.6097 78.541 79.6255 78.8107C79.6851 79.8459 79.4279 80.8747 78.8881 81.7601C78.5207 82.3101 78.2707 82.93 78.1538 83.581C78.0369 84.2321 78.0556 84.9003 78.2088 85.5438C78.3619 86.1873 78.6462 86.7922 79.0438 87.3208C79.4414 87.8494 79.9438 88.2902 80.5196 88.6158C81.0954 88.9413 81.7322 89.1445 82.3901 89.2127C83.0481 89.2809 83.713 89.2126 84.3433 89.0121C84.9736 88.8116 85.5558 88.4831 86.0534 88.0473C86.551 87.6115 86.9532 87.0777 87.2351 86.4793C88.8014 83.8098 89.4732 80.7093 89.1522 77.6309C88.9436 75.82 88.2977 74.0871 87.27 72.5815C86.2423 71.0759 84.8637 69.8429 83.2533 68.9889C80.6994 67.7852 77.8435 67.3743 75.0538 67.8091C72.478 67.9974 69.9586 68.6573 67.6212 69.7558C62.7434 72.5066 59.0793 76.992 57.357 82.3205C56.6929 83.9311 56.1795 85.5998 55.8233 87.3051C55.3368 89.9557 55.3967 92.6777 55.9994 95.3044C56.602 97.931 57.7348 100.407 59.3282 102.58C60.9216 104.754 62.9421 106.579 65.2658 107.943C67.5896 109.308 70.1675 110.184 72.8417 110.517C73.3385 110.517 73.8335 110.457 74.3164 110.34Z" fill="#FFEEBF"/>
<path d="M110.771 254.362C111.732 254.227 112.629 253.802 113.34 253.143C114.052 252.484 114.545 251.622 114.753 250.675C116.189 244.12 115.708 237.29 113.367 231.002C112.815 229.389 112.009 227.876 110.977 226.519C109.086 224.229 106.546 222.563 103.692 221.74C99.6431 220.304 95.2254 220.29 91.167 221.7C87.1085 223.11 83.6513 225.86 81.3649 229.498C79.8269 232.243 79.1743 235.397 79.4963 238.528C79.8184 241.658 81.0993 244.613 83.164 246.988C85.4607 249.453 88.599 250.966 91.9579 251.228C95.3169 251.491 98.6519 250.483 101.303 248.404C101.815 248.006 102.241 247.51 102.556 246.944C102.871 246.378 103.069 245.754 103.137 245.11C103.204 244.466 103.142 243.814 102.951 243.195C102.761 242.576 102.448 242.002 102.031 241.506C101.613 241.011 101.1 240.605 100.521 240.314C99.9429 240.022 99.3116 239.85 98.6652 239.808C98.0188 239.766 97.3706 239.856 96.7595 240.071C96.1485 240.286 95.5872 240.622 95.1094 241.06C94.3506 241.542 93.4485 241.746 92.556 241.639C91.6636 241.531 90.8358 241.118 90.2133 240.47C89.5249 239.585 89.1129 238.517 89.029 237.4C88.945 236.282 89.1929 235.165 89.7414 234.187C90.973 232.533 92.7099 231.324 94.6894 230.744C96.6689 230.164 98.7835 230.244 100.713 230.972C101.756 231.258 102.704 231.818 103.456 232.594C103.848 233.178 104.156 233.813 104.371 234.482C106.07 239.025 106.418 243.962 105.373 248.699C105.234 249.313 105.218 249.948 105.325 250.568C105.432 251.189 105.661 251.782 105.998 252.314C106.335 252.845 106.774 253.305 107.289 253.667C107.805 254.028 108.387 254.285 109.001 254.421C109.589 254.518 110.191 254.498 110.771 254.362Z" fill="#FFEEBF"/>
<path d="M182.532 416.317C186.396 415.769 190.021 414.121 192.973 411.568C196.346 408.431 198.76 404.402 199.934 399.947C200.866 397.225 201.206 394.336 200.931 391.472C200.656 388.609 199.773 385.837 198.341 383.342C196.469 380.413 193.667 378.199 190.386 377.052C187.105 375.906 183.534 375.895 180.246 377.021C176.957 378.146 174.142 380.343 172.252 383.26C170.361 386.176 169.505 389.643 169.82 393.104C169.878 393.734 170.059 394.346 170.354 394.905C170.648 395.464 171.05 395.96 171.536 396.364C172.022 396.768 172.583 397.072 173.187 397.259C173.791 397.446 174.426 397.513 175.055 397.455C175.684 397.397 176.296 397.215 176.855 396.921C177.415 396.626 177.91 396.224 178.314 395.738C178.718 395.252 179.023 394.691 179.21 394.087C179.397 393.484 179.463 392.849 179.405 392.22C179.28 390.9 179.603 389.577 180.322 388.464C181.041 387.35 182.113 386.511 183.367 386.082C184.621 385.653 185.983 385.658 187.233 386.097C188.484 386.537 189.55 387.384 190.259 388.503C190.939 389.868 191.329 391.358 191.405 392.881C191.481 394.404 191.242 395.926 190.702 397.352C190.008 400.042 188.59 402.49 186.602 404.43C184.736 405.906 182.479 406.801 180.109 407.006C177.739 407.21 175.361 406.715 173.271 405.581C171.024 404.266 169.107 402.457 167.666 400.289C166.225 398.122 165.297 395.655 164.953 393.075C164.283 387.427 165.462 381.714 168.315 376.794C169.281 374.506 171.07 372.664 173.33 371.632C174.546 371.282 175.575 370.466 176.193 369.362C176.812 368.257 176.97 366.954 176.633 365.733C176.466 365.127 176.181 364.559 175.793 364.064C175.405 363.569 174.923 363.156 174.374 362.848C173.825 362.541 173.221 362.346 172.596 362.274C171.971 362.202 171.338 362.255 170.734 362.43C168.37 363.247 166.196 364.533 164.341 366.21C162.486 367.888 160.989 369.923 159.939 372.193C156.05 378.958 154.486 386.811 155.485 394.55C156.048 398.613 157.544 402.491 159.857 405.878C162.17 409.266 165.237 412.072 168.817 414.075C173.036 416.256 177.838 417.041 182.532 416.317Z" fill="#FFEEBF"/>
<path d="M203.652 493.091C206.793 492.618 209.689 491.121 211.891 488.833C214.094 486.545 215.48 483.594 215.834 480.438C215.982 479.798 215.997 479.135 215.878 478.488C215.759 477.842 215.51 477.227 215.144 476.681C214.778 476.135 214.305 475.67 213.753 475.314C213.2 474.959 212.581 474.72 211.933 474.613C211.284 474.506 210.621 474.533 209.984 474.692C209.346 474.851 208.748 475.14 208.227 475.539C207.705 475.939 207.271 476.441 206.951 477.014C206.631 477.588 206.432 478.221 206.366 478.875C206.346 479.563 206.183 480.24 205.887 480.862C205.592 481.484 205.169 482.038 204.647 482.487C204.126 482.937 203.516 483.273 202.857 483.474C202.198 483.674 201.505 483.735 200.821 483.653C198.826 483.616 196.909 482.867 195.417 481.543C193.925 480.218 192.954 478.404 192.68 476.427C192.238 471.206 194.421 468.08 199.14 467.166C205.865 465.838 215.362 469.791 217.574 476.81C217.768 477.411 218.078 477.967 218.486 478.448C218.895 478.928 219.394 479.324 219.956 479.611C220.517 479.899 221.13 480.073 221.759 480.124C222.387 480.175 223.02 480.101 223.62 479.907C224.221 479.714 224.777 479.404 225.258 478.995C225.738 478.586 226.133 478.087 226.421 477.526C226.709 476.964 226.883 476.352 226.934 475.723C226.984 475.094 226.911 474.461 226.717 473.861C224.506 468.111 220.332 463.329 214.934 460.361C209.536 457.392 203.263 456.428 197.223 457.639C187.607 459.527 182.18 466.989 183.036 477.135C183.532 481.435 185.55 485.416 188.725 488.359C191.901 491.301 196.023 493.011 200.349 493.18C201.451 493.246 202.556 493.217 203.652 493.091Z" fill="#FFEEBF"/>
<path d="M189.226 472.091C190.32 471.92 191.321 471.376 192.061 470.552C192.8 469.727 193.232 468.673 193.284 467.567C193.336 466.461 193.005 465.371 192.346 464.481C191.687 463.591 190.741 462.955 189.668 462.682C186.498 461.929 183.512 460.546 180.888 458.615C178.263 456.685 176.053 454.246 174.39 451.445C173.056 449.064 172.514 446.32 172.843 443.61C173.171 440.901 174.354 438.366 176.219 436.373C180.584 431.123 188.252 427.967 192.972 429.471C193.915 429.766 196.747 430.651 197.16 436.167C197.197 437.753 196.889 439.329 196.257 440.786C195.626 442.242 194.686 443.544 193.502 444.602C192.778 445.319 191.899 445.859 190.932 446.182C189.965 446.504 188.937 446.599 187.928 446.46C187.092 446.341 186.302 446.006 185.635 445.489C184.968 444.972 184.447 444.29 184.123 443.511C184.011 442.861 183.767 442.242 183.405 441.691C183.044 441.14 182.573 440.67 182.022 440.308C181.471 439.947 180.852 439.703 180.202 439.591C179.553 439.479 178.888 439.502 178.247 439.658C177.607 439.814 177.006 440.1 176.481 440.498C175.956 440.896 175.518 441.398 175.195 441.972C174.872 442.546 174.671 443.181 174.603 443.836C174.536 444.491 174.604 445.154 174.803 445.782C175.537 448.358 176.984 450.675 178.977 452.465C180.971 454.255 183.429 455.445 186.07 455.898C188.535 456.352 191.073 456.217 193.477 455.505C195.881 454.792 198.082 453.523 199.903 451.799C202.188 449.75 203.988 447.218 205.172 444.386C206.356 441.555 206.893 438.495 206.746 435.429C206.724 432.098 205.669 428.855 203.724 426.15C201.78 423.444 199.043 421.41 195.892 420.328C187.397 417.644 175.776 421.921 168.845 430.268C165.726 433.708 163.764 438.04 163.235 442.653C162.706 447.266 163.637 451.93 165.895 455.987C168.189 459.98 171.274 463.463 174.961 466.222C178.649 468.981 182.86 470.958 187.338 472.032C187.958 472.173 188.599 472.193 189.226 472.091Z" fill="#FFEEBF"/>
<path d="M12.5556 555.413L215.626 524.945C216.885 524.756 218.017 524.075 218.774 523.052C219.532 522.029 219.853 520.748 219.667 519.489L217.455 504.741C222.882 500.671 232.468 489.699 227.483 465.041C221.584 436.196 216.393 391.157 216.334 390.715V390.155C216.098 389.24 211.29 367.473 228.132 359.421C236.125 355.557 242.112 347.181 245.032 335.825C250.135 316.005 246.448 282.057 220.906 246.28C189.612 202.48 66.6488 41.4691 40.2216 6.90137L39.8087 4.09934C39.6562 3.04435 39.1553 2.07068 38.3857 1.33314C37.6161 0.595601 36.622 0.136588 35.5615 0.0291121C34.7795 -0.0587024 33.9881 0.0529152 33.2609 0.353555C32.4772 0.296894 31.6908 0.417865 30.9603 0.707476C29.9667 1.11131 29.1365 1.83589 28.6021 2.76584C28.0676 3.69578 27.8596 4.77774 28.0109 5.8396L28.4238 8.78907C13.3225 49.5801 -56.9632 239.555 -74.0406 290.61C-87.962 332.316 -81.5027 365.851 -70.8257 383.341C-64.6908 393.34 -56.4913 399.593 -47.7314 401.038C-29.3268 403.84 -27.557 426.079 -27.4685 427.023C-27.483 427.2 -27.483 427.377 -27.4685 427.554C-27.4685 427.996 -19.21 472.622 -16.3195 501.88C-13.842 526.921 -1.5723 534.59 4.91652 536.89L7.09909 551.638C7.3493 552.848 8.05569 553.915 9.07167 554.618C10.0876 555.321 11.3352 555.605 12.5556 555.413ZM209.55 516.215L15.977 545.267L14.0303 532.26C13.873 531.207 13.3707 530.236 12.602 529.499C11.8333 528.763 10.8418 528.302 9.78311 528.189C9.28171 528.189 -4.1973 525.948 -6.67485 500.818C-9.6243 472.268 -17.2339 429.559 -17.8828 425.932C-18.4354 420.664 -19.8192 415.517 -21.9826 410.683C-24.0102 405.64 -27.3188 401.213 -31.5811 397.841C-35.8434 394.468 -40.9121 392.266 -46.2861 391.452C-52.185 390.538 -58.084 385.878 -62.5966 378.327C-72.1529 362.695 -77.7864 332.257 -64.8972 293.678C-48.4687 244.54 17.4812 66.0381 35.6794 16.9295C67.4746 58.5464 182.917 209.824 213.031 251.972C236.626 285.065 240.225 315.828 235.683 333.554C233.47 342.167 229.282 348.302 223.885 350.897C218.968 353.24 214.749 356.827 211.645 361.301C208.541 365.776 206.66 370.985 206.188 376.41C205.546 381.677 205.735 387.011 206.748 392.219C207.191 395.847 212.323 438.968 218.015 467.077C223 491.852 210.76 497.869 210.229 498.134C209.266 498.549 208.47 499.273 207.968 500.193C207.465 501.112 207.285 502.174 207.456 503.207L209.55 516.215Z" fill="#FFEEBF"/>
<path d="M31.2865 328.452C35.4302 327.889 39.3899 326.384 42.8615 324.053C46.3332 321.721 49.2244 318.625 51.3133 315.002C53.3318 311.325 54.3579 307.186 54.2907 302.992C54.2235 298.797 53.0652 294.693 50.9299 291.082C48.616 287.393 45.2265 284.501 41.2184 282.798C37.2102 281.094 32.7762 280.661 28.514 281.556C24.1358 282.665 20.2941 285.293 17.6741 288.972C15.054 292.651 13.826 297.141 14.209 301.641C14.5255 303.996 15.3257 306.259 16.5591 308.29C17.7925 310.32 19.4327 312.073 21.3763 313.439C23.1906 314.788 25.2646 315.747 27.4678 316.254C29.6709 316.762 31.9553 316.808 34.177 316.389C34.8223 316.292 35.4411 316.065 35.9958 315.721C36.5505 315.378 37.0295 314.925 37.4036 314.39C37.7776 313.856 38.039 313.251 38.1716 312.612C38.3043 311.973 38.3055 311.314 38.1752 310.674C38.045 310.035 37.7859 309.429 37.4138 308.893C37.0418 308.357 36.5645 307.902 36.0111 307.556C35.4577 307.211 34.8396 306.981 34.1947 306.882C33.5498 306.783 32.8915 306.816 32.2598 306.98C31.3385 307.123 30.3974 307.077 29.4946 306.844C28.5918 306.61 27.7462 306.195 27.0097 305.623C26.1408 305.025 25.4026 304.256 24.8398 303.364C24.277 302.471 23.9014 301.474 23.7358 300.432C23.6265 298.267 24.2683 296.13 25.5528 294.383C26.8373 292.637 28.6856 291.387 30.7851 290.846C33.0819 290.413 35.4561 290.682 37.5976 291.618C39.7392 292.555 41.5485 294.116 42.7893 296.096C44.0088 298.272 44.6491 300.725 44.6491 303.219C44.6491 305.714 44.0088 308.166 42.7893 310.342C40.7009 313.757 37.5529 316.396 33.8252 317.855C30.0975 319.314 25.9949 319.514 22.1431 318.424C18.2281 317.065 14.7853 314.612 12.2235 311.355C9.66166 308.098 8.08844 304.174 7.69075 300.049C7.46137 296.77 7.75005 293.475 8.54612 290.286C9.60664 284.922 12.0348 279.924 15.5953 275.775C18.3238 272.975 21.6054 270.774 25.231 269.311C28.8566 267.849 32.747 267.157 36.6545 267.28C44.9241 267.597 52.9165 270.347 59.6308 275.185C63.9665 278.134 71.4286 284.446 72.0185 292.881C72.135 294.138 72.741 295.299 73.7056 296.112C74.6702 296.926 75.9161 297.328 77.1744 297.231C78.4327 297.135 79.6025 296.547 80.4313 295.595C81.2601 294.643 81.6814 293.404 81.6043 292.144C80.8669 283.001 75.027 274.211 65.0578 267.369C56.7989 261.441 46.963 258.104 36.8019 257.783C31.5372 257.638 26.3005 258.597 21.429 260.599C16.5574 262.6 12.1589 265.6 8.51659 269.404C3.80907 274.763 0.585762 281.26 -0.833153 288.251C-1.85266 292.416 -2.20116 296.717 -1.86549 300.992C-1.31226 307.035 0.995453 312.784 4.77378 317.532C8.5521 322.279 13.6361 325.819 19.4001 327.715C23.2604 328.828 27.3182 329.08 31.2865 328.452Z" fill="#FFEEBF"/>
<path d="M70.3051 473.448L102.926 468.552C103.576 468.489 104.206 468.295 104.778 467.982C105.35 467.668 105.852 467.241 106.254 466.727C106.655 466.213 106.948 465.623 107.115 464.992C107.281 464.361 107.317 463.703 107.221 463.057C107.125 462.412 106.898 461.793 106.555 461.238C106.212 460.683 105.76 460.204 105.225 459.829C104.691 459.455 104.086 459.193 103.448 459.06C102.809 458.927 102.15 458.925 101.51 459.055L73.8445 463.213C73.2251 457.993 72.0453 449.351 70.1281 439.942C68.5258 432.473 69.4061 424.685 72.6352 417.762C73.1416 416.849 73.335 415.795 73.1858 414.762C73.0367 413.729 72.5532 412.773 71.8093 412.04C65.6744 405.935 62.5775 399.859 62.607 393.93C62.6365 388.002 66.0579 381.277 72.7531 374.759C80.0407 367.43 86.0254 358.911 90.4499 349.57C90.9662 348.397 90.9952 347.067 90.5306 345.872C90.066 344.677 89.1457 343.716 87.9724 343.2C86.799 342.683 85.4686 342.654 84.2738 343.119C83.0791 343.584 82.1178 344.504 81.6015 345.677C77.6922 353.879 72.4609 361.382 66.1168 367.887C57.5044 376.263 53.1097 385.023 53.0802 393.901C53.3632 402.372 56.8404 410.422 62.8135 416.435C59.7622 424.551 59.057 433.361 60.7783 441.859C63.7278 456.135 64.8781 469.024 64.8781 469.142C64.9369 469.793 65.1297 470.426 65.4443 470.999C65.759 471.573 66.1888 472.075 66.7068 472.475C67.2082 472.874 67.7861 473.167 68.405 473.334C69.024 473.502 69.6706 473.54 70.3051 473.448Z" fill="#FFEEBF"/>
<path d="M55.9429 508.96L108.207 501.115C108.857 501.052 109.487 500.858 110.059 500.545C110.631 500.231 111.133 499.804 111.535 499.29C111.937 498.776 112.23 498.185 112.396 497.555C112.562 496.924 112.598 496.266 112.502 495.62C112.406 494.975 112.179 494.356 111.836 493.801C111.493 493.246 111.041 492.767 110.507 492.392C109.972 492.018 109.367 491.756 108.729 491.623C108.09 491.49 107.431 491.488 106.792 491.617L59.1283 498.755L51.9316 450.856C51.9007 450.614 51.8413 450.376 51.7547 450.148C50.3979 445.694 48.0678 432.776 53.7308 426.257C54.4293 425.447 54.8375 424.427 54.8909 423.358C54.9444 422.29 54.6399 421.234 54.0258 420.358C48.1268 412.1 35.2081 387.914 46.0917 375.969C70.8671 348.686 82.9305 324.442 82.96 301.849C82.9754 301.603 82.9754 301.357 82.96 301.112L38.718 6.46024C38.6555 5.81081 38.4616 5.18086 38.1479 4.60881C37.8342 4.03676 37.4072 3.53461 36.8932 3.13282C36.3792 2.73103 35.7888 2.43808 35.1579 2.27178C34.527 2.10548 33.869 2.06928 33.2237 2.16548C32.5784 2.26167 31.9594 2.48822 31.4045 2.83128C30.8495 3.17435 30.3702 3.62677 29.9957 4.16101C29.6212 4.69525 29.3595 5.30013 29.2262 5.9388C29.093 6.57748 29.0911 7.23651 29.2207 7.87592L73.4627 302.173C73.3152 322.2 62.0778 344.233 39.1014 369.51C23.6168 386.587 38.7181 414.076 44.4105 423.042C37.6858 434.25 41.815 449.941 42.6113 452.537L50.4569 504.831C50.5399 505.465 50.7486 506.076 51.0707 506.628C51.3928 507.181 51.8218 507.663 52.3326 508.048C52.8435 508.432 53.4259 508.711 54.0458 508.868C54.6657 509.024 55.3107 509.056 55.9429 508.96Z" fill="#FFEEBF"/>
<path d="M9.57699 537.718H9.84243C17.3609 536.061 24.7149 533.731 31.8159 530.757C47.684 524.003 57.1223 515.479 59.8653 505.48C63.1805 493.519 67.8824 481.987 73.8753 471.119C74.4241 470.026 74.5359 468.765 74.188 467.593C73.8401 466.421 73.0585 465.425 72.0024 464.809C70.9464 464.192 69.695 464.002 68.5032 464.275C67.3115 464.549 66.2687 465.266 65.5873 466.282C59.2221 477.868 54.2709 490.177 50.84 502.943C46.8582 517.425 18.6908 526.185 8.16122 528.309C6.93729 528.561 5.8597 529.28 5.15675 530.313C4.45381 531.346 4.18077 532.613 4.39554 533.844C4.61031 535.075 5.29591 536.174 6.30718 536.908C7.31844 537.642 8.57587 537.954 9.81291 537.777L9.57699 537.718Z" fill="#FFEEBF"/>
<path d="M-13.0753 400.095C9.31113 396.733 37.98 386.94 58.9506 360.513C59.5763 359.507 59.8085 358.306 59.6026 357.139C59.3968 355.972 58.7674 354.922 57.8351 354.191C56.9029 353.46 55.7335 353.099 54.5514 353.177C53.3692 353.255 52.2575 353.767 51.4295 354.614C16.0359 399.181 -45.9028 391.571 -46.5812 391.512C-47.8406 391.344 -49.1152 391.683 -50.1247 392.455C-51.1341 393.226 -51.7958 394.367 -51.964 395.627C-52.1321 396.886 -51.7931 398.161 -51.0215 399.17C-50.2498 400.18 -49.1088 400.841 -47.8494 401.009C-36.2674 402.213 -24.5781 401.906 -13.0753 400.095Z" fill="#FFEEBF"/>
<path d="M68.9779 237.137C69.5996 237.026 70.1935 236.794 70.7256 236.455C71.2577 236.115 71.7176 235.673 72.0792 235.156C72.4407 234.638 72.6967 234.054 72.8326 233.438C72.9685 232.821 72.9816 232.184 72.8712 231.562C68.4765 206.462 54.5845 193.72 43.7305 187.32C36.6879 183.205 28.8607 180.613 20.7542 179.71C19.7938 179.637 18.8339 179.857 18.0015 180.342C17.1692 180.826 16.504 181.552 16.094 182.424C15.6746 183.298 15.5289 184.278 15.6763 185.236C15.8237 186.194 16.2572 187.085 16.9199 187.792C20.1459 190.887 22.357 194.887 23.2612 199.265C23.2612 199.619 23.2613 199.973 23.4087 200.357C24.0576 207.671 19.427 215.723 11.8763 220.354C8.97527 222.388 5.55733 223.559 2.0183 223.732C-1.52074 223.904 -5.03613 223.07 -8.12103 221.327C-12.8617 218.174 -16.8035 213.961 -19.6344 209.021C-22.4653 204.081 -24.1076 198.549 -24.4315 192.865C-24.7102 189.423 -24.2722 185.961 -23.1452 182.696C-22.0182 179.432 -20.2267 176.437 -17.8837 173.9C-10.5858 166.657 -0.735832 162.569 9.54623 162.515C19.0452 162.315 28.4363 164.559 36.8187 169.031C45.2011 173.504 52.2936 180.056 57.416 188.057C58.0861 189.139 59.1578 189.912 60.3963 190.205C61.6348 190.498 62.9389 190.288 64.0228 189.621C64.5616 189.292 65.0297 188.859 65.4003 188.348C65.7709 187.837 66.0365 187.257 66.1819 186.643C66.3273 186.029 66.3494 185.392 66.2472 184.769C66.1449 184.146 65.9202 183.549 65.586 183.014C59.616 173.531 51.2786 165.767 41.3952 160.486C31.5117 155.206 20.4231 152.591 9.22174 152.9C2.84453 152.948 -3.46035 154.255 -9.33149 156.745C-15.2026 159.236 -20.5245 162.86 -24.992 167.411C-28.18 170.904 -30.6243 175.009 -32.1759 179.476C-33.7275 183.943 -34.3539 188.679 -34.0173 193.396C-33.5966 200.612 -31.4979 207.63 -27.8881 213.892C-24.2783 220.154 -19.257 225.487 -13.2236 229.468C-8.63087 232.181 -3.36147 233.533 1.97031 233.366C7.3021 233.199 12.4765 231.52 16.8904 228.524C21.9842 225.63 26.1804 221.386 29.0167 216.26C31.8529 211.134 33.2192 205.325 32.965 199.472C32.965 198.882 32.965 198.351 32.7585 197.791C32.4279 195.766 31.8637 193.786 31.0773 191.892C42.3147 196.021 58.7728 206.639 63.5214 233.184C63.7315 234.427 64.421 235.537 65.4415 236.276C66.462 237.015 67.7319 237.324 68.9779 237.137Z" fill="#FFEEBF"/>
<path d="M-74.5134 364.437C-73.3417 364.25 -72.2795 363.638 -71.5291 362.719C-70.7786 361.8 -70.3921 360.637 -70.4431 359.452C-71.9768 326.506 -57.023 301.613 -25.9947 285.45C-10.8996 277.794 5.40513 272.805 22.1996 270.703C22.8533 270.677 23.4949 270.519 24.0852 270.237C24.6755 269.955 25.202 269.555 25.6326 269.062C26.0631 268.57 26.3885 267.995 26.589 267.372C26.7895 266.749 26.8608 266.092 26.7985 265.441C26.7362 264.789 26.5415 264.158 26.2266 263.584C25.9117 263.011 25.483 262.508 24.9669 262.106C24.4508 261.704 23.8581 261.411 23.225 261.246C22.592 261.081 21.9319 261.047 21.2852 261.146C3.24877 263.332 -14.2627 268.673 -30.4484 276.926C-64.5737 294.623 -81.7395 323.41 -80.0288 359.894C-80.0024 360.525 -79.8514 361.144 -79.5846 361.715C-79.3177 362.287 -78.9403 362.8 -78.4742 363.225C-78.008 363.65 -77.4624 363.978 -76.8687 364.191C-76.2749 364.404 -75.6448 364.498 -75.0148 364.466L-74.5134 364.437Z" fill="#FFEEBF"/>
<path d="M-14.9916 378.446C-9.20205 377.495 -3.95843 374.464 -0.244287 369.922C2.42412 366.724 4.16942 362.859 4.8035 358.743C5.43758 354.627 4.93642 350.415 3.35406 346.563C1.50261 342.548 -1.68737 339.302 -5.66931 337.381C-9.65125 335.46 -14.1773 334.983 -18.4719 336.033C-20.7664 336.763 -22.8751 337.982 -24.6523 339.607C-26.4296 341.231 -27.8329 343.222 -28.7655 345.442C-29.6901 347.474 -30.1561 349.685 -30.1306 351.917C-30.1052 354.15 -29.5888 356.35 -28.6181 358.36C-27.9915 359.401 -26.9944 360.165 -25.8273 360.5C-24.6602 360.835 -23.4095 360.717 -22.3265 360.168C-21.2434 359.619 -20.4082 358.68 -19.9886 357.541C-19.5691 356.401 -19.5963 355.145 -20.0647 354.025C-20.398 353.272 -20.5701 352.459 -20.5701 351.636C-20.5701 350.813 -20.398 349.999 -20.0647 349.247C-19.6941 348.321 -19.1282 347.486 -18.4053 346.798C-17.6825 346.111 -16.8199 345.588 -15.8764 345.265C-13.8082 344.848 -11.6598 345.142 -9.78027 346.101C-7.90074 347.059 -6.40068 348.625 -5.52385 350.544C-4.67787 352.757 -4.44229 355.157 -4.84184 357.492C-5.24139 359.827 -6.26134 362.011 -7.79491 363.817C-9.0766 365.399 -10.6819 366.689 -12.5031 367.599C-14.3243 368.51 -16.3192 369.02 -18.3539 369.096C-21.2607 368.859 -24.0823 367.998 -26.627 366.573C-29.1716 365.148 -31.3797 363.192 -33.1013 360.838C-39.0311 353.466 -42.5799 344.465 -43.2769 335.03C-43.9378 325.314 -42.5925 315.565 -39.3247 306.391L-38.9117 305.093C-36.2867 297.248 -33.5732 289.166 -27.4088 286.04C-26.2706 285.465 -25.4075 284.461 -25.0092 283.25C-24.611 282.038 -24.7102 280.718 -25.2852 279.58C-25.8601 278.442 -26.8637 277.579 -28.0751 277.181C-29.2864 276.782 -30.6064 276.882 -31.7445 277.457C-41.4188 282.382 -44.9287 292.823 -47.9961 302.055L-48.4385 303.323C-52.1057 313.724 -53.6014 324.766 -52.8332 335.768C-51.9617 347.166 -47.641 358.03 -40.4455 366.914C-36.7292 371.309 -28.9426 378.712 -18.3245 378.564C-17.2122 378.613 -16.0977 378.573 -14.9916 378.446Z" fill="#FFEEBF"/>
<path d="M-3.01962 397.47C-2.38556 397.364 -1.7759 397.145 -1.2204 396.821C6.59567 392.013 15.2966 386.115 19.4258 376.706C21.5768 371.542 22.6313 365.988 22.5227 360.395C22.71 355.689 22.1628 350.982 20.9006 346.444C18.6017 338.613 13.5724 331.865 6.72491 327.425C-0.122627 322.984 -8.33495 321.144 -16.4225 322.24C-24.5101 323.335 -31.9374 327.292 -37.3573 333.394C-42.7771 339.496 -45.8305 347.339 -45.9638 355.499C-46.0263 356.158 -45.952 356.823 -45.7455 357.452C-45.539 358.082 -45.2048 358.661 -44.7638 359.155C-44.3228 359.649 -43.7845 360.047 -43.1827 360.323C-42.5808 360.599 -41.9285 360.748 -41.2664 360.76C-40.6044 360.772 -39.9469 360.648 -39.3353 360.394C-38.7237 360.14 -38.1711 359.763 -37.7122 359.285C-37.2532 358.808 -36.8978 358.241 -36.6682 357.62C-36.4387 356.999 -36.3399 356.337 -36.378 355.676C-36.2792 349.811 -34.0826 344.175 -30.1863 339.79C-26.29 335.405 -20.9519 332.56 -15.139 331.772C-9.32613 330.984 -3.42319 332.304 1.50007 335.494C6.42334 338.683 10.0413 343.531 11.6983 349.158C12.6683 352.771 13.0859 356.51 12.937 360.248C13.0503 364.519 12.2771 368.767 10.6659 372.724C7.51 379.685 0.224833 384.522 -6.38196 388.622C-7.32236 389.202 -8.03389 390.089 -8.39676 391.133C-8.75963 392.178 -8.75171 393.315 -8.37426 394.354C-7.9968 395.392 -7.27288 396.27 -6.32445 396.837C-5.37601 397.405 -4.26097 397.628 -3.16706 397.47H-3.01962Z" fill="#FFEEBF"/>
<path d="M19.9011 162.752C21.0507 162.571 22.0959 161.98 22.8427 161.087C23.5895 160.195 23.9872 159.062 23.962 157.898C23.9367 156.735 23.4904 155.62 22.7056 154.761C21.9208 153.901 20.851 153.356 19.6946 153.225C17.014 152.937 14.4208 152.103 12.0745 150.776C9.72809 149.448 7.67816 147.654 6.05087 145.505C4.42358 143.355 3.25335 140.896 2.61211 138.277C1.97087 135.659 1.87217 132.936 2.32219 130.278C2.68111 127.554 3.87656 125.009 5.74358 122.993C7.94084 121.132 10.5176 119.774 13.2942 119.011C15.6263 118.115 18.1113 117.684 20.6089 117.743C22.2434 117.946 23.789 118.601 25.0714 119.634C26.3539 120.668 27.3224 122.039 27.8681 123.593C28.4137 125.147 28.5147 126.823 28.1598 128.431C27.8048 130.039 27.008 131.517 25.8589 132.697C25.0247 133.624 23.8593 134.185 22.6145 134.26C22.2237 134.221 21.8639 134.03 21.6117 133.729C21.5881 132.555 21.3125 131.4 20.8037 130.341C20.2948 129.283 19.5645 128.346 18.6622 127.594C18.0017 127.153 17.2589 126.85 16.4784 126.703C15.6979 126.556 14.8957 126.568 14.12 126.739C13.2358 126.937 12.4261 127.382 11.7853 128.023C11.1446 128.664 10.6994 129.474 10.5015 130.358C10.3036 131.242 10.3613 132.165 10.6678 133.018C10.9743 133.87 11.5169 134.618 12.2324 135.174C12.6651 137.515 13.8714 139.642 15.6579 141.214C17.4443 142.787 19.7073 143.714 22.0836 143.846C24.0374 143.9 25.9809 143.545 27.7892 142.803C29.5975 142.062 31.2307 140.95 32.5837 139.54C35.0917 137.101 36.8503 133.996 37.6521 130.592C38.454 127.187 38.2657 123.623 37.1094 120.322C35.9532 117.021 33.8771 114.119 31.1261 111.958C28.375 109.798 25.0636 108.469 21.5822 108.128C17.7583 107.914 13.9318 108.497 10.3447 109.838C6.14482 111.033 2.27843 113.183 -0.951675 116.121C-4.2762 119.53 -6.42558 123.911 -7.08661 128.627C-7.73565 132.573 -7.57505 136.611 -6.61468 140.494C-5.65432 144.377 -3.91424 148.024 -1.5002 151.213C0.913849 154.403 3.95138 157.067 7.42767 159.046C10.904 161.025 14.7463 162.275 18.7212 162.722C19.1125 162.772 19.5078 162.781 19.9011 162.752Z" fill="#FFEEBF"/>
<path d="M26.477 117.507C26.9037 117.444 27.3202 117.325 27.7158 117.153C30.1814 116.06 32.3965 114.473 34.224 112.49C36.0514 110.507 37.4523 108.17 38.3399 105.623C39.2274 103.077 39.5827 100.375 39.3838 97.6859C39.1849 94.9964 38.436 92.3765 37.1835 89.9882C36.3382 88.4539 35.3507 87.0023 34.2341 85.6525C32.0702 82.1505 28.8519 79.4246 25.0416 77.8665C21.2312 76.3085 17.025 75.9985 13.0274 76.9811C10.2378 77.4028 7.63304 78.6333 5.53576 80.5204C4.28547 81.8331 3.3659 83.4247 2.85299 85.1634C2.34009 86.9022 2.24862 88.738 2.58629 90.5191C3.18006 93.5971 4.75264 96.4007 7.06953 98.5121C7.9965 99.3883 9.23351 99.8603 10.5085 99.8243C11.7834 99.7884 12.9919 99.2474 13.868 98.3204C14.7441 97.3935 15.2162 96.1565 15.1802 94.8815C15.1442 93.6065 14.6033 92.398 13.6763 91.5219C12.8731 90.8392 12.3055 89.9206 12.0541 88.8969C11.9971 88.6328 11.9965 88.3596 12.0524 88.0953C12.1083 87.831 12.2194 87.5815 12.3785 87.3632C13.13 86.8641 13.9893 86.5507 14.8856 86.4489C16.2729 86.0997 17.7128 86.0097 19.1328 86.1834C22.2309 87.0377 24.9137 88.9869 26.6834 91.6694C27.424 92.5297 28.067 93.4695 28.6006 94.4714C29.234 95.7 29.6128 97.0439 29.7142 98.4225C29.8156 99.8011 29.6375 101.186 29.1905 102.494C28.7186 103.79 27.993 104.98 27.0561 105.993C26.1192 107.006 24.9898 107.822 23.734 108.393C22.6967 108.882 21.8686 109.726 21.399 110.773C20.9295 111.819 20.8495 112.999 21.1735 114.099C21.4975 115.199 22.2042 116.147 23.1659 116.772C24.1277 117.397 25.2811 117.658 26.418 117.507H26.477Z" fill="#FFEEBF"/>
<path d="M33.8795 265.924C34.4708 265.83 35.0403 265.63 35.5608 265.334C36.6664 264.703 37.4767 263.659 37.814 262.432C38.1513 261.204 37.988 259.893 37.3599 258.786C34.9599 254.576 33.8329 249.761 34.1155 244.923C34.1372 244.213 34.2564 243.508 34.4695 242.829C34.9425 241.867 35.6788 241.059 36.593 240.499C38.2438 239.248 40.2584 238.571 42.3297 238.571C44.4011 238.571 46.4157 239.248 48.0665 240.499C48.8856 241.272 49.4572 242.27 49.7092 243.367C49.9612 244.464 49.8823 245.611 49.4822 246.664C49.0596 247.458 48.3806 248.085 47.5558 248.444C46.731 248.803 45.809 248.872 44.94 248.64C43.7771 248.198 42.4881 248.224 41.3439 248.712C40.1998 249.201 39.2896 250.114 38.8046 251.26C38.3196 252.405 38.2975 253.694 38.7432 254.856C39.1888 256.017 40.0674 256.961 41.1942 257.488C44.3394 258.686 47.8183 258.666 50.9497 257.433C54.0812 256.2 56.6396 253.843 58.1241 250.822C59.4013 247.944 59.7581 244.742 59.1457 241.653C58.5333 238.565 56.9815 235.741 54.7027 233.568C51.4515 230.77 47.3464 229.158 43.0597 228.997C38.773 228.837 34.5587 230.136 31.107 232.683C28.6222 234.321 26.6815 236.662 25.5325 239.408C24.9488 241.008 24.6204 242.69 24.5592 244.393C24.1799 251.09 25.7362 257.756 29.0424 263.594C29.5283 264.416 30.2472 265.077 31.108 265.491C31.9689 265.906 32.9333 266.056 33.8795 265.924Z" fill="#FFEEBF"/>
<path d="M12.8207 441.772C17.5297 441.066 21.8903 438.875 25.2675 435.519C28.1048 432.552 30.2154 428.968 31.4335 425.047C32.6515 421.127 32.9438 416.978 32.2872 412.926C30.9454 405.245 27.147 398.207 21.4627 392.869C19.792 391.009 17.7634 389.504 15.4982 388.445C13.233 387.386 10.7776 386.794 8.27864 386.705C7.61776 386.669 6.9566 386.771 6.33666 387.002C5.71673 387.234 5.15136 387.591 4.67588 388.052C4.20041 388.512 3.82505 389.066 3.57343 389.678C3.32181 390.29 3.19932 390.948 3.21357 391.609C3.22782 392.271 3.37859 392.923 3.65633 393.523C3.93408 394.124 4.33278 394.661 4.82764 395.1C5.3225 395.54 5.90283 395.872 6.53217 396.077C7.16151 396.282 7.8263 396.355 8.48503 396.291C10.9467 396.631 13.1952 397.871 14.7969 399.771C18.977 403.624 21.7751 408.743 22.7605 414.342C23.1982 416.908 23.0401 419.541 22.2986 422.036C21.557 424.532 20.2518 426.824 18.4838 428.735C16.8342 430.462 14.7113 431.663 12.3815 432.188C10.0517 432.712 7.61877 432.537 5.38813 431.684C2.95348 430.394 0.914667 428.468 -0.510792 426.11C-1.43878 424.909 -2.10893 423.529 -2.47941 422.058C-2.84989 420.586 -2.91275 419.054 -2.66393 417.556C-2.31469 416.275 -1.54329 415.149 -0.474697 414.361C0.593895 413.573 1.89717 413.168 3.22437 413.212C4.55157 413.257 5.82499 413.747 6.83856 414.605C7.85213 415.463 8.54659 416.638 8.80952 417.94C9.06766 419.184 9.80929 420.274 10.8713 420.971C11.9333 421.668 13.2287 421.914 14.4724 421.656C15.7162 421.398 16.8065 420.656 17.5035 419.594C18.2004 418.532 18.4469 417.237 18.1888 415.993C17.4929 412.579 15.6661 409.5 13.0036 407.253C10.3412 405.005 6.99863 403.722 3.51637 403.609C0.0341072 403.497 -3.38435 404.562 -6.1864 406.632C-8.98845 408.703 -11.0103 411.658 -11.9252 415.02C-12.5677 417.797 -12.6133 420.68 -12.0591 423.476C-11.5049 426.272 -10.3635 428.919 -8.7103 431.242C-6.28643 435.155 -2.7976 438.296 1.34738 440.297C4.94305 441.908 8.93451 442.421 12.8207 441.772Z" fill="#FFEEBF"/>
<path d="M15.1193 521.378C16.1868 521.224 17.2349 520.957 18.2459 520.581C22.3251 519.148 25.7568 516.302 27.9206 512.559C30.0844 508.815 30.8375 504.421 30.0437 500.171C27.8611 490.231 20.4874 484.686 10.7542 485.719C4.63977 486.337 -1.05884 489.099 -5.33374 493.514C-9.60865 497.929 -12.1844 503.714 -12.6056 509.845C-12.6575 510.506 -12.5721 511.171 -12.3547 511.797C-12.1374 512.424 -11.7929 512.998 -11.3428 513.485C-10.8926 513.972 -10.3466 514.361 -9.73912 514.626C-9.13163 514.892 -8.47577 515.029 -7.81272 515.029C-7.14967 515.029 -6.49372 514.892 -5.88623 514.626C-5.27873 514.361 -4.73282 513.972 -4.28269 513.485C-3.83256 512.998 -3.48794 512.424 -3.27061 511.797C-3.05328 511.171 -2.96795 510.506 -3.01984 509.845C-3.01984 502.471 4.94371 495.924 11.7275 495.098C16.5056 494.596 19.5141 496.927 20.5759 502.059C20.8927 504.028 20.4964 506.045 19.4583 507.749C18.4202 509.452 16.8084 510.729 14.9129 511.349C14.2811 511.628 13.5984 511.771 12.9081 511.772C12.2177 511.772 11.5347 511.629 10.9025 511.352C10.2703 511.075 9.70261 510.669 9.23535 510.161C8.7681 509.653 8.41152 509.053 8.18817 508.4C7.92599 507.803 7.54507 507.265 7.06862 506.82C6.59217 506.375 6.0301 506.031 5.41666 505.81C4.80322 505.589 4.15118 505.495 3.50025 505.534C2.84931 505.572 2.21312 505.743 1.63028 506.036C1.04743 506.328 0.530128 506.736 0.109911 507.235C-0.310307 507.733 -0.624706 508.312 -0.814137 508.936C-1.00357 509.56 -1.06408 510.216 -0.991997 510.864C-0.919914 511.512 -0.716681 512.139 -0.394777 512.706C0.851513 515.676 3.05618 518.144 5.86788 519.715C8.67959 521.287 11.9364 521.872 15.1193 521.378Z" fill="#FFEEBF"/>
<path d="M22.7908 497.074C23.4048 496.979 23.9952 496.769 24.531 496.455C28.4966 494.11 31.9417 490.981 34.6551 487.258C37.3685 483.536 39.293 479.298 40.3107 474.805C41.2839 470.266 40.8117 465.535 38.9604 461.277C37.1091 457.019 33.9715 453.447 29.9875 451.062C20.9032 445.163 8.54493 444.455 1.23026 449.529C-1.47821 451.493 -3.50357 454.256 -4.56155 457.43C-5.61953 460.603 -5.65702 464.029 -4.66866 467.225C-3.91055 470.195 -2.5008 472.958 -0.541771 475.315C1.41725 477.672 3.87639 479.564 6.65726 480.852C8.8911 481.989 11.3622 482.582 13.8687 482.582C16.3753 482.582 18.8463 481.989 21.0802 480.852C23.4763 479.641 25.4814 477.777 26.8643 475.476C28.2471 473.174 28.9515 470.529 28.8962 467.845C28.7606 466.618 28.1581 465.49 27.2135 464.695C26.2689 463.9 25.0547 463.499 23.8224 463.574C22.5902 463.65 21.4343 464.197 20.5943 465.102C19.7543 466.007 19.2946 467.2 19.3105 468.435C19.2321 469.274 18.9385 470.078 18.4579 470.771C17.9774 471.463 17.3262 472.02 16.5675 472.387C15.6515 472.844 14.6418 473.082 13.618 473.082C12.5943 473.082 11.5846 472.844 10.6686 472.387C9.23699 471.72 7.96783 470.749 6.94917 469.542C5.93052 468.334 5.18678 466.92 4.76966 465.397C3.56038 459.999 6.00844 458.318 6.80479 457.787C10.8751 454.838 19.1335 455.722 24.8555 459.468C27.2266 460.82 29.1037 462.894 30.2126 465.388C31.3216 467.882 31.6044 470.665 31.0199 473.331C30.2492 476.494 28.8526 479.47 26.9123 482.084C24.9721 484.698 22.5277 486.897 19.7235 488.55C18.7878 489.131 18.0799 490.015 17.7179 491.055C17.356 492.095 17.3621 493.227 17.735 494.263C18.108 495.299 18.8253 496.176 19.767 496.747C20.7088 497.317 21.8178 497.547 22.9088 497.398L22.7908 497.074Z" fill="#FFEEBF"/>
<path d="M63.1962 490.024L149.055 477.135C149.705 477.073 150.334 476.879 150.906 476.565C151.479 476.251 151.981 475.824 152.383 475.31C152.784 474.796 153.077 474.206 153.244 473.575C153.41 472.944 153.446 472.286 153.35 471.641C153.254 470.995 153.027 470.376 152.684 469.821C152.341 469.267 151.889 468.787 151.354 468.413C150.82 468.038 150.215 467.776 149.577 467.643C148.938 467.51 148.279 467.508 147.639 467.638L61.751 480.527C61.1063 480.597 60.4825 480.797 59.9171 481.115C59.3517 481.433 58.8565 481.861 58.4611 482.375C58.0658 482.889 57.7785 483.478 57.6167 484.106C57.4548 484.734 57.4216 485.388 57.5192 486.029C57.6167 486.671 57.843 487.285 58.1843 487.837C58.5257 488.388 58.9751 488.865 59.5054 489.238C60.0358 489.611 60.6362 489.873 61.2704 490.008C61.9047 490.143 62.5598 490.149 63.1962 490.024Z" fill="#FFEEBF"/>
</g>
<defs>
<filter id="filter0_d_1276_116102" x="-86" y="0" width="337.008" height="563.472" filterUnits="userSpaceOnUse" color-interpolation-filters="sRGB">
<feFlood flood-opacity="0" result="BackgroundImageFix"/>
<feColorMatrix in="SourceAlpha" type="matrix" values="0 0 0 0 0 0 0 0 0 0 0 0 0 0 0 0 0 0 127 0" result="hardAlpha"/>
<feOffset dy="4"/>
<feGaussianBlur stdDeviation="2"/>
<feComposite in2="hardAlpha" operator="out"/>
<feColorMatrix type="matrix" values="0 0 0 0 0 0 0 0 0 0 0 0 0 0 0 0 0 0 0.1 0"/>
<feBlend mode="normal" in2="BackgroundImageFix" result="effect1_dropShadow_1276_116102"/>
<feBlend mode="normal" in="SourceGraphic" in2="effect1_dropShadow_1276_116102" result="shape"/>
</filter>
</defs>
</svg>
